<?xml version="1.0" encoding="iso-8859-1"?>
<!-- Generator: Adobe Illustrator 19.0.0, SVG Export Plug-In . SVG Version: 6.00 Build 0)  -->
<svg version="1.1" id="Layer_1" xmlns="http://www.w3.org/2000/svg" xmlns:xlink="http://www.w3.org/1999/xlink" x="0px" y="0px"
	 viewBox="0 0 496.158 496.158" style="enable-background:new 0 0 496.158 496.158;" xml:space="preserve">
<path style="fill:#4ABC96;" d="M248.082,0.003C111.07,0.003,0,111.063,0,248.085c0,137.001,111.07,248.07,248.082,248.07
	c137.006,0,248.076-111.069,248.076-248.07C496.158,111.062,385.088,0.003,248.082,0.003z"/>
<path style="fill:#33333B;" d="M418.517,382.733c-8.494-27.279-81.197-49.333-170.825-49.333S86.133,355.454,77.64,382.733
	c-2.64,8.479-5.53,22.247-8.284,37.377c45.13,46.873,108.518,76.045,178.726,76.045c70.204,0,133.589-29.171,178.719-76.042
	C424.046,404.981,421.157,391.212,418.517,382.733z"/>
<g>
	<path style="fill:#D4D6D8;" d="M247.787,362.152l-37.542-26.74c0,0,20.221,139,37.909,139s37.756-139,37.756-139L247.787,362.152z"
		/>
	<polygon style="fill:#D4D6D8;" points="247.829,316.996 208.306,322.246 210.166,335.412 247.787,363.485 285.992,335.412 
		287.852,322.246 	"/>
</g>
<path style="fill:#E2A379;" d="M286.969,282.118h-77.78c12.136,36.588,0.977,53.294,0.977,53.294l26.913,6.063h22l26.913-6.062
	C285.992,335.412,274.832,318.706,286.969,282.118z"/>
<g>
	<polygon style="fill:#F3FAFF;" points="287.852,322.246 282.079,358.746 305.746,337.792 	"/>
	<polygon style="fill:#F3FAFF;" points="208.305,322.246 190.412,337.792 214.079,358.746 	"/>
	<path style="fill:#F3FAFF;" d="M287.852,322.246l-39.794,19.229c0,0,34.03,17.28,34.198,17.113l23.489-20.796L287.852,322.246z"/>
	<path style="fill:#F3FAFF;" d="M208.305,322.246l-17.893,15.547l23.489,20.796c0.167,0.167,34.157-17.113,34.157-17.113
		L208.305,322.246z"/>
</g>
<g>
	<polygon style="fill:#86B4D1;" points="248.048,341.475 232.329,349.417 248.048,375.017 263.767,349.417 	"/>
	<path style="fill:#86B4D1;" d="M252.11,361.912h-8.141l-11.263,84.289c4.993,16.557,10.327,28.211,15.448,28.211
		c5.087,0,10.372-11.511,15.319-27.895L252.11,361.912z"/>
</g>
<g>
	<path style="fill:#4A4A54;" d="M248.079,489.495l-0.021-15.083c0,0-33.99-115.657-34.157-115.824l-17.322-26.217l-12.5,6.438
		l8,55.27l16.333-3.667l-12,14.667L248.079,489.495z"/>
	<path style="fill:#4A4A54;" d="M312.079,338.808l-12.5-6.438l-17.322,26.218c-0.167,0.167-34.157,115.824-34.157,115.824
		l-0.021,15.083l51.667-84.416l-12-14.667l16.333,3.667L312.079,338.808z"/>
</g>
<g>
	<path style="fill:#F4B382;" d="M248.08,61.579c-48.741,0-88.254,21.167-88.254,113.596c0,31.266,6.191,55.765,15.462,74.673
		c20.396,41.598,55.7,56.136,72.792,56.136s52.395-14.538,72.791-56.136c9.271-18.908,15.461-43.407,15.461-74.673
		C336.332,82.746,296.819,61.579,248.08,61.579z"/>
	<path style="fill:#F4B382;" d="M161.396,178.019c-8.438,1.443-14.856,5.077-10.096,32.922
		c4.761,27.846,10.673,29.141,19.112,27.698L161.396,178.019z"/>
</g>
<g>
	<path style="fill:#602F0F;" d="M248.08,61.579c-48.741,0-88.254,21.167-88.254,113.596c0,0,62.586,7.236,116.586-42.764
		c18.242-16.891,59.919,42.764,59.919,42.764C336.332,82.746,296.819,61.579,248.08,61.579z"/>
	<path style="fill:#602F0F;" d="M180.079,174.829l-14.625-34.062c-4.25,10.875-5.628,24.359-5.628,37.479
		c0,0,8.753-1.917,8.753,2.583l2.75,27.625l3.875-1.875C174.954,183.579,180.079,174.829,180.079,174.829z"/>
</g>
<path style="fill:#F4B382;" d="M334.86,178.019l-9.016,60.62c8.438,1.443,14.351,0.148,19.112-27.698
	C349.717,183.096,343.298,179.462,334.86,178.019z"/>
<g>
	<path style="fill:#602F0F;" d="M330.803,140.767l-14.625,34.062c0,0,5.125,8.75,4.875,31.75l3.875,1.875l2.75-27.625
		c0-4.5,8.753-2.583,8.753-2.583C336.431,165.125,335.053,151.641,330.803,140.767z"/>
	<path style="fill:#602F0F;" d="M243.363,230.217c-6.365-2.346-14.547-0.646-20.654,8.652c-5.803,8.832-17.248,2.691-17.061-3.205
		c0.174-5.455,6.494-3.322,5.283,0.229c0,0,1.645-2.307,0.691-4.385c-2.68-5.848-11.604-1.473-10.998,6.494
		c0,0,0.6,16.541,24.154,17.32c6.139,0.205,14.471-1.125,21.139-8.486C250.523,241.751,249.269,232.392,243.363,230.217z"/>
	<path style="fill:#602F0F;" d="M284.533,231.508c-0.951,2.078,0.693,4.385,0.693,4.385c-1.213-3.551,5.109-5.684,5.283-0.229
		c0.188,5.896-11.258,12.037-17.061,3.205c-6.107-9.299-14.289-10.998-20.654-8.652c-5.906,2.176-7.16,11.535-2.555,16.619
		c6.668,7.361,15,8.691,21.137,8.486c23.557-0.779,24.156-17.32,24.156-17.32C296.139,230.035,287.213,225.66,284.533,231.508z"/>
</g>
<g>
</g>
<g>
</g>
<g>
</g>
<g>
</g>
<g>
</g>
<g>
</g>
<g>
</g>
<g>
</g>
<g>
</g>
<g>
</g>
<g>
</g>
<g>
</g>
<g>
</g>
<g>
</g>
<g>
</g>
</svg>
