<?xml version="1.0" encoding="iso-8859-1"?>
<!-- Generator: Adobe Illustrator 19.0.0, SVG Export Plug-In . SVG Version: 6.00 Build 0)  -->
<svg version="1.1" id="Layer_1" xmlns="http://www.w3.org/2000/svg" xmlns:xlink="http://www.w3.org/1999/xlink" x="0px" y="0px"
	 viewBox="0 0 496.158 496.158" style="enable-background:new 0 0 496.158 496.158;" xml:space="preserve">
<path style="fill:#22A85B;" d="M248.082,0.003C111.07,0.003,0,111.063,0,248.085c0,137.001,111.07,248.07,248.082,248.07
	c137.006,0,248.076-111.069,248.076-248.07C496.158,111.062,385.088,0.003,248.082,0.003z"/>
<path style="fill:#33333B;" d="M394.818,382.733c-7.312-27.279-69.907-49.333-147.073-49.333s-139.095,22.054-146.407,49.333
	c-3.259,12.158-6.962,35.192-10.126,57.525c42.747,34.934,97.357,55.897,156.87,55.897c59.509,0,114.116-20.963,156.862-55.896
	C401.78,417.926,398.077,394.891,394.818,382.733z"/>
<polygon style="fill:#969899;" points="247.829,316.996 208.306,322.246 210.167,335.412 247.787,363.485 285.991,335.412 
	287.852,322.246 "/>
<path style="fill:#7F3E09;" d="M247.829,316.996l-37.662,18.417c0,0,16.828,28.073,37.62,28.073s38.204-28.073,38.204-28.073
	L247.829,316.996z"/>
<path style="fill:#33333B;" d="M212.857,339.179l-2.612-3.767C210.245,335.412,211.008,336.986,212.857,339.179z M283.927,338.286
	c1.384-1.713,1.984-2.873,1.984-2.873L283.927,338.286z M247.788,352.746c-20.422,0-30.632-8.469-34.931-13.567l35.298,50.9
	l35.771-51.793C279.95,343.21,269.457,352.746,247.788,352.746z"/>
<path style="fill:#E5BA9C;" d="M286.969,282.118h-77.78c12.136,36.588,0.978,53.294,0.978,53.294l26.912,17.334h22l26.912-17.333
	C285.991,335.412,274.833,318.706,286.969,282.118z"/>
<g>
	<path style="fill:#F3FAFF;" d="M287.852,322.246l-39.794,30.5c0,0,34.03,6.009,34.198,5.842l23.488-20.796L287.852,322.246z"/>
	<path style="fill:#F3FAFF;" d="M208.306,322.246l-17.894,15.547l23.489,20.796c0.168,0.167,34.157-5.842,34.157-5.842
		L208.306,322.246z"/>
</g>
<path style="fill:#AF4B19;" d="M248.08,61.579c-48.741,0-88.254,21.167-88.254,113.596c0,31.266,6.19,55.765,15.462,74.673
	c20.396,41.598,55.7,56.136,72.792,56.136s52.396-14.538,72.79-56.136c9.271-18.908,15.462-43.407,15.462-74.673
	C336.332,82.746,296.819,61.579,248.08,61.579z"/>
<path style="fill:#F9C5A2;" d="M248.08,61.579c-48.415,0-87.726,20.885-88.249,111.75c-0.003,0.612,7.557,1.228,7.557,1.846
	c0,31.266,12.359,97.904,80.692,97.904s80.69-66.638,80.69-97.904c0-0.703,7.559-1.402,7.555-2.097
	C335.729,82.425,296.448,61.579,248.08,61.579z"/>
<path style="fill:#AF4B19;" d="M248.08,61.579C248.079,61.579,248.079,61.579,248.08,61.579h-0.002
	c-54.798,0-99.222,21.168-99.222,113.596c0,0,130.131-1.449,130.131-35.096c0,33.647,68.314,35.096,68.314,35.096
	C347.302,82.747,302.879,61.579,248.08,61.579z"/>
<g>
	<circle style="fill:#C98A5F;" cx="274.369" cy="233.199" r="1.875"/>
	<circle style="fill:#C98A5F;" cx="274.369" cy="220.739" r="1.875"/>
	<circle style="fill:#C98A5F;" cx="274.369" cy="208.279" r="1.875"/>
	<circle style="fill:#C98A5F;" cx="299.289" cy="233.199" r="1.875"/>
	<circle style="fill:#C98A5F;" cx="299.289" cy="220.739" r="1.875"/>
	<circle style="fill:#C98A5F;" cx="299.289" cy="208.279" r="1.875"/>
	<circle style="fill:#C98A5F;" cx="286.829" cy="239.499" r="1.875"/>
	<circle style="fill:#C98A5F;" cx="286.829" cy="227.039" r="1.875"/>
	<circle style="fill:#C98A5F;" cx="286.829" cy="214.579" r="1.875"/>
	<circle style="fill:#C98A5F;" cx="286.829" cy="202.119" r="1.875"/>
	<circle style="fill:#C98A5F;" cx="196.869" cy="233.199" r="1.875"/>
	<circle style="fill:#C98A5F;" cx="196.869" cy="220.739" r="1.875"/>
	<circle style="fill:#C98A5F;" cx="196.869" cy="208.279" r="1.875"/>
	<circle style="fill:#C98A5F;" cx="221.789" cy="233.199" r="1.875"/>
	<circle style="fill:#C98A5F;" cx="221.789" cy="220.739" r="1.875"/>
	<circle style="fill:#C98A5F;" cx="221.789" cy="208.279" r="1.875"/>
	<circle style="fill:#C98A5F;" cx="209.329" cy="239.499" r="1.875"/>
	<circle style="fill:#C98A5F;" cx="209.329" cy="227.039" r="1.875"/>
	<circle style="fill:#C98A5F;" cx="209.329" cy="214.579" r="1.875"/>
	<circle style="fill:#C98A5F;" cx="209.329" cy="202.119" r="1.875"/>
</g>
<g>
	<path style="fill:#F9C5A2;" d="M161.396,178.019c-8.438,1.443-14.856,5.077-10.096,32.922s10.673,29.141,19.112,27.698
		L161.396,178.019z"/>
	<path style="fill:#F9C5A2;" d="M334.86,178.019l-9.016,60.62c8.438,1.443,14.35,0.148,19.111-27.698
		C349.717,183.096,343.298,179.462,334.86,178.019z"/>
</g>
<path style="fill:#AF4B19;" d="M248.079,239.079c-25.049,0-37.75,8.075-37.75,24c0,19.561,19.404,40.25,37.75,40.25
	s37.75-20.689,37.75-40.25C285.829,247.154,273.128,239.079,248.079,239.079z M248.079,291.065
	c-13.396,0-28.666-12.937-28.666-27.388c0-4.02,0-16.251,28.666-16.251s28.666,12.232,28.666,16.251
	C276.745,278.128,261.475,291.065,248.079,291.065z"/>
<g>
</g>
<g>
</g>
<g>
</g>
<g>
</g>
<g>
</g>
<g>
</g>
<g>
</g>
<g>
</g>
<g>
</g>
<g>
</g>
<g>
</g>
<g>
</g>
<g>
</g>
<g>
</g>
<g>
</g>
</svg>
