<?xml version="1.0" encoding="iso-8859-1"?>
<!-- Generator: Adobe Illustrator 19.0.0, SVG Export Plug-In . SVG Version: 6.00 Build 0)  -->
<svg version="1.1" id="Layer_1" xmlns="http://www.w3.org/2000/svg" xmlns:xlink="http://www.w3.org/1999/xlink" x="0px" y="0px"
	 viewBox="0 0 496.158 496.158" style="enable-background:new 0 0 496.158 496.158;" xml:space="preserve">
<path style="fill:#22A85B;" d="M248.082,0.003C111.07,0.003,0,111.063,0,248.085c0,137.001,111.07,248.07,248.082,248.07
	c137.006,0,248.076-111.069,248.076-248.07C496.158,111.062,385.088,0.003,248.082,0.003z"/>
<path style="fill:#E07F0B;" d="M394.818,382.733c-7.312-27.279-69.907-49.333-147.073-49.333s-139.095,22.054-146.407,49.333
	c-3.259,12.158-6.961,35.192-10.126,57.525c42.747,34.934,97.358,55.897,156.87,55.897c59.509,0,114.117-20.963,156.863-55.896
	C401.78,417.926,398.078,394.891,394.818,382.733z"/>
<polygon style="fill:#969899;" points="247.829,316.996 208.306,322.246 210.166,335.412 247.787,363.485 285.992,335.412 
	287.852,322.246 "/>
<path style="fill:#7F3E09;" d="M247.829,316.996l-37.662,18.417c0,0,16.829,28.073,37.621,28.073s38.205-28.073,38.205-28.073
	L247.829,316.996z"/>
<path style="fill:#E07F0B;" d="M212.858,339.18l-2.612-3.767C210.246,335.412,211.008,336.986,212.858,339.18z M247.787,352.746
	c-20.421,0-30.63-8.468-34.93-13.566l35.298,50.899l35.772-51.793C279.95,343.21,269.457,352.746,247.787,352.746z M283.927,338.286
	c1.384-1.713,1.984-2.873,1.984-2.873L283.927,338.286z"/>
<path style="fill:#7F3E09;" d="M286.969,282.118h-77.78c12.136,36.588,0.977,53.294,0.977,53.294l26.913,17.334h22l26.913-17.333
	C285.992,335.412,274.832,318.706,286.969,282.118z"/>
<g>
	<path style="fill:#F3FAFF;" d="M287.852,322.246l-39.794,30.5c0,0,34.03,6.009,34.198,5.842l23.489-20.796L287.852,322.246z"/>
	<path style="fill:#F3FAFF;" d="M208.305,322.246l-17.893,15.547l23.489,20.796c0.167,0.167,34.157-5.842,34.157-5.842
		L208.305,322.246z"/>
</g>
<path style="fill:#261D17;" d="M248.08,61.579c-48.741,0-88.254,21.167-88.254,113.596c0,31.266,6.191,55.765,15.462,74.673
	c20.396,41.598,55.7,56.136,72.792,56.136s52.395-14.538,72.791-56.136c9.271-18.908,15.461-43.407,15.461-74.673
	C336.332,82.746,296.819,61.579,248.08,61.579z"/>
<g>
	<path style="fill:#8E4809;" d="M248.08,61.579c-48.415,0-87.725,20.885-88.249,111.75c-0.003,0.612,7.556,1.228,7.556,1.846
		c0,31.266,12.36,97.904,80.693,97.904s80.691-66.638,80.691-97.904c0-0.703,7.559-1.402,7.554-2.097
		C335.73,82.425,296.449,61.579,248.08,61.579z"/>
	<path style="fill:#8E4809;" d="M161.396,178.019c-8.438,1.443-14.856,5.077-10.096,32.922
		c4.761,27.846,10.673,29.141,19.112,27.698L161.396,178.019z"/>
	<path style="fill:#8E4809;" d="M334.86,178.019l-9.016,60.62c8.438,1.443,14.351,0.148,19.112-27.698
		C349.717,183.096,343.298,179.462,334.86,178.019z"/>
</g>
<g>
	<path style="fill:#261D17;" d="M248.079,239.079c-25.049,0-37.75,8.075-37.75,24c0,19.561,19.404,40.25,37.75,40.25
		s37.75-20.689,37.75-40.25C285.829,247.154,273.128,239.079,248.079,239.079z M248.079,291.065
		c-13.396,0-28.667-12.937-28.667-27.388c0-4.02,0-16.251,28.667-16.251s28.667,12.232,28.667,16.251
		C276.746,278.128,261.475,291.065,248.079,291.065z"/>
	<path style="fill:#261D17;" d="M253.079,263.329c-0.293-0.819-0.771-1.639-1.467-2.458c-0.729-0.82-1.593-1.639-3.033-2.458h-1
		c-1.44,0.819-2.305,1.639-3.033,2.458c-0.695,0.819-1.174,1.639-1.467,2.458c-0.301,0.82-0.273,1.639,0.05,2.458
		c0.319,0.819,0.751,1.639,0.95,2.458c0.403,1.639,0.903,3.278,1.5,4.917c0.613,1.639,1.209,3.278,2,4.917h1
		c0.791-1.639,1.387-3.278,2-4.917c0.597-1.639,1.097-3.278,1.5-4.917c0.199-0.819,0.631-1.639,0.95-2.458
		C253.352,264.969,253.38,264.149,253.079,263.329z"/>
</g>
<g>
</g>
<g>
</g>
<g>
</g>
<g>
</g>
<g>
</g>
<g>
</g>
<g>
</g>
<g>
</g>
<g>
</g>
<g>
</g>
<g>
</g>
<g>
</g>
<g>
</g>
<g>
</g>
<g>
</g>
</svg>
