<?xml version="1.0" encoding="iso-8859-1"?>
<!-- Generator: Adobe Illustrator 19.0.0, SVG Export Plug-In . SVG Version: 6.00 Build 0)  -->
<svg version="1.1" id="Layer_1" xmlns="http://www.w3.org/2000/svg" xmlns:xlink="http://www.w3.org/1999/xlink" x="0px" y="0px"
	 viewBox="0 0 496.158 496.158" style="enable-background:new 0 0 496.158 496.158;" xml:space="preserve">
<path style="fill:#A3D5E0;" d="M248.082,0.003C111.07,0.003,0,111.063,0,248.085c0,137.001,111.07,248.07,248.082,248.07
	c137.006,0,248.076-111.069,248.076-248.07C496.158,111.062,385.088,0.003,248.082,0.003z"/>
<path style="fill:#388E6F;" d="M418.517,382.733c-8.494-27.279-81.197-49.333-170.825-49.333S86.133,355.454,77.64,382.733
	c-2.64,8.479-5.53,22.247-8.284,37.377c45.13,46.873,108.518,76.045,178.726,76.045c70.204,0,133.589-29.171,178.719-76.042
	C424.046,404.981,421.157,391.212,418.517,382.733z"/>
<g>
	<path style="fill:#D4D6D8;" d="M247.787,362.152l-37.542-26.74c0,0,20.221,139,37.909,139s37.756-139,37.756-139L247.787,362.152z"
		/>
	<polygon style="fill:#D4D6D8;" points="247.829,316.996 208.306,322.246 210.166,335.412 247.787,363.485 285.992,335.412 
		287.852,322.246 	"/>
</g>
<path style="fill:#7F3E09;" d="M286.969,282.118h-77.78c12.136,36.588,0.977,53.294,0.977,53.294l26.913,6.063h22l26.913-6.062
	C285.992,335.412,274.832,318.706,286.969,282.118z"/>
<g>
	<polygon style="fill:#F3FAFF;" points="287.852,322.246 282.079,358.746 305.746,337.792 	"/>
	<polygon style="fill:#F3FAFF;" points="208.305,322.246 190.412,337.792 214.079,358.746 	"/>
	<path style="fill:#F3FAFF;" d="M287.852,322.246l-39.794,19.229c0,0,34.03,17.28,34.198,17.113l23.489-20.796L287.852,322.246z"/>
	<path style="fill:#F3FAFF;" d="M208.305,322.246l-17.893,15.547l23.489,20.796c0.167,0.167,34.157-17.113,34.157-17.113
		L208.305,322.246z"/>
</g>
<g>
	<polygon style="fill:#86B4D1;" points="248.048,341.475 232.329,349.417 248.048,375.017 263.767,349.417 	"/>
	<path style="fill:#86B4D1;" d="M252.11,361.912h-8.141l-11.263,84.289c4.993,16.557,10.327,28.211,15.448,28.211
		c5.087,0,10.372-11.511,15.319-27.895L252.11,361.912z"/>
</g>
<g>
	<path style="fill:#4ABC96;" d="M248.079,489.495l-0.021-15.083c0,0-33.99-115.657-34.157-115.824l-17.322-26.217l-12.5,6.438
		l8,55.27l16.333-3.667l-12,14.667L248.079,489.495z"/>
	<path style="fill:#4ABC96;" d="M312.079,338.808l-12.5-6.438l-17.322,26.218c-0.167,0.167-34.157,115.824-34.157,115.824
		l-0.021,15.083l51.667-84.416l-12-14.667l16.333,3.667L312.079,338.808z"/>
</g>
<path style="fill:#8E4809;" d="M248.08,61.579c-48.741,0-88.254,21.167-88.254,113.596c0,31.266,6.191,55.765,15.462,74.673
	c20.396,41.598,55.7,56.136,72.792,56.136s52.395-14.538,72.791-56.136c9.271-18.908,15.461-43.407,15.461-74.673
	C336.332,82.746,296.819,61.579,248.08,61.579z"/>
<g>
	<path style="fill:#261D17;" d="M248.081,61.579c-66.502,0-88.255,21.167-88.255,113.596c0,0,4.033-30.473,18.946-45.596
		c13.123-13.308,34.67-11.5,69.309-11.5c2.57,0,5.068-0.007,7.498-0.016c1.619-0.006,4.766-15.517,4.766-15.517
		s5.936,15.486,8.734,15.501c23.166,0.122,38.689,1.553,48.923,12.163c14.409,14.938,18.33,44.966,18.33,44.966
		C336.332,82.746,314.581,61.579,248.081,61.579z"/>
	<path style="fill:#261D17;" d="M293.089,239.026c0-8.315-19.633-15.385-41.337-16.605c-1.012-0.057-3.464,5.657-3.673,5.658
		c-0.209-0.001-2.554-5.718-3.514-5.667c-21.768,1.179-41.496,8.278-41.496,16.614c0,2.62-1.644,21.503,5.983,16.03
		c6.207-10.165,20.241-17.87,35.281-18.57c1.221-0.057,2.471,1.254,3.746,1.269c1.331-0.016,2.633-1.324,3.907-1.261
		c14.956,0.734,28.288,7.224,35.12,18.562C294.732,260.53,293.089,241.646,293.089,239.026z"/>
</g>
<g>
	<path style="fill:#8E4809;" d="M161.396,178.019c-8.438,1.443-14.856,5.077-10.096,32.922
		c4.761,27.846,10.673,29.141,19.112,27.698L161.396,178.019z"/>
	<path style="fill:#8E4809;" d="M334.86,178.019l-9.016,60.62c8.438,1.443,14.351,0.148,19.112-27.698
		C349.717,183.096,343.298,179.462,334.86,178.019z"/>
</g>
<g>
	<path style="fill:#261D17;" d="M334.141,140.767l-17.964,34.062c0,0,5.125,8.75,4.875,31.75l3.875,1.875l2.75-27.625
		c0-4.5,8.753-2.583,8.753-2.583C337.162,159.412,334.141,140.767,334.141,140.767z"/>
	<path style="fill:#261D17;" d="M179.962,174.829l-17.964-34.062c0,0-3.021,18.646-2.289,37.479c0,0,8.753-1.917,8.753,2.583
		l2.75,27.625l3.875-1.875C174.837,183.579,179.962,174.829,179.962,174.829z"/>
</g>
<g>
</g>
<g>
</g>
<g>
</g>
<g>
</g>
<g>
</g>
<g>
</g>
<g>
</g>
<g>
</g>
<g>
</g>
<g>
</g>
<g>
</g>
<g>
</g>
<g>
</g>
<g>
</g>
<g>
</g>
</svg>
