<?xml version="1.0" encoding="iso-8859-1"?>
<!-- Generator: Adobe Illustrator 19.0.0, SVG Export Plug-In . SVG Version: 6.00 Build 0)  -->
<svg version="1.1" id="Layer_1" xmlns="http://www.w3.org/2000/svg" xmlns:xlink="http://www.w3.org/1999/xlink" x="0px" y="0px"
	 viewBox="0 0 496.158 496.158" style="enable-background:new 0 0 496.158 496.158;" xml:space="preserve">
<path style="fill:#337180;" d="M248.081,0.003C111.07,0.003,0,111.063,0,248.085c0,137.001,111.07,248.07,248.081,248.07
	c137.007,0,248.077-111.069,248.077-248.07C496.158,111.062,385.088,0.003,248.081,0.003z"/>
<path style="fill:#D33D3D;" d="M394.818,382.733c-7.312-27.279-69.907-49.333-147.073-49.333s-139.095,22.054-146.407,49.333
	c-3.259,12.158-6.962,35.192-10.126,57.525c42.747,34.934,97.357,55.897,156.869,55.897c59.51,0,114.117-20.963,156.863-55.896
	C401.78,417.926,398.077,394.891,394.818,382.733z"/>
<path style="fill:#DB9A6E;" d="M286.969,282.118h-77.78c12.136,36.588,0.978,53.294,0.978,53.294l26.912,17.334h22l26.912-17.333
	C285.991,335.412,274.833,318.706,286.969,282.118z"/>
<path style="fill:#282828;" d="M248.081,61.579c-48.742,0-88.255,21.167-88.255,113.596c0,31.266,6.19,55.765,15.462,74.673
	c20.396,41.598,55.7,56.136,72.793,56.136c17.091,0,52.395-14.538,72.789-56.136c9.271-18.908,15.461-43.407,15.461-74.673
	C336.331,82.746,296.819,61.579,248.081,61.579z"/>
<g>
	<path style="fill:#DB9A6E;" d="M248.081,61.579c-48.416,0-87.727,20.885-88.25,111.75c-0.003,0.612,7.557,1.228,7.557,1.846
		c0,31.266,12.359,97.904,80.693,97.904c68.332,0,80.689-66.638,80.689-97.904c0-0.703,7.559-1.402,7.555-2.097
		C335.729,82.425,296.448,61.579,248.081,61.579z"/>
	<path style="fill:#DB9A6E;" d="M161.396,178.019c-8.438,1.443-14.856,5.077-10.096,32.922s10.673,29.141,19.112,27.698
		L161.396,178.019z"/>
	<path style="fill:#DB9A6E;" d="M334.86,178.019l-9.016,60.62c8.438,1.443,14.35,0.148,19.111-27.698
		C349.717,183.096,343.298,179.462,334.86,178.019z"/>
</g>
<path style="fill:#282828;" d="M248.079,239.079c-25.049,0-37.75,8.075-37.75,24c0,19.561,19.404,40.25,37.75,40.25
	s37.75-20.689,37.75-40.25C285.829,247.154,273.128,239.079,248.079,239.079z M248.079,291.065
	c-13.396,0-28.666-12.937-28.666-27.388c0-4.02,0-16.251,28.666-16.251s28.666,12.232,28.666,16.251
	C276.745,278.128,261.475,291.065,248.079,291.065z"/>
<polygon style="fill:#DB9A6E;" points="247.829,316.996 210.167,335.412 247.787,363.485 285.991,335.412 "/>
<g>
</g>
<g>
</g>
<g>
</g>
<g>
</g>
<g>
</g>
<g>
</g>
<g>
</g>
<g>
</g>
<g>
</g>
<g>
</g>
<g>
</g>
<g>
</g>
<g>
</g>
<g>
</g>
<g>
</g>
</svg>
