<?xml version="1.0" encoding="utf-8"?>
<svg viewBox="8.830674171447754 150.6240692138672 109.88264465332031 97.66592407226562" width="109.88264465332031" height="97.66592407226562" xmlns="http://www.w3.org/2000/svg">
  <defs>
    <style>.cls-1,.cls-15{fill:#eccbbd;}.cls-1,.cls-10,.cls-11,.cls-12,.cls-13,.cls-14,.cls-17,.cls-18,.cls-19,.cls-20,.cls-21,.cls-22,.cls-23,.cls-24,.cls-25,.cls-28,.cls-29,.cls-3,.cls-30,.cls-31,.cls-32,.cls-6,.cls-7,.cls-8{stroke:#ae5536;}.cls-1,.cls-10,.cls-11,.cls-12,.cls-13,.cls-14,.cls-17,.cls-18,.cls-20,.cls-21,.cls-22,.cls-23,.cls-24,.cls-25,.cls-28,.cls-29,.cls-3,.cls-30,.cls-31,.cls-32,.cls-33,.cls-6,.cls-7,.cls-8{stroke-linecap:round;}.cls-1,.cls-10,.cls-11,.cls-12,.cls-13,.cls-14,.cls-17,.cls-18,.cls-19,.cls-20,.cls-21,.cls-22,.cls-23,.cls-24,.cls-25,.cls-28,.cls-29,.cls-3,.cls-30,.cls-31,.cls-32,.cls-33,.cls-6,.cls-8{stroke-linejoin:round;}.cls-1,.cls-10,.cls-12,.cls-13,.cls-14,.cls-18,.cls-19,.cls-20,.cls-25,.cls-3,.cls-30,.cls-31,.cls-32,.cls-6,.cls-8{stroke-width:2px;}.cls-11,.cls-18,.cls-2,.cls-7{fill:none;}.cls-17,.cls-3,.cls-9{fill:#fff;}.cls-4{fill:#e5f3ea;}.cls-5{fill:#faf1ce;}.cls-6{fill:#f0f7f9;}.cls-7{stroke-miterlimit:10;}.cls-8{fill:#f6e6a7;}.cls-10{fill:#e3ecc1;}.cls-12{fill:#d5a696;}.cls-13{fill:#f4e297;}.cls-14{fill:#f8eec2;}.cls-16{clip-path:url(#clip-path);}.cls-19{fill:#f3e0d8;}.cls-20{fill:#e0eef2;}.cls-21{fill:#d4e9ed;}.cls-22{fill:#efd4c9;}.cls-23{fill:#e0eabb;}.cls-24{fill:#f8ecba;}.cls-25{fill:#f1d9d0;}.cls-26{clip-path:url(#clip-path-2);}.cls-27{clip-path:url(#clip-path-3);}.cls-28{fill:#cae3e9;}.cls-29{fill:#ebf4f7;}.cls-30{fill:#ebd4cd;}.cls-31{fill:#b5d8e1;}.cls-32{fill:#e3b4a1;}.cls-33{fill:#b6d391;stroke:#5e7658;}.cls-34,.cls-35{font-size:14px;font-family:Arial-BoldMT, Arial;font-weight:700;}.cls-35{fill:#5e7658;}</style>
  </defs>
  <circle class="cls-5" cx="70.712" cy="203.29" r="45" transform="matrix(0.9999999999999999, 0, 0, 0.9999999999999999, 0, 0)"/>
  <path class="cls-6" d="M 44.982 208.03 C 44.657 208.237 44.37 208.497 44.132 208.8 C 43.561 209.558 43.277 210.493 43.332 211.44 C 43.452 214.44 43.152 224.74 33.442 225.36 C 26.872 225.78 24.332 221.11 23.352 217.78 C 22.855 216.026 21.293 214.786 19.472 214.7 C 15.522 214.52 9.322 213.08 8.872 205.88 C 7.752 187.88 29.772 195.66 29.772 195.66 C 29.772 195.66 30.352 196.1 32.712 194.83 L 82.602 167.99 C 83.477 167.368 84.088 166.44 84.312 165.39 C 84.312 165.39 82.772 151.39 94.152 150.65 C 104.262 150.01 104.842 161.43 104.842 161.43 C 104.842 161.43 118.012 159.52 118.672 170.14 C 119.792 188.14 97.772 180.36 97.772 180.36 C 97.772 180.36 97.192 179.92 94.832 181.19 Z" transform="matrix(0.9999999999999999, 0, 0, 0.9999999999999999, 0, 0)"/>
  <text class="cls-34" style="white-space: pre; font-size: 14px;" x="63.402" y="220.37" transform="matrix(0.9999999999999999, 0, 0, 0.9999999999999999, 0, 0)">Bone</text>
  <path class="cls-7" d="M 109.175 168.204 C 109.175 168.204 104.675 167.614 105.175 160.084" transform="matrix(0.9999999999999999, 0, 0, 0.9999999999999999, 0, 0)"/>
  <path class="cls-7" d="M 19.047 207.001 C 19.047 207.001 23.547 207.591 23.047 215.121" transform="matrix(0.9999999999999999, 0, 0, 0.9999999999999999, 0, 0)"/>
</svg>