<?xml version="1.0" encoding="utf-8"?>
<svg viewBox="142.92401123046875 10.853495597839355 90 110.80950927734375" width="90" height="110.80950927734375" xmlns="http://www.w3.org/2000/svg">
  <defs>
    <style>.cls-1,.cls-15{fill:#eccbbd;}.cls-1,.cls-10,.cls-11,.cls-12,.cls-13,.cls-14,.cls-17,.cls-18,.cls-19,.cls-20,.cls-21,.cls-22,.cls-23,.cls-24,.cls-25,.cls-28,.cls-29,.cls-3,.cls-30,.cls-31,.cls-32,.cls-6,.cls-7,.cls-8{stroke:#ae5536;}.cls-1,.cls-10,.cls-11,.cls-12,.cls-13,.cls-14,.cls-17,.cls-18,.cls-20,.cls-21,.cls-22,.cls-23,.cls-24,.cls-25,.cls-28,.cls-29,.cls-3,.cls-30,.cls-31,.cls-32,.cls-33,.cls-6,.cls-7,.cls-8{stroke-linecap:round;}.cls-1,.cls-10,.cls-11,.cls-12,.cls-13,.cls-14,.cls-17,.cls-18,.cls-19,.cls-20,.cls-21,.cls-22,.cls-23,.cls-24,.cls-25,.cls-28,.cls-29,.cls-3,.cls-30,.cls-31,.cls-32,.cls-33,.cls-6,.cls-8{stroke-linejoin:round;}.cls-1,.cls-10,.cls-12,.cls-13,.cls-14,.cls-18,.cls-19,.cls-20,.cls-25,.cls-3,.cls-30,.cls-31,.cls-32,.cls-6,.cls-8{stroke-width:2px;}.cls-11,.cls-18,.cls-2,.cls-7{fill:none;}.cls-17,.cls-3,.cls-9{fill:#fff;}.cls-4{fill:#e5f3ea;}.cls-5{fill:#faf1ce;}.cls-6{fill:#f0f7f9;}.cls-7{stroke-miterlimit:10;}.cls-8{fill:#f6e6a7;}.cls-10{fill:#e3ecc1;}.cls-12{fill:#d5a696;}.cls-13{fill:#f4e297;}.cls-14{fill:#f8eec2;}.cls-16{clip-path:url(#clip-path);}.cls-19{fill:#f3e0d8;}.cls-20{fill:#e0eef2;}.cls-21{fill:#d4e9ed;}.cls-22{fill:#efd4c9;}.cls-23{fill:#e0eabb;}.cls-24{fill:#f8ecba;}.cls-25{fill:#f1d9d0;}.cls-26{clip-path:url(#clip-path-2);}.cls-27{clip-path:url(#clip-path-3);}.cls-28{fill:#cae3e9;}.cls-29{fill:#ebf4f7;}.cls-30{fill:#ebd4cd;}.cls-31{fill:#b5d8e1;}.cls-32{fill:#e3b4a1;}.cls-33{fill:#b6d391;stroke:#5e7658;}.cls-34,.cls-35{font-size:14px;font-family:Arial-BoldMT, Arial;font-weight:700;}.cls-35{fill:#5e7658;}</style>
  </defs>
  <circle class="cls-5" cx="187.924" cy="76.663" r="45" transform="matrix(1, 0, 0, 1, 0, 0)"/>
  <text class="cls-34" style="white-space: pre; font-size: 14px;" x="158.472" y="106.843" transform="matrix(1, 0, 0, 1, 0, 0)">Intestine</text>
  <path class="cls-10" d="M 180.251 18.011 C 180.251 18.011 185.59 27.691 184.251 31.011 C 182.911 34.331 179.99 34.251 171.561 36.881 C 161.472 40 154.224 48.846 153.15 59.351 C 153.15 59.351 150.15 76.581 173.811 83.811 C 187.59 88.031 197.24 86.721 198.811 86.381 C 203.14 85.381 203.39 76.381 197.48 76.381 C 188.851 76.381 179.48 75.301 173.221 72.381 C 161.92 67.171 166.76 59.241 166.76 59.241 C 174.326 64.937 183.391 68.298 192.84 68.911 C 211.46 69.911 224.751 61.091 226.61 45.321 C 228.381 30.321 221.61 19.491 210.721 19.001 C 205.7 18.807 200.746 20.207 196.571 23.001 L 192.001 12.791 C 192.001 12.791 190.001 9.441 184.26 11.551 C 178.21 13.791 180.251 18.011 180.251 18.011 Z" transform="matrix(1, 0, 0, 1, 0, 0)"/>
  <path class="cls-11" d="M 181.63 74.251 C 181.63 74.251 181.63 81.126 180.557 83.284" transform="matrix(1, 0, 0, 1, 0, 0)"/>
  <path class="cls-11" d="M 168.331 77.525 C 168.331 77.525 170.011 76.335 169.911 72.215" transform="matrix(1, 0, 0, 1, 0, 0)"/>
  <path class="cls-11" d="M 187.564 76.505 C 187.564 76.505 187.564 83.38 186.491 85.538" transform="matrix(1, 0, 0, 1, 0, 0)"/>
  <path class="cls-11" d="M 174.92 79.996 C 174.92 79.996 176.6 78.806 176.5 74.686" transform="matrix(1, 0, 0, 1, 0, 0)"/>
  <ellipse class="cls-11" cx="299.371" cy="770.992" rx="3.15" ry="1.37" transform="matrix(0.9648760557174683, -0.26269400119781494, 0.2626970112323761, 0.9648820757865906, -304.469482421875, -649.6342163085938)"/>
</svg>