<?xml version="1.0" encoding="utf-8"?>
<svg viewBox="10.76248836517334 388.5380554199219 130.04629516601562 93.93295288085938" width="130.04629516601562" height="93.93295288085938" xmlns="http://www.w3.org/2000/svg">
  <defs>
    <style>.cls-1,.cls-15{fill:#eccbbd;}.cls-1,.cls-10,.cls-11,.cls-12,.cls-13,.cls-14,.cls-17,.cls-18,.cls-19,.cls-20,.cls-21,.cls-22,.cls-23,.cls-24,.cls-25,.cls-28,.cls-29,.cls-3,.cls-30,.cls-31,.cls-32,.cls-6,.cls-7,.cls-8{stroke:#ae5536;}.cls-1,.cls-10,.cls-11,.cls-12,.cls-13,.cls-14,.cls-17,.cls-18,.cls-20,.cls-21,.cls-22,.cls-23,.cls-24,.cls-25,.cls-28,.cls-29,.cls-3,.cls-30,.cls-31,.cls-32,.cls-33,.cls-6,.cls-7,.cls-8{stroke-linecap:round;}.cls-1,.cls-10,.cls-11,.cls-12,.cls-13,.cls-14,.cls-17,.cls-18,.cls-19,.cls-20,.cls-21,.cls-22,.cls-23,.cls-24,.cls-25,.cls-28,.cls-29,.cls-3,.cls-30,.cls-31,.cls-32,.cls-33,.cls-6,.cls-8{stroke-linejoin:round;}.cls-1,.cls-10,.cls-12,.cls-13,.cls-14,.cls-18,.cls-19,.cls-20,.cls-25,.cls-3,.cls-30,.cls-31,.cls-32,.cls-6,.cls-8{stroke-width:2px;}.cls-11,.cls-18,.cls-2,.cls-7{fill:none;}.cls-17,.cls-3,.cls-9{fill:#fff;}.cls-4{fill:#e5f3ea;}.cls-5{fill:#faf1ce;}.cls-6{fill:#f0f7f9;}.cls-7{stroke-miterlimit:10;}.cls-8{fill:#f6e6a7;}.cls-10{fill:#e3ecc1;}.cls-12{fill:#d5a696;}.cls-13{fill:#f4e297;}.cls-14{fill:#f8eec2;}.cls-16{clip-path:url(#clip-path);}.cls-19{fill:#f3e0d8;}.cls-20{fill:#e0eef2;}.cls-21{fill:#d4e9ed;}.cls-22{fill:#efd4c9;}.cls-23{fill:#e0eabb;}.cls-24{fill:#f8ecba;}.cls-25{fill:#f1d9d0;}.cls-26{clip-path:url(#clip-path-2);}.cls-27{clip-path:url(#clip-path-3);}.cls-28{fill:#cae3e9;}.cls-29{fill:#ebf4f7;}.cls-30{fill:#ebd4cd;}.cls-31{fill:#b5d8e1;}.cls-32{fill:#e3b4a1;}.cls-33{fill:#b6d391;stroke:#5e7658;}.cls-34,.cls-35{font-size:14px;font-family:Arial-BoldMT, Arial;font-weight:700;}.cls-35{fill:#5e7658;}</style>
  </defs>
  <circle class="cls-5" cx="51.62" cy="514.88" r="45" transform="matrix(1, 0, 0, 1, 41.76137161254883, -77.40899658203125)"/>
  <path class="cls-6" d="M53.12,485.6l5.5-2A4.89,4.89,0,0,0,61,481s.59-16.09,13.56-15c11.53.95,10.29,14,10.29,14S100,479.92,99,492c-1.71,20.5-25.3,8.08-25.3,8.08s-.58-.59-3.46.45L9.44,522.62c-.43.19-5.89,3.22-6.19,3.51-.79.74,3.87-1,3.75.08-.36,3.41-2.41,15-13.48,14.09-7.49-.62-9.59-6.31-10.14-10.24a4.84,4.84,0,0,0-3.82-4.13c-4.43-.86-11.2-3.51-10.51-11.72,1.71-20.5,25.3-8.08,25.3-8.08s.58.59,3.46-.45l18.89-6.85" transform="matrix(1, 0, 0, 1, 41.76137161254883, -77.40899658203125)"/>
  <path class="cls-7" d="M88,489.74s-5-1.41-3.23-9.84" transform="matrix(1, 0, 0, 1, 41.76137161254883, -77.40899658203125)"/>
  <polygon class="cls-6" points="14.84 491.5 50.43 478.51 50.31 505.2 14.84 504.83 14.84 491.5" transform="matrix(1, 0, 0, 1, 41.76137161254883, -77.40899658203125)"/>
  <polygon class="cls-28" points="15.09 495.84 50.68 482.86 50.55 509.55 15.09 509.17 15.09 495.84" transform="matrix(1, 0, 0, 1, 41.76137161254883, -77.40899658203125)"/>
  <polygon class="cls-29" points="15.71 502.42 51.3 489.44 51.17 516.12 15.71 515.75 15.71 502.42" transform="matrix(1, 0, 0, 1, 41.76137161254883, -77.40899658203125)"/>
  <rect id="_Rechteck_3" data-name="&lt;Rechteck&gt;" class="cls-18" x="16.29" y="471.25" width="33.71" height="33.85" rx="16.86" ry="16.86" transform="matrix(1, 0, 0, 1, 41.76137161254883, -77.40899658203125)"/>
  <text class="cls-34" transform="matrix(1, 0, 0, 1, 72.07137298583984, 453.291015625)" style="white-space: pre;">Rapid-<tspan x="4.28" y="15">Bone</tspan></text>
</svg>