<?xml version="1.0" encoding="utf-8"?>
<svg viewBox="0 0 560 500" xmlns="http://www.w3.org/2000/svg" xmlns:bx="https://boxy-svg.com">
  <defs>
    <style>.cls-1{isolation:isolate;}.cls-15,.cls-2{fill:#fff;}.cls-3{fill:#f9ccbf;}.cls-12,.cls-13,.cls-14,.cls-15,.cls-16,.cls-24,.cls-3,.cls-7,.cls-9{stroke:#c34a29;}.cls-15,.cls-16,.cls-24,.cls-25,.cls-3,.cls-4,.cls-7,.cls-8,.cls-9{stroke-miterlimit:10;}.cls-16,.cls-25,.cls-31,.cls-33,.cls-4,.cls-7,.cls-8{fill:none;}.cls-4{stroke:#1a4554;}.cls-18,.cls-27,.cls-29,.cls-30,.cls-5{fill:#1a4554;}.cls-6{fill:#fbf2f0;}.cls-7{stroke-width:4px;}.cls-8{stroke:#f1d3cc;stroke-width:2px;}.cls-9{fill:#f7e6e1;}.cls-10{fill:#92d6df;}.cls-10,.cls-20{stroke:#39858e;}.cls-10,.cls-12,.cls-13,.cls-14,.cls-20,.cls-22,.cls-23{stroke-linecap:round;stroke-linejoin:round;}.cls-11{fill:#fdeabf;}.cls-12{fill:#f0d2ca;}.cls-12,.cls-13,.cls-14{stroke-width:1.5px;}.cls-13{fill:#8fd5de;}.cls-14{fill:#f5ab96;}.cls-17{fill:#f6e4df;}.cls-18,.cls-27,.cls-31{font-size:20px;}.cls-18,.cls-29{font-family:ArialMT, Arial;}.cls-19{letter-spacing:-0.06em;}.cls-20{fill:#86d2dc;}.cls-21{letter-spacing:-0.07em;}.cls-22{fill:#cbd774;stroke:#798728;}.cls-23{fill:#f2987f;stroke:#d55a51;}.cls-24{fill:#d47e67;}.cls-25{stroke:#ff4c00;}.cls-26{fill:#ff4c00;}.cls-27,.cls-30,.cls-31{font-family:Arial-BoldMT, Arial;font-weight:700;}.cls-28{letter-spacing:-0.02em;}.cls-29,.cls-30{font-size:16px;}.cls-31{stroke:#fff;stroke-width:3px;}.cls-32{fill:#1c8843;}.cls-34{mix-blend-mode:multiply;}</style>
  </defs>
  <title>Napo_Zooms_170427Kidney 1.6</title>
  <g class="cls-1">
    <g id="Ebene_30" data-name="Ebene 30">
      <g id="Rahmen-3" data-name="Rahmen">
        <rect class="cls-2" width="560" height="500"/>
      </g>
    </g>
    <g id="Zellen_HG" data-name="Zellen HG">
      <polyline class="cls-3" points="491.53 213.92 491.53 -14.51 561.53 -14.51 561.53 514.51 491.53 514.51 491.53 251.94"/>
      <line class="cls-4" x1="127.55" y1="55.23" x2="375.15" y2="55.23"/>
      <polygon class="cls-5" points="372.16 58.91 371.55 58.25 374.8 55.23 371.55 52.2 372.16 51.55 376.12 55.23 372.16 58.91"/>
      <line class="cls-4" x1="136.77" y1="444.14" x2="397.51" y2="444.14"/>
      <polygon class="cls-5" points="394.53 447.82 393.92 447.16 397.17 444.14 393.92 441.12 394.53 440.46 398.49 444.14 394.53 447.82"/>
      <path class="cls-6" d="M150.77,431.7v-5.49c0-3,5.4-5.49,12-5.49h8.69c6.6,0,12-4.87,12-10.83s-5.4-10.83-12-10.83h-8.69a11.86,11.86,0,1,1,0-23.71h8.69c6.6,0,12-4.87,12-10.83s-5.4-10.82-12-10.82h-8.69a11.86,11.86,0,1,1,0-23.72h8.69c6.6,0,12-4.87,12-10.82s-5.4-10.83-12-10.83h-8.69a11.86,11.86,0,1,1,0-23.71h8.69c6.6,0,12-4.88,12-10.83s-5.4-10.83-12-10.83h-8.69a11.86,11.86,0,1,1,0-23.71h8.69c6.6,0,12-4.87,12-10.83s-5.4-10.82-12-10.82h-8.69a11.86,11.86,0,1,1,0-23.72h8.69c6.6,0,12-4.87,12-10.82s-5.4-10.83-12-10.83h-8.69a11.86,11.86,0,1,1,0-23.71h8.69c6.6,0,12-4.88,12-10.83s-5.4-10.83-12-10.83h-8.69a11.86,11.86,0,1,1,0-23.71h8.69c6.6,0,12-4.87,12-10.83s-5.4-10.83-12-10.83h-8.69c-6.6,0-12-2.86-12-6.36V68.77h199.3a82.82,82.82,0,0,1,82.82,82.81V348.89a82.81,82.81,0,0,1-82.82,82.81Z"/>
      <path class="cls-7" d="M150.77,431.7v-5.49c0-3,5.4-5.49,12-5.49h8.69c6.6,0,12-4.87,12-10.83s-5.4-10.83-12-10.83h-8.69a11.86,11.86,0,1,1,0-23.71h8.69c6.6,0,12-4.87,12-10.83s-5.4-10.82-12-10.82h-8.69a11.86,11.86,0,1,1,0-23.72h8.69c6.6,0,12-4.87,12-10.82s-5.4-10.83-12-10.83h-8.69a11.86,11.86,0,1,1,0-23.71h8.69c6.6,0,12-4.88,12-10.83s-5.4-10.83-12-10.83h-8.69a11.86,11.86,0,1,1,0-23.71h8.69c6.6,0,12-4.87,12-10.83s-5.4-10.82-12-10.82h-8.69a11.86,11.86,0,1,1,0-23.72h8.69c6.6,0,12-4.87,12-10.82s-5.4-10.83-12-10.83h-8.69a11.86,11.86,0,1,1,0-23.71h8.69c6.6,0,12-4.88,12-10.83s-5.4-10.83-12-10.83h-8.69a11.86,11.86,0,1,1,0-23.71h8.69c6.6,0,12-4.87,12-10.83s-5.4-10.83-12-10.83h-8.69c-6.6,0-12-2.86-12-6.36V68.77h199.3a82.82,82.82,0,0,1,82.82,82.81V348.89a82.81,82.81,0,0,1-82.82,82.81Z"/>
      <path class="cls-8" d="M150.77,431.7v-5.49c0-3,5.4-5.49,12-5.49h8.69c6.6,0,12-4.87,12-10.83s-5.4-10.83-12-10.83h-8.69a11.86,11.86,0,1,1,0-23.71h8.69c6.6,0,12-4.87,12-10.83s-5.4-10.82-12-10.82h-8.69a11.86,11.86,0,1,1,0-23.72h8.69c6.6,0,12-4.87,12-10.82s-5.4-10.83-12-10.83h-8.69a11.86,11.86,0,1,1,0-23.71h8.69c6.6,0,12-4.88,12-10.83s-5.4-10.83-12-10.83h-8.69a11.86,11.86,0,1,1,0-23.71h8.69c6.6,0,12-4.87,12-10.83s-5.4-10.82-12-10.82h-8.69a11.86,11.86,0,1,1,0-23.72h8.69c6.6,0,12-4.87,12-10.82s-5.4-10.83-12-10.83h-8.69a11.86,11.86,0,1,1,0-23.71h8.69c6.6,0,12-4.88,12-10.83s-5.4-10.83-12-10.83h-8.69a11.86,11.86,0,1,1,0-23.71h8.69c6.6,0,12-4.87,12-10.83s-5.4-10.83-12-10.83h-8.69c-6.6,0-12-2.86-12-6.36V68.77h199.3a82.82,82.82,0,0,1,82.82,82.81V348.89a82.81,82.81,0,0,1-82.82,82.81Z"/>
      <path class="cls-6" d="M425.49-5.31a82.79,82.79,0,0,1-75.42,48.58H150.78V37.79c0-3,5.4-5.5,12-5.5h8.68c6.6,0,12-4.88,12-10.82s-5.4-10.84-12-10.84h-8.68a12,12,0,0,1-12-11.86,11.54,11.54,0,0,1,.74-4.08"/>
      <path class="cls-7" d="M425.49-5.31a82.79,82.79,0,0,1-75.42,48.58H150.78V37.79c0-3,5.4-5.5,12-5.5h8.68c6.6,0,12-4.88,12-10.82s-5.4-10.84-12-10.84h-8.68a12,12,0,0,1-12-11.86,11.54,11.54,0,0,1,.74-4.08"/>
      <path class="cls-8" d="M425.49-5.31a82.79,82.79,0,0,1-75.42,48.58H150.78V37.79c0-3,5.4-5.5,12-5.5h8.68c6.6,0,12-4.88,12-10.82s-5.4-10.84-12-10.84h-8.68a12,12,0,0,1-12-11.86,11.54,11.54,0,0,1,.74-4.08"/>
      <path class="cls-6" d="M425.49,505.78a82.79,82.79,0,0,0-75.42-48.58H150.78v5.48c0,3,5.4,5.5,12,5.5h8.68c6.6,0,12,4.88,12,10.82s-5.4,10.84-12,10.84h-8.68a12,12,0,0,0-12,11.86,11.54,11.54,0,0,0,.74,4.08"/>
      <path class="cls-7" d="M425.49,505.78a82.79,82.79,0,0,0-75.42-48.58H150.78v5.48c0,3,5.4,5.5,12,5.5h8.68c6.6,0,12,4.88,12,10.82s-5.4,10.84-12,10.84h-8.68a12,12,0,0,0-12,11.86,11.54,11.54,0,0,0,.74,4.08"/>
      <path class="cls-8" d="M425.49,505.78a82.79,82.79,0,0,0-75.42-48.58H150.78v5.48c0,3,5.4,5.5,12,5.5h8.68c6.6,0,12,4.88,12,10.82s-5.4,10.84-12,10.84h-8.68a12,12,0,0,0-12,11.86,11.54,11.54,0,0,0,.74,4.08"/>
      <g id="Neues_Symbol_5-6" data-name="Neues Symbol 5">
        <rect class="cls-9" x="203.53" y="36.78" width="13.11" height="35.9" rx="6.56" ry="6.56"/>
        <rect class="cls-9" x="222.07" y="36.78" width="13.11" height="35.9" rx="6.56" ry="6.56"/>
      </g>
      <g id="Neues_Symbol_5-7" data-name="Neues Symbol 5">
        <rect class="cls-9" x="203.53" y="425.69" width="13.11" height="35.9" rx="6.56" ry="6.56"/>
        <rect class="cls-9" x="222.07" y="425.69" width="13.11" height="35.9" rx="6.56" ry="6.56"/>
      </g>
      <g id="PTH_kugel-5" data-name="PTH kugel" transform="matrix(1, 0, 0, 1, 50.423515, 30.171448)">
        <circle class="cls-10" cx="408.62" cy="138.08" r="4.5"/>
      </g>
      <g id="PTH_kugel-6" data-name="PTH kugel">
        <circle class="cls-10" cx="462.689" cy="151.905" r="4.5"/>
      </g>
      <g id="PTH_kugel-7" data-name="PTH kugel" transform="matrix(1, 0, 0, 1, 71.915504, -3.30646)">
        <circle class="cls-10" cx="381.04" cy="139.5" r="4.5"/>
      </g>
      <g id="Kidney_klein" data-name="Kidney klein">
        <circle class="cls-11" cx="50" cy="50.54" r="30"/>
        <path class="cls-12" d="M69.31,48.25c0,19.64-14.55,30.42-25.66,22.25-9.44-7-1-16.22-1-16.22a10.47,10.47,0,0,1-1.86-3.52,9.72,9.72,0,0,1-.35-1.69c0-.2,0-.41,0-.62s0-.48,0-.71a6.63,6.63,0,0,1,.37-1.7,6.88,6.88,0,0,1,2-2.9,9.85,9.85,0,0,1-8.55-7.09c-2-5.8,1.21-16.48,14.18-15.81C62.34,21,69.31,38.55,69.31,48.25Z"/>
        <path class="cls-13" d="M40.41,48.45c0,.21,0,.42,0,.62h-.09a10.93,10.93,0,0,1-3.87-.81,10,10,0,0,1-5.76-6.62,1.54,1.54,0,0,1,3-.69,6.89,6.89,0,0,0,6.73,5l.33,0a6.63,6.63,0,0,0-.37,1.7C40.41,48,40.41,48.21,40.41,48.45Z"/>
        <path class="cls-14" d="M40.8,50.76l-.18,0-3.7.51a3.67,3.67,0,0,0-3.16,3.61V77.74a1.54,1.54,0,0,1-3.07,0V54.91a6.75,6.75,0,0,1,5.8-6.65h0l3.7-.51h.22c0,.23,0,.47,0,.71s0,.42,0,.62A9.72,9.72,0,0,0,40.8,50.76Z"/>
      </g>
      <g id="g-1" data-name="PTH kugel" transform="matrix(1, 0, 0, 1, 39.624573, 13.641827)">
        <circle class="cls-10" cx="408.62" cy="138.08" r="4.5" style="fill: rgb(146, 214, 223); stroke: rgb(57, 133, 142); stroke-linecap: round; stroke-linejoin: round;"/>
      </g>
    </g>
    <g id="Icons">
      <g id="Text">
        <path class="cls-4" d="M161.46,316.88H238a20.06,20.06,0,0,1,20,20v12.33a20.06,20.06,0,0,1-20,20H175.15"/>
        <polygon class="cls-5" points="177.8 365.94 178.34 366.53 175.46 369.21 178.34 371.9 177.8 372.48 174.28 369.21 177.8 365.94"/>
        <ellipse class="cls-15" cx="357.43" cy="296.48" rx="7.05" ry="16"/>
        <line class="cls-4" x1="217.07" y1="297.84" x2="463.94" y2="297.84"/>
        <polygon class="cls-5" points="460.95 301.52 460.34 300.86 463.59 297.84 460.34 294.81 460.95 294.15 464.91 297.84 460.95 301.52"/>
        <path class="cls-2" d="M444.33,280.48H357.42c3.9,0,7.06,7.16,7.06,16s-3.16,16-7.06,16h86.91c3.89,0,7.05-7.16,7.05-16S448.22,280.48,444.33,280.48Z"/>
        <path class="cls-2" d="M444.33,280.48H357.42c3.9,0,7.06,7.16,7.06,16s-3.16,16-7.06,16h86.91c3.89,0,7.05-7.16,7.05-16S448.22,280.48,444.33,280.48Z"/>
        <path class="cls-16" d="M444.33,280.48H357.42c3.9,0,7.06,7.16,7.06,16s-3.16,16-7.06,16h86.91c3.89,0,7.05-7.16,7.05-16S448.22,280.48,444.33,280.48Z"/>
        <line class="cls-4" x1="179.05" y1="369.21" x2="102.49" y2="369.21"/>
        <polygon class="cls-5" points="105.48 365.53 106.09 366.19 102.84 369.21 106.09 372.23 105.48 372.89 101.52 369.21 105.48 365.53"/>
        <ellipse class="cls-15" cx="142.59" cy="294.75" rx="14.54" ry="33"/>
        <line class="cls-4" x1="122.92" y1="269.98" x2="266.71" y2="269.98"/>
        <polygon class="cls-5" points="263.73 273.66 263.12 273 266.37 269.98 263.12 266.96 263.73 266.3 267.69 269.98 263.73 273.66"/>
        <line class="cls-4" x1="122.92" y1="294.75" x2="228.63" y2="294.75"/>
        <polygon class="cls-5" points="225.65 298.43 225.04 297.77 228.29 294.75 225.04 291.73 225.65 291.07 229.61 294.75 225.65 298.43"/>
        <line class="cls-4" x1="121.25" y1="318.25" x2="226.97" y2="318.25"/>
        <polygon class="cls-5" points="223.99 321.93 223.37 321.27 226.62 318.25 223.37 315.23 223.99 314.57 227.94 318.25 223.99 321.93"/>
        <path class="cls-2" d="M227.91,261.75H142.58c8,0,14.55,14.76,14.55,33s-6.51,33-14.55,33h85.33c8,0,14.55-14.76,14.55-33S236,261.75,227.91,261.75Z"/>
        <path class="cls-2" d="M227.91,261.75H142.58c8,0,14.55,14.76,14.55,33s-6.51,33-14.55,33h85.33c8,0,14.55-14.76,14.55-33S236,261.75,227.91,261.75Z"/>
        <path class="cls-16" d="M227.91,261.75H142.58c8,0,14.55,14.76,14.55,33s-6.51,33-14.55,33h85.33c8,0,14.55-14.76,14.55-33S236,261.75,227.91,261.75Z"/>
        <g id="DNA-2" data-name="DNA">
          <rect class="cls-17" x="197.53" y="126.37" width="91.89" height="59.65" rx="27.84" ry="27.84"/>
          <text class="cls-18" transform="translate(222.97 178.98)" style="white-space: pre;">DN<tspan class="cls-19" x="28.89" y="0">A</tspan></text>
        </g>
        <g id="PTH_Rezeptor_klein-2" data-name="PTH Rezeptor klein">
          <g id="Neues_Symbol_3-2" data-name="Neues Symbol 3">
            <path class="cls-20" d="M442.46,167.14l-15,.05-.09-30,15-.05,0,10a5,5,0,1,0,0,10v0Z"/>
          </g>
        </g>
        <g id="ATP_Ase-2" data-name="ATP Ase">
          <line class="cls-4" x1="360.38" y1="223.18" x2="522.02" y2="223.18"/>
          <polygon class="cls-5" points="519.04 226.87 518.43 226.21 521.68 223.19 518.43 220.16 519.04 219.5 523 223.19 519.04 226.87"/>
          <line class="cls-4" x1="503" y1="241.19" x2="334.31" y2="241.19"/>
          <polygon class="cls-5" points="337.29 237.51 337.9 238.17 334.65 241.19 337.9 244.21 337.29 244.87 333.33 241.19 337.29 237.51"/>
          <rect class="cls-2" x="379.47" y="216.73" width="90" height="32" rx="16" ry="16"/>
          <rect class="cls-16" x="379.47" y="216.73" width="90" height="32" rx="16" ry="16"/>
          <text class="cls-18" transform="translate(391.61 239.53)" style="white-space: pre;"><tspan class="cls-21">A</tspan><tspan x="11.86" y="0">TPase</tspan></text>
        </g>
        <g id="CaSR">
          <path class="cls-22" d="M419.12,108.06,402,112.66a2.61,2.61,0,1,1-1.36-5l14.65-3.93-4.58-17.07-3.53,1,3.42,12.77a2.61,2.61,0,0,1-1.85,3.2l-8.58,2.3a2.6,2.6,0,0,1-3.2-1.85l-5.87-21.89a2.61,2.61,0,0,1,1.85-3.2l17.16-4.6a2.61,2.61,0,1,1,1.36,5l-14.65,3.93,4.52,16.85,3.53-1-3.42-12.77a2.62,2.62,0,0,1,1.85-3.2l8.58-2.3a2.6,2.6,0,0,1,3.2,1.85L421,104.86A2.62,2.62,0,0,1,419.12,108.06Z"/>
        </g>
        <g id="CAP">
          <circle class="cls-23" cx="123.67" cy="46.8" r="4.5"/>
        </g>
        <g id="CAP-2" data-name="CAP">
          <circle class="cls-23" cx="116.43" cy="417.9" r="4.5"/>
        </g>
        <g id="CAP-3" data-name="CAP">
          <circle class="cls-23" cx="132.61" cy="428.26" r="4.5"/>
        </g>
        <g id="CAP-4" data-name="CAP">
          <circle class="cls-23" cx="118.56" cy="452.87" r="4.5"/>
        </g>
        <g id="CAP-5" data-name="CAP">
          <circle class="cls-23" cx="109.97" cy="59.32" r="4.5"/>
        </g>
        <g id="CAP-6" data-name="CAP">
          <circle class="cls-23" cx="409.55" cy="445.56" r="4.5"/>
        </g>
        <g id="CAP-7" data-name="CAP">
          <circle class="cls-23" cx="129.61" cy="67.29" r="4.5"/>
        </g>
        <g id="CAP-8" data-name="CAP">
          <circle class="cls-23" cx="428.47" cy="80.66" r="4.5"/>
        </g>
        <g id="CAP-9" data-name="CAP">
          <circle class="cls-23" cx="432.89" cy="63.29" r="4.5"/>
        </g>
        <g id="CAP-10" data-name="CAP">
          <circle class="cls-23" cx="395.39" cy="51.84" r="4.5"/>
        </g>
        <g id="CAP-11" data-name="CAP">
          <circle class="cls-23" cx="440.88" cy="90.73" r="4.5"/>
        </g>
        <g id="Neues_Symbol" data-name="Neues Symbol">
          <rect class="cls-24" x="208.87" y="146.86" width="45.26" height="11.25"/>
          <polyline class="cls-25" points="232.4 146.01 254.25 146.01 254.25 140.41 273.01 140.41"/>
          <polygon class="cls-26" points="270.36 143.69 269.81 143.1 272.7 140.42 269.81 137.73 270.36 137.14 273.88 140.42 270.36 143.69"/>
        </g>
      </g>
    </g>
    <g id="Text-2" data-name="Text">
      <text class="cls-18" transform="translate(98.95 93.47)" style="white-space: pre;">Ca²</text>
      <text class="cls-27" transform="translate(131.18 86.81) scale(0.58)" style="white-space: pre;">+</text>
      <text class="cls-18" transform="translate(137.99 93.47)" style="white-space: pre;"> </text>
      <text class="cls-18" transform="translate(75.15 442.3)" style="white-space: pre;">Ca²</text>
      <text class="cls-27" transform="translate(107.38 435.64) scale(0.58)" style="white-space: pre;">+</text>
      <text class="cls-18" transform="translate(114.19 442.3)" style="white-space: pre;"> </text>
      <text class="cls-27" transform="translate(239.55 485.49)" style="white-space: pre;"><tspan class="cls-21">T</tspan><tspan x="10.73" y="0">A</tspan><tspan class="cls-28" x="25.18" y="0">L</tspan><tspan x="37.03" y="0"> cell</tspan></text>
      <text class="cls-18" transform="translate(421.46 449.61)" style="white-space: pre;">Ca²</text>
      <text class="cls-27" transform="translate(453.69 442.95) scale(0.58)" style="white-space: pre;">+</text>
      <text class="cls-18" transform="translate(460.5 449.61)" style="white-space: pre;"> </text>
      <text class="cls-18" transform="translate(442.29 80)" style="white-space: pre;">Ca²</text>
      <text class="cls-27" transform="translate(474.52 73.34) scale(0.58)" style="white-space: pre;">+</text>
      <text class="cls-18" transform="translate(481.33 80)" style="white-space: pre;"> </text>
      <text class="cls-18" transform="translate(335.18 105.01)" style="white-space: pre;">CaSR</text>
      <text class="cls-18" transform="translate(369.71 303.29)" style="white-space: pre;">CLC-Kb</text>
      <text class="cls-18" transform="translate(77.78 277.73)" style="white-space: pre;">Na</text>
      <text class="cls-27" transform="translate(103.34 271.07) scale(0.58)" style="white-space: pre;">+</text>
      <text class="cls-18" transform="translate(110.15 277.73)" style="white-space: pre;"> </text>
      <text class="cls-18" transform="translate(89.39 330.23)" style="white-space: pre;">K</text>
      <text class="cls-27" transform="translate(102.73 323.57) scale(0.58)" style="white-space: pre;">+</text>
      <text class="cls-18" transform="translate(109.54 330.23)" style="white-space: pre;"> </text>
      <text class="cls-29" transform="translate(77.73 379.53)" style="white-space: pre;">K</text>
      <text class="cls-30" transform="translate(88.41 374.2) scale(0.58)" style="white-space: pre;">+</text>
      <text class="cls-29" transform="translate(93.85 379.53)" style="white-space: pre;"> </text>
      <rect class="cls-2" x="142.91" y="351.47" width="80" height="32" rx="16" ry="16"/>
      <rect class="cls-16" x="142.91" y="351.47" width="80" height="32" rx="16" ry="16"/>
      <text class="cls-18" transform="translate(152.91 374.45)" style="white-space: pre;">ROMK</text>
      <text class="cls-18" transform="translate(163.63 301.38)" style="white-space: pre;">NKCC2</text>
      <text class="cls-18" transform="translate(71.06 303.98)" style="white-space: pre;">2 Cl</text>
      <text class="cls-27" transform="translate(106.62 297.32) scale(0.58)" style="white-space: pre;">-</text>
      <text class="cls-18" transform="translate(110.51 303.98)" style="white-space: pre;"> </text>
      <text class="cls-18" transform="translate(466.24 305.43)" style="white-space: pre;">Cl</text>
      <text class="cls-27" transform="translate(485.13 298.77) scale(0.58)" style="white-space: pre;">-</text>
      <text class="cls-18" transform="translate(489.01 305.43)" style="white-space: pre;"> </text>
      <text class="cls-31" transform="translate(377.96 27.08)" style="white-space: pre;">peritubular <tspan x="26.65" y="20">space</tspan></text>
      <text class="cls-27" transform="translate(377.96 27.08)" style="white-space: pre;">peritubular <tspan x="26.65" y="20">space</tspan></text>
      <text class="cls-27" transform="translate(499.32 33.92)" style="white-space: pre;">blood</text>
      <text class="cls-31" transform="translate(89.73 27.08)" style="white-space: pre;">lumen</text>
      <text class="cls-27" transform="translate(89.73 27.08)" style="white-space: pre;">lumen</text>
      <text class="cls-18" style="white-space: pre; font-size: 20px;" x="375.39" y="179.659">PTH</text>
      <text class="cls-18" transform="translate(508.69 246.59)" style="white-space: pre;">2 K</text>
      <text class="cls-27" transform="translate(538.71 239.93) scale(0.58)" style="white-space: pre;">+</text>
      <text class="cls-18" transform="translate(545.52 246.59)" style="white-space: pre;"> </text>
      <text class="cls-18" transform="translate(311.69 226.73)" style="white-space: pre;">3 Na</text>
      <text class="cls-27" transform="translate(353.93 220.07) scale(0.58)" style="white-space: pre;">+</text>
      <text class="cls-18" transform="translate(360.74 226.73)" style="white-space: pre;"> </text>
      <g id="Minus-4" data-name="Minus">
        <circle class="cls-26" cx="310.56" cy="89.81" r="8"/>
        <path class="cls-2" d="M306.06,91V88.66h9V91Z"/>
      </g>
      <g id="Plus-8" data-name="Plus" transform="matrix(1, 0, 0, 1, -26.164713, -9.10077)">
        <circle class="cls-32" cx="236.62" cy="107.51" r="8"/>
        <path class="cls-2" d="M235.49,112v-3.35h-3.37v-2.3h3.37V103h2.25v3.35h3.38v2.3h-3.38V112Z"/>
      </g>
    </g>
    <g id="Zoom_Rahmen" data-name="Zoom Rahmen">
      <g id="Neues_Symbol_2-3" data-name="Neues Symbol 2">
        <g id="Kidney_klein-6" data-name="Kidney klein">
          <circle class="cls-33" cx="50" cy="50" r="30"/>
        </g>
        <rect class="cls-33" width="560" height="500"/>
      </g>
    </g>
    <line style="stroke-width: 4; fill: rgb(26, 69, 84); stroke-dasharray: 4px; stroke: rgb(255, 0, 0);" x1="243.058" y1="139.579" x2="278.356" y2="110.924" transform="matrix(0.631421, -0.77544, 0.77544, 0.631421, -34.719488, 225.250884)"/>
    <line style="stroke-width: 4; fill: rgb(26, 69, 84); stroke: rgb(255, 0, 0);" x1="218.465" y1="77.378" x2="229.36" y2="84.854" transform="matrix(0.242792, -0.970078, 0.970078, 0.242792, 90.859393, 278.634311)"/>
    <line style="stroke-width: 4; fill: rgb(26, 69, 84); stroke: rgb(255, 0, 0);" x1="221.561" y1="76.817" x2="231.323" y2="84.221" transform="matrix(-0.99013, -0.14015, 0.14015, -0.99013, 443.14517, 192.63041)" bx:origin="0.696 0.526"/>
  </g>
  <line style="fill: rgb(26, 69, 84); stroke: rgb(255, 235, 4); stroke-width: 2;" x1="259.686" y1="102.127" x2="385.456" y2="27.625" transform="matrix(-0.75622, -0.654317, 0.654317, -0.75622, 521.36149, 325.469344)"/>
  <line style="fill: rgb(26, 69, 84); stroke: rgb(255, 235, 4); stroke-width: 2;" x1="249.976" y1="39.369" x2="282.228" y2="35.125" transform="matrix(-0.39143, 0.920208, -0.920208, -0.39143, 385.906197, -179.566727)" bx:origin="0.073 0.636"/>
  <line style="fill: rgb(26, 69, 84); stroke: rgb(255, 235, 4); stroke-width: 2;" x1="290.102" y1="188.355" x2="413.352" y2="115.326" transform="matrix(-0.855531, -0.517751, 0.517751, -0.855531, 574.024792, 463.851899)"/>
  <line style="fill: rgb(26, 69, 84); stroke: rgb(255, 235, 4); stroke-width: 2;" x1="272.387" y1="160.549" x2="289.744" y2="165.429" transform="matrix(-0.968896, -0.24747, 0.24747, -0.968896, 521.258059, 383.761798)"/>
  <line style="fill: rgb(26, 69, 84); stroke: rgb(255, 235, 4); stroke-width: 2;" x1="294.307" y1="117.736" x2="306.527" y2="130.999" transform="matrix(-0.231019, 0.972949, -0.972949, -0.231019, 479.30711, -116.689894)" bx:origin="0.073 0.636"/>
</svg>