<?xml version="1.0" encoding="utf-8"?>
<svg viewBox="268.4327087402344 24.780000686645508 89.99993896484375 90.09786987304688" width="89.99993896484375" height="90.09786987304688" xmlns="http://www.w3.org/2000/svg">
  <defs>
    <style>.cls-1,.cls-15{fill:#eccbbd;}.cls-1,.cls-10,.cls-11,.cls-12,.cls-13,.cls-14,.cls-17,.cls-18,.cls-19,.cls-20,.cls-21,.cls-22,.cls-23,.cls-24,.cls-25,.cls-28,.cls-29,.cls-3,.cls-30,.cls-31,.cls-32,.cls-6,.cls-7,.cls-8{stroke:#ae5536;}.cls-1,.cls-10,.cls-11,.cls-12,.cls-13,.cls-14,.cls-17,.cls-18,.cls-20,.cls-21,.cls-22,.cls-23,.cls-24,.cls-25,.cls-28,.cls-29,.cls-3,.cls-30,.cls-31,.cls-32,.cls-33,.cls-6,.cls-7,.cls-8{stroke-linecap:round;}.cls-1,.cls-10,.cls-11,.cls-12,.cls-13,.cls-14,.cls-17,.cls-18,.cls-19,.cls-20,.cls-21,.cls-22,.cls-23,.cls-24,.cls-25,.cls-28,.cls-29,.cls-3,.cls-30,.cls-31,.cls-32,.cls-33,.cls-6,.cls-8{stroke-linejoin:round;}.cls-1,.cls-10,.cls-12,.cls-13,.cls-14,.cls-18,.cls-19,.cls-20,.cls-25,.cls-3,.cls-30,.cls-31,.cls-32,.cls-6,.cls-8{stroke-width:2px;}.cls-11,.cls-18,.cls-2,.cls-7{fill:none;}.cls-17,.cls-3,.cls-9{fill:#fff;}.cls-4{fill:#e5f3ea;}.cls-5{fill:#faf1ce;}.cls-6{fill:#f0f7f9;}.cls-7{stroke-miterlimit:10;}.cls-8{fill:#f6e6a7;}.cls-10{fill:#e3ecc1;}.cls-12{fill:#d5a696;}.cls-13{fill:#f4e297;}.cls-14{fill:#f8eec2;}.cls-16{clip-path:url(#clip-path);}.cls-19{fill:#f3e0d8;}.cls-20{fill:#e0eef2;}.cls-21{fill:#d4e9ed;}.cls-22{fill:#efd4c9;}.cls-23{fill:#e0eabb;}.cls-24{fill:#f8ecba;}.cls-25{fill:#f1d9d0;}.cls-26{clip-path:url(#clip-path-2);}.cls-27{clip-path:url(#clip-path-3);}.cls-28{fill:#cae3e9;}.cls-29{fill:#ebf4f7;}.cls-30{fill:#ebd4cd;}.cls-31{fill:#b5d8e1;}.cls-32{fill:#e3b4a1;}.cls-33{fill:#b6d391;stroke:#5e7658;}.cls-34,.cls-35{font-size:14px;font-family:Arial-BoldMT, Arial;font-weight:700;}.cls-35{fill:#5e7658;}</style>
  </defs>
  <circle class="cls-5" cx="481.52" cy="888.7" r="45" transform="matrix(0.9999989867210388, 0, 0, 1, -168.0868377685547, -818.8221435546875)"/>
  <path class="cls-12" d="M 321.024 45.62 C 321.024 45.62 322.764 39.62 320.524 34.46 C 318.284 29.3 312.214 25.78 312.214 25.78 C 312.214 25.78 313.574 30.99 309.634 34.14 C 304.794 38.01 295.094 41.28 290.884 47.42 C 288.732 50.432 287.642 54.072 287.784 57.77 C 287.784 57.77 278.564 59.13 276.434 66.22 C 274.134 73.84 277.384 89.22 309.644 90.14 C 340.094 91.04 346.944 80.64 346.944 72.57 C 346.944 60.91 334.304 58.39 334.304 58.39 C 334.304 58.39 335.544 53.18 330.584 48.47 C 326.724 44.82 321.024 45.62 321.024 45.62 Z"/>
  <path class="cls-11" d="M 334.294 57.39 C 334.294 57.39 328.834 66.07 310.534 66.07 C 293.674 66.07 287.794 56.77 287.794 56.77" transform="matrix(1, 0, 0, 1, 0, 0)"/>
  <path class="cls-11" d="M 308.624 51.94 C 308.624 51.94 318.544 51.2 321.024 44.62" transform="matrix(1, 0, 0, 1, 0, 0)"/>
  <text class="cls-34" style="white-space: pre; font-size: 14px;" x="292.24" y="104.807" transform="matrix(1, 0, 0, 1, 0, 0)">Feces</text>
</svg>