<?xml version="1.0" encoding="utf-8"?>
<svg viewBox="0 0 76.79 96.02" xmlns="http://www.w3.org/2000/svg" xmlns:xlink="http://www.w3.org/1999/xlink">
  <defs>
    <style>.cls-1{fill:url(#Unbenannter_Verlauf_18);}.cls-2{fill:url(#Unbenannter_Verlauf_14);}.cls-3{fill:none;stroke-width:3px;}.cls-10,.cls-11,.cls-13,.cls-14,.cls-3,.cls-4,.cls-5,.cls-6,.cls-7,.cls-8,.cls-9{stroke:#ae5536;}.cls-4{fill:#c27f68;}.cls-10,.cls-11,.cls-4,.cls-5,.cls-6,.cls-7,.cls-8,.cls-9{stroke-miterlimit:10;}.cls-10,.cls-11,.cls-13,.cls-14,.cls-4,.cls-5,.cls-6,.cls-7,.cls-8,.cls-9{stroke-width:0.5px;}.cls-5{fill:#dbb4a7;}.cls-6{fill:#f4e7e3;}.cls-7{fill:#e4c7bd;}.cls-8{fill:#e3b4a1;}.cls-9{fill:#b5d8e1;}.cls-10,.cls-14{fill:#f6e6a7;}.cls-11{fill:#eac83b;}.cls-12{mask:url(#mask);}.cls-13{fill:#f4e9e5;}.cls-13,.cls-14{stroke-linecap:round;stroke-linejoin:round;}.cls-15{filter:url(#luminosity-noclip);}</style>
    <linearGradient id="Unbenannter_Verlauf_18" x1="17394.41" y1="13425.33" x2="17400.3" y2="13425.33" gradientTransform="matrix(-0.05, -0.96, -1, 0.05, 14306.85, 16102.41)" gradientUnits="userSpaceOnUse">
      <stop offset="0.59"/>
      <stop offset="1" stop-color="#fff"/>
    </linearGradient>
    <linearGradient id="Unbenannter_Verlauf_14" x1="-2390.13" y1="6561.64" x2="-2384.24" y2="6561.64" gradientTransform="matrix(0.4, 0.88, 0.91, -0.42, -4973.86, 4855.75)" gradientUnits="userSpaceOnUse">
      <stop offset="0.59"/>
      <stop offset="1" stop-color="#fff"/>
    </linearGradient>
    <filter id="luminosity-noclip" x="35.34" y="34.31" width="15.48" height="26.33" filterUnits="userSpaceOnUse" color-interpolation-filters="sRGB">
      <feFlood flood-color="#fff" result="bg"/>
      <feBlend in="SourceGraphic" in2="bg"/>
    </filter>
    <mask id="mask" x="35.34" y="34.31" width="15.48" height="26.33" maskUnits="userSpaceOnUse">
      <g class="cls-15">
        <polygon class="cls-1" points="37.93 54.98 38.22 60.64 44.11 60.34 43.82 54.67 37.93 54.98"/>
        <polygon class="cls-2" points="43.06 39.47 40.7 34.31 35.34 36.76 37.7 41.92 43.06 39.47"/>
      </g>
    </mask>
    <symbol id="Kidey_zoom" data-name="Kidey zoom" viewBox="0 0 161.72 202.21">
      <path class="cls-3" d="M160,27.07l-.05.18-1.39,5.16L145.36,81.15,144.05,86l-1.38,5.1-1.31,4.85L139,104.69l-24.83,91.79H51.65L24.37,103.66,21.83,95l-1.41-4.8-1.48-5-1.41-4.8L3.3,32l-1.48-5L7.06,15.8a195.5,195.5,0,0,1,147.82.42Z"/>
      <path class="cls-3" d="M159.94,27.24l-1.39,5.16L145.36,81.14,144.05,86l-1.38,5.1-1.31,4.85L139,104.68l-24.83,91.79H51.65L24.37,103.65,21.83,95l-1.41-4.8-1.48-5-1.41-4.8L3.3,32,1.8,26.84a187.39,187.39,0,0,1,158.14.4Z"/>
      <path class="cls-3" d="M158.55,32.4,145.36,81.14,144.05,86l-1.38,5.1-1.31,4.85L139,104.68l-24.83,91.79H51.65L24.37,103.65,21.83,95l-1.41-4.8-1.48-5-1.41-4.8L3.3,32a182.1,182.1,0,0,1,155.25.45Z"/>
      <path class="cls-3" d="M139,104.68l-24.83,91.79L113,200.71H52.9l-1.25-4.24L24.37,103.65a142.49,142.49,0,0,1,19.34-6.31q1.44-.37,2.91-.69,5.49-1.27,11.16-2.12c1.18-.17,2.37-.34,3.57-.48,2.72-.35,5.48-.62,8.25-.81,1.1-.08,2.2-.14,3.3-.19,2.5-.13,5-.19,7.55-.19a151.16,151.16,0,0,1,17.8,1q2.7.3,5.35.71A144.88,144.88,0,0,1,139,104.68Z"/>
      <path class="cls-3" d="M145.37,81.15,144.06,86a160.4,160.4,0,0,0-18-6c-1-.27-1.93-.52-2.91-.76a165,165,0,0,0-19.51-3.68c-1.46-.2-2.93-.37-4.4-.54-1-.1-2.1-.2-3.15-.28-1.35-.12-2.71-.23-4.07-.31q-5.73-.37-11.54-.37h-.92c-1.08,0-2.17,0-3.25,0a171.1,171.1,0,0,0-20.36,1.63c-1.16.14-2.32.32-3.47.51a166.78,166.78,0,0,0-33.51,8.89l-1.41-4.79c3.55-1.35,7.17-2.59,10.84-3.69L19.47,43.9a1.5,1.5,0,0,1,2.89-.79l2.53,9.29c.7-3.26,2.16-7.7,5.09-9.88a6.66,6.66,0,0,1,5.64-1.14c1.64.36,2.46.8,2.81,1.51.43.89,0,1.81-.61,3.09a20,20,0,0,0-1.39,3.58c-.42,1.54-.05,4.21,1.71,5a.76.76,0,0,1,.38,1,.75.75,0,0,1-1,.38c-2.66-1.18-3.09-4.73-2.55-6.75a22.48,22.48,0,0,1,1.48-3.84c.35-.72.74-1.54.62-1.78,0-.08-.29-.38-1.78-.71a5.21,5.21,0,0,0-4.43.88c-3.7,2.75-4.79,10.13-5,12.18l5.42,19.94a169.25,169.25,0,0,1,17.21-4h0c1.35-.24,2.71-.48,4.08-.68a181.68,181.68,0,0,1,21.89-2c1.14,0,2.28-.07,3.43-.08h2.58c2.6,0,5.2,0,7.78.17,1.36,0,2.72.11,4.07.21q3.48.21,6.92.57c1.47.14,2.94.31,4.39.51a172.37,172.37,0,0,1,20.57,3.85c1,.22,2,.47,2.92.75,2.48.65,4.94,1.37,7.37,2.14L142.33,45a1.5,1.5,0,0,1,2.92.7l-7.91,32.48C140,79.13,142.73,80.09,145.37,81.15Z"/>
      <path class="cls-3" d="M142.67,91.08l-1.31,4.85A157,157,0,0,0,103.6,85.79q-2.73-.39-5.49-.67a165.66,165.66,0,0,0-17.66-.94c-1.66,0-3.31,0-5,.07s-3.17.12-4.74.21q-5.84.35-11.52,1.08c-1.13.14-2.25.29-3.36.47q-5.66.82-11.15,2.06l1.89,8.58L56,139.06a1.48,1.48,0,0,1-1.14,1.78,1.17,1.17,0,0,1-.32,0,1.49,1.49,0,0,1-1.46-1.18L43.71,97.34l-1.9-8.6a153.87,153.87,0,0,0-20,6.28l-1.41-4.8a161.25,161.25,0,0,1,34.11-9.07c1.08-.17,2.17-.33,3.26-.47,2-.26,3.91-.49,5.89-.67,1.07-.12,2.15-.22,3.24-.29,4.45-.36,9-.54,13.53-.54q8,0,15.7.72c2.51.22,5,.51,7.46.85A163.93,163.93,0,0,1,122,84.32l1.11-5.07,1.06-4.87,1.88-8.57a1.5,1.5,0,0,1,2.94.64l-1.9,8.68L126,80l-1.12,5.08A160.31,160.31,0,0,1,142.67,91.08Z"/>
      <path class="cls-3" d="M112,143.41l-1.18-3.25a25.31,25.31,0,0,0-6.49,4c-.67.51-.69-1.84-.69-1.84-.08-42.23,0-50.53,0-105.81a7.27,7.27,0,0,1,6.67-7.17l.27-.05L110,26.17A11,11,0,0,0,102.7,30a2.55,2.55,0,0,1-1.43.88,1.89,1.89,0,0,1-1.31-.72,10.4,10.4,0,0,0-6.43-4L93,29.35h0A7.52,7.52,0,0,1,96.1,30.8,7.9,7.9,0,0,1,99,36.63v0c.09,3.54.34,39.63.15,41.89a21.68,21.68,0,0,0-2.68-3.21c-.64-.94-2.17-3-4-5.61-3.07-4.44-6.52-10-11.06-12.1-1.93-1.34-8.17-1.34-8.28,5.12A21.45,21.45,0,0,0,75,70.62c.77,1.76,1.56,3.57,1.23,4.46s-1.61.84-4.53.28C69,74.83,64.78,74,63.81,78a4.42,4.42,0,0,0,.38,3.46c1,1.65,3,2.11,4.89,2.55,2.74.64,3.59,1,3.62,2.3A4.18,4.18,0,0,1,71.51,89a7.5,7.5,0,0,0-1.82,6.18c.45,2.75,2.36,3.79,3.89,4.63,1.76,1,3.16,1.73,3.22,5.14l.85,42.9a1.6,1.6,0,0,0,.38,1l.58.06c.48,9.81,2.91,37.72,2.91,39.74,0,2.81-1.4,4.84-2.69,5.11-1.14.23-2.36-.89-3.32-3.09C73.43,185.92,67,150,63.2,110.18c.45-.28.78-.89.78-2.08.23-.44-4.85-28.57-9.35-34.59a26.62,26.62,0,0,0-4.25-4.24c-2.48-1.84-3.86-3-3.36-5.26a2.6,2.6,0,0,1,1.7-2.13c1.27-.31,3,.75,4.76,2.9,2.16,2.64,5,4.06,7.77,3.88a5.53,5.53,0,0,0,4.42-2.34c2-3.24.28-5.9-.89-7.66s-1.44-2.41-1-3.25c.62-1.08,1.79-1,4.78-.11,2.08.6,4.24,1.22,5.95.16a4.17,4.17,0,0,0,1.81-3c.63-3.52-1.84-4.91-3.64-5.92C71.32,45.78,70,45,69.4,43.4s-.29-3.63,0-5.62c.35-2.54.67-4.94-.73-6.65A4.86,4.86,0,0,0,65,29.51c-4.23-.27-4.92,4.15-5.42,7.37-.72,4.6-1.38,6.76-4.34,6.72a5.35,5.35,0,0,1-3-1.29A14.6,14.6,0,0,0,50.23,41a8.35,8.35,0,0,0-3.38-.88A7.09,7.09,0,0,0,40,44.85a1,1,0,0,0,.58,1.28c.51.19.84-.27,1.09-.73a5.74,5.74,0,0,1,5.18-3.26,5.89,5.89,0,0,1,4.49,3.35,6.07,6.07,0,0,1-.25,4.56,5.54,5.54,0,0,1-2.71,2.66c-2.1.94-3.92-.4-5.15-1.45-.42-.36-1.15-.93-1.58-.59a1,1,0,0,0-.17,1.39c1.56,2,5.19,3.59,7.91,2.72a6.54,6.54,0,0,0,4.16-4.08c.53-1.47,1.11-3.69,2.72-3.92,5.14-.57,6-5.84,6.52-9.4.59-3.8,1-4.71,2-4.65a2,2,0,0,1,1.33.44c.51.62.25,2.51,0,4.17-.31,2.27-.66,4.85.19,7.17,1,2.75,3.18,4,4.77,4.87,1.89,1.07,2.25,1.38,2,2.54-.09.49-.23.74-.33.8-.49.31-2.21-.19-3.34-.52-2.59-.75-6.5-1.87-8.49,1.61-1.54,2.69,0,5,1.07,6.63,1.29,1.95,1.7,2.81.85,4.16a2.43,2.43,0,0,1-1.88.84A6.36,6.36,0,0,1,56,62.73c-3.52-4.3-6.53-4.35-8-4a5.77,5.77,0,0,0-4.1,4.58c-1,4.42,2.12,6.71,4.59,8.55a13.89,13.89,0,0,1,2.74,2.44c3.44,4.54,4.69,11.65,6.34,19,1.91,8.51,2.69,16.42,3.49,16.7a3.54,3.54,0,0,0,.4.17c1.65,17.39,9.89,75.3,12.44,81.16,1.55,3.56,3.49,4.19,4.67,4.19a3.19,3.19,0,0,0,.65-.07c2.35-.49,4.11-3.44,4.11-6.86,0-2.08-2.38-29.18-2.9-39.71a1.59,1.59,0,0,0,.49-1.17L80,104.86c-.1-5.28-2.88-6.8-4.9-7.91-1.42-.78-2.06-1.17-2.25-2.32-.28-1.69.36-2.55,1.24-3.74a7.22,7.22,0,0,0,1.82-4.64c-.08-4-3.71-4.82-6.12-5.38-1.14-.27-2.56-.6-2.87-1.1a1.59,1.59,0,0,1,0-1c.18-.74.83-.89,4.16-.25,2.88.56,6.83,1.32,8.17-2.34.78-2.11-.23-4.42-1.3-6.87s-1.75-4.24-1.66-5.88c0,0-.38-2.26,2.59-2.78C82.59,60,89.27,71.05,94.6,78h0l0,0c.56.73,1.11,1.41,1.64,2v0a14.28,14.28,0,0,1,1.25,2.1,20.13,20.13,0,0,1,.73,5h0V119s0,1.09-.59.46a13.48,13.48,0,0,0-6.73-3.85L90.1,119c5.19,1.25,8.15,6,8.15,9.62l-.91,72h6.19l.13-47.4C103.67,150.16,106.51,145.37,112,143.41Z"/>
      <ellipse class="cls-3" cx="90.54" cy="117.33" rx="1.73" ry="1.04" transform="translate(-44.4 178.61) rotate(-76.77)"/>
      <ellipse class="cls-3" cx="93.26" cy="27.76" rx="1.61" ry="0.97" transform="translate(51.96 115.87) rotate(-81.46)"/>
      <ellipse class="cls-3" cx="111.53" cy="141.75" rx="1.04" ry="1.73" transform="translate(-42.91 48.58) rotate(-20.7)"/>
      <ellipse class="cls-3" cx="110.27" cy="27.76" rx="0.96" ry="1.6" transform="translate(-2.5 13.19) rotate(-6.77)"/>
      <path class="cls-3" d="M41.83,48.7h0l-.23,0h.27Z"/>
      <path class="cls-3" d="M50.42,47.53a.93.93,0,0,0,0-.13c0-.63-.53-.91-.89-1.09a1.37,1.37,0,0,1-.36-.23l0,0A.86.86,0,0,0,49,45h0l-.09,0a1,1,0,0,0,0-.15,1,1,0,0,0-.27-.33,1.24,1.24,0,0,0-.78-.21v0a1.18,1.18,0,0,0-.17-.72.88.88,0,0,0-.22-.25.85.85,0,0,0-.56-.19,1.19,1.19,0,0,0-1,.58h0a1.24,1.24,0,0,0-.79.65.73.73,0,0,0,0,.07,1.61,1.61,0,0,0-.39-.15,1.75,1.75,0,0,0-1.71.83,9.49,9.49,0,0,1-.71.89,3.19,3.19,0,0,1-2.46.94,1.38,1.38,0,0,1-1.09-.78c-.26-.56-.16-2,1.24-3.38a3.37,3.37,0,0,0,1-2.48,4.08,4.08,0,0,0-1.3-2.87l-1,1a2.71,2.71,0,0,1,.85,1.86,2,2,0,0,1-.59,1.46c-1.8,1.82-2,3.85-1.52,5a2.81,2.81,0,0,0,2.06,1.56,3.52,3.52,0,0,0,3.18-.86l.12-.1a5.47,5.47,0,0,0,.09.94.68.68,0,0,0,.05.12,3.17,3.17,0,0,1-1.11.33l-.23,0a5.57,5.57,0,0,0-.85.16,4.34,4.34,0,0,0-2.06,1.25A2.75,2.75,0,0,0,38.18,53a6.26,6.26,0,0,0,1.54,2.4c.91.94,1.47,1.51.71,2.92l1.25.67c1.24-2.33,0-3.57-.94-4.58a3.9,3.9,0,0,1-1.17-1.73,1.92,1.92,0,0,1,.19-1.58A3,3,0,0,1,41.89,50v0A.44.44,0,0,1,42,50h.3A4,4,0,0,1,43,50a2.14,2.14,0,0,1,1.43,1,3.08,3.08,0,0,0,.9.92,1.67,1.67,0,0,0,2.1-.1,1.61,1.61,0,0,0,.33-.46,1.53,1.53,0,0,0,.56-.2A1.27,1.27,0,0,0,49,50c0-.5-.26-.69.4-.69a1.11,1.11,0,0,0,1.19-1.13A1.54,1.54,0,0,0,50.42,47.53Z"/>
      <path class="cls-4" d="M160,27.07l-.05.18-1.39,5.16L145.36,81.15,144.05,86l-1.38,5.1-1.31,4.85L139,104.69l-24.83,91.79H51.65L24.37,103.66,21.83,95l-1.41-4.8-1.48-5-1.41-4.8L3.3,32l-1.48-5L7.06,15.8a195.5,195.5,0,0,1,147.82.42Z"/>
      <path class="cls-5" d="M159.94,27.24l-1.39,5.16L145.36,81.14,144.05,86l-1.38,5.1-1.31,4.85L139,104.68l-24.83,91.79H51.65L24.37,103.65,21.83,95l-1.41-4.8-1.48-5-1.41-4.8L3.3,32,1.8,26.84a187.39,187.39,0,0,1,158.14.4Z"/>
      <path class="cls-6" d="M158.55,32.4,145.36,81.14,144.05,86l-1.38,5.1-1.31,4.85L139,104.68l-24.83,91.79H51.65L24.37,103.65,21.83,95l-1.41-4.8-1.48-5-1.41-4.8L3.3,32a182.1,182.1,0,0,1,155.25.45Z"/>
      <path class="cls-7" d="M139,104.68l-24.83,91.79L113,200.71H52.9l-1.25-4.24L24.37,103.65a142.49,142.49,0,0,1,19.34-6.31q1.44-.37,2.91-.69,5.49-1.27,11.16-2.12c1.18-.17,2.37-.34,3.57-.48,2.72-.35,5.48-.62,8.25-.81,1.1-.08,2.2-.14,3.3-.19,2.5-.13,5-.19,7.55-.19a151.16,151.16,0,0,1,17.8,1q2.7.3,5.35.71A144.88,144.88,0,0,1,139,104.68Z"/>
      <path class="cls-8" d="M145.37,81.15,144.06,86a160.4,160.4,0,0,0-18-6c-1-.27-1.93-.52-2.91-.76a165,165,0,0,0-19.51-3.68c-1.46-.2-2.93-.37-4.4-.54-1-.1-2.1-.2-3.15-.28-1.35-.12-2.71-.23-4.07-.31q-5.73-.37-11.54-.37h-.92c-1.08,0-2.17,0-3.25,0a171.1,171.1,0,0,0-20.36,1.63c-1.16.14-2.32.32-3.47.51a166.78,166.78,0,0,0-33.51,8.89l-1.41-4.79c3.55-1.35,7.17-2.59,10.84-3.69L19.47,43.9a1.5,1.5,0,0,1,2.89-.79l2.53,9.29c.7-3.26,2.16-7.7,5.09-9.88a6.66,6.66,0,0,1,5.64-1.14c1.64.36,2.46.8,2.81,1.51.43.89,0,1.81-.61,3.09a20,20,0,0,0-1.39,3.58c-.42,1.54-.05,4.21,1.71,5a.76.76,0,0,1,.38,1,.75.75,0,0,1-1,.38c-2.66-1.18-3.09-4.73-2.55-6.75a22.48,22.48,0,0,1,1.48-3.84c.35-.72.74-1.54.62-1.78,0-.08-.29-.38-1.78-.71a5.21,5.21,0,0,0-4.43.88c-3.7,2.75-4.79,10.13-5,12.18l5.42,19.94a169.25,169.25,0,0,1,17.21-4h0c1.35-.24,2.71-.48,4.08-.68a181.68,181.68,0,0,1,21.89-2c1.14,0,2.28-.07,3.43-.08h2.58c2.6,0,5.2,0,7.78.17,1.36,0,2.72.11,4.07.21q3.48.21,6.92.57c1.47.14,2.94.31,4.39.51a172.37,172.37,0,0,1,20.57,3.85c1,.22,2,.47,2.92.75,2.48.65,4.94,1.37,7.37,2.14L142.33,45a1.5,1.5,0,0,1,2.92.7l-7.91,32.48C140,79.13,142.73,80.09,145.37,81.15Z"/>
      <path class="cls-9" d="M142.67,91.08l-1.31,4.85A157,157,0,0,0,103.6,85.79q-2.73-.39-5.49-.67a165.66,165.66,0,0,0-17.66-.94c-1.66,0-3.31,0-5,.07s-3.17.12-4.74.21q-5.84.35-11.52,1.08c-1.13.14-2.25.29-3.36.47q-5.66.82-11.15,2.06l1.89,8.58L56,139.06a1.48,1.48,0,0,1-1.14,1.78,1.17,1.17,0,0,1-.32,0,1.49,1.49,0,0,1-1.46-1.18L43.71,97.34l-1.9-8.6a153.87,153.87,0,0,0-20,6.28l-1.41-4.8a161.25,161.25,0,0,1,34.11-9.07c1.08-.17,2.17-.33,3.26-.47,2-.26,3.91-.49,5.89-.67,1.07-.12,2.15-.22,3.24-.29,4.45-.36,9-.54,13.53-.54q8,0,15.7.72c2.51.22,5,.51,7.46.85A163.93,163.93,0,0,1,122,84.32l1.11-5.07,1.06-4.87,1.88-8.57a1.5,1.5,0,0,1,2.94.64l-1.9,8.68L126,80l-1.12,5.08A160.31,160.31,0,0,1,142.67,91.08Z"/>
      <path class="cls-10" d="M112,143.41l-1.18-3.25a25.31,25.31,0,0,0-6.49,4c-.67.51-.69-1.84-.69-1.84-.08-42.23,0-50.53,0-105.81a7.27,7.27,0,0,1,6.67-7.17l.27-.05L110,26.17A11,11,0,0,0,102.7,30a2.55,2.55,0,0,1-1.43.88,1.89,1.89,0,0,1-1.31-.72,10.4,10.4,0,0,0-6.43-4L93,29.35h0A7.52,7.52,0,0,1,96.1,30.8,7.9,7.9,0,0,1,99,36.63v0c.09,3.54.34,39.63.15,41.89a21.68,21.68,0,0,0-2.68-3.21c-.64-.94-2.17-3-4-5.61-3.07-4.44-6.52-10-11.06-12.1-1.93-1.34-8.17-1.34-8.28,5.12A21.45,21.45,0,0,0,75,70.62c.77,1.76,1.56,3.57,1.23,4.46s-1.61.84-4.53.28C69,74.83,64.78,74,63.81,78a4.42,4.42,0,0,0,.38,3.46c1,1.65,3,2.11,4.89,2.55,2.74.64,3.59,1,3.62,2.3A4.18,4.18,0,0,1,71.51,89a7.5,7.5,0,0,0-1.82,6.18c.45,2.75,2.36,3.79,3.89,4.63,1.76,1,3.16,1.73,3.22,5.14l.85,42.9a1.6,1.6,0,0,0,.38,1l.58.06c.48,9.81,2.91,37.72,2.91,39.74,0,2.81-1.4,4.84-2.69,5.11-1.14.23-2.36-.89-3.32-3.09C73.43,185.92,67,150,63.2,110.18c.45-.28.78-.89.78-2.08.23-.44-4.85-28.57-9.35-34.59a26.62,26.62,0,0,0-4.25-4.24c-2.48-1.84-3.86-3-3.36-5.26a2.6,2.6,0,0,1,1.7-2.13c1.27-.31,3,.75,4.76,2.9,2.16,2.64,5,4.06,7.77,3.88a5.53,5.53,0,0,0,4.42-2.34c2-3.24.28-5.9-.89-7.66s-1.44-2.41-1-3.25c.62-1.08,1.79-1,4.78-.11,2.08.6,4.24,1.22,5.95.16a4.17,4.17,0,0,0,1.81-3c.63-3.52-1.84-4.91-3.64-5.92C71.32,45.78,70,45,69.4,43.4s-.29-3.63,0-5.62c.35-2.54.67-4.94-.73-6.65A4.86,4.86,0,0,0,65,29.51c-4.23-.27-4.92,4.15-5.42,7.37-.72,4.6-1.38,6.76-4.34,6.72a5.35,5.35,0,0,1-3-1.29A14.6,14.6,0,0,0,50.23,41a8.35,8.35,0,0,0-3.38-.88A7.09,7.09,0,0,0,40,44.85a1,1,0,0,0,.58,1.28c.51.19.84-.27,1.09-.73a5.74,5.74,0,0,1,5.18-3.26,5.89,5.89,0,0,1,4.49,3.35,6.07,6.07,0,0,1-.25,4.56,5.54,5.54,0,0,1-2.71,2.66c-2.1.94-3.92-.4-5.15-1.45-.42-.36-1.15-.93-1.58-.59a1,1,0,0,0-.17,1.39c1.56,2,5.19,3.59,7.91,2.72a6.54,6.54,0,0,0,4.16-4.08c.53-1.47,1.11-3.69,2.72-3.92,5.14-.57,6-5.84,6.52-9.4.59-3.8,1-4.71,2-4.65a2,2,0,0,1,1.33.44c.51.62.25,2.51,0,4.17-.31,2.27-.66,4.85.19,7.17,1,2.75,3.18,4,4.77,4.87,1.89,1.07,2.25,1.38,2,2.54-.09.49-.23.74-.33.8-.49.31-2.21-.19-3.34-.52-2.59-.75-6.5-1.87-8.49,1.61-1.54,2.69,0,5,1.07,6.63,1.29,1.95,1.7,2.81.85,4.16a2.43,2.43,0,0,1-1.88.84A6.36,6.36,0,0,1,56,62.73c-3.52-4.3-6.53-4.35-8-4a5.77,5.77,0,0,0-4.1,4.58c-1,4.42,2.12,6.71,4.59,8.55a13.89,13.89,0,0,1,2.74,2.44c3.44,4.54,4.69,11.65,6.34,19,1.91,8.51,2.69,16.42,3.49,16.7a3.54,3.54,0,0,0,.4.17c1.65,17.39,9.89,75.3,12.44,81.16,1.55,3.56,3.49,4.19,4.67,4.19a3.19,3.19,0,0,0,.65-.07c2.35-.49,4.11-3.44,4.11-6.86,0-2.08-2.38-29.18-2.9-39.71a1.59,1.59,0,0,0,.49-1.17L80,104.86c-.1-5.28-2.88-6.8-4.9-7.91-1.42-.78-2.06-1.17-2.25-2.32-.28-1.69.36-2.55,1.24-3.74a7.22,7.22,0,0,0,1.82-4.64c-.08-4-3.71-4.82-6.12-5.38-1.14-.27-2.56-.6-2.87-1.1a1.59,1.59,0,0,1,0-1c.18-.74.83-.89,4.16-.25,2.88.56,6.83,1.32,8.17-2.34.78-2.11-.23-4.42-1.3-6.87s-1.75-4.24-1.66-5.88c0,0-.38-2.26,2.59-2.78C82.59,60,89.27,71.05,94.6,78h0l0,0c.56.73,1.11,1.41,1.64,2v0a14.28,14.28,0,0,1,1.25,2.1,20.13,20.13,0,0,1,.73,5h0V119s0,1.09-.59.46a13.48,13.48,0,0,0-6.73-3.85L90.1,119c5.19,1.25,8.15,6,8.15,9.62l-.91,72h6.19l.13-47.4C103.67,150.16,106.51,145.37,112,143.41Z"/>
      <ellipse class="cls-11" cx="90.54" cy="117.33" rx="1.73" ry="1.04" transform="translate(-44.4 178.61) rotate(-76.77)"/>
      <ellipse class="cls-11" cx="93.26" cy="27.76" rx="1.61" ry="0.97" transform="translate(51.96 115.87) rotate(-81.46)"/>
      <ellipse class="cls-11" cx="111.53" cy="141.75" rx="1.04" ry="1.73" transform="translate(-42.91 48.58) rotate(-20.7)"/>
      <ellipse class="cls-11" cx="110.27" cy="27.76" rx="0.96" ry="1.6" transform="translate(-2.5 13.19) rotate(-6.77)"/>
      <g class="cls-12">
        <path class="cls-13" d="M41.83,48.7h0l-.23,0h.27Z"/>
        <path class="cls-14" d="M50.42,47.53a.93.93,0,0,0,0-.13c0-.63-.53-.91-.89-1.09a1.37,1.37,0,0,1-.36-.23l0,0A.86.86,0,0,0,49,45h0l-.09,0a1,1,0,0,0,0-.15,1,1,0,0,0-.27-.33,1.24,1.24,0,0,0-.78-.21v0a1.18,1.18,0,0,0-.17-.72.88.88,0,0,0-.22-.25.85.85,0,0,0-.56-.19,1.19,1.19,0,0,0-1,.58h0a1.24,1.24,0,0,0-.79.65.73.73,0,0,0,0,.07,1.61,1.61,0,0,0-.39-.15,1.75,1.75,0,0,0-1.71.83,9.49,9.49,0,0,1-.71.89,3.19,3.19,0,0,1-2.46.94,1.38,1.38,0,0,1-1.09-.78c-.26-.56-.16-2,1.24-3.38a3.37,3.37,0,0,0,1-2.48,4.08,4.08,0,0,0-1.3-2.87l-1,1a2.71,2.71,0,0,1,.85,1.86,2,2,0,0,1-.59,1.46c-1.8,1.82-2,3.85-1.52,5a2.81,2.81,0,0,0,2.06,1.56,3.52,3.52,0,0,0,3.18-.86l.12-.1a5.47,5.47,0,0,0,.09.94.68.68,0,0,0,.05.12,3.17,3.17,0,0,1-1.11.33l-.23,0a5.57,5.57,0,0,0-.85.16,4.34,4.34,0,0,0-2.06,1.25A2.75,2.75,0,0,0,38.18,53a6.26,6.26,0,0,0,1.54,2.4c.91.94,1.47,1.51.71,2.92l1.25.67c1.24-2.33,0-3.57-.94-4.58a3.9,3.9,0,0,1-1.17-1.73,1.92,1.92,0,0,1,.19-1.58A3,3,0,0,1,41.89,50v0A.44.44,0,0,1,42,50h.3A4,4,0,0,1,43,50a2.14,2.14,0,0,1,1.43,1,3.08,3.08,0,0,0,.9.92,1.67,1.67,0,0,0,2.1-.1,1.61,1.61,0,0,0,.33-.46,1.53,1.53,0,0,0,.56-.2A1.27,1.27,0,0,0,49,50c0-.5-.26-.69.4-.69a1.11,1.11,0,0,0,1.19-1.13A1.54,1.54,0,0,0,50.42,47.53Z"/>
      </g>
    </symbol>
    <symbol id="Pfeil" data-name="Pfeil" viewBox="0 0 70 77.95">
      <path class="cls-1" d="M55.63,26.92a71.28,71.28,0,0,0-18.74,4.83,59,59,0,0,0-16.6,10.51,63.77,63.77,0,0,0-12.73,16A70.51,70.51,0,0,0,3,67.72,60.29,60.29,0,0,0,0,78,61.34,61.34,0,0,1,.92,67.14a73.82,73.82,0,0,1,2.6-10.69A69.34,69.34,0,0,1,30.43,20.24,86.6,86.6,0,0,1,51.59,9.79Z" style="fill: rgb(153, 153, 153);"/>
      <polygon class="cls-1" points="54.06 37.81 48.15 0 70 15.95 54.06 37.81" style="fill: rgb(153, 153, 153);"/>
    </symbol>
    <symbol id="Kidney-2" data-name="Kidney" viewBox="0 0 90 112.16">
      <circle class="cls-1" cx="45" cy="67.15" r="45" style="fill: rgb(250, 241, 206);"/>
      <path class="cls-2" d="M67.18,43.06c0,29.47-21.82,45.64-38.48,33.38C14.53,66,27.21,52.11,27.21,52.11a15.73,15.73,0,0,1-2.8-5.29,13.24,13.24,0,0,1-.52-2.53c0-.29-.06-.61-.06-.92s0-.73,0-1.08a9.91,9.91,0,0,1,.54-2.54,10.51,10.51,0,0,1,3-4.36s-9.28-.25-12.83-10.63C11.56,16.07,16.35,0,35.8,1,56.74,2.11,67.18,28.52,67.18,43.06Z" style="fill: rgb(235, 212, 205); stroke: rgb(174, 85, 54); stroke-linecap: round; stroke-linejoin: round; stroke-width: 2px;"/>
      <path class="cls-3" d="M23.84,43.37c0,.31,0,.63.06.92h-.14a16.23,16.23,0,0,1-5.82-1.21,14.89,14.89,0,0,1-8.63-9.93,2.3,2.3,0,0,1,4.49-1,10.37,10.37,0,0,0,10.1,7.58,2.83,2.83,0,0,1,.49.06,9.91,9.91,0,0,0-.54,2.54C23.84,42.65,23.83,43,23.84,43.37Z" style="fill: rgb(181, 216, 225); stroke: rgb(174, 85, 54); stroke-linecap: round; stroke-linejoin: round; stroke-width: 2px;"/>
      <path class="cls-4" d="M24.42,46.82a1.25,1.25,0,0,1-.27.06l-5.56.76a5.49,5.49,0,0,0-4.73,5.42V87.3a2.3,2.3,0,1,1-4.6,0V53.06a10.13,10.13,0,0,1,8.69-10h0l5.56-.76a2,2,0,0,1,.33,0c0,.35,0,.71,0,1.08s0,.63.06.92A13.24,13.24,0,0,0,24.42,46.82Z" style="fill: rgb(227, 180, 161); stroke: rgb(174, 85, 54); stroke-linecap: round; stroke-linejoin: round; stroke-width: 2px;"/>
      <text class="cls-5" transform="translate(22.05 99.77)" style="fill: rgb(14, 14, 14); font-family: Arial-BoldMT, Arial; font-size: 14px; font-weight: bold; white-space: pre;"><tspan> </tspan><tspan style="stroke: rgb(14, 14, 14);">Kidney</tspan></text>
      <text x="109.874" y="53.794" style="white-space: pre; fill: rgb(51, 51, 51); font-family: sans-serif; font-size: 24px;"> </text>
      <text x="97.835" y="87.777" style="white-space: pre; fill: rgb(51, 51, 51); font-family: sans-serif; font-size: 24px;"> </text>
    </symbol>
  </defs>
  <title>NaPO4_170927_Kidney Zoom</title>
  <g id="Text_und_Pfeile" data-name="Text und Pfeile" transform="matrix(0.69269, 0, 0, 0.729614, 23.761992, 19.464258)">
    <use width="161.72" height="202.21" transform="matrix(0.47000011801719666, 0, 0, 0.47000011801719666, 0, 0)" xlink:href="#Kidey_zoom"/>
  </g>
  <g id="Ebene_13" data-name="Ebene 13" transform="matrix(0.387765, 0.045498, 0.046522, -0.396492, 0.167428, 33.604996)">
    <use width="70" height="77.95" transform="matrix(1, 0, 0, 1, 0, 0)" xlink:href="#Pfeil"/>
  </g>
</svg>