<?xml version="1.0" encoding="utf-8"?>
<svg viewBox="5.684341886080802e-14 -1.894001841545105 852.81005859375 1300.60302734375" width="852.81005859375" height="1300.60302734375" xmlns="http://www.w3.org/2000/svg">
  <defs>
    <style>.cls-1{fill:#e5e5e5;}.cls-2{fill:#fff;}.cls-3,.cls-4,.cls-5{fill:none;stroke-miterlimit:10;}.cls-3,.cls-4{stroke:#fff;}.cls-4,.cls-5{stroke-width:2px;}.cls-5{stroke:#e5e5e5;}</style>
  </defs>
  <rect class="cls-1" width="852.81" height="1000" transform="matrix(1, 0, 0, 1, 5.684341886080802e-14, 2.842170943040401e-14)"/>
  <path class="cls-2" d="M 636.619 1206.521 C 634.678 1237.129 626.228 1270.638 611.485 1298.709 L 582.912 1298.709 C 586.116 1294.166 590.011 1289.186 590.995 1287.399 C 595.864 1278.593 600.089 1269.404 603.637 1259.907 C 618.657 1219.741 621.745 1172.951 602.813 1133.554 C 584.749 1095.956 540.184 1079.415 506.613 1062.419 C 469.104 1043.37 440.014 1020.107 424.185 977.577 C 419.908 965.881 416.733 953.757 414.706 941.39 C 414.088 937.71 413.088 932.93 412.396 927.935 C 411.251 919.678 410.927 910.812 414.543 905.173 C 417.733 900.161 419.57 901.789 425.699 902.04 L 426.949 902.04 L 439.633 902.744 C 443.837 906.285 449.039 911.878 449.584 916.937 C 450.509 925.537 450.701 936.22 452.523 944.679 C 455.831 960.048 456.786 976.699 464.679 990.108 C 479.377 1015.047 502.483 1027.893 526.177 1041.459 C 556.484 1058.815 590.188 1076.205 611.839 1105.685 C 632.091 1133.568 638.779 1172.214 636.619 1206.521 Z" transform="matrix(1, 0, 0, 1, 5.684341886080802e-14, 2.842170943040401e-14)"/>
  <path class="cls-2" d="M 425.479 -0.28 C 425.479 -0.28 431.798 -2.144 443.895 14.742 C 454.009 28.841 469.706 48.641 477.085 64.369 C 484.464 80.097 480.317 77.637 486.77 82.76 C 496.09 90.598 503.335 100.888 507.789 112.618 C 513.786 128.831 514.374 137.305 524.56 152.218 C 536.552 169.762 548.987 179.351 578.032 185.24 C 640.647 197.944 685.563 162.025 685.563 162.025 C 685.563 162.025 684.992 155.273 691.445 146.924 C 697.897 138.574 709.772 122.236 713.109 125.306 C 715.652 127.639 704.04 147.41 704.04 147.41 C 704.04 147.41 733.437 121.091 736.611 119.918 C 742.27 117.802 746.768 121.86 740.315 127.749 L 737.287 130.508 C 737.287 130.508 746.312 118.899 748.62 124.24 C 750.926 129.583 741.713 136.193 741.713 136.193 C 741.713 136.193 753.236 124.24 753.236 130.617 C 753.236 136.993 719.576 163.512 719.576 163.512 C 719.576 163.512 745.224 148.679 738.771 159.001 C 732.319 169.325 719.106 176.781 711.272 177.799 C 706.995 178.392 702.673 178.555 698.366 178.285 L 674.394 202.848 C 674.394 202.848 630.137 254.011 615.38 282.05 C 600.624 310.091 591.407 336.72 597.006 351.462 C 611.22 389.324 614.321 405.428 626.403 496.739 C 636.854 575.455 606.943 646.685 609.81 686.38 C 613.499 737.479 621.789 754.178 635.62 782.187 C 649.451 810.197 666.045 872.59 667.955 880.877 C 669.866 889.163 669.338 891.2 671.646 894.145 C 673.952 897.091 684.329 902.368 693.545 912.205 C 702.761 922.044 719.591 932.838 732.276 937.27 C 749.634 943.333 767.082 927.574 782.25 926.587 C 797.418 925.599 808.06 923.142 819.127 928.545 C 830.196 933.95 835.721 938.869 836.648 940.827 C 837.574 942.784 836.648 948.19 836.648 948.19 C 836.648 948.19 841.718 948.674 843.101 951.635 C 843.969 953.145 843.969 955.046 843.101 956.554 C 843.101 956.554 848.171 956.554 847.716 960.001 C 847.406 961.786 847.406 963.618 847.716 965.404 C 847.716 965.404 851.89 966.878 847.716 969.823 C 843.542 972.767 832.019 974.742 820.024 969.823 C 808.031 964.904 805.738 964.418 800.666 963.933 C 795.596 963.447 786.379 966.391 786.379 966.391 C 786.379 966.391 793.287 971.796 798.359 975.242 C 803.43 978.689 809.426 988.997 802.504 988.01 C 795.581 987.022 777.604 978.187 777.604 978.187 C 777.604 978.187 772.988 977.199 757.777 976.715 C 742.564 976.228 729.453 971.373 723.544 965.295 C 717.636 959.217 709.48 951.667 702.114 947.233 C 694.751 942.801 680.787 943.301 669.779 938.885 C 658.769 934.467 645.791 917.298 645.791 917.298 C 645.791 917.298 624.581 912.379 580.326 907.898 C 536.068 903.418 516.712 889.227 503.336 890.213 C 489.96 891.2 486.285 898.045 479.362 908.886 C 472.439 919.725 471.529 924.55 454.464 928.045 C 444.327 930.067 433.856 927.588 425.479 921.182 Z" transform="matrix(1, 0, 0, 1, 5.684341886080802e-14, 2.842170943040401e-14)"/>
  <line class="cls-3" x1="516.622" y1="-1.894" x2="457.712" y2="35.874" transform="matrix(1, 0, 0, 1, 5.684341886080802e-14, 2.842170943040401e-14)"/>
  <line class="cls-3" x1="540.125" y1="24.251" x2="457.712" y2="43.237" transform="matrix(1, 0, 0, 1, 5.684341886080802e-14, 2.842170943040401e-14)"/>
  <line class="cls-3" x1="521.635" y1="52.573" x2="458.756" y2="55.034" transform="matrix(1, 0, 0, 1, 5.684341886080802e-14, 2.842170943040401e-14)"/>
  <path class="cls-2" d="M 426.949 -0.28 C 426.949 -0.28 420.628 -2.144 408.532 14.742 C 398.419 28.857 382.693 48.641 375.343 64.307 C 367.995 79.971 372.11 77.575 365.657 82.697 C 356.338 90.535 349.093 100.826 344.639 112.556 C 338.642 128.768 338.053 137.243 327.868 152.157 C 315.875 169.7 303.439 179.287 274.395 185.178 C 211.78 197.881 166.864 161.962 166.864 161.962 C 166.864 161.962 167.436 155.21 160.984 146.862 C 154.531 138.511 142.656 122.173 139.319 125.244 C 136.776 127.577 148.387 147.347 148.387 147.347 C 148.387 147.347 118.991 121.029 115.816 119.855 C 110.157 117.739 105.659 121.796 112.113 127.686 L 115.184 130.508 C 115.184 130.508 106.159 118.899 103.852 124.24 C 101.545 129.583 110.76 136.193 110.76 136.193 C 110.76 136.193 99.236 124.24 99.236 130.617 C 99.236 136.993 132.895 163.512 132.895 163.512 C 132.895 163.512 107.204 148.787 113.715 159.096 C 120.226 169.403 133.381 176.875 141.215 177.893 C 145.492 178.485 149.813 178.648 154.12 178.378 L 178.094 202.942 C 178.094 202.942 222.35 254.042 237.106 282.05 C 251.863 310.059 261.005 336.753 255.479 351.477 C 241.267 389.339 238.163 405.443 226.082 496.755 C 215.632 575.472 245.542 646.701 242.677 686.395 C 238.987 737.493 230.698 754.194 216.867 782.202 C 203.035 810.212 186.442 872.605 184.531 880.893 C 182.62 889.179 183.149 891.215 180.842 894.161 C 178.533 897.105 168.098 902.383 158.911 912.254 C 149.725 922.123 132.823 932.883 120.183 937.319 C 102.822 943.38 85.376 927.622 70.208 926.633 C 55.04 925.646 44.398 923.189 33.33 928.592 C 22.262 933.997 16.706 938.916 15.765 940.873 C 14.825 942.832 15.765 948.236 15.765 948.236 C 15.765 948.236 10.695 948.723 9.313 951.683 C 8.444 953.19 8.444 955.093 9.313 956.601 C 9.313 956.601 4.242 956.601 4.697 960.048 C 5.007 961.833 5.007 963.665 4.697 965.451 C 4.697 965.451 0.523 966.924 4.697 969.87 C 8.872 972.814 20.395 974.788 32.39 969.87 C 44.382 964.95 46.675 964.465 51.747 963.979 C 56.817 963.493 66.033 966.439 66.033 966.439 C 66.033 966.439 59.126 971.843 54.054 975.289 C 48.984 978.736 42.986 989.044 49.91 988.057 C 56.832 987.069 74.809 978.235 74.809 978.235 C 74.809 978.235 79.423 977.247 94.636 976.762 C 109.85 976.275 122.96 971.42 128.868 965.342 C 134.777 959.264 142.934 951.714 150.299 947.28 C 157.662 942.848 171.627 943.348 182.635 938.931 C 193.643 934.513 206.607 917.313 206.607 917.313 C 206.607 917.313 227.817 912.393 272.074 907.915 C 316.33 903.435 335.688 889.242 349.062 890.229 C 362.438 891.215 366.112 898.061 373.035 908.901 C 379.958 919.741 380.869 924.566 397.934 928.06 C 408.081 930.088 418.565 927.601 426.949 921.182 Z" transform="matrix(1, 0, 0, 1, 5.684341886080802e-14, 2.842170943040401e-14)"/>
  <line class="cls-3" x1="337.275" y1="-1.894" x2="396.185" y2="35.874" transform="matrix(1, 0, 0, 1, 5.684341886080802e-14, 2.842170943040401e-14)"/>
  <line class="cls-3" x1="313.772" y1="24.251" x2="396.185" y2="43.237" transform="matrix(1, 0, 0, 1, 5.684341886080802e-14, 2.842170943040401e-14)"/>
  <line class="cls-3" x1="332.262" y1="52.573" x2="395.141" y2="55.034" transform="matrix(1, 0, 0, 1, 5.684341886080802e-14, 2.842170943040401e-14)"/>
  <line class="cls-4" x1="595.608" y1="189.223" x2="595.608" y2="203.943" transform="matrix(1, 0, 0, 1, 5.684341886080802e-14, 2.842170943040401e-14)"/>
  <path class="cls-5" d="M 446.879 62.52 C 446.879 62.52 437.37 54.047 435.988 50.364 C 434.722 46.989 433.627 43.541 432.71 40.041 C 431.652 36.063 429.036 30.642 429.08 31.38 L 430.063 32.083" transform="matrix(1, 0, 0, 1, 5.684341886080802e-14, 2.842170943040401e-14)"/>
  <path class="cls-5" d="M 431.196 17.217 C 431.196 17.217 439.236 20.491 439.545 14.993" transform="matrix(1, 0, 0, 1, 5.684341886080802e-14, 2.842170943040401e-14)"/>
  <path class="cls-5" d="M 434.607 12.612 C 434.607 12.612 434.091 10.592 435.988 11.328 C 437.884 12.064 439.443 9.118 437.547 6.174 C 435.65 3.229 433.401 3.589 432.019 6.174 C 431.102 7.384 430.436 8.789 430.063 10.294" transform="matrix(1, 0, 0, 1, 5.684341886080802e-14, 2.842170943040401e-14)"/>
  <path class="cls-5" d="M 439.5 56.083 C 436.242 54.29 432.716 53.106 429.08 52.588" transform="matrix(1, 0, 0, 1, 5.684341886080802e-14, 2.842170943040401e-14)"/>
  <path class="cls-5" d="M 408.327 62.52 C 408.327 62.52 417.836 54.047 419.218 50.364 C 420.484 46.989 421.579 43.541 422.495 40.041 C 423.553 36.063 426.169 30.642 426.126 31.38 L 425.14 32.083" transform="matrix(1, 0, 0, 1, 5.684341886080802e-14, 2.842170943040401e-14)"/>
  <path class="cls-5" d="M 424.068 17.217 C 424.068 17.217 416.028 20.491 415.72 14.993" transform="matrix(1, 0, 0, 1, 5.684341886080802e-14, 2.842170943040401e-14)"/>
  <path class="cls-5" d="M 420.598 12.612 C 420.598 12.612 421.113 10.592 419.218 11.328 C 417.322 12.064 415.763 9.118 417.66 6.174 C 419.555 3.229 421.804 3.589 423.185 6.174 C 424.105 7.384 424.771 8.789 425.14 10.294" transform="matrix(1, 0, 0, 1, 5.684341886080802e-14, 2.842170943040401e-14)"/>
  <path class="cls-5" d="M 415.72 56.083 C 418.978 54.29 422.504 53.106 426.14 52.588" transform="matrix(1, 0, 0, 1, 5.684341886080802e-14, 2.842170943040401e-14)"/>
</svg>