<?xml version="1.0" encoding="utf-8"?>
<svg viewBox="394.2601623535156 152.5980987548828 94.54998779296875 100.63999938964844" width="94.54998779296875" height="100.63999938964844" xmlns="http://www.w3.org/2000/svg">
  <defs>
    <style>.cls-1,.cls-15{fill:#eccbbd;}.cls-1,.cls-10,.cls-11,.cls-12,.cls-13,.cls-14,.cls-17,.cls-18,.cls-19,.cls-20,.cls-21,.cls-22,.cls-23,.cls-24,.cls-25,.cls-28,.cls-29,.cls-3,.cls-30,.cls-31,.cls-32,.cls-6,.cls-7,.cls-8{stroke:#ae5536;}.cls-1,.cls-10,.cls-11,.cls-12,.cls-13,.cls-14,.cls-17,.cls-18,.cls-20,.cls-21,.cls-22,.cls-23,.cls-24,.cls-25,.cls-28,.cls-29,.cls-3,.cls-30,.cls-31,.cls-32,.cls-33,.cls-6,.cls-7,.cls-8{stroke-linecap:round;}.cls-1,.cls-10,.cls-11,.cls-12,.cls-13,.cls-14,.cls-17,.cls-18,.cls-19,.cls-20,.cls-21,.cls-22,.cls-23,.cls-24,.cls-25,.cls-28,.cls-29,.cls-3,.cls-30,.cls-31,.cls-32,.cls-33,.cls-6,.cls-8{stroke-linejoin:round;}.cls-1,.cls-10,.cls-12,.cls-13,.cls-14,.cls-18,.cls-19,.cls-20,.cls-25,.cls-3,.cls-30,.cls-31,.cls-32,.cls-6,.cls-8{stroke-width:2px;}.cls-11,.cls-18,.cls-2,.cls-7{fill:none;}.cls-17,.cls-3,.cls-9{fill:#fff;}.cls-4{fill:#e5f3ea;}.cls-5{fill:#faf1ce;}.cls-6{fill:#f0f7f9;}.cls-7{stroke-miterlimit:10;}.cls-8{fill:#f6e6a7;}.cls-10{fill:#e3ecc1;}.cls-12{fill:#d5a696;}.cls-13{fill:#f4e297;}.cls-14{fill:#f8eec2;}.cls-16{clip-path:url(#clip-path);}.cls-19{fill:#f3e0d8;}.cls-20{fill:#e0eef2;}.cls-21{fill:#d4e9ed;}.cls-22{fill:#efd4c9;}.cls-23{fill:#e0eabb;}.cls-24{fill:#f8ecba;}.cls-25{fill:#f1d9d0;}.cls-26{clip-path:url(#clip-path-2);}.cls-27{clip-path:url(#clip-path-3);}.cls-28{fill:#cae3e9;}.cls-29{fill:#ebf4f7;}.cls-30{fill:#ebd4cd;}.cls-31{fill:#b5d8e1;}.cls-32{fill:#e3b4a1;}.cls-33{fill:#b6d391;stroke:#5e7658;}.cls-34,.cls-35{font-size:14px;font-family:Arial-BoldMT, Arial;font-weight:700;}.cls-35{fill:#5e7658;}</style>
  </defs>
  <circle class="cls-5" cx="154.24" cy="706.92" r="45" transform="matrix(0.978307, 0, 0, 0.985054, 287.389923, -487.443939)"/>
  <circle class="cls-20" cx="167.1" cy="687.97" r="36.69" transform="matrix(0.978307, 0, 0, 0.985054, 287.389923, -487.443939)"/>
  <circle class="cls-21" cx="167.1" cy="687.97" r="31.43" transform="matrix(0.978307, 0, 0, 0.985054, 287.389923, -487.443939)"/>
  <circle class="cls-22" cx="167.1" cy="687.97" r="11.03" transform="matrix(0.978307, 0, 0, 0.985054, 287.389923, -487.443939)"/>
  <path class="cls-11" d="M 441.463 179.389 C 438.355 182.12 436.572 186.071 436.572 190.224 C 436.572 190.631 436.588 191.032 436.621 191.426"/>
  <path class="cls-11" d="M 453.321 204.448 C 457.021 203.8 460.321 201.713 462.507 198.637"/>
  <path class="cls-11" d="M 442.833 173.173 C 436.269 176.289 432.079 182.937 432.072 190.244 C 432.072 190.454 432.072 190.661 432.072 190.864"/>
  <path class="cls-11" d="M 449.603 209.098 C 450.02 209.098 450.441 209.098 450.865 209.098 C 454.376 209.104 457.817 208.114 460.795 206.241"/>
  <path class="cls-11" d="M 435.114 172.68 C 431.609 175.862 429.138 180.032 428.022 184.649"/>
  <polyline class="cls-11" points="437.677 184.649 440.925 186.028 440.925 186.038"/>
  <line class="cls-11" x1="458.427" y1="202.784" x2="456.461" y2="199.523"/>
  <circle class="cls-23" cx="167.1" cy="667.21" r="3.43" transform="matrix(0.978307, 0, 0, 0.985054, 287.389923, -487.443939)"/>
  <circle class="cls-23" cx="158.89" cy="663.79" r="1.42" transform="matrix(0.978307, 0, 0, 0.985054, 287.389923, -487.443939)"/>
  <circle class="cls-11" cx="161.73" cy="712.16" r="1.42" transform="matrix(0.978307, 0, 0, 0.985054, 287.389923, -487.443939)"/>
  <rect class="cls-24" x="179.585" y="677.249" width="7.739" height="13.758" rx="3.94" ry="3.94" transform="matrix(0.977503, 0.21091, -0.20816, 0.978098, 431.917419, -510.809176)"/>
  <path class="cls-11" d="M 468.526 194.009 C 468.526 194.009 465.914 193.703 465.112 195.901"/>
  <path class="cls-11" d="M 469.195 199.242 C 469.195 199.242 471.798 199.646 472.678 197.489"/>
  <rect class="cls-24" x="145.93" y="681.879" width="7.752" height="13.673" rx="3.94" ry="3.94" transform="matrix(-0.613855, 0.789418, -0.78532, -0.619127, 1069.348552, 512.405315)"/>
  <path class="cls-11" d="M 438.773 204.813 C 438.773 204.813 440.192 202.577 438.597 200.873"/>
  <path class="cls-11" d="M 434.244 203.513 C 434.244 203.513 432.737 205.69 434.244 207.453"/>
  <rect class="cls-24" x="174.493" y="654.714" width="7.744" height="13.688" rx="3.94" ry="3.94" transform="matrix(0.729372, -0.684118, 0.679121, 0.734059, -114.168321, -187.397113)"/>
  <path class="cls-11" d="M 463.074 175.301 C 463.074 175.301 461.323 177.271 462.644 179.241"/>
  <path class="cls-11" d="M 467.34 177.3 C 467.34 177.3 469.159 175.389 467.917 173.419"/>
  <text class="cls-34" transform="matrix(0.978307, 0, 0, 0.985054, 421.554932, 244.254395)" style="white-space: pre;">Cells</text>
</svg>