<?xml version="1.0" encoding="utf-8"?>
<svg viewBox="386.47900390625 11.347299575805664 89.99996948242188 104.20970153808594" width="89.99996948242188" height="104.20970153808594" xmlns="http://www.w3.org/2000/svg">
  <defs>
    <style>.cls-1,.cls-15{fill:#eccbbd;}.cls-1,.cls-10,.cls-11,.cls-12,.cls-13,.cls-14,.cls-17,.cls-18,.cls-19,.cls-20,.cls-21,.cls-22,.cls-23,.cls-24,.cls-25,.cls-28,.cls-29,.cls-3,.cls-30,.cls-31,.cls-32,.cls-6,.cls-7,.cls-8{stroke:#ae5536;}.cls-1,.cls-10,.cls-11,.cls-12,.cls-13,.cls-14,.cls-17,.cls-18,.cls-20,.cls-21,.cls-22,.cls-23,.cls-24,.cls-25,.cls-28,.cls-29,.cls-3,.cls-30,.cls-31,.cls-32,.cls-33,.cls-6,.cls-7,.cls-8{stroke-linecap:round;}.cls-1,.cls-10,.cls-11,.cls-12,.cls-13,.cls-14,.cls-17,.cls-18,.cls-19,.cls-20,.cls-21,.cls-22,.cls-23,.cls-24,.cls-25,.cls-28,.cls-29,.cls-3,.cls-30,.cls-31,.cls-32,.cls-33,.cls-6,.cls-8{stroke-linejoin:round;}.cls-1,.cls-10,.cls-12,.cls-13,.cls-14,.cls-18,.cls-19,.cls-20,.cls-25,.cls-3,.cls-30,.cls-31,.cls-32,.cls-6,.cls-8{stroke-width:2px;}.cls-11,.cls-18,.cls-2,.cls-7{fill:none;}.cls-17,.cls-3,.cls-9{fill:#fff;}.cls-4{fill:#e5f3ea;}.cls-5{fill:#faf1ce;}.cls-6{fill:#f0f7f9;}.cls-7{stroke-miterlimit:10;}.cls-8{fill:#f6e6a7;}.cls-10{fill:#e3ecc1;}.cls-12{fill:#d5a696;}.cls-13{fill:#f4e297;}.cls-14{fill:#f8eec2;}.cls-16{clip-path:url(#clip-path);}.cls-19{fill:#f3e0d8;}.cls-20{fill:#e0eef2;}.cls-21{fill:#d4e9ed;}.cls-22{fill:#efd4c9;}.cls-23{fill:#e0eabb;}.cls-24{fill:#f8ecba;}.cls-25{fill:#f1d9d0;}.cls-26{clip-path:url(#clip-path-2);}.cls-27{clip-path:url(#clip-path-3);}.cls-28{fill:#cae3e9;}.cls-29{fill:#ebf4f7;}.cls-30{fill:#ebd4cd;}.cls-31{fill:#b5d8e1;}.cls-32{fill:#e3b4a1;}.cls-33{fill:#b6d391;stroke:#5e7658;}.cls-34,.cls-35{font-size:14px;font-family:Arial-BoldMT, Arial;font-weight:700;}.cls-35{fill:#5e7658;}</style>
  </defs>
  <circle class="cls-5" cx="431.479" cy="70.557" r="45" transform="matrix(0.9999999999999999, 0, 0, 0.9999999999999999, 0, 0)"/>
  <text class="cls-34" style="white-space: pre; font-size: 14px;" x="408.116" y="106.047" transform="matrix(0.9999999999999999, 0, 0, 0.9999999999999999, 0, 0)">Kidney</text>
  <path class="cls-30" d="M 451.796 53.402 C 451.796 82.872 429.976 99.042 413.316 86.782 C 399.146 76.352 411.826 62.462 411.826 62.462 C 410.563 60.894 409.612 59.098 409.026 57.172 C 408.771 56.348 408.597 55.5 408.506 54.642 C 408.506 54.352 408.446 54.032 408.446 53.722 C 408.446 53.412 408.446 52.992 408.446 52.642 C 408.514 51.775 408.696 50.921 408.986 50.102 C 409.598 48.417 410.631 46.916 411.986 45.742 C 411.986 45.742 402.706 45.492 399.156 35.112 C 396.156 26.412 400.966 10.392 420.426 11.392 C 441.356 12.452 451.796 38.862 451.796 53.402 Z" transform="matrix(0.9999999999999999, 0, 0, 0.9999999999999999, 0, 0)"/>
  <path class="cls-32" d="M 409.036 57.162 C 408.949 57.192 408.858 57.212 408.766 57.222 L 403.206 57.982 C 400.501 58.36 398.485 60.67 398.476 63.402 L 398.476 97.612 C 398.476 99.383 396.56 100.489 395.026 99.604 C 394.315 99.193 393.876 98.434 393.876 97.612 L 393.876 63.402 C 393.89 58.374 397.589 54.117 402.566 53.402 L 402.566 53.402 L 408.126 52.642 C 408.236 52.633 408.346 52.633 408.456 52.642 C 408.456 52.992 408.456 53.352 408.456 53.722 C 408.456 54.092 408.456 54.352 408.516 54.642 C 408.607 55.497 408.782 56.341 409.036 57.162 Z" transform="matrix(0.9999999999999999, 0, 0, 0.9999999999999999, 0, 0)"/>
  <path class="cls-31" d="M 408.029 52.856 C 408.029 53.166 408.029 53.486 408.089 53.776 L 408.029 53.776 C 406.031 53.734 404.057 53.324 402.209 52.566 C 397.946 50.775 394.758 47.106 393.579 42.636 C 393.194 40.907 394.824 39.411 396.513 39.941 C 397.297 40.188 397.89 40.833 398.069 41.636 C 399.331 46.157 403.474 49.266 408.169 49.216 C 408.333 49.221 408.497 49.241 408.659 49.276 C 408.368 50.095 408.186 50.949 408.119 51.816 C 408.029 52.136 408.029 52.486 408.029 52.856 Z" transform="matrix(0.9999999999999999, 0, 0, 0.9999999999999999, 0, 0)"/>
</svg>