<?xml version="1.0" encoding="utf-8"?>
<svg viewBox="158.90016174316406 152.8986053466797 83.82766723632812 86.78890991210938" width="83.82766723632812" height="86.78890991210938" xmlns="http://www.w3.org/2000/svg" xmlns:xlink="http://www.w3.org/1999/xlink">
  <defs>
    <symbol id="Neues_Symbol_1" data-name="Neues Symbol 1" viewBox="0 0 55 55">
      <circle class="cls-4" cx="27.5" cy="27.5" r="27.5"/>
    </symbol>
    <style>.cls-1,.cls-15{fill:#eccbbd;}.cls-1,.cls-10,.cls-11,.cls-12,.cls-13,.cls-14,.cls-17,.cls-18,.cls-19,.cls-20,.cls-21,.cls-22,.cls-23,.cls-24,.cls-25,.cls-28,.cls-29,.cls-3,.cls-30,.cls-31,.cls-32,.cls-6,.cls-7,.cls-8{stroke:#ae5536;}.cls-1,.cls-10,.cls-11,.cls-12,.cls-13,.cls-14,.cls-17,.cls-18,.cls-20,.cls-21,.cls-22,.cls-23,.cls-24,.cls-25,.cls-28,.cls-29,.cls-3,.cls-30,.cls-31,.cls-32,.cls-33,.cls-6,.cls-7,.cls-8{stroke-linecap:round;}.cls-1,.cls-10,.cls-11,.cls-12,.cls-13,.cls-14,.cls-17,.cls-18,.cls-19,.cls-20,.cls-21,.cls-22,.cls-23,.cls-24,.cls-25,.cls-28,.cls-29,.cls-3,.cls-30,.cls-31,.cls-32,.cls-33,.cls-6,.cls-8{stroke-linejoin:round;}.cls-1,.cls-10,.cls-12,.cls-13,.cls-14,.cls-18,.cls-19,.cls-20,.cls-25,.cls-3,.cls-30,.cls-31,.cls-32,.cls-6,.cls-8{stroke-width:2px;}.cls-11,.cls-18,.cls-2,.cls-7{fill:none;}.cls-17,.cls-3,.cls-9{fill:#fff;}.cls-4{fill:#e5f3ea;}.cls-5{fill:#faf1ce;}.cls-6{fill:#f0f7f9;}.cls-7{stroke-miterlimit:10;}.cls-8{fill:#f6e6a7;}.cls-10{fill:#e3ecc1;}.cls-12{fill:#d5a696;}.cls-13{fill:#f4e297;}.cls-14{fill:#f8eec2;}.cls-16{clip-path:url(#clip-path);}.cls-19{fill:#f3e0d8;}.cls-20{fill:#e0eef2;}.cls-21{fill:#d4e9ed;}.cls-22{fill:#efd4c9;}.cls-23{fill:#e0eabb;}.cls-24{fill:#f8ecba;}.cls-25{fill:#f1d9d0;}.cls-26{clip-path:url(#clip-path-2);}.cls-27{clip-path:url(#clip-path-3);}.cls-28{fill:#cae3e9;}.cls-29{fill:#ebf4f7;}.cls-30{fill:#ebd4cd;}.cls-31{fill:#b5d8e1;}.cls-32{fill:#e3b4a1;}.cls-33{fill:#b6d391;stroke:#5e7658;}.cls-34,.cls-35{font-size:14px;font-family:Arial-BoldMT, Arial;font-weight:700;}.cls-35{fill:#5e7658;}</style>
  </defs>
  <use width="55" height="55" transform="matrix(1, 0, 0, 1, 166.52912902832034, 176.28480529785156)" xlink:href="#Neues_Symbol_1"/>
  <path class="cls-19" d="M 200.859 188.395 C 200.859 188.395 204.229 188.245 205.609 190.885 C 206.789 193.155 207.509 199.755 209.819 201.145 C 210.679 201.665 211.819 201.395 212.609 201.575 C 212.609 201.575 210.769 186.055 213.199 175.945 C 215.629 165.835 221.139 151.995 226.889 152.945 C 232.399 153.865 230.209 162.815 233.549 170.875 C 235.549 175.805 244.489 188.875 242.419 201.765 C 240.349 214.655 228.529 225.725 221.019 225.725 C 213.299 225.725 212.399 217.585 209.299 213.115 C 206.889 209.635 200.869 209.735 200.869 209.735" transform="matrix(1, 0, 0, 1, 0, 0)"/>
  <path class="cls-11" d="M 220.259 191.725 C 222.153 191.725 223.336 189.675 222.39 188.035 C 221.95 187.274 221.138 186.805 220.259 186.805" transform="matrix(1, 0, 0, 1, 0, 0)"/>
  <path class="cls-11" d="M 225.229 201.585 C 227.123 201.585 228.306 199.535 227.36 197.895 C 226.92 197.134 226.108 196.665 225.229 196.665" transform="matrix(1, 0, 0, 1, 0, 0)"/>
  <path class="cls-11" d="M 222.769 215.285 C 224.663 215.285 225.846 213.235 224.9 211.595 C 224.46 210.834 223.648 210.365 222.769 210.365" transform="matrix(1, 0, 0, 1, 0, 0)"/>
  <path class="cls-11" d="M 217.799 206.505 C 219.693 206.505 220.876 204.455 219.93 202.815 C 219.49 202.054 218.678 201.585 217.799 201.585" transform="matrix(1, 0, 0, 1, 0, 0)"/>
  <path class="cls-11" d="M 219.639 180.135 C 221.533 180.135 222.716 178.085 221.77 176.445 C 221.33 175.684 220.518 175.215 219.639 175.215" transform="matrix(1, 0, 0, 1, 0, 0)"/>
  <path class="cls-11" d="M 226.029 173.195 C 227.923 173.195 229.106 171.145 228.16 169.505 C 227.72 168.744 226.908 168.275 226.029 168.275" transform="matrix(1, 0, 0, 1, 0, 0)"/>
  <path class="cls-11" d="M 232.729 208.375 C 234.623 208.375 235.806 206.325 234.86 204.685 C 234.42 203.924 233.608 203.455 232.729 203.455" transform="matrix(1, 0, 0, 1, 0, 0)"/>
  <path class="cls-11" d="M 229.529 185.875 C 231.423 185.875 232.606 183.825 231.66 182.185 C 231.22 181.424 230.408 180.955 229.529 180.955" transform="matrix(1, 0, 0, 1, 0, 0)"/>
  <path class="cls-11" d="M 235.189 195.725 C 237.083 195.725 238.266 193.675 237.32 192.035 C 236.88 191.274 236.068 190.805 235.189 190.805" transform="matrix(1, 0, 0, 1, 0, 0)"/>
  <path class="cls-19" d="M 200.769 188.395 C 200.769 188.395 197.399 188.245 196.019 190.885 C 194.839 193.155 194.119 199.755 191.809 201.145 C 190.949 201.665 189.809 201.395 189.019 201.575 C 189.019 201.575 190.859 186.055 188.429 175.945 C 185.999 165.835 180.489 151.995 174.739 152.945 C 169.229 153.865 171.419 162.815 168.079 170.875 C 166.079 175.805 157.139 188.875 159.209 201.765 C 161.279 214.655 173.139 225.765 180.609 225.705 C 188.329 225.705 189.229 217.565 192.329 213.095 C 194.739 209.615 200.759 209.715 200.759 209.715" transform="matrix(1, 0, 0, 1, 0, 0)"/>
  <path class="cls-11" d="M 181.379 191.725 C 179.485 191.725 178.302 189.675 179.249 188.035 C 179.688 187.274 180.5 186.805 181.379 186.805" transform="matrix(1, 0, 0, 1, 0, 0)"/>
  <path class="cls-11" d="M 176.409 201.585 C 174.515 201.585 173.332 199.535 174.279 197.895 C 174.718 197.134 175.53 196.665 176.409 196.665" transform="matrix(1, 0, 0, 1, 0, 0)"/>
  <path class="cls-11" d="M 178.869 215.285 C 176.975 215.285 175.792 213.235 176.739 211.595 C 177.178 210.834 177.99 210.365 178.869 210.365" transform="matrix(1, 0, 0, 1, 0, 0)"/>
  <path class="cls-11" d="M 183.839 206.505 C 181.945 206.505 180.762 204.455 181.709 202.815 C 182.148 202.054 182.96 201.585 183.839 201.585" transform="matrix(1, 0, 0, 1, 0, 0)"/>
  <path class="cls-11" d="M 181.989 180.135 C 180.095 180.135 178.912 178.085 179.859 176.445 C 180.298 175.684 181.11 175.215 181.989 175.215" transform="matrix(1, 0, 0, 1, 0, 0)"/>
  <path class="cls-11" d="M 175.609 173.195 C 173.715 173.195 172.532 171.145 173.479 169.505 C 173.918 168.744 174.73 168.275 175.609 168.275" transform="matrix(1, 0, 0, 1, 0, 0)"/>
  <path class="cls-11" d="M 168.899 208.375 C 167.005 208.375 165.822 206.325 166.769 204.685 C 167.208 203.924 168.02 203.455 168.899 203.455" transform="matrix(1, 0, 0, 1, 0, 0)"/>
  <path class="cls-11" d="M 172.139 185.875 C 170.245 185.875 169.062 183.825 170.009 182.185 C 170.448 181.424 171.26 180.955 172.139 180.955" transform="matrix(1, 0, 0, 1, 0, 0)"/>
  <path class="cls-11" d="M 166.439 195.725 C 164.545 195.725 163.362 193.675 164.309 192.035 C 164.748 191.274 165.56 190.805 166.439 190.805" transform="matrix(1, 0, 0, 1, 0, 0)"/>
  <circle class="cls-33" cx="232.939" cy="229.265" r="3.99" transform="matrix(1, 0, 0, 1, 0, 0)"/>
  <circle class="cls-33" cx="218.359" cy="227.195" r="3.99" transform="matrix(1, 0, 0, 1, 0, 0)"/>
  <circle class="cls-33" cx="226.539" cy="218.055" r="3.99" transform="matrix(1, 0, 0, 1, 0, 0)"/>
  <text class="cls-35" style="white-space: pre; font-size: 14px;" x="184.561" y="236.914" transform="matrix(1, 0, 0, 1, 0, 0)">PTH</text>
</svg>