<?xml version="1.0" encoding="iso-8859-1"?>
<!-- Generator: Adobe Illustrator 19.0.0, SVG Export Plug-In . SVG Version: 6.00 Build 0)  -->
<svg version="1.1" id="Layer_1" xmlns="http://www.w3.org/2000/svg" xmlns:xlink="http://www.w3.org/1999/xlink" x="0px" y="0px"
	 viewBox="0 0 511.999 511.999" style="enable-background:new 0 0 511.999 511.999;" xml:space="preserve">
<polyline style="fill:#D6B31D;" points="272.765,332.647 255.995,279.256 242.337,235.661 213.394,143.248 246.116,160.473 
	246.106,160.473 300.048,332.647 "/>
<path style="fill:#E6E6E6;" d="M31.401,172.714l15.697,50.102c24.875-7.794,39.622-4.321,54.367-0.848l0.008,0.004
	c14.746,3.473,29.492,6.944,54.359-0.854l0.008,0.004c24.876-7.793,35.004-19.059,45.133-30.324
	c6.039-6.714,12.073-13.441,21.234-19.416c6.206-4.055,13.845-7.764,23.899-10.907l0.004-0.008L199.015,10.134l-0.004,0.008
	c-24.884,7.788-35.004,19.059-45.133,30.324c-10.134,11.274-20.258,22.53-45.133,30.324c-24.876,7.793-39.622,4.321-54.368,0.848
	C39.621,68.162,24.876,64.69,0,72.483l15.701,50.116L31.401,172.714z"/>
<g>
	<path style="fill:#49618C;" d="M15.698,122.597l15.698,50.101c24.879-7.786,39.619-4.32,54.369-0.843l-15.698-50.101
		C55.306,118.277,40.576,114.8,15.698,122.597z"/>
	<path style="fill:#49618C;" d="M85.764,171.865l15.698,50.101l0.01,0.01c14.74,3.466,29.49,6.943,54.359-0.854l-15.698-50.101
		c-24.868,7.776-39.619,4.32-54.359,0.833h-0.01C85.764,171.855,85.764,171.865,85.764,171.865z"/>
	<path style="fill:#49618C;" d="M54.369,71.642l15.698,50.112h0.01c14.74,3.477,29.48,6.943,54.359-0.854l-15.698-50.101v-0.01
		C83.87,78.585,69.119,75.109,54.369,71.642z"/>
	<path style="fill:#49618C;" d="M124.436,120.911l15.698,50.112l0.01-0.01c24.868-7.786,34.997-19.049,45.125-30.302v-0.01v-0.01
		l-15.698-50.101c-10.128,11.274-20.267,22.526-45.125,30.323L124.436,120.911L124.436,120.911z"/>
	<path style="fill:#49618C;" d="M153.874,40.466v0.01l15.698,50.101c10.128-11.263,20.257-22.537,45.136-30.333L199.01,10.143
		C174.121,17.929,164.002,29.202,153.874,40.466z"/>
	<path style="fill:#49618C;" d="M185.269,140.699v0.01l15.698,50.091c6.048-6.714,12.075-13.439,21.235-19.414
		c6.204-4.06,13.845-7.766,23.9-10.909l0.01-0.01l-15.698-50.101h-0.01C205.526,118.162,195.408,129.415,185.269,140.699z"/>
</g>
<polyline style="fill:#EDD154;" points="211.952,332.647 265.894,160.473 265.884,160.473 298.616,143.217 269.663,235.661 
	256.005,279.256 239.235,332.647 "/>
<path style="fill:#E6E6E6;" d="M480.599,172.714l-15.697,50.102c-24.875-7.794-39.622-4.321-54.367-0.848l-0.008,0.004
	c-14.746,3.473-29.492,6.944-54.359-0.854l-0.008,0.004c-24.876-7.793-35.004-19.059-45.133-30.324
	c-6.039-6.714-12.073-13.441-21.233-19.416c-6.206-4.055-13.845-7.764-23.899-10.907l-0.004-0.008l47.095-150.333l0.004,0.008
	c24.884,7.788,35.004,19.059,45.133,30.324c10.134,11.274,20.258,22.53,45.133,30.324c24.876,7.793,39.622,4.321,54.368,0.848
	c14.755-3.477,29.501-6.948,54.376,0.844l-15.701,50.116L480.599,172.714z"/>
<g>
	<path style="fill:#49618C;" d="M496.301,122.597l-15.698,50.101c-24.879-7.786-39.619-4.32-54.369-0.843l15.698-50.101
		C456.693,118.277,471.423,114.8,496.301,122.597z"/>
	<path style="fill:#49618C;" d="M426.235,171.865l-15.698,50.101l-0.01,0.01c-14.74,3.466-29.49,6.943-54.359-0.854l15.698-50.101
		c24.868,7.776,39.619,4.32,54.359,0.833h0.01V171.865z"/>
	<path style="fill:#49618C;" d="M457.63,71.642l-15.698,50.112h-0.01c-14.74,3.477-29.48,6.943-54.359-0.854l15.698-50.101v-0.01
		C428.129,78.585,442.88,75.109,457.63,71.642z"/>
	<path style="fill:#49618C;" d="M387.563,120.911l-15.698,50.112l-0.01-0.01c-24.868-7.786-34.997-19.049-45.125-30.302v-0.01v-0.01
		l15.698-50.101c10.129,11.274,20.267,22.526,45.125,30.323L387.563,120.911L387.563,120.911z"/>
	<path style="fill:#49618C;" d="M358.125,40.466v0.01l-15.698,50.101c-10.129-11.263-20.257-22.537-45.136-30.333l15.698-50.101
		C337.878,17.929,347.996,29.202,358.125,40.466z"/>
	<path style="fill:#49618C;" d="M326.73,140.699v0.01L311.032,190.8c-6.048-6.714-12.075-13.439-21.236-19.414
		c-6.204-4.06-13.845-7.766-23.9-10.909l-0.01-0.01l15.698-50.101h0.01C306.473,118.162,316.591,129.415,326.73,140.699z"/>
	<path style="fill:#49618C;" d="M73.487,352.527H42.58c-4.312,0-7.807,3.496-7.807,7.807v78.347c0,4.312,3.496,7.807,7.807,7.807
		s7.807-3.496,7.807-7.807V405.71h18.87c4.312,0,7.807-3.496,7.807-7.807c0-4.312-3.496-7.807-7.807-7.807h-18.87v-21.954h23.1
		c4.312,0,7.807-3.496,7.807-7.807S77.799,352.527,73.487,352.527z"/>
	<path style="fill:#49618C;" d="M125.33,352.527c-4.312,0-7.807,3.496-7.807,7.807v78.347c0,4.312,3.496,7.807,7.807,7.807
		c4.312,0,7.807-3.496,7.807-7.807v-78.348C133.137,356.023,129.642,352.527,125.33,352.527z"/>
	<path style="fill:#49618C;" d="M283.35,352.527c-4.312,0-7.807,3.496-7.807,7.807v78.347c0,4.312,3.496,7.807,7.807,7.807
		c4.312,0,7.807-3.496,7.807-7.807v-78.348C291.157,356.023,287.663,352.527,283.35,352.527z"/>
	<path style="fill:#49618C;" d="M233.823,352.527c-4.312,0-7.807,3.496-7.807,7.807v51.545l-35.481-55.737
		c-1.864-2.928-5.436-4.271-8.769-3.303c-3.332,0.971-5.623,4.024-5.623,7.496v78.347c0,4.312,3.496,7.807,7.807,7.807
		c4.312,0,7.807-3.496,7.807-7.807v-51.545l35.481,55.737c1.459,2.293,3.967,3.616,6.586,3.615c0.726,0,1.46-0.102,2.184-0.312
		c3.332-0.971,5.623-4.024,5.623-7.496v-78.348C241.631,356.023,238.135,352.527,233.823,352.527z"/>
	<path style="fill:#49618C;" d="M469.423,352.527c-4.312,0-7.807,3.496-7.807,7.807v32.31h-34.26v-32.31
		c0-4.312-3.496-7.807-7.807-7.807c-4.312,0-7.807,3.496-7.807,7.807v78.347c0,4.312,3.496,7.807,7.807,7.807
		c4.312,0,7.807-3.496,7.807-7.807v-30.424h34.26v30.424c0,4.312,3.496,7.807,7.807,7.807c4.312,0,7.807-3.496,7.807-7.807v-78.348
		C477.23,356.023,473.734,352.527,469.423,352.527z"/>
	<path style="fill:#49618C;" d="M349.664,368.142h22.018c4.312,0,7.807-3.496,7.807-7.807s-3.496-7.807-7.807-7.807h-22.018
		c-15.105,0-27.394,12.29-27.394,27.394c0,15.104,12.29,27.394,27.394,27.394h2.432c6.496,0,11.779,5.285,11.779,11.779
		s-5.285,11.779-11.779,11.779h-22.018c-4.312,0-7.807,3.496-7.807,7.807c0,4.312,3.496,7.807,7.807,7.807h22.018
		c15.105,0,27.394-12.29,27.394-27.394c0-15.104-12.29-27.394-27.394-27.394h-2.432c-6.496,0-11.779-5.285-11.779-11.779
		C337.885,373.426,343.169,368.142,349.664,368.142z"/>
</g>
<g>
	<path style="fill:#E24260;" d="M427.763,340.454H84.24c-4.312,0-7.807-3.496-7.807-7.807c0-4.312,3.496-7.807,7.807-7.807h343.522
		c4.312,0,7.807,3.496,7.807,7.807C435.57,336.959,432.074,340.454,427.763,340.454z"/>
	<path style="fill:#E24260;" d="M427.763,474.177H84.24c-4.312,0-7.807-3.496-7.807-7.807c0-4.312,3.496-7.807,7.807-7.807h343.522
		c4.312,0,7.807,3.496,7.807,7.807C435.57,470.682,432.074,474.177,427.763,474.177z"/>
	<path style="fill:#E24260;" d="M386.125,501.865H125.879c-4.312,0-7.807-3.496-7.807-7.807c0-4.312,3.496-7.807,7.807-7.807
		h260.246c4.312,0,7.807,3.496,7.807,7.807C393.932,498.369,390.436,501.865,386.125,501.865z"/>
</g>
<g>
</g>
<g>
</g>
<g>
</g>
<g>
</g>
<g>
</g>
<g>
</g>
<g>
</g>
<g>
</g>
<g>
</g>
<g>
</g>
<g>
</g>
<g>
</g>
<g>
</g>
<g>
</g>
<g>
</g>
</svg>
