<?xml version="1.0" encoding="utf-8"?>
<svg viewBox="-201.41 0 761.41 649.087" xmlns="http://www.w3.org/2000/svg" xmlns:xlink="http://www.w3.org/1999/xlink" xmlns:bx="https://boxy-svg.com">
  <defs>
    <style>.cls-1{fill:#c4d262;stroke:#798728;}.cls-1,.cls-16,.cls-17,.cls-19,.cls-20,.cls-21,.cls-9{stroke-miterlimit:10;}.cls-2{fill:#fdeabf;}.cls-3{fill:#f0d2ca;}.cls-16,.cls-17,.cls-19,.cls-3,.cls-4,.cls-5,.cls-9{stroke:#c34a29;}.cls-10,.cls-11,.cls-12,.cls-13,.cls-3,.cls-4,.cls-5{stroke-linecap:round;stroke-linejoin:round;}.cls-3,.cls-4,.cls-5{stroke-width:1.5px;}.cls-4{fill:#8fd5de;}.cls-5{fill:#f5ab96;}.cls-6{fill:#ff4c00;}.cls-7{fill:#fff;}.cls-17,.cls-19,.cls-20,.cls-21,.cls-23,.cls-8{fill:none;}.cls-9{fill:#f7e6e1;}.cls-10{fill:#d393cd;stroke:#a96193;}.cls-11{fill:#86d2dc;}.cls-11,.cls-12{stroke:#39858e;}.cls-12{fill:#92d6df;}.cls-13{fill:#f2987f;stroke:#d55a51;}.cls-14{isolation:isolate;}.cls-15,.cls-16{fill:#f9ccbf;}.cls-18{fill:#fbf2f0;}.cls-19{stroke-width:4px;}.cls-20{stroke:#f1d3cc;stroke-width:2px;}.cls-21{stroke:#1a4554;}.cls-22,.cls-23,.cls-24,.cls-25,.cls-26{font-size:20px;}.cls-22,.cls-24,.cls-25,.cls-26,.cls-28{fill:#1a4554;}.cls-22,.cls-23,.cls-25,.cls-26{font-family:Arial-BoldMT, Arial;font-weight:700;}.cls-23{stroke:#fff;stroke-width:3px;}.cls-24{font-family:ArialMT, Arial;}.cls-25{letter-spacing:0.03em;}.cls-26{letter-spacing:0.03em;}.cls-27{letter-spacing:0em;}.cls-29{letter-spacing:-0.07em;}.cls-30{mix-blend-mode:multiply;}</style>
    <symbol id="Rahmen" data-name="Rahmen" viewBox="0 0 560 500">
      <rect class="cls-7" width="560" height="500"/>
    </symbol>
    <symbol id="Neues_Symbol_5-2" data-name="Neues Symbol 5" viewBox="0 0 32.65 36.9">
      <rect class="cls-9" x="0.5" y="0.5" width="13.11" height="35.9" rx="6.56" ry="6.56"/>
      <rect class="cls-9" x="19.04" y="0.5" width="13.11" height="35.9" rx="6.56" ry="6.56"/>
    </symbol>
    <symbol id="Kidney_klein" data-name="Kidney klein" viewBox="0 0 60 61.09">
      <circle class="cls-2" cx="30" cy="31.09" r="30"/>
      <path class="cls-3" d="M49.31,28.79c0,19.64-14.55,30.43-25.66,22.25-9.44-6.95-1-16.21-1-16.21A10.46,10.46,0,0,1,20.8,31.3a9.53,9.53,0,0,1-.35-1.69c0-.19,0-.4,0-.61s0-.49,0-.72a6.55,6.55,0,0,1,.37-1.69,7,7,0,0,1,2-2.91,9.85,9.85,0,0,1-8.55-7.09C12.23,10.8,15.42.12,28.39.78,42.34,1.49,49.31,19.09,49.31,28.79Z"/>
      <path class="cls-4" d="M20.41,29c0,.21,0,.42,0,.61h-.09a10.72,10.72,0,0,1-3.87-.81,10,10,0,0,1-5.76-6.62,1.54,1.54,0,0,1,3-.69,6.89,6.89,0,0,0,6.73,5.05,1.88,1.88,0,0,1,.33.05,6.55,6.55,0,0,0-.37,1.69C20.41,28.51,20.41,28.75,20.41,29Z"/>
      <path class="cls-5" d="M20.8,31.3l-.18,0-3.7.51a3.65,3.65,0,0,0-3.16,3.61V58.28a1.54,1.54,0,1,1-3.07,0V35.46a6.76,6.76,0,0,1,5.8-6.66h0l3.7-.51h.22c0,.23,0,.47,0,.72s0,.42,0,.61A9.53,9.53,0,0,0,20.8,31.3Z"/>
    </symbol>
    <symbol id="Minus" data-name="Minus" viewBox="0 0 16 16">
      <circle class="cls-6" cx="8" cy="8" r="8"/>
      <path class="cls-7" d="M3.5,9.15V6.85h9v2.3Z"/>
    </symbol>
    <symbol id="PTH_kugel-2" data-name="PTH kugel" viewBox="0 0 10 10">
      <circle class="cls-12" cx="5" cy="5" r="4.5"/>
    </symbol>
    <symbol id="PTH_Rezeptor_klein" data-name="PTH Rezeptor klein" viewBox="0 0 16.09 31.05">
      <g id="Neues_Symbol_3" data-name="Neues Symbol 3">
        <path class="cls-11" d="M15.59,30.5l-15,.05L.5.55,15.5.5l0,10a5,5,0,1,0,0,10v0Z"/>
      </g>
    </symbol>
    <symbol id="PTHp_2" data-name="PTHp? 2" viewBox="0 0 15 26">
      <polygon class="cls-13" points="14.5 14.5 0.5 14.5 7.5 0.5 14.5 14.5"/>
      <line class="cls-13" x1="7.5" y1="25.5" x2="7.5" y2="14.5"/>
    </symbol>
    <symbol id="FGF" data-name="FGF" viewBox="0 0 10 10">
      <circle class="cls-1" cx="5" cy="5" r="4.5"/>
    </symbol>
    <symbol id="FGF_Rezeptor" data-name="FGF Rezeptor" viewBox="0 0 22.42 25.05">
      <g id="Neues_Symbol_3-2" data-name="Neues Symbol 3">
        <path class="cls-1" d="M21.92,24.5.59,24.55.5.55,21.83.5l0,7a5,5,0,1,0,0,10v0Z"/>
      </g>
    </symbol>
    <symbol id="Neues_Symbol_2-2" data-name="Neues Symbol 2" viewBox="0 0 560 500">
      <g id="Kidney_klein-5" data-name="Kidney klein">
        <circle class="cls-8" cx="50" cy="50" r="30"/>
      </g>
      <rect class="cls-8" width="560" height="500"/>
    </symbol>
    <symbol id="PO4" data-name="PO4" viewBox="0 0 10 10">
      <circle class="cls-10" cx="5" cy="5" r="4.5"/>
    </symbol>
    <symbol id="Kidey_zoom" data-name="Kidey zoom" viewBox="0 0 161.72 202.21">
      <path class="cls-3" d="M160,27.07l-.05.18-1.39,5.16L145.36,81.15,144.05,86l-1.38,5.1-1.31,4.85L139,104.69l-24.83,91.79H51.65L24.37,103.66,21.83,95l-1.41-4.8-1.48-5-1.41-4.8L3.3,32l-1.48-5L7.06,15.8a195.5,195.5,0,0,1,147.82.42Z" style="fill: none; stroke: rgb(174, 85, 54); stroke-width: 3px; stroke-linecap: round; stroke-linejoin: round;"/>
      <path class="cls-3" d="M159.94,27.24l-1.39,5.16L145.36,81.14,144.05,86l-1.38,5.1-1.31,4.85L139,104.68l-24.83,91.79H51.65L24.37,103.65,21.83,95l-1.41-4.8-1.48-5-1.41-4.8L3.3,32,1.8,26.84a187.39,187.39,0,0,1,158.14.4Z" style="fill: none; stroke: rgb(174, 85, 54); stroke-width: 3px; stroke-linecap: round; stroke-linejoin: round;"/>
      <path class="cls-3" d="M158.55,32.4,145.36,81.14,144.05,86l-1.38,5.1-1.31,4.85L139,104.68l-24.83,91.79H51.65L24.37,103.65,21.83,95l-1.41-4.8-1.48-5-1.41-4.8L3.3,32a182.1,182.1,0,0,1,155.25.45Z" style="fill: none; stroke: rgb(174, 85, 54); stroke-width: 3px; stroke-linecap: round; stroke-linejoin: round;"/>
      <path class="cls-3" d="M139,104.68l-24.83,91.79L113,200.71H52.9l-1.25-4.24L24.37,103.65a142.49,142.49,0,0,1,19.34-6.31q1.44-.37,2.91-.69,5.49-1.27,11.16-2.12c1.18-.17,2.37-.34,3.57-.48,2.72-.35,5.48-.62,8.25-.81,1.1-.08,2.2-.14,3.3-.19,2.5-.13,5-.19,7.55-.19a151.16,151.16,0,0,1,17.8,1q2.7.3,5.35.71A144.88,144.88,0,0,1,139,104.68Z" style="fill: none; stroke: rgb(174, 85, 54); stroke-width: 3px; stroke-linecap: round; stroke-linejoin: round;"/>
      <path class="cls-3" d="M145.37,81.15,144.06,86a160.4,160.4,0,0,0-18-6c-1-.27-1.93-.52-2.91-.76a165,165,0,0,0-19.51-3.68c-1.46-.2-2.93-.37-4.4-.54-1-.1-2.1-.2-3.15-.28-1.35-.12-2.71-.23-4.07-.31q-5.73-.37-11.54-.37h-.92c-1.08,0-2.17,0-3.25,0a171.1,171.1,0,0,0-20.36,1.63c-1.16.14-2.32.32-3.47.51a166.78,166.78,0,0,0-33.51,8.89l-1.41-4.79c3.55-1.35,7.17-2.59,10.84-3.69L19.47,43.9a1.5,1.5,0,0,1,2.89-.79l2.53,9.29c.7-3.26,2.16-7.7,5.09-9.88a6.66,6.66,0,0,1,5.64-1.14c1.64.36,2.46.8,2.81,1.51.43.89,0,1.81-.61,3.09a20,20,0,0,0-1.39,3.58c-.42,1.54-.05,4.21,1.71,5a.76.76,0,0,1,.38,1,.75.75,0,0,1-1,.38c-2.66-1.18-3.09-4.73-2.55-6.75a22.48,22.48,0,0,1,1.48-3.84c.35-.72.74-1.54.62-1.78,0-.08-.29-.38-1.78-.71a5.21,5.21,0,0,0-4.43.88c-3.7,2.75-4.79,10.13-5,12.18l5.42,19.94a169.25,169.25,0,0,1,17.21-4h0c1.35-.24,2.71-.48,4.08-.68a181.68,181.68,0,0,1,21.89-2c1.14,0,2.28-.07,3.43-.08h2.58c2.6,0,5.2,0,7.78.17,1.36,0,2.72.11,4.07.21q3.48.21,6.92.57c1.47.14,2.94.31,4.39.51a172.37,172.37,0,0,1,20.57,3.85c1,.22,2,.47,2.92.75,2.48.65,4.94,1.37,7.37,2.14L142.33,45a1.5,1.5,0,0,1,2.92.7l-7.91,32.48C140,79.13,142.73,80.09,145.37,81.15Z" style="fill: none; stroke: rgb(174, 85, 54); stroke-width: 3px; stroke-linecap: round; stroke-linejoin: round;"/>
      <path class="cls-3" d="M142.67,91.08l-1.31,4.85A157,157,0,0,0,103.6,85.79q-2.73-.39-5.49-.67a165.66,165.66,0,0,0-17.66-.94c-1.66,0-3.31,0-5,.07s-3.17.12-4.74.21q-5.84.35-11.52,1.08c-1.13.14-2.25.29-3.36.47q-5.66.82-11.15,2.06l1.89,8.58L56,139.06a1.48,1.48,0,0,1-1.14,1.78,1.17,1.17,0,0,1-.32,0,1.49,1.49,0,0,1-1.46-1.18L43.71,97.34l-1.9-8.6a153.87,153.87,0,0,0-20,6.28l-1.41-4.8a161.25,161.25,0,0,1,34.11-9.07c1.08-.17,2.17-.33,3.26-.47,2-.26,3.91-.49,5.89-.67,1.07-.12,2.15-.22,3.24-.29,4.45-.36,9-.54,13.53-.54q8,0,15.7.72c2.51.22,5,.51,7.46.85A163.93,163.93,0,0,1,122,84.32l1.11-5.07,1.06-4.87,1.88-8.57a1.5,1.5,0,0,1,2.94.64l-1.9,8.68L126,80l-1.12,5.08A160.31,160.31,0,0,1,142.67,91.08Z" style="fill: none; stroke: rgb(174, 85, 54); stroke-width: 3px; stroke-linecap: round; stroke-linejoin: round;"/>
      <path class="cls-3" d="M112,143.41l-1.18-3.25a25.31,25.31,0,0,0-6.49,4c-.67.51-.69-1.84-.69-1.84-.08-42.23,0-50.53,0-105.81a7.27,7.27,0,0,1,6.67-7.17l.27-.05L110,26.17A11,11,0,0,0,102.7,30a2.55,2.55,0,0,1-1.43.88,1.89,1.89,0,0,1-1.31-.72,10.4,10.4,0,0,0-6.43-4L93,29.35h0A7.52,7.52,0,0,1,96.1,30.8,7.9,7.9,0,0,1,99,36.63v0c.09,3.54.34,39.63.15,41.89a21.68,21.68,0,0,0-2.68-3.21c-.64-.94-2.17-3-4-5.61-3.07-4.44-6.52-10-11.06-12.1-1.93-1.34-8.17-1.34-8.28,5.12A21.45,21.45,0,0,0,75,70.62c.77,1.76,1.56,3.57,1.23,4.46s-1.61.84-4.53.28C69,74.83,64.78,74,63.81,78a4.42,4.42,0,0,0,.38,3.46c1,1.65,3,2.11,4.89,2.55,2.74.64,3.59,1,3.62,2.3A4.18,4.18,0,0,1,71.51,89a7.5,7.5,0,0,0-1.82,6.18c.45,2.75,2.36,3.79,3.89,4.63,1.76,1,3.16,1.73,3.22,5.14l.85,42.9a1.6,1.6,0,0,0,.38,1l.58.06c.48,9.81,2.91,37.72,2.91,39.74,0,2.81-1.4,4.84-2.69,5.11-1.14.23-2.36-.89-3.32-3.09C73.43,185.92,67,150,63.2,110.18c.45-.28.78-.89.78-2.08.23-.44-4.85-28.57-9.35-34.59a26.62,26.62,0,0,0-4.25-4.24c-2.48-1.84-3.86-3-3.36-5.26a2.6,2.6,0,0,1,1.7-2.13c1.27-.31,3,.75,4.76,2.9,2.16,2.64,5,4.06,7.77,3.88a5.53,5.53,0,0,0,4.42-2.34c2-3.24.28-5.9-.89-7.66s-1.44-2.41-1-3.25c.62-1.08,1.79-1,4.78-.11,2.08.6,4.24,1.22,5.95.16a4.17,4.17,0,0,0,1.81-3c.63-3.52-1.84-4.91-3.64-5.92C71.32,45.78,70,45,69.4,43.4s-.29-3.63,0-5.62c.35-2.54.67-4.94-.73-6.65A4.86,4.86,0,0,0,65,29.51c-4.23-.27-4.92,4.15-5.42,7.37-.72,4.6-1.38,6.76-4.34,6.72a5.35,5.35,0,0,1-3-1.29A14.6,14.6,0,0,0,50.23,41a8.35,8.35,0,0,0-3.38-.88A7.09,7.09,0,0,0,40,44.85a1,1,0,0,0,.58,1.28c.51.19.84-.27,1.09-.73a5.74,5.74,0,0,1,5.18-3.26,5.89,5.89,0,0,1,4.49,3.35,6.07,6.07,0,0,1-.25,4.56,5.54,5.54,0,0,1-2.71,2.66c-2.1.94-3.92-.4-5.15-1.45-.42-.36-1.15-.93-1.58-.59a1,1,0,0,0-.17,1.39c1.56,2,5.19,3.59,7.91,2.72a6.54,6.54,0,0,0,4.16-4.08c.53-1.47,1.11-3.69,2.72-3.92,5.14-.57,6-5.84,6.52-9.4.59-3.8,1-4.71,2-4.65a2,2,0,0,1,1.33.44c.51.62.25,2.51,0,4.17-.31,2.27-.66,4.85.19,7.17,1,2.75,3.18,4,4.77,4.87,1.89,1.07,2.25,1.38,2,2.54-.09.49-.23.74-.33.8-.49.31-2.21-.19-3.34-.52-2.59-.75-6.5-1.87-8.49,1.61-1.54,2.69,0,5,1.07,6.63,1.29,1.95,1.7,2.81.85,4.16a2.43,2.43,0,0,1-1.88.84A6.36,6.36,0,0,1,56,62.73c-3.52-4.3-6.53-4.35-8-4a5.77,5.77,0,0,0-4.1,4.58c-1,4.42,2.12,6.71,4.59,8.55a13.89,13.89,0,0,1,2.74,2.44c3.44,4.54,4.69,11.65,6.34,19,1.91,8.51,2.69,16.42,3.49,16.7a3.54,3.54,0,0,0,.4.17c1.65,17.39,9.89,75.3,12.44,81.16,1.55,3.56,3.49,4.19,4.67,4.19a3.19,3.19,0,0,0,.65-.07c2.35-.49,4.11-3.44,4.11-6.86,0-2.08-2.38-29.18-2.9-39.71a1.59,1.59,0,0,0,.49-1.17L80,104.86c-.1-5.28-2.88-6.8-4.9-7.91-1.42-.78-2.06-1.17-2.25-2.32-.28-1.69.36-2.55,1.24-3.74a7.22,7.22,0,0,0,1.82-4.64c-.08-4-3.71-4.82-6.12-5.38-1.14-.27-2.56-.6-2.87-1.1a1.59,1.59,0,0,1,0-1c.18-.74.83-.89,4.16-.25,2.88.56,6.83,1.32,8.17-2.34.78-2.11-.23-4.42-1.3-6.87s-1.75-4.24-1.66-5.88c0,0-.38-2.26,2.59-2.78C82.59,60,89.27,71.05,94.6,78h0l0,0c.56.73,1.11,1.41,1.64,2v0a14.28,14.28,0,0,1,1.25,2.1,20.13,20.13,0,0,1,.73,5h0V119s0,1.09-.59.46a13.48,13.48,0,0,0-6.73-3.85L90.1,119c5.19,1.25,8.15,6,8.15,9.62l-.91,72h6.19l.13-47.4C103.67,150.16,106.51,145.37,112,143.41Z" style="fill: none; stroke: rgb(174, 85, 54); stroke-width: 3px; stroke-linecap: round; stroke-linejoin: round;"/>
      <ellipse class="cls-3" cx="90.54" cy="117.33" rx="1.73" ry="1.04" transform="translate(-44.4 178.61) rotate(-76.77)" style="fill: none; stroke: rgb(174, 85, 54); stroke-width: 3px; stroke-linecap: round; stroke-linejoin: round;"/>
      <ellipse class="cls-3" cx="93.26" cy="27.76" rx="1.61" ry="0.97" transform="translate(51.96 115.87) rotate(-81.46)" style="fill: none; stroke: rgb(174, 85, 54); stroke-width: 3px; stroke-linecap: round; stroke-linejoin: round;"/>
      <ellipse class="cls-3" cx="111.53" cy="141.75" rx="1.04" ry="1.73" transform="translate(-42.91 48.58) rotate(-20.7)" style="fill: none; stroke: rgb(174, 85, 54); stroke-width: 3px; stroke-linecap: round; stroke-linejoin: round;"/>
      <ellipse class="cls-3" cx="110.27" cy="27.76" rx="0.96" ry="1.6" transform="translate(-2.5 13.19) rotate(-6.77)" style="fill: none; stroke: rgb(174, 85, 54); stroke-width: 3px; stroke-linecap: round; stroke-linejoin: round;"/>
      <path class="cls-3" d="M41.83,48.7h0l-.23,0h.27Z" style="fill: none; stroke: rgb(174, 85, 54); stroke-width: 3px; stroke-linecap: round; stroke-linejoin: round;"/>
      <path class="cls-3" d="M50.42,47.53a.93.93,0,0,0,0-.13c0-.63-.53-.91-.89-1.09a1.37,1.37,0,0,1-.36-.23l0,0A.86.86,0,0,0,49,45h0l-.09,0a1,1,0,0,0,0-.15,1,1,0,0,0-.27-.33,1.24,1.24,0,0,0-.78-.21v0a1.18,1.18,0,0,0-.17-.72.88.88,0,0,0-.22-.25.85.85,0,0,0-.56-.19,1.19,1.19,0,0,0-1,.58h0a1.24,1.24,0,0,0-.79.65.73.73,0,0,0,0,.07,1.61,1.61,0,0,0-.39-.15,1.75,1.75,0,0,0-1.71.83,9.49,9.49,0,0,1-.71.89,3.19,3.19,0,0,1-2.46.94,1.38,1.38,0,0,1-1.09-.78c-.26-.56-.16-2,1.24-3.38a3.37,3.37,0,0,0,1-2.48,4.08,4.08,0,0,0-1.3-2.87l-1,1a2.71,2.71,0,0,1,.85,1.86,2,2,0,0,1-.59,1.46c-1.8,1.82-2,3.85-1.52,5a2.81,2.81,0,0,0,2.06,1.56,3.52,3.52,0,0,0,3.18-.86l.12-.1a5.47,5.47,0,0,0,.09.94.68.68,0,0,0,.05.12,3.17,3.17,0,0,1-1.11.33l-.23,0a5.57,5.57,0,0,0-.85.16,4.34,4.34,0,0,0-2.06,1.25A2.75,2.75,0,0,0,38.18,53a6.26,6.26,0,0,0,1.54,2.4c.91.94,1.47,1.51.71,2.92l1.25.67c1.24-2.33,0-3.57-.94-4.58a3.9,3.9,0,0,1-1.17-1.73,1.92,1.92,0,0,1,.19-1.58A3,3,0,0,1,41.89,50v0A.44.44,0,0,1,42,50h.3A4,4,0,0,1,43,50a2.14,2.14,0,0,1,1.43,1,3.08,3.08,0,0,0,.9.92,1.67,1.67,0,0,0,2.1-.1,1.61,1.61,0,0,0,.33-.46,1.53,1.53,0,0,0,.56-.2A1.27,1.27,0,0,0,49,50c0-.5-.26-.69.4-.69a1.11,1.11,0,0,0,1.19-1.13A1.54,1.54,0,0,0,50.42,47.53Z" style="fill: none; stroke: rgb(174, 85, 54); stroke-width: 3px; stroke-linecap: round; stroke-linejoin: round;"/>
      <path class="cls-4" d="M160,27.07l-.05.18-1.39,5.16L145.36,81.15,144.05,86l-1.38,5.1-1.31,4.85L139,104.69l-24.83,91.79H51.65L24.37,103.66,21.83,95l-1.41-4.8-1.48-5-1.41-4.8L3.3,32l-1.48-5L7.06,15.8a195.5,195.5,0,0,1,147.82.42Z" style="fill: rgb(194, 127, 104); stroke: rgb(174, 85, 54); stroke-miterlimit: 10; stroke-width: 0.5px; stroke-linecap: round; stroke-linejoin: round;"/>
      <path class="cls-5" d="M159.94,27.24l-1.39,5.16L145.36,81.14,144.05,86l-1.38,5.1-1.31,4.85L139,104.68l-24.83,91.79H51.65L24.37,103.65,21.83,95l-1.41-4.8-1.48-5-1.41-4.8L3.3,32,1.8,26.84a187.39,187.39,0,0,1,158.14.4Z" style="fill: rgb(219, 180, 167); stroke: rgb(174, 85, 54); stroke-miterlimit: 10; stroke-width: 0.5px; stroke-linecap: round; stroke-linejoin: round;"/>
      <path class="cls-6" d="M158.55,32.4,145.36,81.14,144.05,86l-1.38,5.1-1.31,4.85L139,104.68l-24.83,91.79H51.65L24.37,103.65,21.83,95l-1.41-4.8-1.48-5-1.41-4.8L3.3,32a182.1,182.1,0,0,1,155.25.45Z" style="fill: rgb(244, 231, 227); stroke: rgb(174, 85, 54); stroke-miterlimit: 10; stroke-width: 0.5px;"/>
      <path class="cls-7" d="M139,104.68l-24.83,91.79L113,200.71H52.9l-1.25-4.24L24.37,103.65a142.49,142.49,0,0,1,19.34-6.31q1.44-.37,2.91-.69,5.49-1.27,11.16-2.12c1.18-.17,2.37-.34,3.57-.48,2.72-.35,5.48-.62,8.25-.81,1.1-.08,2.2-.14,3.3-.19,2.5-.13,5-.19,7.55-.19a151.16,151.16,0,0,1,17.8,1q2.7.3,5.35.71A144.88,144.88,0,0,1,139,104.68Z" style="fill: rgb(228, 199, 189); stroke: rgb(174, 85, 54); stroke-miterlimit: 10; stroke-width: 0.5px;"/>
      <path class="cls-8" d="M145.37,81.15,144.06,86a160.4,160.4,0,0,0-18-6c-1-.27-1.93-.52-2.91-.76a165,165,0,0,0-19.51-3.68c-1.46-.2-2.93-.37-4.4-.54-1-.1-2.1-.2-3.15-.28-1.35-.12-2.71-.23-4.07-.31q-5.73-.37-11.54-.37h-.92c-1.08,0-2.17,0-3.25,0a171.1,171.1,0,0,0-20.36,1.63c-1.16.14-2.32.32-3.47.51a166.78,166.78,0,0,0-33.51,8.89l-1.41-4.79c3.55-1.35,7.17-2.59,10.84-3.69L19.47,43.9a1.5,1.5,0,0,1,2.89-.79l2.53,9.29c.7-3.26,2.16-7.7,5.09-9.88a6.66,6.66,0,0,1,5.64-1.14c1.64.36,2.46.8,2.81,1.51.43.89,0,1.81-.61,3.09a20,20,0,0,0-1.39,3.58c-.42,1.54-.05,4.21,1.71,5a.76.76,0,0,1,.38,1,.75.75,0,0,1-1,.38c-2.66-1.18-3.09-4.73-2.55-6.75a22.48,22.48,0,0,1,1.48-3.84c.35-.72.74-1.54.62-1.78,0-.08-.29-.38-1.78-.71a5.21,5.21,0,0,0-4.43.88c-3.7,2.75-4.79,10.13-5,12.18l5.42,19.94a169.25,169.25,0,0,1,17.21-4h0c1.35-.24,2.71-.48,4.08-.68a181.68,181.68,0,0,1,21.89-2c1.14,0,2.28-.07,3.43-.08h2.58c2.6,0,5.2,0,7.78.17,1.36,0,2.72.11,4.07.21q3.48.21,6.92.57c1.47.14,2.94.31,4.39.51a172.37,172.37,0,0,1,20.57,3.85c1,.22,2,.47,2.92.75,2.48.65,4.94,1.37,7.37,2.14L142.33,45a1.5,1.5,0,0,1,2.92.7l-7.91,32.48C140,79.13,142.73,80.09,145.37,81.15Z" style="fill: rgb(227, 180, 161); stroke: rgb(174, 85, 54); stroke-miterlimit: 10; stroke-width: 0.5px;"/>
      <path class="cls-9" d="M142.67,91.08l-1.31,4.85A157,157,0,0,0,103.6,85.79q-2.73-.39-5.49-.67a165.66,165.66,0,0,0-17.66-.94c-1.66,0-3.31,0-5,.07s-3.17.12-4.74.21q-5.84.35-11.52,1.08c-1.13.14-2.25.29-3.36.47q-5.66.82-11.15,2.06l1.89,8.58L56,139.06a1.48,1.48,0,0,1-1.14,1.78,1.17,1.17,0,0,1-.32,0,1.49,1.49,0,0,1-1.46-1.18L43.71,97.34l-1.9-8.6a153.87,153.87,0,0,0-20,6.28l-1.41-4.8a161.25,161.25,0,0,1,34.11-9.07c1.08-.17,2.17-.33,3.26-.47,2-.26,3.91-.49,5.89-.67,1.07-.12,2.15-.22,3.24-.29,4.45-.36,9-.54,13.53-.54q8,0,15.7.72c2.51.22,5,.51,7.46.85A163.93,163.93,0,0,1,122,84.32l1.11-5.07,1.06-4.87,1.88-8.57a1.5,1.5,0,0,1,2.94.64l-1.9,8.68L126,80l-1.12,5.08A160.31,160.31,0,0,1,142.67,91.08Z" style="fill: rgb(181, 216, 225); stroke: rgb(174, 85, 54); stroke-miterlimit: 10; stroke-width: 0.5px;"/>
      <path class="cls-10" d="M112,143.41l-1.18-3.25a25.31,25.31,0,0,0-6.49,4c-.67.51-.69-1.84-.69-1.84-.08-42.23,0-50.53,0-105.81a7.27,7.27,0,0,1,6.67-7.17l.27-.05L110,26.17A11,11,0,0,0,102.7,30a2.55,2.55,0,0,1-1.43.88,1.89,1.89,0,0,1-1.31-.72,10.4,10.4,0,0,0-6.43-4L93,29.35h0A7.52,7.52,0,0,1,96.1,30.8,7.9,7.9,0,0,1,99,36.63v0c.09,3.54.34,39.63.15,41.89a21.68,21.68,0,0,0-2.68-3.21c-.64-.94-2.17-3-4-5.61-3.07-4.44-6.52-10-11.06-12.1-1.93-1.34-8.17-1.34-8.28,5.12A21.45,21.45,0,0,0,75,70.62c.77,1.76,1.56,3.57,1.23,4.46s-1.61.84-4.53.28C69,74.83,64.78,74,63.81,78a4.42,4.42,0,0,0,.38,3.46c1,1.65,3,2.11,4.89,2.55,2.74.64,3.59,1,3.62,2.3A4.18,4.18,0,0,1,71.51,89a7.5,7.5,0,0,0-1.82,6.18c.45,2.75,2.36,3.79,3.89,4.63,1.76,1,3.16,1.73,3.22,5.14l.85,42.9a1.6,1.6,0,0,0,.38,1l.58.06c.48,9.81,2.91,37.72,2.91,39.74,0,2.81-1.4,4.84-2.69,5.11-1.14.23-2.36-.89-3.32-3.09C73.43,185.92,67,150,63.2,110.18c.45-.28.78-.89.78-2.08.23-.44-4.85-28.57-9.35-34.59a26.62,26.62,0,0,0-4.25-4.24c-2.48-1.84-3.86-3-3.36-5.26a2.6,2.6,0,0,1,1.7-2.13c1.27-.31,3,.75,4.76,2.9,2.16,2.64,5,4.06,7.77,3.88a5.53,5.53,0,0,0,4.42-2.34c2-3.24.28-5.9-.89-7.66s-1.44-2.41-1-3.25c.62-1.08,1.79-1,4.78-.11,2.08.6,4.24,1.22,5.95.16a4.17,4.17,0,0,0,1.81-3c.63-3.52-1.84-4.91-3.64-5.92C71.32,45.78,70,45,69.4,43.4s-.29-3.63,0-5.62c.35-2.54.67-4.94-.73-6.65A4.86,4.86,0,0,0,65,29.51c-4.23-.27-4.92,4.15-5.42,7.37-.72,4.6-1.38,6.76-4.34,6.72a5.35,5.35,0,0,1-3-1.29A14.6,14.6,0,0,0,50.23,41a8.35,8.35,0,0,0-3.38-.88A7.09,7.09,0,0,0,40,44.85a1,1,0,0,0,.58,1.28c.51.19.84-.27,1.09-.73a5.74,5.74,0,0,1,5.18-3.26,5.89,5.89,0,0,1,4.49,3.35,6.07,6.07,0,0,1-.25,4.56,5.54,5.54,0,0,1-2.71,2.66c-2.1.94-3.92-.4-5.15-1.45-.42-.36-1.15-.93-1.58-.59a1,1,0,0,0-.17,1.39c1.56,2,5.19,3.59,7.91,2.72a6.54,6.54,0,0,0,4.16-4.08c.53-1.47,1.11-3.69,2.72-3.92,5.14-.57,6-5.84,6.52-9.4.59-3.8,1-4.71,2-4.65a2,2,0,0,1,1.33.44c.51.62.25,2.51,0,4.17-.31,2.27-.66,4.85.19,7.17,1,2.75,3.18,4,4.77,4.87,1.89,1.07,2.25,1.38,2,2.54-.09.49-.23.74-.33.8-.49.31-2.21-.19-3.34-.52-2.59-.75-6.5-1.87-8.49,1.61-1.54,2.69,0,5,1.07,6.63,1.29,1.95,1.7,2.81.85,4.16a2.43,2.43,0,0,1-1.88.84A6.36,6.36,0,0,1,56,62.73c-3.52-4.3-6.53-4.35-8-4a5.77,5.77,0,0,0-4.1,4.58c-1,4.42,2.12,6.71,4.59,8.55a13.89,13.89,0,0,1,2.74,2.44c3.44,4.54,4.69,11.65,6.34,19,1.91,8.51,2.69,16.42,3.49,16.7a3.54,3.54,0,0,0,.4.17c1.65,17.39,9.89,75.3,12.44,81.16,1.55,3.56,3.49,4.19,4.67,4.19a3.19,3.19,0,0,0,.65-.07c2.35-.49,4.11-3.44,4.11-6.86,0-2.08-2.38-29.18-2.9-39.71a1.59,1.59,0,0,0,.49-1.17L80,104.86c-.1-5.28-2.88-6.8-4.9-7.91-1.42-.78-2.06-1.17-2.25-2.32-.28-1.69.36-2.55,1.24-3.74a7.22,7.22,0,0,0,1.82-4.64c-.08-4-3.71-4.82-6.12-5.38-1.14-.27-2.56-.6-2.87-1.1a1.59,1.59,0,0,1,0-1c.18-.74.83-.89,4.16-.25,2.88.56,6.83,1.32,8.17-2.34.78-2.11-.23-4.42-1.3-6.87s-1.75-4.24-1.66-5.88c0,0-.38-2.26,2.59-2.78C82.59,60,89.27,71.05,94.6,78h0l0,0c.56.73,1.11,1.41,1.64,2v0a14.28,14.28,0,0,1,1.25,2.1,20.13,20.13,0,0,1,.73,5h0V119s0,1.09-.59.46a13.48,13.48,0,0,0-6.73-3.85L90.1,119c5.19,1.25,8.15,6,8.15,9.62l-.91,72h6.19l.13-47.4C103.67,150.16,106.51,145.37,112,143.41Z" style="fill: rgb(246, 230, 167); stroke: rgb(174, 85, 54); stroke-miterlimit: 10; stroke-width: 0.5px; stroke-linecap: round; stroke-linejoin: round;"/>
      <ellipse class="cls-11" cx="90.54" cy="117.33" rx="1.73" ry="1.04" transform="translate(-44.4 178.61) rotate(-76.77)" style="fill: rgb(234, 200, 59); stroke: rgb(174, 85, 54); stroke-miterlimit: 10; stroke-width: 0.5px; stroke-linecap: round; stroke-linejoin: round;"/>
      <ellipse class="cls-11" cx="93.26" cy="27.76" rx="1.61" ry="0.97" transform="translate(51.96 115.87) rotate(-81.46)" style="fill: rgb(234, 200, 59); stroke: rgb(174, 85, 54); stroke-miterlimit: 10; stroke-width: 0.5px; stroke-linecap: round; stroke-linejoin: round;"/>
      <ellipse class="cls-11" cx="111.53" cy="141.75" rx="1.04" ry="1.73" transform="translate(-42.91 48.58) rotate(-20.7)" style="fill: rgb(234, 200, 59); stroke: rgb(174, 85, 54); stroke-miterlimit: 10; stroke-width: 0.5px; stroke-linecap: round; stroke-linejoin: round;"/>
      <ellipse class="cls-11" cx="110.27" cy="27.76" rx="0.96" ry="1.6" transform="translate(-2.5 13.19) rotate(-6.77)" style="fill: rgb(234, 200, 59); stroke: rgb(174, 85, 54); stroke-miterlimit: 10; stroke-width: 0.5px; stroke-linecap: round; stroke-linejoin: round;"/>
      <g class="cls-12" style="mask: url(#mask); fill: rgb(255, 194, 168); stroke: rgb(57, 133, 142); stroke-linecap: round; stroke-linejoin: round;">
        <path class="cls-13" d="M41.83,48.7h0l-.23,0h.27Z" style="fill: rgb(244, 233, 229); stroke: rgb(174, 85, 54); stroke-linecap: round; stroke-linejoin: round; stroke-width: 0.5px; font-family: ArialMT, Arial; font-size: 20px; line-height: 32px;"/>
        <path class="cls-14" d="M50.42,47.53a.93.93,0,0,0,0-.13c0-.63-.53-.91-.89-1.09a1.37,1.37,0,0,1-.36-.23l0,0A.86.86,0,0,0,49,45h0l-.09,0a1,1,0,0,0,0-.15,1,1,0,0,0-.27-.33,1.24,1.24,0,0,0-.78-.21v0a1.18,1.18,0,0,0-.17-.72.88.88,0,0,0-.22-.25.85.85,0,0,0-.56-.19,1.19,1.19,0,0,0-1,.58h0a1.24,1.24,0,0,0-.79.65.73.73,0,0,0,0,.07,1.61,1.61,0,0,0-.39-.15,1.75,1.75,0,0,0-1.71.83,9.49,9.49,0,0,1-.71.89,3.19,3.19,0,0,1-2.46.94,1.38,1.38,0,0,1-1.09-.78c-.26-.56-.16-2,1.24-3.38a3.37,3.37,0,0,0,1-2.48,4.08,4.08,0,0,0-1.3-2.87l-1,1a2.71,2.71,0,0,1,.85,1.86,2,2,0,0,1-.59,1.46c-1.8,1.82-2,3.85-1.52,5a2.81,2.81,0,0,0,2.06,1.56,3.52,3.52,0,0,0,3.18-.86l.12-.1a5.47,5.47,0,0,0,.09.94.68.68,0,0,0,.05.12,3.17,3.17,0,0,1-1.11.33l-.23,0a5.57,5.57,0,0,0-.85.16,4.34,4.34,0,0,0-2.06,1.25A2.75,2.75,0,0,0,38.18,53a6.26,6.26,0,0,0,1.54,2.4c.91.94,1.47,1.51.71,2.92l1.25.67c1.24-2.33,0-3.57-.94-4.58a3.9,3.9,0,0,1-1.17-1.73,1.92,1.92,0,0,1,.19-1.58A3,3,0,0,1,41.89,50v0A.44.44,0,0,1,42,50h.3A4,4,0,0,1,43,50a2.14,2.14,0,0,1,1.43,1,3.08,3.08,0,0,0,.9.92,1.67,1.67,0,0,0,2.1-.1,1.61,1.61,0,0,0,.33-.46,1.53,1.53,0,0,0,.56-.2A1.27,1.27,0,0,0,49,50c0-.5-.26-.69.4-.69a1.11,1.11,0,0,0,1.19-1.13A1.54,1.54,0,0,0,50.42,47.53Z" style="fill: rgb(246, 230, 167); stroke: rgb(174, 85, 54); stroke-linecap: round; stroke-linejoin: round; stroke-width: 0.5px; letter-spacing: -1.05px; isolation: isolate;"/>
      </g>
    </symbol>
    <mask id="mask" x="35.34" y="34.31" width="15.48" height="26.33" maskUnits="userSpaceOnUse">
      <g class="cls-15" style="filter: url(#luminosity-noclip); fill: url(#Unbenannter_Verlauf_4);">
        <polygon class="cls-1" points="37.93 54.98 38.22 60.64 44.11 60.34 43.82 54.67 37.93 54.98" style="fill: url(#Unbenannter_Verlauf_18); isolation: isolate; stroke: rgb(121, 135, 40); stroke-miterlimit: 10;"/>
        <polygon class="cls-2" points="43.06 39.47 40.7 34.31 35.34 36.76 37.7 41.92 43.06 39.47" style="fill: url(#Unbenannter_Verlauf_14);"/>
      </g>
    </mask>
    <linearGradient id="Unbenannter_Verlauf_4" x1="197" y1="82.19" x2="367.24" y2="82.19" gradientUnits="userSpaceOnUse">
      <stop offset="0" stop-color="#f2987f"/>
      <stop offset="1" stop-color="#f2987f" stop-opacity="0.1"/>
    </linearGradient>
    <filter id="luminosity-noclip" x="35.34" y="34.31" width="15.48" height="26.33" filterUnits="userSpaceOnUse" color-interpolation-filters="sRGB">
      <feFlood flood-color="#fff" result="bg"/>
      <feBlend in="SourceGraphic" in2="bg"/>
    </filter>
    <linearGradient id="Unbenannter_Verlauf_18" x1="17394.41" y1="13425.33" x2="17400.3" y2="13425.33" gradientTransform="matrix(-0.05, -0.96, -1, 0.05, 14306.85, 16102.41)" gradientUnits="userSpaceOnUse">
      <stop offset="0.59"/>
      <stop offset="1" stop-color="#fff"/>
    </linearGradient>
    <linearGradient id="Unbenannter_Verlauf_14" x1="-2390.13" y1="6561.64" x2="-2384.24" y2="6561.64" gradientTransform="matrix(0.4, 0.88, 0.91, -0.42, -4973.86, 4855.75)" gradientUnits="userSpaceOnUse">
      <stop offset="0.59"/>
      <stop offset="1" stop-color="#fff"/>
    </linearGradient>
    <symbol id="Pfeil" data-name="Pfeil" viewBox="0 0 70 77.95">
      <path class="cls-1" d="M55.63,26.92a71.28,71.28,0,0,0-18.74,4.83,59,59,0,0,0-16.6,10.51,63.77,63.77,0,0,0-12.73,16A70.51,70.51,0,0,0,3,67.72,60.29,60.29,0,0,0,0,78,61.34,61.34,0,0,1,.92,67.14a73.82,73.82,0,0,1,2.6-10.69A69.34,69.34,0,0,1,30.43,20.24,86.6,86.6,0,0,1,51.59,9.79Z" style="fill: rgb(153, 153, 153); isolation: isolate; stroke: rgb(153, 153, 153); stroke-miterlimit: 10;"/>
      <polygon class="cls-1" points="54.06 37.81 48.15 0 70 15.95 54.06 37.81" style="fill: rgb(153, 153, 153); isolation: isolate; stroke: rgb(153, 153, 153); stroke-miterlimit: 10;"/>
    </symbol>
  </defs>
  <title>Phosphate_Handling_180328Phosphate Handling Arrows</title>
  <g class="cls-14">
    <g id="Ebene_30" data-name="Ebene 30">
      <use width="560" height="500" transform="matrix(1, 0, 0, 1, 0, 0)" xlink:href="#Rahmen"/>
    </g>
    <g id="Zellen_HG" data-name="Zellen HG">
      <rect class="cls-15" x="476.94" y="-12.06" width="86.08" height="530.12"/>
      <line class="cls-16" x1="476.94" y1="303.76" x2="476.94" y2="191.08"/>
      <line class="cls-16" x1="476.94" y1="375.62" x2="476.94" y2="323.03"/>
      <polyline class="cls-17" points="476.94 175.95 476.94 -6.06 560.59 -6.06 560.59 515.95 476.94 515.95 476.94 394.94"/>
      <path class="cls-18" d="M168.78,431.7v-5.49c0-3,5.4-5.49,12-5.49h8.7c6.6,0,12-4.87,12-10.83s-5.4-10.83-12-10.83h-8.7a11.86,11.86,0,1,1,0-23.71h8.7c6.6,0,12-4.87,12-10.83s-5.4-10.82-12-10.82h-8.7a11.86,11.86,0,1,1,0-23.72h8.7c6.6,0,12-4.87,12-10.82s-5.4-10.83-12-10.83h-8.7a11.86,11.86,0,1,1,0-23.71h8.7c6.6,0,12-4.88,12-10.83s-5.4-10.83-12-10.83h-8.7a11.86,11.86,0,1,1,0-23.71h8.7c6.6,0,12-4.87,12-10.83s-5.4-10.82-12-10.82h-8.7a11.86,11.86,0,1,1,0-23.72h8.7c6.6,0,12-4.87,12-10.82s-5.4-10.83-12-10.83h-8.7a11.86,11.86,0,1,1,0-23.71h8.7c6.6,0,12-4.88,12-10.83s-5.4-10.83-12-10.83h-8.7a11.86,11.86,0,1,1,0-23.71h8.7c6.6,0,12-4.87,12-10.83s-5.4-10.83-12-10.83h-8.7c-6.6,0-12-2.86-12-6.36V68.77H334.67c45.74,0,68.52,37.08,68.52,82.81V348.89c0,45.74-22.78,82.81-68.52,82.81Z"/>
      <path class="cls-19" d="M168.78,431.7v-5.49c0-3,5.4-5.49,12-5.49h8.7c6.6,0,12-4.87,12-10.83s-5.4-10.83-12-10.83h-8.7a11.86,11.86,0,1,1,0-23.71h8.7c6.6,0,12-4.87,12-10.83s-5.4-10.82-12-10.82h-8.7a11.86,11.86,0,1,1,0-23.72h8.7c6.6,0,12-4.87,12-10.82s-5.4-10.83-12-10.83h-8.7a11.86,11.86,0,1,1,0-23.71h8.7c6.6,0,12-4.88,12-10.83s-5.4-10.83-12-10.83h-8.7a11.86,11.86,0,1,1,0-23.71h8.7c6.6,0,12-4.87,12-10.83s-5.4-10.82-12-10.82h-8.7a11.86,11.86,0,1,1,0-23.72h8.7c6.6,0,12-4.87,12-10.82s-5.4-10.83-12-10.83h-8.7a11.86,11.86,0,1,1,0-23.71h8.7c6.6,0,12-4.88,12-10.83s-5.4-10.83-12-10.83h-8.7a11.86,11.86,0,1,1,0-23.71h8.7c6.6,0,12-4.87,12-10.83s-5.4-10.83-12-10.83h-8.7c-6.6,0-12-2.86-12-6.36V68.77H334.67c45.74,0,68.52,37.08,68.52,82.81V348.89c0,45.74-22.78,82.81-68.52,82.81Z"/>
      <path class="cls-20" d="M168.78,431.7v-5.49c0-3,5.4-5.49,12-5.49h8.7c6.6,0,12-4.87,12-10.83s-5.4-10.83-12-10.83h-8.7a11.86,11.86,0,1,1,0-23.71h8.7c6.6,0,12-4.87,12-10.83s-5.4-10.82-12-10.82h-8.7a11.86,11.86,0,1,1,0-23.72h8.7c6.6,0,12-4.87,12-10.82s-5.4-10.83-12-10.83h-8.7a11.86,11.86,0,1,1,0-23.71h8.7c6.6,0,12-4.88,12-10.83s-5.4-10.83-12-10.83h-8.7a11.86,11.86,0,1,1,0-23.71h8.7c6.6,0,12-4.87,12-10.83s-5.4-10.82-12-10.82h-8.7a11.86,11.86,0,1,1,0-23.72h8.7c6.6,0,12-4.87,12-10.82s-5.4-10.83-12-10.83h-8.7a11.86,11.86,0,1,1,0-23.71h8.7c6.6,0,12-4.88,12-10.83s-5.4-10.83-12-10.83h-8.7a11.86,11.86,0,1,1,0-23.71h8.7c6.6,0,12-4.87,12-10.83s-5.4-10.83-12-10.83h-8.7c-6.6,0-12-2.86-12-6.36V68.77H334.67c45.74,0,68.52,37.08,68.52,82.81V348.89c0,45.74-22.78,82.81-68.52,82.81Z"/>
      <path class="cls-18" d="M395.8-5.31c-13,28.66-27.59,48.58-61.13,48.58H168.79V37.79c0-3,5.4-5.5,12-5.5h8.68c6.6,0,12-4.88,12-10.82s-5.4-10.84-12-10.84h-8.68a12,12,0,0,1-12-11.86,11.54,11.54,0,0,1,.74-4.08"/>
      <path class="cls-19" d="M395.8-5.31c-13,28.66-27.59,48.58-61.13,48.58H168.79V37.79c0-3,5.4-5.5,12-5.5h8.68c6.6,0,12-4.88,12-10.82s-5.4-10.84-12-10.84h-8.68a12,12,0,0,1-12-11.86,11.54,11.54,0,0,1,.74-4.08"/>
      <path class="cls-20" d="M395.8-5.31c-13,28.66-27.59,48.58-61.13,48.58H168.79V37.79c0-3,5.4-5.5,12-5.5h8.68c6.6,0,12-4.88,12-10.82s-5.4-10.84-12-10.84h-8.68a12,12,0,0,1-12-11.86,11.54,11.54,0,0,1,.74-4.08"/>
      <path class="cls-18" d="M395.8,505.78c-13-28.66-27.59-48.58-61.13-48.58H168.79v5.48c0,3,5.4,5.5,12,5.5h8.68c6.6,0,12,4.88,12,10.82s-5.4,10.84-12,10.84h-8.68a12,12,0,0,0-12,11.86,11.54,11.54,0,0,0,.74,4.08"/>
      <path class="cls-19" d="M395.8,505.78c-13-28.66-27.59-48.58-61.13-48.58H168.79v5.48c0,3,5.4,5.5,12,5.5h8.68c6.6,0,12,4.88,12,10.82s-5.4,10.84-12,10.84h-8.68a12,12,0,0,0-12,11.86,11.54,11.54,0,0,0,.74,4.08"/>
      <path class="cls-20" d="M395.8,505.78c-13-28.66-27.59-48.58-61.13-48.58H168.79v5.48c0,3,5.4,5.5,12,5.5h8.68c6.6,0,12,4.88,12,10.82s-5.4,10.84-12,10.84h-8.68a12,12,0,0,0-12,11.86,11.54,11.54,0,0,0,.74,4.08"/>
      <use width="32.65" height="36.9" transform="matrix(1, 0, 0, 1, 221.0399932861328, 36.279998779296875)" xlink:href="#Neues_Symbol_5-2"/>
      <use width="32.65" height="36.9" transform="matrix(1, 0, 0, 1, 221.0399932861328, 425.19000244140625)" xlink:href="#Neues_Symbol_5-2"/>
      <polyline class="cls-21" points="64.69 270.39 47.58 270.39 47.58 427.13 64.69 427.13"/>
    </g>
    <g id="Text-2" data-name="Text">
      <text class="cls-22" transform="translate(265.78 485.49)" style="white-space: pre;">PT cell</text>
      <text class="cls-22" transform="translate(491.55 38.22)" style="white-space: pre;">blood</text>
      <text class="cls-23" transform="translate(105.45 28.24)" style="white-space: pre;">lumen</text>
      <text class="cls-22" transform="translate(105.45 28.24)" style="white-space: pre;">lumen</text>
      <use width="16" height="16" transform="matrix(1, 0, 0, 1, 256.04998779296875, 270.3900146484375)" xlink:href="#Minus"/>
      <use width="16" height="16" transform="matrix(1, 0, 0, 1, 276.9676818847656, 371.5248718261719)" xlink:href="#Minus"/>
      <use width="16" height="16" transform="matrix(1, 0, 0, 1, 269.05133056640625, 318.8143005371094)" xlink:href="#Minus"/>
      <use width="16" height="16" transform="matrix(1, 0, 0, 1, 256.04998779296875, 409)" xlink:href="#Minus"/>
      <text class="cls-24" transform="translate(38.28 392.68) rotate(-90)" style="white-space: pre;">regulation</text>
      <text class="cls-24" style="white-space: pre; font-size: 20px;" x="398.683" y="440.999">PTHr</text>
      <text class="cls-25" transform="matrix(1.000002, 0, 0, 1.000001, 444.69873, 444.403442)" style="white-space: pre; font-size: 11.6px;">1</text>
      <text class="cls-24" transform="translate(504.57 412.88)" style="white-space: pre;">PTH</text>
      <use width="10" height="10" transform="matrix(1, 0, 0, 1, 400.9116516113281, 399.9161682128906)" xlink:href="#PTH_kugel-2"/>
      <use width="10" height="10" transform="matrix(1, 0, 0, 1, 518.6599731445312, 378.3299865722656)" xlink:href="#PTH_kugel-2"/>
      <use width="16.09" height="31.05" transform="matrix(0.9178692698478699, 0.3968870937824249, -0.3968870937824249, 0.9178692698478699, 392.36090087890625, 383.61212158203125)" xlink:href="#PTH_Rezeptor_klein"/>
      <text class="cls-24" transform="translate(341.02 277.27)" style="white-space: pre;">FGFr</text>
      <text class="cls-26" transform="translate(387.67 282.93) scale(0.58)" style="white-space: pre;">1</text>
      <text class="cls-24" transform="translate(411.51 266.69)" style="white-space: pre;">Klotho</text>
      <use width="15" height="26" transform="matrix(1, 0, 0, 1, 425.3999938964844, 276.7699890136719)" xlink:href="#PTHp_2"/>
      <use id="FGF-3" data-name="FGF" width="10" height="10" transform="matrix(1, 0, 0, 1, 427.8999938964844, 301.8900146484375)" xlink:href="#FGF"/>
      <use width="10" height="10" transform="matrix(1, 0, 0, 1, 521.9099731445312, 301.8900146484375)" xlink:href="#FGF"/>
      <use width="22.42" height="25.05" transform="matrix(1, 0, 0, 1, 390.2799987792969, 294.3599853515625)" xlink:href="#FGF_Rezeptor"/>
    </g>
    <g id="Zoom_Rahmen" data-name="Zoom Rahmen">
      <use width="560" height="500" transform="matrix(1, 0, 0, 1, 0, 0)" xlink:href="#Neues_Symbol_2-2"/>
      <polyline class="cls-21" points="64.69 92.91 47.58 92.91 47.58 263.03 64.69 263.03"/>
      <use width="10" height="10" transform="matrix(1, 0, 0, 1, 131.61000061035156, 111.51000213623047)" xlink:href="#PO4"/>
      <use width="10" height="10" transform="matrix(1, 0, 0, 1, 341.6499938964844, 139.50999450683594)" xlink:href="#PO4"/>
      <use width="10" height="10" transform="matrix(1, 0, 0, 1, 514.27001953125, 177.07000732421875)" xlink:href="#PO4"/>
      <use width="10" height="10" transform="matrix(1, 0, 0, 1, 131.61000061035156, 189.47000122070312)" xlink:href="#PO4"/>
      <use width="10" height="10" transform="matrix(1, 0, 0, 1, 346.1499938964844, 216.6999969482422)" xlink:href="#PO4"/>
      <circle class="cls-7" cx="403.19" cy="183.15" r="17"/>
      <circle class="cls-7" cx="403.19" cy="183.15" r="17"/>
      <circle class="cls-17" cx="403.19" cy="183.15" r="17"/>
      <text class="cls-24" transform="translate(397.63 188.49)" style="white-space: pre;">?</text>
      <text class="cls-24" transform="translate(38.28 217.43) rotate(-90)" style="white-space: pre;">transport</text>
      <text class="cls-24" transform="translate(488.85 157.53)" style="white-space: pre;">HPO</text>
      <text class="cls-26" transform="translate(532.19 163.19) scale(0.58)" style="white-space: pre;">4<tspan class="cls-27" x="11.62" y="-21.13">– </tspan></text>
      <line class="cls-21" x1="321.2" y1="93.13" x2="459.3" y2="93.13"/>
      <polygon class="cls-28" points="456.32 96.81 455.7 96.16 458.95 93.14 455.7 90.11 456.32 89.45 460.28 93.14 456.32 96.81"/>
      <line class="cls-21" x1="443.17" y1="111.14" x2="299.05" y2="111.14"/>
      <polygon class="cls-28" points="302.04 107.46 302.65 108.12 299.4 111.14 302.65 114.16 302.04 114.82 298.08 111.14 302.04 107.46"/>
      <rect class="cls-7" x="330.48" y="86.68" width="90" height="32" rx="16" ry="16"/>
      <rect class="cls-17" x="330.48" y="86.68" width="90" height="32" rx="16" ry="16"/>
      <text class="cls-24" transform="translate(342.62 109.48)" style="white-space: pre;"><tspan class="cls-29">A</tspan><tspan x="11.86" y="0">TPase</tspan></text>
      <text class="cls-24" transform="translate(415.87 137.35)" style="white-space: pre;">3 Na</text>
      <text class="cls-22" transform="translate(458.11 130.69) scale(0.58)" style="white-space: pre;">+</text>
      <text class="cls-24" transform="translate(464.92 137.35)" style="white-space: pre;"> </text>
      <text class="cls-24" transform="translate(280.88 96.24)" style="white-space: pre;">2 K</text>
      <text class="cls-22" transform="translate(310.9 89.58) scale(0.58)" style="white-space: pre;">+</text>
      <text class="cls-24" transform="translate(317.71 96.24)" style="white-space: pre;"> </text>
      <line class="cls-21" x1="149.9" y1="164.57" x2="236.61" y2="164.57"/>
      <polygon class="cls-28" points="233.62 168.25 233.01 167.59 236.26 164.57 233.01 161.55 233.62 160.89 237.58 164.57 233.62 168.25"/>
      <line class="cls-21" x1="149.41" y1="124.45" x2="237.1" y2="124.45"/>
      <polygon class="cls-28" points="234.11 128.13 233.5 127.47 236.75 124.45 233.5 121.43 234.11 120.77 238.07 124.45 234.11 128.13"/>
      <circle class="cls-7" cx="190.1" cy="144.51" r="32.5"/>
      <circle class="cls-7" cx="190.1" cy="144.51" r="32.5"/>
      <circle class="cls-17" cx="190.1" cy="144.51" r="32.5"/>
      <text class="cls-24" transform="translate(168.42 143.82)" style="white-space: pre;">NaPi<tspan x="10.56" y="20">IIa</tspan></text>
      <text class="cls-24" transform="translate(66.2 167.14)" style="white-space: pre;">3 Na</text>
      <text class="cls-22" transform="translate(108.45 160.48) scale(0.58)" style="white-space: pre;">+</text>
      <text class="cls-24" transform="translate(115.26 167.14)" style="white-space: pre;"> </text>
      <text class="cls-24" transform="translate(65.87 134.77)" style="white-space: pre;">HPO</text>
      <text class="cls-26" transform="translate(109.21 140.43) scale(0.58)" style="white-space: pre;">4<tspan class="cls-27" x="11.62" y="-21.13">2– </tspan></text>
      <line class="cls-21" x1="149.65" y1="243.82" x2="236.61" y2="243.82"/>
      <polygon class="cls-28" points="233.62 247.5 233.01 246.85 236.26 243.82 233.01 240.8 233.62 240.14 237.58 243.82 233.62 247.5"/>
      <line class="cls-21" x1="149.17" y1="203.7" x2="237.1" y2="203.7"/>
      <polygon class="cls-28" points="234.11 207.38 233.5 206.72 236.75 203.7 233.5 200.68 234.11 200.02 238.07 203.7 234.11 207.38"/>
      <circle class="cls-7" cx="190.1" cy="223.76" r="32.5"/>
      <circle class="cls-7" cx="190.1" cy="223.76" r="32.5"/>
      <circle class="cls-17" cx="190.1" cy="223.76" r="32.5"/>
      <text class="cls-24" transform="translate(168.42 223.07)" style="white-space: pre;">NaPi<tspan x="11.12" y="20">IIc</tspan></text>
      <text class="cls-24" transform="translate(66.2 212.2)" style="white-space: pre;">HPO</text>
      <text class="cls-26" transform="translate(109.54 217.86) scale(0.58)" style="white-space: pre;">4<tspan class="cls-27" x="11.62" y="-21.13">2– </tspan></text>
      <text class="cls-24" transform="translate(66.2 245.89)" style="white-space: pre;">2 Na</text>
      <text class="cls-22" transform="translate(108.45 239.23) scale(0.58)" style="white-space: pre;">+</text>
      <text class="cls-24" transform="translate(115.26 245.89)" style="white-space: pre;"> </text>
      <line class="cls-21" x1="149.41" y1="330.95" x2="236.61" y2="330.95"/>
      <polygon class="cls-28" points="233.62 334.63 233.01 333.97 236.26 330.95 233.01 327.93 233.62 327.27 237.58 330.95 233.62 334.63"/>
      <line class="cls-21" x1="148.92" y1="290.83" x2="237.1" y2="290.83"/>
      <polygon class="cls-28" points="234.11 294.51 233.5 293.85 236.75 290.83 233.5 287.81 234.11 287.15 238.07 290.83 234.11 294.51"/>
      <circle class="cls-7" cx="190.1" cy="310.89" r="32.5"/>
      <circle class="cls-7" cx="190.1" cy="310.89" r="32.5"/>
      <circle class="cls-17" cx="190.1" cy="310.89" r="32.5"/>
      <text class="cls-24" transform="translate(168.42 310.2)" style="white-space: pre;">NaPi<tspan x="10.56" y="20">IIa</tspan></text>
      <line class="cls-21" x1="149.41" y1="409.55" x2="236.61" y2="409.55"/>
      <polygon class="cls-28" points="233.62 413.23 233.01 412.57 236.26 409.55 233.01 406.53 233.62 405.87 237.58 409.55 233.62 413.23"/>
      <line class="cls-21" x1="148.92" y1="369.43" x2="237.1" y2="369.43"/>
      <polygon class="cls-28" points="234.11 373.11 233.5 372.45 236.75 369.43 233.5 366.41 234.11 365.75 238.07 369.43 234.11 373.11"/>
      <circle class="cls-7" cx="190.1" cy="389.49" r="32.5"/>
      <circle class="cls-7" cx="190.1" cy="389.49" r="32.5"/>
      <circle class="cls-17" cx="190.1" cy="389.49" r="32.5"/>
      <text class="cls-24" transform="translate(168.42 388.79)" style="white-space: pre;">NaPi<tspan x="11.12" y="20">IIc</tspan></text>
      <line class="cls-21" x1="422.909" y1="183.41" x2="510.599" y2="183.41" style="fill: none; stroke: rgb(26, 69, 84); stroke-miterlimit: 10;"/>
      <polygon class="cls-28" points="507.609 187.09 506.999 186.43 510.249 183.41 506.999 180.39 507.609 179.73 511.569 183.41 507.609 187.09" style="fill: rgb(26, 69, 84);"/>
      <line class="cls-21" x1="292.422" y1="154.258" x2="380.112" y2="154.258" style="fill: none; stroke: rgb(26, 69, 84); stroke-miterlimit: 10;" transform="matrix(0.898345, 0.43929, -0.43929, 0.898345, 101.947161, -132.037725)"/>
      <polygon class="cls-28" points="372.799 176.621 372.189 175.961 375.439 172.941 372.189 169.921 372.799 169.261 376.759 172.941 372.799 176.621" style="fill: rgb(26, 69, 84);" transform="matrix(0.898345, 0.43929, -0.43929, 0.898345, 114.038338, -146.922455)"/>
      <line class="cls-21" x1="289.008" y1="206.027" x2="376.698" y2="206.027" style="fill: none; stroke: rgb(26, 69, 84); stroke-miterlimit: 10;" transform="matrix(0.956485, -0.291782, 0.291782, 0.956485, -45.630804, 106.085745)"/>
      <polygon class="cls-28" points="371.857 197.297 371.247 196.637 374.497 193.617 371.247 190.597 371.857 189.937 375.817 193.617 371.857 197.297" style="fill: rgb(26, 69, 84);" transform="matrix(0.956485, -0.291782, 0.291782, 0.956485, -40.239653, 117.415174)"/>
    </g>
    <line class="cls-21" x1="453.309" y1="307.966" x2="530.351" y2="307.677" style="fill: none; stroke: rgb(26, 69, 84); stroke-miterlimit: 10;" transform="matrix(-0.999972, -0.007452, 0.007452, -0.999972, 970.705691, 618.971991)"/>
    <polygon class="cls-28" points="442.302 311.04 441.692 310.38 444.942 307.361 441.692 304.34 442.302 303.68 446.262 307.361 442.302 311.04" style="fill: rgb(26, 69, 84);" transform="matrix(-0.999972, -0.007452, 0.007452, -0.999972, 885.651231, 618.019885)"/>
    <line class="cls-21" x1="422.803" y1="383.713" x2="510.493" y2="383.713" style="fill: none; stroke: rgb(26, 69, 84); stroke-miterlimit: 10;" transform="matrix(-0.999991, -0.004259, 0.004259, -0.999991, 931.657681, 769.409816)"/>
    <polygon class="cls-28" points="422.443 387.212 421.833 386.552 425.083 383.532 421.833 380.512 422.443 379.852 426.403 383.532 422.443 387.212" style="fill: rgb(26, 69, 84);" transform="matrix(-0.999991, -0.004259, 0.004259, -0.999991, 846.598922, 768.866633)"/>
  </g>
  <line style="fill: rgb(26, 69, 84); stroke: rgb(255, 235, 4); stroke-width: 2;" x1="253.13" y1="341.822" x2="376.38" y2="268.793" transform="matrix(-0.860779, -0.508978, 0.508978, -0.860779, 430.294753, 728.313336)"/>
  <line style="fill: rgb(26, 69, 84); stroke: rgb(255, 235, 4); stroke-width: 2;" x1="243.413" y1="294.398" x2="275.068" y2="287.522" transform="matrix(-0.221062, 0.97526, -0.97526, -0.221062, 584.717587, 116.7775)" bx:origin="0.073 0.636"/>
  <line style="fill: rgb(26, 69, 84); stroke: rgb(255, 235, 4); stroke-width: 2;" x1="249.034" y1="438.95" x2="372.284" y2="365.922" transform="matrix(-0.86078, -0.508977, 0.508977, -0.86078, 373.237323, 906.9632)"/>
  <line style="fill: rgb(26, 69, 84); stroke: rgb(255, 235, 4); stroke-width: 2;" x1="239.083" y1="391.74" x2="270.738" y2="384.864" transform="matrix(-0.221062, 0.97526, -0.97526, -0.221062, 674.364112, 239.86098)" bx:origin="0.073 0.636"/>
  <line style="fill: rgb(26, 69, 84); stroke: rgb(255, 235, 4); stroke-width: 2;" x1="257.443" y1="388.167" x2="380.693" y2="315.138" transform="matrix(-0.987036, -0.160502, 0.160502, -0.987036, 577.558603, 749.956989)"/>
  <line style="fill: rgb(26, 69, 84); stroke: rgb(255, 235, 4); stroke-width: 2;" x1="248.264" y1="366.679" x2="279.919" y2="359.803" transform="matrix(0.149334, 0.988787, -0.988787, 0.149334, 573.248036, 62.027162)" bx:origin="0.073 0.636"/>
  <line style="fill: rgb(26, 69, 84); stroke: rgb(255, 235, 4); stroke-width: 2;" x1="253.721" y1="396.914" x2="376.971" y2="323.886" transform="matrix(-0.66042, -0.750897, 0.750897, -0.66042, 252.983567, 835.207522)"/>
  <line style="fill: rgb(26, 69, 84); stroke: rgb(255, 235, 4); stroke-width: 2;" x1="251.596" y1="328.626" x2="283.251" y2="321.75" transform="matrix(-0.512698, 0.858569, -0.858569, -0.512698, 664.083544, 275.329229)" bx:origin="0.073 0.636"/>
  <use width="161.72" height="202.21" transform="matrix(1.0148799419403076, 0, 0, 1.1261299848556519, -198.4334259033203, 15.108260154724121)" xlink:href="#Kidey_zoom"/>
  <rect x="-160.035" y="60.175" width="41.496" height="53.076" style="fill-opacity: 0.7; fill: rgb(88, 82, 82);"/>
  <g id="Ebene_13" data-name="Ebene 13" transform="matrix(1.636384, 0.192003, 0.177707, -1.514539, -132.543976, 226.878143)">
    <use width="70" height="77.95" transform="matrix(1, 0, 0, 1, 0, 0)" xlink:href="#Pfeil"/>
  </g>
  <text style="fill: rgb(51, 51, 51); font-size: 20px; white-space: pre;" x="-187.057" y="276.338">Proximal Tubule</text>
  <text style="fill: rgb(51, 51, 51); font-size: 20px; white-space: pre;" x="-139.482" y="579.866">PTHr1: PTH receptor 1</text>
  <text style="fill: rgb(51, 51, 51); font-size: 20px; white-space: pre;" x="-102.44" y="599.206" transform="matrix(1, 0, 0, 1, -37.37162, 8.530853)">FGFr1: FGF receptor 1<tspan x="-102.44000244140625" dy="1em">​</tspan></text>
  <text style="fill: rgb(51, 51, 51); font-size: 20px; white-space: pre;" x="-102.44" y="599.206" transform="matrix(1, 0, 0, 1, -34.751595, 36.396427)">NaPi: sodium/phosphate cotransporter<tspan x="-102.44000244140625" dy="1em">​</tspan></text>
  <text style="fill: rgb(51, 51, 51); font-size: 20px; white-space: pre;" x="-137.111" y="554.676">PT: proximal tubule</text>
  <text class="cls-24" style="white-space: pre; font-family: ArialMT, Arial; font-size: 20px; line-height: 32px; width: 39.9844px; perspective-origin: 19.9844px 0px; fill: rgb(26, 69, 84);" x="487.529" y="334.625">FGF23</text>
</svg>