<?xml version="1.0" encoding="iso-8859-1"?>
<!-- Generator: Adobe Illustrator 19.0.0, SVG Export Plug-In . SVG Version: 6.00 Build 0)  -->
<svg version="1.1" id="Layer_1" xmlns="http://www.w3.org/2000/svg" xmlns:xlink="http://www.w3.org/1999/xlink" x="0px" y="0px"
	 viewBox="0 0 496.158 496.158" style="enable-background:new 0 0 496.158 496.158;" xml:space="preserve">
<path style="fill:#22A85B;" d="M248.082,0.003C111.07,0.003,0,111.063,0,248.085c0,137.001,111.07,248.07,248.082,248.07
	c137.006,0,248.076-111.069,248.076-248.07C496.158,111.062,385.088,0.003,248.082,0.003z"/>
<path style="fill:#EDC92F;" d="M394.818,382.733c-7.312-27.279-69.907-49.333-147.073-49.333s-139.095,22.054-146.407,49.333
	c-3.259,12.158-6.962,35.192-10.126,57.525c42.747,34.934,97.357,55.897,156.87,55.897c59.509,0,114.116-20.963,156.862-55.896
	C401.78,417.926,398.077,394.891,394.818,382.733z"/>
<polygon style="fill:#969899;" points="247.829,316.996 208.306,322.246 210.167,335.412 247.787,363.485 285.991,335.412 
	287.852,322.246 "/>
<path style="fill:#7F3E09;" d="M247.829,316.996l-37.662,18.417c0,0,16.828,28.073,37.62,28.073s38.204-28.073,38.204-28.073
	L247.829,316.996z"/>
<path style="fill:#EDC92F;" d="M212.857,339.179l-2.612-3.767C210.245,335.412,211.008,336.986,212.857,339.179z M283.927,338.286
	c1.383-1.713,1.984-2.873,1.984-2.873L283.927,338.286z M247.788,352.746c-20.422,0-30.632-8.469-34.931-13.567l35.298,50.9
	l35.771-51.793C279.95,343.21,269.457,352.746,247.788,352.746z"/>
<path style="fill:#E2A176;" d="M286.969,282.118h-77.78c12.136,36.588,0.978,53.294,0.978,53.294l26.912,17.334h22l26.912-17.333
	C285.991,335.412,274.833,318.706,286.969,282.118z"/>
<g>
	<path style="fill:#F3FAFF;" d="M287.852,322.246l-39.794,30.5c0,0,34.03,6.009,34.198,5.842l23.488-20.796L287.852,322.246z"/>
	<path style="fill:#F3FAFF;" d="M208.306,322.246l-17.894,15.547l23.489,20.796c0.168,0.167,34.157-5.842,34.157-5.842
		L208.306,322.246z"/>
</g>
<path style="fill:#F4B382;" d="M248.08,61.579c-48.741,0-88.254,21.167-88.254,113.596c0,31.266,6.19,55.765,15.462,74.673
	c20.396,41.598,55.7,56.136,72.792,56.136s52.396-14.538,72.79-56.136c9.271-18.908,15.462-43.407,15.462-74.673
	C336.332,82.746,296.819,61.579,248.08,61.579z"/>
<g>
	<path style="fill:#7C7C7C;" d="M334.141,140.767l-17.965,34.062c0,0,5.126,8.75,4.876,31.75l3.875,1.875l2.749-27.625
		c0-4.5,8.754-2.583,8.754-2.583C337.163,159.412,334.141,140.767,334.141,140.767z"/>
	<path style="fill:#7C7C7C;" d="M179.962,174.829l-17.965-34.062c0,0-3.02,18.646-2.288,37.479c0,0,8.753-1.917,8.753,2.583
		l2.75,27.625l3.875-1.875C174.837,183.579,179.962,174.829,179.962,174.829z"/>
</g>
<g>
	<path style="fill:#F4B382;" d="M161.396,178.019c-8.438,1.443-14.856,5.077-10.096,32.922s10.673,29.141,19.112,27.698
		L161.396,178.019z"/>
	<path style="fill:#F4B382;" d="M334.86,178.019l-9.016,60.62c8.438,1.443,14.35,0.148,19.111-27.698
		C349.717,183.096,343.298,179.462,334.86,178.019z"/>
</g>
<g>
	<path style="fill:#261D17;" d="M217.079,175.579c-11.855,0-21.5,9.645-21.5,21.5s9.645,21.5,21.5,21.5s21.5-9.645,21.5-21.5
		S228.934,175.579,217.079,175.579z M217.079,213.579c-9.099,0-16.5-7.402-16.5-16.5s7.401-16.5,16.5-16.5
		c9.098,0,16.5,7.402,16.5,16.5S226.177,213.579,217.079,213.579z"/>
	<path style="fill:#261D17;" d="M259.055,197.662c0.278-3.208-0.735-8.75-11.082-8.75s-11.36,5.541-11.082,8.75
		c-0.2,2.661,0.44,4.896,0.44,4.896c1.955-4.083,6.135-6.72,10.642-6.72c4.507,0,8.686,2.638,10.642,6.72
		C258.614,202.557,259.255,200.322,259.055,197.662z"/>
	<path style="fill:#261D17;" d="M279.079,175.579c-11.855,0-21.5,9.645-21.5,21.5s9.645,21.5,21.5,21.5s21.5-9.645,21.5-21.5
		S290.934,175.579,279.079,175.579z M279.079,213.579c-9.099,0-16.5-7.402-16.5-16.5s7.401-16.5,16.5-16.5
		c9.098,0,16.5,7.402,16.5,16.5S288.177,213.579,279.079,213.579z"/>
	
		<rect x="183.258" y="182.811" transform="matrix(-0.2064 0.9785 -0.9785 -0.2064 413.601 54.3538)" style="fill:#261D17;" width="3" height="24.191"/>
	
		<rect x="298.974" y="193.412" transform="matrix(-0.9784 0.2067 -0.2067 -0.9784 655.7079 321.3157)" style="fill:#261D17;" width="24.19" height="3"/>
</g>
<g>
</g>
<g>
</g>
<g>
</g>
<g>
</g>
<g>
</g>
<g>
</g>
<g>
</g>
<g>
</g>
<g>
</g>
<g>
</g>
<g>
</g>
<g>
</g>
<g>
</g>
<g>
</g>
<g>
</g>
</svg>
