<?xml version="1.0" encoding="iso-8859-1"?>
<!-- Generator: Adobe Illustrator 19.0.0, SVG Export Plug-In . SVG Version: 6.00 Build 0)  -->
<svg version="1.1" id="Layer_1" xmlns="http://www.w3.org/2000/svg" xmlns:xlink="http://www.w3.org/1999/xlink" x="0px" y="0px"
	 viewBox="0 0 496.2 496.2" style="enable-background:new 0 0 496.2 496.2;" xml:space="preserve">
<path style="fill:#A3D5E0;" d="M496.2,248.1C496.2,111.1,385.1,0,248.1,0S0,111.1,0,248.1s111.1,248.1,248.1,248.1
	S496.2,385.1,496.2,248.1z"/>
<path style="fill:#E2A379;" d="M287,282.1h-77.8c12.1,36.6,1,53.3,1,53.3l26.9,6.1h22l26.9-6.1C286,335.4,274.9,318.7,287,282.1z"/>
<path style="fill:#019897;" d="M248.1,496.2c70.2,0,133.6-29.2,178.7-76c-2.8-15.1-5.6-28.9-8.3-37.4
	c-8.5-27.3-81.2-49.3-170.8-49.3s-161.5,22-170,49.3c-2.6,8.5-5.5,22.2-8.3,37.4C114.5,467,177.9,496.2,248.1,496.2z"/>
<path style="fill:#D0EAEF;" d="M198.8,336.5c0,0-19.2,44,49,44s49.7-44,49.7-44l-49.4-5.8L198.8,336.5z"/>
<path style="fill:#E2A379;" d="M210.2,335.4c0,0-14.8,36.7,37.6,36.7s38.2-36.7,38.2-36.7L247.8,317L210.2,335.4z"/>
<path style="fill:#F4B382;" d="M336.4,175.2c0-92.4-39.5-113.6-88.3-113.6c-48.7,0-88.3,21.2-88.3,113.6c0,31.3,6.2,55.8,15.5,74.7
	c20.4,41.6,55.7,56.1,72.8,56.1s52.4-14.5,72.8-56.1C330.2,231,336.4,206.5,336.4,175.2z"/>
<g>
	<path style="fill:#3A1D12;" d="M165.5,140.8c-4.2,10.9-5.6,24.4-5.6,37.5c0,0,8.8-1.9,8.8,2.6l2.8,27.6l3.9-1.9
		c-0.2-23,4.9-68,4.9-68L165.5,140.8z"/>
	<path style="fill:#3A1D12;" d="M330.8,140.8c4.2,10.9,5.6,24.4,5.6,37.5c0,0-8.8-1.9-8.8,2.6l-2.8,27.6l-3.9-1.9
		c0.2-23-4.9-66.2-4.9-66.2L330.8,140.8z"/>
	<polygon style="fill:#3A1D12;" points="225.4,136.3 225.4,166.3 276.4,134.8 	"/>
	<polygon style="fill:#3A1D12;" points="209.9,136.3 209.9,166.3 260.9,134.8 	"/>
	<polygon style="fill:#3A1D12;" points="194.4,136.3 194.4,166.3 245.4,134.8 	"/>
</g>
<path style="fill:#019897;" d="M164,78.3c0,8.6-4,76.8-4,76.8h176.5c0,0-4-68.2-4-76.8c0-4.3-35.5-23-83.3-23.1
	C200.7,55.2,164,73.9,164,78.3z"/>
<g>
	<path style="fill:#F4B382;" d="M170.4,238.7c-8.4,1.4-14.4,0.1-19.1-27.7s1.7-31.5,10.1-32.9L170.4,238.7z"/>
	<path style="fill:#F4B382;" d="M325.9,238.7c8.4,1.4,14.3,0.1,19.1-27.7c4.8-27.8-1.7-31.5-10.1-32.9L325.9,238.7z"/>
</g>
<g>
	<path style="fill:#E4F0F2;" d="M311.3,209.8c-0.3,0-0.6-0.1-0.8-0.2c-1-0.5-1.4-1.7-1-2.7l15-32.3c0.5-1,1.7-1.4,2.7-1
		c1,0.5,1.4,1.7,1,2.7l-15,32.3C312.8,209.3,312.1,209.8,311.3,209.8z"/>
	<path style="fill:#E4F0F2;" d="M184.9,209.8c-0.8,0-1.5-0.4-1.8-1.2l-15-32.3c-0.5-1,0-2.2,1-2.7s2.2,0,2.7,1l15,32.3
		c0.5,1,0,2.2-1,2.7C185.4,209.7,185.1,209.8,184.9,209.8z"/>
	<path style="fill:#E4F0F2;" d="M320.9,249.9l-5.8-44.5l-67-10.3l-67,10.2l-5.8,44.5l0,0c20.4,41.6,55.7,56.1,72.8,56.1
		S300.5,291.5,320.9,249.9L320.9,249.9z"/>
</g>
<g>
</g>
<g>
</g>
<g>
</g>
<g>
</g>
<g>
</g>
<g>
</g>
<g>
</g>
<g>
</g>
<g>
</g>
<g>
</g>
<g>
</g>
<g>
</g>
<g>
</g>
<g>
</g>
<g>
</g>
</svg>
