<?xml version="1.0" encoding="utf-8"?>
<svg viewBox="-144.705 0 704.705 645.543" xmlns="http://www.w3.org/2000/svg" xmlns:xlink="http://www.w3.org/1999/xlink" xmlns:bx="https://boxy-svg.com">
  <defs>
    <style>.cls-1{isolation:isolate;}.cls-15,.cls-2{fill:#fff;}.cls-3{fill:#f9ccbf;}.cls-12,.cls-13,.cls-14,.cls-15,.cls-16,.cls-24,.cls-3,.cls-7,.cls-9{stroke:#c34a29;}.cls-15,.cls-16,.cls-24,.cls-25,.cls-3,.cls-4,.cls-7,.cls-8,.cls-9{stroke-miterlimit:10;}.cls-16,.cls-25,.cls-31,.cls-33,.cls-4,.cls-7,.cls-8{fill:none;}.cls-4{stroke:#1a4554;}.cls-18,.cls-27,.cls-29,.cls-30,.cls-5{fill:#1a4554;}.cls-6{fill:#fbf2f0;}.cls-7{stroke-width:4px;}.cls-8{stroke:#f1d3cc;stroke-width:2px;}.cls-9{fill:#f7e6e1;}.cls-10{fill:#92d6df;}.cls-10,.cls-20{stroke:#39858e;}.cls-10,.cls-12,.cls-13,.cls-14,.cls-20,.cls-22,.cls-23{stroke-linecap:round;stroke-linejoin:round;}.cls-11{fill:#fdeabf;}.cls-12{fill:#f0d2ca;}.cls-12,.cls-13,.cls-14{stroke-width:1.5px;}.cls-13{fill:#8fd5de;}.cls-14{fill:#f5ab96;}.cls-17{fill:#f6e4df;}.cls-18,.cls-27,.cls-31{font-size:20px;}.cls-18,.cls-29{font-family:ArialMT, Arial;}.cls-19{letter-spacing:-0.06em;}.cls-20{fill:#86d2dc;}.cls-21{letter-spacing:-0.07em;}.cls-22{fill:#cbd774;stroke:#798728;}.cls-23{fill:#f2987f;stroke:#d55a51;}.cls-24{fill:#d47e67;}.cls-25{stroke:#ff4c00;}.cls-26{fill:#ff4c00;}.cls-27,.cls-30,.cls-31{font-family:Arial-BoldMT, Arial;font-weight:700;}.cls-28{letter-spacing:-0.02em;}.cls-29,.cls-30{font-size:16px;}.cls-31{stroke:#fff;stroke-width:3px;}.cls-32{fill:#1c8843;}.cls-34{mix-blend-mode:multiply;}</style>
    <symbol id="Kidey_zoom" data-name="Kidey zoom" viewBox="0 0 161.72 202.21">
      <path class="cls-3" d="M160,27.07l-.05.18-1.39,5.16L145.36,81.15,144.05,86l-1.38,5.1-1.31,4.85L139,104.69l-24.83,91.79H51.65L24.37,103.66,21.83,95l-1.41-4.8-1.48-5-1.41-4.8L3.3,32l-1.48-5L7.06,15.8a195.5,195.5,0,0,1,147.82.42Z" style="fill: none; stroke: rgb(174, 85, 54); stroke-width: 3px; stroke-linecap: round; stroke-linejoin: round;"/>
      <path class="cls-3" d="M159.94,27.24l-1.39,5.16L145.36,81.14,144.05,86l-1.38,5.1-1.31,4.85L139,104.68l-24.83,91.79H51.65L24.37,103.65,21.83,95l-1.41-4.8-1.48-5-1.41-4.8L3.3,32,1.8,26.84a187.39,187.39,0,0,1,158.14.4Z" style="fill: none; stroke: rgb(174, 85, 54); stroke-width: 3px; stroke-linecap: round; stroke-linejoin: round;"/>
      <path class="cls-3" d="M158.55,32.4,145.36,81.14,144.05,86l-1.38,5.1-1.31,4.85L139,104.68l-24.83,91.79H51.65L24.37,103.65,21.83,95l-1.41-4.8-1.48-5-1.41-4.8L3.3,32a182.1,182.1,0,0,1,155.25.45Z" style="fill: none; stroke: rgb(174, 85, 54); stroke-width: 3px; stroke-linecap: round; stroke-linejoin: round;"/>
      <path class="cls-3" d="M139,104.68l-24.83,91.79L113,200.71H52.9l-1.25-4.24L24.37,103.65a142.49,142.49,0,0,1,19.34-6.31q1.44-.37,2.91-.69,5.49-1.27,11.16-2.12c1.18-.17,2.37-.34,3.57-.48,2.72-.35,5.48-.62,8.25-.81,1.1-.08,2.2-.14,3.3-.19,2.5-.13,5-.19,7.55-.19a151.16,151.16,0,0,1,17.8,1q2.7.3,5.35.71A144.88,144.88,0,0,1,139,104.68Z" style="fill: none; stroke: rgb(174, 85, 54); stroke-width: 3px; stroke-linecap: round; stroke-linejoin: round;"/>
      <path class="cls-3" d="M145.37,81.15,144.06,86a160.4,160.4,0,0,0-18-6c-1-.27-1.93-.52-2.91-.76a165,165,0,0,0-19.51-3.68c-1.46-.2-2.93-.37-4.4-.54-1-.1-2.1-.2-3.15-.28-1.35-.12-2.71-.23-4.07-.31q-5.73-.37-11.54-.37h-.92c-1.08,0-2.17,0-3.25,0a171.1,171.1,0,0,0-20.36,1.63c-1.16.14-2.32.32-3.47.51a166.78,166.78,0,0,0-33.51,8.89l-1.41-4.79c3.55-1.35,7.17-2.59,10.84-3.69L19.47,43.9a1.5,1.5,0,0,1,2.89-.79l2.53,9.29c.7-3.26,2.16-7.7,5.09-9.88a6.66,6.66,0,0,1,5.64-1.14c1.64.36,2.46.8,2.81,1.51.43.89,0,1.81-.61,3.09a20,20,0,0,0-1.39,3.58c-.42,1.54-.05,4.21,1.71,5a.76.76,0,0,1,.38,1,.75.75,0,0,1-1,.38c-2.66-1.18-3.09-4.73-2.55-6.75a22.48,22.48,0,0,1,1.48-3.84c.35-.72.74-1.54.62-1.78,0-.08-.29-.38-1.78-.71a5.21,5.21,0,0,0-4.43.88c-3.7,2.75-4.79,10.13-5,12.18l5.42,19.94a169.25,169.25,0,0,1,17.21-4h0c1.35-.24,2.71-.48,4.08-.68a181.68,181.68,0,0,1,21.89-2c1.14,0,2.28-.07,3.43-.08h2.58c2.6,0,5.2,0,7.78.17,1.36,0,2.72.11,4.07.21q3.48.21,6.92.57c1.47.14,2.94.31,4.39.51a172.37,172.37,0,0,1,20.57,3.85c1,.22,2,.47,2.92.75,2.48.65,4.94,1.37,7.37,2.14L142.33,45a1.5,1.5,0,0,1,2.92.7l-7.91,32.48C140,79.13,142.73,80.09,145.37,81.15Z" style="fill: none; stroke: rgb(174, 85, 54); stroke-width: 3px; stroke-linecap: round; stroke-linejoin: round;"/>
      <path class="cls-3" d="M142.67,91.08l-1.31,4.85A157,157,0,0,0,103.6,85.79q-2.73-.39-5.49-.67a165.66,165.66,0,0,0-17.66-.94c-1.66,0-3.31,0-5,.07s-3.17.12-4.74.21q-5.84.35-11.52,1.08c-1.13.14-2.25.29-3.36.47q-5.66.82-11.15,2.06l1.89,8.58L56,139.06a1.48,1.48,0,0,1-1.14,1.78,1.17,1.17,0,0,1-.32,0,1.49,1.49,0,0,1-1.46-1.18L43.71,97.34l-1.9-8.6a153.87,153.87,0,0,0-20,6.28l-1.41-4.8a161.25,161.25,0,0,1,34.11-9.07c1.08-.17,2.17-.33,3.26-.47,2-.26,3.91-.49,5.89-.67,1.07-.12,2.15-.22,3.24-.29,4.45-.36,9-.54,13.53-.54q8,0,15.7.72c2.51.22,5,.51,7.46.85A163.93,163.93,0,0,1,122,84.32l1.11-5.07,1.06-4.87,1.88-8.57a1.5,1.5,0,0,1,2.94.64l-1.9,8.68L126,80l-1.12,5.08A160.31,160.31,0,0,1,142.67,91.08Z" style="fill: none; stroke: rgb(174, 85, 54); stroke-width: 3px; stroke-linecap: round; stroke-linejoin: round;"/>
      <path class="cls-3" d="M112,143.41l-1.18-3.25a25.31,25.31,0,0,0-6.49,4c-.67.51-.69-1.84-.69-1.84-.08-42.23,0-50.53,0-105.81a7.27,7.27,0,0,1,6.67-7.17l.27-.05L110,26.17A11,11,0,0,0,102.7,30a2.55,2.55,0,0,1-1.43.88,1.89,1.89,0,0,1-1.31-.72,10.4,10.4,0,0,0-6.43-4L93,29.35h0A7.52,7.52,0,0,1,96.1,30.8,7.9,7.9,0,0,1,99,36.63v0c.09,3.54.34,39.63.15,41.89a21.68,21.68,0,0,0-2.68-3.21c-.64-.94-2.17-3-4-5.61-3.07-4.44-6.52-10-11.06-12.1-1.93-1.34-8.17-1.34-8.28,5.12A21.45,21.45,0,0,0,75,70.62c.77,1.76,1.56,3.57,1.23,4.46s-1.61.84-4.53.28C69,74.83,64.78,74,63.81,78a4.42,4.42,0,0,0,.38,3.46c1,1.65,3,2.11,4.89,2.55,2.74.64,3.59,1,3.62,2.3A4.18,4.18,0,0,1,71.51,89a7.5,7.5,0,0,0-1.82,6.18c.45,2.75,2.36,3.79,3.89,4.63,1.76,1,3.16,1.73,3.22,5.14l.85,42.9a1.6,1.6,0,0,0,.38,1l.58.06c.48,9.81,2.91,37.72,2.91,39.74,0,2.81-1.4,4.84-2.69,5.11-1.14.23-2.36-.89-3.32-3.09C73.43,185.92,67,150,63.2,110.18c.45-.28.78-.89.78-2.08.23-.44-4.85-28.57-9.35-34.59a26.62,26.62,0,0,0-4.25-4.24c-2.48-1.84-3.86-3-3.36-5.26a2.6,2.6,0,0,1,1.7-2.13c1.27-.31,3,.75,4.76,2.9,2.16,2.64,5,4.06,7.77,3.88a5.53,5.53,0,0,0,4.42-2.34c2-3.24.28-5.9-.89-7.66s-1.44-2.41-1-3.25c.62-1.08,1.79-1,4.78-.11,2.08.6,4.24,1.22,5.95.16a4.17,4.17,0,0,0,1.81-3c.63-3.52-1.84-4.91-3.64-5.92C71.32,45.78,70,45,69.4,43.4s-.29-3.63,0-5.62c.35-2.54.67-4.94-.73-6.65A4.86,4.86,0,0,0,65,29.51c-4.23-.27-4.92,4.15-5.42,7.37-.72,4.6-1.38,6.76-4.34,6.72a5.35,5.35,0,0,1-3-1.29A14.6,14.6,0,0,0,50.23,41a8.35,8.35,0,0,0-3.38-.88A7.09,7.09,0,0,0,40,44.85a1,1,0,0,0,.58,1.28c.51.19.84-.27,1.09-.73a5.74,5.74,0,0,1,5.18-3.26,5.89,5.89,0,0,1,4.49,3.35,6.07,6.07,0,0,1-.25,4.56,5.54,5.54,0,0,1-2.71,2.66c-2.1.94-3.92-.4-5.15-1.45-.42-.36-1.15-.93-1.58-.59a1,1,0,0,0-.17,1.39c1.56,2,5.19,3.59,7.91,2.72a6.54,6.54,0,0,0,4.16-4.08c.53-1.47,1.11-3.69,2.72-3.92,5.14-.57,6-5.84,6.52-9.4.59-3.8,1-4.71,2-4.65a2,2,0,0,1,1.33.44c.51.62.25,2.51,0,4.17-.31,2.27-.66,4.85.19,7.17,1,2.75,3.18,4,4.77,4.87,1.89,1.07,2.25,1.38,2,2.54-.09.49-.23.74-.33.8-.49.31-2.21-.19-3.34-.52-2.59-.75-6.5-1.87-8.49,1.61-1.54,2.69,0,5,1.07,6.63,1.29,1.95,1.7,2.81.85,4.16a2.43,2.43,0,0,1-1.88.84A6.36,6.36,0,0,1,56,62.73c-3.52-4.3-6.53-4.35-8-4a5.77,5.77,0,0,0-4.1,4.58c-1,4.42,2.12,6.71,4.59,8.55a13.89,13.89,0,0,1,2.74,2.44c3.44,4.54,4.69,11.65,6.34,19,1.91,8.51,2.69,16.42,3.49,16.7a3.54,3.54,0,0,0,.4.17c1.65,17.39,9.89,75.3,12.44,81.16,1.55,3.56,3.49,4.19,4.67,4.19a3.19,3.19,0,0,0,.65-.07c2.35-.49,4.11-3.44,4.11-6.86,0-2.08-2.38-29.18-2.9-39.71a1.59,1.59,0,0,0,.49-1.17L80,104.86c-.1-5.28-2.88-6.8-4.9-7.91-1.42-.78-2.06-1.17-2.25-2.32-.28-1.69.36-2.55,1.24-3.74a7.22,7.22,0,0,0,1.82-4.64c-.08-4-3.71-4.82-6.12-5.38-1.14-.27-2.56-.6-2.87-1.1a1.59,1.59,0,0,1,0-1c.18-.74.83-.89,4.16-.25,2.88.56,6.83,1.32,8.17-2.34.78-2.11-.23-4.42-1.3-6.87s-1.75-4.24-1.66-5.88c0,0-.38-2.26,2.59-2.78C82.59,60,89.27,71.05,94.6,78h0l0,0c.56.73,1.11,1.41,1.64,2v0a14.28,14.28,0,0,1,1.25,2.1,20.13,20.13,0,0,1,.73,5h0V119s0,1.09-.59.46a13.48,13.48,0,0,0-6.73-3.85L90.1,119c5.19,1.25,8.15,6,8.15,9.62l-.91,72h6.19l.13-47.4C103.67,150.16,106.51,145.37,112,143.41Z" style="fill: none; stroke: rgb(174, 85, 54); stroke-width: 3px; stroke-linecap: round; stroke-linejoin: round;"/>
      <ellipse class="cls-3" cx="90.54" cy="117.33" rx="1.73" ry="1.04" transform="translate(-44.4 178.61) rotate(-76.77)" style="fill: none; stroke: rgb(174, 85, 54); stroke-width: 3px; stroke-linecap: round; stroke-linejoin: round;"/>
      <ellipse class="cls-3" cx="93.26" cy="27.76" rx="1.61" ry="0.97" transform="translate(51.96 115.87) rotate(-81.46)" style="fill: none; stroke: rgb(174, 85, 54); stroke-width: 3px; stroke-linecap: round; stroke-linejoin: round;"/>
      <ellipse class="cls-3" cx="111.53" cy="141.75" rx="1.04" ry="1.73" transform="translate(-42.91 48.58) rotate(-20.7)" style="fill: none; stroke: rgb(174, 85, 54); stroke-width: 3px; stroke-linecap: round; stroke-linejoin: round;"/>
      <ellipse class="cls-3" cx="110.27" cy="27.76" rx="0.96" ry="1.6" transform="translate(-2.5 13.19) rotate(-6.77)" style="fill: none; stroke: rgb(174, 85, 54); stroke-width: 3px; stroke-linecap: round; stroke-linejoin: round;"/>
      <path class="cls-3" d="M41.83,48.7h0l-.23,0h.27Z" style="fill: none; stroke: rgb(174, 85, 54); stroke-width: 3px; stroke-linecap: round; stroke-linejoin: round;"/>
      <path class="cls-3" d="M50.42,47.53a.93.93,0,0,0,0-.13c0-.63-.53-.91-.89-1.09a1.37,1.37,0,0,1-.36-.23l0,0A.86.86,0,0,0,49,45h0l-.09,0a1,1,0,0,0,0-.15,1,1,0,0,0-.27-.33,1.24,1.24,0,0,0-.78-.21v0a1.18,1.18,0,0,0-.17-.72.88.88,0,0,0-.22-.25.85.85,0,0,0-.56-.19,1.19,1.19,0,0,0-1,.58h0a1.24,1.24,0,0,0-.79.65.73.73,0,0,0,0,.07,1.61,1.61,0,0,0-.39-.15,1.75,1.75,0,0,0-1.71.83,9.49,9.49,0,0,1-.71.89,3.19,3.19,0,0,1-2.46.94,1.38,1.38,0,0,1-1.09-.78c-.26-.56-.16-2,1.24-3.38a3.37,3.37,0,0,0,1-2.48,4.08,4.08,0,0,0-1.3-2.87l-1,1a2.71,2.71,0,0,1,.85,1.86,2,2,0,0,1-.59,1.46c-1.8,1.82-2,3.85-1.52,5a2.81,2.81,0,0,0,2.06,1.56,3.52,3.52,0,0,0,3.18-.86l.12-.1a5.47,5.47,0,0,0,.09.94.68.68,0,0,0,.05.12,3.17,3.17,0,0,1-1.11.33l-.23,0a5.57,5.57,0,0,0-.85.16,4.34,4.34,0,0,0-2.06,1.25A2.75,2.75,0,0,0,38.18,53a6.26,6.26,0,0,0,1.54,2.4c.91.94,1.47,1.51.71,2.92l1.25.67c1.24-2.33,0-3.57-.94-4.58a3.9,3.9,0,0,1-1.17-1.73,1.92,1.92,0,0,1,.19-1.58A3,3,0,0,1,41.89,50v0A.44.44,0,0,1,42,50h.3A4,4,0,0,1,43,50a2.14,2.14,0,0,1,1.43,1,3.08,3.08,0,0,0,.9.92,1.67,1.67,0,0,0,2.1-.1,1.61,1.61,0,0,0,.33-.46,1.53,1.53,0,0,0,.56-.2A1.27,1.27,0,0,0,49,50c0-.5-.26-.69.4-.69a1.11,1.11,0,0,0,1.19-1.13A1.54,1.54,0,0,0,50.42,47.53Z" style="fill: none; stroke: rgb(174, 85, 54); stroke-width: 3px; stroke-linecap: round; stroke-linejoin: round;"/>
      <path class="cls-4" d="M160,27.07l-.05.18-1.39,5.16L145.36,81.15,144.05,86l-1.38,5.1-1.31,4.85L139,104.69l-24.83,91.79H51.65L24.37,103.66,21.83,95l-1.41-4.8-1.48-5-1.41-4.8L3.3,32l-1.48-5L7.06,15.8a195.5,195.5,0,0,1,147.82.42Z" style="fill: rgb(194, 127, 104); stroke: rgb(174, 85, 54); stroke-miterlimit: 10; stroke-width: 0.5px; stroke-linecap: round; stroke-linejoin: round;"/>
      <path class="cls-5" d="M159.94,27.24l-1.39,5.16L145.36,81.14,144.05,86l-1.38,5.1-1.31,4.85L139,104.68l-24.83,91.79H51.65L24.37,103.65,21.83,95l-1.41-4.8-1.48-5-1.41-4.8L3.3,32,1.8,26.84a187.39,187.39,0,0,1,158.14.4Z" style="fill: rgb(219, 180, 167); stroke: rgb(174, 85, 54); stroke-miterlimit: 10; stroke-width: 0.5px; stroke-linecap: round; stroke-linejoin: round;"/>
      <path class="cls-6" d="M158.55,32.4,145.36,81.14,144.05,86l-1.38,5.1-1.31,4.85L139,104.68l-24.83,91.79H51.65L24.37,103.65,21.83,95l-1.41-4.8-1.48-5-1.41-4.8L3.3,32a182.1,182.1,0,0,1,155.25.45Z" style="fill: rgb(244, 231, 227); stroke: rgb(174, 85, 54); stroke-miterlimit: 10; stroke-width: 0.5px;"/>
      <path class="cls-7" d="M139,104.68l-24.83,91.79L113,200.71H52.9l-1.25-4.24L24.37,103.65a142.49,142.49,0,0,1,19.34-6.31q1.44-.37,2.91-.69,5.49-1.27,11.16-2.12c1.18-.17,2.37-.34,3.57-.48,2.72-.35,5.48-.62,8.25-.81,1.1-.08,2.2-.14,3.3-.19,2.5-.13,5-.19,7.55-.19a151.16,151.16,0,0,1,17.8,1q2.7.3,5.35.71A144.88,144.88,0,0,1,139,104.68Z" style="fill: rgb(228, 199, 189); stroke: rgb(174, 85, 54); stroke-miterlimit: 10; stroke-width: 0.5px;"/>
      <path class="cls-8" d="M145.37,81.15,144.06,86a160.4,160.4,0,0,0-18-6c-1-.27-1.93-.52-2.91-.76a165,165,0,0,0-19.51-3.68c-1.46-.2-2.93-.37-4.4-.54-1-.1-2.1-.2-3.15-.28-1.35-.12-2.71-.23-4.07-.31q-5.73-.37-11.54-.37h-.92c-1.08,0-2.17,0-3.25,0a171.1,171.1,0,0,0-20.36,1.63c-1.16.14-2.32.32-3.47.51a166.78,166.78,0,0,0-33.51,8.89l-1.41-4.79c3.55-1.35,7.17-2.59,10.84-3.69L19.47,43.9a1.5,1.5,0,0,1,2.89-.79l2.53,9.29c.7-3.26,2.16-7.7,5.09-9.88a6.66,6.66,0,0,1,5.64-1.14c1.64.36,2.46.8,2.81,1.51.43.89,0,1.81-.61,3.09a20,20,0,0,0-1.39,3.58c-.42,1.54-.05,4.21,1.71,5a.76.76,0,0,1,.38,1,.75.75,0,0,1-1,.38c-2.66-1.18-3.09-4.73-2.55-6.75a22.48,22.48,0,0,1,1.48-3.84c.35-.72.74-1.54.62-1.78,0-.08-.29-.38-1.78-.71a5.21,5.21,0,0,0-4.43.88c-3.7,2.75-4.79,10.13-5,12.18l5.42,19.94a169.25,169.25,0,0,1,17.21-4h0c1.35-.24,2.71-.48,4.08-.68a181.68,181.68,0,0,1,21.89-2c1.14,0,2.28-.07,3.43-.08h2.58c2.6,0,5.2,0,7.78.17,1.36,0,2.72.11,4.07.21q3.48.21,6.92.57c1.47.14,2.94.31,4.39.51a172.37,172.37,0,0,1,20.57,3.85c1,.22,2,.47,2.92.75,2.48.65,4.94,1.37,7.37,2.14L142.33,45a1.5,1.5,0,0,1,2.92.7l-7.91,32.48C140,79.13,142.73,80.09,145.37,81.15Z" style="fill: rgb(227, 180, 161); stroke: rgb(174, 85, 54); stroke-miterlimit: 10; stroke-width: 0.5px;"/>
      <path class="cls-9" d="M142.67,91.08l-1.31,4.85A157,157,0,0,0,103.6,85.79q-2.73-.39-5.49-.67a165.66,165.66,0,0,0-17.66-.94c-1.66,0-3.31,0-5,.07s-3.17.12-4.74.21q-5.84.35-11.52,1.08c-1.13.14-2.25.29-3.36.47q-5.66.82-11.15,2.06l1.89,8.58L56,139.06a1.48,1.48,0,0,1-1.14,1.78,1.17,1.17,0,0,1-.32,0,1.49,1.49,0,0,1-1.46-1.18L43.71,97.34l-1.9-8.6a153.87,153.87,0,0,0-20,6.28l-1.41-4.8a161.25,161.25,0,0,1,34.11-9.07c1.08-.17,2.17-.33,3.26-.47,2-.26,3.91-.49,5.89-.67,1.07-.12,2.15-.22,3.24-.29,4.45-.36,9-.54,13.53-.54q8,0,15.7.72c2.51.22,5,.51,7.46.85A163.93,163.93,0,0,1,122,84.32l1.11-5.07,1.06-4.87,1.88-8.57a1.5,1.5,0,0,1,2.94.64l-1.9,8.68L126,80l-1.12,5.08A160.31,160.31,0,0,1,142.67,91.08Z" style="fill: rgb(181, 216, 225); stroke: rgb(174, 85, 54); stroke-miterlimit: 10; stroke-width: 0.5px;"/>
      <path class="cls-10" d="M112,143.41l-1.18-3.25a25.31,25.31,0,0,0-6.49,4c-.67.51-.69-1.84-.69-1.84-.08-42.23,0-50.53,0-105.81a7.27,7.27,0,0,1,6.67-7.17l.27-.05L110,26.17A11,11,0,0,0,102.7,30a2.55,2.55,0,0,1-1.43.88,1.89,1.89,0,0,1-1.31-.72,10.4,10.4,0,0,0-6.43-4L93,29.35h0A7.52,7.52,0,0,1,96.1,30.8,7.9,7.9,0,0,1,99,36.63v0c.09,3.54.34,39.63.15,41.89a21.68,21.68,0,0,0-2.68-3.21c-.64-.94-2.17-3-4-5.61-3.07-4.44-6.52-10-11.06-12.1-1.93-1.34-8.17-1.34-8.28,5.12A21.45,21.45,0,0,0,75,70.62c.77,1.76,1.56,3.57,1.23,4.46s-1.61.84-4.53.28C69,74.83,64.78,74,63.81,78a4.42,4.42,0,0,0,.38,3.46c1,1.65,3,2.11,4.89,2.55,2.74.64,3.59,1,3.62,2.3A4.18,4.18,0,0,1,71.51,89a7.5,7.5,0,0,0-1.82,6.18c.45,2.75,2.36,3.79,3.89,4.63,1.76,1,3.16,1.73,3.22,5.14l.85,42.9a1.6,1.6,0,0,0,.38,1l.58.06c.48,9.81,2.91,37.72,2.91,39.74,0,2.81-1.4,4.84-2.69,5.11-1.14.23-2.36-.89-3.32-3.09C73.43,185.92,67,150,63.2,110.18c.45-.28.78-.89.78-2.08.23-.44-4.85-28.57-9.35-34.59a26.62,26.62,0,0,0-4.25-4.24c-2.48-1.84-3.86-3-3.36-5.26a2.6,2.6,0,0,1,1.7-2.13c1.27-.31,3,.75,4.76,2.9,2.16,2.64,5,4.06,7.77,3.88a5.53,5.53,0,0,0,4.42-2.34c2-3.24.28-5.9-.89-7.66s-1.44-2.41-1-3.25c.62-1.08,1.79-1,4.78-.11,2.08.6,4.24,1.22,5.95.16a4.17,4.17,0,0,0,1.81-3c.63-3.52-1.84-4.91-3.64-5.92C71.32,45.78,70,45,69.4,43.4s-.29-3.63,0-5.62c.35-2.54.67-4.94-.73-6.65A4.86,4.86,0,0,0,65,29.51c-4.23-.27-4.92,4.15-5.42,7.37-.72,4.6-1.38,6.76-4.34,6.72a5.35,5.35,0,0,1-3-1.29A14.6,14.6,0,0,0,50.23,41a8.35,8.35,0,0,0-3.38-.88A7.09,7.09,0,0,0,40,44.85a1,1,0,0,0,.58,1.28c.51.19.84-.27,1.09-.73a5.74,5.74,0,0,1,5.18-3.26,5.89,5.89,0,0,1,4.49,3.35,6.07,6.07,0,0,1-.25,4.56,5.54,5.54,0,0,1-2.71,2.66c-2.1.94-3.92-.4-5.15-1.45-.42-.36-1.15-.93-1.58-.59a1,1,0,0,0-.17,1.39c1.56,2,5.19,3.59,7.91,2.72a6.54,6.54,0,0,0,4.16-4.08c.53-1.47,1.11-3.69,2.72-3.92,5.14-.57,6-5.84,6.52-9.4.59-3.8,1-4.71,2-4.65a2,2,0,0,1,1.33.44c.51.62.25,2.51,0,4.17-.31,2.27-.66,4.85.19,7.17,1,2.75,3.18,4,4.77,4.87,1.89,1.07,2.25,1.38,2,2.54-.09.49-.23.74-.33.8-.49.31-2.21-.19-3.34-.52-2.59-.75-6.5-1.87-8.49,1.61-1.54,2.69,0,5,1.07,6.63,1.29,1.95,1.7,2.81.85,4.16a2.43,2.43,0,0,1-1.88.84A6.36,6.36,0,0,1,56,62.73c-3.52-4.3-6.53-4.35-8-4a5.77,5.77,0,0,0-4.1,4.58c-1,4.42,2.12,6.71,4.59,8.55a13.89,13.89,0,0,1,2.74,2.44c3.44,4.54,4.69,11.65,6.34,19,1.91,8.51,2.69,16.42,3.49,16.7a3.54,3.54,0,0,0,.4.17c1.65,17.39,9.89,75.3,12.44,81.16,1.55,3.56,3.49,4.19,4.67,4.19a3.19,3.19,0,0,0,.65-.07c2.35-.49,4.11-3.44,4.11-6.86,0-2.08-2.38-29.18-2.9-39.71a1.59,1.59,0,0,0,.49-1.17L80,104.86c-.1-5.28-2.88-6.8-4.9-7.91-1.42-.78-2.06-1.17-2.25-2.32-.28-1.69.36-2.55,1.24-3.74a7.22,7.22,0,0,0,1.82-4.64c-.08-4-3.71-4.82-6.12-5.38-1.14-.27-2.56-.6-2.87-1.1a1.59,1.59,0,0,1,0-1c.18-.74.83-.89,4.16-.25,2.88.56,6.83,1.32,8.17-2.34.78-2.11-.23-4.42-1.3-6.87s-1.75-4.24-1.66-5.88c0,0-.38-2.26,2.59-2.78C82.59,60,89.27,71.05,94.6,78h0l0,0c.56.73,1.11,1.41,1.64,2v0a14.28,14.28,0,0,1,1.25,2.1,20.13,20.13,0,0,1,.73,5h0V119s0,1.09-.59.46a13.48,13.48,0,0,0-6.73-3.85L90.1,119c5.19,1.25,8.15,6,8.15,9.62l-.91,72h6.19l.13-47.4C103.67,150.16,106.51,145.37,112,143.41Z" style="fill: rgb(246, 230, 167); stroke: rgb(174, 85, 54); stroke-miterlimit: 10; stroke-width: 0.5px; stroke-linecap: round; stroke-linejoin: round;"/>
      <ellipse class="cls-11" cx="90.54" cy="117.33" rx="1.73" ry="1.04" transform="translate(-44.4 178.61) rotate(-76.77)" style="fill: rgb(234, 200, 59); stroke: rgb(174, 85, 54); stroke-miterlimit: 10; stroke-width: 0.5px; stroke-linecap: round; stroke-linejoin: round;"/>
      <ellipse class="cls-11" cx="93.26" cy="27.76" rx="1.61" ry="0.97" transform="translate(51.96 115.87) rotate(-81.46)" style="fill: rgb(234, 200, 59); stroke: rgb(174, 85, 54); stroke-miterlimit: 10; stroke-width: 0.5px; stroke-linecap: round; stroke-linejoin: round;"/>
      <ellipse class="cls-11" cx="111.53" cy="141.75" rx="1.04" ry="1.73" transform="translate(-42.91 48.58) rotate(-20.7)" style="fill: rgb(234, 200, 59); stroke: rgb(174, 85, 54); stroke-miterlimit: 10; stroke-width: 0.5px; stroke-linecap: round; stroke-linejoin: round;"/>
      <ellipse class="cls-11" cx="110.27" cy="27.76" rx="0.96" ry="1.6" transform="translate(-2.5 13.19) rotate(-6.77)" style="fill: rgb(234, 200, 59); stroke: rgb(174, 85, 54); stroke-miterlimit: 10; stroke-width: 0.5px; stroke-linecap: round; stroke-linejoin: round;"/>
      <g class="cls-12" style="mask: url(#mask); fill: rgb(255, 194, 168); stroke: rgb(57, 133, 142); stroke-linecap: round; stroke-linejoin: round;">
        <path class="cls-13" d="M41.83,48.7h0l-.23,0h.27Z" style="fill: rgb(244, 233, 229); stroke: rgb(174, 85, 54); stroke-linecap: round; stroke-linejoin: round; stroke-width: 0.5px; font-family: ArialMT, Arial; font-size: 20px; line-height: 32px;"/>
        <path class="cls-14" d="M50.42,47.53a.93.93,0,0,0,0-.13c0-.63-.53-.91-.89-1.09a1.37,1.37,0,0,1-.36-.23l0,0A.86.86,0,0,0,49,45h0l-.09,0a1,1,0,0,0,0-.15,1,1,0,0,0-.27-.33,1.24,1.24,0,0,0-.78-.21v0a1.18,1.18,0,0,0-.17-.72.88.88,0,0,0-.22-.25.85.85,0,0,0-.56-.19,1.19,1.19,0,0,0-1,.58h0a1.24,1.24,0,0,0-.79.65.73.73,0,0,0,0,.07,1.61,1.61,0,0,0-.39-.15,1.75,1.75,0,0,0-1.71.83,9.49,9.49,0,0,1-.71.89,3.19,3.19,0,0,1-2.46.94,1.38,1.38,0,0,1-1.09-.78c-.26-.56-.16-2,1.24-3.38a3.37,3.37,0,0,0,1-2.48,4.08,4.08,0,0,0-1.3-2.87l-1,1a2.71,2.71,0,0,1,.85,1.86,2,2,0,0,1-.59,1.46c-1.8,1.82-2,3.85-1.52,5a2.81,2.81,0,0,0,2.06,1.56,3.52,3.52,0,0,0,3.18-.86l.12-.1a5.47,5.47,0,0,0,.09.94.68.68,0,0,0,.05.12,3.17,3.17,0,0,1-1.11.33l-.23,0a5.57,5.57,0,0,0-.85.16,4.34,4.34,0,0,0-2.06,1.25A2.75,2.75,0,0,0,38.18,53a6.26,6.26,0,0,0,1.54,2.4c.91.94,1.47,1.51.71,2.92l1.25.67c1.24-2.33,0-3.57-.94-4.58a3.9,3.9,0,0,1-1.17-1.73,1.92,1.92,0,0,1,.19-1.58A3,3,0,0,1,41.89,50v0A.44.44,0,0,1,42,50h.3A4,4,0,0,1,43,50a2.14,2.14,0,0,1,1.43,1,3.08,3.08,0,0,0,.9.92,1.67,1.67,0,0,0,2.1-.1,1.61,1.61,0,0,0,.33-.46,1.53,1.53,0,0,0,.56-.2A1.27,1.27,0,0,0,49,50c0-.5-.26-.69.4-.69a1.11,1.11,0,0,0,1.19-1.13A1.54,1.54,0,0,0,50.42,47.53Z" style="fill: rgb(246, 230, 167); stroke: rgb(174, 85, 54); stroke-linecap: round; stroke-linejoin: round; stroke-width: 0.5px; letter-spacing: -1.05px; isolation: isolate;"/>
      </g>
    </symbol>
    <mask id="mask" x="35.34" y="34.31" width="15.48" height="26.33" maskUnits="userSpaceOnUse">
      <g class="cls-15" style="filter: url(#luminosity-noclip); fill: url(#Unbenannter_Verlauf_4);">
        <polygon class="cls-1" points="37.93 54.98 38.22 60.64 44.11 60.34 43.82 54.67 37.93 54.98" style="fill: url(#Unbenannter_Verlauf_18); isolation: isolate; stroke: rgb(121, 135, 40); stroke-miterlimit: 10;"/>
        <polygon class="cls-2" points="43.06 39.47 40.7 34.31 35.34 36.76 37.7 41.92 43.06 39.47" style="fill: url(#Unbenannter_Verlauf_14);"/>
      </g>
    </mask>
    <linearGradient id="Unbenannter_Verlauf_4" x1="197" y1="82.19" x2="367.24" y2="82.19" gradientUnits="userSpaceOnUse">
      <stop offset="0" stop-color="#f2987f"/>
      <stop offset="1" stop-color="#f2987f" stop-opacity="0.1"/>
    </linearGradient>
    <filter id="luminosity-noclip" x="35.34" y="34.31" width="15.48" height="26.33" filterUnits="userSpaceOnUse" color-interpolation-filters="sRGB">
      <feFlood flood-color="#fff" result="bg"/>
      <feBlend in="SourceGraphic" in2="bg"/>
    </filter>
    <linearGradient id="Unbenannter_Verlauf_18" x1="17394.41" y1="13425.33" x2="17400.3" y2="13425.33" gradientTransform="matrix(-0.05, -0.96, -1, 0.05, 14306.85, 16102.41)" gradientUnits="userSpaceOnUse">
      <stop offset="0.59"/>
      <stop offset="1" stop-color="#fff"/>
    </linearGradient>
    <linearGradient id="Unbenannter_Verlauf_14" x1="-2390.13" y1="6561.64" x2="-2384.24" y2="6561.64" gradientTransform="matrix(0.4, 0.88, 0.91, -0.42, -4973.86, 4855.75)" gradientUnits="userSpaceOnUse">
      <stop offset="0.59"/>
      <stop offset="1" stop-color="#fff"/>
    </linearGradient>
    <symbol id="Pfeil" data-name="Pfeil" viewBox="0 0 70 77.95">
      <path class="cls-1" d="M55.63,26.92a71.28,71.28,0,0,0-18.74,4.83,59,59,0,0,0-16.6,10.51,63.77,63.77,0,0,0-12.73,16A70.51,70.51,0,0,0,3,67.72,60.29,60.29,0,0,0,0,78,61.34,61.34,0,0,1,.92,67.14a73.82,73.82,0,0,1,2.6-10.69A69.34,69.34,0,0,1,30.43,20.24,86.6,86.6,0,0,1,51.59,9.79Z" style="fill: rgb(153, 153, 153); isolation: isolate; stroke: rgb(153, 153, 153); stroke-miterlimit: 10;"/>
      <polygon class="cls-1" points="54.06 37.81 48.15 0 70 15.95 54.06 37.81" style="fill: rgb(153, 153, 153); isolation: isolate; stroke: rgb(153, 153, 153); stroke-miterlimit: 10;"/>
    </symbol>
  </defs>
  <title>Napo_Zooms_170427Kidney 1.6</title>
  <g class="cls-1">
    <g id="Ebene_30" data-name="Ebene 30">
      <g id="Rahmen-3" data-name="Rahmen">
        <rect class="cls-2" width="560" height="500"/>
      </g>
    </g>
    <g id="Zellen_HG" data-name="Zellen HG">
      <polyline class="cls-3" points="491.53 213.92 491.53 -14.51 561.53 -14.51 561.53 514.51 491.53 514.51 491.53 251.94"/>
      <line class="cls-4" x1="127.55" y1="55.23" x2="375.15" y2="55.23"/>
      <polygon class="cls-5" points="372.16 58.91 371.55 58.25 374.8 55.23 371.55 52.2 372.16 51.55 376.12 55.23 372.16 58.91"/>
      <line class="cls-4" x1="136.77" y1="444.14" x2="397.51" y2="444.14"/>
      <polygon class="cls-5" points="394.53 447.82 393.92 447.16 397.17 444.14 393.92 441.12 394.53 440.46 398.49 444.14 394.53 447.82"/>
      <path class="cls-6" d="M150.77,431.7v-5.49c0-3,5.4-5.49,12-5.49h8.69c6.6,0,12-4.87,12-10.83s-5.4-10.83-12-10.83h-8.69a11.86,11.86,0,1,1,0-23.71h8.69c6.6,0,12-4.87,12-10.83s-5.4-10.82-12-10.82h-8.69a11.86,11.86,0,1,1,0-23.72h8.69c6.6,0,12-4.87,12-10.82s-5.4-10.83-12-10.83h-8.69a11.86,11.86,0,1,1,0-23.71h8.69c6.6,0,12-4.88,12-10.83s-5.4-10.83-12-10.83h-8.69a11.86,11.86,0,1,1,0-23.71h8.69c6.6,0,12-4.87,12-10.83s-5.4-10.82-12-10.82h-8.69a11.86,11.86,0,1,1,0-23.72h8.69c6.6,0,12-4.87,12-10.82s-5.4-10.83-12-10.83h-8.69a11.86,11.86,0,1,1,0-23.71h8.69c6.6,0,12-4.88,12-10.83s-5.4-10.83-12-10.83h-8.69a11.86,11.86,0,1,1,0-23.71h8.69c6.6,0,12-4.87,12-10.83s-5.4-10.83-12-10.83h-8.69c-6.6,0-12-2.86-12-6.36V68.77h199.3a82.82,82.82,0,0,1,82.82,82.81V348.89a82.81,82.81,0,0,1-82.82,82.81Z"/>
      <path class="cls-7" d="M150.77,431.7v-5.49c0-3,5.4-5.49,12-5.49h8.69c6.6,0,12-4.87,12-10.83s-5.4-10.83-12-10.83h-8.69a11.86,11.86,0,1,1,0-23.71h8.69c6.6,0,12-4.87,12-10.83s-5.4-10.82-12-10.82h-8.69a11.86,11.86,0,1,1,0-23.72h8.69c6.6,0,12-4.87,12-10.82s-5.4-10.83-12-10.83h-8.69a11.86,11.86,0,1,1,0-23.71h8.69c6.6,0,12-4.88,12-10.83s-5.4-10.83-12-10.83h-8.69a11.86,11.86,0,1,1,0-23.71h8.69c6.6,0,12-4.87,12-10.83s-5.4-10.82-12-10.82h-8.69a11.86,11.86,0,1,1,0-23.72h8.69c6.6,0,12-4.87,12-10.82s-5.4-10.83-12-10.83h-8.69a11.86,11.86,0,1,1,0-23.71h8.69c6.6,0,12-4.88,12-10.83s-5.4-10.83-12-10.83h-8.69a11.86,11.86,0,1,1,0-23.71h8.69c6.6,0,12-4.87,12-10.83s-5.4-10.83-12-10.83h-8.69c-6.6,0-12-2.86-12-6.36V68.77h199.3a82.82,82.82,0,0,1,82.82,82.81V348.89a82.81,82.81,0,0,1-82.82,82.81Z"/>
      <path class="cls-8" d="M150.77,431.7v-5.49c0-3,5.4-5.49,12-5.49h8.69c6.6,0,12-4.87,12-10.83s-5.4-10.83-12-10.83h-8.69a11.86,11.86,0,1,1,0-23.71h8.69c6.6,0,12-4.87,12-10.83s-5.4-10.82-12-10.82h-8.69a11.86,11.86,0,1,1,0-23.72h8.69c6.6,0,12-4.87,12-10.82s-5.4-10.83-12-10.83h-8.69a11.86,11.86,0,1,1,0-23.71h8.69c6.6,0,12-4.88,12-10.83s-5.4-10.83-12-10.83h-8.69a11.86,11.86,0,1,1,0-23.71h8.69c6.6,0,12-4.87,12-10.83s-5.4-10.82-12-10.82h-8.69a11.86,11.86,0,1,1,0-23.72h8.69c6.6,0,12-4.87,12-10.82s-5.4-10.83-12-10.83h-8.69a11.86,11.86,0,1,1,0-23.71h8.69c6.6,0,12-4.88,12-10.83s-5.4-10.83-12-10.83h-8.69a11.86,11.86,0,1,1,0-23.71h8.69c6.6,0,12-4.87,12-10.83s-5.4-10.83-12-10.83h-8.69c-6.6,0-12-2.86-12-6.36V68.77h199.3a82.82,82.82,0,0,1,82.82,82.81V348.89a82.81,82.81,0,0,1-82.82,82.81Z"/>
      <path class="cls-6" d="M425.49-5.31a82.79,82.79,0,0,1-75.42,48.58H150.78V37.79c0-3,5.4-5.5,12-5.5h8.68c6.6,0,12-4.88,12-10.82s-5.4-10.84-12-10.84h-8.68a12,12,0,0,1-12-11.86,11.54,11.54,0,0,1,.74-4.08"/>
      <path class="cls-7" d="M425.49-5.31a82.79,82.79,0,0,1-75.42,48.58H150.78V37.79c0-3,5.4-5.5,12-5.5h8.68c6.6,0,12-4.88,12-10.82s-5.4-10.84-12-10.84h-8.68a12,12,0,0,1-12-11.86,11.54,11.54,0,0,1,.74-4.08"/>
      <path class="cls-8" d="M425.49-5.31a82.79,82.79,0,0,1-75.42,48.58H150.78V37.79c0-3,5.4-5.5,12-5.5h8.68c6.6,0,12-4.88,12-10.82s-5.4-10.84-12-10.84h-8.68a12,12,0,0,1-12-11.86,11.54,11.54,0,0,1,.74-4.08"/>
      <path class="cls-6" d="M425.49,505.78a82.79,82.79,0,0,0-75.42-48.58H150.78v5.48c0,3,5.4,5.5,12,5.5h8.68c6.6,0,12,4.88,12,10.82s-5.4,10.84-12,10.84h-8.68a12,12,0,0,0-12,11.86,11.54,11.54,0,0,0,.74,4.08"/>
      <path class="cls-7" d="M425.49,505.78a82.79,82.79,0,0,0-75.42-48.58H150.78v5.48c0,3,5.4,5.5,12,5.5h8.68c6.6,0,12,4.88,12,10.82s-5.4,10.84-12,10.84h-8.68a12,12,0,0,0-12,11.86,11.54,11.54,0,0,0,.74,4.08"/>
      <path class="cls-8" d="M425.49,505.78a82.79,82.79,0,0,0-75.42-48.58H150.78v5.48c0,3,5.4,5.5,12,5.5h8.68c6.6,0,12,4.88,12,10.82s-5.4,10.84-12,10.84h-8.68a12,12,0,0,0-12,11.86,11.54,11.54,0,0,0,.74,4.08"/>
      <g id="Neues_Symbol_5-6" data-name="Neues Symbol 5">
        <rect class="cls-9" x="203.53" y="36.78" width="13.11" height="35.9" rx="6.56" ry="6.56"/>
        <rect class="cls-9" x="222.07" y="36.78" width="13.11" height="35.9" rx="6.56" ry="6.56"/>
      </g>
      <g id="Neues_Symbol_5-7" data-name="Neues Symbol 5">
        <rect class="cls-9" x="203.53" y="425.69" width="13.11" height="35.9" rx="6.56" ry="6.56"/>
        <rect class="cls-9" x="222.07" y="425.69" width="13.11" height="35.9" rx="6.56" ry="6.56"/>
      </g>
      <g id="PTH_kugel-5" data-name="PTH kugel" transform="matrix(1, 0, 0, 1, 50.423515, 30.171448)">
        <circle class="cls-10" cx="408.62" cy="138.08" r="4.5"/>
      </g>
      <g id="PTH_kugel-6" data-name="PTH kugel">
        <circle class="cls-10" cx="462.689" cy="151.905" r="4.5"/>
      </g>
      <g id="PTH_kugel-7" data-name="PTH kugel" transform="matrix(1, 0, 0, 1, 71.915504, -3.30646)">
        <circle class="cls-10" cx="381.04" cy="139.5" r="4.5"/>
      </g>
      <g id="g-1" data-name="PTH kugel" transform="matrix(1, 0, 0, 1, 39.624573, 13.641827)">
        <circle class="cls-10" cx="408.62" cy="138.08" r="4.5" style="fill: rgb(146, 214, 223); stroke: rgb(57, 133, 142); stroke-linecap: round; stroke-linejoin: round;"/>
      </g>
    </g>
    <g id="Icons">
      <g id="Text">
        <path class="cls-4" d="M161.46,316.88H238a20.06,20.06,0,0,1,20,20v12.33a20.06,20.06,0,0,1-20,20H175.15"/>
        <polygon class="cls-5" points="177.8 365.94 178.34 366.53 175.46 369.21 178.34 371.9 177.8 372.48 174.28 369.21 177.8 365.94"/>
        <ellipse class="cls-15" cx="357.43" cy="296.48" rx="7.05" ry="16"/>
        <line class="cls-4" x1="217.07" y1="297.84" x2="463.94" y2="297.84"/>
        <polygon class="cls-5" points="460.95 301.52 460.34 300.86 463.59 297.84 460.34 294.81 460.95 294.15 464.91 297.84 460.95 301.52"/>
        <path class="cls-2" d="M444.33,280.48H357.42c3.9,0,7.06,7.16,7.06,16s-3.16,16-7.06,16h86.91c3.89,0,7.05-7.16,7.05-16S448.22,280.48,444.33,280.48Z"/>
        <path class="cls-2" d="M444.33,280.48H357.42c3.9,0,7.06,7.16,7.06,16s-3.16,16-7.06,16h86.91c3.89,0,7.05-7.16,7.05-16S448.22,280.48,444.33,280.48Z"/>
        <path class="cls-16" d="M444.33,280.48H357.42c3.9,0,7.06,7.16,7.06,16s-3.16,16-7.06,16h86.91c3.89,0,7.05-7.16,7.05-16S448.22,280.48,444.33,280.48Z"/>
        <line class="cls-4" x1="179.05" y1="369.21" x2="102.49" y2="369.21"/>
        <polygon class="cls-5" points="105.48 365.53 106.09 366.19 102.84 369.21 106.09 372.23 105.48 372.89 101.52 369.21 105.48 365.53"/>
        <ellipse class="cls-15" cx="142.59" cy="294.75" rx="14.54" ry="33"/>
        <line class="cls-4" x1="122.92" y1="269.98" x2="266.71" y2="269.98"/>
        <polygon class="cls-5" points="263.73 273.66 263.12 273 266.37 269.98 263.12 266.96 263.73 266.3 267.69 269.98 263.73 273.66"/>
        <line class="cls-4" x1="122.92" y1="294.75" x2="228.63" y2="294.75"/>
        <polygon class="cls-5" points="225.65 298.43 225.04 297.77 228.29 294.75 225.04 291.73 225.65 291.07 229.61 294.75 225.65 298.43"/>
        <line class="cls-4" x1="121.25" y1="318.25" x2="226.97" y2="318.25"/>
        <polygon class="cls-5" points="223.99 321.93 223.37 321.27 226.62 318.25 223.37 315.23 223.99 314.57 227.94 318.25 223.99 321.93"/>
        <path class="cls-2" d="M227.91,261.75H142.58c8,0,14.55,14.76,14.55,33s-6.51,33-14.55,33h85.33c8,0,14.55-14.76,14.55-33S236,261.75,227.91,261.75Z"/>
        <path class="cls-2" d="M227.91,261.75H142.58c8,0,14.55,14.76,14.55,33s-6.51,33-14.55,33h85.33c8,0,14.55-14.76,14.55-33S236,261.75,227.91,261.75Z"/>
        <path class="cls-16" d="M227.91,261.75H142.58c8,0,14.55,14.76,14.55,33s-6.51,33-14.55,33h85.33c8,0,14.55-14.76,14.55-33S236,261.75,227.91,261.75Z"/>
        <g id="DNA-2" data-name="DNA">
          <rect class="cls-17" x="197.53" y="126.37" width="91.89" height="59.65" rx="27.84" ry="27.84"/>
          <text class="cls-18" transform="translate(222.97 178.98)" style="white-space: pre;">DN<tspan class="cls-19" x="28.89" y="0">A</tspan></text>
        </g>
        <g id="PTH_Rezeptor_klein-2" data-name="PTH Rezeptor klein">
          <g id="Neues_Symbol_3-2" data-name="Neues Symbol 3">
            <path class="cls-20" d="M442.46,167.14l-15,.05-.09-30,15-.05,0,10a5,5,0,1,0,0,10v0Z"/>
          </g>
        </g>
        <g id="ATP_Ase-2" data-name="ATP Ase">
          <line class="cls-4" x1="360.38" y1="223.18" x2="522.02" y2="223.18"/>
          <polygon class="cls-5" points="519.04 226.87 518.43 226.21 521.68 223.19 518.43 220.16 519.04 219.5 523 223.19 519.04 226.87"/>
          <line class="cls-4" x1="503" y1="241.19" x2="334.31" y2="241.19"/>
          <polygon class="cls-5" points="337.29 237.51 337.9 238.17 334.65 241.19 337.9 244.21 337.29 244.87 333.33 241.19 337.29 237.51"/>
          <rect class="cls-2" x="379.47" y="216.73" width="90" height="32" rx="16" ry="16"/>
          <rect class="cls-16" x="379.47" y="216.73" width="90" height="32" rx="16" ry="16"/>
          <text class="cls-18" transform="translate(391.61 239.53)" style="white-space: pre;"><tspan class="cls-21">A</tspan><tspan x="11.86" y="0">TPase</tspan></text>
        </g>
        <g id="CaSR">
          <path class="cls-22" d="M419.12,108.06,402,112.66a2.61,2.61,0,1,1-1.36-5l14.65-3.93-4.58-17.07-3.53,1,3.42,12.77a2.61,2.61,0,0,1-1.85,3.2l-8.58,2.3a2.6,2.6,0,0,1-3.2-1.85l-5.87-21.89a2.61,2.61,0,0,1,1.85-3.2l17.16-4.6a2.61,2.61,0,1,1,1.36,5l-14.65,3.93,4.52,16.85,3.53-1-3.42-12.77a2.62,2.62,0,0,1,1.85-3.2l8.58-2.3a2.6,2.6,0,0,1,3.2,1.85L421,104.86A2.62,2.62,0,0,1,419.12,108.06Z"/>
        </g>
        <g id="CAP">
          <circle class="cls-23" cx="123.67" cy="46.8" r="4.5"/>
        </g>
        <g id="CAP-2" data-name="CAP">
          <circle class="cls-23" cx="116.43" cy="417.9" r="4.5"/>
        </g>
        <g id="CAP-3" data-name="CAP">
          <circle class="cls-23" cx="132.61" cy="428.26" r="4.5"/>
        </g>
        <g id="CAP-4" data-name="CAP">
          <circle class="cls-23" cx="118.56" cy="452.87" r="4.5"/>
        </g>
        <g id="CAP-5" data-name="CAP">
          <circle class="cls-23" cx="109.97" cy="59.32" r="4.5"/>
        </g>
        <g id="CAP-6" data-name="CAP">
          <circle class="cls-23" cx="409.55" cy="445.56" r="4.5"/>
        </g>
        <g id="CAP-7" data-name="CAP">
          <circle class="cls-23" cx="129.61" cy="67.29" r="4.5"/>
        </g>
        <g id="CAP-8" data-name="CAP">
          <circle class="cls-23" cx="428.47" cy="80.66" r="4.5"/>
        </g>
        <g id="CAP-9" data-name="CAP">
          <circle class="cls-23" cx="432.89" cy="63.29" r="4.5"/>
        </g>
        <g id="CAP-10" data-name="CAP">
          <circle class="cls-23" cx="395.39" cy="51.84" r="4.5"/>
        </g>
        <g id="CAP-11" data-name="CAP">
          <circle class="cls-23" cx="440.88" cy="90.73" r="4.5"/>
        </g>
        <g id="Neues_Symbol" data-name="Neues Symbol">
          <rect class="cls-24" x="208.87" y="146.86" width="45.26" height="11.25"/>
          <polyline class="cls-25" points="232.4 146.01 254.25 146.01 254.25 140.41 273.01 140.41"/>
          <polygon class="cls-26" points="270.36 143.69 269.81 143.1 272.7 140.42 269.81 137.73 270.36 137.14 273.88 140.42 270.36 143.69"/>
        </g>
      </g>
    </g>
    <g id="Text-2" data-name="Text">
      <text class="cls-18" transform="translate(98.95 93.47)" style="white-space: pre;">Ca²</text>
      <text class="cls-27" transform="translate(131.18 86.81) scale(0.58)" style="white-space: pre;">+</text>
      <text class="cls-18" transform="translate(137.99 93.47)" style="white-space: pre;"> </text>
      <text class="cls-18" transform="translate(75.15 442.3)" style="white-space: pre;">Ca²</text>
      <text class="cls-27" transform="translate(107.38 435.64) scale(0.58)" style="white-space: pre;">+</text>
      <text class="cls-18" transform="translate(114.19 442.3)" style="white-space: pre;"> </text>
      <text class="cls-27" transform="translate(239.55 485.49)" style="white-space: pre;"><tspan class="cls-21">T</tspan><tspan x="10.73" y="0">A</tspan><tspan class="cls-28" x="25.18" y="0">L</tspan><tspan x="37.03" y="0"> cell</tspan></text>
      <text class="cls-18" transform="translate(421.46 449.61)" style="white-space: pre;">Ca²</text>
      <text class="cls-27" transform="translate(453.69 442.95) scale(0.58)" style="white-space: pre;">+</text>
      <text class="cls-18" transform="translate(460.5 449.61)" style="white-space: pre;"> </text>
      <text class="cls-18" transform="translate(442.29 80)" style="white-space: pre;">Ca²</text>
      <text class="cls-27" transform="translate(474.52 73.34) scale(0.58)" style="white-space: pre;">+</text>
      <text class="cls-18" transform="translate(481.33 80)" style="white-space: pre;"> </text>
      <text class="cls-18" transform="translate(335.18 105.01)" style="white-space: pre;">CaSR</text>
      <text class="cls-18" transform="translate(369.71 303.29)" style="white-space: pre;">CLC-Kb</text>
      <text class="cls-18" transform="translate(77.78 277.73)" style="white-space: pre;">Na</text>
      <text class="cls-27" transform="translate(103.34 271.07) scale(0.58)" style="white-space: pre;">+</text>
      <text class="cls-18" transform="translate(110.15 277.73)" style="white-space: pre;"> </text>
      <text class="cls-18" transform="translate(89.39 330.23)" style="white-space: pre;">K</text>
      <text class="cls-27" transform="translate(102.73 323.57) scale(0.58)" style="white-space: pre;">+</text>
      <text class="cls-18" transform="translate(109.54 330.23)" style="white-space: pre;"> </text>
      <text class="cls-29" transform="translate(77.73 379.53)" style="white-space: pre;">K</text>
      <text class="cls-30" transform="translate(88.41 374.2) scale(0.58)" style="white-space: pre;">+</text>
      <text class="cls-29" transform="translate(93.85 379.53)" style="white-space: pre;"> </text>
      <rect class="cls-2" x="142.91" y="351.47" width="80" height="32" rx="16" ry="16"/>
      <rect class="cls-16" x="142.91" y="351.47" width="80" height="32" rx="16" ry="16"/>
      <text class="cls-18" transform="translate(152.91 374.45)" style="white-space: pre;">ROMK</text>
      <text class="cls-18" transform="translate(163.63 301.38)" style="white-space: pre;">NKCC2</text>
      <text class="cls-18" transform="translate(71.06 303.98)" style="white-space: pre;">2 Cl</text>
      <text class="cls-27" transform="translate(106.62 297.32) scale(0.58)" style="white-space: pre;">-</text>
      <text class="cls-18" transform="translate(110.51 303.98)" style="white-space: pre;"> </text>
      <text class="cls-18" transform="translate(466.24 305.43)" style="white-space: pre;">Cl</text>
      <text class="cls-27" transform="translate(485.13 298.77) scale(0.58)" style="white-space: pre;">-</text>
      <text class="cls-18" transform="translate(489.01 305.43)" style="white-space: pre;"> </text>
      <text class="cls-31" transform="translate(377.96 27.08)" style="white-space: pre;">peritubular <tspan x="26.65" y="20">space</tspan></text>
      <text class="cls-27" transform="translate(377.96 27.08)" style="white-space: pre;">peritubular <tspan x="26.65" y="20">space</tspan></text>
      <text class="cls-27" transform="translate(499.32 33.92)" style="white-space: pre;">blood</text>
      <text class="cls-31" transform="translate(89.73 27.08)" style="white-space: pre;">lumen</text>
      <text class="cls-27" transform="translate(89.73 27.08)" style="white-space: pre;">lumen</text>
      <text class="cls-18" style="white-space: pre; font-size: 20px;" x="449.699" y="128.856">PTH</text>
      <text class="cls-18" transform="translate(508.69 246.59)" style="white-space: pre;">2 K</text>
      <text class="cls-27" transform="translate(538.71 239.93) scale(0.58)" style="white-space: pre;">+</text>
      <text class="cls-18" transform="translate(545.52 246.59)" style="white-space: pre;"> </text>
      <text class="cls-18" transform="translate(311.69 226.73)" style="white-space: pre;">3 Na</text>
      <text class="cls-27" transform="translate(353.93 220.07) scale(0.58)" style="white-space: pre;">+</text>
      <text class="cls-18" transform="translate(360.74 226.73)" style="white-space: pre;"> </text>
      <g id="Minus-4" data-name="Minus">
        <circle class="cls-26" cx="310.56" cy="89.81" r="8"/>
        <path class="cls-2" d="M306.06,91V88.66h9V91Z"/>
      </g>
      <g id="Plus-8" data-name="Plus" transform="matrix(1, 0, 0, 1, -26.164713, -9.10077)">
        <circle class="cls-32" cx="236.62" cy="107.51" r="8"/>
        <path class="cls-2" d="M235.49,112v-3.35h-3.37v-2.3h3.37V103h2.25v3.35h3.38v2.3h-3.38V112Z"/>
      </g>
    </g>
    <g id="Zoom_Rahmen" data-name="Zoom Rahmen">
      <g id="Neues_Symbol_2-3" data-name="Neues Symbol 2">
        <g id="Kidney_klein-6" data-name="Kidney klein">
          <circle class="cls-33" cx="50" cy="50" r="30"/>
        </g>
        <rect class="cls-33" width="560" height="500"/>
      </g>
    </g>
    <line style="stroke-width: 4; fill: rgb(26, 69, 84); stroke-dasharray: 4px; stroke: rgb(36, 122, 2);" x1="243.058" y1="139.579" x2="278.356" y2="110.924" transform="matrix(0.631421, -0.77544, 0.77544, 0.631421, -34.719488, 225.250884)"/>
    <line style="stroke-width: 4; fill: rgb(26, 69, 84); stroke: rgb(36, 122, 2);" x1="218.465" y1="77.378" x2="229.36" y2="84.854" transform="matrix(0.242792, -0.970078, 0.970078, 0.242792, 90.859393, 278.634311)"/>
    <line style="stroke-width: 4; fill: rgb(26, 69, 84); stroke: rgb(36, 122, 2);" x1="221.561" y1="76.817" x2="231.323" y2="84.221" transform="matrix(-0.99013, -0.14015, 0.14015, -0.99013, 443.14517, 192.63041)" bx:origin="0.696 0.526"/>
  </g>
  <line style="fill: rgb(26, 69, 84); stroke-width: 14; stroke: rgb(255, 235, 4);" x1="259.686" y1="102.127" x2="382.936" y2="29.098" transform="matrix(-0.75622, -0.654317, 0.654317, -0.75622, 521.36149, 325.469344)"/>
  <line style="fill: rgb(26, 69, 84); stroke-width: 14; stroke: rgb(255, 235, 4);" x1="249.976" y1="39.369" x2="282.228" y2="35.125" transform="matrix(-0.39143, 0.920208, -0.920208, -0.39143, 385.906197, -179.566727)" bx:origin="0.073 0.636"/>
  <line style="fill: rgb(26, 69, 84); stroke-width: 14; stroke: rgb(255, 235, 4);" x1="290.102" y1="188.355" x2="413.352" y2="115.326" transform="matrix(-0.855531, -0.517751, 0.517751, -0.855531, 574.024792, 463.851899)"/>
  <line style="fill: rgb(26, 69, 84); stroke-width: 14; stroke: rgb(255, 235, 4);" x1="270.335" y1="149.786" x2="299.158" y2="168.459" transform="matrix(-0.968896, -0.24747, 0.24747, -0.968896, 521.258059, 383.761798)"/>
  <line style="fill: rgb(26, 69, 84); stroke-width: 14; stroke: rgb(255, 235, 4);" x1="283.579" y1="119.312" x2="313.553" y2="137.796" transform="matrix(-0.231019, 0.972949, -0.972949, -0.231019, 479.30711, -116.689894)" bx:origin="0.073 0.636"/>
  <use width="161.72" height="202.21" transform="matrix(1.0148799419403076, 0, 0, 1.1261299848556519, -140.00222778320312, 6.331143856048584)" xlink:href="#Kidey_zoom"/>
  <rect x="-69.236" y="121.26" width="21.703" height="53.076" style="fill-opacity: 0.7; fill: rgb(88, 82, 82);"/>
  <g id="Ebene_13" data-name="Ebene 13" transform="matrix(1.596673, -0.406514, -0.376244, -1.477785, -19.669735, 286.073456)">
    <use width="70" height="77.95" transform="matrix(1, 0, 0, 1, 0, 0)" xlink:href="#Pfeil"/>
  </g>
  <text style="fill: rgb(51, 51, 51); font-size: 20px; white-space: pre;" x="-135.886" y="279.903">Thick ascending limb</text>
  <text style="fill: rgb(51, 51, 51); font-size: 20px; white-space: pre;" x="-81.051" y="571.088">NKCC2: Na-K-Cl cotransporter</text>
  <text style="fill: rgb(51, 51, 51); font-size: 20px; white-space: pre;" x="-102.44" y="599.206" transform="matrix(1, 0, 0, 1, 21.059584, -0.246264)">PTHr1: PTH receptor 1<tspan x="-102.44000244140625" dy="1em">​</tspan></text>
  <text style="fill: rgb(51, 51, 51); font-size: 20px; white-space: pre;" x="-102.44" y="599.206" transform="matrix(1, 0, 0, 1, 23.679609, 27.619307)">ROMK: renal outer medullary K+ channel<tspan x="-102.44000244140625" dy="1em">​</tspan></text>
  <text style="fill: rgb(51, 51, 51); font-size: 20px; white-space: pre;" x="-78.68" y="545.898">TAL: thick ascending limb</text>
  <text style="fill: rgb(51, 51, 51); font-size: 20px; white-space: pre;" x="204.781" y="31.186">claudines</text>
  <text style="fill: rgb(51, 51, 51); font-size: 20px; white-space: pre;" x="201.654" y="422.668">claudines</text>
  <text class="cls-24" style="fill: rgb(26, 69, 84); font-family: ArialMT, Arial; font-size: 20px; stroke: rgb(26, 69, 84); white-space: pre;" x="376.792" y="179.842">PTHr</text>
  <text class="cls-25" transform="matrix(1.000002, 0, 0, 1.000001, 422.093842, 183.840866)" style="fill: rgb(26, 69, 84); font-family: Arial-BoldMT, Arial; font-size: 11.6px; font-weight: bold; letter-spacing: 0.348px; stroke: rgb(26, 69, 84); white-space: pre;">1</text>
  <text style="fill: rgb(51, 51, 51); font-size: 20px; white-space: pre;" x="223.835" y="546.174">CLC-Kb: chloride channel Kb</text>
  <text style="fill: rgb(51, 51, 51); font-size: 20px; white-space: pre;" x="225.023" y="572.504">CaSR: calcium sensing receptor</text>
  <text x="725.47" y="521.717" style="white-space: pre; fill: rgb(51, 51, 51); font-size: 24px;"> </text>
</svg>