<?xml version="1.0" encoding="iso-8859-1"?>
<!-- Generator: Adobe Illustrator 16.0.0, SVG Export Plug-In . SVG Version: 6.00 Build 0)  -->
<!DOCTYPE svg PUBLIC "-//W3C//DTD SVG 1.1//EN" "http://www.w3.org/Graphics/SVG/1.1/DTD/svg11.dtd">
<svg version="1.1" id="Capa_1" xmlns="http://www.w3.org/2000/svg" xmlns:xlink="http://www.w3.org/1999/xlink" x="0px" y="0px"
	 width="106.059px" height="106.059px" viewBox="0 0 106.059 106.059" style="enable-background:new 0 0 106.059 106.059;"
	 xml:space="preserve">
<g>
	<path d="M15.515,15.511C-5.173,36.198-5.171,69.857,15.517,90.545c20.682,20.686,54.341,20.686,75.027-0.005
		c20.687-20.684,20.685-54.34,0.002-75.023C69.858-5.172,36.199-5.172,15.515,15.511z M84.757,84.756
		c-17.494,17.493-45.96,17.495-63.455,0.003c-17.498-17.498-17.496-45.967,0-63.461C38.796,3.806,67.261,3.804,84.759,21.301
		C102.253,38.794,102.251,67.262,84.757,84.756z M54.089,59.371c10.084,0,19.084,5.742,22.928,14.629
		c0.658,1.521-0.042,3.287-1.562,3.945c-1.521,0.659-3.286-0.042-3.944-1.563c-2.893-6.688-9.73-11.012-17.421-11.012
		c-7.868,0-14.747,4.32-17.522,11.005c-0.479,1.153-1.596,1.85-2.771,1.852c-0.384,0-0.773-0.074-1.15-0.23
		c-1.53-0.637-2.255-2.393-1.62-3.922C34.735,65.141,43.788,59.371,54.089,59.371z M30.045,33.472
		c-1.102-0.073-1.936-1.026-1.863-2.128c0.073-1.101,1.01-1.938,2.125-1.863c0.087,0.006,8.679,0.498,11.91-3.958
		c0.648-0.896,1.9-1.092,2.793-0.445c0.894,0.648,1.093,1.899,0.445,2.793c-3.717,5.125-11.401,5.632-14.292,5.632
		C30.528,33.503,30.125,33.479,30.045,33.472z M45.643,40.668c0,1.315-0.412,2.533-1.11,3.537c-1.127-1.549-2.949-2.561-5.011-2.561
		c-2.108,0-3.97,1.057-5.09,2.666c-0.744-1.023-1.189-2.279-1.189-3.643c0-3.424,2.777-6.201,6.2-6.201S45.643,37.244,45.643,40.668
		z M61.559,27.834c-0.647-0.894-0.448-2.145,0.445-2.793c0.895-0.646,2.146-0.45,2.793,0.445c3.231,4.456,11.823,3.964,11.91,3.958
		c1.116-0.074,2.052,0.763,2.125,1.863c0.073,1.102-0.761,2.055-1.863,2.128c-0.08,0.006-0.482,0.03-1.119,0.03
		C72.96,33.466,65.276,32.959,61.559,27.834z M67.572,34.429c3.423,0,6.2,2.777,6.2,6.201c0,1.363-0.445,2.619-1.189,3.643
		c-1.12-1.609-2.981-2.666-5.09-2.666c-2.062,0-3.884,1.012-5.011,2.561c-0.698-1.004-1.11-2.222-1.11-3.537
		C61.372,37.208,64.149,34.429,67.572,34.429z M33.196,59.792c-3.6,0-3.6-3.994-3.6-3.994c0.001-3.436,4.555-7.535,4.555-7.535
		c0.438,2.747,1.52,4.344,1.52,4.344c1.218,1.818,1.218,3.508,1.218,3.508C36.889,59.826,33.196,59.792,33.196,59.792z"/>
</g>
<g>
</g>
<g>
</g>
<g>
</g>
<g>
</g>
<g>
</g>
<g>
</g>
<g>
</g>
<g>
</g>
<g>
</g>
<g>
</g>
<g>
</g>
<g>
</g>
<g>
</g>
<g>
</g>
<g>
</g>
</svg>
