<?xml version="1.0" encoding="utf-8"?>
<svg viewBox="0 0 560 500" xmlns="http://www.w3.org/2000/svg" xmlns:xlink="http://www.w3.org/1999/xlink" xmlns:bx="https://boxy-svg.com">
  <defs>
    <style>.cls-1{fill:#c4d262;stroke:#798728;}.cls-1,.cls-16,.cls-17,.cls-19,.cls-20,.cls-21,.cls-9{stroke-miterlimit:10;}.cls-2{fill:#fdeabf;}.cls-3{fill:#f0d2ca;}.cls-16,.cls-17,.cls-19,.cls-3,.cls-4,.cls-5,.cls-9{stroke:#c34a29;}.cls-10,.cls-11,.cls-12,.cls-13,.cls-3,.cls-4,.cls-5{stroke-linecap:round;stroke-linejoin:round;}.cls-3,.cls-4,.cls-5{stroke-width:1.5px;}.cls-4{fill:#8fd5de;}.cls-5{fill:#f5ab96;}.cls-6{fill:#ff4c00;}.cls-7{fill:#fff;}.cls-17,.cls-19,.cls-20,.cls-21,.cls-23,.cls-8{fill:none;}.cls-9{fill:#f7e6e1;}.cls-10{fill:#d393cd;stroke:#a96193;}.cls-11{fill:#86d2dc;}.cls-11,.cls-12{stroke:#39858e;}.cls-12{fill:#92d6df;}.cls-13{fill:#f2987f;stroke:#d55a51;}.cls-14{isolation:isolate;}.cls-15,.cls-16{fill:#f9ccbf;}.cls-18{fill:#fbf2f0;}.cls-19{stroke-width:4px;}.cls-20{stroke:#f1d3cc;stroke-width:2px;}.cls-21{stroke:#1a4554;}.cls-22,.cls-23,.cls-24,.cls-25,.cls-26{font-size:20px;}.cls-22,.cls-24,.cls-25,.cls-26,.cls-28{fill:#1a4554;}.cls-22,.cls-23,.cls-25,.cls-26{font-family:Arial-BoldMT, Arial;font-weight:700;}.cls-23{stroke:#fff;stroke-width:3px;}.cls-24{font-family:ArialMT, Arial;}.cls-25{letter-spacing:0.03em;}.cls-26{letter-spacing:0.03em;}.cls-27{letter-spacing:0em;}.cls-29{letter-spacing:-0.07em;}.cls-30{mix-blend-mode:multiply;}</style>
    <symbol id="Rahmen" data-name="Rahmen" viewBox="0 0 560 500">
      <rect class="cls-7" width="560" height="500"/>
    </symbol>
    <symbol id="Neues_Symbol_5-2" data-name="Neues Symbol 5" viewBox="0 0 32.65 36.9">
      <rect class="cls-9" x="0.5" y="0.5" width="13.11" height="35.9" rx="6.56" ry="6.56"/>
      <rect class="cls-9" x="19.04" y="0.5" width="13.11" height="35.9" rx="6.56" ry="6.56"/>
    </symbol>
    <symbol id="Kidney_klein" data-name="Kidney klein" viewBox="0 0 60 61.09">
      <circle class="cls-2" cx="30" cy="31.09" r="30"/>
      <path class="cls-3" d="M49.31,28.79c0,19.64-14.55,30.43-25.66,22.25-9.44-6.95-1-16.21-1-16.21A10.46,10.46,0,0,1,20.8,31.3a9.53,9.53,0,0,1-.35-1.69c0-.19,0-.4,0-.61s0-.49,0-.72a6.55,6.55,0,0,1,.37-1.69,7,7,0,0,1,2-2.91,9.85,9.85,0,0,1-8.55-7.09C12.23,10.8,15.42.12,28.39.78,42.34,1.49,49.31,19.09,49.31,28.79Z"/>
      <path class="cls-4" d="M20.41,29c0,.21,0,.42,0,.61h-.09a10.72,10.72,0,0,1-3.87-.81,10,10,0,0,1-5.76-6.62,1.54,1.54,0,0,1,3-.69,6.89,6.89,0,0,0,6.73,5.05,1.88,1.88,0,0,1,.33.05,6.55,6.55,0,0,0-.37,1.69C20.41,28.51,20.41,28.75,20.41,29Z"/>
      <path class="cls-5" d="M20.8,31.3l-.18,0-3.7.51a3.65,3.65,0,0,0-3.16,3.61V58.28a1.54,1.54,0,1,1-3.07,0V35.46a6.76,6.76,0,0,1,5.8-6.66h0l3.7-.51h.22c0,.23,0,.47,0,.72s0,.42,0,.61A9.53,9.53,0,0,0,20.8,31.3Z"/>
    </symbol>
    <symbol id="Minus" data-name="Minus" viewBox="0 0 16 16">
      <circle class="cls-6" cx="8" cy="8" r="8"/>
      <path class="cls-7" d="M3.5,9.15V6.85h9v2.3Z"/>
    </symbol>
    <symbol id="PTH_kugel-2" data-name="PTH kugel" viewBox="0 0 10 10">
      <circle class="cls-12" cx="5" cy="5" r="4.5"/>
    </symbol>
    <symbol id="PTH_Rezeptor_klein" data-name="PTH Rezeptor klein" viewBox="0 0 16.09 31.05">
      <g id="Neues_Symbol_3" data-name="Neues Symbol 3">
        <path class="cls-11" d="M15.59,30.5l-15,.05L.5.55,15.5.5l0,10a5,5,0,1,0,0,10v0Z"/>
      </g>
    </symbol>
    <symbol id="PTHp_2" data-name="PTHp? 2" viewBox="0 0 15 26">
      <polygon class="cls-13" points="14.5 14.5 0.5 14.5 7.5 0.5 14.5 14.5"/>
      <line class="cls-13" x1="7.5" y1="25.5" x2="7.5" y2="14.5"/>
    </symbol>
    <symbol id="FGF" data-name="FGF" viewBox="0 0 10 10">
      <circle class="cls-1" cx="5" cy="5" r="4.5"/>
    </symbol>
    <symbol id="FGF_Rezeptor" data-name="FGF Rezeptor" viewBox="0 0 22.42 25.05">
      <g id="Neues_Symbol_3-2" data-name="Neues Symbol 3">
        <path class="cls-1" d="M21.92,24.5.59,24.55.5.55,21.83.5l0,7a5,5,0,1,0,0,10v0Z"/>
      </g>
    </symbol>
    <symbol id="Neues_Symbol_2-2" data-name="Neues Symbol 2" viewBox="0 0 560 500">
      <g id="Kidney_klein-5" data-name="Kidney klein">
        <circle class="cls-8" cx="50" cy="50" r="30"/>
      </g>
      <rect class="cls-8" width="560" height="500"/>
    </symbol>
    <symbol id="PO4" data-name="PO4" viewBox="0 0 10 10">
      <circle class="cls-10" cx="5" cy="5" r="4.5"/>
    </symbol>
  </defs>
  <title>Phosphate_Handling_180328Phosphate Handling Arrows</title>
  <g class="cls-14">
    <g id="Ebene_30" data-name="Ebene 30">
      <use width="560" height="500" transform="matrix(1, 0, 0, 1, 0, 0)" xlink:href="#Rahmen"/>
    </g>
    <g id="Zellen_HG" data-name="Zellen HG">
      <rect class="cls-15" x="476.94" y="-12.06" width="86.08" height="530.12"/>
      <line class="cls-16" x1="476.94" y1="303.76" x2="476.94" y2="191.08"/>
      <line class="cls-16" x1="476.94" y1="375.62" x2="476.94" y2="323.03"/>
      <polyline class="cls-17" points="476.94 175.95 476.94 -6.06 560.59 -6.06 560.59 515.95 476.94 515.95 476.94 394.94"/>
      <path class="cls-18" d="M168.78,431.7v-5.49c0-3,5.4-5.49,12-5.49h8.7c6.6,0,12-4.87,12-10.83s-5.4-10.83-12-10.83h-8.7a11.86,11.86,0,1,1,0-23.71h8.7c6.6,0,12-4.87,12-10.83s-5.4-10.82-12-10.82h-8.7a11.86,11.86,0,1,1,0-23.72h8.7c6.6,0,12-4.87,12-10.82s-5.4-10.83-12-10.83h-8.7a11.86,11.86,0,1,1,0-23.71h8.7c6.6,0,12-4.88,12-10.83s-5.4-10.83-12-10.83h-8.7a11.86,11.86,0,1,1,0-23.71h8.7c6.6,0,12-4.87,12-10.83s-5.4-10.82-12-10.82h-8.7a11.86,11.86,0,1,1,0-23.72h8.7c6.6,0,12-4.87,12-10.82s-5.4-10.83-12-10.83h-8.7a11.86,11.86,0,1,1,0-23.71h8.7c6.6,0,12-4.88,12-10.83s-5.4-10.83-12-10.83h-8.7a11.86,11.86,0,1,1,0-23.71h8.7c6.6,0,12-4.87,12-10.83s-5.4-10.83-12-10.83h-8.7c-6.6,0-12-2.86-12-6.36V68.77H334.67c45.74,0,68.52,37.08,68.52,82.81V348.89c0,45.74-22.78,82.81-68.52,82.81Z"/>
      <path class="cls-19" d="M168.78,431.7v-5.49c0-3,5.4-5.49,12-5.49h8.7c6.6,0,12-4.87,12-10.83s-5.4-10.83-12-10.83h-8.7a11.86,11.86,0,1,1,0-23.71h8.7c6.6,0,12-4.87,12-10.83s-5.4-10.82-12-10.82h-8.7a11.86,11.86,0,1,1,0-23.72h8.7c6.6,0,12-4.87,12-10.82s-5.4-10.83-12-10.83h-8.7a11.86,11.86,0,1,1,0-23.71h8.7c6.6,0,12-4.88,12-10.83s-5.4-10.83-12-10.83h-8.7a11.86,11.86,0,1,1,0-23.71h8.7c6.6,0,12-4.87,12-10.83s-5.4-10.82-12-10.82h-8.7a11.86,11.86,0,1,1,0-23.72h8.7c6.6,0,12-4.87,12-10.82s-5.4-10.83-12-10.83h-8.7a11.86,11.86,0,1,1,0-23.71h8.7c6.6,0,12-4.88,12-10.83s-5.4-10.83-12-10.83h-8.7a11.86,11.86,0,1,1,0-23.71h8.7c6.6,0,12-4.87,12-10.83s-5.4-10.83-12-10.83h-8.7c-6.6,0-12-2.86-12-6.36V68.77H334.67c45.74,0,68.52,37.08,68.52,82.81V348.89c0,45.74-22.78,82.81-68.52,82.81Z"/>
      <path class="cls-20" d="M168.78,431.7v-5.49c0-3,5.4-5.49,12-5.49h8.7c6.6,0,12-4.87,12-10.83s-5.4-10.83-12-10.83h-8.7a11.86,11.86,0,1,1,0-23.71h8.7c6.6,0,12-4.87,12-10.83s-5.4-10.82-12-10.82h-8.7a11.86,11.86,0,1,1,0-23.72h8.7c6.6,0,12-4.87,12-10.82s-5.4-10.83-12-10.83h-8.7a11.86,11.86,0,1,1,0-23.71h8.7c6.6,0,12-4.88,12-10.83s-5.4-10.83-12-10.83h-8.7a11.86,11.86,0,1,1,0-23.71h8.7c6.6,0,12-4.87,12-10.83s-5.4-10.82-12-10.82h-8.7a11.86,11.86,0,1,1,0-23.72h8.7c6.6,0,12-4.87,12-10.82s-5.4-10.83-12-10.83h-8.7a11.86,11.86,0,1,1,0-23.71h8.7c6.6,0,12-4.88,12-10.83s-5.4-10.83-12-10.83h-8.7a11.86,11.86,0,1,1,0-23.71h8.7c6.6,0,12-4.87,12-10.83s-5.4-10.83-12-10.83h-8.7c-6.6,0-12-2.86-12-6.36V68.77H334.67c45.74,0,68.52,37.08,68.52,82.81V348.89c0,45.74-22.78,82.81-68.52,82.81Z"/>
      <path class="cls-18" d="M395.8-5.31c-13,28.66-27.59,48.58-61.13,48.58H168.79V37.79c0-3,5.4-5.5,12-5.5h8.68c6.6,0,12-4.88,12-10.82s-5.4-10.84-12-10.84h-8.68a12,12,0,0,1-12-11.86,11.54,11.54,0,0,1,.74-4.08"/>
      <path class="cls-19" d="M395.8-5.31c-13,28.66-27.59,48.58-61.13,48.58H168.79V37.79c0-3,5.4-5.5,12-5.5h8.68c6.6,0,12-4.88,12-10.82s-5.4-10.84-12-10.84h-8.68a12,12,0,0,1-12-11.86,11.54,11.54,0,0,1,.74-4.08"/>
      <path class="cls-20" d="M395.8-5.31c-13,28.66-27.59,48.58-61.13,48.58H168.79V37.79c0-3,5.4-5.5,12-5.5h8.68c6.6,0,12-4.88,12-10.82s-5.4-10.84-12-10.84h-8.68a12,12,0,0,1-12-11.86,11.54,11.54,0,0,1,.74-4.08"/>
      <path class="cls-18" d="M395.8,505.78c-13-28.66-27.59-48.58-61.13-48.58H168.79v5.48c0,3,5.4,5.5,12,5.5h8.68c6.6,0,12,4.88,12,10.82s-5.4,10.84-12,10.84h-8.68a12,12,0,0,0-12,11.86,11.54,11.54,0,0,0,.74,4.08"/>
      <path class="cls-19" d="M395.8,505.78c-13-28.66-27.59-48.58-61.13-48.58H168.79v5.48c0,3,5.4,5.5,12,5.5h8.68c6.6,0,12,4.88,12,10.82s-5.4,10.84-12,10.84h-8.68a12,12,0,0,0-12,11.86,11.54,11.54,0,0,0,.74,4.08"/>
      <path class="cls-20" d="M395.8,505.78c-13-28.66-27.59-48.58-61.13-48.58H168.79v5.48c0,3,5.4,5.5,12,5.5h8.68c6.6,0,12,4.88,12,10.82s-5.4,10.84-12,10.84h-8.68a12,12,0,0,0-12,11.86,11.54,11.54,0,0,0,.74,4.08"/>
      <use width="32.65" height="36.9" transform="matrix(1, 0, 0, 1, 221.0399932861328, 36.279998779296875)" xlink:href="#Neues_Symbol_5-2"/>
      <use width="32.65" height="36.9" transform="matrix(1, 0, 0, 1, 221.0399932861328, 425.19000244140625)" xlink:href="#Neues_Symbol_5-2"/>
      <polyline class="cls-21" points="64.69 270.39 47.58 270.39 47.58 427.13 64.69 427.13"/>
    </g>
    <g id="Icons">
      <g id="Text">
        <use id="Kidney_klein-3" data-name="Kidney klein" width="60" height="61.09" transform="matrix(1, 0, 0, 1, 20, 19.459999084472656)" xlink:href="#Kidney_klein"/>
      </g>
    </g>
    <g id="Text-2" data-name="Text">
      <text class="cls-22" transform="translate(265.78 485.49)" style="white-space: pre;">PT cell</text>
      <text class="cls-22" transform="translate(491.55 38.22)" style="white-space: pre;">blood</text>
      <text class="cls-23" transform="translate(105.45 28.24)" style="white-space: pre;">lumen</text>
      <text class="cls-22" transform="translate(105.45 28.24)" style="white-space: pre;">lumen</text>
      <use width="16" height="16" transform="matrix(1, 0, 0, 1, 256.04998779296875, 270.3900146484375)" xlink:href="#Minus"/>
      <use width="16" height="16" transform="matrix(1, 0, 0, 1, 276.9676818847656, 371.5248718261719)" xlink:href="#Minus"/>
      <use width="16" height="16" transform="matrix(1, 0, 0, 1, 269.05133056640625, 318.8143005371094)" xlink:href="#Minus"/>
      <use width="16" height="16" transform="matrix(1, 0, 0, 1, 256.04998779296875, 409)" xlink:href="#Minus"/>
      <text class="cls-24" transform="translate(38.28 392.68) rotate(-90)" style="white-space: pre;">regulation</text>
      <text class="cls-24" style="white-space: pre; font-size: 20px;" x="398.683" y="440.999">PTHr</text>
      <text class="cls-25" transform="matrix(1.000002, 0, 0, 1.000001, 444.69873, 444.403442)" style="white-space: pre; font-size: 11.6px;">1</text>
      <text class="cls-24" transform="translate(504.57 412.88)" style="white-space: pre;">PTH</text>
      <use width="10" height="10" transform="matrix(1, 0, 0, 1, 400.9116516113281, 399.9161682128906)" xlink:href="#PTH_kugel-2"/>
      <use width="10" height="10" transform="matrix(1, 0, 0, 1, 518.6599731445312, 378.3299865722656)" xlink:href="#PTH_kugel-2"/>
      <use width="16.09" height="31.05" transform="matrix(0.9178690910339355, 0.39688703417778015, -0.39688703417778015, 0.9178690910339355, 392.36090087890625, 383.61212158203125)" xlink:href="#PTH_Rezeptor_klein"/>
      <text class="cls-24" transform="translate(341.02 277.27)" style="white-space: pre;">FGFr</text>
      <text class="cls-26" transform="translate(387.67 282.93) scale(0.58)" style="white-space: pre;">1</text>
      <text class="cls-24" transform="translate(411.51 266.69)" style="white-space: pre;">Klotho</text>
      <use width="15" height="26" transform="matrix(1, 0, 0, 1, 425.3999938964844, 276.7699890136719)" xlink:href="#PTHp_2"/>
      <use id="FGF-3" data-name="FGF" width="10" height="10" transform="matrix(1, 0, 0, 1, 427.8999938964844, 301.8900146484375)" xlink:href="#FGF"/>
      <use width="10" height="10" transform="matrix(1, 0, 0, 1, 521.9099731445312, 301.8900146484375)" xlink:href="#FGF"/>
      <use width="22.42" height="25.05" transform="matrix(1, 0, 0, 1, 390.2799987792969, 294.3599853515625)" xlink:href="#FGF_Rezeptor"/>
    </g>
    <g id="Zoom_Rahmen" data-name="Zoom Rahmen">
      <use width="560" height="500" transform="matrix(1, 0, 0, 1, 0, 0)" xlink:href="#Neues_Symbol_2-2"/>
      <polyline class="cls-21" points="64.69 92.91 47.58 92.91 47.58 263.03 64.69 263.03"/>
      <use width="10" height="10" transform="matrix(1, 0, 0, 1, 131.61000061035156, 111.51000213623047)" xlink:href="#PO4"/>
      <use width="10" height="10" transform="matrix(1, 0, 0, 1, 341.6499938964844, 139.50999450683594)" xlink:href="#PO4"/>
      <use width="10" height="10" transform="matrix(1, 0, 0, 1, 514.27001953125, 177.07000732421875)" xlink:href="#PO4"/>
      <use width="10" height="10" transform="matrix(1, 0, 0, 1, 131.61000061035156, 189.47000122070312)" xlink:href="#PO4"/>
      <use width="10" height="10" transform="matrix(1, 0, 0, 1, 346.1499938964844, 216.6999969482422)" xlink:href="#PO4"/>
      <circle class="cls-7" cx="403.19" cy="183.15" r="17"/>
      <circle class="cls-7" cx="403.19" cy="183.15" r="17"/>
      <circle class="cls-17" cx="403.19" cy="183.15" r="17"/>
      <text class="cls-24" transform="translate(397.63 188.49)" style="white-space: pre;">?</text>
      <text class="cls-24" transform="translate(38.28 217.43) rotate(-90)" style="white-space: pre;">transport</text>
      <text class="cls-24" transform="translate(488.85 157.53)" style="white-space: pre;">HPO</text>
      <text class="cls-26" transform="translate(532.19 163.19) scale(0.58)" style="white-space: pre;">4<tspan class="cls-27" x="11.62" y="-21.13">– </tspan></text>
      <line class="cls-21" x1="321.2" y1="93.13" x2="459.3" y2="93.13"/>
      <polygon class="cls-28" points="456.32 96.81 455.7 96.16 458.95 93.14 455.7 90.11 456.32 89.45 460.28 93.14 456.32 96.81"/>
      <line class="cls-21" x1="443.17" y1="111.14" x2="299.05" y2="111.14"/>
      <polygon class="cls-28" points="302.04 107.46 302.65 108.12 299.4 111.14 302.65 114.16 302.04 114.82 298.08 111.14 302.04 107.46"/>
      <rect class="cls-7" x="330.48" y="86.68" width="90" height="32" rx="16" ry="16"/>
      <rect class="cls-17" x="330.48" y="86.68" width="90" height="32" rx="16" ry="16"/>
      <text class="cls-24" transform="translate(342.62 109.48)" style="white-space: pre;"><tspan class="cls-29">A</tspan><tspan x="11.86" y="0">TPase</tspan></text>
      <text class="cls-24" transform="translate(415.87 137.35)" style="white-space: pre;">3 Na</text>
      <text class="cls-22" transform="translate(458.11 130.69) scale(0.58)" style="white-space: pre;">+</text>
      <text class="cls-24" transform="translate(464.92 137.35)" style="white-space: pre;"> </text>
      <text class="cls-24" transform="translate(280.88 96.24)" style="white-space: pre;">2 K</text>
      <text class="cls-22" transform="translate(310.9 89.58) scale(0.58)" style="white-space: pre;">+</text>
      <text class="cls-24" transform="translate(317.71 96.24)" style="white-space: pre;"> </text>
      <line class="cls-21" x1="149.9" y1="164.57" x2="236.61" y2="164.57"/>
      <polygon class="cls-28" points="233.62 168.25 233.01 167.59 236.26 164.57 233.01 161.55 233.62 160.89 237.58 164.57 233.62 168.25"/>
      <line class="cls-21" x1="149.41" y1="124.45" x2="237.1" y2="124.45"/>
      <polygon class="cls-28" points="234.11 128.13 233.5 127.47 236.75 124.45 233.5 121.43 234.11 120.77 238.07 124.45 234.11 128.13"/>
      <circle class="cls-7" cx="190.1" cy="144.51" r="32.5"/>
      <circle class="cls-7" cx="190.1" cy="144.51" r="32.5"/>
      <circle class="cls-17" cx="190.1" cy="144.51" r="32.5"/>
      <text class="cls-24" transform="translate(168.42 143.82)" style="white-space: pre;">NaPi<tspan x="10.56" y="20">IIa</tspan></text>
      <text class="cls-24" transform="translate(66.2 167.14)" style="white-space: pre;">3 Na</text>
      <text class="cls-22" transform="translate(108.45 160.48) scale(0.58)" style="white-space: pre;">+</text>
      <text class="cls-24" transform="translate(115.26 167.14)" style="white-space: pre;"> </text>
      <text class="cls-24" transform="translate(65.87 134.77)" style="white-space: pre;">HPO</text>
      <text class="cls-26" transform="translate(109.21 140.43) scale(0.58)" style="white-space: pre;">4<tspan class="cls-27" x="11.62" y="-21.13">2– </tspan></text>
      <line class="cls-21" x1="149.65" y1="243.82" x2="236.61" y2="243.82"/>
      <polygon class="cls-28" points="233.62 247.5 233.01 246.85 236.26 243.82 233.01 240.8 233.62 240.14 237.58 243.82 233.62 247.5"/>
      <line class="cls-21" x1="149.17" y1="203.7" x2="237.1" y2="203.7"/>
      <polygon class="cls-28" points="234.11 207.38 233.5 206.72 236.75 203.7 233.5 200.68 234.11 200.02 238.07 203.7 234.11 207.38"/>
      <circle class="cls-7" cx="190.1" cy="223.76" r="32.5"/>
      <circle class="cls-7" cx="190.1" cy="223.76" r="32.5"/>
      <circle class="cls-17" cx="190.1" cy="223.76" r="32.5"/>
      <text class="cls-24" transform="translate(168.42 223.07)" style="white-space: pre;">NaPi<tspan x="11.12" y="20">IIc</tspan></text>
      <text class="cls-24" transform="translate(66.2 212.2)" style="white-space: pre;">HPO</text>
      <text class="cls-26" transform="translate(109.54 217.86) scale(0.58)" style="white-space: pre;">4<tspan class="cls-27" x="11.62" y="-21.13">2– </tspan></text>
      <text class="cls-24" transform="translate(66.2 245.89)" style="white-space: pre;">2 Na</text>
      <text class="cls-22" transform="translate(108.45 239.23) scale(0.58)" style="white-space: pre;">+</text>
      <text class="cls-24" transform="translate(115.26 245.89)" style="white-space: pre;"> </text>
      <line class="cls-21" x1="149.41" y1="330.95" x2="236.61" y2="330.95"/>
      <polygon class="cls-28" points="233.62 334.63 233.01 333.97 236.26 330.95 233.01 327.93 233.62 327.27 237.58 330.95 233.62 334.63"/>
      <line class="cls-21" x1="148.92" y1="290.83" x2="237.1" y2="290.83"/>
      <polygon class="cls-28" points="234.11 294.51 233.5 293.85 236.75 290.83 233.5 287.81 234.11 287.15 238.07 290.83 234.11 294.51"/>
      <circle class="cls-7" cx="190.1" cy="310.89" r="32.5"/>
      <circle class="cls-7" cx="190.1" cy="310.89" r="32.5"/>
      <circle class="cls-17" cx="190.1" cy="310.89" r="32.5"/>
      <text class="cls-24" transform="translate(168.42 310.2)" style="white-space: pre;">NaPi<tspan x="10.56" y="20">IIa</tspan></text>
      <line class="cls-21" x1="149.41" y1="409.55" x2="236.61" y2="409.55"/>
      <polygon class="cls-28" points="233.62 413.23 233.01 412.57 236.26 409.55 233.01 406.53 233.62 405.87 237.58 409.55 233.62 413.23"/>
      <line class="cls-21" x1="148.92" y1="369.43" x2="237.1" y2="369.43"/>
      <polygon class="cls-28" points="234.11 373.11 233.5 372.45 236.75 369.43 233.5 366.41 234.11 365.75 238.07 369.43 234.11 373.11"/>
      <circle class="cls-7" cx="190.1" cy="389.49" r="32.5"/>
      <circle class="cls-7" cx="190.1" cy="389.49" r="32.5"/>
      <circle class="cls-17" cx="190.1" cy="389.49" r="32.5"/>
      <text class="cls-24" transform="translate(168.42 388.79)" style="white-space: pre;">NaPi<tspan x="11.12" y="20">IIc</tspan></text>
      <line class="cls-21" x1="422.909" y1="183.41" x2="510.599" y2="183.41" style="fill: none; stroke: rgb(26, 69, 84); stroke-miterlimit: 10;"/>
      <polygon class="cls-28" points="507.609 187.09 506.999 186.43 510.249 183.41 506.999 180.39 507.609 179.73 511.569 183.41 507.609 187.09" style="fill: rgb(26, 69, 84);"/>
      <line class="cls-21" x1="292.422" y1="154.258" x2="380.112" y2="154.258" style="fill: none; stroke: rgb(26, 69, 84); stroke-miterlimit: 10;" transform="matrix(0.898345, 0.43929, -0.43929, 0.898345, 101.947161, -132.037725)"/>
      <polygon class="cls-28" points="372.799 176.621 372.189 175.961 375.439 172.941 372.189 169.921 372.799 169.261 376.759 172.941 372.799 176.621" style="fill: rgb(26, 69, 84);" transform="matrix(0.898345, 0.43929, -0.43929, 0.898345, 114.038338, -146.922455)"/>
      <line class="cls-21" x1="289.008" y1="206.027" x2="376.698" y2="206.027" style="fill: none; stroke: rgb(26, 69, 84); stroke-miterlimit: 10;" transform="matrix(0.956485, -0.291782, 0.291782, 0.956485, -45.630804, 106.085745)"/>
      <polygon class="cls-28" points="371.857 197.297 371.247 196.637 374.497 193.617 371.247 190.597 371.857 189.937 375.817 193.617 371.857 197.297" style="fill: rgb(26, 69, 84);" transform="matrix(0.956485, -0.291782, 0.291782, 0.956485, -40.239653, 117.415174)"/>
    </g>
    <line class="cls-21" x1="453.309" y1="307.966" x2="530.351" y2="307.677" style="fill: none; stroke: rgb(26, 69, 84); stroke-miterlimit: 10;" transform="matrix(-0.999972, -0.007452, 0.007452, -0.999972, 970.705691, 618.971991)"/>
    <polygon class="cls-28" points="442.302 311.04 441.692 310.38 444.942 307.361 441.692 304.34 442.302 303.68 446.262 307.361 442.302 311.04" style="fill: rgb(26, 69, 84);" transform="matrix(-0.999972, -0.007452, 0.007452, -0.999972, 885.651231, 618.019885)"/>
    <line class="cls-21" x1="422.803" y1="383.713" x2="510.493" y2="383.713" style="fill: none; stroke: rgb(26, 69, 84); stroke-miterlimit: 10;" transform="matrix(-0.999991, -0.004259, 0.004259, -0.999991, 931.657681, 769.409816)"/>
    <polygon class="cls-28" points="422.443 387.212 421.833 386.552 425.083 383.532 421.833 380.512 422.443 379.852 426.403 383.532 422.443 387.212" style="fill: rgb(26, 69, 84);" transform="matrix(-0.999991, -0.004259, 0.004259, -0.999991, 846.598922, 768.866633)"/>
  </g>
  <line style="fill: rgb(26, 69, 84); stroke-width: 14; stroke: rgb(255, 235, 4);" x1="249.034" y1="438.95" x2="372.284" y2="365.922" transform="matrix(-0.86078, -0.508977, 0.508977, -0.86078, 373.237323, 906.9632)"/>
  <line style="fill: rgb(26, 69, 84); stroke-width: 14; stroke: rgb(255, 235, 4);" x1="245.159" y1="391.065" x2="276.814" y2="384.189" transform="matrix(-0.221062, 0.97526, -0.97526, -0.221062, 681.124979, 233.111039)" bx:origin="0.073 0.636"/>
  <line style="fill: rgb(26, 69, 84); stroke-width: 14; stroke: rgb(255, 235, 4);" x1="253.721" y1="396.914" x2="376.971" y2="323.886" transform="matrix(-0.66042, -0.750897, 0.750897, -0.66042, 252.983567, 835.207522)"/>
  <line style="fill: rgb(26, 69, 84); stroke-width: 14; stroke: rgb(255, 235, 4);" x1="257.267" y1="330.111" x2="288.922" y2="323.235" transform="matrix(-0.512698, 0.858569, -0.858569, -0.512698, 673.937049, 272.706648)" bx:origin="0.073 0.636"/>
  <line style="fill: rgb(26, 69, 84); stroke: rgb(255, 235, 4); stroke-width: 2;" x1="253.28" y1="340.263" x2="376.53" y2="267.234" transform="matrix(-0.860779, -0.508978, 0.508978, -0.860779, 431.367425, 725.48872)"/>
  <line style="fill: rgb(26, 69, 84); stroke: rgb(255, 235, 4); stroke-width: 2;" x1="243.563" y1="292.839" x2="275.218" y2="285.963" transform="matrix(-0.221062, 0.97526, -0.97526, -0.221062, 583.380327, 114.727632)" bx:origin="0.073 0.636"/>
  <line style="fill: rgb(26, 69, 84); stroke: rgb(255, 235, 4); stroke-width: 2;" x1="257.593" y1="386.608" x2="380.843" y2="313.578" transform="matrix(-0.987036, -0.160502, 0.160502, -0.987036, 578.106964, 746.882284)"/>
  <line style="fill: rgb(26, 69, 84); stroke: rgb(255, 235, 4); stroke-width: 2;" x1="248.414" y1="365.12" x2="280.069" y2="358.244" transform="matrix(0.149334, 0.988787, -0.988787, 0.149334, 571.834085, 60.552631)" bx:origin="0.073 0.636"/>
</svg>