<?xml version="1.0" encoding="utf-8"?>
<svg viewBox="-151.454 0 711.454 661" xmlns="http://www.w3.org/2000/svg" xmlns:xlink="http://www.w3.org/1999/xlink" xmlns:bx="https://boxy-svg.com">
  <defs>
    <style>.cls-1{isolation:isolate;}.cls-2{fill:#fff;}.cls-3,.cls-6{fill:#fbf2f0;}.cls-10,.cls-28,.cls-29,.cls-4,.cls-5,.cls-9{fill:none;}.cls-17,.cls-18,.cls-19,.cls-24,.cls-4,.cls-6,.cls-7,.cls-9{stroke:#c34a29;}.cls-10,.cls-24,.cls-4,.cls-5,.cls-6,.cls-7,.cls-9{stroke-miterlimit:10;}.cls-4{stroke-width:4px;}.cls-5{stroke:#f1d3cc;stroke-width:2px;}.cls-7{fill:#f9ccbf;}.cls-8{fill:#ff976b;}.cls-10{stroke:#1a4554;}.cls-11,.cls-13,.cls-26{fill:#1a4554;}.cls-12{fill:#ffc2a8;}.cls-13,.cls-26,.cls-28{font-size:20px;}.cls-13{font-family:ArialMT, Arial;}.cls-14{letter-spacing:-0.07em;}.cls-15{fill:url(#Unbenannter_Verlauf_4);}.cls-16{fill:#fdeabf;}.cls-17{fill:#f0d2ca;}.cls-17,.cls-18,.cls-19{stroke-linecap:round;stroke-linejoin:round;stroke-width:1.5px;}.cls-18{fill:#8fd5de;}.cls-19{fill:#f5ab96;}.cls-20,.cls-24{fill:#99cddf;}.cls-21{fill:#c34a29;}.cls-22{fill:#d4eaf1;}.cls-23{letter-spacing:-0.02em;}.cls-25{letter-spacing:-0.02em;}.cls-26,.cls-28{font-family:Arial-BoldMT, Arial;font-weight:700;}.cls-27{fill:#ff4c00;}.cls-28{stroke:#fff;stroke-width:3px;}.cls-30{mix-blend-mode:multiply;}</style>
    <linearGradient id="Unbenannter_Verlauf_4" x1="197" y1="82.19" x2="367.24" y2="82.19" gradientUnits="userSpaceOnUse">
      <stop offset="0" stop-color="#f2987f"/>
      <stop offset="1" stop-color="#f2987f" stop-opacity="0.1"/>
    </linearGradient>
    <symbol id="Kidey_zoom" data-name="Kidey zoom" viewBox="0 0 161.72 202.21">
      <path class="cls-3" d="M160,27.07l-.05.18-1.39,5.16L145.36,81.15,144.05,86l-1.38,5.1-1.31,4.85L139,104.69l-24.83,91.79H51.65L24.37,103.66,21.83,95l-1.41-4.8-1.48-5-1.41-4.8L3.3,32l-1.48-5L7.06,15.8a195.5,195.5,0,0,1,147.82.42Z" style="fill: none; stroke: rgb(174, 85, 54); stroke-width: 3px;"/>
      <path class="cls-3" d="M159.94,27.24l-1.39,5.16L145.36,81.14,144.05,86l-1.38,5.1-1.31,4.85L139,104.68l-24.83,91.79H51.65L24.37,103.65,21.83,95l-1.41-4.8-1.48-5-1.41-4.8L3.3,32,1.8,26.84a187.39,187.39,0,0,1,158.14.4Z" style="fill: none; stroke: rgb(174, 85, 54); stroke-width: 3px;"/>
      <path class="cls-3" d="M158.55,32.4,145.36,81.14,144.05,86l-1.38,5.1-1.31,4.85L139,104.68l-24.83,91.79H51.65L24.37,103.65,21.83,95l-1.41-4.8-1.48-5-1.41-4.8L3.3,32a182.1,182.1,0,0,1,155.25.45Z" style="fill: none; stroke: rgb(174, 85, 54); stroke-width: 3px;"/>
      <path class="cls-3" d="M139,104.68l-24.83,91.79L113,200.71H52.9l-1.25-4.24L24.37,103.65a142.49,142.49,0,0,1,19.34-6.31q1.44-.37,2.91-.69,5.49-1.27,11.16-2.12c1.18-.17,2.37-.34,3.57-.48,2.72-.35,5.48-.62,8.25-.81,1.1-.08,2.2-.14,3.3-.19,2.5-.13,5-.19,7.55-.19a151.16,151.16,0,0,1,17.8,1q2.7.3,5.35.71A144.88,144.88,0,0,1,139,104.68Z" style="fill: none; stroke: rgb(174, 85, 54); stroke-width: 3px;"/>
      <path class="cls-3" d="M145.37,81.15,144.06,86a160.4,160.4,0,0,0-18-6c-1-.27-1.93-.52-2.91-.76a165,165,0,0,0-19.51-3.68c-1.46-.2-2.93-.37-4.4-.54-1-.1-2.1-.2-3.15-.28-1.35-.12-2.71-.23-4.07-.31q-5.73-.37-11.54-.37h-.92c-1.08,0-2.17,0-3.25,0a171.1,171.1,0,0,0-20.36,1.63c-1.16.14-2.32.32-3.47.51a166.78,166.78,0,0,0-33.51,8.89l-1.41-4.79c3.55-1.35,7.17-2.59,10.84-3.69L19.47,43.9a1.5,1.5,0,0,1,2.89-.79l2.53,9.29c.7-3.26,2.16-7.7,5.09-9.88a6.66,6.66,0,0,1,5.64-1.14c1.64.36,2.46.8,2.81,1.51.43.89,0,1.81-.61,3.09a20,20,0,0,0-1.39,3.58c-.42,1.54-.05,4.21,1.71,5a.76.76,0,0,1,.38,1,.75.75,0,0,1-1,.38c-2.66-1.18-3.09-4.73-2.55-6.75a22.48,22.48,0,0,1,1.48-3.84c.35-.72.74-1.54.62-1.78,0-.08-.29-.38-1.78-.71a5.21,5.21,0,0,0-4.43.88c-3.7,2.75-4.79,10.13-5,12.18l5.42,19.94a169.25,169.25,0,0,1,17.21-4h0c1.35-.24,2.71-.48,4.08-.68a181.68,181.68,0,0,1,21.89-2c1.14,0,2.28-.07,3.43-.08h2.58c2.6,0,5.2,0,7.78.17,1.36,0,2.72.11,4.07.21q3.48.21,6.92.57c1.47.14,2.94.31,4.39.51a172.37,172.37,0,0,1,20.57,3.85c1,.22,2,.47,2.92.75,2.48.65,4.94,1.37,7.37,2.14L142.33,45a1.5,1.5,0,0,1,2.92.7l-7.91,32.48C140,79.13,142.73,80.09,145.37,81.15Z" style="fill: none; stroke: rgb(174, 85, 54); stroke-width: 3px;"/>
      <path class="cls-3" d="M142.67,91.08l-1.31,4.85A157,157,0,0,0,103.6,85.79q-2.73-.39-5.49-.67a165.66,165.66,0,0,0-17.66-.94c-1.66,0-3.31,0-5,.07s-3.17.12-4.74.21q-5.84.35-11.52,1.08c-1.13.14-2.25.29-3.36.47q-5.66.82-11.15,2.06l1.89,8.58L56,139.06a1.48,1.48,0,0,1-1.14,1.78,1.17,1.17,0,0,1-.32,0,1.49,1.49,0,0,1-1.46-1.18L43.71,97.34l-1.9-8.6a153.87,153.87,0,0,0-20,6.28l-1.41-4.8a161.25,161.25,0,0,1,34.11-9.07c1.08-.17,2.17-.33,3.26-.47,2-.26,3.91-.49,5.89-.67,1.07-.12,2.15-.22,3.24-.29,4.45-.36,9-.54,13.53-.54q8,0,15.7.72c2.51.22,5,.51,7.46.85A163.93,163.93,0,0,1,122,84.32l1.11-5.07,1.06-4.87,1.88-8.57a1.5,1.5,0,0,1,2.94.64l-1.9,8.68L126,80l-1.12,5.08A160.31,160.31,0,0,1,142.67,91.08Z" style="fill: none; stroke: rgb(174, 85, 54); stroke-width: 3px;"/>
      <path class="cls-3" d="M112,143.41l-1.18-3.25a25.31,25.31,0,0,0-6.49,4c-.67.51-.69-1.84-.69-1.84-.08-42.23,0-50.53,0-105.81a7.27,7.27,0,0,1,6.67-7.17l.27-.05L110,26.17A11,11,0,0,0,102.7,30a2.55,2.55,0,0,1-1.43.88,1.89,1.89,0,0,1-1.31-.72,10.4,10.4,0,0,0-6.43-4L93,29.35h0A7.52,7.52,0,0,1,96.1,30.8,7.9,7.9,0,0,1,99,36.63v0c.09,3.54.34,39.63.15,41.89a21.68,21.68,0,0,0-2.68-3.21c-.64-.94-2.17-3-4-5.61-3.07-4.44-6.52-10-11.06-12.1-1.93-1.34-8.17-1.34-8.28,5.12A21.45,21.45,0,0,0,75,70.62c.77,1.76,1.56,3.57,1.23,4.46s-1.61.84-4.53.28C69,74.83,64.78,74,63.81,78a4.42,4.42,0,0,0,.38,3.46c1,1.65,3,2.11,4.89,2.55,2.74.64,3.59,1,3.62,2.3A4.18,4.18,0,0,1,71.51,89a7.5,7.5,0,0,0-1.82,6.18c.45,2.75,2.36,3.79,3.89,4.63,1.76,1,3.16,1.73,3.22,5.14l.85,42.9a1.6,1.6,0,0,0,.38,1l.58.06c.48,9.81,2.91,37.72,2.91,39.74,0,2.81-1.4,4.84-2.69,5.11-1.14.23-2.36-.89-3.32-3.09C73.43,185.92,67,150,63.2,110.18c.45-.28.78-.89.78-2.08.23-.44-4.85-28.57-9.35-34.59a26.62,26.62,0,0,0-4.25-4.24c-2.48-1.84-3.86-3-3.36-5.26a2.6,2.6,0,0,1,1.7-2.13c1.27-.31,3,.75,4.76,2.9,2.16,2.64,5,4.06,7.77,3.88a5.53,5.53,0,0,0,4.42-2.34c2-3.24.28-5.9-.89-7.66s-1.44-2.41-1-3.25c.62-1.08,1.79-1,4.78-.11,2.08.6,4.24,1.22,5.95.16a4.17,4.17,0,0,0,1.81-3c.63-3.52-1.84-4.91-3.64-5.92C71.32,45.78,70,45,69.4,43.4s-.29-3.63,0-5.62c.35-2.54.67-4.94-.73-6.65A4.86,4.86,0,0,0,65,29.51c-4.23-.27-4.92,4.15-5.42,7.37-.72,4.6-1.38,6.76-4.34,6.72a5.35,5.35,0,0,1-3-1.29A14.6,14.6,0,0,0,50.23,41a8.35,8.35,0,0,0-3.38-.88A7.09,7.09,0,0,0,40,44.85a1,1,0,0,0,.58,1.28c.51.19.84-.27,1.09-.73a5.74,5.74,0,0,1,5.18-3.26,5.89,5.89,0,0,1,4.49,3.35,6.07,6.07,0,0,1-.25,4.56,5.54,5.54,0,0,1-2.71,2.66c-2.1.94-3.92-.4-5.15-1.45-.42-.36-1.15-.93-1.58-.59a1,1,0,0,0-.17,1.39c1.56,2,5.19,3.59,7.91,2.72a6.54,6.54,0,0,0,4.16-4.08c.53-1.47,1.11-3.69,2.72-3.92,5.14-.57,6-5.84,6.52-9.4.59-3.8,1-4.71,2-4.65a2,2,0,0,1,1.33.44c.51.62.25,2.51,0,4.17-.31,2.27-.66,4.85.19,7.17,1,2.75,3.18,4,4.77,4.87,1.89,1.07,2.25,1.38,2,2.54-.09.49-.23.74-.33.8-.49.31-2.21-.19-3.34-.52-2.59-.75-6.5-1.87-8.49,1.61-1.54,2.69,0,5,1.07,6.63,1.29,1.95,1.7,2.81.85,4.16a2.43,2.43,0,0,1-1.88.84A6.36,6.36,0,0,1,56,62.73c-3.52-4.3-6.53-4.35-8-4a5.77,5.77,0,0,0-4.1,4.58c-1,4.42,2.12,6.71,4.59,8.55a13.89,13.89,0,0,1,2.74,2.44c3.44,4.54,4.69,11.65,6.34,19,1.91,8.51,2.69,16.42,3.49,16.7a3.54,3.54,0,0,0,.4.17c1.65,17.39,9.89,75.3,12.44,81.16,1.55,3.56,3.49,4.19,4.67,4.19a3.19,3.19,0,0,0,.65-.07c2.35-.49,4.11-3.44,4.11-6.86,0-2.08-2.38-29.18-2.9-39.71a1.59,1.59,0,0,0,.49-1.17L80,104.86c-.1-5.28-2.88-6.8-4.9-7.91-1.42-.78-2.06-1.17-2.25-2.32-.28-1.69.36-2.55,1.24-3.74a7.22,7.22,0,0,0,1.82-4.64c-.08-4-3.71-4.82-6.12-5.38-1.14-.27-2.56-.6-2.87-1.1a1.59,1.59,0,0,1,0-1c.18-.74.83-.89,4.16-.25,2.88.56,6.83,1.32,8.17-2.34.78-2.11-.23-4.42-1.3-6.87s-1.75-4.24-1.66-5.88c0,0-.38-2.26,2.59-2.78C82.59,60,89.27,71.05,94.6,78h0l0,0c.56.73,1.11,1.41,1.64,2v0a14.28,14.28,0,0,1,1.25,2.1,20.13,20.13,0,0,1,.73,5h0V119s0,1.09-.59.46a13.48,13.48,0,0,0-6.73-3.85L90.1,119c5.19,1.25,8.15,6,8.15,9.62l-.91,72h6.19l.13-47.4C103.67,150.16,106.51,145.37,112,143.41Z" style="fill: none; stroke: rgb(174, 85, 54); stroke-width: 3px;"/>
      <ellipse class="cls-3" cx="90.54" cy="117.33" rx="1.73" ry="1.04" transform="translate(-44.4 178.61) rotate(-76.77)" style="fill: none; stroke: rgb(174, 85, 54); stroke-width: 3px;"/>
      <ellipse class="cls-3" cx="93.26" cy="27.76" rx="1.61" ry="0.97" transform="translate(51.96 115.87) rotate(-81.46)" style="fill: none; stroke: rgb(174, 85, 54); stroke-width: 3px;"/>
      <ellipse class="cls-3" cx="111.53" cy="141.75" rx="1.04" ry="1.73" transform="translate(-42.91 48.58) rotate(-20.7)" style="fill: none; stroke: rgb(174, 85, 54); stroke-width: 3px;"/>
      <ellipse class="cls-3" cx="110.27" cy="27.76" rx="0.96" ry="1.6" transform="translate(-2.5 13.19) rotate(-6.77)" style="fill: none; stroke: rgb(174, 85, 54); stroke-width: 3px;"/>
      <path class="cls-3" d="M41.83,48.7h0l-.23,0h.27Z" style="fill: none; stroke: rgb(174, 85, 54); stroke-width: 3px;"/>
      <path class="cls-3" d="M50.42,47.53a.93.93,0,0,0,0-.13c0-.63-.53-.91-.89-1.09a1.37,1.37,0,0,1-.36-.23l0,0A.86.86,0,0,0,49,45h0l-.09,0a1,1,0,0,0,0-.15,1,1,0,0,0-.27-.33,1.24,1.24,0,0,0-.78-.21v0a1.18,1.18,0,0,0-.17-.72.88.88,0,0,0-.22-.25.85.85,0,0,0-.56-.19,1.19,1.19,0,0,0-1,.58h0a1.24,1.24,0,0,0-.79.65.73.73,0,0,0,0,.07,1.61,1.61,0,0,0-.39-.15,1.75,1.75,0,0,0-1.71.83,9.49,9.49,0,0,1-.71.89,3.19,3.19,0,0,1-2.46.94,1.38,1.38,0,0,1-1.09-.78c-.26-.56-.16-2,1.24-3.38a3.37,3.37,0,0,0,1-2.48,4.08,4.08,0,0,0-1.3-2.87l-1,1a2.71,2.71,0,0,1,.85,1.86,2,2,0,0,1-.59,1.46c-1.8,1.82-2,3.85-1.52,5a2.81,2.81,0,0,0,2.06,1.56,3.52,3.52,0,0,0,3.18-.86l.12-.1a5.47,5.47,0,0,0,.09.94.68.68,0,0,0,.05.12,3.17,3.17,0,0,1-1.11.33l-.23,0a5.57,5.57,0,0,0-.85.16,4.34,4.34,0,0,0-2.06,1.25A2.75,2.75,0,0,0,38.18,53a6.26,6.26,0,0,0,1.54,2.4c.91.94,1.47,1.51.71,2.92l1.25.67c1.24-2.33,0-3.57-.94-4.58a3.9,3.9,0,0,1-1.17-1.73,1.92,1.92,0,0,1,.19-1.58A3,3,0,0,1,41.89,50v0A.44.44,0,0,1,42,50h.3A4,4,0,0,1,43,50a2.14,2.14,0,0,1,1.43,1,3.08,3.08,0,0,0,.9.92,1.67,1.67,0,0,0,2.1-.1,1.61,1.61,0,0,0,.33-.46,1.53,1.53,0,0,0,.56-.2A1.27,1.27,0,0,0,49,50c0-.5-.26-.69.4-.69a1.11,1.11,0,0,0,1.19-1.13A1.54,1.54,0,0,0,50.42,47.53Z" style="fill: none; stroke: rgb(174, 85, 54); stroke-width: 3px;"/>
      <path class="cls-4" d="M160,27.07l-.05.18-1.39,5.16L145.36,81.15,144.05,86l-1.38,5.1-1.31,4.85L139,104.69l-24.83,91.79H51.65L24.37,103.66,21.83,95l-1.41-4.8-1.48-5-1.41-4.8L3.3,32l-1.48-5L7.06,15.8a195.5,195.5,0,0,1,147.82.42Z" style="fill: rgb(194, 127, 104); stroke: rgb(174, 85, 54); stroke-miterlimit: 10; stroke-width: 0.5px;"/>
      <path class="cls-5" d="M159.94,27.24l-1.39,5.16L145.36,81.14,144.05,86l-1.38,5.1-1.31,4.85L139,104.68l-24.83,91.79H51.65L24.37,103.65,21.83,95l-1.41-4.8-1.48-5-1.41-4.8L3.3,32,1.8,26.84a187.39,187.39,0,0,1,158.14.4Z" style="fill: rgb(219, 180, 167); stroke: rgb(174, 85, 54); stroke-miterlimit: 10; stroke-width: 0.5px;"/>
      <path class="cls-6" d="M158.55,32.4,145.36,81.14,144.05,86l-1.38,5.1-1.31,4.85L139,104.68l-24.83,91.79H51.65L24.37,103.65,21.83,95l-1.41-4.8-1.48-5-1.41-4.8L3.3,32a182.1,182.1,0,0,1,155.25.45Z" style="fill: rgb(244, 231, 227); stroke: rgb(174, 85, 54); stroke-miterlimit: 10; stroke-width: 0.5px;"/>
      <path class="cls-7" d="M139,104.68l-24.83,91.79L113,200.71H52.9l-1.25-4.24L24.37,103.65a142.49,142.49,0,0,1,19.34-6.31q1.44-.37,2.91-.69,5.49-1.27,11.16-2.12c1.18-.17,2.37-.34,3.57-.48,2.72-.35,5.48-.62,8.25-.81,1.1-.08,2.2-.14,3.3-.19,2.5-.13,5-.19,7.55-.19a151.16,151.16,0,0,1,17.8,1q2.7.3,5.35.71A144.88,144.88,0,0,1,139,104.68Z" style="fill: rgb(228, 199, 189); stroke: rgb(174, 85, 54); stroke-miterlimit: 10; stroke-width: 0.5px;"/>
      <path class="cls-8" d="M145.37,81.15,144.06,86a160.4,160.4,0,0,0-18-6c-1-.27-1.93-.52-2.91-.76a165,165,0,0,0-19.51-3.68c-1.46-.2-2.93-.37-4.4-.54-1-.1-2.1-.2-3.15-.28-1.35-.12-2.71-.23-4.07-.31q-5.73-.37-11.54-.37h-.92c-1.08,0-2.17,0-3.25,0a171.1,171.1,0,0,0-20.36,1.63c-1.16.14-2.32.32-3.47.51a166.78,166.78,0,0,0-33.51,8.89l-1.41-4.79c3.55-1.35,7.17-2.59,10.84-3.69L19.47,43.9a1.5,1.5,0,0,1,2.89-.79l2.53,9.29c.7-3.26,2.16-7.7,5.09-9.88a6.66,6.66,0,0,1,5.64-1.14c1.64.36,2.46.8,2.81,1.51.43.89,0,1.81-.61,3.09a20,20,0,0,0-1.39,3.58c-.42,1.54-.05,4.21,1.71,5a.76.76,0,0,1,.38,1,.75.75,0,0,1-1,.38c-2.66-1.18-3.09-4.73-2.55-6.75a22.48,22.48,0,0,1,1.48-3.84c.35-.72.74-1.54.62-1.78,0-.08-.29-.38-1.78-.71a5.21,5.21,0,0,0-4.43.88c-3.7,2.75-4.79,10.13-5,12.18l5.42,19.94a169.25,169.25,0,0,1,17.21-4h0c1.35-.24,2.71-.48,4.08-.68a181.68,181.68,0,0,1,21.89-2c1.14,0,2.28-.07,3.43-.08h2.58c2.6,0,5.2,0,7.78.17,1.36,0,2.72.11,4.07.21q3.48.21,6.92.57c1.47.14,2.94.31,4.39.51a172.37,172.37,0,0,1,20.57,3.85c1,.22,2,.47,2.92.75,2.48.65,4.94,1.37,7.37,2.14L142.33,45a1.5,1.5,0,0,1,2.92.7l-7.91,32.48C140,79.13,142.73,80.09,145.37,81.15Z" style="fill: rgb(227, 180, 161); stroke: rgb(174, 85, 54); stroke-miterlimit: 10; stroke-width: 0.5px;"/>
      <path class="cls-9" d="M142.67,91.08l-1.31,4.85A157,157,0,0,0,103.6,85.79q-2.73-.39-5.49-.67a165.66,165.66,0,0,0-17.66-.94c-1.66,0-3.31,0-5,.07s-3.17.12-4.74.21q-5.84.35-11.52,1.08c-1.13.14-2.25.29-3.36.47q-5.66.82-11.15,2.06l1.89,8.58L56,139.06a1.48,1.48,0,0,1-1.14,1.78,1.17,1.17,0,0,1-.32,0,1.49,1.49,0,0,1-1.46-1.18L43.71,97.34l-1.9-8.6a153.87,153.87,0,0,0-20,6.28l-1.41-4.8a161.25,161.25,0,0,1,34.11-9.07c1.08-.17,2.17-.33,3.26-.47,2-.26,3.91-.49,5.89-.67,1.07-.12,2.15-.22,3.24-.29,4.45-.36,9-.54,13.53-.54q8,0,15.7.72c2.51.22,5,.51,7.46.85A163.93,163.93,0,0,1,122,84.32l1.11-5.07,1.06-4.87,1.88-8.57a1.5,1.5,0,0,1,2.94.64l-1.9,8.68L126,80l-1.12,5.08A160.31,160.31,0,0,1,142.67,91.08Z" style="fill: rgb(181, 216, 225); stroke: rgb(174, 85, 54); stroke-miterlimit: 10; stroke-width: 0.5px;"/>
      <path class="cls-10" d="M112,143.41l-1.18-3.25a25.31,25.31,0,0,0-6.49,4c-.67.51-.69-1.84-.69-1.84-.08-42.23,0-50.53,0-105.81a7.27,7.27,0,0,1,6.67-7.17l.27-.05L110,26.17A11,11,0,0,0,102.7,30a2.55,2.55,0,0,1-1.43.88,1.89,1.89,0,0,1-1.31-.72,10.4,10.4,0,0,0-6.43-4L93,29.35h0A7.52,7.52,0,0,1,96.1,30.8,7.9,7.9,0,0,1,99,36.63v0c.09,3.54.34,39.63.15,41.89a21.68,21.68,0,0,0-2.68-3.21c-.64-.94-2.17-3-4-5.61-3.07-4.44-6.52-10-11.06-12.1-1.93-1.34-8.17-1.34-8.28,5.12A21.45,21.45,0,0,0,75,70.62c.77,1.76,1.56,3.57,1.23,4.46s-1.61.84-4.53.28C69,74.83,64.78,74,63.81,78a4.42,4.42,0,0,0,.38,3.46c1,1.65,3,2.11,4.89,2.55,2.74.64,3.59,1,3.62,2.3A4.18,4.18,0,0,1,71.51,89a7.5,7.5,0,0,0-1.82,6.18c.45,2.75,2.36,3.79,3.89,4.63,1.76,1,3.16,1.73,3.22,5.14l.85,42.9a1.6,1.6,0,0,0,.38,1l.58.06c.48,9.81,2.91,37.72,2.91,39.74,0,2.81-1.4,4.84-2.69,5.11-1.14.23-2.36-.89-3.32-3.09C73.43,185.92,67,150,63.2,110.18c.45-.28.78-.89.78-2.08.23-.44-4.85-28.57-9.35-34.59a26.62,26.62,0,0,0-4.25-4.24c-2.48-1.84-3.86-3-3.36-5.26a2.6,2.6,0,0,1,1.7-2.13c1.27-.31,3,.75,4.76,2.9,2.16,2.64,5,4.06,7.77,3.88a5.53,5.53,0,0,0,4.42-2.34c2-3.24.28-5.9-.89-7.66s-1.44-2.41-1-3.25c.62-1.08,1.79-1,4.78-.11,2.08.6,4.24,1.22,5.95.16a4.17,4.17,0,0,0,1.81-3c.63-3.52-1.84-4.91-3.64-5.92C71.32,45.78,70,45,69.4,43.4s-.29-3.63,0-5.62c.35-2.54.67-4.94-.73-6.65A4.86,4.86,0,0,0,65,29.51c-4.23-.27-4.92,4.15-5.42,7.37-.72,4.6-1.38,6.76-4.34,6.72a5.35,5.35,0,0,1-3-1.29A14.6,14.6,0,0,0,50.23,41a8.35,8.35,0,0,0-3.38-.88A7.09,7.09,0,0,0,40,44.85a1,1,0,0,0,.58,1.28c.51.19.84-.27,1.09-.73a5.74,5.74,0,0,1,5.18-3.26,5.89,5.89,0,0,1,4.49,3.35,6.07,6.07,0,0,1-.25,4.56,5.54,5.54,0,0,1-2.71,2.66c-2.1.94-3.92-.4-5.15-1.45-.42-.36-1.15-.93-1.58-.59a1,1,0,0,0-.17,1.39c1.56,2,5.19,3.59,7.91,2.72a6.54,6.54,0,0,0,4.16-4.08c.53-1.47,1.11-3.69,2.72-3.92,5.14-.57,6-5.84,6.52-9.4.59-3.8,1-4.71,2-4.65a2,2,0,0,1,1.33.44c.51.62.25,2.51,0,4.17-.31,2.27-.66,4.85.19,7.17,1,2.75,3.18,4,4.77,4.87,1.89,1.07,2.25,1.38,2,2.54-.09.49-.23.74-.33.8-.49.31-2.21-.19-3.34-.52-2.59-.75-6.5-1.87-8.49,1.61-1.54,2.69,0,5,1.07,6.63,1.29,1.95,1.7,2.81.85,4.16a2.43,2.43,0,0,1-1.88.84A6.36,6.36,0,0,1,56,62.73c-3.52-4.3-6.53-4.35-8-4a5.77,5.77,0,0,0-4.1,4.58c-1,4.42,2.12,6.71,4.59,8.55a13.89,13.89,0,0,1,2.74,2.44c3.44,4.54,4.69,11.65,6.34,19,1.91,8.51,2.69,16.42,3.49,16.7a3.54,3.54,0,0,0,.4.17c1.65,17.39,9.89,75.3,12.44,81.16,1.55,3.56,3.49,4.19,4.67,4.19a3.19,3.19,0,0,0,.65-.07c2.35-.49,4.11-3.44,4.11-6.86,0-2.08-2.38-29.18-2.9-39.71a1.59,1.59,0,0,0,.49-1.17L80,104.86c-.1-5.28-2.88-6.8-4.9-7.91-1.42-.78-2.06-1.17-2.25-2.32-.28-1.69.36-2.55,1.24-3.74a7.22,7.22,0,0,0,1.82-4.64c-.08-4-3.71-4.82-6.12-5.38-1.14-.27-2.56-.6-2.87-1.1a1.59,1.59,0,0,1,0-1c.18-.74.83-.89,4.16-.25,2.88.56,6.83,1.32,8.17-2.34.78-2.11-.23-4.42-1.3-6.87s-1.75-4.24-1.66-5.88c0,0-.38-2.26,2.59-2.78C82.59,60,89.27,71.05,94.6,78h0l0,0c.56.73,1.11,1.41,1.64,2v0a14.28,14.28,0,0,1,1.25,2.1,20.13,20.13,0,0,1,.73,5h0V119s0,1.09-.59.46a13.48,13.48,0,0,0-6.73-3.85L90.1,119c5.19,1.25,8.15,6,8.15,9.62l-.91,72h6.19l.13-47.4C103.67,150.16,106.51,145.37,112,143.41Z" style="fill: rgb(246, 230, 167); stroke: rgb(174, 85, 54); stroke-miterlimit: 10; stroke-width: 0.5px;"/>
      <ellipse class="cls-11" cx="90.54" cy="117.33" rx="1.73" ry="1.04" transform="translate(-44.4 178.61) rotate(-76.77)" style="fill: rgb(234, 200, 59); stroke: rgb(174, 85, 54); stroke-miterlimit: 10; stroke-width: 0.5px;"/>
      <ellipse class="cls-11" cx="93.26" cy="27.76" rx="1.61" ry="0.97" transform="translate(51.96 115.87) rotate(-81.46)" style="fill: rgb(234, 200, 59); stroke: rgb(174, 85, 54); stroke-miterlimit: 10; stroke-width: 0.5px;"/>
      <ellipse class="cls-11" cx="111.53" cy="141.75" rx="1.04" ry="1.73" transform="translate(-42.91 48.58) rotate(-20.7)" style="fill: rgb(234, 200, 59); stroke: rgb(174, 85, 54); stroke-miterlimit: 10; stroke-width: 0.5px;"/>
      <ellipse class="cls-11" cx="110.27" cy="27.76" rx="0.96" ry="1.6" transform="translate(-2.5 13.19) rotate(-6.77)" style="fill: rgb(234, 200, 59); stroke: rgb(174, 85, 54); stroke-miterlimit: 10; stroke-width: 0.5px;"/>
      <g class="cls-12" style="mask: url(#mask);">
        <path class="cls-13" d="M41.83,48.7h0l-.23,0h.27Z" style="fill: rgb(244, 233, 229); stroke: rgb(174, 85, 54); stroke-linecap: round; stroke-linejoin: round; stroke-width: 0.5px;"/>
        <path class="cls-14" d="M50.42,47.53a.93.93,0,0,0,0-.13c0-.63-.53-.91-.89-1.09a1.37,1.37,0,0,1-.36-.23l0,0A.86.86,0,0,0,49,45h0l-.09,0a1,1,0,0,0,0-.15,1,1,0,0,0-.27-.33,1.24,1.24,0,0,0-.78-.21v0a1.18,1.18,0,0,0-.17-.72.88.88,0,0,0-.22-.25.85.85,0,0,0-.56-.19,1.19,1.19,0,0,0-1,.58h0a1.24,1.24,0,0,0-.79.65.73.73,0,0,0,0,.07,1.61,1.61,0,0,0-.39-.15,1.75,1.75,0,0,0-1.71.83,9.49,9.49,0,0,1-.71.89,3.19,3.19,0,0,1-2.46.94,1.38,1.38,0,0,1-1.09-.78c-.26-.56-.16-2,1.24-3.38a3.37,3.37,0,0,0,1-2.48,4.08,4.08,0,0,0-1.3-2.87l-1,1a2.71,2.71,0,0,1,.85,1.86,2,2,0,0,1-.59,1.46c-1.8,1.82-2,3.85-1.52,5a2.81,2.81,0,0,0,2.06,1.56,3.52,3.52,0,0,0,3.18-.86l.12-.1a5.47,5.47,0,0,0,.09.94.68.68,0,0,0,.05.12,3.17,3.17,0,0,1-1.11.33l-.23,0a5.57,5.57,0,0,0-.85.16,4.34,4.34,0,0,0-2.06,1.25A2.75,2.75,0,0,0,38.18,53a6.26,6.26,0,0,0,1.54,2.4c.91.94,1.47,1.51.71,2.92l1.25.67c1.24-2.33,0-3.57-.94-4.58a3.9,3.9,0,0,1-1.17-1.73,1.92,1.92,0,0,1,.19-1.58A3,3,0,0,1,41.89,50v0A.44.44,0,0,1,42,50h.3A4,4,0,0,1,43,50a2.14,2.14,0,0,1,1.43,1,3.08,3.08,0,0,0,.9.92,1.67,1.67,0,0,0,2.1-.1,1.61,1.61,0,0,0,.33-.46,1.53,1.53,0,0,0,.56-.2A1.27,1.27,0,0,0,49,50c0-.5-.26-.69.4-.69a1.11,1.11,0,0,0,1.19-1.13A1.54,1.54,0,0,0,50.42,47.53Z" style="fill: rgb(246, 230, 167); stroke: rgb(174, 85, 54); stroke-linecap: round; stroke-linejoin: round; stroke-width: 0.5px;"/>
      </g>
    </symbol>
    <mask id="mask" x="35.34" y="34.31" width="15.48" height="26.33" maskUnits="userSpaceOnUse">
      <g class="cls-15" style="filter: url(#luminosity-noclip);">
        <polygon class="cls-1" points="37.93 54.98 38.22 60.64 44.11 60.34 43.82 54.67 37.93 54.98" style="fill: url(#Unbenannter_Verlauf_18);"/>
        <polygon class="cls-2" points="43.06 39.47 40.7 34.31 35.34 36.76 37.7 41.92 43.06 39.47" style="fill: url(#Unbenannter_Verlauf_14);"/>
      </g>
    </mask>
    <filter id="luminosity-noclip" x="35.34" y="34.31" width="15.48" height="26.33" filterUnits="userSpaceOnUse" color-interpolation-filters="sRGB">
      <feFlood flood-color="#fff" result="bg"/>
      <feBlend in="SourceGraphic" in2="bg"/>
    </filter>
    <linearGradient id="Unbenannter_Verlauf_18" x1="17394.41" y1="13425.33" x2="17400.3" y2="13425.33" gradientTransform="matrix(-0.05, -0.96, -1, 0.05, 14306.85, 16102.41)" gradientUnits="userSpaceOnUse">
      <stop offset="0.59"/>
      <stop offset="1" stop-color="#fff"/>
    </linearGradient>
    <linearGradient id="Unbenannter_Verlauf_14" x1="-2390.13" y1="6561.64" x2="-2384.24" y2="6561.64" gradientTransform="matrix(0.4, 0.88, 0.91, -0.42, -4973.86, 4855.75)" gradientUnits="userSpaceOnUse">
      <stop offset="0.59"/>
      <stop offset="1" stop-color="#fff"/>
    </linearGradient>
    <symbol id="Pfeil" data-name="Pfeil" viewBox="0 0 70 77.95">
      <path class="cls-1" d="M55.63,26.92a71.28,71.28,0,0,0-18.74,4.83,59,59,0,0,0-16.6,10.51,63.77,63.77,0,0,0-12.73,16A70.51,70.51,0,0,0,3,67.72,60.29,60.29,0,0,0,0,78,61.34,61.34,0,0,1,.92,67.14a73.82,73.82,0,0,1,2.6-10.69A69.34,69.34,0,0,1,30.43,20.24,86.6,86.6,0,0,1,51.59,9.79Z" style="fill: rgb(153, 153, 153);"/>
      <polygon class="cls-1" points="54.06 37.81 48.15 0 70 15.95 54.06 37.81" style="fill: rgb(153, 153, 153);"/>
    </symbol>
  </defs>
  <title>Napo_Zooms_170427Kidney 1.5</title>
  <g class="cls-1">
    <g id="Ebene_30" data-name="Ebene 30" transform="matrix(1, 0, 0, 1, 10.831694, 40.348061)">
      <g id="Rahmen-2" data-name="Rahmen">
        <rect class="cls-2" width="560" height="500"/>
      </g>
    </g>
    <g id="Zellen_HG" data-name="Zellen HG">
      <path class="cls-3" d="M179.78,513v-6c0-3.28,5.87-6,13.05-6h9.46c7.18,0,13.05-5.3,13.05-11.78s-5.87-11.78-13.05-11.78h-9.46a12.9,12.9,0,1,1,0-25.79h9.46c7.18,0,13.05-5.3,13.05-11.78s-5.87-11.77-13.05-11.77h-9.46a12.9,12.9,0,1,1,0-25.8h9.46c7.18,0,13.05-5.3,13.05-11.77s-5.87-11.78-13.05-11.78h-9.46a12.9,12.9,0,1,1,0-25.79h9.46c7.18,0,13.05-5.3,13.05-11.78s-5.87-11.78-13.05-11.78h-9.46a12.9,12.9,0,1,1,0-25.79h9.46c7.18,0,13.05-5.3,13.05-11.78s-5.87-11.78-13.05-11.78h-9.46a12.9,12.9,0,1,1,0-25.79h9.46c7.18,0,13.05-5.3,13.05-11.78s-5.87-11.77-13.05-11.77h-9.46a12.9,12.9,0,1,1,0-25.79h9.46c7.18,0,13.05-5.3,13.05-11.78s-5.87-11.78-13.05-11.78h-9.46a12.9,12.9,0,1,1,0-25.79h9.46c7.18,0,13.05-5.3,13.05-11.78s-5.87-11.78-13.05-11.78h-9.46c-7.18,0-13.05-3.11-13.05-6.92v-6.92H353.5a60.19,60.19,0,0,1,60.19,60.2V452.79A60.19,60.19,0,0,1,353.5,513Z"/>
      <path class="cls-4" d="M179.78,513v-6c0-3.28,5.87-6,13.05-6h9.46c7.18,0,13.05-5.3,13.05-11.78s-5.87-11.78-13.05-11.78h-9.46a12.9,12.9,0,1,1,0-25.79h9.46c7.18,0,13.05-5.3,13.05-11.78s-5.87-11.77-13.05-11.77h-9.46a12.9,12.9,0,1,1,0-25.8h9.46c7.18,0,13.05-5.3,13.05-11.77s-5.87-11.78-13.05-11.78h-9.46a12.9,12.9,0,1,1,0-25.79h9.46c7.18,0,13.05-5.3,13.05-11.78s-5.87-11.78-13.05-11.78h-9.46a12.9,12.9,0,1,1,0-25.79h9.46c7.18,0,13.05-5.3,13.05-11.78s-5.87-11.78-13.05-11.78h-9.46a12.9,12.9,0,1,1,0-25.79h9.46c7.18,0,13.05-5.3,13.05-11.78s-5.87-11.77-13.05-11.77h-9.46a12.9,12.9,0,1,1,0-25.79h9.46c7.18,0,13.05-5.3,13.05-11.78s-5.87-11.78-13.05-11.78h-9.46a12.9,12.9,0,1,1,0-25.79h9.46c7.18,0,13.05-5.3,13.05-11.78s-5.87-11.78-13.05-11.78h-9.46c-7.18,0-13.05-3.11-13.05-6.92v-6.92H353.5a60.19,60.19,0,0,1,60.19,60.2V452.79A60.19,60.19,0,0,1,353.5,513Z"/>
      <path class="cls-5" d="M179.78,513v-6c0-3.28,5.87-6,13.05-6h9.46c7.18,0,13.05-5.3,13.05-11.78s-5.87-11.78-13.05-11.78h-9.46a12.9,12.9,0,1,1,0-25.79h9.46c7.18,0,13.05-5.3,13.05-11.78s-5.87-11.77-13.05-11.77h-9.46a12.9,12.9,0,1,1,0-25.8h9.46c7.18,0,13.05-5.3,13.05-11.77s-5.87-11.78-13.05-11.78h-9.46a12.9,12.9,0,1,1,0-25.79h9.46c7.18,0,13.05-5.3,13.05-11.78s-5.87-11.78-13.05-11.78h-9.46a12.9,12.9,0,1,1,0-25.79h9.46c7.18,0,13.05-5.3,13.05-11.78s-5.87-11.78-13.05-11.78h-9.46a12.9,12.9,0,1,1,0-25.79h9.46c7.18,0,13.05-5.3,13.05-11.78s-5.87-11.77-13.05-11.77h-9.46a12.9,12.9,0,1,1,0-25.79h9.46c7.18,0,13.05-5.3,13.05-11.78s-5.87-11.78-13.05-11.78h-9.46a12.9,12.9,0,1,1,0-25.79h9.46c7.18,0,13.05-5.3,13.05-11.78s-5.87-11.78-13.05-11.78h-9.46c-7.18,0-13.05-3.11-13.05-6.92v-6.92H353.5a60.19,60.19,0,0,1,60.19,60.2V452.79A60.19,60.19,0,0,1,353.5,513Z"/>
      <path class="cls-3" d="M214.76-2.31C213.1,2.49,208.13,6,202.29,6h-9.46a13,13,0,0,0-13.05,12.9,13,13,0,0,0,13.05,12.89h9.46c7.18,0,13.05,5.3,13.05,11.78s-5.87,11.78-13.05,11.78h-9.46c-7.18,0-13.05,2.69-13.05,6v6H361.4a60.2,60.2,0,0,0,60.2-60.2v-9.4Z"/>
      <path class="cls-6" d="M214.76-2.31C213.1,2.49,208.13,6,202.29,6h-9.46a13,13,0,0,0-13.05,12.9,13,13,0,0,0,13.05,12.89h9.46c7.18,0,13.05,5.3,13.05,11.78s-5.87,11.78-13.05,11.78h-9.46c-7.18,0-13.05,2.69-13.05,6v6H361.4a60.2,60.2,0,0,0,60.2-60.2v-9.4Z"/>
      <path class="cls-4" d="M214.76-2.31C213.1,2.49,208.13,6,202.29,6h-9.46a13,13,0,0,0-13.05,12.9,13,13,0,0,0,13.05,12.89h9.46c7.18,0,13.05,5.3,13.05,11.78s-5.87,11.78-13.05,11.78h-9.46c-7.18,0-13.05,2.69-13.05,6v6H361.4a60.2,60.2,0,0,0,60.2-60.2v-9.4Z"/>
      <path class="cls-5" d="M214.76-2.31C213.1,2.49,208.13,6,202.29,6h-9.46a13,13,0,0,0-13.05,12.9,13,13,0,0,0,13.05,12.89h9.46c7.18,0,13.05,5.3,13.05,11.78s-5.87,11.78-13.05,11.78h-9.46c-7.18,0-13.05,2.69-13.05,6v6H361.4a60.2,60.2,0,0,0,60.2-60.2v-9.4Z"/>
      <polyline class="cls-7" points="490.59 293.53 490.59 -9.06 560.59 -9.06 560.59 512.95 490.59 512.95 490.59 311.65"/>
    </g>
    <g id="Icons">
      <g id="Text">
        <g id="NHE">
          <ellipse class="cls-8" cx="180.27" cy="316.63" rx="14.54" ry="33"/>
          <ellipse class="cls-9" cx="180.27" cy="316.63" rx="14.54" ry="33"/>
          <line class="cls-10" x1="278.68" y1="336.75" x2="151.32" y2="336.75"/>
          <polygon class="cls-11" points="152.91 334.43 144.24 336.75 152.91 339.08 152.91 334.43"/>
          <line class="cls-10" x1="120.939" y1="314.13" x2="299.64" y2="314.13"/>
          <polygon class="cls-11" points="298.05 316.46 306.72 314.14 298.05 311.81 298.05 316.46"/>
          <path class="cls-12" d="M251.37,283.63H180.26c8,0,14.55,14.76,14.55,33s-6.51,33-14.55,33h71.11c8,0,14.55-14.76,14.55-33S259.41,283.63,251.37,283.63Z"/>
          <path class="cls-9" d="M251.37,283.63H180.26c8,0,14.55,14.76,14.55,33s-6.51,33-14.55,33h71.11c8,0,14.55-14.76,14.55-33S259.41,283.63,251.37,283.63Z"/>
          <text class="cls-13" transform="translate(199.63 325.44)" style="white-space: pre;">NHE-3</text>
          <line class="cls-10" x1="73.957" y1="83.218" x2="56.337" y2="81.927" style="fill: none; stroke: rgb(26, 69, 84); stroke-miterlimit: 10;" transform="matrix(-0.733173, -0.680042, 0.680042, -0.733173, 56.758249, 187.415141)"/>
          <polygon class="cls-11" points="77.519 88.575 68.849 90.895 77.519 93.225 77.519 88.575" style="fill: rgb(26, 69, 84);" transform="matrix(-0.733173, -0.680042, 0.680042, -0.733173, 65.024714, 207.313618)"/>
          <line class="cls-10" x1="67.216" y1="83.129" x2="49.596" y2="81.838" style="fill: none; stroke: rgb(26, 69, 84); stroke-miterlimit: 10;" transform="matrix(-0.733173, -0.680042, 0.680042, -0.733173, 45.13546, 182.676716)"/>
          <polygon class="cls-11" points="70.778 88.486 62.108 90.806 70.778 93.136 70.778 88.486" style="fill: rgb(26, 69, 84);" transform="matrix(-0.733173, -0.680042, 0.680042, -0.733173, 53.40191, 202.575226)"/>
        </g>
        <g id="ATP_Ase" data-name="ATP Ase">
          <line class="cls-10" x1="333.72" y1="409.11" x2="474.6" y2="409.11"/>
          <polygon class="cls-11" points="471.95 412.39 471.4 411.8 474.29 409.12 471.4 406.43 471.95 405.84 475.46 409.12 471.95 412.39"/>
          <line class="cls-10" x1="445.71" y1="427.12" x2="315.24" y2="427.12"/>
          <polygon class="cls-11" points="317.89 423.85 318.44 424.44 315.55 427.12 318.44 429.81 317.89 430.39 314.37 427.12 317.89 423.85"/>
          <rect class="cls-2" x="348.94" y="403.73" width="90" height="32" rx="16" ry="16"/>
          <rect class="cls-9" x="348.94" y="403.73" width="90" height="32" rx="16" ry="16"/>
          <text class="cls-13" transform="translate(360.41 425.81)" style="white-space: pre;"><tspan class="cls-14">A</tspan><tspan x="11.86" y="0">TPase</tspan></text>
        </g>
        <path class="cls-10" d="M423.69,121.09v24.52a10,10,0,0,0,10,10H524"/>
        <polygon class="cls-11" points="521.34 158.88 520.8 158.3 523.68 155.61 520.8 152.93 521.34 152.34 524.86 155.61 521.34 158.88"/>
        <rect class="cls-15" x="197" y="77.77" width="170.23" height="8.85"/>
        <g id="Text_und_Pfeile" data-name="Text und Pfeile" transform="matrix(0.6926900148391724, 0, 0, 0.7296138405799866, 29.667238133373033, 11.876027352338461)">
          <use width="161.72" height="202.21" transform="matrix(1.465129, 0, 0, 1.54346, -256.381836, -2.107421)" xlink:href="#Kidey_zoom"/>
        </g>
      </g>
      <g id="AQP">
        <ellipse class="cls-20" cx="381.21" cy="191.4" rx="7.02" ry="16"/>
        <path class="cls-21" d="M381.21,207.9c-4.22,0-7.52-7.25-7.52-16.5s3.3-16.5,7.52-16.5,7.51,7.25,7.51,16.5S385.42,207.9,381.21,207.9Zm0-32c-3.54,0-6.52,7.1-6.52,15.5s3,15.5,6.52,15.5,6.52-7.1,6.52-15.5S384.74,175.9,381.21,175.9Z"/>
        <path class="cls-22" d="M438.18,175.4h-57c3.88,0,7,7.16,7,16s-3.14,16-7,16h57c3.88,0,7-7.15,7-16S442.06,175.4,438.18,175.4Z"/>
        <path class="cls-21" d="M438.18,207.9h-57v-1c3.54,0,6.53-7.1,6.53-15.5s-3-15.5-6.53-15.5v-1h57c4.21,0,7.51,7.25,7.51,16.5S442.39,207.9,438.18,207.9Zm-54.35-1h54.35c3.53,0,6.52-7.1,6.52-15.5s-3-15.5-6.52-15.5H383.83c2.88,2.29,4.89,8.29,4.89,15.5S386.71,204.61,383.83,206.9Z"/>
        <text class="cls-13" transform="translate(395.92 198.47)" style="white-space: pre;">AQ<tspan class="cls-23" x="28.9" y="0">P</tspan></text>
      </g>
      <g id="AQP-3" data-name="AQP">
        <ellipse class="cls-24" cx="175.74" cy="191.4" rx="7.05" ry="16"/>
        <path class="cls-22" d="M233,175.4H175.73c3.9,0,7.05,7.16,7.05,16s-3.15,16-7.05,16H233c3.9,0,7.06-7.15,7.06-16S236.88,175.4,233,175.4Z"/>
        <path class="cls-9" d="M233,175.4H175.73c3.9,0,7.05,7.16,7.05,16s-3.15,16-7.05,16H233c3.9,0,7.06-7.15,7.06-16S236.88,175.4,233,175.4Z"/>
        <text class="cls-13" transform="translate(190.52 198.47)" style="white-space: pre;">AQ<tspan class="cls-25" x="28.9" y="0">P</tspan></text>
      </g>
    </g>
    <g id="Text-2" data-name="Text">
      <text class="cls-13" transform="translate(214.69 107.51)" style="white-space: pre;">[Ca²</text>
      <text class="cls-26" transform="translate(252.47 100.85) scale(0.58)" style="white-space: pre;">+</text>
      <text class="cls-13" transform="translate(259.28 107.51)" style="white-space: pre;">] gradient</text>
      <text class="cls-13" transform="translate(396.4 112.26)" style="white-space: pre;">Ca²</text>
      <text class="cls-26" transform="translate(428.62 105.6) scale(0.58)" style="white-space: pre;">+</text>
      <text class="cls-13" transform="translate(435.43 112.26)" style="white-space: pre;"> </text>
      <text class="cls-13" style="white-space: pre;" x="-4.785" y="-0.478"><tspan x="80.435" y="91.394" style="font-size: 20px; word-spacing: 0px;">[Ca² ]</tspan><tspan style="font-size: 9px; word-spacing: 0px;">p</tspan></text>
      <text class="cls-26" style="white-space: pre; font-size: 11.6px;" x="117.575" y="85.312">+</text>
      <text class="cls-13" transform="translate(193.05 100.03)" style="white-space: pre;"> </text>
      <text class="cls-13" transform="translate(283.32 411.65)" style="white-space: pre;">3 Na</text>
      <text class="cls-26" transform="translate(325.56 404.99) scale(0.58)" style="white-space: pre;">+</text>
      <text class="cls-13" transform="translate(332.37 411.65)" style="white-space: pre;"> </text>
      <text class="cls-13" transform="translate(282.83 343.08)" style="white-space: pre;">H</text>
      <text class="cls-26" transform="translate(297.27 336.42) scale(0.58)" style="white-space: pre;">+</text>
      <text class="cls-13" transform="translate(304.08 343.08)" style="white-space: pre;"> </text>
      <text class="cls-13" style="white-space: pre; font-size: 20px;" x="90.959" y="320.859">Na</text>
      <text class="cls-26" transform="matrix(1, 0, 0, 1.000001, 114.515343, 312.277527)" style="white-space: pre; font-size: 11.6px;">+</text>
      <text class="cls-13" transform="translate(142.67 316.63)" style="white-space: pre;"> </text>
      <g id="Minus">
        <circle class="cls-27" cx="350.119" cy="262.044" r="8"/>
        <path class="cls-2" d="M 345.619 263.204 L 345.619 260.894 L 354.619 260.894 L 354.619 263.204 Z"/>
      </g>
      <g id="Minus-2" data-name="Minus" transform="matrix(1, 0, 0, 1, -27.181681, 60.405521)">
        <circle class="cls-27" cx="99.98" cy="253.31" r="8"/>
        <path class="cls-2" d="M95.48,254.46v-2.31h9v2.31Z"/>
      </g>
      <text class="cls-13" transform="translate(451.25 432.08)" style="white-space: pre;">2 K</text>
      <text class="cls-26" transform="translate(481.27 425.42) scale(0.58)" style="white-space: pre;">+</text>
      <text class="cls-13" transform="translate(488.08 432.08)" style="white-space: pre;"> </text>
      <text class="cls-28" transform="translate(376.66 37.58)" style="white-space: pre;">peritubular <tspan x="26.65" y="20">space</tspan></text>
      <text class="cls-26" transform="translate(376.66 37.58)" style="white-space: pre;">peritubular <tspan x="26.65" y="20">space</tspan></text>
      <text class="cls-13" style="white-space: pre; font-size: 20px;" x="81.001" y="201.239">H2O </text>
      <text class="cls-26" transform="translate(497.65 38.22)" style="white-space: pre;">blood</text>
      <text class="cls-28" transform="translate(100.44 43.77)" style="white-space: pre;">lumen</text>
      <text class="cls-26" transform="translate(100.44 43.77)" style="white-space: pre;">lumen</text>
      <text class="cls-26" transform="translate(504.21 309.14)" style="white-space: pre;">PTH</text>
      <text class="cls-26" transform="translate(249.88 486.11)" style="white-space: pre;">PT cell</text>
      <g id="Minus-3" data-name="Minus" transform="matrix(1, 0, 0, 1, 23.877523, 11.760571)">
        <circle class="cls-27" cx="99.98" cy="127.31" r="8"/>
        <path class="cls-2" d="M95.48,128.46v-2.31h9v2.31Z"/>
      </g>
      <text x="63.821" y="272.539" style="white-space: pre; fill: rgb(51, 51, 51); font-size: 24px;"> </text>
      <g id="g-1" data-name="Minus" transform="matrix(1, 0, 0, 1, 60.148075, -10.969775)">
        <circle class="cls-27" cx="99.98" cy="127.31" r="8" style="fill: rgb(255, 76, 0);"/>
        <path class="cls-2" d="M95.48,128.46v-2.31h9v2.31Z" style="fill: rgb(255, 255, 255);"/>
      </g>
      <g id="g-2" data-name="Minus" transform="matrix(1, 0, 0, 1, 41.315289, 48.744263)">
        <circle class="cls-27" cx="99.98" cy="127.31" r="8" style="fill: rgb(255, 76, 0);"/>
        <path class="cls-2" d="M95.48,128.46v-2.31h9v2.31Z" style="fill: rgb(255, 255, 255);"/>
      </g>
    </g>
    <g id="Zoom_Rahmen" data-name="Zoom Rahmen">
      <g id="Neues_Symbol_2-2" data-name="Neues Symbol 2">
        <g id="Kidney_klein-5" data-name="Kidney klein">
          <circle class="cls-29" cx="50" cy="50" r="30"/>
        </g>
        <rect class="cls-29" width="560" height="500"/>
      </g>
    </g>
    <rect x="-109.528" y="55.405" width="41.496" height="53.076" style="fill-opacity: 0.7; fill: rgb(88, 82, 82);"/>
    <g id="Ebene_13" data-name="Ebene 13" transform="matrix(1.636384, 0.192003, 0.177707, -1.514539, -82.036446, 222.108307)">
      <use width="70" height="77.95" transform="matrix(1, 0, 0, 1, 0, 0)" xlink:href="#Pfeil"/>
    </g>
    <text style="fill: rgb(51, 51, 51); font-size: 20px; white-space: pre;" x="-136.55" y="271.568">Proximal Tubule</text>
    <text style="fill: rgb(51, 51, 51); font-size: 20px; white-space: pre;" x="-80.065" y="582.788">NHE-3: sodium/hydrogene antiporter 3</text>
    <text x="-41.978" y="607.394" style="white-space: pre; fill: rgb(51, 51, 51); font-size: 24px;"> </text>
    <text style="fill: rgb(51, 51, 51); font-size: 20px; white-space: pre;" x="-79.964" y="617.323">AQP: aquaporin</text>
    <text style="fill: rgb(51, 51, 51); font-size: 20px; white-space: pre;" x="-80.824" y="649.204">PT: proximal tubule</text>
  </g>
  <line style="fill: rgb(26, 69, 84); stroke-width: 14; stroke: rgb(255, 235, 4);" x1="287.861" y1="351.318" x2="477.293" y2="244.655" transform="matrix(-0.871802, -0.489859, 0.489859, -0.871802, 570.029624, 742.308346)"/>
  <line style="fill: rgb(26, 69, 84); stroke-width: 14; stroke: rgb(255, 235, 4);" x1="275.243" y1="280.274" x2="313.385" y2="271.726" transform="matrix(-0.206253, 0.978499, -0.978499, -0.206253, 606.574533, 62.278693)" bx:origin="0.073 0.636"/>
  <line style="stroke-width: 4; fill: rgb(26, 69, 84); stroke-dasharray: 4px; stroke: rgb(255, 3, 3);" x1="63.177" y1="138.376" x2="137.655" y2="135.341" transform="matrix(0.042264, -0.999106, 0.999106, 0.042264, -40.564197, 231.400596)"/>
  <line style="stroke-width: 4; fill: rgb(26, 69, 84); stroke: rgb(255, 3, 3);" x1="91.6" y1="96.812" x2="102.495" y2="104.287" transform="matrix(0.181567, -0.983379, 0.983379, 0.181567, -19.451336, 177.727476)"/>
  <line style="stroke-width: 4; fill: rgb(26, 69, 84); stroke: rgb(255, 0, 0);" x1="94.072" y1="96.058" x2="105.415" y2="102.569" transform="matrix(-0.996964, -0.07787, 0.07787, -0.996964, 195.877123, 206.603644)" bx:origin="0.696 0.526"/>
  <line style="stroke-width: 4; fill: rgb(26, 69, 84); stroke-dasharray: 4px; stroke: rgb(0, 0, 0);" x1="63.07" y1="262.112" x2="142.584" y2="256.372" transform="matrix(-0.073772, 0.997275, -0.997275, -0.073772, 366.45283, 176.862775)"/>
  <line style="stroke-width: 4; fill: rgb(26, 69, 84); stroke: rgb(0, 0, 0);" x1="98.268" y1="295.554" x2="109.163" y2="303.029" transform="matrix(-0.212509, 0.977159, -0.977159, -0.212509, 418.211393, 261.547087)"/>
  <line style="stroke-width: 4; fill: rgb(26, 69, 84); stroke: rgb(0, 0, 0);" x1="90.871" y1="296.779" x2="102.214" y2="303.29" transform="matrix(0.99401, 0.109293, -0.109293, 0.99401, 33.401783, -8.996047)" bx:origin="0.696 0.526"/>
  <line style="stroke-width: 4; fill: rgb(26, 69, 84); stroke: rgb(0, 0, 0);" x1="90.864" y1="217.171" x2="101.759" y2="224.646" transform="matrix(0.269959, -0.962872, 0.962872, 0.269959, -142.395237, 254.007903)"/>
  <line style="stroke-width: 4; fill: rgb(26, 69, 84); stroke: rgb(0, 0, 0);" x1="93.411" y1="216.865" x2="104.754" y2="223.376" transform="matrix(-0.9858, -0.167921, 0.167921, -0.9858, 164.181664, 454.462946)" bx:origin="0.696 0.526"/>
  <line style="stroke-width: 4; fill: rgb(26, 69, 84); stroke-dasharray: 4px; stroke: rgb(255, 3, 3);" x1="131.272" y1="104.416" x2="205.749" y2="101.381" transform="matrix(0.999107, 0.042248, -0.042248, 0.999107, 4.497715, -7.027366)"/>
  <line style="stroke-width: 4; fill: rgb(26, 69, 84); stroke: rgb(255, 3, 3);" x1="199.372" y1="95.793" x2="210.267" y2="103.268" transform="matrix(0.983382, 0.181551, -0.181551, 0.983382, 21.473654, -35.531146)"/>
  <line style="stroke-width: 4; fill: rgb(26, 69, 84); stroke: rgb(255, 0, 0);" x1="197.992" y1="101.025" x2="209.335" y2="107.536" transform="matrix(0.077854, -0.996965, 0.996965, 0.077854, 85.72487, 301.579774)" bx:origin="0.696 0.526"/>
  <line style="stroke-width: 4; fill: rgb(26, 69, 84); stroke-dasharray: 4px; stroke: rgb(255, 3, 3);" x1="126.064" y1="193.447" x2="163.157" y2="191.993" transform="matrix(0.999107, 0.042248, -0.042248, 0.999107, 8.287856, -5.14703)"/>
  <line style="stroke-width: 4; fill: rgb(26, 69, 84); stroke: rgb(255, 3, 3);" x1="156.78" y1="186.405" x2="167.675" y2="193.88" transform="matrix(0.983382, 0.181551, -0.181551, 0.983382, 37.216496, -26.292665)"/>
  <line style="stroke-width: 4; fill: rgb(26, 69, 84); stroke: rgb(255, 0, 0);" x1="155.4" y1="191.637" x2="166.743" y2="198.148" transform="matrix(0.077854, -0.996965, 0.996965, 0.077854, -43.888176, 342.674513)" bx:origin="0.696 0.526"/>
</svg>