<?xml version="1.0" encoding="utf-8"?>
<svg viewBox="-153.093 0 713.093 721.134" xmlns="http://www.w3.org/2000/svg" xmlns:xlink="http://www.w3.org/1999/xlink" xmlns:bx="https://boxy-svg.com">
  <defs>
    <style>.cls-1{isolation:isolate;}.cls-2,.cls-24{fill:#fff;}.cls-3{fill:#fbf2f0;}.cls-20,.cls-26,.cls-33,.cls-4,.cls-5,.cls-7{fill:none;}.cls-13,.cls-14,.cls-15,.cls-24,.cls-4,.cls-7,.cls-8{stroke:#c34a29;}.cls-20,.cls-23,.cls-24,.cls-4,.cls-5,.cls-7,.cls-8{stroke-miterlimit:10;}.cls-4{stroke-width:4px;}.cls-5{stroke:#f1d3cc;stroke-width:2px;}.cls-6{fill:#f9ccbf;}.cls-8{fill:#f7e6e1;}.cls-9{fill:#92d6df;}.cls-19,.cls-9{stroke:#39858e;}.cls-10,.cls-11,.cls-13,.cls-14,.cls-15,.cls-19,.cls-22,.cls-9{stroke-linecap:round;stroke-linejoin:round;}.cls-10{fill:#f1ac6a;}.cls-10,.cls-11{stroke:#d46f33;}.cls-11{fill:#f7d3b0;}.cls-12{fill:#fdeabf;}.cls-13{fill:#f0d2ca;}.cls-13,.cls-14,.cls-15{stroke-width:1.5px;}.cls-14{fill:#8fd5de;}.cls-15{fill:#f5ab96;}.cls-16{fill:#f6e4df;}.cls-17,.cls-25,.cls-26,.cls-27,.cls-28{font-size:20px;}.cls-17,.cls-21,.cls-25,.cls-27,.cls-28{fill:#1a4554;}.cls-17{font-family:ArialMT, Arial;}.cls-18{letter-spacing:-0.06em;}.cls-19{fill:#86d2dc;}.cls-20{stroke:#1a4554;}.cls-22{fill:#f2987f;stroke:#d55a51;}.cls-23{fill:#c4d262;stroke:#798728;}.cls-25,.cls-26,.cls-27,.cls-28{font-family:Arial-BoldMT, Arial;font-weight:700;}.cls-26{stroke:#fff;stroke-width:3px;}.cls-27{letter-spacing:0.03em;}.cls-28{letter-spacing:0.02em;}.cls-29{fill:#d47e67;}.cls-30{fill:#c34a29;}.cls-31{fill:#ff4c00;}.cls-32{fill:#1c8843;}.cls-34{mix-blend-mode:multiply;}</style>
    <symbol id="Kidey_zoom" data-name="Kidey zoom" viewBox="0 0 161.72 202.21">
      <path class="cls-3" d="M160,27.07l-.05.18-1.39,5.16L145.36,81.15,144.05,86l-1.38,5.1-1.31,4.85L139,104.69l-24.83,91.79H51.65L24.37,103.66,21.83,95l-1.41-4.8-1.48-5-1.41-4.8L3.3,32l-1.48-5L7.06,15.8a195.5,195.5,0,0,1,147.82.42Z" style="fill: none; stroke: rgb(174, 85, 54); stroke-width: 3px; stroke-linecap: round; stroke-linejoin: round; stroke-miterlimit: 10;"/>
      <path class="cls-3" d="M159.94,27.24l-1.39,5.16L145.36,81.14,144.05,86l-1.38,5.1-1.31,4.85L139,104.68l-24.83,91.79H51.65L24.37,103.65,21.83,95l-1.41-4.8-1.48-5-1.41-4.8L3.3,32,1.8,26.84a187.39,187.39,0,0,1,158.14.4Z" style="fill: none; stroke: rgb(174, 85, 54); stroke-width: 3px; stroke-linecap: round; stroke-linejoin: round; stroke-miterlimit: 10;"/>
      <path class="cls-3" d="M158.55,32.4,145.36,81.14,144.05,86l-1.38,5.1-1.31,4.85L139,104.68l-24.83,91.79H51.65L24.37,103.65,21.83,95l-1.41-4.8-1.48-5-1.41-4.8L3.3,32a182.1,182.1,0,0,1,155.25.45Z" style="fill: none; stroke: rgb(174, 85, 54); stroke-width: 3px; stroke-linecap: round; stroke-linejoin: round; stroke-miterlimit: 10;"/>
      <path class="cls-3" d="M139,104.68l-24.83,91.79L113,200.71H52.9l-1.25-4.24L24.37,103.65a142.49,142.49,0,0,1,19.34-6.31q1.44-.37,2.91-.69,5.49-1.27,11.16-2.12c1.18-.17,2.37-.34,3.57-.48,2.72-.35,5.48-.62,8.25-.81,1.1-.08,2.2-.14,3.3-.19,2.5-.13,5-.19,7.55-.19a151.16,151.16,0,0,1,17.8,1q2.7.3,5.35.71A144.88,144.88,0,0,1,139,104.68Z" style="fill: none; stroke: rgb(174, 85, 54); stroke-width: 3px; stroke-linecap: round; stroke-linejoin: round; stroke-miterlimit: 10;"/>
      <path class="cls-3" d="M145.37,81.15,144.06,86a160.4,160.4,0,0,0-18-6c-1-.27-1.93-.52-2.91-.76a165,165,0,0,0-19.51-3.68c-1.46-.2-2.93-.37-4.4-.54-1-.1-2.1-.2-3.15-.28-1.35-.12-2.71-.23-4.07-.31q-5.73-.37-11.54-.37h-.92c-1.08,0-2.17,0-3.25,0a171.1,171.1,0,0,0-20.36,1.63c-1.16.14-2.32.32-3.47.51a166.78,166.78,0,0,0-33.51,8.89l-1.41-4.79c3.55-1.35,7.17-2.59,10.84-3.69L19.47,43.9a1.5,1.5,0,0,1,2.89-.79l2.53,9.29c.7-3.26,2.16-7.7,5.09-9.88a6.66,6.66,0,0,1,5.64-1.14c1.64.36,2.46.8,2.81,1.51.43.89,0,1.81-.61,3.09a20,20,0,0,0-1.39,3.58c-.42,1.54-.05,4.21,1.71,5a.76.76,0,0,1,.38,1,.75.75,0,0,1-1,.38c-2.66-1.18-3.09-4.73-2.55-6.75a22.48,22.48,0,0,1,1.48-3.84c.35-.72.74-1.54.62-1.78,0-.08-.29-.38-1.78-.71a5.21,5.21,0,0,0-4.43.88c-3.7,2.75-4.79,10.13-5,12.18l5.42,19.94a169.25,169.25,0,0,1,17.21-4h0c1.35-.24,2.71-.48,4.08-.68a181.68,181.68,0,0,1,21.89-2c1.14,0,2.28-.07,3.43-.08h2.58c2.6,0,5.2,0,7.78.17,1.36,0,2.72.11,4.07.21q3.48.21,6.92.57c1.47.14,2.94.31,4.39.51a172.37,172.37,0,0,1,20.57,3.85c1,.22,2,.47,2.92.75,2.48.65,4.94,1.37,7.37,2.14L142.33,45a1.5,1.5,0,0,1,2.92.7l-7.91,32.48C140,79.13,142.73,80.09,145.37,81.15Z" style="fill: none; stroke: rgb(174, 85, 54); stroke-width: 3px; stroke-linecap: round; stroke-linejoin: round; stroke-miterlimit: 10;"/>
      <path class="cls-3" d="M142.67,91.08l-1.31,4.85A157,157,0,0,0,103.6,85.79q-2.73-.39-5.49-.67a165.66,165.66,0,0,0-17.66-.94c-1.66,0-3.31,0-5,.07s-3.17.12-4.74.21q-5.84.35-11.52,1.08c-1.13.14-2.25.29-3.36.47q-5.66.82-11.15,2.06l1.89,8.58L56,139.06a1.48,1.48,0,0,1-1.14,1.78,1.17,1.17,0,0,1-.32,0,1.49,1.49,0,0,1-1.46-1.18L43.71,97.34l-1.9-8.6a153.87,153.87,0,0,0-20,6.28l-1.41-4.8a161.25,161.25,0,0,1,34.11-9.07c1.08-.17,2.17-.33,3.26-.47,2-.26,3.91-.49,5.89-.67,1.07-.12,2.15-.22,3.24-.29,4.45-.36,9-.54,13.53-.54q8,0,15.7.72c2.51.22,5,.51,7.46.85A163.93,163.93,0,0,1,122,84.32l1.11-5.07,1.06-4.87,1.88-8.57a1.5,1.5,0,0,1,2.94.64l-1.9,8.68L126,80l-1.12,5.08A160.31,160.31,0,0,1,142.67,91.08Z" style="fill: none; stroke: rgb(174, 85, 54); stroke-width: 3px; stroke-linecap: round; stroke-linejoin: round; stroke-miterlimit: 10;"/>
      <path class="cls-3" d="M112,143.41l-1.18-3.25a25.31,25.31,0,0,0-6.49,4c-.67.51-.69-1.84-.69-1.84-.08-42.23,0-50.53,0-105.81a7.27,7.27,0,0,1,6.67-7.17l.27-.05L110,26.17A11,11,0,0,0,102.7,30a2.55,2.55,0,0,1-1.43.88,1.89,1.89,0,0,1-1.31-.72,10.4,10.4,0,0,0-6.43-4L93,29.35h0A7.52,7.52,0,0,1,96.1,30.8,7.9,7.9,0,0,1,99,36.63v0c.09,3.54.34,39.63.15,41.89a21.68,21.68,0,0,0-2.68-3.21c-.64-.94-2.17-3-4-5.61-3.07-4.44-6.52-10-11.06-12.1-1.93-1.34-8.17-1.34-8.28,5.12A21.45,21.45,0,0,0,75,70.62c.77,1.76,1.56,3.57,1.23,4.46s-1.61.84-4.53.28C69,74.83,64.78,74,63.81,78a4.42,4.42,0,0,0,.38,3.46c1,1.65,3,2.11,4.89,2.55,2.74.64,3.59,1,3.62,2.3A4.18,4.18,0,0,1,71.51,89a7.5,7.5,0,0,0-1.82,6.18c.45,2.75,2.36,3.79,3.89,4.63,1.76,1,3.16,1.73,3.22,5.14l.85,42.9a1.6,1.6,0,0,0,.38,1l.58.06c.48,9.81,2.91,37.72,2.91,39.74,0,2.81-1.4,4.84-2.69,5.11-1.14.23-2.36-.89-3.32-3.09C73.43,185.92,67,150,63.2,110.18c.45-.28.78-.89.78-2.08.23-.44-4.85-28.57-9.35-34.59a26.62,26.62,0,0,0-4.25-4.24c-2.48-1.84-3.86-3-3.36-5.26a2.6,2.6,0,0,1,1.7-2.13c1.27-.31,3,.75,4.76,2.9,2.16,2.64,5,4.06,7.77,3.88a5.53,5.53,0,0,0,4.42-2.34c2-3.24.28-5.9-.89-7.66s-1.44-2.41-1-3.25c.62-1.08,1.79-1,4.78-.11,2.08.6,4.24,1.22,5.95.16a4.17,4.17,0,0,0,1.81-3c.63-3.52-1.84-4.91-3.64-5.92C71.32,45.78,70,45,69.4,43.4s-.29-3.63,0-5.62c.35-2.54.67-4.94-.73-6.65A4.86,4.86,0,0,0,65,29.51c-4.23-.27-4.92,4.15-5.42,7.37-.72,4.6-1.38,6.76-4.34,6.72a5.35,5.35,0,0,1-3-1.29A14.6,14.6,0,0,0,50.23,41a8.35,8.35,0,0,0-3.38-.88A7.09,7.09,0,0,0,40,44.85a1,1,0,0,0,.58,1.28c.51.19.84-.27,1.09-.73a5.74,5.74,0,0,1,5.18-3.26,5.89,5.89,0,0,1,4.49,3.35,6.07,6.07,0,0,1-.25,4.56,5.54,5.54,0,0,1-2.71,2.66c-2.1.94-3.92-.4-5.15-1.45-.42-.36-1.15-.93-1.58-.59a1,1,0,0,0-.17,1.39c1.56,2,5.19,3.59,7.91,2.72a6.54,6.54,0,0,0,4.16-4.08c.53-1.47,1.11-3.69,2.72-3.92,5.14-.57,6-5.84,6.52-9.4.59-3.8,1-4.71,2-4.65a2,2,0,0,1,1.33.44c.51.62.25,2.51,0,4.17-.31,2.27-.66,4.85.19,7.17,1,2.75,3.18,4,4.77,4.87,1.89,1.07,2.25,1.38,2,2.54-.09.49-.23.74-.33.8-.49.31-2.21-.19-3.34-.52-2.59-.75-6.5-1.87-8.49,1.61-1.54,2.69,0,5,1.07,6.63,1.29,1.95,1.7,2.81.85,4.16a2.43,2.43,0,0,1-1.88.84A6.36,6.36,0,0,1,56,62.73c-3.52-4.3-6.53-4.35-8-4a5.77,5.77,0,0,0-4.1,4.58c-1,4.42,2.12,6.71,4.59,8.55a13.89,13.89,0,0,1,2.74,2.44c3.44,4.54,4.69,11.65,6.34,19,1.91,8.51,2.69,16.42,3.49,16.7a3.54,3.54,0,0,0,.4.17c1.65,17.39,9.89,75.3,12.44,81.16,1.55,3.56,3.49,4.19,4.67,4.19a3.19,3.19,0,0,0,.65-.07c2.35-.49,4.11-3.44,4.11-6.86,0-2.08-2.38-29.18-2.9-39.71a1.59,1.59,0,0,0,.49-1.17L80,104.86c-.1-5.28-2.88-6.8-4.9-7.91-1.42-.78-2.06-1.17-2.25-2.32-.28-1.69.36-2.55,1.24-3.74a7.22,7.22,0,0,0,1.82-4.64c-.08-4-3.71-4.82-6.12-5.38-1.14-.27-2.56-.6-2.87-1.1a1.59,1.59,0,0,1,0-1c.18-.74.83-.89,4.16-.25,2.88.56,6.83,1.32,8.17-2.34.78-2.11-.23-4.42-1.3-6.87s-1.75-4.24-1.66-5.88c0,0-.38-2.26,2.59-2.78C82.59,60,89.27,71.05,94.6,78h0l0,0c.56.73,1.11,1.41,1.64,2v0a14.28,14.28,0,0,1,1.25,2.1,20.13,20.13,0,0,1,.73,5h0V119s0,1.09-.59.46a13.48,13.48,0,0,0-6.73-3.85L90.1,119c5.19,1.25,8.15,6,8.15,9.62l-.91,72h6.19l.13-47.4C103.67,150.16,106.51,145.37,112,143.41Z" style="fill: none; stroke: rgb(174, 85, 54); stroke-width: 3px; stroke-linecap: round; stroke-linejoin: round; stroke-miterlimit: 10;"/>
      <ellipse class="cls-3" cx="90.54" cy="117.33" rx="1.73" ry="1.04" transform="translate(-44.4 178.61) rotate(-76.77)" style="fill: none; stroke: rgb(174, 85, 54); stroke-width: 3px; stroke-linecap: round; stroke-linejoin: round; stroke-miterlimit: 10;"/>
      <ellipse class="cls-3" cx="93.26" cy="27.76" rx="1.61" ry="0.97" transform="translate(51.96 115.87) rotate(-81.46)" style="fill: none; stroke: rgb(174, 85, 54); stroke-width: 3px; stroke-linecap: round; stroke-linejoin: round; stroke-miterlimit: 10;"/>
      <ellipse class="cls-3" cx="111.53" cy="141.75" rx="1.04" ry="1.73" transform="translate(-42.91 48.58) rotate(-20.7)" style="fill: none; stroke: rgb(174, 85, 54); stroke-width: 3px; stroke-linecap: round; stroke-linejoin: round; stroke-miterlimit: 10;"/>
      <ellipse class="cls-3" cx="110.27" cy="27.76" rx="0.96" ry="1.6" transform="translate(-2.5 13.19) rotate(-6.77)" style="fill: none; stroke: rgb(174, 85, 54); stroke-width: 3px; stroke-linecap: round; stroke-linejoin: round; stroke-miterlimit: 10;"/>
      <path class="cls-3" d="M41.83,48.7h0l-.23,0h.27Z" style="fill: none; stroke: rgb(174, 85, 54); stroke-width: 3px; stroke-linecap: round; stroke-linejoin: round; stroke-miterlimit: 10;"/>
      <path class="cls-3" d="M50.42,47.53a.93.93,0,0,0,0-.13c0-.63-.53-.91-.89-1.09a1.37,1.37,0,0,1-.36-.23l0,0A.86.86,0,0,0,49,45h0l-.09,0a1,1,0,0,0,0-.15,1,1,0,0,0-.27-.33,1.24,1.24,0,0,0-.78-.21v0a1.18,1.18,0,0,0-.17-.72.88.88,0,0,0-.22-.25.85.85,0,0,0-.56-.19,1.19,1.19,0,0,0-1,.58h0a1.24,1.24,0,0,0-.79.65.73.73,0,0,0,0,.07,1.61,1.61,0,0,0-.39-.15,1.75,1.75,0,0,0-1.71.83,9.49,9.49,0,0,1-.71.89,3.19,3.19,0,0,1-2.46.94,1.38,1.38,0,0,1-1.09-.78c-.26-.56-.16-2,1.24-3.38a3.37,3.37,0,0,0,1-2.48,4.08,4.08,0,0,0-1.3-2.87l-1,1a2.71,2.71,0,0,1,.85,1.86,2,2,0,0,1-.59,1.46c-1.8,1.82-2,3.85-1.52,5a2.81,2.81,0,0,0,2.06,1.56,3.52,3.52,0,0,0,3.18-.86l.12-.1a5.47,5.47,0,0,0,.09.94.68.68,0,0,0,.05.12,3.17,3.17,0,0,1-1.11.33l-.23,0a5.57,5.57,0,0,0-.85.16,4.34,4.34,0,0,0-2.06,1.25A2.75,2.75,0,0,0,38.18,53a6.26,6.26,0,0,0,1.54,2.4c.91.94,1.47,1.51.71,2.92l1.25.67c1.24-2.33,0-3.57-.94-4.58a3.9,3.9,0,0,1-1.17-1.73,1.92,1.92,0,0,1,.19-1.58A3,3,0,0,1,41.89,50v0A.44.44,0,0,1,42,50h.3A4,4,0,0,1,43,50a2.14,2.14,0,0,1,1.43,1,3.08,3.08,0,0,0,.9.92,1.67,1.67,0,0,0,2.1-.1,1.61,1.61,0,0,0,.33-.46,1.53,1.53,0,0,0,.56-.2A1.27,1.27,0,0,0,49,50c0-.5-.26-.69.4-.69a1.11,1.11,0,0,0,1.19-1.13A1.54,1.54,0,0,0,50.42,47.53Z" style="fill: none; stroke: rgb(174, 85, 54); stroke-width: 3px; stroke-linecap: round; stroke-linejoin: round; stroke-miterlimit: 10;"/>
      <path class="cls-4" d="M160,27.07l-.05.18-1.39,5.16L145.36,81.15,144.05,86l-1.38,5.1-1.31,4.85L139,104.69l-24.83,91.79H51.65L24.37,103.66,21.83,95l-1.41-4.8-1.48-5-1.41-4.8L3.3,32l-1.48-5L7.06,15.8a195.5,195.5,0,0,1,147.82.42Z" style="fill: rgb(194, 127, 104); stroke: rgb(174, 85, 54); stroke-miterlimit: 10; stroke-width: 0.5px; stroke-linecap: round; stroke-linejoin: round;"/>
      <path class="cls-5" d="M159.94,27.24l-1.39,5.16L145.36,81.14,144.05,86l-1.38,5.1-1.31,4.85L139,104.68l-24.83,91.79H51.65L24.37,103.65,21.83,95l-1.41-4.8-1.48-5-1.41-4.8L3.3,32,1.8,26.84a187.39,187.39,0,0,1,158.14.4Z" style="fill: rgb(219, 180, 167); stroke: rgb(174, 85, 54); stroke-miterlimit: 10; stroke-width: 0.5px; stroke-linecap: round; stroke-linejoin: round;"/>
      <path class="cls-6" d="M158.55,32.4,145.36,81.14,144.05,86l-1.38,5.1-1.31,4.85L139,104.68l-24.83,91.79H51.65L24.37,103.65,21.83,95l-1.41-4.8-1.48-5-1.41-4.8L3.3,32a182.1,182.1,0,0,1,155.25.45Z" style="fill: rgb(244, 231, 227); stroke: rgb(174, 85, 54); stroke-miterlimit: 10; stroke-width: 0.5px;"/>
      <path class="cls-7" d="M139,104.68l-24.83,91.79L113,200.71H52.9l-1.25-4.24L24.37,103.65a142.49,142.49,0,0,1,19.34-6.31q1.44-.37,2.91-.69,5.49-1.27,11.16-2.12c1.18-.17,2.37-.34,3.57-.48,2.72-.35,5.48-.62,8.25-.81,1.1-.08,2.2-.14,3.3-.19,2.5-.13,5-.19,7.55-.19a151.16,151.16,0,0,1,17.8,1q2.7.3,5.35.71A144.88,144.88,0,0,1,139,104.68Z" style="fill: rgb(228, 199, 189); stroke: rgb(174, 85, 54); stroke-miterlimit: 10; stroke-width: 0.5px;"/>
      <path class="cls-8" d="M145.37,81.15,144.06,86a160.4,160.4,0,0,0-18-6c-1-.27-1.93-.52-2.91-.76a165,165,0,0,0-19.51-3.68c-1.46-.2-2.93-.37-4.4-.54-1-.1-2.1-.2-3.15-.28-1.35-.12-2.71-.23-4.07-.31q-5.73-.37-11.54-.37h-.92c-1.08,0-2.17,0-3.25,0a171.1,171.1,0,0,0-20.36,1.63c-1.16.14-2.32.32-3.47.51a166.78,166.78,0,0,0-33.51,8.89l-1.41-4.79c3.55-1.35,7.17-2.59,10.84-3.69L19.47,43.9a1.5,1.5,0,0,1,2.89-.79l2.53,9.29c.7-3.26,2.16-7.7,5.09-9.88a6.66,6.66,0,0,1,5.64-1.14c1.64.36,2.46.8,2.81,1.51.43.89,0,1.81-.61,3.09a20,20,0,0,0-1.39,3.58c-.42,1.54-.05,4.21,1.71,5a.76.76,0,0,1,.38,1,.75.75,0,0,1-1,.38c-2.66-1.18-3.09-4.73-2.55-6.75a22.48,22.48,0,0,1,1.48-3.84c.35-.72.74-1.54.62-1.78,0-.08-.29-.38-1.78-.71a5.21,5.21,0,0,0-4.43.88c-3.7,2.75-4.79,10.13-5,12.18l5.42,19.94a169.25,169.25,0,0,1,17.21-4h0c1.35-.24,2.71-.48,4.08-.68a181.68,181.68,0,0,1,21.89-2c1.14,0,2.28-.07,3.43-.08h2.58c2.6,0,5.2,0,7.78.17,1.36,0,2.72.11,4.07.21q3.48.21,6.92.57c1.47.14,2.94.31,4.39.51a172.37,172.37,0,0,1,20.57,3.85c1,.22,2,.47,2.92.75,2.48.65,4.94,1.37,7.37,2.14L142.33,45a1.5,1.5,0,0,1,2.92.7l-7.91,32.48C140,79.13,142.73,80.09,145.37,81.15Z" style="fill: rgb(227, 180, 161); stroke: rgb(174, 85, 54); stroke-miterlimit: 10; stroke-width: 0.5px;"/>
      <path class="cls-9" d="M142.67,91.08l-1.31,4.85A157,157,0,0,0,103.6,85.79q-2.73-.39-5.49-.67a165.66,165.66,0,0,0-17.66-.94c-1.66,0-3.31,0-5,.07s-3.17.12-4.74.21q-5.84.35-11.52,1.08c-1.13.14-2.25.29-3.36.47q-5.66.82-11.15,2.06l1.89,8.58L56,139.06a1.48,1.48,0,0,1-1.14,1.78,1.17,1.17,0,0,1-.32,0,1.49,1.49,0,0,1-1.46-1.18L43.71,97.34l-1.9-8.6a153.87,153.87,0,0,0-20,6.28l-1.41-4.8a161.25,161.25,0,0,1,34.11-9.07c1.08-.17,2.17-.33,3.26-.47,2-.26,3.91-.49,5.89-.67,1.07-.12,2.15-.22,3.24-.29,4.45-.36,9-.54,13.53-.54q8,0,15.7.72c2.51.22,5,.51,7.46.85A163.93,163.93,0,0,1,122,84.32l1.11-5.07,1.06-4.87,1.88-8.57a1.5,1.5,0,0,1,2.94.64l-1.9,8.68L126,80l-1.12,5.08A160.31,160.31,0,0,1,142.67,91.08Z" style="fill: rgb(181, 216, 225); stroke: rgb(174, 85, 54); stroke-miterlimit: 10; stroke-width: 0.5px; stroke-linecap: round; stroke-linejoin: round;"/>
      <path class="cls-10" d="M112,143.41l-1.18-3.25a25.31,25.31,0,0,0-6.49,4c-.67.51-.69-1.84-.69-1.84-.08-42.23,0-50.53,0-105.81a7.27,7.27,0,0,1,6.67-7.17l.27-.05L110,26.17A11,11,0,0,0,102.7,30a2.55,2.55,0,0,1-1.43.88,1.89,1.89,0,0,1-1.31-.72,10.4,10.4,0,0,0-6.43-4L93,29.35h0A7.52,7.52,0,0,1,96.1,30.8,7.9,7.9,0,0,1,99,36.63v0c.09,3.54.34,39.63.15,41.89a21.68,21.68,0,0,0-2.68-3.21c-.64-.94-2.17-3-4-5.61-3.07-4.44-6.52-10-11.06-12.1-1.93-1.34-8.17-1.34-8.28,5.12A21.45,21.45,0,0,0,75,70.62c.77,1.76,1.56,3.57,1.23,4.46s-1.61.84-4.53.28C69,74.83,64.78,74,63.81,78a4.42,4.42,0,0,0,.38,3.46c1,1.65,3,2.11,4.89,2.55,2.74.64,3.59,1,3.62,2.3A4.18,4.18,0,0,1,71.51,89a7.5,7.5,0,0,0-1.82,6.18c.45,2.75,2.36,3.79,3.89,4.63,1.76,1,3.16,1.73,3.22,5.14l.85,42.9a1.6,1.6,0,0,0,.38,1l.58.06c.48,9.81,2.91,37.72,2.91,39.74,0,2.81-1.4,4.84-2.69,5.11-1.14.23-2.36-.89-3.32-3.09C73.43,185.92,67,150,63.2,110.18c.45-.28.78-.89.78-2.08.23-.44-4.85-28.57-9.35-34.59a26.62,26.62,0,0,0-4.25-4.24c-2.48-1.84-3.86-3-3.36-5.26a2.6,2.6,0,0,1,1.7-2.13c1.27-.31,3,.75,4.76,2.9,2.16,2.64,5,4.06,7.77,3.88a5.53,5.53,0,0,0,4.42-2.34c2-3.24.28-5.9-.89-7.66s-1.44-2.41-1-3.25c.62-1.08,1.79-1,4.78-.11,2.08.6,4.24,1.22,5.95.16a4.17,4.17,0,0,0,1.81-3c.63-3.52-1.84-4.91-3.64-5.92C71.32,45.78,70,45,69.4,43.4s-.29-3.63,0-5.62c.35-2.54.67-4.94-.73-6.65A4.86,4.86,0,0,0,65,29.51c-4.23-.27-4.92,4.15-5.42,7.37-.72,4.6-1.38,6.76-4.34,6.72a5.35,5.35,0,0,1-3-1.29A14.6,14.6,0,0,0,50.23,41a8.35,8.35,0,0,0-3.38-.88A7.09,7.09,0,0,0,40,44.85a1,1,0,0,0,.58,1.28c.51.19.84-.27,1.09-.73a5.74,5.74,0,0,1,5.18-3.26,5.89,5.89,0,0,1,4.49,3.35,6.07,6.07,0,0,1-.25,4.56,5.54,5.54,0,0,1-2.71,2.66c-2.1.94-3.92-.4-5.15-1.45-.42-.36-1.15-.93-1.58-.59a1,1,0,0,0-.17,1.39c1.56,2,5.19,3.59,7.91,2.72a6.54,6.54,0,0,0,4.16-4.08c.53-1.47,1.11-3.69,2.72-3.92,5.14-.57,6-5.84,6.52-9.4.59-3.8,1-4.71,2-4.65a2,2,0,0,1,1.33.44c.51.62.25,2.51,0,4.17-.31,2.27-.66,4.85.19,7.17,1,2.75,3.18,4,4.77,4.87,1.89,1.07,2.25,1.38,2,2.54-.09.49-.23.74-.33.8-.49.31-2.21-.19-3.34-.52-2.59-.75-6.5-1.87-8.49,1.61-1.54,2.69,0,5,1.07,6.63,1.29,1.95,1.7,2.81.85,4.16a2.43,2.43,0,0,1-1.88.84A6.36,6.36,0,0,1,56,62.73c-3.52-4.3-6.53-4.35-8-4a5.77,5.77,0,0,0-4.1,4.58c-1,4.42,2.12,6.71,4.59,8.55a13.89,13.89,0,0,1,2.74,2.44c3.44,4.54,4.69,11.65,6.34,19,1.91,8.51,2.69,16.42,3.49,16.7a3.54,3.54,0,0,0,.4.17c1.65,17.39,9.89,75.3,12.44,81.16,1.55,3.56,3.49,4.19,4.67,4.19a3.19,3.19,0,0,0,.65-.07c2.35-.49,4.11-3.44,4.11-6.86,0-2.08-2.38-29.18-2.9-39.71a1.59,1.59,0,0,0,.49-1.17L80,104.86c-.1-5.28-2.88-6.8-4.9-7.91-1.42-.78-2.06-1.17-2.25-2.32-.28-1.69.36-2.55,1.24-3.74a7.22,7.22,0,0,0,1.82-4.64c-.08-4-3.71-4.82-6.12-5.38-1.14-.27-2.56-.6-2.87-1.1a1.59,1.59,0,0,1,0-1c.18-.74.83-.89,4.16-.25,2.88.56,6.83,1.32,8.17-2.34.78-2.11-.23-4.42-1.3-6.87s-1.75-4.24-1.66-5.88c0,0-.38-2.26,2.59-2.78C82.59,60,89.27,71.05,94.6,78h0l0,0c.56.73,1.11,1.41,1.64,2v0a14.28,14.28,0,0,1,1.25,2.1,20.13,20.13,0,0,1,.73,5h0V119s0,1.09-.59.46a13.48,13.48,0,0,0-6.73-3.85L90.1,119c5.19,1.25,8.15,6,8.15,9.62l-.91,72h6.19l.13-47.4C103.67,150.16,106.51,145.37,112,143.41Z" style="fill: rgb(246, 230, 167); stroke: rgb(174, 85, 54); stroke-miterlimit: 10; stroke-width: 0.5px; stroke-linecap: round; stroke-linejoin: round;"/>
      <ellipse class="cls-11" cx="90.54" cy="117.33" rx="1.73" ry="1.04" transform="translate(-44.4 178.61) rotate(-76.77)" style="fill: rgb(234, 200, 59); stroke: rgb(174, 85, 54); stroke-miterlimit: 10; stroke-width: 0.5px; stroke-linecap: round; stroke-linejoin: round;"/>
      <ellipse class="cls-11" cx="93.26" cy="27.76" rx="1.61" ry="0.97" transform="translate(51.96 115.87) rotate(-81.46)" style="fill: rgb(234, 200, 59); stroke: rgb(174, 85, 54); stroke-miterlimit: 10; stroke-width: 0.5px; stroke-linecap: round; stroke-linejoin: round;"/>
      <ellipse class="cls-11" cx="111.53" cy="141.75" rx="1.04" ry="1.73" transform="translate(-42.91 48.58) rotate(-20.7)" style="fill: rgb(234, 200, 59); stroke: rgb(174, 85, 54); stroke-miterlimit: 10; stroke-width: 0.5px; stroke-linecap: round; stroke-linejoin: round;"/>
      <ellipse class="cls-11" cx="110.27" cy="27.76" rx="0.96" ry="1.6" transform="translate(-2.5 13.19) rotate(-6.77)" style="fill: rgb(234, 200, 59); stroke: rgb(174, 85, 54); stroke-miterlimit: 10; stroke-width: 0.5px; stroke-linecap: round; stroke-linejoin: round;"/>
      <g class="cls-12" style="mask: url(#mask); fill: rgb(255, 194, 168); stroke: rgb(57, 133, 142); stroke-linecap: round; stroke-linejoin: round; stroke-width: 1.5px;">
        <path class="cls-13" d="M41.83,48.7h0l-.23,0h.27Z" style="fill: rgb(244, 233, 229); stroke: rgb(174, 85, 54); stroke-linecap: round; stroke-linejoin: round; stroke-width: 0.5px; font-family: ArialMT, Arial; font-size: 20px; line-height: 32px;"/>
        <path class="cls-14" d="M50.42,47.53a.93.93,0,0,0,0-.13c0-.63-.53-.91-.89-1.09a1.37,1.37,0,0,1-.36-.23l0,0A.86.86,0,0,0,49,45h0l-.09,0a1,1,0,0,0,0-.15,1,1,0,0,0-.27-.33,1.24,1.24,0,0,0-.78-.21v0a1.18,1.18,0,0,0-.17-.72.88.88,0,0,0-.22-.25.85.85,0,0,0-.56-.19,1.19,1.19,0,0,0-1,.58h0a1.24,1.24,0,0,0-.79.65.73.73,0,0,0,0,.07,1.61,1.61,0,0,0-.39-.15,1.75,1.75,0,0,0-1.71.83,9.49,9.49,0,0,1-.71.89,3.19,3.19,0,0,1-2.46.94,1.38,1.38,0,0,1-1.09-.78c-.26-.56-.16-2,1.24-3.38a3.37,3.37,0,0,0,1-2.48,4.08,4.08,0,0,0-1.3-2.87l-1,1a2.71,2.71,0,0,1,.85,1.86,2,2,0,0,1-.59,1.46c-1.8,1.82-2,3.85-1.52,5a2.81,2.81,0,0,0,2.06,1.56,3.52,3.52,0,0,0,3.18-.86l.12-.1a5.47,5.47,0,0,0,.09.94.68.68,0,0,0,.05.12,3.17,3.17,0,0,1-1.11.33l-.23,0a5.57,5.57,0,0,0-.85.16,4.34,4.34,0,0,0-2.06,1.25A2.75,2.75,0,0,0,38.18,53a6.26,6.26,0,0,0,1.54,2.4c.91.94,1.47,1.51.71,2.92l1.25.67c1.24-2.33,0-3.57-.94-4.58a3.9,3.9,0,0,1-1.17-1.73,1.92,1.92,0,0,1,.19-1.58A3,3,0,0,1,41.89,50v0A.44.44,0,0,1,42,50h.3A4,4,0,0,1,43,50a2.14,2.14,0,0,1,1.43,1,3.08,3.08,0,0,0,.9.92,1.67,1.67,0,0,0,2.1-.1,1.61,1.61,0,0,0,.33-.46,1.53,1.53,0,0,0,.56-.2A1.27,1.27,0,0,0,49,50c0-.5-.26-.69.4-.69a1.11,1.11,0,0,0,1.19-1.13A1.54,1.54,0,0,0,50.42,47.53Z" style="fill: rgb(246, 230, 167); stroke: rgb(174, 85, 54); stroke-linecap: round; stroke-linejoin: round; stroke-width: 0.5px; letter-spacing: -1.05px; isolation: isolate;"/>
      </g>
    </symbol>
    <mask id="mask" x="35.34" y="34.31" width="15.48" height="26.33" maskUnits="userSpaceOnUse">
      <g class="cls-15" style="filter: url(#luminosity-noclip); fill: url(#Unbenannter_Verlauf_4); stroke: rgb(195, 74, 41); stroke-miterlimit: 10; stroke-linecap: round; stroke-linejoin: round; stroke-width: 1.5px;">
        <polygon class="cls-1" points="37.93 54.98 38.22 60.64 44.11 60.34 43.82 54.67 37.93 54.98" style="fill: url(#Unbenannter_Verlauf_18); isolation: isolate; stroke: rgb(121, 135, 40); stroke-miterlimit: 10; stroke-linecap: round; stroke-linejoin: round; stroke-width: 1.5px;"/>
        <polygon class="cls-2" points="43.06 39.47 40.7 34.31 35.34 36.76 37.7 41.92 43.06 39.47" style="fill: url(#Unbenannter_Verlauf_14); stroke-linecap: round; stroke-linejoin: round; stroke-width: 1.5px;"/>
      </g>
    </mask>
    <linearGradient id="Unbenannter_Verlauf_4" x1="197" y1="82.19" x2="367.24" y2="82.19" gradientUnits="userSpaceOnUse">
      <stop offset="0" stop-color="#f2987f"/>
      <stop offset="1" stop-color="#f2987f" stop-opacity="0.1"/>
    </linearGradient>
    <filter id="luminosity-noclip" x="35.34" y="34.31" width="15.48" height="26.33" filterUnits="userSpaceOnUse" color-interpolation-filters="sRGB">
      <feFlood flood-color="#fff" result="bg"/>
      <feBlend in="SourceGraphic" in2="bg"/>
    </filter>
    <linearGradient id="Unbenannter_Verlauf_18" x1="17394.41" y1="13425.33" x2="17400.3" y2="13425.33" gradientTransform="matrix(-0.05, -0.96, -1, 0.05, 14306.85, 16102.41)" gradientUnits="userSpaceOnUse">
      <stop offset="0.59"/>
      <stop offset="1" stop-color="#fff"/>
    </linearGradient>
    <linearGradient id="Unbenannter_Verlauf_14" x1="-2390.13" y1="6561.64" x2="-2384.24" y2="6561.64" gradientTransform="matrix(0.4, 0.88, 0.91, -0.42, -4973.86, 4855.75)" gradientUnits="userSpaceOnUse">
      <stop offset="0.59"/>
      <stop offset="1" stop-color="#fff"/>
    </linearGradient>
    <symbol id="Pfeil" data-name="Pfeil" viewBox="0 0 70 77.95">
      <path class="cls-1" d="M55.63,26.92a71.28,71.28,0,0,0-18.74,4.83,59,59,0,0,0-16.6,10.51,63.77,63.77,0,0,0-12.73,16A70.51,70.51,0,0,0,3,67.72,60.29,60.29,0,0,0,0,78,61.34,61.34,0,0,1,.92,67.14a73.82,73.82,0,0,1,2.6-10.69A69.34,69.34,0,0,1,30.43,20.24,86.6,86.6,0,0,1,51.59,9.79Z" style="fill: rgb(153, 153, 153); isolation: isolate; stroke: rgb(153, 153, 153); stroke-miterlimit: 10;"/>
      <polygon class="cls-1" points="54.06 37.81 48.15 0 70 15.95 54.06 37.81" style="fill: rgb(153, 153, 153); isolation: isolate; stroke: rgb(153, 153, 153); stroke-miterlimit: 10;"/>
    </symbol>
  </defs>
  <title>Napo_Zooms_170427Kidney 1.7</title>
  <g class="cls-1">
    <g id="Ebene_30" data-name="Ebene 30">
      <g id="Rahmen-4" data-name="Rahmen">
        <rect class="cls-2" width="560" height="500"/>
      </g>
    </g>
    <g id="Zellen_HG" data-name="Zellen HG">
      <path class="cls-3" d="M157.56,494.4h-8.69a11.86,11.86,0,1,0,0,23.71h8.69c5.75,0,10.58,3.7,11.74,8.58H427.43c-13.6-39.34-45.09-66.67-91.2-66.67H136.87v6.36c0,3.5,5.4,6.36,12,6.36h8.69c6.6,0,12,4.88,12,10.83S164.16,494.4,157.56,494.4Z"/>
      <path class="cls-4" d="M157.56,494.4h-8.69a11.86,11.86,0,1,0,0,23.71h8.69c5.75,0,10.58,3.7,11.74,8.58H427.43c-13.6-39.34-45.09-66.67-91.2-66.67H136.87v6.36c0,3.5,5.4,6.36,12,6.36h8.69c6.6,0,12,4.88,12,10.83S164.16,494.4,157.56,494.4Z"/>
      <path class="cls-5" d="M157.56,494.4h-8.69a11.86,11.86,0,1,0,0,23.71h8.69c5.75,0,10.58,3.7,11.74,8.58H427.43c-13.6-39.34-45.09-66.67-91.2-66.67H136.87v6.36c0,3.5,5.4,6.36,12,6.36h8.69c6.6,0,12,4.88,12,10.83S164.16,494.4,157.56,494.4Z"/>
      <polyline class="cls-6" points="490.32 163.87 490.32 -14.9 560.32 -14.9 560.32 516.74 490.32 516.74"/>
      <line class="cls-7" x1="490.32" y1="305.59" x2="490.32" y2="194.34"/>
      <line class="cls-7" x1="490.32" y1="367.87" x2="490.32" y2="324.61"/>
      <polyline class="cls-7" points="490.32 163.87 490.32 -14.9 560.32 -14.9 560.32 516.74 490.32 516.74 490.32 386.79"/>
      <path class="cls-3" d="M136.87-32.31v.09a12,12,0,0,0,12,11.86h8.69c6.6,0,12,4.87,12,10.83s-5.4,10.83-12,10.83h-8.69a12,12,0,0,0-12,11.85,12,12,0,0,0,12,11.86h8.69c6.6,0,12,4.87,12,10.83s-5.4,10.82-12,10.82h-8.69c-6.6,0-12,2.47-12,5.5v5.49H336.23c54.75,0,88.88-38.53,96.93-90Z"/>
      <path class="cls-4" d="M136.87-32.31v.09a12,12,0,0,0,12,11.86h8.69c6.6,0,12,4.87,12,10.83s-5.4,10.83-12,10.83h-8.69a12,12,0,0,0-12,11.85,12,12,0,0,0,12,11.86h8.69c6.6,0,12,4.87,12,10.83s-5.4,10.82-12,10.82h-8.69c-6.6,0-12,2.47-12,5.5v5.49H336.23c54.75,0,88.88-38.53,96.93-90Z"/>
      <path class="cls-5" d="M136.87-32.31v.09a12,12,0,0,0,12,11.86h8.69c6.6,0,12,4.87,12,10.83s-5.4,10.83-12,10.83h-8.69a12,12,0,0,0-12,11.85,12,12,0,0,0,12,11.86h8.69c6.6,0,12,4.87,12,10.83s-5.4,10.82-12,10.82h-8.69c-6.6,0-12,2.47-12,5.5v5.49H336.23c54.75,0,88.88-38.53,96.93-90Z"/>
      <path class="cls-3" d="M136.87,440.3v-5.49c0-3,5.4-5.5,12-5.5h8.69c6.6,0,12-4.87,12-10.82s-5.4-10.83-12-10.83h-8.69a11.86,11.86,0,1,1,0-23.71h8.69c6.6,0,12-4.87,12-10.83s-5.4-10.83-12-10.83h-8.69a11.86,11.86,0,1,1,0-23.71h8.69c6.6,0,12-4.87,12-10.83s-5.4-10.82-12-10.82h-8.69a11.86,11.86,0,1,1,0-23.72h8.69c6.6,0,12-4.87,12-10.82s-5.4-10.83-12-10.83h-8.69a11.86,11.86,0,1,1,0-23.71h8.69c6.6,0,12-4.88,12-10.83s-5.4-10.83-12-10.83h-8.69a11.86,11.86,0,1,1,0-23.71h8.69c6.6,0,12-4.87,12-10.83s-5.4-10.82-12-10.82h-8.69a11.86,11.86,0,1,1,0-23.72h8.69c6.6,0,12-4.87,12-10.82s-5.4-10.83-12-10.83h-8.69a11.86,11.86,0,1,1,0-23.71h8.69c6.6,0,12-4.88,12-10.83s-5.4-10.83-12-10.83h-8.69c-6.6,0-12-2.86-12-6.36V77.37H336.23c63.08,0,98.79,51.13,98.79,114.21V326.09c0,63.08-35.71,114.21-98.79,114.21Z"/>
      <path class="cls-4" d="M136.87,440.3v-5.49c0-3,5.4-5.5,12-5.5h8.69c6.6,0,12-4.87,12-10.82s-5.4-10.83-12-10.83h-8.69a11.86,11.86,0,1,1,0-23.71h8.69c6.6,0,12-4.87,12-10.83s-5.4-10.83-12-10.83h-8.69a11.86,11.86,0,1,1,0-23.71h8.69c6.6,0,12-4.87,12-10.83s-5.4-10.82-12-10.82h-8.69a11.86,11.86,0,1,1,0-23.72h8.69c6.6,0,12-4.87,12-10.82s-5.4-10.83-12-10.83h-8.69a11.86,11.86,0,1,1,0-23.71h8.69c6.6,0,12-4.88,12-10.83s-5.4-10.83-12-10.83h-8.69a11.86,11.86,0,1,1,0-23.71h8.69c6.6,0,12-4.87,12-10.83s-5.4-10.82-12-10.82h-8.69a11.86,11.86,0,1,1,0-23.72h8.69c6.6,0,12-4.87,12-10.82s-5.4-10.83-12-10.83h-8.69a11.86,11.86,0,1,1,0-23.71h8.69c6.6,0,12-4.88,12-10.83s-5.4-10.83-12-10.83h-8.69c-6.6,0-12-2.86-12-6.36V77.37H336.23c63.08,0,98.79,51.13,98.79,114.21V326.09c0,63.08-35.71,114.21-98.79,114.21Z"/>
      <path class="cls-5" d="M136.87,440.3v-5.49c0-3,5.4-5.5,12-5.5h8.69c6.6,0,12-4.87,12-10.82s-5.4-10.83-12-10.83h-8.69a11.86,11.86,0,1,1,0-23.71h8.69c6.6,0,12-4.87,12-10.83s-5.4-10.83-12-10.83h-8.69a11.86,11.86,0,1,1,0-23.71h8.69c6.6,0,12-4.87,12-10.83s-5.4-10.82-12-10.82h-8.69a11.86,11.86,0,1,1,0-23.72h8.69c6.6,0,12-4.87,12-10.82s-5.4-10.83-12-10.83h-8.69a11.86,11.86,0,1,1,0-23.71h8.69c6.6,0,12-4.88,12-10.83s-5.4-10.83-12-10.83h-8.69a11.86,11.86,0,1,1,0-23.71h8.69c6.6,0,12-4.87,12-10.83s-5.4-10.82-12-10.82h-8.69a11.86,11.86,0,1,1,0-23.72h8.69c6.6,0,12-4.87,12-10.82s-5.4-10.83-12-10.83h-8.69a11.86,11.86,0,1,1,0-23.71h8.69c6.6,0,12-4.88,12-10.83s-5.4-10.83-12-10.83h-8.69c-6.6,0-12-2.86-12-6.36V77.37H336.23c63.08,0,98.79,51.13,98.79,114.21V326.09c0,63.08-35.71,114.21-98.79,114.21Z"/>
      <g id="Neues_Symbol_5" data-name="Neues Symbol 5">
        <g id="Neues_Symbol_5-2" data-name="Neues Symbol 5">
          <rect class="cls-8" x="179.31" y="50.95" width="13.11" height="35.9" rx="6.56" ry="6.56"/>
          <rect class="cls-8" x="197.84" y="50.95" width="13.11" height="35.9" rx="6.56" ry="6.56"/>
        </g>
        <g id="Neues_Symbol_5-3" data-name="Neues Symbol 5">
          <rect class="cls-8" x="227.47" y="50.95" width="13.11" height="35.9" rx="6.56" ry="6.56"/>
          <rect class="cls-8" x="246.01" y="50.95" width="13.11" height="35.9" rx="6.56" ry="6.56"/>
        </g>
        <g id="Neues_Symbol_5-4" data-name="Neues Symbol 5">
          <rect class="cls-8" x="227.47" y="433.21" width="13.11" height="35.9" rx="6.56" ry="6.56"/>
          <rect class="cls-8" x="246.01" y="433.21" width="13.11" height="35.9" rx="6.56" ry="6.56"/>
        </g>
        <g id="Neues_Symbol_5-5" data-name="Neues Symbol 5">
          <rect class="cls-8" x="178.97" y="433.21" width="13.11" height="35.9" rx="6.56" ry="6.56"/>
          <rect class="cls-8" x="197.51" y="433.21" width="13.11" height="35.9" rx="6.56" ry="6.56"/>
        </g>
      </g>
      <g id="PTH_kugel" data-name="PTH kugel">
        <circle class="cls-9" cx="424.87" cy="73.21" r="4.5"/>
      </g>
      <g id="PTH_kugel-2" data-name="PTH kugel">
        <circle class="cls-9" cx="436.21" cy="97.97" r="4.5"/>
      </g>
      <g id="PTH_kugel-4" data-name="PTH kugel">
        <circle class="cls-9" cx="420.87" cy="88.51" r="4.5"/>
      </g>
      <g id="D3-3" data-name="D3">
        <path class="cls-10" d="M505.73,373.93a5.45,5.45,0,1,0,0,10.9h9.45v-11Z"/>
      </g>
      <g id="Neues_Symbol_1" data-name="Neues Symbol 1">
        <path class="cls-11" d="M305.72,388.46H283.78a5.5,5.5,0,0,1-5.5-5.5h0a5.5,5.5,0,0,1,5.52-5.5l21.92.07a5.47,5.47,0,0,0,0,10.93Z"/>
        <path class="cls-10" d="M305.89,377.56a5.45,5.45,0,0,0,0,10.9h9.46v-11Z"/>
      </g>
      <g id="g-1" data-name="PTH kugel" transform="matrix(1, 0, 0, 1, -12.391632, 6.017117)">
        <circle class="cls-9" cx="436.21" cy="97.97" r="4.5" style="fill: rgb(146, 214, 223); stroke: rgb(57, 133, 142); stroke-linecap: round; stroke-linejoin: round;"/>
      </g>
    </g>
    <g id="Icons">
      <g id="Text">
        <g id="DNA">
          <rect class="cls-16" x="265.34" y="183.82" width="91.89" height="59.65" rx="27.84" ry="27.84"/>
          <text class="cls-17" transform="translate(290.78 236.43)" style="white-space: pre;">DN<tspan class="cls-18" x="28.89" y="0">A</tspan></text>
        </g>
        <g id="PTH_Rezeptor_klein" data-name="PTH Rezeptor klein">
          <g id="Neues_Symbol_3" data-name="Neues Symbol 3">
            <path class="cls-19" d="M416.31,102.81l-9.89,11.28-22.54-19.8L393.77,83l7.51,6.6a5,5,0,0,0,4.12,8.29,4.93,4.93,0,0,0,1.36-.29,5,5,0,0,0,2-1.4l0,0Z"/>
          </g>
        </g>
        <line class="cls-20" x1="463" y1="332.44" x2="355.87" y2="332.44"/>
        <polygon class="cls-21" points="358.85 328.76 359.46 329.42 356.21 332.44 359.46 335.46 358.85 336.12 354.89 332.44 358.85 328.76"/>
        <line class="cls-20" x1="360.98" y1="314.9" x2="474.82" y2="314.9"/>
        <polygon class="cls-21" points="471.84 318.58 471.23 317.92 474.48 314.9 471.23 311.88 471.84 311.22 475.8 314.9 471.84 318.58"/>
        <g id="CAP">
          <circle class="cls-22" cx="81.06" cy="202.91" r="4.5"/>
        </g>
        <g id="CAP-2" data-name="CAP">
          <circle class="cls-22" cx="85.56" cy="228.42" r="4.5"/>
        </g>
        <g id="CAP-3" data-name="CAP">
          <circle class="cls-22" cx="234.97" cy="213.65" r="4.5"/>
          <circle class="cls-22" cx="212.556" cy="275.704" r="4.5" style="fill: rgb(242, 152, 127); stroke: rgb(213, 90, 81); stroke-linecap: round; stroke-linejoin: round;"/>
          <circle class="cls-22" cx="198.266" cy="286.222" r="4.5" style="fill: rgb(242, 152, 127); stroke: rgb(213, 90, 81); stroke-linecap: round; stroke-linejoin: round;"/>
          <circle class="cls-22" cx="231.647" cy="314.756" r="4.5" style="fill: rgb(242, 152, 127); stroke: rgb(213, 90, 81); stroke-linecap: round; stroke-linejoin: round;"/>
        </g>
        <g id="CAP-4" data-name="CAP">
          <circle class="cls-22" cx="315.78" cy="162.34" r="4.5"/>
        </g>
        <g id="CAP-5" data-name="CAP">
          <circle class="cls-22" cx="488.06" cy="179.32" r="4.5"/>
        </g>
        <g id="CAP-6" data-name="CAP">
          <circle class="cls-22" cx="484.42" cy="315.25" r="4.5"/>
        </g>
        <g id="CAP-7" data-name="CAP">
          <circle class="cls-22" cx="468.05" cy="174.59" r="4.5"/>
        </g>
        <g id="CaBD">
          <polygon class="cls-23" points="222.74 303.92 225.06 308.61 230.24 309.37 226.49 313.02 227.38 318.18 222.74 315.75 218.11 318.18 218.99 313.02 215.24 309.37 220.42 308.61 222.74 303.92"/>
        </g>
        <g id="CaBD-2" data-name="CaBD" transform="matrix(1, 0, 0, 1, -20.482924, 4.45281)">
          <polygon class="cls-23" points="227.47 270.82 229.79 275.51 234.97 276.27 231.22 279.92 232.11 285.08 227.47 282.65 222.84 285.08 223.72 279.92 219.97 276.27 225.16 275.51 227.47 270.82"/>
        </g>
      </g>
      <g id="AQP-2" data-name="AQP">
        <g id="TRPV5">
          <ellipse class="cls-24" cx="111.91" cy="212.76" rx="14.54" ry="33"/>
          <line class="cls-20" x1="88.3" y1="213.03" x2="218.55" y2="213.03"/>
          <polygon class="cls-21" points="216.96 215.36 225.63 213.03 216.96 210.71 216.96 215.36"/>
          <path class="cls-2" d="M190.29,179.76H111.91c8,0,14.55,14.76,14.55,33s-6.51,33-14.55,33h78.38c8,0,14.55-14.76,14.55-33S198.33,179.76,190.29,179.76Z"/>
          <path class="cls-2" d="M190.29,179.76H111.91c8,0,14.55,14.76,14.55,33s-6.51,33-14.55,33h78.38c8,0,14.55-14.76,14.55-33S198.33,179.76,190.29,179.76Z"/>
          <path class="cls-7" d="M190.29,179.76H111.91c8,0,14.55,14.76,14.55,33s-6.51,33-14.55,33h78.38c8,0,14.55-14.76,14.55-33S198.33,179.76,190.29,179.76Z"/>
          <text class="cls-17" transform="translate(133.31 220.12)" style="white-space: pre;">TRPV5</text>
        </g>
      </g>
      <g id="CAP-9" data-name="CAP">
        <circle class="cls-22" cx="110.61" cy="199.79" r="4.5"/>
      </g>
    </g>
    <g id="Text-2" data-name="Text">
      <text class="cls-17" style="white-space: pre; font-size: 20px;" x="445.486" y="160.655">Ca²</text>
      <text class="cls-25" transform="matrix(1, 0, 0, 1.000001, 477.451202, 153.995056)" style="white-space: pre; font-size: 11.6px;">+</text>
      <text class="cls-17" transform="translate(484.79 142.94)" style="white-space: pre;"> </text>
      <text class="cls-17" transform="translate(498.59 320.76)" style="white-space: pre;">Ca²</text>
      <text class="cls-25" transform="translate(530.81 314.1) scale(0.58)" style="white-space: pre;">+</text>
      <text class="cls-17" transform="translate(537.62 320.76)" style="white-space: pre;"> </text>
      <text class="cls-17" transform="translate(312.82 336.34)" style="white-space: pre;">3Na</text>
      <text class="cls-25" transform="translate(349.51 329.68) scale(0.58)" style="white-space: pre;">+</text>
      <text class="cls-17" transform="translate(356.32 336.34)" style="white-space: pre;"> </text>
      <text class="cls-26" transform="translate(374.36 27.08)" style="white-space: pre;">peritubular <tspan x="26.65" y="20">space</tspan></text>
      <text class="cls-25" transform="translate(374.36 27.08)" style="white-space: pre;">peritubular <tspan x="26.65" y="20">space</tspan></text>
      <text class="cls-26" transform="translate(85.66 39.76)" style="white-space: pre;">lumen</text>
      <text class="cls-25" transform="translate(85.66 39.76)" style="white-space: pre;">lumen</text>
      <text class="cls-25" transform="translate(228.63 487.31)" style="white-space: pre;">DCT cell</text>
      <text class="cls-17" transform="translate(195.78 338.31)" style="white-space: pre;">CaBD</text>
      <text class="cls-27" transform="translate(249.13 343.97) scale(0.58)" style="white-space: pre;">28k</text>
      <text class="cls-17" transform="translate(431.62 85.29) rotate(-2.23)" style="white-space: pre;">PTH</text>
      <text class="cls-17" transform="translate(329.37 109.82)" style="white-space: pre;">PTH</text>
      <text class="cls-28" transform="translate(369.37 115.48) scale(0.58)" style="white-space: pre;">r</text>
      <text class="cls-17" transform="translate(305.87 410.65)" style="white-space: pre;">D</text>
      <text class="cls-27" transform="translate(320.31 416.31) scale(0.58)" style="white-space: pre;">3</text>
      <text class="cls-17" transform="translate(502.76 406)" style="white-space: pre;">D</text>
      <text class="cls-27" transform="translate(517.21 411.66) scale(0.58)" style="white-space: pre;">3</text>
      <text class="cls-25" transform="translate(498.11 36.95)" style="white-space: pre;">blood</text>
      <text class="cls-17" transform="translate(256.11 410.65)" style="white-space: pre;">VDR</text>
      <rect class="cls-2" x="375.92" y="308.61" width="80" height="32" rx="16" ry="16"/>
      <rect class="cls-7" x="375.92" y="308.61" width="80" height="32" rx="16" ry="16"/>
      <text class="cls-17" transform="translate(389.7 331.28)" style="white-space: pre;">NCX1</text>
      <line class="cls-20" x1="351.648" y1="194.723" x2="485.258" y2="194.723"/>
      <polygon class="cls-21" points="482.65 198.345 482.04 197.685 485.29 194.665 482.04 191.645 482.65 190.985 486.61 194.665 482.65 198.345"/>
      <rect class="cls-2" x="370.898" y="179.069" width="99" height="32" rx="16" ry="16"/>
      <rect class="cls-7" x="370.918" y="178.723" width="99" height="32" rx="16" ry="16"/>
      <text class="cls-17" style="white-space: pre;" x="384.511" y="200.948">PMC<tspan class="cls-18" x="428.951" y="200.948" style="font-size: 20px; word-spacing: 0px; letter-spacing: -1.2px;">A</tspan><tspan x="441.191" y="200.948" style="font-size: 20px; word-spacing: 0px;"> 4</tspan></text>
      <text class="cls-17" transform="translate(58.77 187.1)" style="white-space: pre;">Ca²</text>
      <text class="cls-25" transform="translate(90.99 180.44) scale(0.58)" style="white-space: pre;">+</text>
      <text class="cls-17" transform="translate(97.8 187.1)" style="white-space: pre;"> </text>
      <g id="Neues_Symbol-2" data-name="Neues Symbol">
        <rect class="cls-29" x="279.03" y="204.79" width="45.26" height="10.85"/>
        <path class="cls-30" d="M324.79,216.11H278.53V204.3h46.26Zm-45.26-1h44.26v-9.88H279.53Z"/>
        <polygon class="cls-31" points="324.91 204.45 302.56 204.45 302.56 203.48 323.91 203.48 323.91 198.09 343.17 198.09 343.17 199.06 324.91 199.06 324.91 204.45"/>
        <polygon class="cls-31" points="340.52 201.73 339.97 201.16 342.86 198.57 339.97 195.99 340.52 195.42 344.03 198.57 340.52 201.73"/>
      </g>
      <g id="Plus-9" data-name="Plus">
        <circle class="cls-32" cx="213.82" cy="246.59" r="8"/>
        <path class="cls-2" d="M212.69,251.09v-3.35h-3.37v-2.31h3.37v-3.34h2.25v3.34h3.38v2.31h-3.38v3.35Z"/>
      </g>
      <g id="Plus-10" data-name="Plus">
        <circle class="cls-32" cx="213.82" cy="174.82" r="8"/>
        <path class="cls-2" d="M212.69,179.32V176h-3.37v-2.31h3.37v-3.35h2.25v3.35h3.38V176h-3.38v3.34Z"/>
      </g>
      <g id="Plus-11" data-name="Plus" transform="matrix(1, 0, 0, 1, 36.73568, -3.116967)">
        <circle class="cls-32" cx="279.24" cy="303.13" r="8"/>
        <path class="cls-2" d="M 278.11 307.63 L 278.11 304.29 L 274.74 304.29 L 274.74 301.98 L 278.11 301.98 L 278.11 298.63 L 280.36 298.63 L 280.36 301.98 L 283.74 301.98 L 283.74 304.29 L 280.36 304.29 L 280.36 307.63 Z"/>
      </g>
      <g id="Plus-12" data-name="Plus">
        <circle class="cls-32" cx="371.45" cy="243.47" r="8"/>
        <path class="cls-2" d="M370.32,248v-3.34H367v-2.31h3.37V239h2.25v3.35H376v2.31h-3.38V248Z"/>
      </g>
    </g>
    <g id="Zoom_Rahmen" data-name="Zoom Rahmen">
      <g id="Neues_Symbol_2-4" data-name="Neues Symbol 2">
        <g id="Kidney_klein-7" data-name="Kidney klein">
          <circle class="cls-33" cx="50" cy="50" r="30"/>
        </g>
        <rect class="cls-33" width="560" height="500"/>
      </g>
    </g>
    <line style="stroke-width: 4; fill: rgb(26, 69, 84); stroke-dasharray: 4px; stroke: rgb(36, 122, 2);" x1="208.27" y1="218.822" x2="250.867" y2="184.224" transform="matrix(-0.775461, -0.631396, 0.631396, -0.775461, 288.704826, 499.773259)"/>
    <line style="stroke-width: 4; fill: rgb(26, 69, 84); stroke: rgb(36, 122, 2);" x1="206.712" y1="197.923" x2="217.607" y2="205.399" transform="matrix(-0.970086, -0.24276, 0.24276, -0.970086, 369.017293, 448.793473)"/>
    <line style="stroke-width: 4; fill: rgb(26, 69, 84); stroke: rgb(36, 122, 2);" x1="204.961" y1="193.323" x2="214.723" y2="200.727" transform="matrix(-0.140117, 0.990135, -0.990135, -0.140117, 436.697807, 15.184648)" bx:origin="0.696 0.526"/>
    <line style="stroke-width: 4; fill: rgb(26, 69, 84); stroke-dasharray: 4px; stroke: rgb(36, 122, 2);" x1="211.283" y1="317.306" x2="270.311" y2="265.289" transform="matrix(-0.979147, 0.203154, -0.203154, -0.979147, 550.241182, 508.695278)"/>
    <line style="stroke-width: 4; fill: rgb(26, 69, 84); stroke: rgb(36, 122, 2);" x1="229.719" y1="300.8" x2="240.614" y2="308.276" transform="matrix(-0.800469, 0.599375, -0.599375, -0.800469, 605.942258, 407.358242)"/>
    <line style="stroke-width: 4; fill: rgb(26, 69, 84); stroke: rgb(36, 122, 2);" x1="224.67" y1="298.153" x2="234.432" y2="305.557" transform="matrix(0.679698, 0.733492, -0.733492, 0.679698, 295.688088, -73.030829)" bx:origin="0.696 0.526"/>
    <text style="fill: rgb(36, 122, 2); font-size: 11px; white-space: pre;" x="230.501" y="187.233">PTH</text>
    <line style="stroke-width: 4; fill: rgb(26, 69, 84); stroke-dasharray: 4px; stroke: rgb(255, 0, 0);" x1="215.531" y1="245.225" x2="258.128" y2="210.627" transform="matrix(-0.775461, -0.631396, 0.631396, -0.775461, 276.569914, 554.206798)"/>
    <line style="stroke-width: 4; fill: rgb(26, 69, 84); stroke: rgb(255, 0, 0);" x1="205.617" y1="227.298" x2="216.512" y2="234.774" transform="matrix(-0.970086, -0.24276, 0.24276, -0.970086, 359.728991, 506.398925)"/>
    <line style="stroke-width: 4; fill: rgb(26, 69, 84); stroke: rgb(255, 0, 0);" x1="203.866" y1="222.698" x2="213.628" y2="230.102" transform="matrix(-0.140117, 0.990135, -0.990135, -0.140117, 464.534552, 49.759731)" bx:origin="0.696 0.526"/>
    <text style="fill: rgb(36, 122, 2); font-size: 11px; white-space: pre;" x="368.547" y="275.489">PTH</text>
    <text style="fill: rgb(255, 0, 0); font-size: 11px; white-space: pre;" x="227.649" y="243.444">D3</text>
    <text style="fill: rgb(36, 122, 2); font-size: 11px; white-space: pre;" x="245.96" y="296.853">PTH</text>
  </g>
  <line style="stroke-width: 4; fill: rgb(26, 69, 84); stroke-dasharray: 4px; stroke: rgb(36, 122, 2);" x1="330.137" y1="310.378" x2="387.12" y2="264.478" transform="matrix(-0.125152, 0.992138, -0.992138, -0.125152, 691.166416, -45.903267)"/>
  <line style="stroke-width: 4; fill: rgb(26, 69, 84); stroke: rgb(36, 122, 2);" x1="376.651" y1="298.25" x2="387.546" y2="305.726" transform="matrix(0.307591, 0.951519, -0.951519, 0.307591, 551.915617, -154.474679)"/>
  <line style="stroke-width: 4; fill: rgb(26, 69, 84); stroke: rgb(36, 122, 2);" x1="371.75" y1="300.789" x2="381.512" y2="308.193" transform="matrix(0.91419, -0.405286, 0.405286, 0.91419, -91.001005, 179.563455)" bx:origin="0.696 0.526"/>
  <line style="fill: rgb(26, 69, 84); stroke: rgb(255, 235, 4); stroke-width: 2;" x1="316.244" y1="427.491" x2="455.687" y2="344.728" transform="matrix(-0.857077, -0.515189, 0.515189, -0.857077, 535.391424, 911.012871)"/>
  <line style="fill: rgb(26, 69, 84); stroke: rgb(255, 235, 4); stroke-width: 2;" x1="322.94" y1="383.434" x2="340.297" y2="388.314" transform="matrix(-0.969632, -0.24457, 0.24457, -0.969632, 558.793239, 841.133463)"/>
  <line style="fill: rgb(26, 69, 84); stroke: rgb(255, 235, 4); stroke-width: 2;" x1="329.764" y1="362.532" x2="341.984" y2="375.795" transform="matrix(-0.228107, 0.973636, -0.973636, -0.228107, 767.268192, 133.648914)" bx:origin="0.073 0.636"/>
  <line style="fill: rgb(26, 69, 84); stroke: rgb(255, 235, 4); stroke-width: 2;" x1="252.705" y1="344.586" x2="360.545" y2="281.299" transform="matrix(0.502713, -0.864453, 0.864453, 0.502713, -126.08594, 416.446922)"/>
  <line style="fill: rgb(26, 69, 84); stroke: rgb(255, 235, 4); stroke-width: 2;" x1="284.704" y1="253.004" x2="302.061" y2="257.884" transform="matrix(0.230491, -0.973074, 0.973074, 0.230491, -22.805527, 482.049497)"/>
  <line style="fill: rgb(26, 69, 84); stroke: rgb(255, 235, 4); stroke-width: 2;" x1="307.383" y1="245.831" x2="319.603" y2="259.093" transform="matrix(-0.97684, -0.213972, 0.213972, -0.97684, 555.004689, 568.604644)" bx:origin="0.073 0.636"/>
  <line style="fill: rgb(26, 69, 84); stroke: rgb(255, 235, 4); stroke-width: 12;" x1="346.637" y1="147.049" x2="425.028" y2="94.966" transform="matrix(-0.960261, 0.279103, -0.279103, -0.960261, 767.537163, 150.597622)"/>
  <line style="fill: rgb(26, 69, 84); stroke: rgb(255, 235, 4); stroke-width: 12;" x1="329.994" y1="170.61" x2="351.888" y2="182.448" transform="matrix(-0.86874, 0.495269, -0.495269, -0.86874, 724.559281, 161.029244)"/>
  <line style="fill: rgb(26, 69, 84); stroke: rgb(255, 235, 4); stroke-width: 12;" x1="320.407" y1="166.913" x2="341.974" y2="178.637" transform="matrix(0.548595, 0.836088, -0.836088, 0.548595, 296.11906, -202.309619)" bx:origin="0.696 0.526"/>
  <use width="161.72" height="202.21" transform="matrix(1.0148799419403076, 0, 0, 1.1261299848556519, -149.18043518066406, 5.845492839813232)" xlink:href="#Kidey_zoom"/>
  <rect x="-83.269" y="64.472" width="21.703" height="53.076" style="fill-opacity: 0.7; fill: rgb(88, 82, 82);"/>
  <g id="Ebene_13" data-name="Ebene 13" transform="matrix(1.645638, 0.080596, 0.274509, -1.513312, -85.226532, 234.134781)">
    <use width="70" height="77.95" transform="matrix(1, 0, 0, 1, 0, 0)" xlink:href="#Pfeil"/>
  </g>
  <text style="fill: rgb(51, 51, 51); font-size: 20px; white-space: pre;" x="-145.065" y="279.418">Distal convoluted tubule</text>
  <text style="fill: rgb(51, 51, 51); font-size: 20px; white-space: pre;" transform="matrix(1, 0, 0, 1, -77.472847, 3.045558)"><tspan x="-23.486" y="582.204">TRPV5: Transient receptor </tspan><tspan x="-23.486" dy="1em">​</tspan><tspan>              potential cation channel </tspan><tspan x="-23.486" dy="1em">​</tspan><tspan>              subfamily V member 5</tspan></text>
  <text style="fill: rgb(51, 51, 51); font-size: 20px; white-space: pre;" x="-101.122" y="651.491">CaBD: calbindin</text>
  <text style="fill: rgb(51, 51, 51); font-size: 20px; white-space: pre;" x="296.349" y="583.205" transform="matrix(1, 0, 0, 1, -74.461067, 0.033779)">NCX1: sodium/calcium <tspan x="296.3489990234375" dy="1em">​</tspan>            exchanger</text>
  <text style="fill: rgb(51, 51, 51); font-size: 20px; white-space: pre;" x="-24.335" y="686.616" transform="matrix(1, 0, 0, 1, -77.472847, 3.045558)">PMCA4: plasma membrane <tspan x="-24.334999084472656" dy="1em">​</tspan>               calcium pump 4</text>
  <text style="fill: rgb(51, 51, 51); font-size: 20px; white-space: pre;" x="221.153" y="628.291">VDR: vitamin D receptor</text>
  <text style="fill: rgb(51, 51, 51); font-size: 20px; white-space: pre;" x="297.267" y="650.474" transform="matrix(1, 0, 0, 1, -74.461067, 8.041629)">PTHr: PTH receptor<tspan x="297.2669982910156" dy="1em">​</tspan></text>
  <text style="fill: rgb(51, 51, 51); font-size: 20px; white-space: pre;" x="225.317" y="692.67">DCT: distal convoluted tubule</text>
</svg>