<?xml version="1.0" encoding="utf-8"?>
<svg viewBox="0 0 560 500" xmlns="http://www.w3.org/2000/svg" xmlns:bx="https://boxy-svg.com">
  <defs>
    <style>.cls-1,.cls-11,.cls-16,.cls-18,.cls-36,.cls-4,.cls-5{fill:none;}.cls-2{isolation:isolate;}.cls-13,.cls-3{fill:#fbf2f0;}.cls-11,.cls-12,.cls-13,.cls-22,.cls-35,.cls-36,.cls-4,.cls-7{stroke:#c34a29;}.cls-11,.cls-12,.cls-13,.cls-16,.cls-18,.cls-22,.cls-36,.cls-4,.cls-5{stroke-miterlimit:10;}.cls-4{stroke-width:4px;}.cls-5{stroke:#f1d3cc;stroke-width:2px;}.cls-6{clip-path:url(#clip-path);}.cls-7{fill:#f7f7f7;}.cls-14,.cls-23,.cls-24,.cls-25,.cls-26,.cls-35,.cls-36,.cls-7{stroke-linecap:round;}.cls-14,.cls-23,.cls-24,.cls-25,.cls-26,.cls-35,.cls-7{stroke-linejoin:round;}.cls-8{fill:#e5e5e5;}.cls-9{fill:#ccc;}.cls-10,.cls-12{fill:#fff;}.cls-14{fill:#86d2dc;stroke:#39858e;}.cls-15{fill:#edc9bf;}.cls-16{stroke:#ff4c00;}.cls-17,.cls-28{fill:#ff4c00;}.cls-18{stroke:#1a4554;}.cls-19,.cls-21,.cls-27,.cls-29,.cls-31,.cls-32{fill:#1a4554;}.cls-20{fill:#f1d5ce;}.cls-21,.cls-27,.cls-29,.cls-31,.cls-32{font-size:20px;}.cls-21{font-family:ArialMT, Arial;}.cls-22{fill:#d47e67;}.cls-23{fill:#f7d3b0;}.cls-23,.cls-24{stroke:#d46f33;}.cls-24{fill:#f1ac6a;}.cls-25{fill:#f2987f;stroke:#d55a51;}.cls-26{fill:#d393cd;stroke:#a96193;}.cls-27,.cls-28,.cls-31,.cls-32{font-family:Arial-BoldMT, Arial;font-weight:700;}.cls-28{font-size:15px;}.cls-29{font-family:Arial-ItalicMT, Arial;font-style:italic;}.cls-30{letter-spacing:-0.04em;}.cls-31{letter-spacing:0.03em;}.cls-32{letter-spacing:0.03em;}.cls-33{fill:#1c8843;}.cls-34{fill:#fdeabf;}.cls-35{fill:#e9f7f9;stroke-width:1.5px;}.cls-36{stroke-width:0.75px;}.cls-37{mix-blend-mode:multiply;}</style>
    <clipPath id="clip-path">
      <rect class="cls-1" y="0.39" width="560" height="500"/>
    </clipPath>
  </defs>
  <title>Napo_Zooms_170427Zoom Bone</title>
  <g class="cls-2">
    <g id="Zellen_HG" data-name="Zellen HG">
      <path class="cls-3" d="M 148.11 403.23 C 165.3 401.65 178.38 387.02 182.27 371.54 C 186.16 356.06 182.8 339.91 179.02 324.41 C 176.41 313.69 175.6 289.6 170.02 279.87 C 153.4 250.65 112.33 251.34 76.52 253.18 C 51 254.49 29.28 251.05 20 270 C 15 280.13 12.86 296.05 15.72 318.32 C 18.33 338.62 14.46 344.78 12.39 365.12 C 11.62 372.75 10.89 380.86 14.66 387.68 C 20 397.3 26.5 404.06 55 404.06 Z"/>
      <path class="cls-4" d="M148.11,398.23c17.19-1.58,30.27-16.21,34.16-31.69s.53-31.63-3.25-47.13c-2.61-10.72-3.42-34.81-9-44.54-16.62-29.22-57.69-28.53-93.5-26.69C51,249.49,29.28,246.05,20,265c-5,10.13-7.14,26.05-4.28,48.32,2.61,20.3-1.26,26.46-3.33,46.8-.77,7.63-1.5,15.74,2.27,22.56C20,392.3,26.5,399.06,55,399.06Z"/>
      <path class="cls-5" d="M148.11,398.23c17.19-1.58,30.27-16.21,34.16-31.69s.53-31.63-3.25-47.13c-2.61-10.72-3.42-34.81-9-44.54-16.62-29.22-57.69-28.53-93.5-26.69C51,249.49,29.28,246.05,20,265c-5,10.13-7.14,26.05-4.28,48.32,2.61,20.3-1.26,26.46-3.33,46.8-.77,7.63-1.5,15.74,2.27,22.56C20,392.3,26.5,399.06,55,399.06Z"/>
      <path class="cls-3" d="M333.61,355c3.05-18.6,8.36-51.82-11.1-74.53-7-8.18-22.86-21.72-33.23-23.75-15.85-3.11-52.82-4.59-68.13,0-50.55,15.15-27.85,58-26.69,86.07.39,9.35-.08,27,5.63,35.69,8.2,12.54,11.22,17.22,33.45,20,25,3.16,70.56,4.43,84.78-9.86C328.73,378.15,332.48,361.89,333.61,355Z"/>
      <path class="cls-4" d="M333.61,355c3.05-18.6,8.36-51.82-11.1-74.53-7-8.18-22.86-21.72-33.23-23.75-15.85-3.11-52.82-4.59-68.13,0-50.55,15.15-27.85,58-26.69,86.07.39,9.35-.08,27,5.63,35.69,8.2,12.54,11.22,17.22,33.45,20,25,3.16,70.56,4.43,84.78-9.86C328.73,378.15,332.48,361.89,333.61,355Z"/>
      <path class="cls-5" d="M333.61,355c3.05-18.6,8.36-51.82-11.1-74.53-7-8.18-22.86-21.72-33.23-23.75-15.85-3.11-52.82-4.59-68.13,0-50.55,15.15-27.85,58-26.69,86.07.39,9.35-.08,27,5.63,35.69,8.2,12.54,11.22,17.22,33.45,20,25,3.16,70.56,4.43,84.78-9.86C328.73,378.15,332.48,361.89,333.61,355Z"/>
      <g class="cls-6">
        <rect class="cls-7" x="-12.03" y="402.85" width="604.95" height="99.19"/>
        <path class="cls-8" d="M575.49,507.84S528,485.73,525,479.61s-2.5-15.64,4.5-23.13S577,413.63,577,413.63v-7.14s-50.87,42-61.75,44.89c-13.5,3.57-27.77,3.49-35.75-.17C467.24,445.6,448.24,433,448.24,433l-3.75,5.78s13.5,9.52,20.5,14.28,10.5,10.55,7.5,16.33-29.05,13.77-41.5,16.83c-14.5,3.58-19.75,2.39-21-4.59-1.05-5.89,19.5-34,19.5-34l-8.75,1.53s-11.9,17.95-15.75,23.3c-5.5,7.65-14.25,9.18-20.5,6.46-12.43-5.41-14.5-18.36-14.5-18.36l-5,.34s5,17.34,4,22.78-6,10.81-21.5,11.57c-27.5,1.36-49.5-6.8-55.5-11.57s-9.48-19.19-9-23.8c.29-2.69,32.1-41.18,42.09-56.28,0,0-6.17-.43-6.17,0S273,455.8,262,458.52s-31.5,4.54-40.5,1.59c-21.23-6.95-44.5-18.25-40.5-25.39,2.87-5.13,22.87-30.84,22.87-30.84l-6.64.21S171,428.25,163.49,431.66s-9-1.37-25-.69-21.5,4.43-35,1.71c-11.5-2.32-60.83-27.52-62.33-27.86l-15.33-1.67S90.07,437,96.07,439.08s9.94,10.27,8.44,14.7,1,12.57-12,17.67S-6.17,503.6-6.17,503.6L-12,519s120.52-47.9,129-50.62,26.48,4.46,37.5,6.8c16,3.4,37.07,10.23,44.67,12.81,8,2.72,9.33,6.58,14.83,16.44s-9,20.75-9,20.75l15.5-.34a53.81,53.81,0,0,1,8.67-18.48c4.33-6.12,20.81-10.91,35.33-11.79,18.67-1.14,79,7.14,91,11.56s7,18.37,7,18.37,48.5,1.36,48.5,0-.39-12.33,9.75-22.28c13-12.75,38-20.58,55.25-20.58,8,0,5.5,6.12,5.5,6.12a101,101,0,0,1-15,36.4l8.5,2.72s11.09-24.3,15.5-30.95c5.75-8.68,14.58-8.83,25.5-7.48,18,2.21,60,29.59,60,29.59ZM204.24,478.59c-6.8,2.57-18.43,1.21-31.33-2.83-9.42-2.95-13-6.5-11.92-10.43,1-3.74,10.71-9.17,15.5-10.89,9.5-3.4,23.95,4.26,29.25,7.32C212.24,465.5,213.24,475.19,204.24,478.59Z"/>
        <ellipse class="cls-9" cx="135.24" cy="446.45" rx="9.75" ry="6.63"/>
        <ellipse class="cls-9" cx="227.7" cy="490.41" rx="9.75" ry="6.63"/>
        <ellipse class="cls-9" cx="389.59" cy="496.97" rx="9.75" ry="6.63"/>
        <ellipse class="cls-9" cx="499.48" cy="466.72" rx="9.75" ry="6.63"/>
      </g>
      <path class="cls-10" d="M341.4,401.15s-6.56,82.6,90,81.18c102.82-1.52,83.74-81.18,83.74-81.18"/>
      <path class="cls-11" d="M345.45,401.47c0,.53-.07,1-.1,1.51s-.07,1-.1,1.43c-.08.9-.18,1.71-.29,2.45-.22,1.47-.5,2.67-.77,3.89a21.87,21.87,0,0,0-.13,9.72,21.52,21.52,0,0,0,3.74,9,42.56,42.56,0,0,1,4.71,8.26c.5,1.05.89,2,1.21,2.84s.65,1.58.89,2.29c.43,1.43.76,2.59,1.09,3.78a17.63,17.63,0,0,0,1.34,3.76c.33.69.73,1.42,1.22,2.23a28.16,28.16,0,0,0,1.95,2.54,19.27,19.27,0,0,0,7.76,5.72c.56.25,1.11.5,1.69.78s1.22.51,1.89.84,1.36.72,2.13,1.2,1.68.94,2.64,1.58,1.79,1.23,2.54,1.74a23.35,23.35,0,0,1,2,1.43c1.17.91,2,1.84,3,2.61a30.38,30.38,0,0,0,3.16,2.46,13.32,13.32,0,0,0,2.24,1.21c.87.38,1.85.77,3,1.17a16.82,16.82,0,0,0,1.63.52c.52.12,1,.22,1.49.31a24.72,24.72,0,0,0,2.53.34c.76.07,1.45.09,2.11.1s1.29-.09,1.91-.14a39.15,39.15,0,0,1,9.64.17c1.18.15,2.2.33,3.11.53s1.73.32,2.47.51a34.86,34.86,0,0,1,3.82,1.27c.59.22,1.18.45,1.82.66s1.31.34,2.07.48a32.25,32.25,0,0,0,5.77.53,27.65,27.65,0,0,0,9.66-1.79,39,39,0,0,1,3.82-1.34,40.06,40.06,0,0,1,5.61-1,36.9,36.9,0,0,1,9.67-.16,32.16,32.16,0,0,0,4.05.14,25.6,25.6,0,0,0,5.66-1.09c.59-.17,1.13-.33,1.64-.5s1-.4,1.39-.6c.86-.4,1.61-.79,2.27-1.17a17.83,17.83,0,0,0,3.24-2.35,32.55,32.55,0,0,1,3.08-2.49,39.28,39.28,0,0,1,4.64-3,55.23,55.23,0,0,1,8.42-4.18,19.91,19.91,0,0,0,5.56-3.33c.68-.65,1.42-1.4,2.22-2.29a17.05,17.05,0,0,0,1.89-2.57,17.39,17.39,0,0,0,1.22-2.21,30.28,30.28,0,0,0,1.23-3.77,32.54,32.54,0,0,1,.9-3.79c.21-.7.4-1.49.7-2.33s.67-1.77,1-2.86a49.35,49.35,0,0,1,4-8.53,25.35,25.35,0,0,0,1.66-3.63,23.57,23.57,0,0,0,1.05-5.65,21,21,0,0,0-1.4-9.58c-.45-1.16-.88-2.31-1.32-3.73-.21-.71-.44-1.48-.64-2.37-.1-.43-.2-.89-.32-1.38l-.32-1.47"/>
      <path class="cls-11" d="M340.23,401.06c-.15,2.56-.27,4.39-.5,6s-.49,2.85-.75,4.14A26.33,26.33,0,0,0,342.81,431a50.82,50.82,0,0,1,4.94,8.87c.54,1.13,1,2.13,1.31,3.05a26.26,26.26,0,0,1,1,2.45c.49,1.53.87,2.77,1.25,4a19.84,19.84,0,0,0,1.51,4,26.72,26.72,0,0,0,1.34,2.39,32.47,32.47,0,0,0,2.11,2.74,21.75,21.75,0,0,0,8.31,6.27c.59.28,1.19.56,1.8.88s1.31.57,2,.94,1.46.79,2.29,1.31,1.8,1,2.84,1.72,1.94,1.32,2.75,1.86,1.53,1,2.16,1.52c1.26,1,2.19,1.93,3.22,2.73a34.1,34.1,0,0,0,3.4,2.57,14,14,0,0,0,2.39,1.26c.92.41,2,.82,3.18,1.24.61.21,1.18.42,1.73.55s1.07.24,1.56.33c1,.19,1.86.31,2.66.39s1.54.11,2.23.12,1.35-.08,2-.12a43.78,43.78,0,0,1,10.09.24c1.23.17,2.3.35,3.25.56s1.8.32,2.56.52a36.79,36.79,0,0,1,4,1.27c.61.23,1.23.45,1.89.66s1.35.35,2.14.49a33.42,33.42,0,0,0,6,.53,29.15,29.15,0,0,0,10-1.8c1.22-.45,2.43-.94,3.95-1.35a42,42,0,0,1,5.8-1,40.81,40.81,0,0,1,10.07-.23,35.28,35.28,0,0,0,4.22.11,27.4,27.4,0,0,0,5.95-1.18c.62-.17,1.19-.35,1.72-.52s1-.42,1.48-.63a26.83,26.83,0,0,0,2.41-1.22,19.41,19.41,0,0,0,3.47-2.45,42,42,0,0,1,3.32-2.59,45.3,45.3,0,0,1,5-3.22,41,41,0,0,1,5.23-2.88c1.41-.75,2.62-1.26,3.85-1.78a19.34,19.34,0,0,0,3.8-2.05,20.14,20.14,0,0,0,2.19-1.68c.75-.71,1.55-1.54,2.43-2.52a26.43,26.43,0,0,0,3.45-5.21,33,33,0,0,0,1.42-4.09c.31-1.31.58-2.6,1.08-4.12.24-.76.46-1.61.8-2.53s.74-1.94,1.14-3.13a61.27,61.27,0,0,1,4.2-9.31,29.53,29.53,0,0,0,1.72-3.93,25.73,25.73,0,0,0,1.08-6A23.27,23.27,0,0,0,519,410.73c-.45-1.25-.89-2.47-1.34-4s-.85-3.34-1.39-5.85"/>
      <path class="cls-11" d="M342.84,401.26c-.13,2.32-.26,4.17-.49,5.68s-.5,2.77-.77,4a23,23,0,0,0-.09,10,22.57,22.57,0,0,0,3.82,9.25,46.8,46.8,0,0,1,4.82,8.56c.52,1.09.92,2.07,1.26,3s.68,1.64.93,2.37c.46,1.48.82,2.68,1.17,3.91a19.53,19.53,0,0,0,1.42,3.89c.35.71.77,1.47,1.28,2.31a30.78,30.78,0,0,0,2,2.63,20.39,20.39,0,0,0,8,6c.58.27,1.15.53,1.74.83s1.27.54,2,.89,1.41.75,2.21,1.25,1.74,1,2.74,1.66,1.87,1.27,2.65,1.8,1.47,1,2.08,1.47c1.21.93,2.1,1.89,3.09,2.67a33.34,33.34,0,0,0,3.29,2.52,13.77,13.77,0,0,0,2.31,1.23c.89.39,1.91.8,3.09,1.21.59.2,1.14.41,1.67.53s1.05.23,1.53.32c1,.18,1.81.29,2.6.37s1.49.09,2.16.1,1.32-.08,2-.13a41.52,41.52,0,0,1,9.87.21c1.2.16,2.25.34,3.18.54s1.76.33,2.51.52a35.82,35.82,0,0,1,3.9,1.27c.6.22,1.2.45,1.85.66s1.34.34,2.11.49a33.37,33.37,0,0,0,5.87.52,28.44,28.44,0,0,0,9.8-1.79,38.85,38.85,0,0,1,3.89-1.34,40.73,40.73,0,0,1,5.7-1,38.77,38.77,0,0,1,9.87-.19,35.74,35.74,0,0,0,4.14.13,27.5,27.5,0,0,0,5.8-1.14q.9-.25,1.68-.51c.52-.19,1-.41,1.44-.61.89-.41,1.65-.81,2.33-1.2a18.25,18.25,0,0,0,3.36-2.4,36.91,36.91,0,0,1,3.2-2.54,41.57,41.57,0,0,1,4.83-3.12,37.84,37.84,0,0,1,5-2.75,38.25,38.25,0,0,1,3.71-1.67,17.65,17.65,0,0,0,3.66-1.94,17.44,17.44,0,0,0,2.12-1.59c.71-.68,1.48-1.47,2.32-2.41a23.8,23.8,0,0,0,3.28-5,32.6,32.6,0,0,0,1.33-3.93,36.76,36.76,0,0,1,1-4c.22-.73.42-1.55.74-2.44s.71-1.85,1.09-3a55.24,55.24,0,0,1,4.09-8.92,28.28,28.28,0,0,0,1.69-3.78,24.23,24.23,0,0,0,1.06-5.85,22.16,22.16,0,0,0-1.39-9.92c-.45-1.2-.89-2.39-1.33-3.86s-.85-3.28-1.33-5.53"/>
      <path class="cls-3" d="M348.63,402.56c6.71,0,6.71,23,13.42,23s6.7-23,13.41-23,6.71,23,13.42,23,6.7-23,13.41-23,6.71,23,13.42,23,6.7-23,13.41-23,6.71,23,13.42,23,6.71-23,13.41-23,6.71,23,13.42,23,6.71-23,13.42-23,6.71,23,13.42,23,6.71-23,13.42-23l4.74.07c8.83-.57,17.79.72,13.85-8.09-1.5-3.35-8.34-8.23-8.34-8.23-14-8.64-16.69-99.75-91-97.22-56.59,1.93-66.17,53.61-75.05,77.65-3.84,10.39-6.81,14.39-15.08,18.91-4.46,2.43-7.2,9.61-3.32,13,4.53,3.9,9.68,3.66,13.16,3.95"/>
      <path class="cls-4" d="M348.63,402.56c6.71,0,6.71,23,13.42,23s6.7-23,13.41-23,6.71,23,13.42,23,6.7-23,13.41-23,6.71,23,13.42,23,6.7-23,13.41-23,6.71,23,13.42,23,6.71-23,13.41-23,6.71,23,13.42,23,6.71-23,13.42-23,6.71,23,13.42,23,6.71-23,13.42-23l4.74.07c8.83-.57,17.79.72,13.85-8.09-1.5-3.35-8.34-8.23-8.34-8.23-14-8.64-16.69-99.75-91-97.22-56.59,1.93-66.17,53.61-75.05,77.65-3.84,10.39-6.81,14.39-15.08,18.91-4.46,2.43-7.2,9.61-3.32,13,4.53,3.9,9.68,3.66,13.16,3.95"/>
      <path class="cls-5" d="M348.63,402.56c6.71,0,6.71,23,13.42,23s6.7-23,13.41-23,6.71,23,13.42,23,6.7-23,13.41-23,6.71,23,13.42,23,6.7-23,13.41-23,6.71,23,13.42,23,6.71-23,13.41-23,6.71,23,13.42,23,6.71-23,13.42-23,6.71,23,13.42,23,6.71-23,13.42-23l4.74.07c8.83-.57,17.79.72,13.85-8.09-1.5-3.35-8.34-8.23-8.34-8.23-14-8.64-16.69-99.75-91-97.22-56.59,1.93-66.17,53.61-75.05,77.65-3.84,10.39-6.81,14.39-15.08,18.91-4.46,2.43-7.2,9.61-3.32,13,4.53,3.9,9.68,3.66,13.16,3.95"/>
    </g>
    <g id="Icons">
      <g id="Text">
        <polyline class="cls-11" points="126.91 74.92 134.22 67.61 141.52 74.92"/>
        <line class="cls-12" x1="134.22" y1="47.62" x2="134.22" y2="67.61"/>
        <polyline class="cls-11" points="150.74 74.92 158.04 67.61 165.35 74.92"/>
        <line class="cls-12" x1="158.04" y1="47.62" x2="158.04" y2="67.61"/>
        <path class="cls-11" d="M180,76.94a7,7,0,0,1,14,0"/>
        <line class="cls-11" x1="187.04" y1="47.8" x2="187.04" y2="69.94"/>
        <path class="cls-11" d="M207.38,76.94a7,7,0,0,1,14,0"/>
        <line class="cls-11" x1="214.38" y1="47.8" x2="214.38" y2="69.94"/>
        <rect class="cls-13" x="102.25" y="21.32" width="144.64" height="36" rx="17" ry="17"/>
        <g id="PTH_Rezeptor_klein-3" data-name="PTH Rezeptor klein">
          <g id="Neues_Symbol_3-3" data-name="Neues Symbol 3">
            <path class="cls-14" d="M67.24,236.83l.05,15-30,.09,0-15,10,0a5,5,0,1,0,10,0h0Z"/>
          </g>
        </g>
        <path class="cls-15" d="M279.81,382.12a34.83,34.83,0,1,1-8.09-48.6A34.85,34.85,0,0,1,279.81,382.12Z"/>
        <g id="OPG">
          <path class="cls-12" d="M356.58,127.14c-1.61,3.15-4.72,3.87-7,1.63s-2.77-6.62-1.16-9.77,4.73-3.87,7-1.63S358.19,124,356.58,127.14Z"/>
        </g>
        <g id="OPG-2" data-name="OPG">
          <path class="cls-12" d="M126,197.53c-1.61,3.15-4.73,3.88-7,1.63s-2.77-6.62-1.16-9.77,4.72-3.87,7-1.62S127.55,194.39,126,197.53Z"/>
        </g>
        <g id="RANKL">
          <path class="cls-12" d="M218.45,125a5,5,0,1,1-1.17-7A5,5,0,0,1,218.45,125Z"/>
        </g>
        <g id="RANKL-2" data-name="RANKL">
          <path class="cls-12" d="M191.11,79.84a5,5,0,1,1-1.16-7A5,5,0,0,1,191.11,79.84Z"/>
        </g>
        <g id="RANKL-3" data-name="RANKL">
          <path class="cls-12" d="M289.71,185a5,5,0,1,1-1.17-7A5,5,0,0,1,289.71,185Z"/>
        </g>
        <g id="RANKL-4" data-name="RANKL">
          <path class="cls-12" d="M154.25,196.37a5,5,0,1,1-1.17-7A5,5,0,0,1,154.25,196.37Z"/>
        </g>
        <line class="cls-16" x1="404.3" y1="452.89" x2="404.3" y2="475.12"/>
        <polygon class="cls-17" points="401.03 472.47 401.62 471.93 404.3 474.81 406.99 471.93 407.57 472.47 404.3 475.99 401.03 472.47"/>
        <line class="cls-18" x1="455.34" y1="467.66" x2="455.34" y2="414.83"/>
        <polygon class="cls-19" points="459.02 417.81 458.36 418.43 455.34 415.18 452.32 418.43 451.66 417.81 455.34 413.86 459.02 417.81"/>
        <path class="cls-18" d="M523.49,432.53,512,434.35s-28.2,5.4-28.2-8.94V392.85"/>
        <polygon class="cls-19" points="487.48 395.83 486.82 396.44 483.8 393.19 480.78 396.44 480.12 395.83 483.8 391.87 487.48 395.83"/>
        <line class="cls-18" x1="485.16" y1="335.58" x2="485.16" y2="293.11"/>
        <polygon class="cls-19" points="488.84 296.09 488.18 296.7 485.16 293.45 482.14 296.7 481.48 296.09 485.16 292.13 488.84 296.09"/>
        <path class="cls-3" d="M501.19,51.17c0,13.67-10.31,24.22-27.57,22.9-13.63-1-21.93-9.23-21.93-22.9s11.21-22.85,24.75-24.75C495.38,23.76,501.19,37.5,501.19,51.17Z"/>
        <path class="cls-4" d="M501.19,51.17c0,13.67-10.31,24.22-27.57,22.9-13.63-1-21.93-9.23-21.93-22.9s11.21-22.85,24.75-24.75C495.38,23.76,501.19,37.5,501.19,51.17Z"/>
        <path class="cls-5" d="M501.19,51.17c0,13.67-10.31,24.22-27.57,22.9-13.63-1-21.93-9.23-21.93-22.9s11.21-22.85,24.75-24.75C495.38,23.76,501.19,37.5,501.19,51.17Z"/>
        <circle class="cls-15" cx="475.55" cy="48.56" r="9.32"/>
        <path class="cls-3" d="M469.11,49.08c0,13.66-9.38,28-23.05,28s-26.45-14.32-26.45-28,10.59-27.36,24.26-27.36S469.11,35.41,469.11,49.08Z"/>
        <path class="cls-4" d="M469.11,49.08c0,13.66-9.38,28-23.05,28s-26.45-14.32-26.45-28,10.59-27.36,24.26-27.36S469.11,35.41,469.11,49.08Z"/>
        <path class="cls-5" d="M469.11,49.08c0,13.66-9.38,28-23.05,28s-26.45-14.32-26.45-28,10.59-27.36,24.26-27.36S469.11,35.41,469.11,49.08Z"/>
        <circle class="cls-15" cx="439.23" cy="49.08" r="9.32"/>
        <line class="cls-18" x1="446.1" y1="90.33" x2="446.1" y2="279.69"/>
        <polygon class="cls-19" points="442.42 276.71 443.08 276.09 446.1 279.34 449.12 276.09 449.78 276.71 446.1 280.67 442.42 276.71"/>
        <line class="cls-18" x1="249.65" y1="53.17" x2="410.5" y2="53.17"/>
        <polygon class="cls-19" points="407.52 56.85 406.91 56.19 410.16 53.17 406.91 50.15 407.52 49.49 411.48 53.17 407.52 56.85"/>
        <g id="MCSF">
          <rect class="cls-12" x="88.39" y="186.47" width="10.34" height="10.34" transform="translate(-108.11 122.29) rotate(-45)"/>
        </g>
        <rect class="cls-20" x="32.93" y="339.19" width="129.32" height="55.14" rx="20" ry="20"/>
        <g id="_Gruppe_" data-name="&lt;Gruppe&gt;">
          <rect class="cls-20" x="54.71" y="338.54" width="87" height="54.5" rx="20" ry="20"/>
          <text class="cls-21" transform="translate(69.98 387.07)" style="white-space: pre;">DNA</text>
          <g id="_Gruppe_2" data-name="&lt;Gruppe&gt;">
            <rect class="cls-22" x="65.96" y="355.31" width="45.26" height="11.25"/>
            <polyline class="cls-16" points="89.49 354.46 111.34 354.46 111.34 348.86 130.1 348.86"/>
            <polygon class="cls-17" points="127.45 352.13 126.9 351.55 129.79 348.86 126.9 346.18 127.45 345.59 130.97 348.86 127.45 352.13"/>
          </g>
        </g>
        <g id="Neues_Symbol_1" data-name="Neues Symbol 1">
          <g id="VDR">
            <path class="cls-23" d="M237.88,219.5v21.94a5.5,5.5,0,0,1-5.5,5.5h0a5.51,5.51,0,0,1-5.5-5.52L227,219.5a5.47,5.47,0,0,0,10.93,0Z"/>
          </g>
          <g id="Deleted_Symbol-10" data-name="Deleted Symbol">
            <path class="cls-24" d="M227,219.33a5.45,5.45,0,1,0,10.9,0v-9.46h-11Z"/>
          </g>
        </g>
        <g id="CAP-2" data-name="CAP">
          <circle class="cls-25" cx="443.42" cy="476.5" r="4.5"/>
        </g>
        <g id="CAP-3" data-name="CAP">
          <circle class="cls-25" cx="460.63" cy="480.04" r="4.5"/>
        </g>
        <g id="CAP-4" data-name="CAP">
          <circle class="cls-25" cx="467.27" cy="472.6" r="4.5"/>
        </g>
        <line class="cls-18" x1="338.02" y1="125.07" x2="226.67" y2="125.07"/>
        <polygon class="cls-19" points="335.04 121.39 334.42 122.05 337.67 125.07 334.42 128.09 335.04 128.75 338.99 125.07 335.04 121.39"/>
        <polygon class="cls-19" points="229.66 121.39 230.27 122.05 227.02 125.07 230.27 128.09 229.66 128.75 225.7 125.07 229.66 121.39"/>
      </g>
      <circle class="cls-12" cx="477.4" cy="364.2" r="21.5"/>
      <g id="_Gruppe_3" data-name="&lt;Gruppe&gt;">
        <circle class="cls-25" cx="466.2" cy="367.26" r="4.5"/>
      </g>
      <g id="_Gruppe_4" data-name="&lt;Gruppe&gt;">
        <circle class="cls-25" cx="478.16" cy="363.76" r="4.5"/>
      </g>
      <g id="_Gruppe_5" data-name="&lt;Gruppe&gt;">
        <circle class="cls-25" cx="481.66" cy="353.46" r="4.5"/>
      </g>
      <circle class="cls-26" cx="490.41" cy="363.17" r="4.5"/>
      <circle class="cls-26" cx="473.7" cy="375.58" r="4.5"/>
      <g id="_Gruppe_6" data-name="&lt;Gruppe&gt;">
        <circle class="cls-26" cx="485.16" cy="373.35" r="4.5"/>
      </g>
      <circle class="cls-26" cx="468.46" cy="354.75" r="4.5"/>
      <g id="_Gruppe_7" data-name="&lt;Gruppe&gt;">
        <circle class="cls-25" cx="522.98" cy="462.41" r="4.5"/>
      </g>
      <g id="_Gruppe_8" data-name="&lt;Gruppe&gt;">
        <circle class="cls-25" cx="534.18" cy="457.71" r="4.5"/>
      </g>
      <g id="_Gruppe_9" data-name="&lt;Gruppe&gt;">
        <circle class="cls-25" cx="538.73" cy="443.99" r="4.5"/>
      </g>
      <circle class="cls-26" cx="547.45" cy="464.47" r="4.5"/>
      <circle class="cls-26" cx="535.23" cy="471.41" r="4.5"/>
      <g id="_Gruppe_10" data-name="&lt;Gruppe&gt;">
        <circle class="cls-26" cx="548.92" cy="453.92" r="4.5"/>
      </g>
      <circle class="cls-26" cx="525.56" cy="447.49" r="4.5"/>
      <g id="_Gruppe_11" data-name="&lt;Gruppe&gt;">
        <circle class="cls-25" cx="473.7" cy="276.16" r="4.5"/>
      </g>
      <g id="_Gruppe_12" data-name="&lt;Gruppe&gt;">
        <circle class="cls-25" cx="490.72" cy="271.48" r="4.5"/>
      </g>
      <g id="_Gruppe_13" data-name="&lt;Gruppe&gt;">
        <circle class="cls-25" cx="490.72" cy="259.03" r="4.5"/>
      </g>
      <circle class="cls-26" cx="505.07" cy="266.21" r="4.5"/>
      <circle class="cls-26" cx="486.91" cy="284.59" r="4.5"/>
      <g id="_Gruppe_14" data-name="&lt;Gruppe&gt;">
        <circle class="cls-26" cx="503.65" cy="282.7" r="4.5"/>
      </g>
      <circle class="cls-26" cx="477.52" cy="263.22" r="4.5"/>
    </g>
    <g id="Text-2" data-name="Text">
      <text class="cls-21" transform="translate(399.82 244.65)" style="white-space: pre;">Ca²</text>
      <text class="cls-27" transform="translate(432.04 237.99) scale(0.58)" style="white-space: pre;">+</text>
      <text class="cls-21" transform="translate(438.85 244.65)" style="white-space: pre;"> </text>
      <text class="cls-21" transform="translate(459.36 454.42)" style="white-space: pre;">Ca²</text>
      <text class="cls-27" transform="translate(491.59 447.76) scale(0.58)" style="white-space: pre;">+</text>
      <text class="cls-21" transform="translate(498.4 454.42)" style="white-space: pre;"> </text>
      <text class="cls-28" transform="translate(395.22 447.12)" style="white-space: pre;">H</text>
      <text class="cls-28" transform="translate(406.06 442.12) scale(0.58)" style="white-space: pre;">+</text>
      <text class="cls-28" transform="translate(411.16 447.12)" style="white-space: pre;"> </text>
      <text class="cls-28" transform="translate(382.48 461.6)" style="white-space: pre;">H</text>
      <text class="cls-28" transform="translate(393.31 456.61) scale(0.58)" style="white-space: pre;">+</text>
      <text class="cls-28" transform="translate(398.42 461.6)" style="white-space: pre;"> </text>
      <text class="cls-28" transform="translate(412.06 472.45)" style="white-space: pre;">H</text>
      <text class="cls-28" transform="translate(422.89 467.45) scale(0.58)" style="white-space: pre;">+</text>
      <text class="cls-28" transform="translate(428 472.45)" style="white-space: pre;"> </text>
      <text class="cls-29" transform="translate(200.97 445.42)" style="white-space: pre;">Osteocyte</text>
      <text class="cls-21" transform="translate(9.07 451.83)" style="white-space: pre;">Bone <tspan x="-1.09" y="20">matrix</tspan></text>
      <text class="cls-21" transform="translate(466.1 97.24)" style="white-space: pre;">mature<tspan x="-13.9" y="20">osteoclast</tspan></text>
      <text class="cls-21" transform="translate(269.94 28.35)" style="white-space: pre;">pre-osteclasts-<tspan x="38.89" y="20">fusion</tspan></text>
      <text class="cls-21" transform="translate(275.44 475.91)" style="white-space: pre;">collagene<tspan x="15.59" y="20">matrix</tspan></text>
      <text class="cls-21" style="white-space: pre; font-size: 20px;" x="206.971" y="371.327">osteoblast</text>
      <text class="cls-21" transform="translate(234.5 148.97)" style="white-space: pre;">competition</text>
      <text class="cls-21" transform="translate(112.32 44.09)" style="white-space: pre;">pre-osteclasts</text>
      <text class="cls-21" transform="translate(231.67 88.38)" style="white-space: pre;">RANK</text>
      <text class="cls-21" transform="translate(299.21 189.41)" style="white-space: pre;">RANK-<tspan class="cls-30" x="62.23" y="0">L</tspan></text>
      <text class="cls-21" transform="translate(16.34 190.4)" style="white-space: pre;">M-CSF</text>
      <text class="cls-21" transform="translate(109.86 94.01)" style="white-space: pre;">C-FMS</text>
      <text class="cls-21" transform="translate(355.01 148.97)" style="white-space: pre;">OPG</text>
      <text class="cls-27" transform="translate(402.55 316.94)" style="white-space: pre;">bone<tspan x="-25.56" y="20">resorption</tspan></text>
      <text class="cls-21" transform="translate(500.26 488.44)" style="white-space: pre;">PO</text>
      <text class="cls-31" transform="translate(529.16 494.1) scale(0.58)" style="white-space: pre;">4</text>
      <text class="cls-21" transform="translate(29.99 227.09)" style="white-space: pre;">PTH</text>
      <text class="cls-32" transform="translate(69.99 232.75) scale(0.58)" style="white-space: pre;">r</text>
      <text class="cls-21" transform="translate(221.92 198.68)" style="white-space: pre;">D</text>
      <text class="cls-32" transform="translate(236.36 204.34) scale(0.58)" style="white-space: pre;">3</text>
      <g id="Plus-13" data-name="Plus">
        <circle class="cls-33" cx="214.91" cy="302.82" r="8"/>
        <path class="cls-10" d="M213.78,307.32V304h-3.37v-2.31h3.37v-3.35H216v3.35h3.38V304H216v3.34Z"/>
      </g>
      <g id="Plus-14" data-name="Plus">
        <circle class="cls-33" cx="35.2" cy="296.81" r="8"/>
        <path class="cls-10" d="M34.07,301.31V298H30.7v-2.31h3.37v-3.34h2.25v3.34H39.7V298H36.32v3.35Z"/>
      </g>
      <g id="Plus-15" data-name="Plus">
        <circle class="cls-33" cx="93.56" cy="171.1" r="8"/>
        <path class="cls-10" d="M92.43,175.6v-3.35H89.06v-2.31h3.37V166.6h2.25v3.34h3.38v2.31H94.68v3.35Z"/>
      </g>
      <g id="Plus-16" data-name="Plus">
        <circle class="cls-33" cx="150.18" cy="171.1" r="8"/>
        <path class="cls-10" d="M149.05,175.6v-3.35h-3.37v-2.31h3.37V166.6h2.25v3.34h3.38v2.31H151.3v3.35Z"/>
      </g>
      <g id="Minus-5" data-name="Minus">
        <circle class="cls-17" cx="121.87" cy="171.1" r="8"/>
        <path class="cls-10" d="M117.37,172.25v-2.31h9v2.31Z"/>
      </g>
      <g id="Plus-17" data-name="Plus">
        <circle class="cls-33" cx="260.09" cy="303.45" r="8"/>
        <path class="cls-10" d="M259,308v-3.34h-3.37V302.3H259V299h2.25v3.35h3.38v2.31h-3.38V308Z"/>
      </g>
      <g id="Plus-18" data-name="Plus">
        <circle class="cls-33" cx="320.232" cy="308.506" r="8"/>
        <path class="cls-10" d="M 319.102 313.006 L 319.102 309.686 L 315.732 309.686 L 315.732 307.376 L 319.102 307.376 L 319.102 304.026 L 321.372 304.026 L 321.372 307.376 L 324.752 307.376 L 324.752 309.686 L 321.372 309.686 L 321.372 313.026 Z"/>
      </g>
      <g id="Bone_klein" data-name="Bone klein">
        <circle class="cls-34" cx="50" cy="50.41" r="30"/>
        <path class="cls-35" d="M37.45,60.71a2.17,2.17,0,0,0-.57.51A2.71,2.71,0,0,0,36.34,63c.08,2-.12,8.87-6.59,9.28-4.38.28-6.07-2.83-6.73-5.05a2.81,2.81,0,0,0-2.55-2.06c-2.63-.12-6.77-1.08-7.07-5.88-.74-12,13.94-6.81,13.94-6.81s.38.29,1.95-.56L62.55,34a2.83,2.83,0,0,0,1.14-1.73s-1-9.34,6.56-9.82c6.74-.43,7.13,7.19,7.13,7.19s8.78-1.28,9.22,5.8c.74,12-13.94,6.81-13.94,6.81s-.38-.29-2,.56Z"/>
        <path class="cls-36" d="M80.07,35.05s-3-.39-2.69-5.41"/>
        <path class="cls-36" d="M19.93,59.66s3,.39,2.69,5.41"/>
      </g>
      <line class="cls-18" x1="215.48" y1="109.49" x2="215.48" y2="85.91"/>
      <polygon class="cls-19" points="219.16 88.89 218.5 89.5 215.48 86.25 212.46 89.5 211.8 88.89 215.48 84.93 219.16 88.89"/>
    </g>
    <g id="Zoom_Rahmen" data-name="Zoom Rahmen">
      <g id="Neues_Symbol_2-6" data-name="Neues Symbol 2">
        <g id="Kidney_klein-9" data-name="Kidney klein">
          <circle class="cls-1" cx="50" cy="50" r="30"/>
        </g>
        <rect class="cls-1" width="560" height="500"/>
      </g>
    </g>
  </g>
  <line style="fill: rgb(26, 69, 84); stroke: rgb(255, 235, 4); stroke-width: 2;" x1="18.189" y1="317.009" x2="87.842" y2="271.011" transform="matrix(-0.539989, 0.841672, -0.841672, -0.539989, 329.103347, 408.150386)"/>
  <line style="fill: rgb(26, 69, 84); stroke: rgb(255, 235, 4); stroke-width: 2;" x1="45.745" y1="331.503" x2="62.635" y2="337.472" transform="matrix(-0.3289, 0.944365, -0.944365, -0.3289, 392.942096, 386.357982)"/>
  <line style="fill: rgb(26, 69, 84); stroke: rgb(255, 235, 4); stroke-width: 2;" x1="38.647" y1="324.893" x2="53.669" y2="334.715" transform="matrix(0.963074, 0.269237, -0.269237, 0.963074, 92.064912, -1.733422)" bx:origin="0.696 0.526"/>
  <line style="fill: rgb(26, 69, 84); stroke: rgb(255, 235, 4); stroke-width: 2;" x1="198.29" y1="312.488" x2="267.943" y2="266.49" transform="matrix(-0.539989, 0.841672, -0.841672, -0.539989, 602.65163, 249.602238)"/>
  <line style="stroke-width: 4; fill: rgb(26, 69, 84); stroke-dasharray: 4px; stroke: rgb(255, 0, 0);" x1="36.868" y1="307.707" x2="148.722" y2="235.653" transform="matrix(0.544324, -0.838875, 0.838875, 0.544324, -185.62112, 201.641462)"/>
  <line style="stroke-width: 4; fill: rgb(26, 69, 84); stroke: rgb(255, 0, 0);" x1="83.899" y1="202.337" x2="94.794" y2="209.813" transform="matrix(0.248204, -0.968708, 0.968708, 0.248204, -132.456124, 241.477037)"/>
  <line style="stroke-width: 4; fill: rgb(26, 69, 84); stroke: rgb(255, 0, 0);" x1="86.432" y1="201.921" x2="97.775" y2="208.432" transform="matrix(-0.989332, -0.145677, 0.145677, -0.989332, 157.733036, 422.242245)" bx:origin="0.696 0.526"/>
  <line style="stroke-width: 4; fill: rgb(26, 69, 84); stroke-dasharray: 4px; stroke: rgb(255, 0, 0);" x1="50.254" y1="308.875" x2="162.108" y2="236.82" transform="matrix(0.704585, -0.70962, 0.70962, 0.704585, -162.2505, 155.951418)"/>
  <line style="stroke-width: 4; fill: rgb(26, 69, 84); stroke: rgb(255, 0, 0);" x1="110.793" y1="204.188" x2="121.688" y2="211.664" transform="matrix(0.44133, -0.897345, 0.897345, 0.44133, -121.641244, 220.469854)"/>
  <line style="stroke-width: 4; fill: rgb(26, 69, 84); stroke: rgb(255, 0, 0);" x1="113.371" y1="204.808" x2="124.714" y2="211.319" transform="matrix(-0.938529, -0.3452, 0.3452, -0.938529, 163.195201, 445.526258)" bx:origin="0.696 0.526"/>
  <line style="stroke-width: 4; fill: rgb(26, 69, 84); stroke-dasharray: 4px; stroke: rgb(255, 0, 0);" x1="55.569" y1="305.662" x2="178.309" y2="229.345" transform="matrix(0.807526, -0.589832, 0.589832, 0.807526, -132.96952, 123.261991)"/>
  <line style="stroke-width: 4; fill: rgb(26, 69, 84); stroke: rgb(255, 0, 0);" x1="137.09" y1="199.107" x2="147.985" y2="206.583" transform="matrix(0.577113, -0.816664, 0.816664, 0.577113, -105.379014, 202.185741)"/>
  <line style="stroke-width: 4; fill: rgb(26, 69, 84); stroke: rgb(255, 0, 0);" x1="139.557" y1="200.514" x2="150.9" y2="207.025" transform="matrix(-0.872471, -0.488666, 0.488666, -0.872471, 176.441115, 453.924085)" bx:origin="0.696 0.526"/>
  <line style="stroke-width: 4; fill: rgb(26, 69, 84); stroke-dasharray: 4px; stroke: rgb(255, 0, 0);" x1="219.595" y1="302.285" x2="337.129" y2="225.837" transform="matrix(0.631421, -0.77544, 0.77544, 0.631421, -103.073748, 311.137673)"/>
  <line style="stroke-width: 4; fill: rgb(26, 69, 84); stroke: rgb(255, 0, 0);" x1="275.724" y1="189.097" x2="286.619" y2="196.573" transform="matrix(0.350991, -0.936379, 0.936379, 0.350991, 1.916236, 388.434703)"/>
  <line style="stroke-width: 4; fill: rgb(26, 69, 84); stroke: rgb(255, 0, 0);" x1="278.308" y1="189.221" x2="289.651" y2="195.732" transform="matrix(-0.967915, -0.251277, 0.251277, -0.967915, 514.815242, 451.026747)" bx:origin="0.696 0.526"/>
  <line style="stroke-width: 4; fill: rgb(26, 69, 84); stroke-dasharray: 4px; stroke: rgb(255, 0, 0);" x1="167.883" y1="371.978" x2="357.782" y2="236.006" transform="matrix(0.511619, -0.859213, 0.859213, 0.511619, -89.588547, 390.846246)"/>
  <line style="stroke-width: 4; fill: rgb(26, 69, 84); stroke: rgb(255, 0, 0);" x1="287.16" y1="201.506" x2="298.055" y2="208.983" transform="matrix(0.210721, -0.977546, 0.977546, 0.210721, 30.313001, 448.032589)"/>
  <line style="stroke-width: 4; fill: rgb(26, 69, 84); stroke: rgb(255, 0, 0);" x1="289.663" y1="200.899" x2="301.006" y2="207.41" transform="matrix(-0.994208, -0.107475, 0.107475, -0.994208, 571.432283, 439.444122)" bx:origin="0.696 0.526"/>
  <line style="fill: rgb(26, 69, 84); stroke: rgb(255, 235, 4); stroke-width: 2;" x1="231.155" y1="322.263" x2="248.045" y2="328.232" transform="matrix(-0.3289, 0.944365, -0.944365, -0.3289, 625.556714, 205.951556)"/>
  <line style="fill: rgb(26, 69, 84); stroke: rgb(255, 235, 4); stroke-width: 2;" x1="220.394" y1="321.919" x2="235.416" y2="331.741" transform="matrix(0.963074, 0.269237, -0.269237, 0.963074, 96.587839, -50.075202)" bx:origin="0.696 0.526"/>
</svg>