<svg xmlns="http://www.w3.org/2000/svg" xmlns:xlink="http://www.w3.org/1999/xlink" viewBox="0 0 600 281.03"><defs><style>.cls-1{fill:#fdeabf;}.cls-2{font-size:14px;}.cls-18,.cls-2,.cls-20{font-family:Arial-BoldMT, Arial;font-weight:700;}.cls-3{fill:#e0f4f6;stroke-width:2px;}.cls-3,.cls-4{stroke:#c34a29;}.cls-11,.cls-12,.cls-13,.cls-14,.cls-15,.cls-3,.cls-4,.cls-7,.cls-8,.cls-9{stroke-linecap:round;stroke-linejoin:round;}.cls-11,.cls-12,.cls-13,.cls-14,.cls-15,.cls-4,.cls-8,.cls-9{fill:none;}.cls-5{fill:#fff;}.cls-6{fill:#e1e8af;}.cls-7{fill:#b5c73b;stroke:#798728;}.cls-11,.cls-12,.cls-13,.cls-14,.cls-8,.cls-9{stroke:#1c8843;}.cls-11,.cls-12,.cls-13,.cls-14,.cls-15,.cls-8,.cls-9{stroke-width:3px;}.cls-9{stroke-dasharray:12.57 12.57;}.cls-10{fill:#1c8843;}.cls-11{stroke-dasharray:8.54 8.54;}.cls-12{stroke-dasharray:9.52 9.52;}.cls-13{stroke-dasharray:11.9 11.9;}.cls-14{stroke-dasharray:8.72 8.72;}.cls-15{stroke:#ff4c00;stroke-dasharray:10 10;}.cls-16{fill:#ff4c00;}.cls-17,.cls-18,.cls-20{font-size:16.8px;}.cls-17{font-family:ArialMT, Arial;}.cls-18,.cls-20{fill:#798728;}.cls-18{letter-spacing:-0.07em;}.cls-19{letter-spacing:0em;}</style><symbol id="Brain" data-name="Brain" viewBox="0 0 90 111.5"><g id="Kidney-3" data-name="Kidney"><circle class="cls-1" cx="45" cy="66.5" r="45"/><text class="cls-2" transform="translate(27.5 99.12)">Brain</text></g><path class="cls-3" d="M45,78.41V2.64A18.19,18.19,0,0,0,33.44,1.52c-5.57,1.54-9.69,7.71-9.89,11.15,0,0-7.94,0-12.43,9.4a20.09,20.09,0,0,0,1,19s-5.45,8.17-1.67,17.69c4.08,10.29,11.7,11,11.7,11A15.58,15.58,0,0,0,30,80.64C36.92,84.54,43.89,80.92,45,78.41Z"/><path class="cls-4" d="M35.11,18.52s-5.31-6-12.13-5.81"/><path class="cls-4" d="M20.49,26.18s-.28,6.54,5,9.47,7.81,2.79,7.81,2.79-2.66,8.49,1.8,12.39"/><path class="cls-4" d="M26.19,54.87s4.18,14.21-4,14.91"/><path class="cls-3" d="M45,78.41V2.64A18.12,18.12,0,0,1,56.56,1.52c5.57,1.53,9.69,7.7,9.89,11.14,0,0,7.94,0,12.43,9.41a20.05,20.05,0,0,1-1,19s5.45,8.17,1.67,17.69c-4.08,10.29-11.7,11-11.7,11A15.58,15.58,0,0,1,60,80.64C53.08,84.54,46.12,80.91,45,78.41Z"/><path class="cls-4" d="M61.84,58.23s.21,11.54,6,11.54"/><path class="cls-4" d="M56.25,57.26s6.69,3.35,11.17-2.39"/><path class="cls-4" d="M58.49,30.47S63.7,44,76.36,41.33"/><path class="cls-4" d="M56.5,18.52S60,10.27,66.69,12.66"/></symbol></defs><title>Nephron_180725_Zeichenfläche 53</title><g id="Bild"><rect class="cls-5" width="600" height="281.03"/></g><g id="Icons"><use width="90" height="111.5" transform="translate(38.93 23.61) scale(1.2)" xlink:href="#Brain"/><circle class="cls-6" cx="268.62" cy="87.55" r="30"/><circle class="cls-7" cx="251.62" cy="74.08" r="4.79"/><circle class="cls-7" cx="234.13" cy="71.59" r="4.79"/><circle class="cls-7" cx="243.94" cy="60.62" r="4.79"/><circle class="cls-6" cx="411.62" cy="87.55" r="30"/><circle class="cls-7" cx="394.62" cy="74.08" r="4.79"/><circle class="cls-7" cx="377.13" cy="71.59" r="4.79"/><circle class="cls-7" cx="386.94" cy="60.62" r="4.79"/><circle class="cls-6" cx="268.62" cy="231.55" r="30"/><circle class="cls-7" cx="251.62" cy="218.08" r="4.79"/><circle class="cls-7" cx="234.13" cy="215.59" r="4.79"/><circle class="cls-7" cx="243.94" cy="204.62" r="4.79"/><circle class="cls-6" cx="466.62" cy="231.55" r="30"/><circle class="cls-7" cx="449.62" cy="218.08" r="4.79"/><circle class="cls-7" cx="432.13" cy="215.59" r="4.79"/><circle class="cls-7" cx="441.94" cy="204.62" r="4.79"/><circle class="cls-6" cx="528.55" cy="87.55" r="30"/><circle class="cls-7" cx="511.55" cy="74.08" r="4.79"/><circle class="cls-7" cx="494.06" cy="71.59" r="4.79"/><circle class="cls-7" cx="503.88" cy="60.62" r="4.79"/></g><g id="Pfeile"><line class="cls-8" x1="160.93" y1="94.51" x2="165.93" y2="94.51"/><line class="cls-9" x1="178.5" y1="94.51" x2="197.35" y2="94.51"/><line class="cls-8" x1="203.64" y1="94.51" x2="208.64" y2="94.51"/><polygon class="cls-10" points="205.67 98.87 221.93 94.51 205.67 90.15 205.67 98.87"/><line class="cls-8" x1="268.93" y1="129.51" x2="268.93" y2="134.51"/><line class="cls-11" x1="268.93" y1="143.05" x2="268.93" y2="172.95"/><line class="cls-8" x1="268.93" y1="177.22" x2="268.93" y2="182.22"/><polygon class="cls-10" points="264.57 179.25 268.93 195.51 273.29 179.25 264.57 179.25"/><line class="cls-8" x1="312.93" y1="237.51" x2="317.93" y2="237.51"/><line class="cls-12" x1="327.45" y1="237.51" x2="398.88" y2="237.51"/><line class="cls-8" x1="403.64" y1="237.51" x2="408.64" y2="237.51"/><polygon class="cls-10" points="405.67 241.87 421.93 237.51 405.67 233.15 405.67 241.87"/><line class="cls-8" x1="365.93" y1="93.51" x2="360.93" y2="93.51"/><line class="cls-13" x1="349.02" y1="93.51" x2="331.17" y2="93.51"/><line class="cls-8" x1="325.22" y1="93.51" x2="320.22" y2="93.51"/><polygon class="cls-10" points="323.19 89.15 306.93 93.5 323.19 97.87 323.19 89.15"/><line class="cls-8" x1="513.56" y1="129.57" x2="511.35" y2="134.05"/><line class="cls-14" x1="507.48" y1="141.86" x2="493.96" y2="169.21"/><line class="cls-8" x1="492.03" y1="173.11" x2="489.82" y2="177.6"/><polygon class="cls-10" points="487.23 173 483.93 189.51 495.04 176.86 487.23 173"/><line class="cls-15" x1="413.93" y1="125.51" x2="452.11" y2="184.25"/><rect class="cls-16" x="442.36" y="182.75" width="19.5" height="3" transform="translate(-27.37 276.17) rotate(-33.03)"/></g><g id="Text"><text class="cls-17" transform="translate(52.72 178.58)">Sympathetic <tspan x="32.21" y="18">tone</tspan></text><text class="cls-18" transform="translate(252.55 241.34)">A<tspan class="cls-19" x="10.89" y="0">T2</tspan></text><text class="cls-20" transform="translate(245.59 98.76)">Renin</text><text class="cls-20" transform="translate(389.55 98.76)">[Na+]</text><text class="cls-20" transform="translate(512.36 100.76)">[K+]</text><text class="cls-20" transform="translate(452.26 241.34)">Ald</text></g></svg>