<?xml version="1.0" encoding="utf-8"?>
<svg viewBox="8.830674171447754 150.6240692138672 109.88264465332031 97.66592407226562" width="109.88264465332031" height="97.66592407226562" xmlns="http://www.w3.org/2000/svg">
  <defs>
    <style>.cls-1,.cls-15{fill:#eccbbd;}.cls-1,.cls-10,.cls-11,.cls-12,.cls-13,.cls-14,.cls-17,.cls-18,.cls-19,.cls-20,.cls-21,.cls-22,.cls-23,.cls-24,.cls-25,.cls-28,.cls-29,.cls-3,.cls-30,.cls-31,.cls-32,.cls-6,.cls-7,.cls-8{stroke:#ae5536;}.cls-1,.cls-10,.cls-11,.cls-12,.cls-13,.cls-14,.cls-17,.cls-18,.cls-20,.cls-21,.cls-22,.cls-23,.cls-24,.cls-25,.cls-28,.cls-29,.cls-3,.cls-30,.cls-31,.cls-32,.cls-33,.cls-6,.cls-7,.cls-8{stroke-linecap:round;}.cls-1,.cls-10,.cls-11,.cls-12,.cls-13,.cls-14,.cls-17,.cls-18,.cls-19,.cls-20,.cls-21,.cls-22,.cls-23,.cls-24,.cls-25,.cls-28,.cls-29,.cls-3,.cls-30,.cls-31,.cls-32,.cls-33,.cls-6,.cls-8{stroke-linejoin:round;}.cls-1,.cls-10,.cls-12,.cls-13,.cls-14,.cls-18,.cls-19,.cls-20,.cls-25,.cls-3,.cls-30,.cls-31,.cls-32,.cls-6,.cls-8{stroke-width:2px;}.cls-11,.cls-18,.cls-2,.cls-7{fill:none;}.cls-17,.cls-3,.cls-9{fill:#fff;}.cls-4{fill:#e5f3ea;}.cls-5{fill:#faf1ce;}.cls-6{fill:#f0f7f9;}.cls-7{stroke-miterlimit:10;}.cls-8{fill:#f6e6a7;}.cls-10{fill:#e3ecc1;}.cls-12{fill:#d5a696;}.cls-13{fill:#f4e297;}.cls-14{fill:#f8eec2;}.cls-16{clip-path:url(#clip-path);}.cls-19{fill:#f3e0d8;}.cls-20{fill:#e0eef2;}.cls-21{fill:#d4e9ed;}.cls-22{fill:#efd4c9;}.cls-23{fill:#e0eabb;}.cls-24{fill:#f8ecba;}.cls-25{fill:#f1d9d0;}.cls-26{clip-path:url(#clip-path-2);}.cls-27{clip-path:url(#clip-path-3);}.cls-28{fill:#cae3e9;}.cls-29{fill:#ebf4f7;}.cls-30{fill:#ebd4cd;}.cls-31{fill:#b5d8e1;}.cls-32{fill:#e3b4a1;}.cls-33{fill:#b6d391;stroke:#5e7658;}.cls-34,.cls-35{font-size:14px;font-family:Arial-BoldMT, Arial;font-weight:700;}.cls-35{fill:#5e7658;}</style>
  </defs>
  <circle class="cls-5" cx="70.712" cy="203.29" r="45" transform="matrix(0.972224, 0, 0, 0.976903, 1.704954, 5.071455)"/>
  <path class="cls-6" d="M 45.437 208.296 C 45.122 208.499 44.843 208.753 44.611 209.049 C 44.056 209.789 43.78 210.702 43.833 211.628 C 43.95 214.558 43.659 224.62 34.218 225.226 C 27.831 225.636 25.361 221.074 24.409 217.821 C 23.925 216.108 22.406 214.896 20.636 214.813 C 16.796 214.637 10.768 213.23 10.33 206.196 C 9.242 188.612 30.65 196.212 30.65 196.212 C 30.65 196.212 31.214 196.642 33.508 195.402 L 82.013 169.181 C 82.863 168.573 83.457 167.668 83.675 166.642 C 83.675 166.642 82.177 152.965 93.242 152.242 C 103.071 151.616 103.635 162.773 103.635 162.773 C 103.635 162.773 116.439 160.907 117.081 171.281 C 118.17 188.866 96.761 181.266 96.761 181.266 C 96.761 181.266 96.197 180.836 93.903 182.076 Z"/>
  <text class="cls-34" style="white-space: pre; font-size: 14px;" x="63.402" y="220.37" transform="matrix(0.972224, 0, 0, 0.976903, 1.704954, 5.071455)">Bone</text>
  <path class="cls-7" d="M 107.848 169.391 C 107.848 169.391 103.472 168.814 103.959 161.458"/>
  <path class="cls-7" d="M 20.223 207.291 C 20.223 207.291 24.598 207.868 24.112 215.224"/>
</svg>