<?xml version="1.0" encoding="utf-8"?>
<svg viewBox="0 0 500 500" xmlns="http://www.w3.org/2000/svg" xmlns:xlink="http://www.w3.org/1999/xlink">
  <defs>
    <symbol id="Pfeil" data-name="Pfeil" viewBox="0 0 70 77.95">
      <path class="cls-15" d="M55.62,26.92a71.33,71.33,0,0,0-18.74,4.83A58.86,58.86,0,0,0,20.29,42.26a63.85,63.85,0,0,0-12.74,16A70.8,70.8,0,0,0,3,67.72,61.48,61.48,0,0,0,0,78,61.64,61.64,0,0,1,.92,67.14a74.64,74.64,0,0,1,2.6-10.69A70.48,70.48,0,0,1,13.72,36.4,69.79,69.79,0,0,1,30.43,20.24,86.18,86.18,0,0,1,51.59,9.79Z" style="fill: rgb(153, 153, 153);"/>
      <polygon class="cls-15" points="54.06 37.81 48.15 0 70 15.95 54.06 37.81" style="fill: rgb(153, 153, 153);"/>
    </symbol>
  </defs>
  <use width="70" height="77.95" transform="matrix(-1.80139, -2.510596, 2.510596, -1.80139, 183.644775, 348.787354)" xlink:href="#Pfeil"/>
</svg>