<?xml version="1.0" encoding="utf-8"?>
<svg viewBox="0 0 500 500" xmlns="http://www.w3.org/2000/svg">
  <g id="Bild" transform="matrix(1, 0, 0, 1, 58.412811, 69.398376)">
    <g id="Ebene_8" data-name="Ebene 8">
      <g id="Plasma_2" data-name="Plasma 2">
        <path class="cls-15" d="M220.06,131.3s5.67-1.33,10-2.66,7.24-2.21,7.24-2.21a8.91,8.91,0,0,1,4.76,6.54c1,5-1,5.67-1,5.67a25.7,25.7,0,0,1-11.33,4c-6.67.66-8.67-4-8.67-4Z" style="fill: rgb(244, 164, 143); stroke: rgb(195, 74, 41); stroke-linecap: round; stroke-linejoin: round; stroke-width: 2px;"/>
        <path class="cls-15" d="M234.55,157.31c-1-.46.06-2.71,8.38-2.13a28.72,28.72,0,0,1,11.47,3.12,13.73,13.73,0,0,1,0,7,10.15,10.15,0,0,1-4,5.38l-16.7-4Z" style="fill: rgb(244, 164, 143); stroke: rgb(195, 74, 41); stroke-linecap: round; stroke-linejoin: round; stroke-width: 2px;"/>
        <path class="cls-15" d="M91.06,151.64s-9.66-.34-16.33-1.34a44.41,44.41,0,0,1-11-3s-3.17.51-4.33,3c-2.34,5,.33,8,.33,8l13,7.34-17.33,11a6.72,6.72,0,0,0,1,6.33c2.33,3.33,4.66,3,4.66,3l17-7.67Z" style="fill: rgb(244, 164, 143); stroke: rgb(195, 74, 41); stroke-linecap: round; stroke-linejoin: round; stroke-width: 2px;"/>
        <path class="cls-15" d="M134.4,148.64S123.73,141,121.73,123.3s2.45-29.49,10.45-38.49S147.06,73.3,147.06,73.3a38.61,38.61,0,0,0-1.66-11.66c-.88-3-2.34-7-2.34-7a10,10,0,0,1,6.37-5.91c4.66-1.43,7.3.24,7.3.24a22.42,22.42,0,0,1,4,9.33,36.06,36.06,0,0,1,.67,9.34s5-3.44,6.66-7.67a72.06,72.06,0,0,0,3-11,11.44,11.44,0,0,1,5.78-.58c4.72,1,4.56,3.58,4.56,3.58v2.67a7,7,0,0,1,6.33-.67c3.67,1.33,3.67,3.33,3.67,3.33l-2.67,15a28.37,28.37,0,0,1,13.45,16c4,11.67,2.87,19.5,2.87,19.5L189.4,124.64l-8.67,12.66L161.06,141l-8.66,6-7,7.33Z" style="fill: rgb(244, 164, 143); stroke: rgb(195, 74, 41); stroke-linecap: round; stroke-linejoin: round; stroke-width: 2px;"/>
        <path class="cls-16" d="M143.4,154.64s-7-10.67-25-12c-15.3-1.14-33.32,4.6-43,28-13.67,33,8.66,58,8.66,58S78.73,250.3,94.4,271c28.21,37.22,117.33,64,154.33,49.67C283.83,307,261,181.39,238.4,177.3A47.26,47.26,0,0,0,239.73,159c-2-18-15-35.33-44.67-31l-18,.67-11.33,16Z" style="fill: rgb(244, 222, 216); stroke: rgb(195, 74, 41); stroke-miterlimit: 10; stroke-width: 2px;"/>
        <path class="cls-17" d="M249.06,261.3c-.29,18.38-10,34-24,29.67S191.4,240.64,186.4,229.3s-10.67-9.33-13.34-16.66c-1.06-2.92-.18-9.92,1.27-17.33,2.14-2.4,7.47-1.3,10.93,1.5,4,3.21,8.83,8.43,9.67,8.33,1.75-.21.29-6.62-8.63-14.08-1.64-1.38-6.77-4.49-8.65-6.73-1.22-2.77-.66-6.62-.22-8.35a30.12,30.12,0,0,0,1-4.34l1.3-11.34L184,137.89a42.81,42.81,0,0,1,28-2.75c11.33,2.66,18.69,11.75,20,18.5a47,47,0,0,1-1.59,22.58h0c-2.63,4.54-8.5,12-10.32,14.25-4.8,6-4.86,13-2.43,12.48,1.46-.3,2.43-6.48,10.55-12.94,3.42-2.71,7.75-2.71,8.35-2.15a54.12,54.12,0,0,1,7.7,16.52C248.26,219.26,249.4,240.3,249.06,261.3Z" style="fill: rgb(233, 188, 176); stroke: rgb(195, 74, 41); stroke-linecap: round; stroke-linejoin: round; stroke-width: 1.25px;"/>
        <path class="cls-17" d="M200.4,307c-8.4.54-67.34-15.33-90.67-41-14.75-16.23-13.5-37.58-13.5-37.58,3-1.91,5-4.67,8.5-2.46s7.53,6.88,7.53,3.55S108.07,222,101.9,220s-10.84,3.8-17.24-3.45c-.11-.13-4.73-5.08-6.18-18.67-1.67-15.61,2.75-27,9.25-35.5,8.55-11.18,24.08-18.08,38.25-12,12.25,5.25,7.75,18.5,7.75,18.5s-1.44,2.75-4.93,17.09-2.87,23.5-2.87,23.5-1.49,14.66,4.66,13.66c.58-.09-2.74-4.61.71-14.87,1.23-3.64,1.53-13.05,3.43-18.79a132.74,132.74,0,0,1,9.75-22.59c3.5-11.25,13.12-13.13,19.5-11,14.25,4.75,9,21,9,21A405.18,405.18,0,0,0,164.73,218c-1.92,13.2,11.33,46.33,24.33,66S210.73,306.3,200.4,307Z" style="fill: rgb(233, 188, 176); stroke: rgb(195, 74, 41); stroke-linecap: round; stroke-linejoin: round; stroke-width: 1.25px;"/>
        <path class="cls-18" d="M139.09,163.7s.58-9.33,7.91-21.67,12.67-17.66,12.67-17.66-3.15-5.37-3.08-5.52-.91-6.42,4.34-10.54c5.6-4.4,9.75-2.5,9.75-2.5l5.5,4.5A144.87,144.87,0,0,1,203,101.37c14-3,31.67-1.34,31.67-1.34l-1,17.67s-13,.33-20.67,2.67-16.27,5.27-22.33,14.66C181.53,149.19,177.59,174,177.59,174s3.75-16.25-12.25-21.5C144.82,145.72,139.09,163.7,139.09,163.7Z" style="fill: rgb(177, 226, 232); stroke: rgb(195, 74, 41); stroke-linecap: round; stroke-linejoin: round; stroke-width: 2px;"/>
        <path class="cls-19" d="M233.72,118.46c2.82.17,5.35-3.92,5.66-9.14s-1.73-9.58-4.55-9.75-5.35,3.93-5.66,9.15S230.9,118.3,233.72,118.46Z" style="fill: rgb(219, 242, 245); stroke: rgb(195, 74, 41); stroke-linecap: round; stroke-linejoin: round;"/>
        <path class="cls-20" d="M231.42,108.85a12.29,12.29,0,0,1,1.55-5.54c.66-1.06,1.34-1.51,1.73-1.49.92.05,1.53,1.6,1.79,2.3a12.44,12.44,0,0,1,.64,5.07,12.29,12.29,0,0,1-1.55,5.54c-.66,1.06-1.34,1.51-1.73,1.49a.88.88,0,0,1-.29-.09C232.56,115.59,231.18,112.91,231.42,108.85Z" style="fill: rgb(85, 191, 205); stroke: rgb(195, 74, 41); stroke-linecap: round; stroke-linejoin: round;"/>
      </g>
    </g>
    <circle class="cls-21" cx="134.88" cy="74.29" r="8.05" style="fill: rgb(241, 172, 106); stroke: rgb(195, 74, 41); stroke-linecap: round; stroke-linejoin: round; stroke-width: 2px;"/>
    <circle class="cls-21" cx="132.69" cy="85.19" r="8.05" style="fill: rgb(241, 172, 106); stroke: rgb(195, 74, 41); stroke-linecap: round; stroke-linejoin: round; stroke-width: 2px;"/>
  </g>
  <g id="Text" transform="matrix(1, 0, 0, 1, -80.208814, -140.8889)">
    <text class="cls-49" style="white-space: pre; font-family: ArialMT, Arial; font-size: 16.8px; line-height: 26.88px; width: 12.125px; perspective-origin: 6.0625px 0px; fill: none; stroke: rgb(255, 255, 255); stroke-width: 2px;" x="303.356" y="283.72" transform="matrix(1.235103, 0, 0, 1.309615, -141.639557, 32.827362)">R</text>
    <text class="cls-50" style="white-space: pre; font-family: ArialMT, Arial; font-size: 9.7px; line-height: 26.88px; width: 68.125px; perspective-origin: 34.0625px 0px; fill: none; stroke: rgb(255, 255, 255); stroke-width: 2px;" x="315.486" y="289.32" transform="matrix(1.235103, 0, 0, 1.309615, -141.639557, 32.827362)">AO valve</text>
    <text class="cls-38" style="white-space: pre; font-family: ArialMT, Arial; font-size: 16.8px; line-height: 26.88px; width: 12.125px; perspective-origin: 6.0625px 0px;" x="303.356" y="283.72" transform="matrix(1.235103, 0, 0, 1.309615, -141.639557, 32.827362)">R</text>
    <text class="cls-48" style="white-space: pre; font-family: ArialMT, Arial; font-size: 9.7px; line-height: 26.88px; width: 68.125px; perspective-origin: 34.0625px 0px;" x="315.486" y="289.32" transform="matrix(1.235103, 0, 0, 1.309615, -141.639557, 32.827362)">AO valve</text>
  </g>
</svg>