<svg 
	xmlns="http://www.w3.org/2000/svg" 
	xmlns:xlink="http://www.w3.org/1999/xlink" 
	viewBox="0 0 84.066002 115.53793">
<defs>
	<style>
		.cls-1{fill:#fdeabf;}
		.cls-2{font-size:14px;font-family:Arial-BoldMT, Arial;font-weight:700;}
		.cls-3,.cls-4,.cls-5{stroke:#c34a29;}
		.cls-3,.cls-4,.cls-5{stroke-linecap:round;}
		.cls-3,.cls-4,.cls-5{stroke-linejoin:round;}
		.cls-3,.cls-4,.cls-5{stroke-width:2px;}
		.cls-3{fill:#df847c;}
		.cls-4{fill:#89d3dd;}
		.cls-5{fill:#f4aa95;}
	</style>
	<symbol 
		id="Heart" 
		data-name="Heart" 
		viewBox="0 0 90 123.69">
	<circle 
		class="cls-1" 
		cx="45" 
		cy="78.7" 
		r="45"/>
	<text 
		class="cls-2" 
		transform="translate(28 114.02)">Heart</text>
	<path class="cls-3" d="M39,20.87l-5.15-4a3.25,3.25,0,0,1-.41-.42,2.64,2.64,0,0,1,3.68-3.75L43,17.31C41.58,18.65,40.1,19.92,39,20.87Z"/>
	<path class="cls-3" d="M46.79,13.07a13.46,13.46,0,0,1-1.45,1.84l-3.9-6.29A2.81,2.81,0,0,1,42,5a1.35,1.35,0,0,1,.27-.2,2.82,2.82,0,0,1,3.77.61L49,9.06C48.14,10.68,47.35,12.16,46.79,13.07Z"/>
	<path class="cls-3" d="M61.63,25.09a16.25,16.25,0,0,0-4.86,2A12.69,12.69,0,0,0,54.4,25.2L56.81,19Z"/>
	<path class="cls-4" d="M64.53,12,64,13.66a2.73,2.73,0,0,1-2.48,1.93l-3.46.17L56.81,19,54.4,25.2a19.47,19.47,0,0,0-3.8-1.87A24.81,24.81,0,0,0,40.46,22a32.53,32.53,0,0,0-3.33.39s.76-.6,1.85-1.54,2.6-2.22,4-3.55c.86-.82,1.7-1.66,2.38-2.41a12.37,12.37,0,0,0,1.45-1.85c.55-.9,1.35-2.38,2.18-4,1.13-2.12,2.32-4.51,3.17-6.25A3.27,3.27,0,0,1,56,1.14l1,.32A3.23,3.23,0,0,1,59.3,4.77l-.15,2.61L62.73,8.5A2.8,2.8,0,0,1,64.53,12Z"/>
	<path class="cls-5" d="M26.59,97.55C.05,82.56,3.67,31.48,33.26,23.28a37.72,37.72,0,0,1,3.87-.88c1.17-.18,2.27-.31,3.32-.37a24.26,24.26,0,0,1,10.14,1.31A19.34,19.34,0,0,1,54.4,25.2a12.69,12.69,0,0,1,2.37,1.88,16.25,16.25,0,0,1,4.86-2c4.3-1,10.69-.64,15.69,7.62a13.75,13.75,0,0,1,.9,12.76L73,43.35s-1.39-4.4-4.22-5.13-5,2.25-5,2.25c5.44,9.61,3.68,18.11,3.68,18.11C68,63.16,40.31,105.29,26.59,97.55Z"/>
	<path class="cls-3" d="M72.59,54l0,0-5.08,4.64s1.76-8.5-3.68-18.11c0,0,2.14-3,5-2.25S73,43.35,73,43.35l5.25,2.12,3.57,1.43A3.06,3.06,0,0,1,83.49,51l-1,2.5A3.08,3.08,0,0,1,79,55.29Z"/>
	</symbol>
</defs>
<g 
	id="Group_Resized_W84px" 
	transform="matrix(0.77838889,0,0,0.77838889,0,-0.01079091)">
	<g 
		id="Group_OriginalSize">
		<use 
			width="90" 
			height="123.7" 
			transform="scale(1.2)" 
			xlink:href="#Heart"/>
	</g>
</g>
</svg>