<svg xmlns="http://www.w3.org/2000/svg" viewBox="-200 0 1000 1000"><defs><style>.cls-1{fill:#e5e5e5;}.cls-2{fill:#fff;}</style></defs><title>NaPO4_170927_Background human</title><g id="Ebene_13" data-name="Ebene 13"><rect class="cls-1" x="-200" y="0" width="1000" height="1000"/><path class="cls-2" d="M527.51,806.36c-3.95,11.9-3.12,35.66-7.22,40.58s-19.85,25.6-24.59,25c-6.42-.82-1.74-1.54-3.69-2.06,0,0-5.28,2.87-7,2.46-4.92-1.22-1.82-4-3.69-6.55,0,0-4.92-.82-4.92-5.76,0-3.59,5.33-8.18,5.33-8.18s-1.26-3.1,6.56-8.6c2.87-2,8.62-11.17,8.62-11.17l.39-19.58L491.06,799l-15-6.15s-5.43,20.25-9.67,28.82c-3.61,7.29-11.13,7.64-11.94-.57s2.36-17,3.58-26.18c2-15,1.63-18.46,7.37-34s9-21.31,9-21.31-17.21-50-25.41-81.15-14-48.34-14-77.85-5.69-89.34-5.69-89.34c-3.69,32.38-18.45,59.16-20.9,73-2.6,14.61,4.5,30.33,4.5,50.81s6.56,31.15,10.66,47.54,27.86,95.88,22.95,180.29c-4.34,74.41-18.86,130.34-25.61,157.16H319.38c-.52-28.29-.76-56.17-1.52-70.69-1.64-31.14-9-89.74-9-89.74l-4.91-35.24h-7.86l-4.91,35.24s-7.38,58.6-9,89.74c-.76,14.52-1,42.4-1.52,70.69H179.08c-6.75-26.82-21.27-82.75-25.6-157.16-4.93-84.41,18.85-163.91,22.94-180.29s10.66-27.06,10.66-47.54,7.1-36.2,4.51-50.81c-2.46-13.79-17.22-40.57-20.91-73,0,0-5.74,59.84-5.68,89.34s-5.79,46.72-14,77.85-25.41,81.15-25.41,81.15,3.27,5.73,9,21.31,5.39,19,7.38,34c1.19,9.16,4.39,18,3.57,26.18s-8.34,7.86-11.94.57c-4.24-8.57-9.67-28.82-9.67-28.82l-15,6.15-6.29,13.52.39,19.58s5.75,9.13,8.63,11.17c7.81,5.5,6.55,8.6,6.55,8.6s5.33,4.59,5.33,8.18c0,4.94-4.91,5.76-4.91,5.76-1.88,2.52,1.22,5.33-3.69,6.55-1.69.41-7-2.46-7-2.46-1.95.52,2.73,1.24-3.69,2.06-4.74.59-20.48-20.09-24.58-25s-3.28-28.68-7.23-40.58c-1.69-5.09,5.17-41.78,12.56-63.1,5.88-17,1.22-35.65-.41-66.78s1.63-77.85,6.55-93.44,13.94-39.32,13.94-39.32c0-5.46-.34-22.41-1.65-47.53s7.11-51.91,8.2-57.37-4.76-79,4.85-110.42c6.49-21.24,22.95-30.72,39.1-35.36,16.36-6.35,32.45-9.29,44.16-14.86,15.2-7.25,20.3-11.87,32.61-19.84s23.74-12.48,23.74-19.71a71.09,71.09,0,0,1,.68-8.38c-.48-6.5-1.2-12.64-1.63-16-2.88-6.67-6.65-13.82-9.07-21.71-2.9-9.4-1.93-12.06-7.72-12.06s-4.58-14.66-10.14-20.75c-7.92-8.69-8.34-13.65-5.92-19.44,2.51-6.05,8.57-1.81,8.57-1.81L227.3,112.4C226.86,99,231.49,76,249.5,55c26.06-30.42,77.21-27.5,101,0,18.1,20.91,22.64,44,22.21,57.42l-3.63,26.05s6.07-4.24,8.59,1.81c2.42,5.79,2,10.75-5.93,19.44-5.56,6.09-4.34,20.75-10.13,20.75s-4.82,2.66-7.72,12.06c-2.43,7.88-6.19,15-9.07,21.71-.43,3.37-1.15,9.5-1.63,16a71.81,71.81,0,0,1,.69,8.41c0,7.23,11.42,11.75,23.73,19.71s17.41,12.59,32.6,19.84c11.72,5.57,27.81,8.51,44.18,14.86,16.14,4.65,32.61,14.13,39.09,35.36,9.6,31.43,3.75,104.94,4.85,110.42s9.5,32.22,8.19,57.37-1.64,42.07-1.64,47.53c0,0,9,23.76,13.94,39.32s8.19,62.29,6.55,93.44-6.29,49.79-.4,66.78C522.33,764.58,529.21,801.27,527.51,806.36Z"/></g></svg>