<?xml version="1.0" encoding="utf-8"?>
<svg viewBox="0 0 600 1000" xmlns="http://www.w3.org/2000/svg" xmlns:xlink="http://www.w3.org/1999/xlink">
  <defs>
    <style>.cls-1{fill:#fdeabf;}.cls-2{font-size:14px;}.cls-2,.cls-33{font-family:Arial-BoldMT, Arial;font-weight:700;}.cls-3,.cls-7{fill:#f4aa95;}.cls-10,.cls-11,.cls-12,.cls-13,.cls-14,.cls-16,.cls-18,.cls-19,.cls-20,.cls-3,.cls-4,.cls-5,.cls-6,.cls-7,.cls-8,.cls-9{stroke:#c34a29;}.cls-10,.cls-11,.cls-12,.cls-13,.cls-14,.cls-16,.cls-18,.cls-19,.cls-20,.cls-24,.cls-3,.cls-4,.cls-5,.cls-6,.cls-7,.cls-8,.cls-9{stroke-linecap:round;stroke-linejoin:round;}.cls-10,.cls-11,.cls-12,.cls-13,.cls-14,.cls-16,.cls-18,.cls-19,.cls-3,.cls-4,.cls-5,.cls-8{stroke-width:2px;}.cls-4{fill:#f5ab96;}.cls-5{fill:#df847c;}.cls-6{fill:#f9cec2;}.cls-8{fill:#e0f4f6;}.cls-25,.cls-27,.cls-9{fill:none;}.cls-10{fill:#89d3dd;}.cls-11{fill:#f0d2ca;}.cls-12{fill:#8fd5de;}.cls-13{fill:#a1dce4;}.cls-14{fill:#f1d3cc;}.cls-15{fill:#999;}.cls-16{fill:#fcd98c;}.cls-17{fill:#fff;}.cls-18{fill:#afe1e8;}.cls-19{fill:#72cad6;}.cls-20{fill:#ceedf1;}.cls-21{letter-spacing:-0.06em;}.cls-22{fill:#e5e5e5;}.cls-23{fill:#e1e8af;}.cls-24{fill:#b5c73b;stroke:#798728;}.cls-25{stroke:#1a4554;}.cls-25,.cls-27{stroke-miterlimit:10;stroke-width:2.5px;}.cls-26{fill:#1a4554;}.cls-27{stroke:#1c88c0;}.cls-28,.cls-30{fill:#1c88c0;}.cls-29,.cls-30,.cls-33{font-size:16.8px;}.cls-29,.cls-30{font-family:ArialMT, Arial;}.cls-31{letter-spacing:-0.04em;}.cls-32{letter-spacing:0em;}.cls-33{fill:#798728;}</style>
    <symbol id="Brain" data-name="Brain" viewBox="0 0 90 111.5">
      <g id="Kidney-3" data-name="Kidney">
        <circle class="cls-1" cx="45" cy="66.5" r="45"/>
        <text class="cls-2" transform="translate(27.5 99.12)" style="white-space: pre;">Brain</text>
      </g>
      <path class="cls-8" d="M45,78.41V2.64A18.19,18.19,0,0,0,33.44,1.52c-5.57,1.54-9.69,7.71-9.89,11.15,0,0-7.94,0-12.43,9.4a20.09,20.09,0,0,0,1,19s-5.45,8.17-1.67,17.69c4.08,10.29,11.7,11,11.7,11A15.58,15.58,0,0,0,30,80.64C36.92,84.54,43.89,80.92,45,78.41Z"/>
      <path class="cls-9" d="M35.11,18.52s-5.31-6-12.13-5.81"/>
      <path class="cls-9" d="M20.49,26.18s-.28,6.54,5,9.47,7.81,2.79,7.81,2.79-2.66,8.49,1.8,12.39"/>
      <path class="cls-9" d="M26.19,54.87s4.18,14.21-4,14.91"/>
      <path class="cls-8" d="M45,78.41V2.64A18.12,18.12,0,0,1,56.56,1.52c5.57,1.53,9.69,7.7,9.89,11.14,0,0,7.94,0,12.43,9.41a20.05,20.05,0,0,1-1,19s5.45,8.17,1.67,17.69c-4.08,10.29-11.7,11-11.7,11A15.58,15.58,0,0,1,60,80.64C53.08,84.54,46.12,80.91,45,78.41Z"/>
      <path class="cls-9" d="M61.84,58.23s.21,11.54,6,11.54"/>
      <path class="cls-9" d="M56.25,57.26s6.69,3.35,11.17-2.39"/>
      <path class="cls-9" d="M58.49,30.47S63.7,44,76.36,41.33"/>
      <path class="cls-9" d="M56.5,18.52S60,10.27,66.69,12.66"/>
    </symbol>
    <symbol id="Arteries" data-name="Arteries" viewBox="0 0 111.73 107.05">
      <circle class="cls-1" cx="61.66" cy="62.05" r="45"/>
      <text class="cls-2" transform="translate(34.32 91.29)" style="white-space: pre;">Arteries</text>
      <path class="cls-3" d="M42.06,69s24.59-3,43.78-18.67c19.94-16.31,24.89-36,24.89-36S109.81,7.7,101,3.4c-10.12-5-16.48-.67-16.48-.67s-6.44,16-16,23.86c-13.55,11.16-33,12.24-33,12.24Z"/>
      <ellipse class="cls-4" cx="38.78" cy="53.86" rx="8.39" ry="15.52" transform="translate(-9.99 8.85) rotate(-11.54)"/>
      <path class="cls-5" d="M41.6,65.24a1.14,1.14,0,0,1-.45.21c-.62.13-1.84-.44-3.16-2a20.15,20.15,0,0,1-3.81-8.63A20.57,20.57,0,0,1,34,46.42c.26-1.19.88-3.84,2.37-4.14.63-.13,1.84.44,3.16,2a20.16,20.16,0,0,1,3.81,8.62C44.72,59.46,43.11,64.13,41.6,65.24Z"/>
      <path class="cls-6" d="M47,52.19c-1.72-8.4-6.78-14.45-11.32-13.53s-6.83,8.48-5.12,16.88S37.34,70,41.88,69.06,48.71,60.59,47,52.19Zm-5.4,13a1.34,1.34,0,0,1-.45.22c-.62.12-1.84-.45-3.16-2a20.13,20.13,0,0,1-3.81-8.64A20.35,20.35,0,0,1,34,46.43c.25-1.2.88-3.85,2.37-4.16.62-.12,1.84.45,3.16,2a20.14,20.14,0,0,1,3.81,8.63C44.72,59.46,43.11,64.14,41.6,65.24Z"/>
      <ellipse class="cls-7" cx="14.9" cy="47.65" rx="4.04" ry="8.24" transform="translate(-33.82 36.73) rotate(-60)"/>
      <ellipse class="cls-7" cx="7.53" cy="69.88" rx="8.24" ry="4.04" transform="matrix(0.8, -0.6, 0.6, 0.8, -40.43, 18.5)"/>
      <ellipse class="cls-7" cx="32.5" cy="60.97" rx="8.24" ry="4.04" transform="translate(-23.72 20.81) rotate(-26.4)"/>
    </symbol>
    <symbol id="Veins" data-name="Veins" viewBox="0 0 90 100.55">
      <g id="Veins-3" data-name="Veins">
        <circle class="cls-1" cx="45" cy="55.55" r="45"/>
        <path class="cls-18" d="M75.6,69S51,66,31.82,50.32C11.88,34,6.93,14.32,6.93,14.32S7.85,7.7,16.62,3.4c10.12-5,16.49-.67,16.49-.67s6.43,16,16,23.86c13.54,11.16,33,12.24,33,12.24Z"/>
        <ellipse class="cls-4" cx="78.88" cy="53.86" rx="15.52" ry="8.39" transform="translate(10.33 120.38) rotate(-78.46)"/>
        <path class="cls-19" d="M76.06,65.24a1.25,1.25,0,0,0,.46.21c.62.13,1.83-.44,3.15-2a20,20,0,0,0,3.82-8.63,20.57,20.57,0,0,0,.13-8.38c-.25-1.19-.88-3.84-2.37-4.14-.62-.13-1.84.44-3.15,2a20,20,0,0,0-3.82,8.62C73,59.46,74.56,64.13,76.06,65.24Z"/>
        <path class="cls-20" d="M75.78,69.06c4.54.93,9.61-5.12,11.32-13.52s-.57-16-5.11-16.88-9.61,5.13-11.32,13.53S71.24,68.15,75.78,69.06Zm-1.5-16.14a20.26,20.26,0,0,1,3.81-8.63c1.32-1.57,2.54-2.14,3.16-2,1.49.31,2.12,3,2.38,4.16a20.7,20.7,0,0,1-.14,8.37,20.13,20.13,0,0,1-3.82,8.64c-1.31,1.57-2.53,2.14-3.15,2a1.25,1.25,0,0,1-.45-.22C74.56,64.14,73,59.46,74.28,52.92Z"/>
      </g>
      <text class="cls-2" transform="translate(24.92 84.79)" style="white-space: pre;"><tspan class="cls-21">V</tspan><tspan x="8.57" y="0">eins</tspan></text>
    </symbol>
    <symbol id="Kidney-4" data-name="Kidney" viewBox="0 0 90 112.16">
      <circle class="cls-1" cx="45" cy="67.15" r="45"/>
      <path class="cls-11" d="M67.18,43.06c0,29.47-21.82,45.64-38.48,33.38C14.53,66,27.21,52.11,27.21,52.11a15.56,15.56,0,0,1-2.79-5.29,12.87,12.87,0,0,1-.52-2.53c0-.29,0-.6-.06-.92s0-.72,0-1.07a9.59,9.59,0,0,1,.54-2.54,10.44,10.44,0,0,1,3-4.36s-9.28-.25-12.83-10.63C11.56,16.07,16.35.05,35.8,1,56.74,2.11,67.18,28.52,67.18,43.06Z"/>
      <path class="cls-12" d="M23.84,43.37c0,.32,0,.63.06.92h-.14A16.11,16.11,0,0,1,18,43.08a14.9,14.9,0,0,1-8.63-9.93,2.3,2.3,0,0,1,4.49-1,10.36,10.36,0,0,0,10.1,7.58,2.63,2.63,0,0,1,.49.07,9.59,9.59,0,0,0-.54,2.54C23.84,42.65,23.83,43,23.84,43.37Z"/>
      <path class="cls-4" d="M24.42,46.82l-.27.06-5.56.76a5.5,5.5,0,0,0-4.73,5.42V87.3a2.3,2.3,0,0,1-4.6,0V53.06a10.13,10.13,0,0,1,8.69-10h0l5.55-.77h.34c0,.35,0,.71,0,1.07s0,.63.06.92A12.87,12.87,0,0,0,24.42,46.82Z"/>
      <text class="cls-2" transform="translate(22.05 99.77)" style="white-space: pre;">Kidney</text>
    </symbol>
    <symbol id="Urine_2-2" data-name="Urine 2" viewBox="0 0 90 111.92">
      <circle class="cls-1" cx="45" cy="66.92" r="45"/>
      <text class="cls-2" transform="translate(31.79 101.39)" style="white-space: pre;">Urine</text>
      <path class="cls-16" d="M35,36A16.56,16.56,0,0,1,1.84,36C1.84,22.37,18.4,1,18.4,1S35,22.37,35,36Z"/>
      <circle class="cls-17" cx="23.62" cy="39.02" r="4.46"/>
      <path class="cls-16" d="M59.36,31a7.24,7.24,0,1,1-14.47,0c0-6,7.23-15.31,7.23-15.31S59.36,25.06,59.36,31Z"/>
      <circle class="cls-17" cx="54.4" cy="32.33" r="1.95"/>
      <path class="cls-16" d="M54.09,69a11.15,11.15,0,0,1-22.3,0c0-9.2,11.15-23.59,11.15-23.59S54.09,59.79,54.09,69Z"/>
      <circle class="cls-17" cx="46.45" cy="71" r="3.01"/>
    </symbol>
    <symbol id="Heart" data-name="Heart" viewBox="0 0 90 123.69">
      <circle class="cls-1" cx="45" cy="78.7" r="45"/>
      <text class="cls-2" transform="translate(28 114.02)" style="white-space: pre;">Heart</text>
      <path class="cls-5" d="M39,20.87l-5.15-4a3.25,3.25,0,0,1-.41-.42,2.64,2.64,0,0,1,3.68-3.75L43,17.31C41.58,18.65,40.1,19.92,39,20.87Z"/>
      <path class="cls-5" d="M46.79,13.07a13.46,13.46,0,0,1-1.45,1.84l-3.9-6.29A2.81,2.81,0,0,1,42,5a1.35,1.35,0,0,1,.27-.2,2.82,2.82,0,0,1,3.77.61L49,9.06C48.14,10.68,47.35,12.16,46.79,13.07Z"/>
      <path class="cls-5" d="M61.63,25.09a16.25,16.25,0,0,0-4.86,2A12.69,12.69,0,0,0,54.4,25.2L56.81,19Z"/>
      <path class="cls-10" d="M64.53,12,64,13.66a2.73,2.73,0,0,1-2.48,1.93l-3.46.17L56.81,19,54.4,25.2a19.47,19.47,0,0,0-3.8-1.87A24.81,24.81,0,0,0,40.46,22a32.53,32.53,0,0,0-3.33.39s.76-.6,1.85-1.54,2.6-2.22,4-3.55c.86-.82,1.7-1.66,2.38-2.41a12.37,12.37,0,0,0,1.45-1.85c.55-.9,1.35-2.38,2.18-4,1.13-2.12,2.32-4.51,3.17-6.25A3.27,3.27,0,0,1,56,1.14l1,.32A3.23,3.23,0,0,1,59.3,4.77l-.15,2.61L62.73,8.5A2.8,2.8,0,0,1,64.53,12Z"/>
      <path class="cls-3" d="M26.59,97.55C.05,82.56,3.67,31.48,33.26,23.28a37.72,37.72,0,0,1,3.87-.88c1.17-.18,2.27-.31,3.32-.37a24.26,24.26,0,0,1,10.14,1.31A19.34,19.34,0,0,1,54.4,25.2a12.69,12.69,0,0,1,2.37,1.88,16.25,16.25,0,0,1,4.86-2c4.3-1,10.69-.64,15.69,7.62a13.75,13.75,0,0,1,.9,12.76L73,43.35s-1.39-4.4-4.22-5.13-5,2.25-5,2.25c5.44,9.61,3.68,18.11,3.68,18.11C68,63.16,40.31,105.29,26.59,97.55Z"/>
      <path class="cls-5" d="M72.59,54l0,0-5.08,4.64s1.76-8.5-3.68-18.11c0,0,2.14-3,5-2.25S73,43.35,73,43.35l5.25,2.12,3.57,1.43A3.06,3.06,0,0,1,83.49,51l-1,2.5A3.08,3.08,0,0,1,79,55.29Z"/>
    </symbol>
    <symbol id="Lungs" data-name="Lungs" viewBox="0 0 90 113.32">
      <g id="PTH-2" data-name="PTH">
        <circle class="cls-1" cx="45" cy="68.32" r="45"/>
        <text class="cls-2" transform="translate(24.9 103.64)" style="white-space: pre;">Lungs</text>
      </g>
      <path class="cls-13" d="M76.32,39.93a2.22,2.22,0,0,0-3-.69,19.87,19.87,0,0,1-5.54,2.18c-4,.91-7.49.28-10.34-1.86-6-4.46-7.5-9.55-7.87-11.41V4.55a3.55,3.55,0,0,0-7.1,0v23.6c-.38,1.88-1.93,7-7.86,11.41a12.08,12.08,0,0,1-10.35,1.86,19.33,19.33,0,0,1-5.53-2.18A2.22,2.22,0,0,0,16.3,43a23.37,23.37,0,0,0,11.34,3.28,15.62,15.62,0,0,0,9.58-3.16A25.17,25.17,0,0,0,45.86,32h.22a25.13,25.13,0,0,0,8.65,11.09,15.6,15.6,0,0,0,9.57,3.16A23.37,23.37,0,0,0,75.64,43,2.22,2.22,0,0,0,76.32,39.93Z"/>
      <path class="cls-14" d="M39.86,46.58c.21-7,0-35.51-5.56-35.61C26.15,10.83,14.9,22.32,9,38.55,4.35,51.13,1.41,84.73,8.09,86.29s10.58-5.73,14.79-6.53,5.4.44,10.41-3.56S39.66,53.57,39.86,46.58Z"/>
      <path class="cls-14" d="M50.87,46.75c0-7,1.06-35.49,6.66-35.42,8.16.11,19,12,24.48,28.35,4.22,12.72,6.12,46.39-.61,47.75s-10.4-6.06-14.58-7-5.41.27-10.3-3.88S50.86,53.75,50.87,46.75Z"/>
      <path class="cls-9" d="M8.09,86.29S11.27,76,20.72,71,35.79,68.6,39.64,55.6"/>
      <path class="cls-9" d="M19.25,71.92C10.82,67.49,6.61,53.53,6.61,53.53S11.93,49,21.46,48.65c13.3-.44,18.18,1.11,18.18,1.11"/>
      <path class="cls-9" d="M51.38,42.67S52,58,62.24,66.38c7.32,6,10.42,6,10.42,6S75.32,83.89,80.42,87"/>
      <path class="cls-9" d="M72.66,72.37S86.4,66.6,84.18,47.1"/>
    </symbol>
    <symbol id="Pfeil" data-name="Pfeil" viewBox="0 0 70 77.95">
      <path class="cls-15" d="M55.62,26.92a71.33,71.33,0,0,0-18.74,4.83A58.86,58.86,0,0,0,20.29,42.26a63.85,63.85,0,0,0-12.74,16A70.8,70.8,0,0,0,3,67.72,61.48,61.48,0,0,0,0,78,61.64,61.64,0,0,1,.92,67.14a74.64,74.64,0,0,1,2.6-10.69A70.48,70.48,0,0,1,13.72,36.4,69.79,69.79,0,0,1,30.43,20.24,86.18,86.18,0,0,1,51.59,9.79Z"/>
      <polygon class="cls-15" points="54.06 37.81 48.15 0 70 15.95 54.06 37.81"/>
    </symbol>
  </defs>
  <title>Nephron_180725_Zeichenfläche 51</title>
  <g id="Bild">
    <rect class="cls-22" width="600" height="1000"/>
    <path class="cls-17" d="M559.71,889.61c-4.39,13.21-3.46,39.59-8,45s-22,28.42-27.3,27.77c-7.13-.91-1.93-1.71-4.09-2.29,0,0-5.87,3.19-7.73,2.73-5.46-1.35-2-4.47-4.1-7.27,0,0-5.46-.91-5.46-6.4,0-4,5.92-9.08,5.92-9.08s-1.4-3.44,7.28-9.55c3.19-2.26,9.57-12.4,9.57-12.4l.43-21.74-7-15-16.68-6.83s-6,22.49-10.73,32c-4,8.1-12.36,8.48-13.26-.63s2.62-18.9,4-29.07c2.18-16.71,1.81-20.49,8.18-37.76s10-23.66,10-23.66-19.1-55.51-28.21-90.09S457,671.71,457,638.94s-6.32-99.19-6.32-99.19c-4.09,36-20.48,65.68-23.2,81-2.89,16.23,5,33.68,5,56.42s7.28,34.58,11.83,52.78,30.93,106.45,25.48,200.17c-1.48,25.34-4,48.75-7.05,69.89H325c-3.06-33.85-8.05-73.52-8.05-73.52l-5.45-39.13h-8.73l-5.45,39.13s-5,39.67-8.05,73.52H151.48c-3-21.14-5.57-44.55-7-69.89-5.47-93.72,20.93-182,25.47-200.17s11.83-30.05,11.83-52.78,7.89-40.19,5-56.42c-2.73-15.31-19.12-45-23.21-81,0,0-6.38,66.44-6.31,99.19s-6.43,51.87-15.52,86.44-28.21,90.09-28.21,90.09,3.63,6.36,10,23.66,6,21,8.19,37.76c1.33,10.17,4.88,20,4,29.07s-9.26,8.73-13.26.63c-4.71-9.51-10.74-32-10.74-32L95,881.42l-7,15,.43,21.74s6.38,10.14,9.58,12.4c8.67,6.11,7.27,9.55,7.27,9.55s5.92,5.1,5.92,9.08c0,5.49-5.45,6.4-5.45,6.4-2.09,2.8,1.35,5.92-4.1,7.27-1.87.46-7.74-2.73-7.74-2.73-2.16.58,3,1.38-4.09,2.29-5.27.65-22.74-22.31-27.29-27.77s-3.65-31.84-8-45c-1.88-5.66,5.74-46.39,13.94-70.06C75,800.68,69.82,780,68,745.4S69.82,659,75.28,641.66,90.76,598,90.76,598c0-6.07-.38-24.88-1.83-52.77s7.89-57.64,9.1-63.7-5.29-87.7,5.38-122.6c7.21-23.58,25.48-34.1,43.42-39.25,18.16-7.05,36-10.32,49-16.5,16.88-8.05,22.54-13.18,36.21-22s26.36-13.86,26.36-21.88a80.66,80.66,0,0,1,.75-9.31c-.53-7.21-1.33-14-1.81-17.8-3.19-7.4-7.38-15.34-10.07-24.1-3.22-10.44-2.14-13.39-8.57-13.39s-5.08-16.28-11.26-23c-8.79-9.65-9.26-15.15-6.57-21.58,2.79-6.72,9.52-2,9.52-2l-4-28.92c-.49-14.91,4.65-40.45,24.65-63.75,28.93-33.78,85.72-30.54,112.13,0,20.1,23.21,25.14,48.84,24.66,63.75l-4,28.92s6.74-4.71,9.54,2c2.69,6.43,2.21,11.93-6.59,21.58-6.17,6.76-4.81,23-11.24,23s-5.35,2.95-8.57,13.39c-2.7,8.75-6.88,16.69-10.07,24.1-.48,3.75-1.28,10.55-1.81,17.77a81.4,81.4,0,0,1,.76,9.34c0,8,12.68,13,26.35,21.88s19.33,14,36.19,22c13,6.18,30.88,9.45,49.06,16.5,17.91,5.16,36.2,15.68,43.4,39.25,10.65,34.9,4.16,116.52,5.38,122.6s10.55,35.77,9.09,63.7-1.82,46.7-1.82,52.77c0,0,10,26.38,15.48,43.65s9.09,69.16,7.27,103.74-7,55.28-.44,74.15C554,843.22,561.6,884,559.71,889.61Z"/>
  </g>
  <g id="Icons">
    <g id="_Gruppe_" data-name="&lt;Gruppe&gt;">
      <use width="90" height="111.5" transform="matrix(1.2000000476837158, 0, 0, 1.2000000476837158, 252.91000366210938, 43.790000915527344)" xlink:href="#Brain"/>
    </g>
    <use width="90" height="112.15" transform="matrix(1.2, 0, 0, 1.2, 192.856445, 620.323547)" xlink:href="#Kidney-4"/>
    <use width="90" height="111.92" transform="matrix(1.2000000476837158, 0, 0, 1.2000000476837158, 249.39999389648438, 818.6099853515625)" xlink:href="#Urine_2-2"/>
    <use width="90" height="123.7" transform="matrix(1.2, 0, 0, 1.2, 325.361145, 356.107452)" xlink:href="#Heart"/>
    <use width="90" height="113.32" transform="matrix(1.2000000476837158, 0, 0, 1.2000000476837158, 252.91000366210938, 249.44000244140625)" xlink:href="#Lungs"/>
  </g>
</svg>