<svg xmlns="http://www.w3.org/2000/svg" xmlns:xlink="http://www.w3.org/1999/xlink" viewBox="0 0 600 1000"><defs><style>.cls-1{fill:url(#Unbenannter_Verlauf_18);}.cls-2{fill:url(#Unbenannter_Verlauf_14);}.cls-3{fill:#fff;filter:url(#luminosity-invert-noclip);}.cls-4{fill:#fdeabf;}.cls-5{font-size:14px;}.cls-38,.cls-41,.cls-43,.cls-5{font-family:Arial-BoldMT, Arial;font-weight:700;}.cls-6{fill:#e0f4f6;}.cls-14,.cls-15,.cls-17,.cls-6,.cls-7,.cls-8,.cls-9{stroke:#c34a29;}.cls-10,.cls-11,.cls-14,.cls-15,.cls-18,.cls-20,.cls-25,.cls-26,.cls-27,.cls-28,.cls-29,.cls-30,.cls-31,.cls-6,.cls-7{stroke-linecap:round;}.cls-10,.cls-11,.cls-14,.cls-15,.cls-20,.cls-25,.cls-26,.cls-27,.cls-28,.cls-29,.cls-30,.cls-31,.cls-6,.cls-7{stroke-linejoin:round;}.cls-15,.cls-34,.cls-6,.cls-8,.cls-9{stroke-width:2px;}.cls-10,.cls-11,.cls-17,.cls-18,.cls-21,.cls-23,.cls-25,.cls-26,.cls-27,.cls-28,.cls-29,.cls-30,.cls-31,.cls-33,.cls-34,.cls-7{fill:none;}.cls-8{fill:#fcd98c;}.cls-17,.cls-18,.cls-21,.cls-23,.cls-33,.cls-34,.cls-8,.cls-9{stroke-miterlimit:10;}.cls-9{fill:#f8aa00;}.cls-10,.cls-11,.cls-25,.cls-26,.cls-27,.cls-28,.cls-29,.cls-30{stroke:#1c8843;}.cls-10,.cls-11{stroke-width:3.2px;}.cls-11{stroke-dasharray:12.26 12.26;}.cls-12,.cls-37{fill:#1c8843;}.cls-13{mask:url(#mask);}.cls-14{fill:#f7e7e3;stroke-width:0.5px;}.cls-15{fill:#f7c1b2;}.cls-16{mask:url(#mask-2);}.cls-17{stroke-width:12px;}.cls-18{stroke:#fcd98c;stroke-width:8px;}.cls-19{fill:#e1e8af;}.cls-20{fill:#b5c73b;stroke:#798728;}.cls-21,.cls-34{stroke:#1a4554;}.cls-21,.cls-23{stroke-width:2.5px;}.cls-22,.cls-38{fill:#1a4554;}.cls-23{stroke:#1c88c0;}.cls-24{fill:#1c88c0;}.cls-25,.cls-26,.cls-27,.cls-28,.cls-29,.cls-30,.cls-31{stroke-width:3px;}.cls-26{stroke-dasharray:5.43 5.43;}.cls-27{stroke-dasharray:10.53 10.53;}.cls-28{stroke-dasharray:10.32 10.32;}.cls-29{stroke-dasharray:9.87 9.87;}.cls-30{stroke-dasharray:11.22 11.22;}.cls-31{stroke:#ff4c00;stroke-dasharray:10 10;}.cls-32{fill:#ff4c00;}.cls-33{stroke:#fff;stroke-width:6px;}.cls-35,.cls-36,.cls-37,.cls-39,.cls-41,.cls-43{font-size:16.8px;}.cls-35,.cls-36,.cls-37,.cls-39{font-family:ArialMT, Arial;}.cls-36{letter-spacing:0em;}.cls-38{font-size:19px;}.cls-39{letter-spacing:-0.04em;}.cls-40{letter-spacing:0em;}.cls-41,.cls-43{fill:#798728;}.cls-41{letter-spacing:-0.07em;}.cls-42{letter-spacing:0em;}.cls-44{letter-spacing:-0.02em;}.cls-45{filter:url(#luminosity-noclip);}</style><linearGradient id="Unbenannter_Verlauf_18" x1="-992.16" y1="-3022.13" x2="-959.86" y2="-3022.13" gradientTransform="translate(1164.63 3193.55) scale(0.96 1)" gradientUnits="userSpaceOnUse"><stop offset="0.59"/><stop offset="1" stop-color="#fff"/></linearGradient><linearGradient id="Unbenannter_Verlauf_14" x1="3419.18" y1="55.03" x2="3451.47" y2="55.03" gradientTransform="translate(-3191.23 116.93) scale(0.96 1)" gradientUnits="userSpaceOnUse"><stop offset="0.59"/><stop offset="1" stop-color="#fff"/></linearGradient><filter id="luminosity-noclip" x="97.18" y="151.63" width="143.8" height="77.98" filterUnits="userSpaceOnUse" color-interpolation-filters="sRGB"><feFlood flood-color="#fff" result="bg"/><feBlend in="SourceGraphic" in2="bg"/></filter><mask id="mask" x="97.18" y="151.63" width="143.8" height="77.98" maskUnits="userSpaceOnUse"><g class="cls-45"><rect class="cls-1" x="209.14" y="155.26" width="31.1" height="32.29" transform="translate(457.15 332.12) rotate(177.32)"/><rect class="cls-2" x="101.58" y="155.81" width="31.1" height="32.29" transform="matrix(0.95, 0.32, -0.32, 0.95, 62.14, -28.7)"/></g></mask><filter id="luminosity-invert-noclip" x="152.02" y="174.72" width="47.27" height="54.62" filterUnits="userSpaceOnUse" color-interpolation-filters="sRGB"><feColorMatrix values="-1 0 0 0 1 0 -1 0 0 1 0 0 -1 0 1 0 0 0 1 0" result="invert"/><feFlood flood-color="#fff" result="bg"/><feBlend in="invert" in2="bg"/></filter><mask id="mask-2" x="152.02" y="174.72" width="47.27" height="54.62" maskUnits="userSpaceOnUse"><path class="cls-3" d="M174,182.07l11.26,1.18-.45-5.78s-11.6-3.47-9.16-2.62C175.76,174.89,174,182.07,174,182.07Z"/></mask><symbol id="Brain" data-name="Brain" viewBox="0 0 90 111.5"><g id="Kidney-3" data-name="Kidney"><circle class="cls-4" cx="45" cy="66.5" r="45"/><text class="cls-5" transform="translate(27.5 99.12)">Brain</text></g><path class="cls-6" d="M45,78.41V2.64A18.19,18.19,0,0,0,33.44,1.52c-5.57,1.54-9.69,7.71-9.89,11.15,0,0-7.94,0-12.43,9.4a20.09,20.09,0,0,0,1,19s-5.45,8.17-1.67,17.69c4.08,10.29,11.7,11,11.7,11A15.58,15.58,0,0,0,30,80.64C36.92,84.54,43.89,80.92,45,78.41Z"/><path class="cls-7" d="M35.11,18.52s-5.31-6-12.13-5.81"/><path class="cls-7" d="M20.49,26.18s-.28,6.54,5,9.47,7.81,2.79,7.81,2.79-2.66,8.49,1.8,12.39"/><path class="cls-7" d="M26.19,54.87s4.18,14.21-4,14.91"/><path class="cls-6" d="M45,78.41V2.64A18.12,18.12,0,0,1,56.56,1.52c5.57,1.53,9.69,7.7,9.89,11.14,0,0,7.94,0,12.43,9.41a20.05,20.05,0,0,1-1,19s5.45,8.17,1.67,17.69c-4.08,10.29-11.7,11-11.7,11A15.58,15.58,0,0,1,60,80.64C53.08,84.54,46.12,80.91,45,78.41Z"/><path class="cls-7" d="M61.84,58.23s.21,11.54,6,11.54"/><path class="cls-7" d="M56.25,57.26s6.69,3.35,11.17-2.39"/><path class="cls-7" d="M58.49,30.47S63.7,44,76.36,41.33"/><path class="cls-7" d="M56.5,18.52S60,10.27,66.69,12.66"/></symbol></defs><title>Nephron_180725_Zeichenfläche 50</title><g id="Bild"><path class="cls-8" d="M378,666.47a9,9,0,0,1-9-9v-212c-.8-8.15-3.38-21.23-6.8-25.62-2-2.54-4.19-5.05-6.54-7.71-8-9-17-19.26-17.67-33.29-.66-14.23,5.62-21.58,10.67-27.48s8.55-10,6.44-22.81c-1.17-7.13-7.77-11.54-18.49-18-11.67-7-26.19-15.66-26-33.62.25-20.09,14.27-25.45,24.51-29.36,8.35-3.19,15.56-5.94,20.14-14.92,2-3.85.42-13-1.08-21.93-2.86-17-6.43-38.26,4.23-59.32,6.08-12,21.37-26.59,44.43-28,34.26-2.15,60.55,25.73,76.56,49.49A9,9,0,1,1,464.54,183C445.61,155,424.15,140.2,404,141.43c-14.48.91-25.25,9.79-29.5,18.19-8,15.79-5.09,33-2.53,48.22,2.15,12.85,4,23.94-.65,33.09-7.72,15.14-20.45,20-29.74,23.55-10.18,3.89-12.85,5.22-12.94,12.78-.09,6.85,5.44,10.91,17.2,17.94,10.87,6.5,24.4,14.6,27,30.48,3.46,21.06-4.62,30.52-10.52,37.42-4.18,4.89-6.7,7.84-6.37,15,.36,7.69,6.59,14.74,13.18,22.2,2.43,2.75,4.95,5.6,7.27,8.59C384.32,419,386.6,440.13,387,444.26l0,.82V657.47A9,9,0,0,1,378,666.47Z"/><path class="cls-8" d="M463.12,181c.25.48,7.06,9,7.06,26.18l0,318.73s0,6-3.25,2.54A73.85,73.85,0,0,0,430,507.33l-4.5,18.54c28.46,6.88,44.64,31,44.64,50.59l-3.54,393h33.92l-.71-593.83c0,.16,15.6-26.06,45.73-36.8L539.09,321c-14.94,5.68-25.66,14.5-35.57,22-3.69,2.8-3.77-10.06-3.77-10.06S499,166,499.58,81.07c1.65-34.86,32.88-38.92,36.57-39.29a9.32,9.32,0,0,0,1.49-.28l-3.08-17.26c-11.14,1-28.35,6.8-40,21.15-.71.87-4.39,4.65-7.84,4.82s-6.66-3.26-7.18-4C468.92,32.16,454,25.81,444.24,24.31l-3,17.33a1.25,1.25,0,0,0,.26.07,41.19,41.19,0,0,1,16.88,7.9c9.38,7.31,14.71,18.06,15.92,32v.08c.47,19.41,1.87,72.67.81,85.07"/><ellipse class="cls-9" cx="427.89" cy="516.67" rx="9.5" ry="5.7" transform="translate(-173 814.95) rotate(-76.77)"/><ellipse class="cls-9" cx="442.8" cy="32.97" rx="8.84" ry="5.32" transform="translate(344.46 465.97) rotate(-81.46)"/><ellipse class="cls-9" cx="542.92" cy="329.71" rx="5.7" ry="9.5" transform="translate(-81.5 213.2) rotate(-20.7)"/><ellipse class="cls-9" cx="536.04" cy="32.97" rx="5.27" ry="8.79" transform="translate(-0.15 63.41) rotate(-6.77)"/><path class="cls-8" d="M466.84,964.67v8c0,5.6,7.58,10.15,16.92,10.15s16.91-4.55,16.91-10.15V963"/><line class="cls-10" x1="53.4" y1="545.79" x2="53.4" y2="540.45"/><line class="cls-11" x1="53.4" y1="528.19" x2="53.4" y2="509.8"/><line class="cls-10" x1="53.4" y1="503.67" x2="53.4" y2="498.32"/><polygon class="cls-12" points="58.06 501.5 53.41 484.13 48.75 501.5 58.06 501.5"/><path class="cls-8" d="M258.5,633.07h-.19a9,9,0,0,1-8.81-9.18c.53-25.06-5.76-35.34-12.42-46.22-4.07-6.66-8.29-13.55-10.49-23.23-5.12-22.5,2.49-42.13,8.6-57.9,7.88-20.32,7.23-23.11,1-26.23-7.78-3.91-12.82-.85-27.32,25-9.48,16.85-21,37.31-40.15,37.32a30.61,30.61,0,0,1-8.58-1.29c-10-2.93-16.1-9.56-17.6-19.18-1.1-7.05.42-14.65,1.88-22,2.63-13.14,3.32-19.69-1.64-23.07-4.48-3.05-12.23,2.94-22.67,11.74-6.66,5.6-13.55,11.4-20.83,14.4-10.18,4.19-19.82,2.09-27.13-5.91-15.14-16.54-3.38-31.59,4.39-41.54,5-6.39,9.71-12.42,9.59-18.36-.12-6.4-3-13.31-5.87-20s-5.54-13.09-5.9-19.68c-.49-8.86,3.52-16.21,11.61-21.26,16.92-10.59,33,4.5,45.88,16.63,7.87,7.41,17.67,16.61,23.76,16,2.58-.27,5.39-2.6,8.34-6.9,5.93-8.63-2.18-19.17-16.25-35.5-12.53-14.53-25.48-29.57-22.75-46.74,2.64-16.61,10.9-22,18.88-27.14a70,70,0,0,0,13.22-10.37c5.51-5.64,4.08-15,4.07-15.07a9,9,0,1,1,17.73-3.09c.13.75,3.12,18.41-8.92,30.74a87.37,87.37,0,0,1-16.31,12.89c-6.92,4.49-9.51,6.17-10.89,14.86-1.42,8.93,8.76,20.75,18.61,32.17,14.1,16.38,31.66,36.75,17.45,57.44-6.06,8.83-13.22,13.75-21.25,14.61-14.32,1.54-26.37-9.79-38-20.74-11-10.38-19.22-17.49-24-14.49-4,2.52-4.92,3.91,1.33,18.67,3.33,7.86,7.1,16.78,7.29,26.66.24,12.33-7.33,22-13.4,29.78-9.29,11.88-9.3,13.94-5.3,18.31,2.24,2.45,3.74,2.76,7,1.41,4.69-1.93,10.48-6.81,16.08-11.52,11.94-10,28.29-23.81,44.39-12.85,15.37,10.45,11.79,28.39,9.17,41.48-3.5,17.55-2,18.87,3.11,20.37,6.49,1.89,11.94,1,28-27.57,5.56-9.89,11.31-20.11,18.5-26.95,12.32-11.71,24.53-9.33,32.6-5.28,10,5,15.06,13.17,14.71,23.58-.27,7.85-3.54,16.3-7,25.25-5.5,14.18-11.73,30.27-7.84,47.4,1.55,6.79,4.68,11.91,8.3,17.83,7,11.43,15.7,25.65,15.06,56A9,9,0,0,1,258.5,633.07Z"/><g class="cls-13"><path class="cls-14" d="M176.31,180.66l0,.08c0-.52-.07-1-.11-1.57A9.62,9.62,0,0,0,176.31,180.66Z"/><path class="cls-15" d="M211.53,165.59a34.2,34.2,0,0,0-13.94-7.13c-6.88-1.53-11.8.45-15.2,4.07a24.12,24.12,0,0,0-5.73,11.94,34,34,0,0,0-.42,4.69h0c0,3.29-.42,6.83-2.13,9.13-2.59,3.51-3,7.74-1.08,11a8.07,8.07,0,0,0,8.16,3.88,5.76,5.76,0,0,0,3.25-1.59,3.29,3.29,0,0,1,2.56-1.05,3.4,3.4,0,0,1,3.09,1.92c.44,1.43-1.12,3.49-4.18,5.53-3.24,2.14-6.16.75-9.81-2.17a4.68,4.68,0,0,0-4.79-.58,5.91,5.91,0,0,0-3.57,4.82,5.4,5.4,0,0,0,.22,2.19,11.17,11.17,0,0,0-7.24-2.16,12.31,12.31,0,0,0-3.13,1c-1.75.73-3.57,1.46-5,.78a1.51,1.51,0,0,1-.88-1.27,3.26,3.26,0,0,1,1.61-2.73c1.41-1,3-.37,5.31.76l.37.19c2.9,1.38,5.76,1.29,7.66-.21a5.27,5.27,0,0,0,1.73-5.44,7.42,7.42,0,0,0-3.33-4.79,6.37,6.37,0,0,1-2.65-3.41c-.53-1.47,0-3.28.93-4.88l.22-3.43-1.93-.19c-1.77,2.42-3.69,6.14-2.41,9.65a9.61,9.61,0,0,0,3.83,5,4,4,0,0,1,2,2.82,1.91,1.91,0,0,1-.55,2c-.85.68-2.38.6-4.06-.22l-.36-.16c-2.37-1.14-5.6-2.71-8.75-.48a6.56,6.56,0,0,0-3,5.79,4.82,4.82,0,0,0,1.33,3,4.68,4.68,0,0,0,1.47,1.07c2.81,1.35,5.68.17,7.77-.69a9.88,9.88,0,0,1,2.19-.73,7.82,7.82,0,0,1,6.21,2.78,14.53,14.53,0,0,1,2.57,6.77c.61,4,4.83,6,8.39,5.55a6.14,6.14,0,0,0,5.55-7.1c-.41-4.06-5.26-5.85-8.46-7a14.67,14.67,0,0,1-2.17-.92c-1-.67-2.17-1.77-2-3.12a2.51,2.51,0,0,1,1.5-2,1.23,1.23,0,0,1,1.34.11c2.36,1.87,7.87,6.27,13.8,2.34s6.23-7.22,5.57-9.37c-.85-2.75-3.94-4.35-6.4-4.31a6.65,6.65,0,0,0-4.73,1.88,2.46,2.46,0,0,1-1.41.79,4.73,4.73,0,0,1-4.84-2.22c-1.2-2.06-.85-4.84.91-7.26,3.07-4.24,2.65-3.28,3.33-4.7l3.46-.92c-1.19-4.71-.22-12.79,4.41-16.57,2.1-1.7,4.84-2.4,8.55-1.93s6.82,2.92,10.08,5.5c6,4.76,13.44,10.67,25.44,2.67l-4.3-6.47C220.54,172.75,217.15,170.05,211.53,165.59Zm-37.39,52c2.27.85,6.07,2.27,6.26,4.2a2.77,2.77,0,0,1-2.6,3.4c-2,.25-4.3-.77-4.6-2.69a21,21,0,0,0-1.82-6.1A16.21,16.21,0,0,0,174.14,217.58Z"/><path class="cls-15" d="M161.4,184.37s6-7.55,3.89-14c-1.24-3.75-3.14-4.89-4.85-5.5-3.17-1.14-10.81.19-17.76,8.58a18.42,18.42,0,0,1-13,6.79,22.36,22.36,0,0,1-16.37-5.54l5.1-5.86A14.84,14.84,0,0,0,129,172.46a11,11,0,0,0,7.65-4c8.94-10.8,19.92-13.24,26.35-11,4.69,1.67,7.94,5.18,9.64,10.42,1.83,5.58,1.45,10.81-3,17.83,0,0-3.55,4.81-2.83,6.66a11.42,11.42,0,0,0,2.05,3.17c1,1.2,2.53,3,1,5.07-2.93,3.92-7.24,3.33-10.39,2.88-1.39-.19-3-.41-3.53,0a3.37,3.37,0,0,0-1.68,2.32,1.85,1.85,0,0,0,.65,1.52,10.09,10.09,0,0,0,.88.79c1.67,1.43,2.74,2.64,2.64,6.31-.06,1.59.51,2.81,1.48,3.19s3-.08,5.14-2.63c2-2.4,2.57-5.27,3.1-8,.58-3,1.19-6.14,3.92-7.78a5.41,5.41,0,0,1,6.35.36c2.53,2,4,6.11,3.2,8.83a5.24,5.24,0,0,0,.93,4.77,5.77,5.77,0,0,0,4.57,2.31,3.63,3.63,0,0,0,3.19-2.22,4.22,4.22,0,0,0,0-4,8.51,8.51,0,0,0-1.81-1.64c-1.84-1.39-4.14-3.12-4.23-8.13,0-1-.57-1.41-3.7-1.63a4,4,0,0,1-3.06-1.59c-1.73-2.36-.94-6.78,2-10.06,1.25-1.37.5-.42.51-.46l2.88-.25c0,.19,0,0-.44,1.85-.53,2.23-3.2,5.63-2.26,6.9,0,.07.15.2.55.22,2.21.15,6.79.47,6.86,4.95.06,3.36,1.24,4.24,2.88,5.49a11,11,0,0,1,2.5,2.33,7.49,7.49,0,0,1,.3,7.45,6.94,6.94,0,0,1-6.11,4.14,9.16,9.16,0,0,1-7.4-3.65,8.58,8.58,0,0,1-1.49-7.81c.35-1.14-.43-3.9-2-5.16a2,2,0,0,0-2.51-.13c-1.38.82-1.78,2.63-2.33,5.5s-1.26,6.5-3.85,9.59c-2.81,3.32-6.16,4.67-8.95,3.59a5.3,5.3,0,0,1-1.93-1.28,7.06,7.06,0,0,1-1.73-5.16c.06-2.33-.33-2.67-1.46-3.63-.33-.28-.67-.57-1-.94a5.24,5.24,0,0,1-1.65-4.26,6.71,6.71,0,0,1,3.15-4.84c1.65-1.09,3.71-.82,5.91-.5,3.23.44,5.49.58,7.09-1.41-.18-.27-.52-.7-.79-1a14.29,14.29,0,0,1-2.61-4.12,10.85,10.85,0,0,1-1-5.48"/><g class="cls-16"><path class="cls-15" d="M164.8,184.74a28.14,28.14,0,0,1-5.67,6.58s-3.57,2.9-2.49,6c.69,2,2.35,3.12,4.12,4.33s4.06,2.76,4.36,5.42a9.68,9.68,0,0,1-1.93,7.3c-.17.24-.33.49-.48.73-1,1.67-1.15,3.14-.32,4a1.34,1.34,0,0,0,1.61.29c3.19-1.93,5.17,1.15,6.23,2.8s2,2.89,3.16,2.75a2.34,2.34,0,0,0,1.77-1.48,5.67,5.67,0,0,0-.85-5.44,12.41,12.41,0,0,1-.38-13.16c1.41-2.54,2.91-4.4,5.65-4.3,4.29.16,5.21,3,5.87,5.06.59,1.81,1,3,2.71,3.65a5.08,5.08,0,0,0,5.67-1.82c1.59-2,1.36-4.75-.62-7.42a14,14,0,0,0-4.49-3.5c-3-1.77-6.55-3.23-8.44-8.72a31.75,31.75,0,0,1-1.17-6.5l4.24-1c0,.06-.7,1.24.89,6,1.38,4.14,3.41,5.65,6.19,7.27a17,17,0,0,1,5.5,4.41c2.93,3.93,3.15,8.25.59,11.54a8.47,8.47,0,0,1-9.65,2.87c-3.21-1.32-4-3.88-4.65-5.74s-.85-2.64-2.77-2.71-2.24,1.29-2.79,2.28a9.4,9.4,0,0,0,.46,9.87,9,9,0,0,1,1.13,8.76,5.71,5.71,0,0,1-4.46,3.44c-3.41.41-5.22-2.41-6.42-4.28a7.68,7.68,0,0,0-1.42-1.84l-.19.11a4.72,4.72,0,0,1-5.77-.8l-.09-.09c-1.48-1.57-2.27-4.47-.09-8,.18-.3.37-.59.57-.88a6.35,6.35,0,0,0,1.36-5c-.12-1.05-1.17-1.82-2.89-3-1.95-1.32-4.37-3-5.42-6-1.87-5.42,3.36-9.62,3.59-9.79,0,0,4.28-3.71,5.56-5.85"/></g></g><path class="cls-8" d="M179.29,259.26c-.28-8.91,11.12-14.12,18.56-18.41a35.87,35.87,0,0,0,18.06-26.33C218,199,206,181,193.69,174.42a5.44,5.44,0,0,0-7.36,2.24c-1.41,2.66,2.36,6.07,4.68,8,6.81,5.63,15.79,14.17,12.72,26.4A30.4,30.4,0,0,1,192,228.21c-4.48,3.17-14.2,7.77-24.36,5.7-12.29-2.51-21.38-15.22-22.37-21-2.19-12.78,2.83-23.13,12.64-31.08,2.24-1.82,4.45-4,2.92-6.6a5.43,5.43,0,0,0-7.45-1.91c-14.74,8.72-21.79,24.21-18.84,41.42.71,4.16,3.32,11,8,17.43a85.62,85.62,0,0,0,8.93,9.94c10.68,10.53,9.87,16.71,9.87,16.71"/><path class="cls-17" d="M258.5,631.76V899.55a52.15,52.15,0,0,0,52,52H326a52.15,52.15,0,0,0,52-52V663.64"/><path class="cls-18" d="M258.5,631.76V899.55a52.15,52.15,0,0,0,52,52H326a52.15,52.15,0,0,0,52-52V663.64"/></g><g id="Icons"><use width="90" height="111.5" transform="translate(11.69 37.17) scale(1.2)" xlink:href="#Brain"/><g id="_Gruppe_" data-name="&lt;Gruppe&gt;"><circle class="cls-19" cx="57.25" cy="581.64" r="30"/><circle class="cls-20" cx="40.25" cy="568.17" r="4.79"/><circle class="cls-20" cx="22.76" cy="565.68" r="4.79"/><circle class="cls-20" cx="32.57" cy="554.71" r="4.79"/></g><circle class="cls-19" cx="249.65" cy="309.24" r="30"/><circle class="cls-20" cx="232.21" cy="296.34" r="4.79"/><circle class="cls-20" cx="214.65" cy="294.43" r="4.79"/><circle class="cls-20" cx="224.1" cy="283.14" r="4.79"/><circle class="cls-19" cx="426.78" cy="132.99" r="30"/><circle class="cls-20" cx="409.78" cy="119.52" r="4.79"/><circle class="cls-20" cx="392.29" cy="117.03" r="4.79"/><circle class="cls-20" cx="402.11" cy="106.07" r="4.79"/><circle class="cls-19" cx="429.96" cy="253.87" r="30"/><circle class="cls-20" cx="412.96" cy="240.4" r="4.79"/><circle class="cls-20" cx="395.47" cy="237.91" r="4.79"/><circle class="cls-20" cx="405.29" cy="226.94" r="4.79"/><circle class="cls-19" cx="430.46" cy="690.71" r="30"/><circle class="cls-20" cx="413.46" cy="677.24" r="4.79"/><circle class="cls-20" cx="395.97" cy="674.75" r="4.79"/><circle class="cls-20" cx="405.79" cy="663.78" r="4.79"/><circle class="cls-19" cx="432.83" cy="423.87" r="30"/><circle class="cls-20" cx="415.83" cy="410.4" r="4.79"/><circle class="cls-20" cx="398.34" cy="407.91" r="4.79"/><circle class="cls-20" cx="408.16" cy="396.94" r="4.79"/><circle class="cls-19" cx="433.1" cy="846.68" r="30"/><circle class="cls-20" cx="416.1" cy="833.21" r="4.79"/><circle class="cls-20" cx="398.61" cy="830.72" r="4.79"/><circle class="cls-20" cx="408.42" cy="819.76" r="4.79"/><circle class="cls-19" cx="545.71" cy="745.92" r="30"/><circle class="cls-20" cx="528.71" cy="732.44" r="4.79"/><circle class="cls-20" cx="511.22" cy="729.95" r="4.79"/><circle class="cls-20" cx="521.04" cy="718.99" r="4.79"/></g><g id="Pfeile"><line class="cls-21" x1="76.26" y1="477.01" x2="36.58" y2="477.01"/><polygon class="cls-22" points="39.55 472.66 23.29 477.01 39.55 481.37 39.55 472.66"/><line class="cls-21" x1="357.18" y1="349.39" x2="442.14" y2="349.39"/><polygon class="cls-22" points="439.17 353.75 455.43 349.39 439.17 345.03 439.17 353.75"/><line class="cls-21" x1="493.52" y1="823.44" x2="553.56" y2="823.44"/><polygon class="cls-22" points="550.59 827.8 566.85 823.44 550.59 819.08 550.59 827.8"/><line class="cls-21" x1="113.07" y1="868.94" x2="152.69" y2="868.94"/><polygon class="cls-22" points="149.71 873.3 165.97 868.95 149.71 864.59 149.71 873.3"/><line class="cls-23" x1="359.52" y1="334.12" x2="442.14" y2="334.12"/><polygon class="cls-24" points="439.17 338.48 455.43 334.12 439.17 329.76 439.17 338.48"/><line class="cls-23" x1="476.18" y1="762.87" x2="407.72" y2="762.87"/><polygon class="cls-24" points="410.69 758.51 394.43 762.87 410.69 767.23 410.69 758.51"/><line class="cls-23" x1="113.07" y1="900.94" x2="152.69" y2="900.94"/><polygon class="cls-24" points="149.71 905.3 165.97 900.95 149.71 896.59 149.71 905.3"/><line class="cls-25" x1="130.41" y1="138.25" x2="135.41" y2="138.33"/><line class="cls-26" x1="140.85" y1="138.41" x2="149" y2="138.54"/><line class="cls-25" x1="151.71" y1="138.58" x2="156.71" y2="138.66"/><polygon class="cls-12" points="153.67 142.97 170 138.87 153.81 134.26 153.67 142.97"/><line class="cls-25" x1="393.22" y1="138.56" x2="388.22" y2="138.56"/><line class="cls-27" x1="377.69" y1="138.56" x2="235.55" y2="138.56"/><line class="cls-25" x1="230.29" y1="138.56" x2="225.29" y2="138.56"/><polygon class="cls-12" points="228.26 134.2 212 138.56 228.26 142.92 228.26 134.2"/><line class="cls-25" x1="51.65" y1="180.88" x2="51.65" y2="185.88"/><line class="cls-28" x1="51.65" y1="196.21" x2="51.65" y2="438.81"/><line class="cls-25" x1="51.65" y1="443.98" x2="51.65" y2="448.98"/><polygon class="cls-12" points="47.29 446 51.65 462.26 56.01 446 47.29 446"/><line class="cls-25" x1="432.43" y1="727.79" x2="432.43" y2="732.79"/><line class="cls-25" x1="432.43" y1="738.45" x2="432.43" y2="743.45"/><polygon class="cls-12" points="428.07 740.47 432.43 756.74 436.79 740.47 428.07 740.47"/><line class="cls-25" x1="429.25" y1="287.08" x2="429.25" y2="292.08"/><line class="cls-25" x1="429.25" y1="305.77" x2="429.25" y2="310.77"/><polygon class="cls-12" points="424.89 307.8 429.25 324.06 433.61 307.8 424.89 307.8"/><line class="cls-25" x1="430.75" y1="390.85" x2="430.65" y2="385.85"/><line class="cls-25" x1="430.46" y1="375.6" x2="430.36" y2="370.6"/><polygon class="cls-12" points="434.77 373.49 430.11 357.31 426.06 373.65 434.77 373.49"/><line class="cls-25" x1="544.88" y1="776.5" x2="544.88" y2="781.5"/><line class="cls-25" x1="544.88" y1="793.15" x2="544.88" y2="798.15"/><polygon class="cls-12" points="540.53 795.18 544.88 811.44 549.24 795.18 540.53 795.18"/><line class="cls-25" x1="432.43" y1="800.28" x2="432.43" y2="795.28"/><line class="cls-25" x1="432.43" y1="787.3" x2="432.43" y2="782.3"/><polygon class="cls-12" points="436.79 785.27 432.43 769.01 428.07 785.27 436.79 785.27"/><line class="cls-25" x1="113.07" y1="932.94" x2="118.07" y2="932.94"/><line class="cls-29" x1="127.94" y1="932.94" x2="142.75" y2="932.94"/><line class="cls-25" x1="147.69" y1="932.94" x2="152.69" y2="932.94"/><polygon class="cls-12" points="149.71 937.3 165.97 932.95 149.71 928.59 149.71 937.3"/><line class="cls-25" x1="251" y1="268.59" x2="250.88" y2="263.59"/><line class="cls-30" x1="250.6" y1="252.38" x2="249.64" y2="213.13"/><line class="cls-25" x1="249.5" y1="207.52" x2="249.38" y2="202.52"/><polygon class="cls-12" points="253.81 205.38 249.05 189.24 245.09 205.6 253.81 205.38"/><line class="cls-31" x1="113.07" y1="964.94" x2="164.47" y2="964.94"/><rect class="cls-32" x="162.97" y="955.19" width="3" height="19.5"/><rect class="cls-33" x="300" y="75.76" width="280.57" height="406.56"/><rect class="cls-34" x="300" y="75.76" width="280.57" height="406.56"/><rect class="cls-33" x="351.86" y="631.22" width="232.99" height="265.5"/><rect class="cls-34" x="351.86" y="631.22" width="232.99" height="265.5"/><rect class="cls-33" x="12.77" y="353.24" width="114.22" height="270.84"/><rect class="cls-34" x="12.77" y="353.24" width="114.22" height="270.84"/></g><g id="Text"><text class="cls-35" transform="translate(101.65 44.47)">Sympathetic <tspan x="32.21" y="18">tone</tspan></text><text class="cls-35" transform="translate(510.64 957.3)">Urine</text><text class="cls-35" transform="translate(180.05 139.96)">R</text><text class="cls-36" transform="translate(192.18 145.55) scale(0.58)">aa</text><text class="cls-37" transform="translate(309.59 117.26)">TG</text><text class="cls-37" transform="translate(332.92 122.86) scale(0.58)">Feedback</text><text class="cls-38" transform="translate(546.57 657.47)">CD</text><text class="cls-38" transform="translate(530.82 103.41)">DCT</text><text class="cls-38" transform="translate(95.2 612.28)">PT</text><text class="cls-35" transform="translate(25.61 873.42)">Na flux</text><text class="cls-39" transform="translate(25.61 905.42)">W<tspan class="cls-40" x="15.23" y="0">ater flux</tspan></text><text class="cls-35" transform="translate(25.63 937.42)">Activation</text><text class="cls-35" transform="translate(25.61 969.42)">Inhibition</text><text class="cls-41" transform="translate(42.26 593.59)">A<tspan class="cls-42" x="10.89" y="0">T2</tspan></text><text class="cls-35" transform="translate(239.49 174.67)">R</text><text class="cls-36" transform="translate(251.62 180.26) scale(0.58)">ea</text><text class="cls-41" transform="matrix(1, -0.03, 0.03, 1, 233.95, 322.74)">A<tspan class="cls-42" x="10.89" y="0">T2</tspan></text><text class="cls-43" transform="translate(405.42 144.39)">[Na+]</text><text class="cls-43" transform="translate(412.55 263.2)">ADH</text><text class="cls-43" transform="translate(412.55 698.3)">ADH</text><text class="cls-43" transform="translate(418.98 433.49)">Ald</text><text class="cls-43" transform="translate(418.98 850.64)">Ald</text><text class="cls-43" transform="translate(529.97 754.71)">AN<tspan class="cls-44" x="24.27" y="0">P</tspan></text></g></svg>