<?xml version="1.0" encoding="UTF-8" standalone="no"?>
<svg
   xmlns:dc="http://purl.org/dc/elements/1.1/"
   xmlns:cc="http://creativecommons.org/ns#"
   xmlns:rdf="http://www.w3.org/1999/02/22-rdf-syntax-ns#"
   xmlns:svg="http://www.w3.org/2000/svg"
   xmlns="http://www.w3.org/2000/svg"
   xmlns:xlink="http://www.w3.org/1999/xlink"
   xmlns:sodipodi="http://sodipodi.sourceforge.net/DTD/sodipodi-0.dtd"
   xmlns:inkscape="http://www.inkscape.org/namespaces/inkscape"
   viewBox="0 0 52.649002 69.341647"
   version="1.1"
   id="svg438"
   sodipodi:docname="kidney_zoom1_noarrows.svg"
   width="52.649002"
   height="69.341644"
   inkscape:version="1.0 (4035a4fb49, 2020-05-01)">
  <metadata
     id="metadata442">
    <rdf:RDF>
      <cc:Work
         rdf:about="">
        <dc:format>image/svg+xml</dc:format>
        <dc:type
           rdf:resource="http://purl.org/dc/dcmitype/StillImage" />
      </cc:Work>
    </rdf:RDF>
  </metadata>
  <sodipodi:namedview
     inkscape:document-rotation="0"
     pagecolor="#ffffff"
     bordercolor="#666666"
     borderopacity="1"
     objecttolerance="10"
     gridtolerance="10"
     guidetolerance="10"
     inkscape:pageopacity="0"
     inkscape:pageshadow="2"
     inkscape:window-width="1920"
     inkscape:window-height="1137"
     id="namedview440"
     showgrid="false"
     inkscape:zoom="7.6546555"
     inkscape:cx="34.490367"
     inkscape:cy="26.194293"
     inkscape:window-x="-8"
     inkscape:window-y="-8"
     inkscape:window-maximized="1"
     inkscape:current-layer="svg438" />
  <defs
     id="defs428">
    <style
       id="style325">.cls-1{fill:url(#Unbenannter_Verlauf_18);}.cls-2{fill:url(#Unbenannter_Verlauf_14);}.cls-3{fill:none;stroke-width:3px;}.cls-10,.cls-11,.cls-13,.cls-14,.cls-3,.cls-4,.cls-5,.cls-6,.cls-7,.cls-8,.cls-9{stroke:#ae5536;}.cls-4{fill:#c27f68;}.cls-10,.cls-11,.cls-4,.cls-5,.cls-6,.cls-7,.cls-8,.cls-9{stroke-miterlimit:10;}.cls-10,.cls-11,.cls-13,.cls-14,.cls-4,.cls-5,.cls-6,.cls-7,.cls-8,.cls-9{stroke-width:0.5px;}.cls-5{fill:#dbb4a7;}.cls-6{fill:#f4e7e3;}.cls-7{fill:#e4c7bd;}.cls-8{fill:#e3b4a1;}.cls-9{fill:#b5d8e1;}.cls-10,.cls-14{fill:#f6e6a7;}.cls-11{fill:#eac83b;}.cls-12{mask:url(#mask);}.cls-13{fill:#f4e9e5;}.cls-13,.cls-14{stroke-linecap:round;stroke-linejoin:round;}.cls-15{filter:url(#luminosity-noclip);}</style>
    <linearGradient
       id="Unbenannter_Verlauf_18"
       x1="17394.41"
       y1="13425.33"
       x2="17400.301"
       y2="13425.33"
       gradientTransform="matrix(-0.05,-0.96,-1,0.05,14306.85,16102.41)"
       gradientUnits="userSpaceOnUse">
      <stop
         offset="0.59"
         id="stop327" />
      <stop
         offset="1"
         stop-color="#fff"
         id="stop329" />
    </linearGradient>
    <linearGradient
       id="Unbenannter_Verlauf_14"
       x1="-2390.1299"
       y1="6561.6401"
       x2="-2384.24"
       y2="6561.6401"
       gradientTransform="matrix(0.4,0.88,0.91,-0.42,-4973.86,4855.75)"
       gradientUnits="userSpaceOnUse">
      <stop
         offset="0.59"
         id="stop332" />
      <stop
         offset="1"
         stop-color="#fff"
         id="stop334" />
    </linearGradient>
    <filter
       id="luminosity-noclip"
       x="35.34"
       y="34.310001"
       width="15.48"
       height="26.33"
       filterUnits="userSpaceOnUse"
       color-interpolation-filters="sRGB">
      <feFlood
         flood-color="#fff"
         result="bg"
         id="feFlood337" />
      <feBlend
         in="SourceGraphic"
         in2="bg"
         id="feBlend339"
         mode="normal" />
    </filter>
    <mask
       id="mask"
       x="35.34"
       y="34.31"
       width="15.48"
       height="26.33"
       maskUnits="userSpaceOnUse">
      <g
         class="cls-15"
         id="g346">
        <polygon
           class="cls-1"
           points="44.11,60.34 43.82,54.67 37.93,54.98 38.22,60.64 "
           id="polygon342" />
        <polygon
           class="cls-2"
           points="35.34,36.76 37.7,41.92 43.06,39.47 40.7,34.31 "
           id="polygon344" />
      </g>
    </mask>
    <symbol
       id="Kidey_zoom"
       data-name="Kidey zoom"
       viewBox="0 0 161.72 202.21">
      <path
         class="cls-3"
         d="m 160,27.07 -0.05,0.18 -1.39,5.16 -13.2,48.74 -1.31,4.85 -1.38,5.1 -1.31,4.85 -2.36,8.74 -24.83,91.79 H 51.65 L 24.37,103.66 21.83,95 20.42,90.2 18.94,85.2 17.53,80.4 3.3,32 1.82,27 7.06,15.8 a 195.5,195.5 0 0 1 147.82,0.42 z"
         id="path349" />
      <path
         class="cls-3"
         d="m 159.94,27.24 -1.39,5.16 -13.19,48.74 -1.31,4.86 -1.38,5.1 -1.31,4.85 -2.36,8.73 -24.83,91.79 H 51.65 L 24.37,103.65 21.83,95 20.42,90.2 18.94,85.2 17.53,80.4 3.3,32 1.8,26.84 a 187.39,187.39 0 0 1 158.14,0.4 z"
         id="path351" />
      <path
         class="cls-3"
         d="m 158.55,32.4 -13.19,48.74 -1.31,4.86 -1.38,5.1 -1.31,4.85 -2.36,8.73 -24.83,91.79 H 51.65 L 24.37,103.65 21.83,95 20.42,90.2 18.94,85.2 17.53,80.4 3.3,32 a 182.1,182.1 0 0 1 155.25,0.45 z"
         id="path353" />
      <path
         class="cls-3"
         d="m 139,104.68 -24.83,91.79 -1.17,4.24 H 52.9 l -1.25,-4.24 -27.28,-92.82 a 142.49,142.49 0 0 1 19.34,-6.31 q 1.44,-0.37 2.91,-0.69 5.49,-1.27 11.16,-2.12 c 1.18,-0.17 2.37,-0.34 3.57,-0.48 2.72,-0.35 5.48,-0.62 8.25,-0.81 1.1,-0.08 2.2,-0.14 3.3,-0.19 2.5,-0.13 5,-0.19 7.55,-0.19 a 151.16,151.16 0 0 1 17.8,1 q 2.7,0.3 5.35,0.71 a 144.88,144.88 0 0 1 35.4,10.11 z"
         id="path355" />
      <path
         class="cls-3"
         d="M 145.37,81.15 144.06,86 a 160.4,160.4 0 0 0 -18,-6 c -1,-0.27 -1.93,-0.52 -2.91,-0.76 a 165,165 0 0 0 -19.51,-3.68 c -1.46,-0.2 -2.93,-0.37 -4.4,-0.54 -1,-0.1 -2.1,-0.2 -3.15,-0.28 -1.35,-0.12 -2.71,-0.23 -4.07,-0.31 Q 86.29,74.06 80.48,74.06 h -0.92 c -1.08,0 -2.17,0 -3.25,0 a 171.1,171.1 0 0 0 -20.36,1.63 c -1.16,0.14 -2.32,0.32 -3.47,0.51 A 166.78,166.78 0 0 0 18.97,85.09 L 17.56,80.3 c 3.55,-1.35 7.17,-2.59 10.84,-3.69 L 19.47,43.9 a 1.5,1.5 0 0 1 2.89,-0.79 l 2.53,9.29 c 0.7,-3.26 2.16,-7.7 5.09,-9.88 a 6.66,6.66 0 0 1 5.64,-1.14 c 1.64,0.36 2.46,0.8 2.81,1.51 0.43,0.89 0,1.81 -0.61,3.09 a 20,20 0 0 0 -1.39,3.58 c -0.42,1.54 -0.05,4.21 1.71,5 a 0.76,0.76 0 0 1 0.38,1 0.75,0.75 0 0 1 -1,0.38 c -2.66,-1.18 -3.09,-4.73 -2.55,-6.75 a 22.48,22.48 0 0 1 1.48,-3.84 c 0.35,-0.72 0.74,-1.54 0.62,-1.78 0,-0.08 -0.29,-0.38 -1.78,-0.71 a 5.21,5.21 0 0 0 -4.43,0.88 c -3.7,2.75 -4.79,10.13 -5,12.18 l 5.42,19.94 a 169.25,169.25 0 0 1 17.21,-4 v 0 c 1.35,-0.24 2.71,-0.48 4.08,-0.68 a 181.68,181.68 0 0 1 21.89,-2 c 1.14,0 2.28,-0.07 3.43,-0.08 h 2.58 c 2.6,0 5.2,0 7.78,0.17 1.36,0 2.72,0.11 4.07,0.21 q 3.48,0.21 6.92,0.57 c 1.47,0.14 2.94,0.31 4.39,0.51 a 172.37,172.37 0 0 1 20.57,3.85 c 1,0.22 2,0.47 2.92,0.75 2.48,0.65 4.94,1.37 7.37,2.14 L 142.33,45 a 1.501366,1.501366 0 0 1 2.92,0.7 l -7.91,32.48 c 2.66,0.95 5.39,1.91 8.03,2.97 z"
         id="path357" />
      <path
         class="cls-3"
         d="m 142.67,91.08 -1.31,4.85 A 157,157 0 0 0 103.6,85.79 Q 100.87,85.4 98.11,85.12 A 165.66,165.66 0 0 0 80.45,84.18 c -1.66,0 -3.31,0 -5,0.07 -1.69,0.07 -3.17,0.12 -4.74,0.21 q -5.84,0.35 -11.52,1.08 c -1.13,0.14 -2.25,0.29 -3.36,0.47 q -5.66,0.82 -11.15,2.06 l 1.89,8.58 9.43,42.41 a 1.48,1.48 0 0 1 -1.14,1.78 1.17,1.17 0 0 1 -0.32,0 1.49,1.49 0 0 1 -1.46,-1.18 l -9.37,-42.32 -1.9,-8.6 a 153.87,153.87 0 0 0 -20,6.28 l -1.41,-4.8 a 161.25,161.25 0 0 1 34.11,-9.07 c 1.08,-0.17 2.17,-0.33 3.26,-0.47 2,-0.26 3.91,-0.49 5.89,-0.67 1.07,-0.12 2.15,-0.22 3.24,-0.29 4.45,-0.36 9,-0.54 13.53,-0.54 q 8,0 15.7,0.72 c 2.51,0.22 5,0.51 7.46,0.85 A 163.93,163.93 0 0 1 122,84.32 l 1.11,-5.07 1.06,-4.87 1.88,-8.57 a 1.5044268,1.5044268 0 0 1 2.94,0.64 l -1.9,8.68 -1.09,4.87 -1.12,5.08 a 160.31,160.31 0 0 1 17.79,6 z"
         id="path359" />
      <path
         class="cls-3"
         d="m 112,143.41 -1.18,-3.25 a 25.31,25.31 0 0 0 -6.49,4 c -0.67,0.51 -0.69,-1.84 -0.69,-1.84 -0.08,-42.23 0,-50.53 0,-105.81 a 7.27,7.27 0 0 1 6.67,-7.17 l 0.27,-0.05 -0.58,-3.12 a 11,11 0 0 0 -7.3,3.83 2.55,2.55 0 0 1 -1.43,0.88 1.89,1.89 0 0 1 -1.31,-0.72 10.4,10.4 0 0 0 -6.43,-4 L 93,29.35 v 0 a 7.52,7.52 0 0 1 3.1,1.45 7.9,7.9 0 0 1 2.9,5.83 v 0 c 0.09,3.54 0.34,39.63 0.15,41.89 a 21.68,21.68 0 0 0 -2.68,-3.21 c -0.64,-0.94 -2.17,-3 -4,-5.61 -3.07,-4.44 -6.52,-10 -11.06,-12.1 -1.93,-1.34 -8.17,-1.34 -8.28,5.12 a 21.45,21.45 0 0 0 1.87,7.9 c 0.77,1.76 1.56,3.57 1.23,4.46 -0.33,0.89 -1.61,0.84 -4.53,0.28 C 69,74.83 64.78,74 63.81,78 a 4.42,4.42 0 0 0 0.38,3.46 c 1,1.65 3,2.11 4.89,2.55 2.74,0.64 3.59,1 3.62,2.3 A 4.18,4.18 0 0 1 71.51,89 7.5,7.5 0 0 0 69.69,95.18 c 0.45,2.75 2.36,3.79 3.89,4.63 1.76,1 3.16,1.73 3.22,5.14 l 0.85,42.9 a 1.6,1.6 0 0 0 0.38,1 l 0.58,0.06 c 0.48,9.81 2.91,37.72 2.91,39.74 0,2.81 -1.4,4.84 -2.69,5.11 -1.14,0.23 -2.36,-0.89 -3.32,-3.09 C 73.43,185.92 67,150 63.2,110.18 c 0.45,-0.28 0.78,-0.89 0.78,-2.08 0.23,-0.44 -4.85,-28.57 -9.35,-34.59 a 26.62,26.62 0 0 0 -4.25,-4.24 c -2.48,-1.84 -3.86,-3 -3.36,-5.26 a 2.6,2.6 0 0 1 1.7,-2.13 c 1.27,-0.31 3,0.75 4.76,2.9 2.16,2.64 5,4.06 7.77,3.88 a 5.53,5.53 0 0 0 4.42,-2.34 c 2,-3.24 0.28,-5.9 -0.89,-7.66 -1.17,-1.76 -1.44,-2.41 -1,-3.25 0.62,-1.08 1.79,-1 4.78,-0.11 2.08,0.6 4.24,1.22 5.95,0.16 a 4.17,4.17 0 0 0 1.81,-3 C 76.95,48.94 74.48,47.55 72.68,46.54 71.32,45.78 70,45 69.4,43.4 c -0.6,-1.6 -0.29,-3.63 0,-5.62 0.35,-2.54 0.67,-4.94 -0.73,-6.65 A 4.86,4.86 0 0 0 65,29.51 c -4.23,-0.27 -4.92,4.15 -5.42,7.37 -0.72,4.6 -1.38,6.76 -4.34,6.72 a 5.35,5.35 0 0 1 -3,-1.29 A 14.6,14.6 0 0 0 50.23,41 8.35,8.35 0 0 0 46.85,40.12 7.09,7.09 0 0 0 40,44.85 a 1,1 0 0 0 0.58,1.28 c 0.51,0.19 0.84,-0.27 1.09,-0.73 a 5.74,5.74 0 0 1 5.18,-3.26 5.89,5.89 0 0 1 4.49,3.35 6.07,6.07 0 0 1 -0.25,4.56 5.54,5.54 0 0 1 -2.71,2.66 c -2.1,0.94 -3.92,-0.4 -5.15,-1.45 -0.42,-0.36 -1.15,-0.93 -1.58,-0.59 a 1,1 0 0 0 -0.17,1.39 c 1.56,2 5.19,3.59 7.91,2.72 a 6.54,6.54 0 0 0 4.16,-4.08 c 0.53,-1.47 1.11,-3.69 2.72,-3.92 5.14,-0.57 6,-5.84 6.52,-9.4 0.59,-3.8 1,-4.71 2,-4.65 a 2,2 0 0 1 1.33,0.44 c 0.51,0.62 0.25,2.51 0,4.17 -0.31,2.27 -0.66,4.85 0.19,7.17 1,2.75 3.18,4 4.77,4.87 1.89,1.07 2.25,1.38 2,2.54 -0.09,0.49 -0.23,0.74 -0.33,0.8 -0.49,0.31 -2.21,-0.19 -3.34,-0.52 -2.59,-0.75 -6.5,-1.87 -8.49,1.61 -1.54,2.69 0,5 1.07,6.63 1.29,1.95 1.7,2.81 0.85,4.16 A 2.43,2.43 0 0 1 60.96,65.44 6.36,6.36 0 0 1 56,62.73 c -3.52,-4.3 -6.53,-4.35 -8,-4 a 5.77,5.77 0 0 0 -4.1,4.58 c -1,4.42 2.12,6.71 4.59,8.55 a 13.89,13.89 0 0 1 2.74,2.44 c 3.44,4.54 4.69,11.65 6.34,19 1.91,8.51 2.69,16.42 3.49,16.7 a 3.54,3.54 0 0 0 0.4,0.17 c 1.65,17.39 9.89,75.3 12.44,81.16 1.55,3.56 3.49,4.19 4.67,4.19 a 3.19,3.19 0 0 0 0.65,-0.07 c 2.35,-0.49 4.11,-3.44 4.11,-6.86 0,-2.08 -2.38,-29.18 -2.9,-39.71 a 1.59,1.59 0 0 0 0.49,-1.17 L 80,104.86 c -0.1,-5.28 -2.88,-6.8 -4.9,-7.91 -1.42,-0.78 -2.06,-1.17 -2.25,-2.32 -0.28,-1.69 0.36,-2.55 1.24,-3.74 a 7.22,7.22 0 0 0 1.82,-4.64 c -0.08,-4 -3.71,-4.82 -6.12,-5.38 -1.14,-0.27 -2.56,-0.6 -2.87,-1.1 a 1.59,1.59 0 0 1 0,-1 c 0.18,-0.74 0.83,-0.89 4.16,-0.25 2.88,0.56 6.83,1.32 8.17,-2.34 0.78,-2.11 -0.23,-4.42 -1.3,-6.87 -1.07,-2.45 -1.75,-4.24 -1.66,-5.88 0,0 -0.38,-2.26 2.59,-2.78 C 82.59,60 89.27,71.05 94.6,78 v 0 0 c 0.56,0.73 1.11,1.41 1.64,2 v 0 a 14.28,14.28 0 0 1 1.25,2.1 20.13,20.13 0 0 1 0.73,5 v 0 31.9 c 0,0 0,1.09 -0.59,0.46 A 13.48,13.48 0 0 0 90.9,115.61 L 90.1,119 c 5.19,1.25 8.15,6 8.15,9.62 l -0.91,72 h 6.19 l 0.13,-47.4 c 0.01,-3.06 2.85,-7.85 8.34,-9.81 z"
         id="path361" />
      <ellipse
         class="cls-3"
         cx="90.540001"
         cy="117.33"
         rx="1.73"
         ry="1.04"
         transform="rotate(-76.77,90.535486,117.3295)"
         id="ellipse363" />
      <ellipse
         class="cls-3"
         cx="93.260002"
         cy="27.76"
         rx="1.61"
         ry="0.97000003"
         transform="rotate(-81.46,93.264358,27.762434)"
         id="ellipse365" />
      <ellipse
         class="cls-3"
         cx="111.53"
         cy="141.75"
         rx="1.04"
         ry="1.73"
         transform="rotate(-20.7,111.54438,141.7664)"
         id="ellipse367" />
      <ellipse
         class="cls-3"
         cx="110.27"
         cy="27.76"
         rx="0.95999998"
         ry="1.6"
         transform="rotate(-6.77,110.24954,27.728347)"
         id="ellipse369" />
      <path
         class="cls-3"
         d="m 41.83,48.7 v 0 h -0.23 0.27 z"
         id="path371" />
      <path
         class="cls-3"
         d="m 50.42,47.53 a 0.93,0.93 0 0 0 0,-0.13 c 0,-0.63 -0.53,-0.91 -0.89,-1.09 a 1.37,1.37 0 0 1 -0.36,-0.23 v 0 A 0.86,0.86 0 0 0 49,45 v 0 h -0.09 a 1,1 0 0 0 0,-0.15 1,1 0 0 0 -0.27,-0.33 1.24,1.24 0 0 0 -0.78,-0.21 v 0 a 1.18,1.18 0 0 0 -0.17,-0.72 0.88,0.88 0 0 0 -0.22,-0.25 0.85,0.85 0 0 0 -0.56,-0.19 1.19,1.19 0 0 0 -1,0.58 v 0 a 1.24,1.24 0 0 0 -0.79,0.65 0.73,0.73 0 0 0 0,0.07 1.61,1.61 0 0 0 -0.39,-0.15 1.75,1.75 0 0 0 -1.71,0.83 9.49,9.49 0 0 1 -0.71,0.89 3.19,3.19 0 0 1 -2.46,0.94 1.38,1.38 0 0 1 -1.09,-0.78 C 38.5,45.62 38.6,44.18 40,42.8 a 3.37,3.37 0 0 0 1,-2.48 4.08,4.08 0 0 0 -1.3,-2.87 l -1,1 a 2.71,2.71 0 0 1 0.85,1.86 2,2 0 0 1 -0.59,1.46 c -1.8,1.82 -2,3.85 -1.52,5 a 2.81,2.81 0 0 0 2.06,1.56 3.52,3.52 0 0 0 3.18,-0.86 l 0.12,-0.1 a 5.47,5.47 0 0 0 0.09,0.94 0.68,0.68 0 0 0 0.05,0.12 3.17,3.17 0 0 1 -1.11,0.33 H 41.6 a 5.57,5.57 0 0 0 -0.85,0.16 4.34,4.34 0 0 0 -2.06,1.25 2.75,2.75 0 0 0 -0.51,2.83 6.26,6.26 0 0 0 1.54,2.4 c 0.91,0.94 1.47,1.51 0.71,2.92 l 1.25,0.67 c 1.24,-2.33 0,-3.57 -0.94,-4.58 A 3.9,3.9 0 0 1 39.57,52.68 1.92,1.92 0 0 1 39.76,51.1 3,3 0 0 1 41.89,50 v 0 A 0.44,0.44 0 0 1 42,50 h 0.3 a 4,4 0 0 1 0.7,0 2.14,2.14 0 0 1 1.43,1 3.08,3.08 0 0 0 0.9,0.92 1.67,1.67 0 0 0 2.1,-0.1 1.61,1.61 0 0 0 0.33,-0.46 1.53,1.53 0 0 0 0.56,-0.2 A 1.27,1.27 0 0 0 49,50 c 0,-0.5 -0.26,-0.69 0.4,-0.69 a 1.11,1.11 0 0 0 1.19,-1.13 1.54,1.54 0 0 0 -0.17,-0.65 z"
         id="path373" />
      <path
         class="cls-4"
         d="m 160,27.07 -0.05,0.18 -1.39,5.16 -13.2,48.74 -1.31,4.85 -1.38,5.1 -1.31,4.85 -2.36,8.74 -24.83,91.79 H 51.65 L 24.37,103.66 21.83,95 20.42,90.2 18.94,85.2 17.53,80.4 3.3,32 1.82,27 7.06,15.8 a 195.5,195.5 0 0 1 147.82,0.42 z"
         id="path375" />
      <path
         class="cls-5"
         d="m 159.94,27.24 -1.39,5.16 -13.19,48.74 -1.31,4.86 -1.38,5.1 -1.31,4.85 -2.36,8.73 -24.83,91.79 H 51.65 L 24.37,103.65 21.83,95 20.42,90.2 18.94,85.2 17.53,80.4 3.3,32 1.8,26.84 a 187.39,187.39 0 0 1 158.14,0.4 z"
         id="path377" />
      <path
         class="cls-6"
         d="m 158.55,32.4 -13.19,48.74 -1.31,4.86 -1.38,5.1 -1.31,4.85 -2.36,8.73 -24.83,91.79 H 51.65 L 24.37,103.65 21.83,95 20.42,90.2 18.94,85.2 17.53,80.4 3.3,32 a 182.1,182.1 0 0 1 155.25,0.45 z"
         id="path379" />
      <path
         class="cls-7"
         d="m 139,104.68 -24.83,91.79 -1.17,4.24 H 52.9 l -1.25,-4.24 -27.28,-92.82 a 142.49,142.49 0 0 1 19.34,-6.31 q 1.44,-0.37 2.91,-0.69 5.49,-1.27 11.16,-2.12 c 1.18,-0.17 2.37,-0.34 3.57,-0.48 2.72,-0.35 5.48,-0.62 8.25,-0.81 1.1,-0.08 2.2,-0.14 3.3,-0.19 2.5,-0.13 5,-0.19 7.55,-0.19 a 151.16,151.16 0 0 1 17.8,1 q 2.7,0.3 5.35,0.71 a 144.88,144.88 0 0 1 35.4,10.11 z"
         id="path381" />
      <path
         class="cls-8"
         d="M 145.37,81.15 144.06,86 a 160.4,160.4 0 0 0 -18,-6 c -1,-0.27 -1.93,-0.52 -2.91,-0.76 a 165,165 0 0 0 -19.51,-3.68 c -1.46,-0.2 -2.93,-0.37 -4.4,-0.54 -1,-0.1 -2.1,-0.2 -3.15,-0.28 -1.35,-0.12 -2.71,-0.23 -4.07,-0.31 Q 86.29,74.06 80.48,74.06 h -0.92 c -1.08,0 -2.17,0 -3.25,0 a 171.1,171.1 0 0 0 -20.36,1.63 c -1.16,0.14 -2.32,0.32 -3.47,0.51 A 166.78,166.78 0 0 0 18.97,85.09 L 17.56,80.3 c 3.55,-1.35 7.17,-2.59 10.84,-3.69 L 19.47,43.9 a 1.5,1.5 0 0 1 2.89,-0.79 l 2.53,9.29 c 0.7,-3.26 2.16,-7.7 5.09,-9.88 a 6.66,6.66 0 0 1 5.64,-1.14 c 1.64,0.36 2.46,0.8 2.81,1.51 0.43,0.89 0,1.81 -0.61,3.09 a 20,20 0 0 0 -1.39,3.58 c -0.42,1.54 -0.05,4.21 1.71,5 a 0.76,0.76 0 0 1 0.38,1 0.75,0.75 0 0 1 -1,0.38 c -2.66,-1.18 -3.09,-4.73 -2.55,-6.75 a 22.48,22.48 0 0 1 1.48,-3.84 c 0.35,-0.72 0.74,-1.54 0.62,-1.78 0,-0.08 -0.29,-0.38 -1.78,-0.71 a 5.21,5.21 0 0 0 -4.43,0.88 c -3.7,2.75 -4.79,10.13 -5,12.18 l 5.42,19.94 a 169.25,169.25 0 0 1 17.21,-4 v 0 c 1.35,-0.24 2.71,-0.48 4.08,-0.68 a 181.68,181.68 0 0 1 21.89,-2 c 1.14,0 2.28,-0.07 3.43,-0.08 h 2.58 c 2.6,0 5.2,0 7.78,0.17 1.36,0 2.72,0.11 4.07,0.21 q 3.48,0.21 6.92,0.57 c 1.47,0.14 2.94,0.31 4.39,0.51 a 172.37,172.37 0 0 1 20.57,3.85 c 1,0.22 2,0.47 2.92,0.75 2.48,0.65 4.94,1.37 7.37,2.14 L 142.33,45 a 1.501366,1.501366 0 0 1 2.92,0.7 l -7.91,32.48 c 2.66,0.95 5.39,1.91 8.03,2.97 z"
         id="path383" />
      <path
         class="cls-9"
         d="m 142.67,91.08 -1.31,4.85 A 157,157 0 0 0 103.6,85.79 Q 100.87,85.4 98.11,85.12 A 165.66,165.66 0 0 0 80.45,84.18 c -1.66,0 -3.31,0 -5,0.07 -1.69,0.07 -3.17,0.12 -4.74,0.21 q -5.84,0.35 -11.52,1.08 c -1.13,0.14 -2.25,0.29 -3.36,0.47 q -5.66,0.82 -11.15,2.06 l 1.89,8.58 9.43,42.41 a 1.48,1.48 0 0 1 -1.14,1.78 1.17,1.17 0 0 1 -0.32,0 1.49,1.49 0 0 1 -1.46,-1.18 l -9.37,-42.32 -1.9,-8.6 a 153.87,153.87 0 0 0 -20,6.28 l -1.41,-4.8 a 161.25,161.25 0 0 1 34.11,-9.07 c 1.08,-0.17 2.17,-0.33 3.26,-0.47 2,-0.26 3.91,-0.49 5.89,-0.67 1.07,-0.12 2.15,-0.22 3.24,-0.29 4.45,-0.36 9,-0.54 13.53,-0.54 q 8,0 15.7,0.72 c 2.51,0.22 5,0.51 7.46,0.85 A 163.93,163.93 0 0 1 122,84.32 l 1.11,-5.07 1.06,-4.87 1.88,-8.57 a 1.5044268,1.5044268 0 0 1 2.94,0.64 l -1.9,8.68 -1.09,4.87 -1.12,5.08 a 160.31,160.31 0 0 1 17.79,6 z"
         id="path385" />
      <path
         class="cls-10"
         d="m 112,143.41 -1.18,-3.25 a 25.31,25.31 0 0 0 -6.49,4 c -0.67,0.51 -0.69,-1.84 -0.69,-1.84 -0.08,-42.23 0,-50.53 0,-105.81 a 7.27,7.27 0 0 1 6.67,-7.17 l 0.27,-0.05 -0.58,-3.12 a 11,11 0 0 0 -7.3,3.83 2.55,2.55 0 0 1 -1.43,0.88 1.89,1.89 0 0 1 -1.31,-0.72 10.4,10.4 0 0 0 -6.43,-4 L 93,29.35 v 0 a 7.52,7.52 0 0 1 3.1,1.45 7.9,7.9 0 0 1 2.9,5.83 v 0 c 0.09,3.54 0.34,39.63 0.15,41.89 a 21.68,21.68 0 0 0 -2.68,-3.21 c -0.64,-0.94 -2.17,-3 -4,-5.61 -3.07,-4.44 -6.52,-10 -11.06,-12.1 -1.93,-1.34 -8.17,-1.34 -8.28,5.12 a 21.45,21.45 0 0 0 1.87,7.9 c 0.77,1.76 1.56,3.57 1.23,4.46 -0.33,0.89 -1.61,0.84 -4.53,0.28 C 69,74.83 64.78,74 63.81,78 a 4.42,4.42 0 0 0 0.38,3.46 c 1,1.65 3,2.11 4.89,2.55 2.74,0.64 3.59,1 3.62,2.3 A 4.18,4.18 0 0 1 71.51,89 7.5,7.5 0 0 0 69.69,95.18 c 0.45,2.75 2.36,3.79 3.89,4.63 1.76,1 3.16,1.73 3.22,5.14 l 0.85,42.9 a 1.6,1.6 0 0 0 0.38,1 l 0.58,0.06 c 0.48,9.81 2.91,37.72 2.91,39.74 0,2.81 -1.4,4.84 -2.69,5.11 -1.14,0.23 -2.36,-0.89 -3.32,-3.09 C 73.43,185.92 67,150 63.2,110.18 c 0.45,-0.28 0.78,-0.89 0.78,-2.08 0.23,-0.44 -4.85,-28.57 -9.35,-34.59 a 26.62,26.62 0 0 0 -4.25,-4.24 c -2.48,-1.84 -3.86,-3 -3.36,-5.26 a 2.6,2.6 0 0 1 1.7,-2.13 c 1.27,-0.31 3,0.75 4.76,2.9 2.16,2.64 5,4.06 7.77,3.88 a 5.53,5.53 0 0 0 4.42,-2.34 c 2,-3.24 0.28,-5.9 -0.89,-7.66 -1.17,-1.76 -1.44,-2.41 -1,-3.25 0.62,-1.08 1.79,-1 4.78,-0.11 2.08,0.6 4.24,1.22 5.95,0.16 a 4.17,4.17 0 0 0 1.81,-3 C 76.95,48.94 74.48,47.55 72.68,46.54 71.32,45.78 70,45 69.4,43.4 c -0.6,-1.6 -0.29,-3.63 0,-5.62 0.35,-2.54 0.67,-4.94 -0.73,-6.65 A 4.86,4.86 0 0 0 65,29.51 c -4.23,-0.27 -4.92,4.15 -5.42,7.37 -0.72,4.6 -1.38,6.76 -4.34,6.72 a 5.35,5.35 0 0 1 -3,-1.29 A 14.6,14.6 0 0 0 50.23,41 8.35,8.35 0 0 0 46.85,40.12 7.09,7.09 0 0 0 40,44.85 a 1,1 0 0 0 0.58,1.28 c 0.51,0.19 0.84,-0.27 1.09,-0.73 a 5.74,5.74 0 0 1 5.18,-3.26 5.89,5.89 0 0 1 4.49,3.35 6.07,6.07 0 0 1 -0.25,4.56 5.54,5.54 0 0 1 -2.71,2.66 c -2.1,0.94 -3.92,-0.4 -5.15,-1.45 -0.42,-0.36 -1.15,-0.93 -1.58,-0.59 a 1,1 0 0 0 -0.17,1.39 c 1.56,2 5.19,3.59 7.91,2.72 a 6.54,6.54 0 0 0 4.16,-4.08 c 0.53,-1.47 1.11,-3.69 2.72,-3.92 5.14,-0.57 6,-5.84 6.52,-9.4 0.59,-3.8 1,-4.71 2,-4.65 a 2,2 0 0 1 1.33,0.44 c 0.51,0.62 0.25,2.51 0,4.17 -0.31,2.27 -0.66,4.85 0.19,7.17 1,2.75 3.18,4 4.77,4.87 1.89,1.07 2.25,1.38 2,2.54 -0.09,0.49 -0.23,0.74 -0.33,0.8 -0.49,0.31 -2.21,-0.19 -3.34,-0.52 -2.59,-0.75 -6.5,-1.87 -8.49,1.61 -1.54,2.69 0,5 1.07,6.63 1.29,1.95 1.7,2.81 0.85,4.16 A 2.43,2.43 0 0 1 60.96,65.44 6.36,6.36 0 0 1 56,62.73 c -3.52,-4.3 -6.53,-4.35 -8,-4 a 5.77,5.77 0 0 0 -4.1,4.58 c -1,4.42 2.12,6.71 4.59,8.55 a 13.89,13.89 0 0 1 2.74,2.44 c 3.44,4.54 4.69,11.65 6.34,19 1.91,8.51 2.69,16.42 3.49,16.7 a 3.54,3.54 0 0 0 0.4,0.17 c 1.65,17.39 9.89,75.3 12.44,81.16 1.55,3.56 3.49,4.19 4.67,4.19 a 3.19,3.19 0 0 0 0.65,-0.07 c 2.35,-0.49 4.11,-3.44 4.11,-6.86 0,-2.08 -2.38,-29.18 -2.9,-39.71 a 1.59,1.59 0 0 0 0.49,-1.17 L 80,104.86 c -0.1,-5.28 -2.88,-6.8 -4.9,-7.91 -1.42,-0.78 -2.06,-1.17 -2.25,-2.32 -0.28,-1.69 0.36,-2.55 1.24,-3.74 a 7.22,7.22 0 0 0 1.82,-4.64 c -0.08,-4 -3.71,-4.82 -6.12,-5.38 -1.14,-0.27 -2.56,-0.6 -2.87,-1.1 a 1.59,1.59 0 0 1 0,-1 c 0.18,-0.74 0.83,-0.89 4.16,-0.25 2.88,0.56 6.83,1.32 8.17,-2.34 0.78,-2.11 -0.23,-4.42 -1.3,-6.87 -1.07,-2.45 -1.75,-4.24 -1.66,-5.88 0,0 -0.38,-2.26 2.59,-2.78 C 82.59,60 89.27,71.05 94.6,78 v 0 0 c 0.56,0.73 1.11,1.41 1.64,2 v 0 a 14.28,14.28 0 0 1 1.25,2.1 20.13,20.13 0 0 1 0.73,5 v 0 31.9 c 0,0 0,1.09 -0.59,0.46 A 13.48,13.48 0 0 0 90.9,115.61 L 90.1,119 c 5.19,1.25 8.15,6 8.15,9.62 l -0.91,72 h 6.19 l 0.13,-47.4 c 0.01,-3.06 2.85,-7.85 8.34,-9.81 z"
         id="path387" />
      <ellipse
         class="cls-11"
         cx="90.540001"
         cy="117.33"
         rx="1.73"
         ry="1.04"
         transform="rotate(-76.77,90.535486,117.3295)"
         id="ellipse389" />
      <ellipse
         class="cls-11"
         cx="93.260002"
         cy="27.76"
         rx="1.61"
         ry="0.97000003"
         transform="rotate(-81.46,93.264358,27.762434)"
         id="ellipse391" />
      <ellipse
         class="cls-11"
         cx="111.53"
         cy="141.75"
         rx="1.04"
         ry="1.73"
         transform="rotate(-20.7,111.54438,141.7664)"
         id="ellipse393" />
      <ellipse
         class="cls-11"
         cx="110.27"
         cy="27.76"
         rx="0.95999998"
         ry="1.6"
         transform="rotate(-6.77,110.24954,27.728347)"
         id="ellipse395" />
      <g
         class="cls-12"
         mask="url(#mask)"
         id="g401">
        <path
           class="cls-13"
           d="m 41.83,48.7 v 0 h -0.23 0.27 z"
           id="path397" />
        <path
           class="cls-14"
           d="m 50.42,47.53 a 0.93,0.93 0 0 0 0,-0.13 c 0,-0.63 -0.53,-0.91 -0.89,-1.09 a 1.37,1.37 0 0 1 -0.36,-0.23 v 0 A 0.86,0.86 0 0 0 49,45 v 0 h -0.09 a 1,1 0 0 0 0,-0.15 1,1 0 0 0 -0.27,-0.33 1.24,1.24 0 0 0 -0.78,-0.21 v 0 a 1.18,1.18 0 0 0 -0.17,-0.72 0.88,0.88 0 0 0 -0.22,-0.25 0.85,0.85 0 0 0 -0.56,-0.19 1.19,1.19 0 0 0 -1,0.58 v 0 a 1.24,1.24 0 0 0 -0.79,0.65 0.73,0.73 0 0 0 0,0.07 1.61,1.61 0 0 0 -0.39,-0.15 1.75,1.75 0 0 0 -1.71,0.83 9.49,9.49 0 0 1 -0.71,0.89 3.19,3.19 0 0 1 -2.46,0.94 1.38,1.38 0 0 1 -1.09,-0.78 C 38.5,45.62 38.6,44.18 40,42.8 a 3.37,3.37 0 0 0 1,-2.48 4.08,4.08 0 0 0 -1.3,-2.87 l -1,1 a 2.71,2.71 0 0 1 0.85,1.86 2,2 0 0 1 -0.59,1.46 c -1.8,1.82 -2,3.85 -1.52,5 a 2.81,2.81 0 0 0 2.06,1.56 3.52,3.52 0 0 0 3.18,-0.86 l 0.12,-0.1 a 5.47,5.47 0 0 0 0.09,0.94 0.68,0.68 0 0 0 0.05,0.12 3.17,3.17 0 0 1 -1.11,0.33 H 41.6 a 5.57,5.57 0 0 0 -0.85,0.16 4.34,4.34 0 0 0 -2.06,1.25 2.75,2.75 0 0 0 -0.51,2.83 6.26,6.26 0 0 0 1.54,2.4 c 0.91,0.94 1.47,1.51 0.71,2.92 l 1.25,0.67 c 1.24,-2.33 0,-3.57 -0.94,-4.58 A 3.9,3.9 0 0 1 39.57,52.68 1.92,1.92 0 0 1 39.76,51.1 3,3 0 0 1 41.89,50 v 0 A 0.44,0.44 0 0 1 42,50 h 0.3 a 4,4 0 0 1 0.7,0 2.14,2.14 0 0 1 1.43,1 3.08,3.08 0 0 0 0.9,0.92 1.67,1.67 0 0 0 2.1,-0.1 1.61,1.61 0 0 0 0.33,-0.46 1.53,1.53 0 0 0 0.56,-0.2 A 1.27,1.27 0 0 0 49,50 c 0,-0.5 -0.26,-0.69 0.4,-0.69 a 1.11,1.11 0 0 0 1.19,-1.13 1.54,1.54 0 0 0 -0.17,-0.65 z"
           id="path399" />
      </g>
    </symbol>
    <symbol
       id="Kidney-2"
       data-name="Kidney"
       viewBox="0 0 90 112.16">
      <circle
         class="cls-1"
         cx="45"
         cy="67.150002"
         r="45"
         style="fill:#faf1ce"
         id="circle409" />
      <path
         class="cls-2"
         d="M 67.18,43.06 C 67.18,72.53 45.36,88.7 28.7,76.44 14.53,66 27.21,52.11 27.21,52.11 a 15.73,15.73 0 0 1 -2.8,-5.29 13.24,13.24 0 0 1 -0.52,-2.53 c 0,-0.29 -0.06,-0.61 -0.06,-0.92 0,-0.31 0,-0.73 0,-1.08 a 9.91,9.91 0 0 1 0.54,-2.54 10.51,10.51 0 0 1 3,-4.36 c 0,0 -9.28,-0.25 -12.83,-10.63 C 11.56,16.07 16.35,0 35.8,1 56.74,2.11 67.18,28.52 67.18,43.06 Z"
         style="fill:#ebd4cd;stroke:#ae5536;stroke-width:2px;stroke-linecap:round;stroke-linejoin:round"
         id="path411" />
      <path
         class="cls-3"
         d="m 23.84,43.37 c 0,0.31 0,0.63 0.06,0.92 h -0.14 a 16.23,16.23 0 0 1 -5.82,-1.21 14.89,14.89 0 0 1 -8.63,-9.93 2.3000054,2.3000054 0 0 1 4.49,-1 10.37,10.37 0 0 0 10.1,7.58 2.83,2.83 0 0 1 0.49,0.06 9.91,9.91 0 0 0 -0.54,2.54 c -0.01,0.32 -0.02,0.67 -0.01,1.04 z"
         style="fill:#b5d8e1;stroke:#ae5536;stroke-width:2px;stroke-linecap:round;stroke-linejoin:round"
         id="path413" />
      <path
         class="cls-4"
         d="m 24.42,46.82 a 1.25,1.25 0 0 1 -0.27,0.06 l -5.56,0.76 a 5.49,5.49 0 0 0 -4.73,5.42 V 87.3 a 2.3,2.3 0 1 1 -4.6,0 V 53.06 a 10.13,10.13 0 0 1 8.69,-10 v 0 l 5.56,-0.76 a 2,2 0 0 1 0.33,0 c 0,0.35 0,0.71 0,1.08 0,0.37 0,0.63 0.06,0.92 a 13.24,13.24 0 0 0 0.52,2.52 z"
         style="fill:#e3b4a1;stroke:#ae5536;stroke-width:2px;stroke-linecap:round;stroke-linejoin:round"
         id="path415" />
      <text
         class="cls-5"
         transform="translate(22.05,99.77)"
         style="font-weight:bold;font-size:14px;font-family:Arial-BoldMT, Arial;white-space:pre;fill:#0e0e0e"
         id="text421"><tspan
           id="tspan417" /><tspan
           style="stroke:#0e0e0e"
           id="tspan419">Kidney</tspan></text>
      <text
         x="109.874"
         y="53.793999"
         style="font-size:24px;font-family:sans-serif;white-space:pre;fill:#333333"
         id="text423" />
      <text
         x="97.834999"
         y="87.777"
         style="font-size:24px;font-family:sans-serif;white-space:pre;fill:#333333"
         id="text425" />
    </symbol>
  </defs>
  <title
     id="title430">NaPO4_170927_Kidney Zoom</title>
  <g
     id="Text_und_Pfeile"
     data-name="Text und Pfeile"
     transform="matrix(0.69269,0,0,0.729614,1.6232384e-4,6.2591976e-5)">
    <use
       width="161.72"
       height="202.21001"
       transform="scale(0.47000012)"
       xlink:href="#Kidey_zoom"
       id="use432"
       x="0"
       y="0" />
  </g>
</svg>
