<svg 
	viewBox="386.479 11.3473 84.660004 97.772255" 
	width="84.660004" 
	height="97.772255" 
	xmlns="http://www.w3.org/2000/svg" 
	xmlns:xlink="http://www.w3.org/1999/xlink">
  <defs>
    <style>
		.cls-1{fill:#fdeabf;}
		.cls-2{font-size:14px;font-family:Arial-BoldMT, Arial;font-weight:700;}
		.cls-30,.cls-31,.cls-32{stroke:#c34a29;}
		.cls-30,.cls-31,.cls-32{stroke-linecap:round;}
		.cls-30,.cls-31,.cls-32{stroke-linejoin:round;}
		.cls-30,.cls-31,.cls-32{stroke-width:2px;}
		.cls-30{fill:#ebd4cd;}
		.cls-31{fill:#b5d8e1;}
		.cls-32{fill:#e3b4a1;}
	</style>
	</defs>
		<circle 
			class="cls-1" 
			cy="67.305092"
			cx="428.80899" 
			r="42.33" />
		<text 
			transform="scale(1.0061457,0.99389184)"
			y="100.89907"
			x="404.3472"
			style="font-size:14px;white-space:pre;"
			class="cls-2">Kidney</text>
		<path 
			class="cls-30" 
			d="m 453.56453,51.364548 c 0,27.383747 -20.52534,42.409016 -36.19685,31.016602 -13.32925,-9.691689 -1.40159,-22.597636 -1.40159,-22.597636 -1.18806,-1.457092 -2.08264,-3.125835 -2.63387,-4.915924 -0.23987,-0.765702 -0.40354,-1.553981 -0.48915,-2.350726 0,-0.269971 -0.0564,-0.567222 -0.0564,-0.855066 0,-0.287844 0,-0.67822 0,-1.003691 0.064,-0.805211 0.23517,-1.599133 0.50796,-2.360133 0.57569,-1.565269 1.5474,-2.960278 2.822,-4.051451 0,0 -8.72938,-0.232345 -12.06875,-9.877 -2.822,-8.084089 1.70261,-22.970139 20.00798,-22.040761 19.68815,0.984878 29.50871,25.52499 29.50871,39.035786 z"/>
		<path 
			class="cls-32" 
			d="m 413.34163,54.858184 c -0.0818,0.02822 -0.16744,0.04703 -0.25398,0.0555 l -5.23011,0.706441 c -2.5445,0.351809 -4.44089,2.49747 -4.44935,5.036329 v 31.788889 c 0,1.645226 -1.80232,2.673377 -3.2453,1.850292 -0.66882,-0.381911 -1.08177,-1.08647 -1.08177,-1.850292 v -31.78889 c 0.0132,-4.672291 3.4927,-8.627795 8.17439,-9.291905 v 0 l 5.23011,-0.706441 c 0.10347,-0.0085 0.20695,-0.0085 0.31042,0 0,0.325471 0,0.660348 0,1.003691 0,0.344284 0,0.585095 0.0564,0.855066 0.0856,0.793923 0.25022,1.578439 0.48915,2.34132 z"/>
		<path 
			class="cls-31" 
			d="m 412.39438,50.857528 c 0,0.287844 0,0.585095 0.0564,0.854126 h -0.0564 c -1.87946,-0.03857 -3.73633,-0.419538 -5.47468,-1.124097 -4.01007,-1.664039 -7.00891,-5.073015 -8.11796,-9.226999 -0.36215,-1.606659 1.17113,-2.996964 2.75992,-2.504055 0.73748,0.229523 1.2953,0.828727 1.46368,1.574676 1.18712,4.201017 5.0843,7.089805 9.50073,7.043712 0.15427,0.0047 0.30854,0.02352 0.46093,0.0555 -0.27374,0.761 -0.44494,1.554922 -0.50796,2.360133 -0.0847,0.297251 -0.0847,0.622721 -0.0847,0.967005 z"/>
		<g 
			id="Group_Resized_W84px" 
			transform="matrix(0.32915587,0,0,0.29593492,410.02313,17.171447)"/>
</svg>