<svg 
	xmlns="http://www.w3.org/2000/svg" 
	xmlns:xlink="http://www.w3.org/1999/xlink" 
	viewBox="0 0 108 135.98">
<defs>
	<style>
		.cls-1{fill:#fdeabf;}
		.cls-2{font-size:14px;font-family:Arial-BoldMT, Arial;font-weight:700;}
		.cls-3{fill:#a1dce4;}
		.cls-3,.cls-4,.cls-5{stroke:#c34a29;}
		.cls-3,.cls-4,.cls-5{stroke-linecap:round;}
		.cls-3,.cls-4,.cls-5{stroke-linejoin:round;}
		.cls-3,.cls-4{stroke-width:2px;}
		.cls-4{fill:#f1d3cc;}
		.cls-5{fill:none;}
	</style>
	<symbol 
		id="Lungs" 
		data-name="Lungs" 
		viewBox="0 0 90 113.32">
		<g 
			id="PTH">
			<circle 
				class="cls-1" 
				cx="45" 
				cy="68.32" 
				r="45"/>
			<text 
				class="cls-2" 
				transform="translate(24.9 103.64)">Lungs</text>
		</g>
		<path 
			class="cls-3" 
			d="M76.32,39.93a2.22,2.22,0,0,0-3-.69,19.87,19.87,0,0,1-5.54,2.18c-4,.91-7.49.28-10.34-1.86-6-4.46-7.5-9.55-7.87-11.41V4.55a3.55,3.55,0,0,0-7.1,0v23.6c-.38,1.88-1.93,7-7.86,11.41a12.08,12.08,0,0,1-10.35,1.86,19.33,19.33,0,0,1-5.53-2.18A2.22,2.22,0,0,0,16.3,43a23.37,23.37,0,0,0,11.34,3.28,15.62,15.62,0,0,0,9.58-3.16A25.17,25.17,0,0,0,45.86,32h.22a25.13,25.13,0,0,0,8.65,11.09,15.6,15.6,0,0,0,9.57,3.16A23.37,23.37,0,0,0,75.64,43,2.22,2.22,0,0,0,76.32,39.93Z"/><path class="cls-4" d="M39.86,46.58c.21-7,0-35.51-5.56-35.61C26.15,10.83,14.9,22.32,9,38.55,4.35,51.13,1.41,84.73,8.09,86.29s10.58-5.73,14.79-6.53,5.4.44,10.41-3.56S39.66,53.57,39.86,46.58Z"/>
		<path 
			class="cls-4" 
			d="M50.87,46.75c0-7,1.06-35.49,6.66-35.42,8.16.11,19,12,24.48,28.35,4.22,12.72,6.12,46.39-.61,47.75s-10.4-6.06-14.58-7-5.41.27-10.3-3.88S50.86,53.75,50.87,46.75Z"/>
		<path 
			class="cls-5" 
			d="M8.09,86.29S11.27,76,20.72,71,35.79,68.6,39.64,55.6"/>
		<path 
			class="cls-5" 
			d="M19.25,71.92C10.82,67.49,6.61,53.53,6.61,53.53S11.93,49,21.46,48.65c13.3-.44,18.18,1.11,18.18,1.11"/>
		<path 
			class="cls-5" 
			d="M51.38,42.67S52,58,62.24,66.38c7.32,6,10.42,6,10.42,6S75.32,83.89,80.42,87"/>
		<path 
			class="cls-5" 
			d="M72.66,72.37S86.4,66.6,84.18,47.1"/>
	</symbol>
</defs>
<g 
	id="Group_Resized_w108px">
	<g 
		id="Group_OriginalSize">
		<use 
			width="90" 
			height="113.32" 
			transform="scale(1.2)" 
			xlink:href="#Lungs"/>
	</g>
</g>
</svg>