<svg xmlns="http://www.w3.org/2000/svg" xmlns:xlink="http://www.w3.org/1999/xlink" viewBox="0 0 112.23 107.05"><defs><style>.cls-1{fill:#faf1ce;}.cls-2{font-size:14px;font-family:Arial-BoldMT, Arial;font-weight:700;}.cls-3{fill:#e3b3a0;}.cls-3,.cls-4,.cls-5,.cls-6,.cls-7{stroke:#ae5536;stroke-linecap:round;stroke-linejoin:round;}.cls-3,.cls-4,.cls-5{stroke-width:2px;}.cls-4{fill:#e3b4a1;}.cls-5{fill:#ce8c85;}.cls-6{fill:#efd3c8;}.cls-7{fill:#e5baa9;}</style><symbol id="Plasma_2" data-name="Plasma 2" viewBox="0 0 111.73 107.05"><circle class="cls-1" cx="61.66" cy="62.05" r="45"/><text class="cls-2" transform="translate(36.26 91.29)">Arteries</text><path class="cls-3" d="M42.06,69s24.59-3,43.78-18.67c19.94-16.31,24.89-36,24.89-36S109.81,7.7,101,3.4c-10.12-5-16.49-.67-16.49-.67s-6.44,16-15.95,23.86c-13.55,11.16-33,12.25-33,12.25Z"/><ellipse class="cls-4" cx="38.78" cy="53.86" rx="8.39" ry="15.52" transform="translate(-9.99 8.85) rotate(-11.54)"/><path class="cls-5" d="M41.6,65.24a1.17,1.17,0,0,1-.45.22c-.62.13-1.84-.45-3.15-2a20.11,20.11,0,0,1-3.82-8.63A20.64,20.64,0,0,1,34,46.42c.25-1.19.88-3.84,2.37-4.15.62-.13,1.84.45,3.15,2a20.11,20.11,0,0,1,3.82,8.63C44.72,59.46,43.11,64.13,41.6,65.24Z"/><path class="cls-6" d="M47,52.19c-1.71-8.4-6.78-14.45-11.32-13.53s-6.83,8.49-5.11,16.89S37.34,70,41.88,69.06,48.71,60.59,47,52.19ZM41.6,65.24a1.25,1.25,0,0,1-.45.22c-.62.12-1.84-.45-3.16-2a20.17,20.17,0,0,1-3.81-8.63A20.58,20.58,0,0,1,34,46.43c.25-1.19.89-3.85,2.38-4.15.62-.12,1.84.45,3.16,2a20.17,20.17,0,0,1,3.81,8.63C44.72,59.46,43.11,64.14,41.6,65.24Z"/><ellipse class="cls-7" cx="14.9" cy="47.65" rx="4.04" ry="8.24" transform="translate(-33.82 36.73) rotate(-60)"/><ellipse class="cls-7" cx="7.53" cy="69.88" rx="8.24" ry="4.04" transform="translate(-40.43 18.5) rotate(-36.87)"/><ellipse class="cls-7" cx="32.5" cy="60.97" rx="8.24" ry="4.04" transform="translate(-23.72 20.81) rotate(-26.4)"/></symbol></defs><title>NaPO4_170927_Plasma Icon </title><g id="Bild"><g id="Ebene_8" data-name="Ebene 8"><use id="Plasma_2-3" data-name="Plasma 2" width="111.73" height="107.05" transform="translate(0.5)" xlink:href="#Plasma_2"/></g></g></svg>