<?xml version="1.0" encoding="UTF-8" standalone="no"?>
<svg
   xmlns:dc="http://purl.org/dc/elements/1.1/"
   xmlns:cc="http://creativecommons.org/ns#"
   xmlns:rdf="http://www.w3.org/1999/02/22-rdf-syntax-ns#"
   xmlns:svg="http://www.w3.org/2000/svg"
   xmlns="http://www.w3.org/2000/svg"
   xmlns:xlink="http://www.w3.org/1999/xlink"
   xmlns:sodipodi="http://sodipodi.sourceforge.net/DTD/sodipodi-0.dtd"
   xmlns:inkscape="http://www.inkscape.org/namespaces/inkscape"
   inkscape:version="1.0 (4035a4fb49, 2020-05-01)"
   height="104.10706"
   width="84.066002"
   sodipodi:docname="resize2.svg"
   id="svg4880"
   version="1.1"
   viewBox="0 0 84.066002 104.10706">
  <metadata
     id="metadata4884">
    <rdf:RDF>
      <cc:Work
         rdf:about="">
        <dc:format>image/svg+xml</dc:format>
        <dc:type
           rdf:resource="http://purl.org/dc/dcmitype/StillImage" />
        <dc:title>Element 7</dc:title>
      </cc:Work>
    </rdf:RDF>
  </metadata>
  <sodipodi:namedview
     inkscape:current-layer="svg4880"
     inkscape:window-maximized="1"
     inkscape:window-y="-8"
     inkscape:window-x="-8"
     inkscape:cy="66.851841"
     inkscape:cx="54"
     inkscape:zoom="5.4928631"
     showgrid="false"
     id="namedview4882"
     inkscape:window-height="1137"
     inkscape:window-width="1920"
     inkscape:pageshadow="2"
     inkscape:pageopacity="0"
     guidetolerance="10"
     gridtolerance="10"
     objecttolerance="10"
     borderopacity="1"
     bordercolor="#666666"
     pagecolor="#ffffff" />
  <defs
     id="defs4871">
    <style
       id="style4845">.cls-1{fill:#fdeabf;}.cls-2{font-size:14px;font-family:Arial-BoldMT, Arial;font-weight:700;}.cls-3{fill:#e0f4f6;stroke-width:2px;}.cls-3,.cls-4{stroke:#c34a29;stroke-linecap:round;stroke-linejoin:round;}.cls-4{fill:none;}</style>
    <symbol
       viewBox="0 0 90 111.5"
       data-name="Brain"
       id="Brain">
      <g
         id="Kidney">
        <circle
           id="circle4847"
           r="45"
           cy="66.5"
           cx="45"
           class="cls-1" />
        <text
           id="text4849"
           transform="translate(27.5,99.12)"
           class="cls-2">Brain</text>
      </g>
      <path
         id="path4852"
         d="M 45,78.41 V 2.64 A 18.19,18.19 0 0 0 33.44,1.52 c -5.57,1.54 -9.69,7.71 -9.89,11.15 0,0 -7.94,0 -12.43,9.4 a 20.09,20.09 0 0 0 1,19 c 0,0 -5.45,8.17 -1.67,17.69 4.08,10.29 11.7,11 11.7,11 A 15.58,15.58 0 0 0 30,80.64 c 6.92,3.9 13.89,0.28 15,-2.23 z"
         class="cls-3" />
      <path
         id="path4854"
         d="m 35.11,18.52 c 0,0 -5.31,-6 -12.13,-5.81"
         class="cls-4" />
      <path
         id="path4856"
         d="m 20.49,26.18 c 0,0 -0.28,6.54 5,9.47 5.28,2.93 7.81,2.79 7.81,2.79 0,0 -2.66,8.49 1.8,12.39"
         class="cls-4" />
      <path
         id="path4858"
         d="m 26.19,54.87 c 0,0 4.18,14.21 -4,14.91"
         class="cls-4" />
      <path
         id="path4860"
         d="M 45,78.41 V 2.64 A 18.12,18.12 0 0 1 56.56,1.52 c 5.57,1.53 9.69,7.7 9.89,11.14 0,0 7.94,0 12.43,9.41 a 20.05,20.05 0 0 1 -1,19 c 0,0 5.45,8.17 1.67,17.69 -4.08,10.29 -11.7,11 -11.7,11 A 15.58,15.58 0 0 1 60,80.64 c -6.92,3.9 -13.88,0.27 -15,-2.23 z"
         class="cls-3" />
      <path
         id="path4862"
         d="m 61.84,58.23 c 0,0 0.21,11.54 6,11.54"
         class="cls-4" />
      <path
         id="path4864"
         d="m 56.25,57.26 c 0,0 6.69,3.35 11.17,-2.39"
         class="cls-4" />
      <path
         id="path4866"
         d="m 58.49,30.47 c 0,0 5.21,13.53 17.87,10.86"
         class="cls-4" />
      <path
         id="path4868"
         d="m 56.5,18.52 c 0,0 3.5,-8.25 10.19,-5.86"
         class="cls-4" />
    </symbol>
  </defs>
  <title
     id="title4873">Element 7</title>
  <g
     transform="matrix(0.77838889,0,0,0.77838889,0,-0.04137759)"
     data-name="Ebene 2"
     id="Ebene_2">
    <g
       id="Icons">
      <g
         data-name="&lt;Gruppe&gt;"
         id="_Gruppe_">
        <use
           y="0"
           x="0"
           id="use4875"
           xlink:href="#Brain"
           transform="scale(1.2)"
           height="111.5"
           width="90" />
      </g>
    </g>
  </g>
</svg>
