<?xml version="1.0" encoding="UTF-8" standalone="no"?>
<svg
   xmlns:dc="http://purl.org/dc/elements/1.1/"
   xmlns:cc="http://creativecommons.org/ns#"
   xmlns:rdf="http://www.w3.org/1999/02/22-rdf-syntax-ns#"
   xmlns:svg="http://www.w3.org/2000/svg"
   xmlns="http://www.w3.org/2000/svg"
   xmlns:xlink="http://www.w3.org/1999/xlink"
   xmlns:sodipodi="http://sodipodi.sourceforge.net/DTD/sodipodi-0.dtd"
   xmlns:inkscape="http://www.inkscape.org/namespaces/inkscape"
   inkscape:version="1.0 (4035a4fb49, 2020-05-01)"
   height="100"
   width="104.36871"
   sodipodi:docname="resize.svg"
   id="svg50"
   version="1.1"
   overflow="hidden"
   viewBox="0 0 104.36871 100">
  <metadata
     id="metadata54">
    <rdf:RDF>
      <cc:Work
         rdf:about="">
        <dc:format>image/svg+xml</dc:format>
        <dc:type
           rdf:resource="http://purl.org/dc/dcmitype/StillImage" />
        <dc:title></dc:title>
      </cc:Work>
    </rdf:RDF>
  </metadata>
  <sodipodi:namedview
     inkscape:current-layer="svg50"
     inkscape:window-maximized="1"
     inkscape:window-y="-8"
     inkscape:window-x="-8"
     inkscape:cy="50"
     inkscape:cx="51.9665"
     inkscape:zoom="7.35"
     showgrid="false"
     id="namedview52"
     inkscape:window-height="1137"
     inkscape:window-width="1920"
     inkscape:pageshadow="2"
     inkscape:pageopacity="0"
     guidetolerance="10"
     gridtolerance="10"
     objecttolerance="10"
     borderopacity="1"
     bordercolor="#666666"
     pagecolor="#ffffff" />
  <defs
     id="defs44">
    <style
       id="style33">
		.cls-1{fill:#fdeabf;}
		.cls-2{font-size:14px;font-family:Arial-BoldMT, Arial;font-weight:700;}
		.cls-3,.cls-4,.cls-5,.cls-6{stroke:#c34a29;}
		.cls-3,.cls-4,.cls-5,.cls-6{stroke-linecap:round;}
		.cls-3,.cls-4,.cls-5,.cls-6{stroke-linejoin:round;}
		.cls-3,.cls-4,.cls-5{stroke-width:2px;}
		.cls-3{fill:#E3B3A0;}
		.cls-4{fill:#CE8C85;}
		.cls-5{fill:#EFD3C8;}
		.cls-6{fill:#E5BAA9;}
	</style>
    <symbol
       overflow="hidden"
       id="Arteries"
       viewBox="0 0 111.73 107.05">
      <circle
         r="45"
         cy="62.049999"
         cx="61.66"
         class="cls-1"
         id="Background_Circle" />
      <text
         transform="translate(36.26,91.29)"
         class="cls-2"
         id="Label">Arteries</text>
      <path
         d="m 42.06,69 c 0,0 24.59,-3 43.78,-18.67 19.94,-16.31 24.89,-36 24.89,-36 0,0 -0.92,-6.63 -9.73,-10.93 -10.12,-5 -16.49,-0.67 -16.49,-0.67 0,0 -6.44,16 -15.95,23.86 -13.55,11.16 -33,12.25 -33,12.25 z"
         class="cls-3"
         id="Vessel_wall" />
      <path
         d="m 41.6,65.24 c -0.1324,0.105 -0.2859,0.18 -0.45,0.22 -0.62,0.13 -1.84,-0.45 -3.15,-2 -1.9399,-2.5329 -3.2493,-5.491 -3.82,-8.63 -0.6367,-2.7613 -0.6979,-5.624 -0.18,-8.41 0.25,-1.19 0.88,-3.84 2.37,-4.15 0.62,-0.13 1.84,0.45 3.15,2 1.9399,2.5329 3.2493,5.491 3.82,8.63 1.38,6.56 -0.23,11.23 -1.74,12.34 z"
         class="cls-4"
         id="CrossSection_blood" />
      <path
         d="m 47,52.19 c -1.71,-8.4 -6.78,-14.45 -11.32,-13.53 -4.54,0.92 -6.83,8.49 -5.11,16.89 1.72,8.4 6.77,14.45 11.31,13.51 4.54,-0.94 6.83,-8.47 5.12,-16.87 z m -5.4,13.05 c -0.1336,0.1029 -0.2867,0.1778 -0.45,0.22 -0.62,0.12 -1.84,-0.45 -3.16,-2 -1.9343,-2.5351 -3.24,-5.4926 -3.81,-8.63 -0.637,-2.7578 -0.6983,-5.6174 -0.18,-8.4 0.25,-1.19 0.89,-3.85 2.38,-4.15 0.62,-0.12 1.84,0.45 3.16,2 1.9343,2.5351 3.24,5.4926 3.81,8.63 1.37,6.55 -0.24,11.23 -1.75,12.33 z"
         class="cls-5"
         id="CrossSection_wall" />
      <ellipse
         transform="rotate(-59.999988,14.899109,47.653999)"
         ry="8.2399998"
         rx="4.04"
         cy="47.650002"
         cx="14.9"
         class="cls-6"
         id="RBC_1" />
      <ellipse
         transform="rotate(-36.869978,7.534915,69.894868)"
         ry="4.04"
         rx="8.2399998"
         cy="69.879997"
         cx="7.5300002"
         class="cls-6"
         id="RBC_2" />
      <ellipse
         transform="rotate(-26.399985,32.501986,60.970385)"
         ry="4.04"
         rx="8.2399998"
         cy="60.970001"
         cx="32.5"
         class="cls-6"
         id="RBC_3" />
    </symbol>
  </defs>
  <g
     transform="matrix(0.93407058,0,0,0.93407058,-0.46202391,0.00774497)"
     id="Group_Resized_H100px">
    <g
       id="Group_OriginalSize">
      <use
         y="0"
         x="0"
         id="use46"
         transform="translate(0.5)"
         xlink:href="#Arteries"
         height="107.05"
         width="111.73" />
    </g>
  </g>
</svg>
