
<svg 
	viewBox="0 0 92.356 100" 
	xmlns="http://www.w3.org/2000/svg" 
	xmlns:xlink="http://www.w3.org/1999/xlink">
 <defs>
	<symbol 
		id="Veins" 
		data-name="Veins" 
		viewBox="0 0 90 100.55">
		<circle 
			class="cls-1" 
			cx="45" 
			cy="55.55" 
			r="45" 
			style="fill: rgb(253, 234, 191);"/>
		<path 
			class="cls-11" 
			d="M75.6,69S51,66,31.82,50.32C11.88,34,6.93,14.32,6.93,14.32S7.85,7.7,16.62,3.4c10.12-5,16.49-.67,16.49-.67s6.43,16,16,23.86c13.54,11.16,33,12.24,33,12.24Z" 
			style="fill: rgb(175, 225, 232); stroke: rgb(195, 74, 41); stroke-linecap: round; stroke-linejoin: round; stroke-width: 2px;"/>
		<path 
			class="cls-12" 
			d="M76.06,65.24a1.25,1.25,0,0,0,.46.21c.62.13,1.83-.44,3.15-2a20,20,0,0,0,3.82-8.63,20.57,20.57,0,0,0,.13-8.38c-.25-1.19-.88-3.84-2.37-4.14-.62-.13-1.84.44-3.15,2a20,20,0,0,0-3.82,8.62C73,59.46,74.56,64.13,76.06,65.24Z" 
			style="fill: rgb(114, 202, 214); stroke: rgb(195, 74, 41); stroke-linecap: round; stroke-linejoin: round; stroke-width: 2px;"/>
		<path 
			class="cls-13" 
			d="M75.78,69.06c4.54.93,9.61-5.12,11.32-13.52s-.57-16-5.11-16.88-9.61,5.13-11.32,13.53S71.24,68.15,75.78,69.06Zm-1.5-16.14a20.26,20.26,0,0,1,3.81-8.63c1.32-1.57,2.54-2.14,3.16-2,1.49.31,2.12,3,2.38,4.16a20.7,20.7,0,0,1-.14,8.37,20.13,20.13,0,0,1-3.82,8.64c-1.31,1.57-2.53,2.14-3.15,2a1.25,1.25,0,0,1-.45-.22C74.56,64.14,73,59.46,74.28,52.92Z" 
			style="fill: rgb(206, 237, 241); stroke: rgb(195, 74, 41); stroke-linecap: round; stroke-linejoin: round; stroke-width: 2px;"/>
		<text 
			class="cls-2" 
			transform="translate(24.92 84.79)" 
			style="white-space: pre; font-family: Arial-BoldMT, Arial; font-size: 14px; font-weight: bold; line-height: 22.4px; width: 36.5469px; perspective-origin: 18.2656px 0px;">
			<tspan class="cls-14" style="letter-spacing: -0.84px;">V</tspan>
			<tspan x="8.57" y="0">eins</tspan>
		</text>
	</symbol>
 </defs>
 <g 
	id="_Gruppe_" 
	data-name="&lt;Gruppe&gt;" 
	transform="matrix(0.85514854,0,0,0.82870671,-318.14947,-182.68015)">
    <use 
		y="0"
		x="0"
		width="90" 
		height="100.55" 
		transform="matrix(1.2000000476837158, 0, 0, 1.2000000476837158, 372.0400085449219, 220.4499969482422)" 
		xlink:href="#Veins"/>
 </g>
</svg>