<?xml version="1.0" encoding="utf-8"?>
<svg viewBox="0 -5.831 560 664.56" xmlns="http://www.w3.org/2000/svg" xmlns:bx="https://boxy-svg.com">
  <defs>
    <style>.cls-1{isolation:isolate;}.cls-15,.cls-2{fill:#fff;}.cls-3{fill:#fbf2f0;}.cls-20,.cls-23,.cls-32,.cls-33,.cls-4,.cls-5,.cls-6,.cls-8,.cls-9{fill:none;}.cls-11,.cls-15,.cls-19,.cls-31,.cls-33,.cls-4,.cls-8{stroke:#c34a29;}.cls-11,.cls-15,.cls-16,.cls-19,.cls-20,.cls-4,.cls-5,.cls-6,.cls-8,.cls-9{stroke-miterlimit:10;}.cls-4{stroke-width:4px;}.cls-5{stroke:#efd0c7;}.cls-5,.cls-6{stroke-width:2px;}.cls-6{stroke:#f1d3cc;}.cls-7{fill:#f9ccbf;}.cls-9{stroke:#1a4554;}.cls-10,.cls-18,.cls-22,.cls-26{fill:#1a4554;}.cls-11{fill:#f7e6e1;}.cls-12{fill:#1c8843;}.cls-13{fill:url(#Unbenannter_Verlauf_4);}.cls-14{fill:#f2987f;stroke:#d55a51;}.cls-14,.cls-24,.cls-25,.cls-31,.cls-33{stroke-linecap:round;stroke-linejoin:round;}.cls-16{fill:#c4d262;stroke:#798728;}.cls-17{fill:#f1d5ce;}.cls-18,.cls-22,.cls-23,.cls-26{font-size:20px;}.cls-18{font-family:ArialMT, Arial;}.cls-19{fill:#d47e67;}.cls-20{stroke:#ff4c00;}.cls-21{fill:#ff4c00;}.cls-22,.cls-23,.cls-26{font-family:Arial-BoldMT, Arial;font-weight:700;}.cls-23{stroke:#fff;stroke-width:3px;}.cls-24{fill:#f1ac6a;}.cls-24,.cls-25{stroke:#d46f33;}.cls-25{fill:#f7d3b0;}.cls-26{letter-spacing:0.03em;}.cls-27{letter-spacing:-0.07em;}.cls-28{letter-spacing:-0.02em;}.cls-29{letter-spacing:-0.06em;}.cls-30{fill:#fdeabf;}.cls-31{fill:#e2e9b2;stroke-width:1.5px;}.cls-33{stroke-width:0.75px;}.cls-34{mix-blend-mode:multiply;}</style>
    <linearGradient id="Unbenannter_Verlauf_4" x1="225.17" y1="24.89" x2="387.22" y2="24.89" gradientUnits="userSpaceOnUse">
      <stop offset="0" stop-color="#f2987f"/>
      <stop offset="1" stop-color="#f2987f" stop-opacity="0.1"/>
    </linearGradient>
  </defs>
  <title>Napo_Zooms_170427Zoom Intestine</title>
  <g class="cls-1">
    <g id="Ebene_30" data-name="Ebene 30">
      <g id="Rahmen-5" data-name="Rahmen">
        <rect class="cls-2" width="560" height="500"/>
      </g>
    </g>
    <g id="Zellen_HG" data-name="Zellen HG">
      <path class="cls-3" d="M404.88,227.09H159.3v3.36c0,1.85,2.85,3.36,6.34,3.36h4.59c3.48,0,6.33,2.57,6.33,5.72s-2.85,5.71-6.33,5.71h-4.59a6.26,6.26,0,1,0,0,12.52h4.59c3.48,0,6.33,2.57,6.33,5.72s-2.85,5.71-6.33,5.71h-4.59a6.26,6.26,0,1,0,0,12.52h4.59c3.48,0,6.33,2.57,6.33,5.72s-2.85,5.71-6.33,5.71h-4.59a6.26,6.26,0,1,0,0,12.52h4.59a5.22,5.22,0,0,1,.69,0,6.11,6.11,0,0,1,5.52,4.62,4.51,4.51,0,0,1,.09.53,5.49,5.49,0,0,1,0,.58,4.58,4.58,0,0,1,0,.53,6.13,6.13,0,0,1-6.3,5.19h-4.59a6.33,6.33,0,0,0-6.31,5.62c0,.21,0,.42,0,.64a5.63,5.63,0,0,0,0,.58,6.33,6.33,0,0,0,6.31,5.62h4.59a6.13,6.13,0,0,1,6.3,5.19,5.49,5.49,0,0,1,0,.58,4.58,4.58,0,0,1,0,.53,6.13,6.13,0,0,1-6.3,5.19h-4.59a6.34,6.34,0,0,0-6.31,5.62c0,.21,0,.42,0,.64a5.63,5.63,0,0,0,0,.58,6.33,6.33,0,0,0,6.31,5.62h4.59a6.14,6.14,0,0,1,6.3,5.19,5.49,5.49,0,0,1,0,.58,4.58,4.58,0,0,1,0,.53,6.13,6.13,0,0,1-6.3,5.19h-4.59a6.34,6.34,0,0,0-6.31,5.62c0,.21,0,.43,0,.64a5.63,5.63,0,0,0,0,.58,6.33,6.33,0,0,0,6.31,5.62h4.59a6.14,6.14,0,0,1,6.3,5.19,5.49,5.49,0,0,1,0,.58,4.58,4.58,0,0,1,0,.53,6.13,6.13,0,0,1-6.3,5.19h-4.59a6.34,6.34,0,0,0-6.31,5.62c0,.21,0,.42,0,.64a5.83,5.83,0,0,0,0,.59,6.33,6.33,0,0,0,6.31,5.61h4.59a6.14,6.14,0,0,1,6.3,5.2,5.49,5.49,0,0,1,0,.58,4.41,4.41,0,0,1,0,.52,6.13,6.13,0,0,1-6.3,5.19h-4.59a6.33,6.33,0,0,0-6.32,5.75c0,.17,0,.34,0,.51a6.32,6.32,0,0,0,6.34,6.26h4.59c3.48,0,6.33,2.57,6.33,5.72s-2.85,5.71-6.33,5.71h-4.59a6.26,6.26,0,1,0,0,12.52h4.59c3.48,0,6.33,2.57,6.33,5.72s-2.85,5.71-6.33,5.71h-4.59a6.26,6.26,0,1,0,0,12.52h4.59c3.48,0,6.33,2.57,6.33,5.72s-2.85,5.71-6.33,5.71h-4.59c-3.49,0-6.34,1.31-6.34,2.9v2.9H404.88a29.21,29.21,0,0,0,29.21-29.21V256.31A29.22,29.22,0,0,0,404.88,227.09Z"/>
      <path class="cls-4" d="M404.88,227.09H159.3v3.36c0,1.85,2.85,3.36,6.34,3.36h4.59c3.48,0,6.33,2.57,6.33,5.72s-2.85,5.71-6.33,5.71h-4.59a6.26,6.26,0,1,0,0,12.52h4.59c3.48,0,6.33,2.57,6.33,5.72s-2.85,5.71-6.33,5.71h-4.59a6.26,6.26,0,1,0,0,12.52h4.59c3.48,0,6.33,2.57,6.33,5.72s-2.85,5.71-6.33,5.71h-4.59a6.26,6.26,0,1,0,0,12.52h4.59a5.22,5.22,0,0,1,.69,0,6.11,6.11,0,0,1,5.52,4.62,4.51,4.51,0,0,1,.09.53,5.49,5.49,0,0,1,0,.58,4.58,4.58,0,0,1,0,.53,6.13,6.13,0,0,1-6.3,5.19h-4.59a6.33,6.33,0,0,0-6.31,5.62c0,.21,0,.42,0,.64a5.63,5.63,0,0,0,0,.58,6.33,6.33,0,0,0,6.31,5.62h4.59a6.13,6.13,0,0,1,6.3,5.19,5.49,5.49,0,0,1,0,.58,4.58,4.58,0,0,1,0,.53,6.13,6.13,0,0,1-6.3,5.19h-4.59a6.34,6.34,0,0,0-6.31,5.62c0,.21,0,.42,0,.64a5.63,5.63,0,0,0,0,.58,6.33,6.33,0,0,0,6.31,5.62h4.59a6.14,6.14,0,0,1,6.3,5.19,5.49,5.49,0,0,1,0,.58,4.58,4.58,0,0,1,0,.53,6.13,6.13,0,0,1-6.3,5.19h-4.59a6.34,6.34,0,0,0-6.31,5.62c0,.21,0,.43,0,.64a5.63,5.63,0,0,0,0,.58,6.33,6.33,0,0,0,6.31,5.62h4.59a6.14,6.14,0,0,1,6.3,5.19,5.49,5.49,0,0,1,0,.58,4.58,4.58,0,0,1,0,.53,6.13,6.13,0,0,1-6.3,5.19h-4.59a6.34,6.34,0,0,0-6.31,5.62c0,.21,0,.42,0,.64a5.83,5.83,0,0,0,0,.59,6.33,6.33,0,0,0,6.31,5.61h4.59a6.14,6.14,0,0,1,6.3,5.2,5.49,5.49,0,0,1,0,.58,4.41,4.41,0,0,1,0,.52,6.13,6.13,0,0,1-6.3,5.19h-4.59a6.33,6.33,0,0,0-6.32,5.75c0,.17,0,.34,0,.51a6.32,6.32,0,0,0,6.34,6.26h4.59c3.48,0,6.33,2.57,6.33,5.72s-2.85,5.71-6.33,5.71h-4.59a6.26,6.26,0,1,0,0,12.52h4.59c3.48,0,6.33,2.57,6.33,5.72s-2.85,5.71-6.33,5.71h-4.59a6.26,6.26,0,1,0,0,12.52h4.59c3.48,0,6.33,2.57,6.33,5.72s-2.85,5.71-6.33,5.71h-4.59c-3.49,0-6.34,1.31-6.34,2.9v2.9H404.88a29.21,29.21,0,0,0,29.21-29.21V256.31A29.22,29.22,0,0,0,404.88,227.09Z"/>
      <path class="cls-5" d="M404.88,227.09H159.3v3.36c0,1.85,2.85,3.36,6.34,3.36h4.59c3.48,0,6.33,2.57,6.33,5.72s-2.85,5.71-6.33,5.71h-4.59a6.26,6.26,0,1,0,0,12.52h4.59c3.48,0,6.33,2.57,6.33,5.72s-2.85,5.71-6.33,5.71h-4.59a6.26,6.26,0,1,0,0,12.52h4.59c3.48,0,6.33,2.57,6.33,5.72s-2.85,5.71-6.33,5.71h-4.59a6.26,6.26,0,1,0,0,12.52h4.59a5.22,5.22,0,0,1,.69,0,6.11,6.11,0,0,1,5.52,4.62,4.51,4.51,0,0,1,.09.53,5.49,5.49,0,0,1,0,.58,4.58,4.58,0,0,1,0,.53,6.13,6.13,0,0,1-6.3,5.19h-4.59a6.33,6.33,0,0,0-6.31,5.62c0,.21,0,.42,0,.64a5.63,5.63,0,0,0,0,.58,6.33,6.33,0,0,0,6.31,5.62h4.59a6.13,6.13,0,0,1,6.3,5.19,5.49,5.49,0,0,1,0,.58,4.58,4.58,0,0,1,0,.53,6.13,6.13,0,0,1-6.3,5.19h-4.59a6.34,6.34,0,0,0-6.31,5.62c0,.21,0,.42,0,.64a5.63,5.63,0,0,0,0,.58,6.33,6.33,0,0,0,6.31,5.62h4.59a6.14,6.14,0,0,1,6.3,5.19,5.49,5.49,0,0,1,0,.58,4.58,4.58,0,0,1,0,.53,6.13,6.13,0,0,1-6.3,5.19h-4.59a6.34,6.34,0,0,0-6.31,5.62c0,.21,0,.43,0,.64a5.63,5.63,0,0,0,0,.58,6.33,6.33,0,0,0,6.31,5.62h4.59a6.14,6.14,0,0,1,6.3,5.19,5.49,5.49,0,0,1,0,.58,4.58,4.58,0,0,1,0,.53,6.13,6.13,0,0,1-6.3,5.19h-4.59a6.34,6.34,0,0,0-6.31,5.62c0,.21,0,.42,0,.64a5.83,5.83,0,0,0,0,.59,6.33,6.33,0,0,0,6.31,5.61h4.59a6.14,6.14,0,0,1,6.3,5.2,5.49,5.49,0,0,1,0,.58,4.41,4.41,0,0,1,0,.52,6.13,6.13,0,0,1-6.3,5.19h-4.59a6.33,6.33,0,0,0-6.32,5.75c0,.17,0,.34,0,.51a6.32,6.32,0,0,0,6.34,6.26h4.59c3.48,0,6.33,2.57,6.33,5.72s-2.85,5.71-6.33,5.71h-4.59a6.26,6.26,0,1,0,0,12.52h4.59c3.48,0,6.33,2.57,6.33,5.72s-2.85,5.71-6.33,5.71h-4.59a6.26,6.26,0,1,0,0,12.52h4.59c3.48,0,6.33,2.57,6.33,5.72s-2.85,5.71-6.33,5.71h-4.59c-3.49,0-6.34,1.31-6.34,2.9v2.9H404.88a29.21,29.21,0,0,0,29.21-29.21V256.31A29.22,29.22,0,0,0,404.88,227.09Z"/>
      <path class="cls-3" d="M168.84,210.78c0-.12,0-.24,0-.37h0Z"/>
      <path class="cls-4" d="M168.84,210.78c0-.12,0-.24,0-.37h0Z"/>
      <path class="cls-6" d="M168.84,210.78c0-.12,0-.24,0-.37h0Z"/>
      <path class="cls-3" d="M408.31,42.67h-249V46c0,1.85,2.85,3.36,6.33,3.36h4.59c3.49,0,6.34,2.58,6.34,5.72s-2.85,5.72-6.34,5.72h-4.59a6.26,6.26,0,1,0,0,12.51h4.59c3.49,0,6.34,2.58,6.34,5.72s-2.85,5.72-6.34,5.72h-4.59a6.26,6.26,0,1,0,0,12.52h4.59c3.49,0,6.34,2.57,6.34,5.71s-2.85,5.72-6.34,5.72h-4.59a6.26,6.26,0,1,0,0,12.52h4.59c3.49,0,6.34,2.57,6.34,5.71s-2.85,5.72-6.34,5.72h-4.59a6.26,6.26,0,1,0,0,12.52h4.59c3.49,0,6.34,2.57,6.34,5.71s-2.85,5.72-6.34,5.72h-4.59a6.26,6.26,0,1,0,0,12.52h4.59c3.49,0,6.34,2.57,6.34,5.71s-2.85,5.72-6.34,5.72h-4.59a6.26,6.26,0,1,0,0,12.52h4.59c3.49,0,6.34,2.57,6.34,5.71s-2.85,5.72-6.34,5.72h-4.59a6.32,6.32,0,0,0-6.32,5.89h249a29.21,29.21,0,0,0,29.21-29.21V71.88A29.21,29.21,0,0,0,408.31,42.67Z"/>
      <path class="cls-4" d="M408.31,42.67h-249V46c0,1.85,2.85,3.36,6.33,3.36h4.59c3.49,0,6.34,2.58,6.34,5.72s-2.85,5.72-6.34,5.72h-4.59a6.26,6.26,0,1,0,0,12.51h4.59c3.49,0,6.34,2.58,6.34,5.72s-2.85,5.72-6.34,5.72h-4.59a6.26,6.26,0,1,0,0,12.52h4.59c3.49,0,6.34,2.57,6.34,5.71s-2.85,5.72-6.34,5.72h-4.59a6.26,6.26,0,1,0,0,12.52h4.59c3.49,0,6.34,2.57,6.34,5.71s-2.85,5.72-6.34,5.72h-4.59a6.26,6.26,0,1,0,0,12.52h4.59c3.49,0,6.34,2.57,6.34,5.71s-2.85,5.72-6.34,5.72h-4.59a6.26,6.26,0,1,0,0,12.52h4.59c3.49,0,6.34,2.57,6.34,5.71s-2.85,5.72-6.34,5.72h-4.59a6.26,6.26,0,1,0,0,12.52h4.59c3.49,0,6.34,2.57,6.34,5.71s-2.85,5.72-6.34,5.72h-4.59a6.32,6.32,0,0,0-6.32,5.89h249a29.21,29.21,0,0,0,29.21-29.21V71.88A29.21,29.21,0,0,0,408.31,42.67Z"/>
      <path class="cls-6" d="M408.31,42.67h-249V46c0,1.85,2.85,3.36,6.33,3.36h4.59c3.49,0,6.34,2.58,6.34,5.72s-2.85,5.72-6.34,5.72h-4.59a6.26,6.26,0,1,0,0,12.51h4.59c3.49,0,6.34,2.58,6.34,5.72s-2.85,5.72-6.34,5.72h-4.59a6.26,6.26,0,1,0,0,12.52h4.59c3.49,0,6.34,2.57,6.34,5.71s-2.85,5.72-6.34,5.72h-4.59a6.26,6.26,0,1,0,0,12.52h4.59c3.49,0,6.34,2.57,6.34,5.71s-2.85,5.72-6.34,5.72h-4.59a6.26,6.26,0,1,0,0,12.52h4.59c3.49,0,6.34,2.57,6.34,5.71s-2.85,5.72-6.34,5.72h-4.59a6.26,6.26,0,1,0,0,12.52h4.59c3.49,0,6.34,2.57,6.34,5.71s-2.85,5.72-6.34,5.72h-4.59a6.26,6.26,0,1,0,0,12.52h4.59c3.49,0,6.34,2.57,6.34,5.71s-2.85,5.72-6.34,5.72h-4.59a6.32,6.32,0,0,0-6.32,5.89h249a29.21,29.21,0,0,0,29.21-29.21V71.88A29.21,29.21,0,0,0,408.31,42.67Z"/>
      <rect class="cls-7" x="492.55" y="-20.71" width="70" height="543.89"/>
      <line class="cls-8" x1="492.55" y1="422.26" x2="492.55" y2="168.75"/>
      <polyline class="cls-8" points="492.55 78.14 492.55 -20.71 562.55 -20.71 562.55 523.19 492.55 523.19 492.55 444.05"/>
      <line class="cls-8" x1="492.55" y1="147.08" x2="492.55" y2="100.21"/>
      <line class="cls-9" x1="176.11" y1="218.98" x2="436.85" y2="218.98"/>
      <polygon class="cls-10" points="433.87 222.66 433.25 222 436.5 218.98 433.25 215.96 433.87 215.3 437.83 218.98 433.87 222.66"/>
      <g id="Neues_Symbol_5-8" data-name="Neues Symbol 5">
        <rect class="cls-11" x="244.37" y="200.73" width="13.11" height="35.9" rx="6.56" ry="6.56"/>
        <rect class="cls-11" x="262.91" y="200.73" width="13.11" height="35.9" rx="6.56" ry="6.56"/>
      </g>
      <g id="Neues_Symbol_5-9" data-name="Neues Symbol 5">
        <rect class="cls-11" x="244.37" y="472.65" width="13.11" height="35.9" rx="6.56" ry="6.56"/>
        <rect class="cls-11" x="262.91" y="472.65" width="13.11" height="35.9" rx="6.56" ry="6.56"/>
      </g>
      <polyline class="cls-9" points="125.51 225.73 108.39 225.73 108.39 478.68 125.51 478.68"/>
      <polyline class="cls-9" points="125.51 50.41 108.39 50.41 108.39 211 125.51 211"/>
      <g id="Plus">
        <circle class="cls-12" cx="241.24" cy="258.39" r="8"/>
        <path class="cls-2" d="M240.11,262.89v-3.34h-3.37v-2.31h3.37v-3.35h2.25v3.35h3.38v2.31h-3.38v3.34Z"/>
      </g>
      <g id="Plus-2" data-name="Plus">
        <circle class="cls-12" cx="379.76" cy="276.71" r="8"/>
        <path class="cls-2" d="M378.63,281.21v-3.35h-3.37v-2.31h3.37v-3.34h2.25v3.34h3.38v2.31h-3.38v3.35Z"/>
      </g>
      <g id="Plus-3" data-name="Plus">
        <circle class="cls-12" cx="381.08" cy="352.49" r="8"/>
        <path class="cls-2" d="M380,357v-3.34h-3.37v-2.31H380V348h2.25v3.35h3.38v2.31H382.2V357Z"/>
      </g>
      <g id="Plus-4" data-name="Plus">
        <circle class="cls-12" cx="302.85" cy="381.37" r="8"/>
        <path class="cls-2" d="M301.72,385.87v-3.34h-3.37v-2.31h3.37v-3.35H304v3.35h3.38v2.31H304v3.34Z"/>
      </g>
      <g id="Plus-5" data-name="Plus" transform="matrix(1, 0, 0, 1, 7.646214, -0.776169)">
        <circle class="cls-12" cx="397.94" cy="414.26" r="8"/>
        <path class="cls-2" d="M396.81,418.76v-3.34h-3.37v-2.31h3.37v-3.35h2.25v3.35h3.38v2.31h-3.38v3.34Z"/>
      </g>
      <g id="Plus-6" data-name="Plus" transform="matrix(1, 0, 0, 1, 20.039246, -7.326176)">
        <circle class="cls-12" cx="216.78" cy="301.38" r="8"/>
        <path class="cls-2" d="M215.65,305.88v-3.34h-3.37v-2.31h3.37v-3.35h2.25v3.35h3.38v2.31H217.9v3.34Z"/>
      </g>
      <g id="Plus-7" data-name="Plus">
        <circle class="cls-12" cx="245.03" cy="376.87" r="8"/>
        <path class="cls-2" d="M243.9,381.37V378h-3.37v-2.31h3.37v-3.35h2.25v3.35h3.38V378h-3.38v3.34Z"/>
      </g>
      <line style="stroke-width: 4; stroke-dasharray: 4px; fill: rgb(84, 26, 26); stroke: rgb(255, 0, 0);" x1="242.184" y1="276.745" x2="278.824" y2="245.874" transform="matrix(0.633749, -0.773539, 0.773539, 0.633749, -106.723171, 297.214957)"/>
      <line style="stroke-width: 4; fill: rgb(84, 26, 26); stroke: rgb(255, 0, 0);" x1="251.999" y1="234.334" x2="261.062" y2="241.741" transform="matrix(0.286669, -0.95803, 0.95803, 0.286669, -45.055873, 415.563301)"/>
      <line style="stroke-width: 4; fill: rgb(84, 26, 26); stroke: rgb(255, 0, 0);" x1="253.693" y1="234.902" x2="264.852" y2="239.844" transform="matrix(-0.993364, -0.115013, 0.115013, -0.993364, 493.86864, 503.498042)" bx:origin="0.696 0.526"/>
      <line style="stroke-width: 4; stroke-dasharray: 4px; fill: rgb(84, 26, 26); stroke: rgb(255, 0, 0);" x1="224.915" y1="329.738" x2="261.555" y2="298.867" transform="matrix(-0.770483, -0.63746, 0.63746, -0.770483, 230.288076, 711.519939)"/>
      <line style="stroke-width: 4; fill: rgb(84, 26, 26); stroke: rgb(255, 0, 0);" x1="215.413" y1="314.46" x2="224.476" y2="321.867" transform="matrix(-0.956641, -0.291271, 0.291271, -0.956641, 337.680596, 686.595057)"/>
      <line style="stroke-width: 4; fill: rgb(84, 26, 26); stroke: rgb(255, 0, 0);" x1="211.665" y1="310.633" x2="222.824" y2="315.575" transform="matrix(-0.119787, 0.9928, -0.9928, -0.119787, 556.693804, 132.901948)" bx:origin="0.696 0.526"/>
      <line style="stroke-width: 4; stroke-dasharray: 4px; fill: rgb(84, 26, 26); stroke: rgb(255, 0, 0);" x1="232.183" y1="400.796" x2="278.511" y2="361.106" transform="matrix(-0.648999, 0.760789, -0.760789, -0.648999, 715.523382, 422.966201)"/>
      <line style="stroke-width: 4; fill: rgb(84, 26, 26); stroke: rgb(255, 0, 0);" x1="259.167" y1="396.184" x2="268.23" y2="403.591" transform="matrix(-0.305654, 0.952143, -0.952143, -0.305654, 725.048935, 271.036122)"/>
      <line style="stroke-width: 4; fill: rgb(84, 26, 26); stroke: rgb(255, 0, 0);" x1="250.995" y1="397.727" x2="262.154" y2="402.669" transform="matrix(0.990882, 0.134735, -0.134735, 0.990882, 56.297502, -31.21396)" bx:origin="0.696 0.526"/>
    </g>
    <g id="Icons">
      <g id="Text">
        <rect class="cls-13" x="225.17" y="20.47" width="162.05" height="8.85"/>
        <g id="_Gruppe_" data-name="&lt;Gruppe&gt;">
          <circle class="cls-14" cx="147.15" cy="207.36" r="4.5"/>
        </g>
        <g id="_Gruppe_2" data-name="&lt;Gruppe&gt;">
          <circle class="cls-14" cx="150.68" cy="222.98" r="4.5"/>
        </g>
        <g id="CaBD-3" data-name="CaBD">
          <polygon class="cls-16" points="260.19 407.69 262.51 412.39 267.69 413.14 263.94 416.8 264.83 421.96 260.19 419.52 255.56 421.96 256.44 416.8 252.69 413.14 257.88 412.39 260.19 407.69"/>
        </g>
        <rect class="cls-17" x="248.64" y="286.84" width="108.17" height="54.5" rx="20" ry="20"/>
        <g id="_Gruppe_3" data-name="&lt;Gruppe&gt;">
          <rect class="cls-17" x="258.6" y="287.47" width="87" height="54.5" rx="20" ry="20"/>
          <text class="cls-18" transform="translate(273.86 335.99)" style="white-space: pre;">DNA</text>
          <g id="_Gruppe_4" data-name="&lt;Gruppe&gt;">
            <rect class="cls-19" x="269.85" y="304.23" width="45.26" height="11.25"/>
            <polyline class="cls-20" points="293.38 303.38 315.23 303.38 315.23 297.79 333.99 297.79"/>
            <polygon class="cls-21" points="331.33 301.06 330.79 300.47 333.68 297.79 330.79 295.1 331.33 294.52 334.85 297.79 331.33 301.06"/>
          </g>
        </g>
      </g>
    </g>
    <g id="Text-2" data-name="Text">
      <text class="cls-18" transform="translate(180.41 28.35)" style="white-space: pre;">Ca²</text>
      <text class="cls-22" transform="translate(212.64 21.69) scale(0.58)" style="white-space: pre;">+</text>
      <text class="cls-18" transform="translate(219.45 28.35)" style="white-space: pre;"> </text>
      <text class="cls-22" transform="translate(498.84 29.58)" style="white-space: pre;">blood</text>
      <text class="cls-23" transform="translate(76.48 21.72)" style="white-space: pre;">intestinal<tspan x="14.45" y="20">lumen</tspan></text>
      <text class="cls-22" transform="translate(76.48 21.72)" style="white-space: pre;">intestinal<tspan x="14.45" y="20">lumen</tspan></text>
      <text class="cls-18" transform="matrix(0, -1, 1, 0, 73.160004, 195.940002)" style="white-space: pre;">transcellualar<tspan x="20.01" y="20" style="font-size: 20px; word-spacing: 0px;">transport</tspan></text>
      <text class="cls-18" transform="translate(73.16 402.48) rotate(-90)" style="white-space: pre;">hormone <tspan x="-1.67" y="20">regulation</tspan></text>
      <g id="_Gruppe_5" data-name="&lt;Gruppe&gt;">
        <path class="cls-24" d="M510,427.1a5.45,5.45,0,0,0,0,10.9h9.45V427Z"/>
      </g>
      <g id="_Gruppe_8" data-name="&lt;Gruppe&gt;">
        <path class="cls-25" d="M338.67,438.8H316.73a5.5,5.5,0,0,1-5.5-5.5h0a5.49,5.49,0,0,1,5.51-5.5l21.93.06a5.47,5.47,0,0,0,0,10.94Z"/>
      </g>
      <g id="_Gruppe_9" data-name="&lt;Gruppe&gt;">
        <path class="cls-24" d="M338.83,427.89a5.46,5.46,0,0,0,0,10.91h9.46v-11Z"/>
      </g>
      <text class="cls-18" transform="translate(521.34 454.42)" style="white-space: pre;">D</text>
      <text class="cls-26" transform="translate(535.78 460.08) scale(0.58)" style="white-space: pre;">3</text>
      <text class="cls-18" transform="translate(341.94 459.73)" style="white-space: pre;">D</text>
      <text class="cls-26" transform="translate(356.39 465.39) scale(0.58)" style="white-space: pre;">3</text>
      <text class="cls-18" transform="translate(293.11 459.73)" style="white-space: pre;">VDR</text>
      <polygon class="cls-16" points="260.211 148.063 262.531 152.763 267.711 153.513 263.961 157.163 264.841 162.333 260.211 159.893 255.571 162.333 256.461 157.163 252.711 153.513 257.891 152.763 260.211 148.063"/>
      <polygon class="cls-16" points="271.376 168.101 273.696 172.801 278.876 173.551 275.126 177.211 276.016 182.371 271.376 179.931 266.746 182.371 267.626 177.211 263.876 173.551 269.066 172.801 271.376 168.101"/>
      <polygon class="cls-16" points="243.739 174.395 246.059 179.085 251.239 179.835 247.489 183.495 248.379 188.655 243.739 186.215 239.109 188.655 239.989 183.495 236.239 179.835 241.419 179.085 243.739 174.395"/>
      <circle class="cls-14" cx="492.55" cy="157.92" r="4.5"/>
      <line class="cls-9" x1="353.44" y1="157.92" x2="470.99" y2="157.92"/>
      <polygon class="cls-10" points="468.01 161.6 467.39 160.94 470.64 157.92 467.39 154.9 468.01 154.24 471.96 157.92 468.01 161.6"/>
      <circle class="cls-14" cx="339.64" cy="160.03" r="4.5"/>
      <path class="cls-9" d="M342.87,143.71s19,2,19.08,14.79c.12,13.84-14.23,17.18-18.12,17.83"/>
      <polygon class="cls-10" points="346.06 172.11 346.78 172.64 344.16 176.22 347.93 178.57 347.45 179.34 342.87 176.47 346.06 172.11"/>
      <text class="cls-18" transform="translate(301.33 148.97)" style="white-space: pre;"><tspan class="cls-27">A</tspan><tspan x="11.86" y="0">T</tspan><tspan class="cls-28" x="24.07" y="0">P</tspan></text>
      <text class="cls-18" transform="translate(505.25 162.42)" style="white-space: pre;">Ca²</text>
      <text class="cls-22" transform="translate(537.48 155.76) scale(0.58)" style="white-space: pre;">+</text>
      <text class="cls-18" transform="translate(544.29 162.42)" style="white-space: pre;"> </text>
      <text class="cls-18" transform="translate(115.54 190.4)" style="white-space: pre;">Ca²</text>
      <text class="cls-22" transform="translate(147.77 183.74) scale(0.58)" style="white-space: pre;">+</text>
      <text class="cls-18" transform="translate(154.58 190.4)" style="white-space: pre;"> </text>
      <text class="cls-18" transform="translate(187.98 164.54)" style="white-space: pre;">CaBD</text>
      <text class="cls-26" transform="translate(241.33 170.2) scale(0.58)" style="white-space: pre;">9k</text>
      <circle class="cls-15" cx="418.21" cy="158.1" r="34"/>
      <text class="cls-18" transform="translate(389.87 164.53)" style="white-space: pre;">PMC<tspan class="cls-29" x="44.44" y="0">A</tspan></text>
      <line class="cls-9" x1="356.42" y1="85.34" x2="462.42" y2="85.34"/>
      <polygon class="cls-10" points="459.44 89.02 458.83 88.36 462.08 85.34 458.83 82.32 459.44 81.66 463.4 85.34 459.44 89.02"/>
      <line class="cls-9" x1="454.65" y1="67.79" x2="347.67" y2="67.79"/>
      <polygon class="cls-10" points="350.65 64.11 351.27 64.77 348.02 67.79 351.27 70.81 350.65 71.47 346.7 67.79 350.65 64.11"/>
      <circle class="cls-14" cx="490.55" cy="88.87" r="4.5"/>
      <circle class="cls-14" cx="330.28" cy="84.07" r="4.5"/>
      <circle class="cls-14" cx="343.9" cy="92.06" r="4.5"/>
      <text class="cls-18" transform="translate(457.5 72.9)" style="white-space: pre;">Na</text>
      <text class="cls-22" transform="translate(483.06 66.24) scale(0.58)" style="white-space: pre;">+</text>
      <text class="cls-18" transform="translate(489.87 72.9)" style="white-space: pre;"> </text>
      <ellipse class="cls-15" cx="164.32" cy="90.33" rx="7.05" ry="16"/>
      <line class="cls-9" x1="147.72" y1="92.33" x2="264.18" y2="92.33"/>
      <polygon class="cls-10" points="261.2 96.01 260.58 95.35 263.84 92.33 260.58 89.31 261.2 88.65 265.16 92.33 261.2 96.01"/>
      <path class="cls-2" d="M244.67,74.33H164.32c3.9,0,7.05,7.16,7.05,16s-3.15,16-7.05,16h80.35c3.9,0,7.06-7.15,7.06-16S248.57,74.33,244.67,74.33Z"/>
      <path class="cls-2" d="M244.67,74.33H164.32c3.9,0,7.05,7.16,7.05,16s-3.15,16-7.05,16h80.35c3.9,0,7.06-7.15,7.06-16S248.57,74.33,244.67,74.33Z"/>
      <path class="cls-8" d="M244.67,74.33H164.32c3.9,0,7.05,7.16,7.05,16s-3.15,16-7.05,16h80.35c3.9,0,7.06-7.15,7.06-16S248.57,74.33,244.67,74.33Z"/>
      <g id="_Gruppe_10" data-name="&lt;Gruppe&gt;">
        <circle class="cls-14" cx="132.63" cy="87.98" r="4.5"/>
      </g>
      <g id="_Gruppe_11" data-name="&lt;Gruppe&gt;">
        <circle class="cls-14" cx="141.3" cy="76.84" r="4.5"/>
      </g>
      <g id="_Gruppe_12" data-name="&lt;Gruppe&gt;">
        <circle class="cls-14" cx="138.83" cy="101.23" r="4.5"/>
      </g>
      <g id="CAP-7" data-name="CAP">
        <circle class="cls-14" cx="283.02" cy="88.42" r="4.5"/>
      </g>
      <g id="CAP-8" data-name="CAP">
        <circle class="cls-14" cx="269.35" cy="104.99" r="4.5"/>
      </g>
      <g id="CAP-9" data-name="CAP">
        <circle class="cls-14" cx="473.44" cy="96.56" r="4.5"/>
      </g>
      <text class="cls-18" transform="translate(175.79 97.46)" style="white-space: pre;">TRPV6</text>
      <text class="cls-18" transform="translate(115.54 128.66)" style="white-space: pre;">Ca²</text>
      <text class="cls-22" transform="translate(147.77 122) scale(0.58)" style="white-space: pre;">+</text>
      <text class="cls-18" transform="translate(154.58 128.66)" style="white-space: pre;"> </text>
      <text class="cls-18" transform="translate(505.25 93.37)" style="white-space: pre;">Ca²</text>
      <text class="cls-22" transform="translate(537.48 86.71) scale(0.58)" style="white-space: pre;">+</text>
      <text class="cls-18" transform="translate(544.29 93.37)" style="white-space: pre;"> </text>
      <text class="cls-18" transform="translate(244.22 130.71)" style="white-space: pre;">Ca²</text>
      <text class="cls-22" transform="translate(276.45 124.05) scale(0.58)" style="white-space: pre;">+</text>
      <text class="cls-18" transform="translate(283.25 130.71)" style="white-space: pre;"> </text>
      <text class="cls-18" transform="translate(331.14 113.68)" style="white-space: pre;">Ca²</text>
      <text class="cls-22" transform="translate(363.37 107.02) scale(0.58)" style="white-space: pre;">+</text>
      <text class="cls-18" transform="translate(370.18 113.68)" style="white-space: pre;"> </text>
      <circle class="cls-15" cx="415.26" cy="77.58" r="34"/>
      <text class="cls-18" transform="translate(388.58 83.01)" style="white-space: pre;">NCX1</text>
      <g id="Intestine_klein" data-name="Intestine klein" transform="matrix(1, 0, 0, 1, -15.519568, -16.194332)">
        <circle class="cls-30" cx="51" cy="69.55" r="30"/>
        <path class="cls-31" d="M38.8,98.51a1.4,1.4,0,0,0,.4,1.13c2,2,9.26,1.84,14.07,1.75a48.89,48.89,0,0,1,7.55.19c8.72,1.3,10.65,8,10.73,8.3a3,3,0,0,1-2.1,3.69,3.13,3.13,0,0,1-.79.11,3,3,0,0,1-2.9-2.21c-.09-.29-1.17-3.27-5.83-4a48.37,48.37,0,0,0-6.55-.12c-6.86.13-14.63.29-18.42-3.51a7.31,7.31,0,0,1-2.14-5.49,5.93,5.93,0,0,1,1.87-4.25C38.12,90.86,45.47,91,54,91.25c5.77.14,14.49.35,16.37-1.57a.58.58,0,0,0,.19-.51c-1.62-1.4-10.66-.84-15.54-.54-9.4.58-17.52,1.09-21.39-2.39a6.28,6.28,0,0,1-2.11-4.47,5.9,5.9,0,0,1,1.74-4.55c3.64-3.68,12.37-3.39,21.61-3.07,5.3.18,11.89.41,13.73-.6,1.34-.74,1.76-1.83,1.62-2.33s-1.4-1.08-3.45-1l-12.63.56v0a66.93,66.93,0,0,1-14.74-1.06C23.3,66.25,24.9,54.11,24.9,54.11A17.53,17.53,0,0,1,36.49,38.59c5.54-2,7.49-2,8.28-4.29s-3.05-8.54-3.05-8.54S40.23,23,44.19,21.34c3.77-1.58,5.19.6,5.19.6l3.32,6.64A15.82,15.82,0,0,1,62,25.52c7.3,0,12.11,7,11.38,17.05C72.61,53.13,64,59.4,51.59,59.29a32.45,32.45,0,0,1-17.65-5.65s-3,5.42,4.69,8.56a39.61,39.61,0,0,0,14.3,2.66h0l.14,0,13.38-.6c7.3-.32,9.12,4,9.49,5.36,1,3.44-.89,7.22-4.51,9.21-3.27,1.8-9.55,1.59-16.82,1.33a114.94,114.94,0,0,0-11.89,0c-4.21.34-5.13,1.18-5.26,1.32a.07.07,0,0,1,0,0,.28.28,0,0,0,.12.28c2,1.79,11,1.23,17,.86,8.85-.55,16.48-1,20,2.13a5.67,5.67,0,0,1,1.92,4,6.63,6.63,0,0,1-1.89,5.06c-3.71,3.78-12,3.58-20.8,3.37C49.33,97.14,40,96.91,38.8,98.51Z"/>
        <path class="cls-32" d="M38.56,66.09s1.08-.84.89-3.58"/>
        <path class="cls-32" d="M45.75,67.88s1.08-.85.9-3.59"/>
        <path class="cls-32" d="M42.53,65.91s.13,3.21-1.43,4.28"/>
        <path class="cls-32" d="M49.66,66.92s.25,2.87-1.32,4"/>
        <ellipse class="cls-33" cx="45.83" cy="24.09" rx="2.1" ry="0.91" transform="translate(-5.17 15.17) rotate(-17.8)"/>
      </g>
      <g id="g-1" data-name="CAP" transform="matrix(1, 0, 0, 1, 10.865973, 73.809624)">
        <circle class="cls-14" cx="269.35" cy="104.99" r="4.5" style="fill: rgb(242, 152, 127); stroke: rgb(213, 90, 81); stroke-linecap: round; stroke-linejoin: round;"/>
      </g>
      <g id="g-2" data-name="CAP" transform="matrix(1, 0, 0, 1, -6.761605, 73.836266)">
        <circle class="cls-14" cx="269.35" cy="104.99" r="4.5" style="fill: rgb(242, 152, 127); stroke: rgb(213, 90, 81); stroke-linecap: round; stroke-linejoin: round;"/>
      </g>
      <g id="g-3" data-name="CAP" transform="matrix(1, 0, 0, 1, -25.476658, 86.362976)">
        <circle class="cls-14" cx="269.35" cy="104.99" r="4.5" style="fill: rgb(242, 152, 127); stroke: rgb(213, 90, 81); stroke-linecap: round; stroke-linejoin: round;"/>
      </g>
      <line style="fill: rgb(26, 69, 84); stroke: rgb(255, 235, 4); stroke-width: 2;" x1="322.133" y1="483.057" x2="433.702" y2="409.987" transform="matrix(-0.835989, -0.548747, 0.548747, -0.835989, 494.731191, 1013.838987)"/>
      <line style="fill: rgb(26, 69, 84); stroke: rgb(255, 235, 4); stroke-width: 2;" x1="356.857" y1="435.877" x2="373.746" y2="441.846" transform="matrix(-0.94088, -0.338741, 0.338741, -0.94088, 560.345969, 975.519966)"/>
      <line style="fill: rgb(26, 69, 84); stroke: rgb(255, 235, 4); stroke-width: 2;" x1="353.099" y1="424.926" x2="368.122" y2="434.748" transform="matrix(-0.279277, 0.960211, -0.960211, -0.279277, 878.066782, 201.117817)" bx:origin="0.696 0.526"/>
      <line style="fill: rgb(26, 69, 84); stroke: rgb(255, 235, 4); stroke-width: 2;" x1="300.087" y1="403.825" x2="364.416" y2="361.833" transform="matrix(0.556022, -0.831167, 0.831167, 0.556022, -173.529428, 444.800768)"/>
      <line style="fill: rgb(26, 69, 84); stroke: rgb(255, 235, 4); stroke-width: 2;" x1="315.561" y1="348.223" x2="332.45" y2="354.192" transform="matrix(0.346939, -0.937888, 0.937888, 0.346939, -117.79792, 533.240478)"/>
      <line style="fill: rgb(26, 69, 84); stroke: rgb(255, 235, 4); stroke-width: 2;" x1="322.332" y1="344.371" x2="337.355" y2="354.193" transform="matrix(-0.957737, -0.287647, 0.287647, -0.957737, 550.967905, 780.027565)" bx:origin="0.696 0.526"/>
    </g>
    <g id="Zoom_Rahmen" data-name="Zoom Rahmen">
      <g id="Neues_Symbol_2-5" data-name="Neues Symbol 2">
        <g id="Kidney_klein-8" data-name="Kidney klein">
          <circle class="cls-32" cx="50" cy="50" r="30"/>
        </g>
        <rect class="cls-32" width="560" height="500"/>
      </g>
    </g>
  </g>
  <line style="stroke-width: 4; stroke-dasharray: 4px; fill: rgb(84, 26, 26); stroke: rgb(255, 0, 0);" x1="364.218" y1="316.299" x2="405.93" y2="281.539" transform="matrix(0.867022, 0.49827, -0.49827, 0.867022, 199.517064, -153.643308)"/>
  <line style="stroke-width: 4; fill: rgb(84, 26, 26); stroke: rgb(255, 0, 0);" x1="405.385" y1="285.533" x2="414.448" y2="292.94" transform="matrix(0.992078, 0.125627, -0.125627, 0.992078, 39.583488, -49.205146)"/>
  <line style="stroke-width: 4; fill: rgb(84, 26, 26); stroke: rgb(255, 0, 0);" x1="403.486" y1="291.411" x2="414.645" y2="296.353" transform="matrix(-0.049499, -0.998774, 0.998774, -0.049499, 137.959183, 719.312269)" bx:origin="0.696 0.526"/>
  <line style="stroke-width: 4; stroke-dasharray: 4px; fill: rgb(84, 26, 26); stroke: rgb(255, 0, 0);" x1="364.743" y1="347.36" x2="405.639" y2="313.259" transform="matrix(0.56451, 0.825427, -0.825427, 0.56451, 439.986877, -176.560057)"/>
  <line style="stroke-width: 4; fill: rgb(84, 26, 26); stroke: rgb(255, 0, 0);" x1="406.241" y1="327.711" x2="415.304" y2="335.118" transform="matrix(0.839021, 0.544099, -0.544099, 0.839021, 246.448063, -170.150153)"/>
  <line style="stroke-width: 4; fill: rgb(84, 26, 26); stroke: rgb(255, 0, 0);" x1="402.136" y1="333.695" x2="413.295" y2="338.637" transform="matrix(0.389267, -0.921125, 0.921125, 0.389267, -59.428125, 582.957799)" bx:origin="0.696 0.526"/>
  <text style="fill: rgb(51, 51, 51); font-size: 20px; white-space: pre;" x="37.117" y="568.258">VDR: vitamin D receptor</text>
  <text style="fill: rgb(51, 51, 51); font-size: 20px; white-space: pre;" x="36.222" y="600.978">CaBD: calbindin</text>
  <text style="fill: rgb(51, 51, 51); font-size: 20px; white-space: pre;" x="299.256" y="569.601">NCX1: Ca/Na exchanger</text>
  <text style="fill: rgb(51, 51, 51); font-size: 20px; white-space: pre;" transform="matrix(1, 0, 0, 1, -19.93615, 3.757252)"><tspan x="318.347" y="597.931">PMCA: plasma membrane <tspan x="318.34698486328125" dy="1em">​</tspan>            Ca ATPase</tspan><tspan x="318.34698486328125" dy="1em">​</tspan><tspan x="318.34698486328125" dy="1em">​</tspan></text>
  <text style="fill: rgb(51, 51, 51); font-size: 20px; white-space: pre;" x="54.043" y="640.997" transform="matrix(1, 0, 0, 1, -18.247307, -8.064659)">TRPV: transient receptor <tspan x="54.042999267578125" dy="1em">​</tspan>            potential </text>
  <circle class="cls-15" cx="450.837" cy="286.748" r="34" style="fill: rgb(255, 255, 255); stroke: rgb(195, 74, 41); stroke-miterlimit: 10;"/>
  <circle class="cls-15" cx="452.631" cy="358.919" r="34" style="fill: rgb(255, 255, 255); stroke: rgb(195, 74, 41); stroke-miterlimit: 10;"/>
  <text class="cls-18" style="white-space: pre; font-family: ArialMT, Arial; font-size: 20px; line-height: 32px; width: 57.7969px; perspective-origin: 28.8906px 0px; fill: rgb(26, 69, 84);" x="422.322" y="367.146">PMC<tspan class="cls-29" x="466.762" y="367.146" style="letter-spacing: -1.2px; font-size: 20px; word-spacing: 0px;">A</tspan></text>
  <text class="cls-18" style="white-space: pre; font-family: ArialMT, Arial; font-size: 20px; line-height: 32px; width: 53.3281px; perspective-origin: 26.6562px 0px; fill: rgb(26, 69, 84);" x="424.173" y="294.642">NCX1</text>
  <ellipse class="cls-15" cx="125.192" cy="315.498" rx="7.05" ry="16" style="fill: rgb(255, 255, 255); stroke: rgb(195, 74, 41); stroke-miterlimit: 10;"/>
  <path class="cls-8" d="M 206.543 299.499 L 126.193 299.499 C 130.093 299.499 133.243 306.659 133.243 315.499 C 133.243 324.339 130.093 331.499 126.193 331.499 L 206.543 331.499 C 210.443 331.499 213.603 324.349 213.603 315.499 C 213.603 306.649 210.443 299.499 206.543 299.499 Z" style="fill: none; stroke: rgb(195, 74, 41); stroke-miterlimit: 10;"/>
  <path class="cls-2" d="M 206.313 299.44 L 125.963 299.44 C 129.863 299.44 133.013 306.6 133.013 315.44 C 133.013 324.28 129.863 331.44 125.963 331.44 L 206.313 331.44 C 210.213 331.44 213.373 324.29 213.373 315.44 C 213.373 306.59 210.213 299.44 206.313 299.44 Z" style="fill: rgb(255, 255, 255);"/>
  <text class="cls-18" style="white-space: pre; font-family: ArialMT, Arial; font-size: 20px; line-height: 32px; width: 64.4219px; perspective-origin: 32.2031px 0px; fill: rgb(26, 69, 84);" x="137.255" y="321.513">TRPV6</text>
  <text transform="matrix(1, 0, 0, 0.999999, -17.260689, 11.581767)" style="fill: rgb(51, 51, 51); white-space: pre;" x="297.237" y="238.207">claudines</text>
</svg>