<?xml version="1.0" encoding="utf-8"?>
<!-- Generator: Adobe Illustrator 21.1.0, SVG Export Plug-In . SVG Version: 6.00 Build 0)  -->
<svg version="1.1" id="Ebene_1" xmlns="http://www.w3.org/2000/svg" xmlns:xlink="http://www.w3.org/1999/xlink" x="0px" y="0px"
	 viewBox="0 0 93.4 95" style="enable-background:new 0 0 93.4 95;" xml:space="preserve">
<style type="text/css">
	.st0{fill:#FAF1CE;}
	.st1{fill:#F0F7F9;}
	.st2{fill:none;}
	.st3{fill:none;stroke:#AE5536;stroke-width:2;stroke-linecap:round;stroke-linejoin:round;}
	.st4{fill:none;stroke:#AE5536;stroke-linecap:round;stroke-miterlimit:10;}
	.st5{fill:#FFFFFF;stroke:#AE5536;stroke-width:2;stroke-linecap:round;stroke-linejoin:round;}
	.st6{fill:#E9F3F6;stroke:#AE5536;stroke-width:2;stroke-linecap:round;stroke-linejoin:round;}
	.st7{fill:#BCDCE3;stroke:#AE5536;stroke-linecap:round;stroke-linejoin:round;}
	.st8{fill:#DDEDF1;stroke:#AE5536;stroke-linecap:round;stroke-linejoin:round;}
	.st9{fill:none;stroke:#AE5536;stroke-width:3;stroke-linecap:round;stroke-linejoin:round;}
	.st10{enable-background:new    ;}
</style>
<symbol  id="Rapid_Bone" viewBox="-46.7 -47.5 93.4 95">
	<circle class="st0" cx="-1.7" cy="2.5" r="45"/>
	<path class="st1" d="M45.7-20.4c-1.7,20.5-25.3,8.1-25.3,8.1s-0.6-0.6-3.4,0.4l-62.6,22.6c-0.1-0.4-0.1-0.8-0.2-1.2
		c-1.3-6.8-0.9-13.8,1.4-20.3l7.9-2.9l36.4-13.2l5.5-2c1.1-0.6,1.9-1.5,2.4-2.6c0,0,0.6-16.1,13.5-15c11.5,0.9,10.3,13.9,10.3,13.9
		S46.7-32.5,45.7-20.4z"/>
	<path class="st2" d="M34.7-22.6c0,0-5-1.4-3.2-9.8"/>
	<path class="st3" d="M1-27.1l4.3-1.6c1.1-0.6,1.9-1.5,2.4-2.6c0,0,0.6-16.1,13.6-15c11.5,0.9,10.3,13.9,10.3,13.9s15.2,0,14.2,12.1
		c-1.7,20.5-25.3,8.1-25.3,8.1s-0.6-0.6-3.4,0.4l-61.3,22.1"/>
	<line class="st3" x1="-43.5" y1="-11.1" x2="-38.6" y2="-12.8"/>
	<path class="st4" d="M34.7-22.6c0,0-5.4-1.8-3.6-10.2"/>
	<path class="st5" d="M-3.3-24.3v0.1c0,0.5,0,1.1-0.1,1.6c-0.8,8-7.2,14.4-15.2,15.1c-0.5,0-1,0.1-1.5,0.1c-8.3,0-15.3-6-16.6-14.2
		c-0.1-0.9-0.2-1.8-0.2-2.6v-0.1c0-9.3,7.5-16.9,16.9-16.9S-3.3-33.6-3.3-24.3L-3.3-24.3z"/>
	<path class="st6" d="M-3.3-24.3v0.1c0,0.5,0,1.1-0.1,1.6c-0.8,8-7.2,14.4-15.2,15.1h-3.4c-7.5-0.9-13.6-6.6-14.8-14.1l31.1-11.4
		C-4.2-30.3-3.4-27.3-3.3-24.3L-3.3-24.3z"/>
	<path class="st7" d="M-3.3-24.3v0.1c0,0.5,0,1.1-0.1,1.6c-0.8,8-7.2,14.4-15.2,15.1c-0.5,0-1,0.1-1.5,0.1c-6.7,0-12.8-4-15.5-10.2
		L-4-29C-3.6-27.5-3.3-25.9-3.3-24.3z"/>
	<path class="st8" d="M-3.4-22.5c-0.8,8-7.2,14.4-15.2,15.1c-0.5,0-1,0.1-1.5,0.1c-4.4,0-8.6-1.7-11.7-4.7L-3.4-22.5z"/>
	<path class="st9" d="M-3.3-24.3v0.1c0,0.5,0,1.1-0.1,1.6c-0.8,8-7.2,14.4-15.2,15.1c-0.5,0-1,0.1-1.5,0.1c-8.3,0-15.3-6-16.6-14.2
		c-0.1-0.9-0.2-1.8-0.2-2.6v-0.1c0-9.3,7.5-16.9,16.9-16.9S-3.3-33.6-3.3-24.3L-3.3-24.3z"/>
	<text transform="matrix(1 0 0 1 -23.0264 18.3125)" style="font-family:'Arial-BoldMT'; font-size:13.9985px;">Rapid-</text>
	<text transform="matrix(1 0 0 1 -18.7471 33.3105)" style="font-family:'Arial-BoldMT'; font-size:13.9985px;">Bone</text>
</symbol>
<title>NaPo4_170823_Rapid Bone Icon</title>
<g id="Bild">
	<g id="Ebene_6">
		
			<use xlink:href="#Rapid_Bone"  width="93.4" height="95" id="Rapid_Bone-3" x="-46.7" y="-47.5" transform="matrix(1.0001 0 0 1.0001 46.725 47.495)" style="overflow:visible;"/>
	</g>
</g>
</svg>
