<?xml version="1.0" encoding="iso-8859-1"?>
<!-- Generator: Adobe Illustrator 19.0.0, SVG Export Plug-In . SVG Version: 6.00 Build 0)  -->
<svg version="1.1" id="Layer_1" xmlns="http://www.w3.org/2000/svg" xmlns:xlink="http://www.w3.org/1999/xlink" x="0px" y="0px"
	 viewBox="0 0 496.158 496.158" style="enable-background:new 0 0 496.158 496.158;" xml:space="preserve">
<path style="fill:#EDC92F;" d="M248.082,0.003C111.07,0.003,0,111.063,0,248.085c0,137.001,111.07,248.07,248.082,248.07
	c137.006,0,248.076-111.069,248.076-248.07C496.158,111.062,385.088,0.003,248.082,0.003z"/>
<g>
	<path style="fill:#B27E5B;" d="M394.818,382.733c-7.312-27.279-69.907-49.333-147.073-49.333s-139.095,22.054-146.407,49.333
		c-3.259,12.158-6.961,35.192-10.126,57.525c42.747,34.934,97.358,55.897,156.87,55.897c59.509,0,114.117-20.963,156.863-55.896
		C401.78,417.926,398.078,394.891,394.818,382.733z"/>
	<path style="fill:#B27E5B;" d="M247.829,316.996l-37.662,18.417c0,0,16.829,28.073,37.621,28.073s38.205-28.073,38.205-28.073
		L247.829,316.996z"/>
	<path style="fill:#B27E5B;" d="M286.969,282.118h-77.78c12.136,36.588,0.977,53.294,0.977,53.294l26.913,17.334h22l26.913-17.333
		C285.992,335.412,274.832,318.706,286.969,282.118z"/>
</g>
<path style="fill:#261D17;" d="M248.08,61.579c-48.741,0-88.254,21.167-88.254,113.596c0,31.266,6.191,55.765,15.462,74.673
	c20.396,41.598,55.7,56.136,72.792,56.136s52.395-14.538,72.791-56.136c9.271-18.908,15.461-43.407,15.461-74.673
	C336.332,82.746,296.819,61.579,248.08,61.579z"/>
<path style="fill:#B27E5B;" d="M248.08,61.579c-48.415,0-87.725,20.885-88.249,111.75c-0.003,0.612,7.556,1.228,7.556,1.846
	c0,31.266,12.36,97.904,80.693,97.904s80.691-66.638,80.691-97.904c0-0.703,7.559-1.402,7.554-2.097
	C335.73,82.425,296.449,61.579,248.08,61.579z"/>
<path style="fill:#261D17;" d="M248.08,61.579c-48.741,0-88.254,21.167-88.254,113.596l86.753-69.596l89.753,69.596
	C336.332,82.746,296.819,61.579,248.08,61.579z"/>
<g>
	<path style="fill:#FFFFFF;" d="M321.743,162.13l-9.365-0.137l3.895,10.99c0,1.142,0.927,2.067,2.067,2.067h3.403
		c1.145,0,2.068-0.926,2.068-2.067v-8.785C323.811,163.056,322.888,162.13,321.743,162.13z"/>
	<path style="fill:#FFFFFF;" d="M260.287,169.372h-26.403c-0.242,0,4.793,10.417,4.988,10.417l18.949-0.001
		C258.017,179.787,260.532,169.372,260.287,169.372z"/>
	<path style="fill:#FFFFFF;" d="M256.641,181.096c-2.618-1.846-5.792-2.887-9.173-2.887c-2.577,0-5.031,0.605-7.212,1.709
		c-3.427,1.732-3.656,9.614-3.656,9.614l0.227-0.475c1.955-4.083,6.135-6.72,10.642-6.72s8.686,2.638,10.642,6.72l0.227,0.475
		C258.337,189.533,259.149,182.864,256.641,181.096z"/>
	<path style="fill:#FFFFFF;" d="M208.579,153.506c-18.461,0-33.428,5.744-33.428,24.207c0,18.461,4.078,29.605,22.541,29.605
		c25.044,0,44.312-6.148,44.312-24.609C242.005,164.246,227.042,153.506,208.579,153.506z M197.692,201.862
		c-15.447,0-17.086-8.703-17.086-24.149c0-15.448,12.524-18.75,27.973-18.75c15.447,0,27.972,8.298,27.972,23.746
		C236.551,198.155,222.736,201.862,197.692,201.862z"/>
	<path style="fill:#FFFFFF;" d="M174.415,162.13c-1.145,0-2.068,0.926-2.068,2.068v8.785c0,1.142,0.924,2.067,2.068,2.067h3.4
		c1.141,0,2.068-0.926,2.068-2.067l3.893-10.99L174.415,162.13z"/>
</g>
<path style="fill:#2E3535;" d="M208.579,158.963c-15.448,0-27.973,3.302-27.973,18.75c0,15.446,1.639,24.149,17.086,24.149
	c25.044,0,38.858-3.707,38.858-19.153C236.551,167.261,224.026,158.963,208.579,158.963z"/>
<path style="fill:#343A3A;" d="M208.579,158.963c-15.448,0-27.973,3.302-27.973,18.75c0,15.446,1.639,24.149,17.086,24.149
	l28.073-38.604C221.023,160.423,215.058,158.963,208.579,158.963z"/>
<path style="fill:#FFFFFF;" d="M286.905,153.506c-18.463,0-33.426,10.74-33.426,29.203c0,18.461,19.269,24.609,44.312,24.609
	c18.463,0,22.541-11.144,22.541-29.605C320.333,159.25,305.368,153.506,286.905,153.506z M297.792,201.862
	c-25.044,0-38.858-3.707-38.858-19.153c0-15.448,12.524-23.746,27.972-23.746c15.448,0,27.973,3.302,27.973,18.75
	C314.878,193.159,313.239,201.862,297.792,201.862z"/>
<path style="fill:#2E3535;" d="M286.905,158.963c-15.447,0-27.972,8.298-27.972,23.746c0,15.446,13.814,19.153,38.858,19.153
	c15.447,0,17.086-8.703,17.086-24.149C314.878,162.265,302.353,158.963,286.905,158.963z"/>
<path style="fill:#343A3A;" d="M286.905,158.963c-15.447,0-27.972,8.298-27.972,23.746c0,10.733,6.67,15.798,19.145,17.89
	l32.022-35.607C305.073,160.253,296.56,158.963,286.905,158.963z"/>
<g>
	<path style="fill:#B27E5B;" d="M161.396,178.019c-8.438,1.443-14.856,5.077-10.096,32.922
		c4.761,27.846,10.673,29.141,19.112,27.698L161.396,178.019z"/>
	<path style="fill:#B27E5B;" d="M334.86,178.019l-9.016,60.62c8.438,1.443,14.351,0.148,19.112-27.698
		C349.717,183.096,343.298,179.462,334.86,178.019z"/>
</g>
<g>
	<path style="fill:#261D17;" d="M286.476,254.198c-0.143-2.993-0.517-6.064-1.545-9.232c-0.531-1.574-1.211-3.197-2.227-4.771
		c-0.256-0.393-0.53-0.783-0.827-1.167c-0.152-0.192-0.289-0.373-0.489-0.599l-0.45-0.514l-0.087-0.1l-0.23-0.239
		c-0.121-0.128-0.243-0.247-0.367-0.365c-0.248-0.235-0.501-0.45-0.756-0.652c-0.513-0.397-1.035-0.72-1.545-1.001
		c-2.056-1.094-3.927-1.518-5.681-1.77c-1.754-0.239-3.403-0.273-4.999-0.19c-3.186,0.167-6.162,0.763-9.02,1.646
		c-2.857,0.865-5.582,2.049-8.184,3.5c-2.587,1.494-5.09,3.178-7.304,5.503c3.142,0.589,6.058,0.734,8.924,0.825
		c2.853,0.057,5.623-0.001,8.308-0.135l7.739-0.363c1.217-0.033,2.39-0.049,3.438-0.008c1.037,0.043,1.975,0.148,2.483,0.235
		c0.128,0.015,0.225,0.032,0.298,0.025c0.036-0.005,0.068-0.013,0.092-0.024c0.012-0.006,0.025-0.013,0.032-0.021l0.008-0.007
		l0.004-0.002c0.061,0.057-0.08-0.082-0.061-0.062l0.013,0.011l0.101,0.086l0.201,0.172l0.087,0.069
		c0.046,0.026,0.137,0.114,0.217,0.186c0.162,0.149,0.323,0.312,0.483,0.488c0.639,0.705,1.29,1.584,1.852,2.603
		c1.152,2.03,2.104,4.472,2.938,7.017c0.851,2.553,1.573,5.236,2.334,7.964c0.753,2.728,1.506,5.522,2.51,8.274
		C285.915,265.875,286.709,260.196,286.476,254.198z"/>
	<path style="fill:#261D17;" d="M246.088,238.743c-2.602-1.451-5.326-2.635-8.184-3.5c-2.857-0.883-5.834-1.479-9.02-1.646
		c-1.596-0.083-3.245-0.049-4.999,0.19c-1.754,0.252-3.625,0.676-5.681,1.77c-0.51,0.281-1.032,0.604-1.545,1.001
		c-0.255,0.202-0.508,0.417-0.756,0.652c-0.124,0.118-0.246,0.237-0.367,0.365l-0.23,0.239l-0.087,0.1l-0.45,0.514
		c-0.2,0.226-0.337,0.406-0.489,0.599c-0.297,0.384-0.571,0.774-0.827,1.167c-1.016,1.574-1.695,3.197-2.227,4.771
		c-1.028,3.168-1.402,6.239-1.545,9.232c-0.232,5.998,0.562,11.677,1.71,17.381c1.004-2.752,1.757-5.547,2.51-8.274
		c0.761-2.728,1.483-5.411,2.334-7.964c0.833-2.545,1.785-4.986,2.938-7.017c0.562-1.019,1.213-1.897,1.852-2.603
		c0.16-0.176,0.321-0.339,0.483-0.488c0.08-0.071,0.171-0.159,0.217-0.186l0.087-0.069l0.201-0.172l0.101-0.086l0.013-0.011
		c0.02-0.02-0.121,0.119-0.061,0.062l0.004,0.002l0.008,0.007c0.007,0.008,0.021,0.015,0.032,0.021
		c0.023,0.012,0.056,0.02,0.092,0.024c0.073,0.007,0.17-0.011,0.298-0.025c0.509-0.087,1.446-0.192,2.483-0.235
		c1.049-0.041,2.222-0.025,3.438,0.008l7.739,0.363c2.685,0.134,5.455,0.191,8.308,0.135c2.866-0.091,5.782-0.236,8.924-0.825
		C251.178,241.921,248.675,240.237,246.088,238.743z"/>
</g>
<g>
</g>
<g>
</g>
<g>
</g>
<g>
</g>
<g>
</g>
<g>
</g>
<g>
</g>
<g>
</g>
<g>
</g>
<g>
</g>
<g>
</g>
<g>
</g>
<g>
</g>
<g>
</g>
<g>
</g>
</svg>
