<?xml version="1.0" encoding="iso-8859-1"?>
<!-- Generator: Adobe Illustrator 19.0.0, SVG Export Plug-In . SVG Version: 6.00 Build 0)  -->
<svg version="1.1" id="Layer_1" xmlns="http://www.w3.org/2000/svg" xmlns:xlink="http://www.w3.org/1999/xlink" x="0px" y="0px"
	 viewBox="0 0 496.158 496.158" style="enable-background:new 0 0 496.158 496.158;" xml:space="preserve">
<path style="fill:#A3D5E0;" d="M248.082,0.003C111.07,0.003,0,111.063,0,248.085c0,137.001,111.07,248.07,248.082,248.07
	c137.006,0,248.076-111.069,248.076-248.07C496.158,111.062,385.088,0.003,248.082,0.003z"/>
<path style="fill:#261D17;" d="M394.818,382.733c-7.312-27.279-69.907-49.333-147.073-49.333s-139.095,22.054-146.407,49.333
	c-3.259,12.158-6.962,35.192-10.126,57.525c42.747,34.934,97.357,55.897,156.87,55.897c59.509,0,114.116-20.963,156.862-55.896
	C401.78,417.926,398.077,394.891,394.818,382.733z"/>
<path style="fill:#703A24;" d="M286.969,282.118h-77.78c12.136,36.588,0.978,53.294,0.978,53.294l26.912,6.063h22l26.912-6.062
	C285.991,335.412,274.833,318.706,286.969,282.118z"/>
<path style="fill:#86492C;" d="M248.08,61.579c-44.047,0-79.754,21.167-79.754,113.596c0,31.266,5.595,55.765,13.973,74.673
	c18.432,41.598,50.335,56.136,65.781,56.136s47.349-14.538,65.78-56.136c8.377-18.908,13.972-43.407,13.972-74.673
	C327.832,82.746,292.125,61.579,248.08,61.579z"/>
<path style="fill:#B20D0D;" d="M258.511,257.746c-2.971-0.439-10.432,2.5-10.432,2.5s-7.566-2.931-10.561-2.48
	c-4.798,0.722-11.939,8.953-11.939,10.313c0,0,10.074,5.25,22.5,5.25s22.5-5.25,22.5-5.25S263.382,258.466,258.511,257.746z"/>
<path style="fill:#9B0B0B;" d="M254.206,264.411c-1.951-0.105-4.461,1.668-6.127,1.668c-1.925,0-4.809-1.753-7.025-1.617
	c-13.15,0.81-15.475,3.617-15.475,3.617s10.074,9.125,22.5,9.125s22.5-9.125,22.5-9.125S267.862,265.144,254.206,264.411z"/>
<path style="fill:#703A24;" d="M285.911,335.412c0,0-8.915,17.333-38.123,17.333c-29.209,0-37.543-17.333-37.543-17.333
	s-64.014,106,37.91,106S285.911,335.412,285.911,335.412z"/>
<path style="fill:#4F2516;" d="M248.12,422.746l-4.666,18.579c0.953,0.037,2.641,0.088,4.667,0.088c2.056,0,3.763-0.053,4.706-0.089
	L248.12,422.746z"/>
<path style="fill:#703A24;" d="M247.829,316.996l-37.662,18.417c0,0,16.828,28.073,37.62,28.073s38.204-28.073,38.204-28.073
	L247.829,316.996z"/>
<g>
	<path style="fill:#86492C;" d="M169.766,177.962c-7.624,1.304-13.423,4.587-9.122,29.746c4.303,25.159,9.645,26.329,17.268,25.025
		L169.766,177.962z"/>
	<path style="fill:#86492C;" d="M326.491,177.962l-8.146,54.771c7.625,1.304,12.967,0.134,17.268-25.025
		S334.114,179.266,326.491,177.962z"/>
</g>
<g>
	<circle style="fill:#261D17;" cx="267.409" cy="256.749" r="2.333"/>
	<circle style="fill:#261D17;" cx="294.579" cy="81.079" r="21"/>
	<circle style="fill:#261D17;" cx="263.579" cy="74.079" r="21"/>
	<circle style="fill:#261D17;" cx="232.579" cy="74.079" r="21"/>
	<circle style="fill:#261D17;" cx="201.579" cy="81.079" r="21"/>
	<path style="fill:#261D17;" d="M201.579,96.079c-19,19.5,5,30,5,30c3.5-16.5,17.5-13.5,17.5-13.5c44.5,1,77-12,77-12
		C262.579,68.579,201.579,96.079,201.579,96.079z"/>
	<path style="fill:#261D17;" d="M281.517,310.066c0,0-14.866,8.583-33.438,8.583s-33.438-8.583-33.438-8.583
		c0,1.502-0.188,7.08-0.188,8.583c0,7.332,15.054,13.276,33.625,13.276s33.625-5.944,33.625-13.276
		C281.704,317.146,281.517,311.569,281.517,310.066z"/>
</g>
<g>
</g>
<g>
</g>
<g>
</g>
<g>
</g>
<g>
</g>
<g>
</g>
<g>
</g>
<g>
</g>
<g>
</g>
<g>
</g>
<g>
</g>
<g>
</g>
<g>
</g>
<g>
</g>
<g>
</g>
</svg>
