<?xml version="1.0" encoding="iso-8859-1"?>
<!-- Generator: Adobe Illustrator 16.0.0, SVG Export Plug-In . SVG Version: 6.00 Build 0)  -->
<!DOCTYPE svg PUBLIC "-//W3C//DTD SVG 1.1//EN" "http://www.w3.org/Graphics/SVG/1.1/DTD/svg11.dtd">
<svg version="1.1" id="Capa_1" xmlns="http://www.w3.org/2000/svg" xmlns:xlink="http://www.w3.org/1999/xlink" x="0px" y="0px"
	 width="106.06px" height="106.06px" viewBox="0 0 106.06 106.06" style="enable-background:new 0 0 106.06 106.06;"
	 xml:space="preserve">
<g>
	<path d="M53.029,0.001c-13.587,0-27.173,5.17-37.515,15.512C-5.173,36.2-5.171,69.858,15.516,90.546
		c10.341,10.343,23.927,15.513,37.513,15.513s27.172-5.172,37.517-15.519c20.686-20.684,20.684-54.339,0.002-75.022
		C80.202,5.173,66.615,0.001,53.029,0.001z M84.758,84.757C76.01,93.505,64.52,97.878,53.029,97.88
		c-11.49,0-22.98-4.373-31.728-13.119c-2.188-2.188-4.101-4.547-5.741-7.033C4.078,60.317,5.993,36.609,21.301,21.3
		c8.748-8.747,20.238-13.12,31.728-13.12s22.98,4.373,31.729,13.121C102.254,38.796,102.252,67.264,84.758,84.757z M24.688,52.313
		c-1.212-1.133-1.274-3.033-0.142-4.246c1.132-1.213,3.018-1.291,4.247-0.143c3.251,3.053,6.589,0.242,6.959-0.088
		c1.105-0.99,2.741-1.012,3.867-0.119c0.133,0.104,0.259,0.223,0.376,0.354c1.106,1.236,1.001,3.135-0.235,4.242
		C37.096,54.698,30.552,57.798,24.688,52.313z M81.502,48.036c1.105,1.236,1.001,3.135-0.235,4.242
		c-2.664,2.385-9.208,5.484-15.072,0c-1.212-1.133-1.273-3.033-0.142-4.246s3.018-1.291,4.247-0.143
		c3.251,3.053,6.589,0.242,6.959-0.088c1.104-0.99,2.741-1.012,3.867-0.119C81.259,47.786,81.384,47.905,81.502,48.036z
		 M77.017,79.333c0.658,1.521-0.041,3.287-1.563,3.945c-1.52,0.66-3.284-0.041-3.942-1.563c-2.895-6.688-9.731-11.013-17.422-11.013
		c-7.867,0-14.746,4.32-17.523,11.007c-0.479,1.151-1.596,1.85-2.771,1.85c-0.383,0-0.773-0.073-1.149-0.229
		c-1.53-0.637-2.255-2.393-1.62-3.922c3.711-8.933,12.764-14.703,23.064-14.703C64.175,64.704,73.175,70.446,77.017,79.333z"/>
</g>
<g>
</g>
<g>
</g>
<g>
</g>
<g>
</g>
<g>
</g>
<g>
</g>
<g>
</g>
<g>
</g>
<g>
</g>
<g>
</g>
<g>
</g>
<g>
</g>
<g>
</g>
<g>
</g>
<g>
</g>
</svg>
