<?xml version="1.0" encoding="UTF-8" standalone="no"?>
<svg
   xmlns:dc="http://purl.org/dc/elements/1.1/"
   xmlns:cc="http://creativecommons.org/ns#"
   xmlns:rdf="http://www.w3.org/1999/02/22-rdf-syntax-ns#"
   xmlns:svg="http://www.w3.org/2000/svg"
   xmlns="http://www.w3.org/2000/svg"
   viewBox="0 0 570.70667 268.34668"
   height="268.34668"
   width="570.70667"
   xml:space="preserve"
   id="svg2"
   version="1.1"><metadata
     id="metadata8"><rdf:RDF><cc:Work
         rdf:about=""><dc:format>image/svg+xml</dc:format><dc:type
           rdf:resource="http://purl.org/dc/dcmitype/StillImage" /></cc:Work></rdf:RDF></metadata><defs
     id="defs6" /><g
     transform="matrix(1.3333333,0,0,-1.3333333,0,268.34667)"
     id="g10"><g
       transform="scale(0.1)"
       id="g12"><path
         id="path14"
         style="fill:#872743;fill-opacity:1;fill-rule:nonzero;stroke:none"
         d="m 1226.48,1230.69 h -52.79 c -1.35,0 -2.7,0.9 -3.61,2.26 l -70.84,113.25 c -1.35,1.8 -2.7,3.15 -4.06,3.15 -1.36,0 -2.7,-0.9 -3.6,-2.25 l -14.45,-19.4 c -2.25,-3.16 -3.6,-6.32 -3.6,-10.82 v -81.68 c 0,-3.15 -1.36,-4.51 -4.51,-4.51 h -42.87 c -3.17,0 -4.51,1.36 -4.51,4.51 v 275.24 c 0,3.15 1.34,4.51 4.51,4.51 h 42.87 c 3.15,0 4.51,-1.36 4.51,-4.51 v -100.17 c 0,-3.16 1.8,-5.42 4.06,-5.42 1.35,0 2.7,0.91 4.06,2.72 l 80.32,105.57 c 0.9,0.91 2.24,1.81 3.6,1.81 h 51.89 c 3.16,0 4.96,-1.36 4.96,-3.62 0,-0.89 -0.45,-2.25 -1.35,-3.6 l -84.82,-105.14 c -1.81,-2.25 -3.17,-4.05 -3.17,-5.86 0,-1.35 0.9,-2.7 2.72,-5.85 l 92.49,-149.81 c 1.8,-3.16 3.15,-4.97 3.15,-6.77 0,-2.25 -1.8,-3.61 -4.96,-3.61" /><path
         id="path16"
         style="fill:#872743;fill-opacity:1;fill-rule:nonzero;stroke:none"
         d="m 1324.39,1230.69 h -42.86 c -3.16,0 -4.51,1.36 -4.51,4.51 v 275.24 c 0,3.15 1.35,4.51 4.51,4.51 h 42.86 c 3.16,0 4.51,-1.36 4.51,-4.51 V 1235.2 c 0,-3.15 -1.35,-4.51 -4.51,-4.51" /><path
         id="path18"
         style="fill:#872743;fill-opacity:1;fill-rule:nonzero;stroke:none"
         d="m 1531.95,1435.09 c 0,17.6 -14.89,32.49 -32.49,32.49 h -49.64 c -3.15,0 -4.51,-1.36 -4.51,-4.51 v -180.49 c 0,-3.15 1.36,-4.51 4.51,-4.51 h 49.64 c 17.6,0 32.49,13.99 32.49,32.49 z m -32.49,-204.39 h -101.52 c -3.16,0 -4.52,1.35 -4.52,4.51 v 275.23 c 0,3.16 1.36,4.51 4.52,4.51 h 101.52 c 51.44,0 83.92,-32.94 83.92,-83.92 v -116.41 c 0,-51.43 -32.48,-83.92 -83.92,-83.92" /><path
         id="path20"
         style="fill:#872743;fill-opacity:1;fill-rule:nonzero;stroke:none"
         d="m 1826.58,1230.69 h -37.45 c -1.81,0 -3.16,0.9 -4.06,2.26 l -80.77,147.09 c -1.8,3.16 -8.12,19.4 -9.48,23.01 l -1.79,-0.46 c 0.89,-10.82 2.7,-75.8 2.7,-111.44 v -55.95 c 0,-3.15 -1.36,-4.51 -4.51,-4.51 h -42.86 c -3.17,0 -4.51,1.36 -4.51,4.51 v 275.24 c 0,3.15 1.34,4.51 4.51,4.51 h 37.89 c 1.81,0 3.16,-0.9 4.06,-2.26 l 80.77,-148 c 1.81,-3.15 8.12,-19.39 9.47,-23 l 1.81,0.45 c -0.9,10.83 -2.71,75.8 -2.71,111.44 v 56.86 c 0,3.15 1.36,4.51 4.52,4.51 h 42.41 c 3.16,0 4.51,-1.36 4.51,-4.51 V 1235.2 c 0,-3.15 -1.35,-4.51 -4.51,-4.51" /><path
         id="path22"
         style="fill:#872743;fill-opacity:1;fill-rule:nonzero;stroke:none"
         d="m 2059.85,1230.69 h -159.28 c -3.15,0 -4.51,1.36 -4.51,4.51 v 275.24 c 0,3.15 1.36,4.51 4.51,4.51 h 159.28 c 3.15,0 4.51,-1.36 4.51,-4.51 v -38.35 c 0,-3.17 -1.36,-4.52 -4.51,-4.52 h -107.39 c -3.16,0 -4.51,-1.35 -4.51,-4.51 v -60.01 c 0,-3.16 1.35,-4.51 4.51,-4.51 h 87.99 c 3.16,0 4.51,-1.36 4.51,-4.51 v -38.36 c 0,-3.15 -1.35,-4.51 -4.51,-4.51 h -87.99 c -3.16,0 -4.51,-1.35 -4.51,-4.51 v -64.08 c 0,-3.15 1.35,-4.51 4.51,-4.51 h 107.39 c 3.15,0 4.51,-1.34 4.51,-4.51 v -38.35 c 0,-3.15 -1.36,-4.51 -4.51,-4.51" /><path
         id="path24"
         style="fill:#872743;fill-opacity:1;fill-rule:nonzero;stroke:none"
         d="m 2312.52,1504.12 -73.55,-137.62 c -2.26,-4.51 -3.16,-7.21 -3.16,-12.63 V 1235.2 c 0,-3.15 -1.36,-4.51 -4.52,-4.51 h -42.85 c -3.17,0 -4.52,1.36 -4.52,4.51 v 119.13 c 0,4.51 -0.45,6.76 -3.16,12.17 l -73.54,137.62 c -1.81,3.16 -3.17,5.42 -3.17,7.22 0,2.25 1.82,3.61 4.96,3.61 h 50.1 c 1.8,0 3.15,-1.36 4.05,-2.7 l 42.88,-88.44 c 0.89,-2.26 2.69,-3.62 4.05,-3.62 1.36,0 3.15,1.36 4.06,3.62 l 42.86,88.44 c 0.9,1.34 2.27,2.7 4.06,2.7 h 49.63 c 3.17,0 4.96,-1.36 4.96,-3.61 0,-1.8 -1.79,-4.51 -3.14,-7.22" /><path
         id="path26"
         style="fill:#872743;fill-opacity:1;fill-rule:nonzero;stroke:none"
         d="m 507.496,1529.72 c -80.512,-4.8 -146.293,-115.91 -139.801,-224.34 6.629,-110.88 79.008,-214.48 164.418,-209.39 45.172,2.72 85.492,31.64 82.262,85.27 -4.301,71.93 -54.09,106.88 -55.871,136.81 -2.117,35.31 43.359,61.28 38.461,143.29 -2.969,49.64 -51.68,70.64 -89.469,68.36" /><path
         id="path28"
         style="fill:#872743;fill-opacity:1;fill-rule:nonzero;stroke:none"
         d="m 702.027,1662.34 c 80.278,7.13 161.778,-93 171.411,-201.18 9.859,-110.66 -46.411,-223.84 -131.653,-231.41 -45.051,-4.04 -89.199,18.63 -93.937,72.14 -6.403,71.76 37.668,113.74 35,143.58 -3.133,35.23 -51.93,54.17 -59.203,136.01 -4.418,49.56 40.632,77.48 78.382,80.86" /><path
         id="path30"
         style="fill:#872743;fill-opacity:1;fill-rule:nonzero;stroke:none"
         d="m 1123.18,962.941 c -8.22,-10.57 -20.84,-18.781 -42.55,-18.781 h -8.8 c -32.28,0 -52.81,20.539 -52.81,49.879 V 1085 c 0,29.35 20.53,49.88 52.81,49.88 h 8.8 c 20.83,0 33.45,-7.62 41.67,-17.6 4.1,-5.29 7.04,-10.56 7.04,-11.74 0,-1.17 -0.58,-2.05 -1.77,-2.64 l -15.25,-7.63 c -1.76,-0.87 -3.81,-2.06 -4.98,-2.06 -0.88,0 -1.77,0.59 -2.35,1.77 -5.29,10.56 -14.68,16.43 -24.36,16.43 h -8.8 c -14.37,0 -26.4,-12.03 -26.4,-26.41 v -90.961 c 0,-14.379 12.03,-26.41 26.4,-26.41 h 8.8 c 9.97,0 19.07,5.871 24.65,17.019 0.59,1.172 1.47,1.762 2.35,1.762 1.17,0 2.64,-1.18 4.69,-2.051 l 15.55,-7.918 c 1.18,-0.589 1.77,-1.191 1.77,-2.062 0,-1.469 -2.65,-6.457 -6.46,-11.438" /><path
         id="path32"
         style="fill:#872743;fill-opacity:1;fill-rule:nonzero;stroke:none"
         d="m 1245.27,1085 c 0,14.38 -12.03,26.41 -26.41,26.41 h -8.8 c -14.38,0 -26.41,-12.03 -26.41,-26.41 v -90.961 c 0,-14.379 12.03,-26.41 26.41,-26.41 h 8.8 c 14.38,0 26.41,12.031 26.41,26.41 z m -26.41,-140.84 h -8.8 c -32.28,0 -52.82,20.539 -52.82,49.879 V 1085 c 0,29.35 20.54,49.88 52.82,49.88 h 8.8 c 32.28,0 52.82,-20.53 52.82,-49.88 v -90.961 c 0,-29.34 -20.54,-49.879 -52.82,-49.879" /><path
         id="path34"
         style="fill:#872743;fill-opacity:1;fill-rule:nonzero;stroke:none"
         d="m 1424.29,947.09 h -18.79 c -1.17,0 -2.05,0.59 -2.64,1.461 l -62.5,113.559 c -1.17,2.06 -4.39,8.22 -5.27,10.57 l -1.18,-0.3 c 0.59,-7.04 0.88,-44.89 0.88,-68.07 v -54.29 c 0,-2.051 -0.88,-2.93 -2.93,-2.93 h -20.54 c -2.06,0 -2.94,0.879 -2.94,2.93 v 178.99 c 0,2.05 0.88,2.94 2.94,2.94 h 18.77 c 1.17,0 2.06,-0.59 2.65,-1.47 l 62.5,-113.85 c 0.88,-1.46 4.4,-8.21 5.28,-10.57 l 1.17,0.3 c -0.58,7.05 -0.88,44.9 -0.88,68.07 v 54.58 c 0,2.05 0.88,2.94 2.93,2.94 h 20.55 c 2.05,0 2.93,-0.89 2.93,-2.94 V 950.02 c 0,-2.051 -0.88,-2.93 -2.93,-2.93" /><path
         id="path36"
         style="fill:#872743;fill-opacity:1;fill-rule:nonzero;stroke:none"
         d="m 1559.58,1108.48 h -33.75 c -2.05,0 -2.93,-0.88 -2.93,-2.94 V 950.02 c 0,-2.051 -0.88,-2.93 -2.93,-2.93 h -20.55 c -2.05,0 -2.93,0.879 -2.93,2.93 v 155.52 c 0,2.06 -0.87,2.94 -2.93,2.94 h -33.75 c -2.05,0 -2.93,0.88 -2.93,2.93 v 17.61 c 0,2.05 0.88,2.94 2.93,2.94 h 99.77 c 2.05,0 2.93,-0.89 2.93,-2.94 v -17.61 c 0,-2.05 -0.88,-2.93 -2.93,-2.93" /><path
         id="path38"
         style="fill:#872743;fill-opacity:1;fill-rule:nonzero;stroke:none"
         d="m 1680.2,1082.07 c 0,14.38 -12.03,26.41 -26.41,26.41 h -32.27 c -2.05,0 -2.94,-0.88 -2.94,-2.94 v -49.89 c 0,-2.05 0.89,-2.93 2.94,-2.93 h 32.27 c 14.38,0 26.41,12.04 26.41,26.41 z m 25.23,-134.98 h -22.58 c -1.18,0 -2.36,0.879 -2.65,2.051 l -27.29,78.349 c -0.3,1.17 -1.18,1.76 -2.35,1.76 h -29.04 c -2.05,0 -2.94,-0.88 -2.94,-2.93 v -76.3 c 0,-2.051 -0.88,-2.93 -2.93,-2.93 h -20.54 c -2.06,0 -2.94,0.879 -2.94,2.93 v 178.99 c 0,2.05 0.88,2.94 2.94,2.94 h 58.68 c 32.28,0 52.83,-20.54 52.83,-52.82 v -2.93 c 0,-15.85 -14.1,-34.34 -25.54,-39.62 -1.17,-0.58 -1.76,-1.17 -1.76,-2.34 0,-0.88 1.17,-3.82 2.35,-7.04 l 24.35,-70.419 c 1.18,-3.531 2.35,-6.172 2.35,-7.351 0,-1.461 -0.88,-2.34 -2.94,-2.34" /><path
         id="path40"
         style="fill:#872743;fill-opacity:1;fill-rule:nonzero;stroke:none"
         d="m 1826.07,1085 c 0,14.38 -12.03,26.41 -26.42,26.41 h -8.79 c -14.38,0 -26.41,-12.03 -26.41,-26.41 v -90.961 c 0,-14.379 12.03,-26.41 26.41,-26.41 h 8.79 c 14.39,0 26.42,12.031 26.42,26.41 z m -26.42,-140.84 h -8.79 c -32.29,0 -52.82,20.539 -52.82,49.879 V 1085 c 0,29.35 20.53,49.88 52.82,49.88 h 8.79 c 32.28,0 52.83,-20.53 52.83,-49.88 v -90.961 c 0,-29.34 -20.55,-49.879 -52.83,-49.879" /><path
         id="path42"
         style="fill:#872743;fill-opacity:1;fill-rule:nonzero;stroke:none"
         d="m 1991.58,947.09 h -99.77 c -2.05,0 -2.93,0.879 -2.93,2.93 v 178.99 c 0,2.05 0.88,2.94 2.93,2.94 h 20.55 c 2.05,0 2.93,-0.89 2.93,-2.94 V 973.5 c 0,-2.051 0.88,-2.93 2.93,-2.93 h 73.36 c 2.05,0 2.94,-0.879 2.94,-2.941 V 950.02 c 0,-2.051 -0.89,-2.93 -2.94,-2.93" /><path
         id="path44"
         style="fill:#872743;fill-opacity:1;fill-rule:nonzero;stroke:none"
         d="m 2157.69,1085 c 0,14.38 -12.03,26.41 -26.41,26.41 h -8.8 c -14.38,0 -26.41,-12.03 -26.41,-26.41 v -90.961 c 0,-14.379 12.03,-26.41 26.41,-26.41 h 8.8 c 14.38,0 26.41,12.031 26.41,26.41 z m -26.41,-140.84 h -8.8 c -32.28,0 -52.82,20.539 -52.82,49.879 V 1085 c 0,29.35 20.54,49.88 52.82,49.88 h 8.8 c 32.28,0 52.82,-20.53 52.82,-49.88 v -90.961 c 0,-29.34 -20.54,-49.879 -52.82,-49.879" /><path
         id="path46"
         style="fill:#872743;fill-opacity:1;fill-rule:nonzero;stroke:none"
         d="m 2323.21,1108.48 h -73.36 c -2.05,0 -2.93,-0.88 -2.93,-2.94 v -49.88 c 0,-2.05 0.88,-2.93 2.93,-2.93 h 60.16 c 2.05,0 2.93,-0.88 2.93,-2.94 v -17.6 c 0,-2.06 -0.88,-2.94 -2.93,-2.94 h -60.16 c -2.05,0 -2.93,-0.88 -2.93,-2.93 v -76.3 c 0,-2.051 -0.88,-2.93 -2.93,-2.93 h -20.55 c -2.05,0 -2.93,0.879 -2.93,2.93 v 179 c 0,2.05 0.88,2.94 2.93,2.94 h 99.77 c 2.05,0 2.93,-0.89 2.93,-2.94 v -17.61 c 0,-2.05 -0.88,-2.93 -2.93,-2.93" /><path
         id="path48"
         style="fill:#872743;fill-opacity:1;fill-rule:nonzero;stroke:none"
         d="m 2521.59,947.09 h -20.53 c -2.06,0 -2.94,0.879 -2.94,2.93 v 76.3 c 0,2.05 -0.89,2.93 -2.94,2.93 h -60.15 c -2.05,0 -2.93,-0.88 -2.93,-2.93 v -76.3 c 0,-2.051 -0.88,-2.93 -2.93,-2.93 h -20.55 c -2.05,0 -2.93,0.879 -2.93,2.93 v 178.99 c 0,2.05 0.88,2.94 2.93,2.94 h 20.55 c 2.05,0 2.93,-0.89 2.93,-2.94 v -73.36 c 0,-2.05 0.88,-2.93 2.93,-2.93 h 60.15 c 2.05,0 2.94,0.88 2.94,2.93 v 73.36 c 0,2.05 0.88,2.94 2.94,2.94 h 20.53 c 2.06,0 2.94,-0.89 2.94,-2.94 V 950.02 c 0,-2.051 -0.88,-2.93 -2.94,-2.93" /><path
         id="path50"
         style="fill:#872743;fill-opacity:1;fill-rule:nonzero;stroke:none"
         d="m 2648.97,1085 c 0,14.38 -12.03,26.41 -26.41,26.41 h -8.8 c -14.38,0 -26.41,-12.03 -26.41,-26.41 v -90.961 c 0,-14.379 12.03,-26.41 26.41,-26.41 h 8.8 c 14.38,0 26.41,12.031 26.41,26.41 z m -26.41,-140.84 h -8.8 c -32.28,0 -52.82,20.539 -52.82,49.879 V 1085 c 0,29.35 20.54,49.88 52.82,49.88 h 8.8 c 32.28,0 52.82,-20.53 52.82,-49.88 v -90.961 c 0,-29.34 -20.54,-49.879 -52.82,-49.879" /><path
         id="path52"
         style="fill:#872743;fill-opacity:1;fill-rule:nonzero;stroke:none"
         d="m 2854.4,947.09 h -20.55 c -2.05,0 -2.93,0.879 -2.93,2.93 v 51.06 c 0,23.18 2.05,61.03 2.64,68.08 l -1.17,0.29 c -1.17,-4.4 -4.11,-13.8 -7.05,-20.54 l -33.15,-73.66 c -0.58,-1.168 -1.47,-1.75 -2.64,-1.75 h -9.97 c -1.19,0 -2.06,0.582 -2.65,1.75 l -33.16,73.66 c -2.93,6.45 -5.87,16.14 -7.05,20.54 l -1.17,-0.29 c 0.59,-7.05 2.64,-44.9 2.64,-68.08 v -51.06 c 0,-2.051 -0.88,-2.93 -2.93,-2.93 h -20.54 c -2.06,0 -2.94,0.879 -2.94,2.93 v 178.99 c 0,2.05 0.88,2.94 2.94,2.94 h 18.78 c 1.17,0 2.05,-0.59 2.64,-1.76 l 44.31,-104.75 c 1.18,-2.65 2.93,-8.52 3.52,-11.74 h 0.88 c 0.59,3.22 2.34,8.21 3.82,11.74 l 44.3,104.75 c 0.59,1.17 1.47,1.76 2.64,1.76 h 18.79 c 2.05,0 2.93,-0.89 2.93,-2.94 V 950.02 c 0,-2.051 -0.88,-2.93 -2.93,-2.93" /><path
         id="path54"
         style="fill:#872743;fill-opacity:1;fill-rule:nonzero;stroke:none"
         d="m 2999.38,947.09 h -99.77 c -2.05,0 -2.93,0.879 -2.93,2.93 v 178.99 c 0,2.05 0.88,2.94 2.93,2.94 h 99.77 c 2.05,0 2.93,-0.89 2.93,-2.94 v -17.6 c 0,-2.05 -0.88,-2.93 -2.93,-2.93 h -73.36 c -2.05,0 -2.93,-0.88 -2.93,-2.94 v -49.89 c 0,-2.05 0.88,-2.93 2.93,-2.93 h 60.16 c 2.05,0 2.93,-0.87 2.93,-2.93 v -17.6 c 0,-2.06 -0.88,-2.94 -2.93,-2.94 h -60.16 c -2.05,0 -2.93,-0.88 -2.93,-2.93 V 973.5 c 0,-2.051 0.88,-2.93 2.93,-2.93 h 73.36 c 2.05,0 2.93,-0.879 2.93,-2.941 V 950.02 c 0,-2.051 -0.88,-2.93 -2.93,-2.93" /><path
         id="path56"
         style="fill:#872743;fill-opacity:1;fill-rule:nonzero;stroke:none"
         d="m 3120,1085 c 0,14.38 -12.03,26.41 -26.41,26.41 h -8.8 c -14.38,0 -26.41,-12.03 -26.41,-26.41 v -90.961 c 0,-14.379 12.03,-26.41 26.41,-26.41 h 8.8 c 14.38,0 26.41,12.031 26.41,26.41 z m -26.41,-140.84 h -8.8 c -32.28,0 -52.82,20.539 -52.82,49.879 V 1085 c 0,29.35 20.54,49.88 52.82,49.88 h 8.8 c 32.28,0 52.82,-20.53 52.82,-49.88 v -90.961 c 0,-29.34 -20.54,-49.879 -52.82,-49.879" /><path
         id="path58"
         style="fill:#872743;fill-opacity:1;fill-rule:nonzero;stroke:none"
         d="m 3235.93,944.16 h -12.32 c -23.48,0 -36.68,9.379 -44.31,21.422 -2.64,4.109 -4.11,7.039 -4.11,8.5 0,1.168 0.3,1.77 1.47,2.359 l 14.96,7.618 c 1.47,0.882 4.1,2.351 5.28,2.351 0.89,0 1.76,-0.59 2.35,-2.051 4.99,-10.859 14.68,-16.73 24.36,-16.73 h 12.32 c 14.38,0 26.41,12.031 26.41,26.41 0,18.481 -17.03,26.121 -35.5,34.621 -22.89,10.28 -48.42,22.01 -48.42,56.34 0,29.35 20.54,49.88 52.81,49.88 h 4.7 c 23.47,0 36.68,-9.68 44.6,-21.41 1.76,-2.65 4.1,-6.46 4.1,-7.93 0,-1.17 -0.58,-2.05 -1.76,-2.64 l -15.84,-7.92 c -1.75,-0.89 -3.22,-1.77 -4.4,-1.77 -0.88,0 -1.76,0.59 -2.34,1.77 -5.29,10.56 -14.68,16.43 -24.36,16.43 h -4.7 c -14.37,0 -26.4,-12.04 -26.4,-26.41 0,-17.02 18.48,-23.48 38.14,-32.57 22.01,-9.98 45.78,-23.48 45.78,-58.391 0,-29.34 -20.54,-49.879 -52.82,-49.879" /><path
         id="path60"
         style="fill:#872743;fill-opacity:1;fill-rule:nonzero;stroke:none"
         d="m 3414.07,1108.48 h -33.75 c -2.05,0 -2.93,-0.88 -2.93,-2.94 V 950.02 c 0,-2.051 -0.88,-2.93 -2.93,-2.93 h -20.55 c -2.05,0 -2.93,0.879 -2.93,2.93 v 155.52 c 0,2.06 -0.87,2.94 -2.93,2.94 h -33.75 c -2.05,0 -2.93,0.88 -2.93,2.93 v 17.61 c 0,2.05 0.88,2.94 2.93,2.94 h 99.77 c 2.05,0 2.93,-0.89 2.93,-2.94 v -17.61 c 0,-2.05 -0.88,-2.93 -2.93,-2.93" /><path
         id="path62"
         style="fill:#872743;fill-opacity:1;fill-rule:nonzero;stroke:none"
         d="m 3498,1022.5 -12.62,49.59 c -0.58,2.34 -2.94,10.57 -3.52,12.91 h -1.17 c -0.59,-2.34 -2.93,-11.15 -3.52,-13.2 l -12.62,-48.13 c -0.88,-3.51 -2.05,-6.45 -2.05,-7.92 0,-1.46 1.17,-2.63 3.22,-2.63 h 30.82 c 2.06,0 3.23,1.17 3.23,2.63 0,1.17 -0.88,3.53 -1.77,6.75 m 45.77,-75.41 h -22 c -1.47,0 -2.65,0.59 -2.94,2.051 l -10.85,38.738 c -0.29,1.473 -1.47,1.762 -2.94,1.762 h -47.54 c -1.46,0 -2.63,-0.289 -2.93,-1.762 l -10.86,-38.738 c -0.29,-1.461 -1.46,-2.051 -2.93,-2.051 h -22.01 c -2.05,0 -3.22,0.879 -3.22,2.34 0,1.191 1.46,5.582 2.93,9.98 l 51.94,170.48 c 0.29,1.47 1.47,2.06 2.94,2.06 h 15.84 c 1.47,0 2.64,-0.59 2.93,-2.06 l 52.23,-171.351 c 1.18,-3.527 2.64,-7.918 2.64,-9.109 0,-1.461 -1.17,-2.34 -3.23,-2.34" /><path
         id="path64"
         style="fill:#872743;fill-opacity:1;fill-rule:nonzero;stroke:none"
         d="m 3626.55,944.16 h -12.32 c -23.48,0 -36.68,9.379 -44.3,21.422 -2.65,4.109 -4.12,7.039 -4.12,8.5 0,1.168 0.3,1.77 1.47,2.359 l 14.97,7.618 c 1.47,0.882 4.1,2.351 5.28,2.351 0.88,0 1.75,-0.59 2.34,-2.051 5,-10.859 14.68,-16.73 24.36,-16.73 h 12.32 c 14.38,0 26.41,12.031 26.41,26.41 0,18.481 -17.02,26.121 -35.5,34.621 -22.88,10.28 -48.41,22.01 -48.41,56.34 0,29.35 20.53,49.88 52.81,49.88 h 4.69 c 23.48,0 36.68,-9.68 44.61,-21.41 1.76,-2.65 4.1,-6.46 4.1,-7.93 0,-1.17 -0.58,-2.05 -1.76,-2.64 l -15.84,-7.92 c -1.76,-0.89 -3.23,-1.77 -4.41,-1.77 -0.88,0 -1.76,0.59 -2.34,1.77 -5.28,10.56 -14.67,16.43 -24.36,16.43 h -4.69 c -14.37,0 -26.4,-12.04 -26.4,-26.41 0,-17.02 18.47,-23.48 38.14,-32.57 22,-9.98 45.77,-23.48 45.77,-58.391 0,-29.34 -20.53,-49.879 -52.82,-49.879" /><path
         id="path66"
         style="fill:#872743;fill-opacity:1;fill-rule:nonzero;stroke:none"
         d="m 3735.73,947.09 h -20.53 c -2.07,0 -2.95,0.879 -2.95,2.93 v 178.99 c 0,2.05 0.88,2.94 2.95,2.94 h 20.53 c 2.05,0 2.93,-0.89 2.93,-2.94 V 950.02 c 0,-2.051 -0.88,-2.93 -2.93,-2.93" /><path
         id="path68"
         style="fill:#872743;fill-opacity:1;fill-rule:nonzero;stroke:none"
         d="m 3831.68,944.16 h -12.32 c -23.48,0 -36.68,9.379 -44.3,21.422 -2.64,4.109 -4.12,7.039 -4.12,8.5 0,1.168 0.31,1.77 1.48,2.359 l 14.96,7.618 c 1.47,0.882 4.1,2.351 5.28,2.351 0.88,0 1.75,-0.59 2.34,-2.051 5,-10.859 14.69,-16.73 24.36,-16.73 h 12.32 c 14.38,0 26.41,12.031 26.41,26.41 0,18.481 -17.02,26.121 -35.49,34.621 -22.89,10.28 -48.42,22.01 -48.42,56.34 0,29.35 20.53,49.88 52.81,49.88 h 4.69 c 23.48,0 36.68,-9.68 44.61,-21.41 1.76,-2.65 4.1,-6.46 4.1,-7.93 0,-1.17 -0.58,-2.05 -1.76,-2.64 l -15.84,-7.92 c -1.75,-0.89 -3.22,-1.77 -4.41,-1.77 -0.88,0 -1.76,0.59 -2.34,1.77 -5.28,10.56 -14.67,16.43 -24.36,16.43 h -4.69 c -14.37,0 -26.4,-12.04 -26.4,-26.41 0,-17.02 18.47,-23.48 38.14,-32.57 22.01,-9.98 45.78,-23.48 45.78,-58.391 0,-29.34 -20.54,-49.879 -52.83,-49.879" /><path
         id="path70"
         style="fill:#872743;fill-opacity:1;fill-rule:nonzero;stroke:none"
         d="m 1050.13,599.02 h -7.4 c -8.97,0 -15.16,2.242 -19.64,5.851 -3.27,2.59 -5.69,5.859 -7.59,9.481 -0.51,1.027 -0.33,1.898 0.69,2.41 l 8.96,4.648 c 1.03,0.52 1.89,0.18 2.42,-0.859 3.44,-6.371 9.3,-9.653 15.16,-9.653 h 7.4 c 9.31,0 17.06,7.411 17.06,16.891 0,11.543 -10.52,16.531 -22.05,21.699 -13.27,6.032 -28.25,12.75 -28.25,32.731 0,16.551 12.22,28.769 30.49,28.769 h 2.75 c 10.17,0 17.06,-3.097 21.71,-7.578 2.41,-2.238 4.13,-4.82 5.68,-7.57 0.52,-1.039 0.18,-1.899 -0.86,-2.418 l -9.13,-4.481 c -0.86,-0.519 -1.54,-0.171 -2.07,0.7 -3.61,6.199 -9.47,9.468 -15.33,9.468 h -2.75 c -10.34,0 -16.88,-6.898 -16.88,-16.89 0,-10.328 11.19,-14.989 23.42,-20.489 12.93,-5.859 26.71,-13.621 26.71,-33.941 0,-16.891 -11.72,-28.769 -30.5,-28.769" /><path
         id="path72"
         style="fill:#872743;fill-opacity:1;fill-rule:nonzero;stroke:none"
         d="m 1185.87,602.121 c -0.17,-0.859 -0.86,-1.383 -1.72,-1.383 h -7.75 c -0.86,0 -1.55,0.344 -1.72,1.203 l -19.12,65.297 c -1.04,3.621 -1.72,7.582 -1.9,9.301 h -0.35 c -0.16,-1.719 -1.03,-5.68 -2.06,-9.301 l -19.3,-65.297 c -0.16,-0.859 -0.86,-1.203 -1.72,-1.203 h -7.75 c -0.87,0 -1.55,0.524 -1.73,1.383 l -22.73,105.09 c -0.35,1.371 0.34,2.07 1.72,2.07 h 11.2 c 0.86,0 1.55,-0.519 1.73,-1.39 l 13.43,-70.282 c 0.86,-4.648 1.55,-8.609 1.72,-11.199 h 0.34 c 0.35,2.59 1.21,6.371 2.42,11.02 l 19.47,70.98 c 0.17,0.871 0.86,1.211 1.72,1.211 h 3.96 c 0.86,0 1.55,-0.34 1.72,-1.211 l 19.46,-69.769 c 1.04,-3.961 1.91,-7.93 2.42,-11.719 h 0.35 c 0.51,4.308 1.2,9.137 1.72,11.898 l 12.75,69.071 c 0.17,0.871 0.86,1.39 1.72,1.39 h 11.19 c 1.39,0 2.07,-0.699 1.72,-2.07" /><path
         id="path74"
         style="fill:#872743;fill-opacity:1;fill-rule:nonzero;stroke:none"
         d="m 1242.71,600.738 h -9.98 c -1.21,0 -1.73,0.524 -1.73,1.723 v 105.09 c 0,1.211 0.52,1.73 1.73,1.73 h 9.98 c 1.21,0 1.73,-0.519 1.73,-1.73 v -105.09 c 0,-1.199 -0.52,-1.723 -1.73,-1.723" /><path
         id="path76"
         style="fill:#872743;fill-opacity:1;fill-rule:nonzero;stroke:none"
         d="m 1304.22,599.02 h -7.41 c -8.96,0 -15.16,2.242 -19.63,5.851 -3.28,2.59 -5.69,5.859 -7.59,9.481 -0.52,1.027 -0.34,1.898 0.69,2.41 l 8.96,4.648 c 1.03,0.52 1.89,0.18 2.41,-0.859 3.45,-6.371 9.3,-9.653 15.16,-9.653 h 7.41 c 9.31,0 17.06,7.411 17.06,16.891 0,11.543 -10.52,16.531 -22.05,21.699 -13.27,6.032 -28.26,12.75 -28.26,32.731 0,16.551 12.22,28.769 30.49,28.769 h 2.76 c 10.17,0 17.06,-3.097 21.71,-7.578 2.4,-2.238 4.13,-4.82 5.68,-7.57 0.51,-1.039 0.18,-1.899 -0.86,-2.418 l -9.14,-4.481 c -0.86,-0.519 -1.54,-0.171 -2.06,0.7 -3.62,6.199 -9.48,9.468 -15.33,9.468 h -2.76 c -10.34,0 -16.88,-6.898 -16.88,-16.89 0,-10.328 11.19,-14.989 23.43,-20.489 12.92,-5.859 26.71,-13.621 26.71,-33.941 0,-16.891 -11.72,-28.769 -30.5,-28.769" /><path
         id="path78"
         style="fill:#872743;fill-opacity:1;fill-rule:nonzero;stroke:none"
         d="m 1391.56,599.02 h -7.4 c -8.97,0 -15.17,2.242 -19.65,5.851 -3.27,2.59 -5.68,5.859 -7.58,9.481 -0.52,1.027 -0.34,1.898 0.68,2.41 l 8.97,4.648 c 1.03,0.52 1.89,0.18 2.41,-0.859 3.45,-6.371 9.31,-9.653 15.17,-9.653 h 7.4 c 9.3,0 17.05,7.411 17.05,16.891 0,11.543 -10.51,16.531 -22.05,21.699 -13.26,6.032 -28.25,12.75 -28.25,32.731 0,16.551 12.23,28.769 30.5,28.769 h 2.75 c 10.16,0 17.05,-3.097 21.7,-7.578 2.42,-2.238 4.14,-4.82 5.68,-7.57 0.53,-1.039 0.18,-1.899 -0.86,-2.418 l -9.12,-4.481 c -0.86,-0.519 -1.55,-0.171 -2.07,0.7 -3.61,6.199 -9.47,9.468 -15.33,9.468 h -2.75 c -10.35,0 -16.89,-6.898 -16.89,-16.89 0,-10.328 11.2,-14.989 23.43,-20.489 12.92,-5.859 26.7,-13.621 26.7,-33.941 0,-16.891 -11.72,-28.769 -30.49,-28.769" /><path
         id="path80"
         style="fill:#872743;fill-opacity:1;fill-rule:nonzero;stroke:none"
         d="m 1549.17,600.738 h -9.65 c -0.52,0 -1.21,0.344 -1.54,0.864 l -39.28,71.32 c -1.21,2.066 -2.6,5.687 -3.28,8.098 h -0.52 c 0.34,-6.211 0.52,-23.782 0.52,-42.04 v -36.519 c 0,-1.199 -0.52,-1.723 -1.72,-1.723 h -10 c -1.2,0 -1.72,0.524 -1.72,1.723 v 105.09 c 0,1.211 0.52,1.73 1.72,1.73 h 9.48 c 0.7,0 1.2,-0.359 1.56,-0.871 l 39.27,-71.84 c 0.86,-1.55 2.41,-5.172 3.1,-7.398 h 0.52 c -0.18,7.058 -0.34,27.726 -0.34,41.34 v 37.039 c 0,1.211 0.51,1.73 1.71,1.73 h 10.17 c 1.21,0 1.72,-0.519 1.72,-1.73 v -105.09 c 0,-1.199 -0.51,-1.723 -1.72,-1.723" /><path
         id="path82"
         style="fill:#872743;fill-opacity:1;fill-rule:nonzero;stroke:none"
         d="m 1613.08,678.609 c -1.54,6.2 -2.41,12.403 -2.41,12.403 h -0.52 c 0,0 -0.86,-6.032 -2.58,-12.403 l -10.34,-38.25 c -0.34,-1.199 0.17,-2.238 1.73,-2.238 h 22.22 c 1.55,0 2.07,1.039 1.72,2.238 z m 33.42,-77.871 h -10.85 c -0.87,0 -1.55,0.344 -1.73,1.203 l -6.54,23.258 c -0.18,0.86 -0.86,1.039 -1.72,1.039 h -31.02 c -0.86,0 -1.54,-0.179 -1.72,-1.039 l -6.54,-23.258 c -0.18,-0.859 -0.86,-1.203 -1.72,-1.203 h -10 c -1.54,0 -2.07,0.864 -1.72,2.242 l 32.04,105.079 c 0.17,0.863 0.86,1.211 1.73,1.211 h 7.92 c 0.86,0 1.56,-0.348 1.72,-1.211 l 31.87,-105.079 c 0.35,-1.378 -0.17,-2.242 -1.72,-2.242" /><path
         id="path84"
         style="fill:#872743;fill-opacity:1;fill-rule:nonzero;stroke:none"
         d="m 1711.44,697.379 h -20.33 c -1.2,0 -1.72,-0.52 -1.72,-1.719 v -93.199 c 0,-1.199 -0.52,-1.723 -1.72,-1.723 h -10.18 c -1.2,0 -1.71,0.524 -1.71,1.723 v 93.199 c 0,1.199 -0.51,1.719 -1.72,1.719 h -20.33 c -1.21,0 -1.72,0.519 -1.72,1.73 v 8.442 c 0,1.211 0.51,1.719 1.72,1.719 h 57.71 c 1.21,0 1.72,-0.508 1.72,-1.719 v -8.442 c 0,-1.211 -0.51,-1.73 -1.72,-1.73" /><path
         id="path86"
         style="fill:#872743;fill-opacity:1;fill-rule:nonzero;stroke:none"
         d="m 1746.4,600.738 h -9.99 c -1.2,0 -1.73,0.524 -1.73,1.723 v 105.09 c 0,1.211 0.53,1.73 1.73,1.73 h 9.99 c 1.21,0 1.72,-0.519 1.72,-1.73 v -105.09 c 0,-1.199 -0.51,-1.723 -1.72,-1.723" /><path
         id="path88"
         style="fill:#872743;fill-opacity:1;fill-rule:nonzero;stroke:none"
         d="m 1827.38,682.23 c 0,9.309 -7.59,16.879 -16.89,16.879 h -5.34 c -9.3,0 -16.88,-7.41 -16.88,-16.879 v -54.429 c 0,-9.129 7.41,-16.891 16.88,-16.891 h 5.34 c 9.14,0 16.89,7.578 16.89,16.891 z m -16.89,-83.199 h -5.34 c -18.61,0 -30.49,11.707 -30.49,28.77 v 54.429 c 0,16.879 11.88,28.77 30.49,28.77 h 5.34 c 18.61,0 30.49,-11.719 30.49,-28.77 v -54.429 c 0,-16.891 -11.88,-28.77 -30.49,-28.77" /><path
         id="path90"
         style="fill:#872743;fill-opacity:1;fill-rule:nonzero;stroke:none"
         d="m 1934.88,600.738 h -9.65 c -0.53,0 -1.21,0.344 -1.55,0.864 l -39.28,71.32 c -1.2,2.066 -2.59,5.687 -3.27,8.098 h -0.53 c 0.35,-6.211 0.53,-23.782 0.53,-42.04 v -36.519 c 0,-1.199 -0.53,-1.723 -1.72,-1.723 h -10 c -1.21,0 -1.72,0.524 -1.72,1.723 v 105.09 c 0,1.211 0.51,1.73 1.72,1.73 h 9.47 c 0.7,0 1.21,-0.359 1.56,-0.871 l 39.27,-71.84 c 0.87,-1.55 2.42,-5.172 3.1,-7.398 h 0.53 c -0.18,7.058 -0.35,27.726 -0.35,41.34 v 37.039 c 0,1.211 0.52,1.73 1.71,1.73 h 10.18 c 1.2,0 1.72,-0.519 1.72,-1.73 v -105.09 c 0,-1.199 -0.52,-1.723 -1.72,-1.723" /><path
         id="path92"
         style="fill:#872743;fill-opacity:1;fill-rule:nonzero;stroke:none"
         d="m 1998.78,678.609 c -1.55,6.2 -2.42,12.403 -2.42,12.403 h -0.51 c 0,0 -0.86,-6.032 -2.59,-12.403 l -10.34,-38.25 c -0.33,-1.199 0.18,-2.238 1.73,-2.238 h 22.22 c 1.56,0 2.07,1.039 1.72,2.238 z m 33.42,-77.871 h -10.86 c -0.86,0 -1.54,0.344 -1.72,1.203 l -6.54,23.258 c -0.18,0.86 -0.86,1.039 -1.72,1.039 h -31.02 c -0.86,0 -1.55,-0.179 -1.72,-1.039 l -6.55,-23.258 c -0.17,-0.859 -0.86,-1.203 -1.72,-1.203 h -9.99 c -1.55,0 -2.07,0.864 -1.72,2.242 l 32.03,105.079 c 0.18,0.863 0.86,1.211 1.73,1.211 h 7.92 c 0.86,0 1.56,-0.348 1.72,-1.211 l 31.88,-105.079 c 0.35,-1.378 -0.18,-2.242 -1.72,-2.242" /><path
         id="path94"
         style="fill:#872743;fill-opacity:1;fill-rule:nonzero;stroke:none"
         d="m 2115.05,600.738 h -57.54 c -1.21,0 -1.72,0.524 -1.72,1.723 v 105.09 c 0,1.211 0.51,1.73 1.72,1.73 h 10 c 1.19,0 1.72,-0.519 1.72,-1.73 v -93.199 c 0,-1.211 0.51,-1.731 1.72,-1.731 h 44.1 c 1.21,0 1.72,-0.512 1.72,-1.711 v -8.449 c 0,-1.199 -0.51,-1.723 -1.72,-1.723" /><path
         id="path96"
         style="fill:#872743;fill-opacity:1;fill-rule:nonzero;stroke:none"
         d="m 2224.26,606.43 c -4.65,-4.309 -11.37,-7.399 -21.36,-7.399 h -5.34 c -18.6,0 -30.5,11.707 -30.5,28.77 v 54.429 c 0,16.891 11.9,28.77 30.5,28.77 h 5.34 c 9.31,0 15.68,-2.59 20.32,-6.379 3.11,-2.57 5.36,-5.5 7.08,-8.781 0.5,-1.031 0.17,-1.891 -0.86,-2.41 l -9.14,-4.481 c -0.86,-0.519 -1.55,-0.179 -2.07,0.692 -3.62,6.031 -9.64,9.48 -15.33,9.48 h -5.34 c -9.31,0 -16.88,-7.422 -16.88,-16.891 v -54.429 c 0,-9.129 7.4,-16.891 16.88,-16.891 h 5.34 c 5.85,0 11.71,3.449 15.33,9.82 0.52,0.872 1.38,1.211 2.24,0.692 l 9.13,-4.652 c 1.04,-0.52 1.2,-1.211 0.7,-2.239 -1.56,-2.929 -3.45,-5.691 -6.04,-8.101" /><path
         id="path98"
         style="fill:#872743;fill-opacity:1;fill-rule:nonzero;stroke:none"
         d="m 2313.33,600.738 h -57.55 c -1.2,0 -1.72,0.524 -1.72,1.723 v 105.09 c 0,1.211 0.52,1.73 1.72,1.73 h 57.55 c 1.2,0 1.72,-0.519 1.72,-1.73 v -8.442 c 0,-1.211 -0.52,-1.73 -1.72,-1.73 h -44.1 c -1.22,0 -1.72,-0.52 -1.72,-1.719 v -32.211 c 0,-1.211 0.5,-1.719 1.72,-1.719 h 36.16 c 1.21,0 1.73,-0.519 1.73,-1.73 v -8.441 c 0,-1.207 -0.52,-1.719 -1.73,-1.719 h -36.16 c -1.22,0 -1.72,-0.52 -1.72,-1.731 v -33.757 c 0,-1.211 0.5,-1.731 1.72,-1.731 h 44.1 c 1.2,0 1.72,-0.512 1.72,-1.711 v -8.449 c 0,-1.199 -0.52,-1.723 -1.72,-1.723" /><path
         id="path100"
         style="fill:#872743;fill-opacity:1;fill-rule:nonzero;stroke:none"
         d="m 2406.18,600.738 h -9.65 c -0.52,0 -1.21,0.344 -1.54,0.864 l -39.28,71.32 c -1.21,2.066 -2.6,5.687 -3.28,8.098 h -0.52 c 0.34,-6.211 0.52,-23.782 0.52,-42.04 v -36.519 c 0,-1.199 -0.52,-1.723 -1.72,-1.723 h -10 c -1.2,0 -1.72,0.524 -1.72,1.723 v 105.09 c 0,1.211 0.52,1.73 1.72,1.73 h 9.48 c 0.7,0 1.2,-0.359 1.56,-0.871 l 39.27,-71.84 c 0.86,-1.55 2.41,-5.172 3.1,-7.398 h 0.52 c -0.18,7.058 -0.34,27.726 -0.34,41.34 v 37.039 c 0,1.211 0.51,1.73 1.71,1.73 h 10.17 c 1.21,0 1.72,-0.519 1.72,-1.73 v -105.09 c 0,-1.199 -0.51,-1.723 -1.72,-1.723" /><path
         id="path102"
         style="fill:#872743;fill-opacity:1;fill-rule:nonzero;stroke:none"
         d="m 2489.04,697.379 h -20.32 c -1.21,0 -1.73,-0.52 -1.73,-1.719 v -93.199 c 0,-1.199 -0.52,-1.723 -1.73,-1.723 h -10.16 c -1.21,0 -1.71,0.524 -1.71,1.723 v 93.199 c 0,1.199 -0.53,1.719 -1.73,1.719 h -20.33 c -1.21,0 -1.72,0.519 -1.72,1.73 v 8.442 c 0,1.211 0.51,1.719 1.72,1.719 h 57.71 c 1.2,0 1.73,-0.508 1.73,-1.719 v -8.442 c 0,-1.211 -0.53,-1.73 -1.73,-1.73" /><path
         id="path104"
         style="fill:#872743;fill-opacity:1;fill-rule:nonzero;stroke:none"
         d="m 2565,680.512 c 0,9.129 -7.58,16.879 -17.05,16.879 h -20.51 c -1.21,0 -1.72,-0.52 -1.72,-1.719 v -32.223 c 0,-1.199 0.51,-1.719 1.72,-1.719 h 20.51 c 9.3,0 17.05,7.579 17.05,17.051 z m 12.4,-79.774 h -11.36 c -0.7,0 -1.39,0.524 -1.56,1.211 l -16.2,46.86 c -0.16,0.679 -0.68,1.043 -1.37,1.043 h -19.47 c -1.21,0 -1.72,-0.52 -1.72,-1.731 v -45.66 c 0,-1.199 -0.52,-1.723 -1.72,-1.723 h -10 c -1.21,0 -1.71,0.524 -1.71,1.723 v 105.09 c 0,1.211 0.5,1.73 1.71,1.73 h 33.95 c 18.59,0 30.49,-11.89 30.49,-30.5 v -1.722 c 0,-8.957 -8.11,-19.809 -15.69,-23.079 -0.86,-0.351 -1.2,-1.039 -0.86,-1.898 l 17.06,-49.102 c 0.52,-1.378 0,-2.242 -1.55,-2.242" /><path
         id="path106"
         style="fill:#872743;fill-opacity:1;fill-rule:nonzero;stroke:none"
         d="m 2662.68,600.738 h -57.54 c -1.21,0 -1.73,0.524 -1.73,1.723 v 105.09 c 0,1.211 0.52,1.73 1.73,1.73 h 57.54 c 1.2,0 1.72,-0.519 1.72,-1.73 v -8.442 c 0,-1.211 -0.52,-1.73 -1.72,-1.73 h -44.1 c -1.21,0 -1.73,-0.52 -1.73,-1.719 v -32.211 c 0,-1.211 0.52,-1.719 1.73,-1.719 h 36.17 c 1.21,0 1.72,-0.519 1.72,-1.73 v -8.441 c 0,-1.207 -0.51,-1.719 -1.72,-1.719 h -36.17 c -1.21,0 -1.73,-0.52 -1.73,-1.731 v -33.757 c 0,-1.211 0.52,-1.731 1.73,-1.731 h 44.1 c 1.2,0 1.72,-0.512 1.72,-1.711 v -8.449 c 0,-1.199 -0.52,-1.723 -1.72,-1.723" /><path
         id="path108"
         style="fill:#872743;fill-opacity:1;fill-rule:nonzero;stroke:none"
         d="m 1066.5,512.551 c 0,9.308 -7.58,16.879 -16.88,16.879 h -5.35 c -9.29,0 -16.87,-7.41 -16.87,-16.879 v -54.43 c 0,-9.133 7.4,-16.891 16.87,-16.891 h 5.35 c 9.13,0 16.88,7.579 16.88,16.891 z m -16.88,-83.199 h -5.35 c -18.6,0 -30.48,11.707 -30.48,28.769 v 54.43 c 0,16.879 11.88,28.769 30.48,28.769 h 5.35 c 18.6,0 30.49,-11.718 30.49,-28.769 v -54.43 c 0,-16.891 -11.89,-28.769 -30.49,-28.769" /><path
         id="path110"
         style="fill:#872743;fill-opacity:1;fill-rule:nonzero;stroke:none"
         d="m 1165.72,527.711 h -44.1 c -1.21,0 -1.72,-0.52 -1.72,-1.723 V 493.77 c 0,-1.211 0.51,-1.711 1.72,-1.711 h 36.17 c 1.21,0 1.73,-0.52 1.73,-1.739 v -8.429 c 0,-1.211 -0.52,-1.719 -1.73,-1.719 h -36.17 c -1.21,0 -1.72,-0.524 -1.72,-1.731 v -45.652 c 0,-1.199 -0.53,-1.719 -1.72,-1.719 h -10 c -1.21,0 -1.72,0.52 -1.72,1.719 v 105.09 c 0,1.211 0.51,1.723 1.72,1.723 h 57.54 c 1.21,0 1.72,-0.512 1.72,-1.723 v -8.449 c 0,-1.2 -0.51,-1.719 -1.72,-1.719" /><path
         id="path112"
         style="fill:#872743;fill-opacity:1;fill-rule:nonzero;stroke:none"
         d="m 1274.08,436.75 c -4.66,-4.309 -11.38,-7.398 -21.37,-7.398 h -5.34 c -18.6,0 -30.5,11.707 -30.5,28.769 v 54.43 c 0,16.89 11.9,28.769 30.5,28.769 h 5.34 c 9.3,0 15.68,-2.59 20.33,-6.379 3.1,-2.57 5.34,-5.5 7.06,-8.781 0.52,-1.031 0.17,-1.89 -0.86,-2.41 l -9.12,-4.48 c -0.86,-0.52 -1.56,-0.18 -2.08,0.691 -3.61,6.027 -9.64,9.48 -15.33,9.48 h -5.34 c -9.31,0 -16.88,-7.421 -16.88,-16.89 v -54.43 c 0,-9.133 7.4,-16.891 16.88,-16.891 h 5.34 c 5.86,0 11.72,3.45 15.33,9.821 0.52,0.871 1.38,1.211 2.24,0.687 l 9.13,-4.648 c 1.04,-0.52 1.21,-1.211 0.69,-2.238 -1.55,-2.93 -3.44,-5.692 -6.02,-8.102" /><path
         id="path114"
         style="fill:#872743;fill-opacity:1;fill-rule:nonzero;stroke:none"
         d="m 1354.86,512.551 c 0,9.308 -7.58,16.879 -16.88,16.879 h -5.35 c -9.29,0 -16.87,-7.41 -16.87,-16.879 v -54.43 c 0,-9.133 7.4,-16.891 16.87,-16.891 h 5.35 c 9.13,0 16.88,7.579 16.88,16.891 z m -16.88,-83.199 h -5.35 c -18.6,0 -30.48,11.707 -30.48,28.769 v 54.43 c 0,16.879 11.88,28.769 30.48,28.769 h 5.35 c 18.6,0 30.49,-11.718 30.49,-28.769 v -54.43 c 0,-16.891 -11.89,-28.769 -30.49,-28.769" /><path
         id="path116"
         style="fill:#872743;fill-opacity:1;fill-rule:nonzero;stroke:none"
         d="m 1477.86,431.059 h -9.99 c -1.21,0 -1.72,0.523 -1.72,1.722 v 35.489 c 0,16.359 0.68,31.179 1.54,39.968 l -0.68,0.172 c -0.69,-2.578 -2.59,-8.269 -4.32,-12.058 l -21.7,-48.411 c -0.35,-0.691 -0.85,-1.031 -1.55,-1.031 h -4.65 c -0.69,0 -1.2,0.34 -1.55,1.031 l -21.53,48.411 c -1.56,3.449 -3.45,8.617 -4.31,12.058 l -0.68,-0.172 c 1.02,-9.129 1.54,-23.25 1.54,-39.968 v -35.489 c 0,-1.199 -0.52,-1.722 -1.72,-1.722 h -10 c -1.2,0 -1.72,0.523 -1.72,1.722 v 105.09 c 0,1.211 0.52,1.731 1.72,1.731 h 9.48 c 0.7,0 1.21,-0.364 1.56,-1.043 l 27.04,-63.571 c 0.52,-1.027 1.89,-5.508 2.23,-6.886 h 0.53 c 0.33,1.378 1.9,5.679 2.4,6.886 l 27.05,63.571 c 0.36,0.679 0.86,1.043 1.55,1.043 h 9.48 c 1.2,0 1.73,-0.52 1.73,-1.731 v -105.09 c 0,-1.199 -0.53,-1.722 -1.73,-1.722" /><path
         id="path118"
         style="fill:#872743;fill-opacity:1;fill-rule:nonzero;stroke:none"
         d="m 1560.71,510.832 c 0,9.129 -7.58,16.879 -17.05,16.879 h -20.5 c -1.21,0 -1.73,-0.52 -1.73,-1.723 V 493.77 c 0,-1.2 0.52,-1.719 1.73,-1.719 h 20.5 c 9.31,0 17.05,7.578 17.05,17.051 z m -17.05,-30.66 h -20.5 c -1.21,0 -1.73,-0.524 -1.73,-1.731 v -45.66 c 0,-1.199 -0.51,-1.722 -1.73,-1.722 h -9.98 c -1.21,0 -1.72,0.523 -1.72,1.722 v 105.09 c 0,1.211 0.51,1.731 1.72,1.731 h 33.94 c 18.6,0 30.49,-12.063 30.49,-30.5 0,-16.372 -11.89,-28.93 -30.49,-28.93" /><path
         id="path120"
         style="fill:#872743;fill-opacity:1;fill-rule:nonzero;stroke:none"
         d="m 1655.11,431.059 h -57.54 c -1.21,0 -1.73,0.523 -1.73,1.722 v 105.09 c 0,1.211 0.52,1.731 1.73,1.731 h 57.54 c 1.2,0 1.72,-0.52 1.72,-1.731 v -8.441 c 0,-1.211 -0.52,-1.731 -1.72,-1.731 h -44.1 c -1.21,0 -1.73,-0.519 -1.73,-1.719 v -32.21 c 0,-1.211 0.52,-1.719 1.73,-1.719 h 36.17 c 1.21,0 1.72,-0.52 1.72,-1.731 v -8.441 c 0,-1.199 -0.51,-1.719 -1.72,-1.719 h -36.17 c -1.21,0 -1.73,-0.519 -1.73,-1.73 v -33.758 c 0,-1.211 0.52,-1.731 1.73,-1.731 h 44.1 c 1.2,0 1.72,-0.511 1.72,-1.711 v -8.449 c 0,-1.199 -0.52,-1.722 -1.72,-1.722" /><path
         id="path122"
         style="fill:#872743;fill-opacity:1;fill-rule:nonzero;stroke:none"
         d="m 1733.82,527.711 h -20.32 c -1.2,0 -1.73,-0.52 -1.73,-1.723 v -93.199 c 0,-1.199 -0.51,-1.719 -1.72,-1.719 h -10.17 c -1.2,0 -1.72,0.52 -1.72,1.719 v 93.199 c 0,1.203 -0.51,1.723 -1.72,1.723 h -20.33 c -1.2,0 -1.72,0.519 -1.72,1.719 v 8.449 c 0,1.211 0.52,1.723 1.72,1.723 h 57.71 c 1.21,0 1.73,-0.512 1.73,-1.723 v -8.449 c 0,-1.2 -0.52,-1.719 -1.73,-1.719" /><path
         id="path124"
         style="fill:#872743;fill-opacity:1;fill-rule:nonzero;stroke:none"
         d="m 1816.34,431.059 h -57.54 c -1.21,0 -1.73,0.523 -1.73,1.722 v 105.09 c 0,1.211 0.52,1.731 1.73,1.731 h 57.54 c 1.2,0 1.72,-0.52 1.72,-1.731 v -8.441 c 0,-1.211 -0.52,-1.731 -1.72,-1.731 h -44.1 c -1.21,0 -1.73,-0.519 -1.73,-1.719 v -32.21 c 0,-1.211 0.52,-1.719 1.73,-1.719 h 36.17 c 1.21,0 1.72,-0.52 1.72,-1.731 v -8.441 c 0,-1.199 -0.51,-1.719 -1.72,-1.719 h -36.17 c -1.21,0 -1.73,-0.519 -1.73,-1.73 v -33.758 c 0,-1.211 0.52,-1.731 1.73,-1.731 h 44.1 c 1.2,0 1.72,-0.511 1.72,-1.711 v -8.449 c 0,-1.199 -0.52,-1.722 -1.72,-1.722" /><path
         id="path126"
         style="fill:#872743;fill-opacity:1;fill-rule:nonzero;stroke:none"
         d="m 1909.71,431.059 h -9.65 c -0.52,0 -1.2,0.339 -1.55,0.863 l -39.28,71.316 c -1.2,2.071 -2.58,5.692 -3.27,8.102 h -0.52 c 0.35,-6.211 0.52,-23.781 0.52,-42.039 v -36.52 c 0,-1.199 -0.52,-1.722 -1.73,-1.722 h -9.98 c -1.21,0 -1.73,0.523 -1.73,1.722 v 105.09 c 0,1.211 0.52,1.731 1.73,1.731 h 9.47 c 0.69,0 1.21,-0.364 1.55,-0.872 l 39.27,-71.839 c 0.87,-1.551 2.43,-5.172 3.11,-7.403 h 0.52 c -0.17,7.063 -0.34,27.731 -0.34,41.344 v 37.039 c 0,1.211 0.5,1.731 1.71,1.731 h 10.17 c 1.2,0 1.73,-0.52 1.73,-1.731 v -105.09 c 0,-1.199 -0.53,-1.722 -1.73,-1.722" /><path
         id="path128"
         style="fill:#872743;fill-opacity:1;fill-rule:nonzero;stroke:none"
         d="m 1995.33,436.75 c -4.65,-4.309 -11.37,-7.398 -21.37,-7.398 h -5.33 c -18.61,0 -30.5,11.707 -30.5,28.769 v 54.43 c 0,16.89 11.89,28.769 30.5,28.769 h 5.33 c 9.31,0 15.69,-2.59 20.33,-6.379 3.11,-2.57 5.35,-5.5 7.07,-8.781 0.51,-1.031 0.17,-1.89 -0.86,-2.41 l -9.13,-4.48 c -0.86,-0.52 -1.55,-0.18 -2.08,0.691 -3.61,6.027 -9.64,9.48 -15.33,9.48 h -5.33 c -9.31,0 -16.89,-7.421 -16.89,-16.89 v -54.43 c 0,-9.133 7.41,-16.891 16.89,-16.891 h 5.33 c 5.86,0 11.72,3.45 15.33,9.821 0.53,0.871 1.39,1.211 2.25,0.687 l 9.12,-4.648 c 1.04,-0.52 1.21,-1.211 0.7,-2.238 -1.56,-2.93 -3.45,-5.692 -6.03,-8.102" /><path
         id="path130"
         style="fill:#872743;fill-opacity:1;fill-rule:nonzero;stroke:none"
         d="m 2084.56,431.059 h -57.54 c -1.2,0 -1.73,0.523 -1.73,1.722 v 105.09 c 0,1.211 0.53,1.731 1.73,1.731 h 57.54 c 1.2,0 1.73,-0.52 1.73,-1.731 v -8.441 c 0,-1.211 -0.53,-1.731 -1.73,-1.731 h -44.1 c -1.2,0 -1.73,-0.519 -1.73,-1.719 v -32.21 c 0,-1.211 0.53,-1.719 1.73,-1.719 h 36.18 c 1.2,0 1.72,-0.52 1.72,-1.731 v -8.441 c 0,-1.199 -0.52,-1.719 -1.72,-1.719 h -36.18 c -1.2,0 -1.73,-0.519 -1.73,-1.73 v -33.758 c 0,-1.211 0.53,-1.731 1.73,-1.731 h 44.1 c 1.2,0 1.73,-0.511 1.73,-1.711 v -8.449 c 0,-1.199 -0.53,-1.722 -1.73,-1.722" /><path
         id="path132"
         style="fill:#872743;fill-opacity:1;fill-rule:nonzero;stroke:none"
         d="m 2155.01,431.059 h -10 c -1.21,0 -1.72,0.523 -1.72,1.722 v 105.09 c 0,1.211 0.51,1.731 1.72,1.731 h 10 c 1.19,0 1.72,-0.52 1.72,-1.731 v -105.09 c 0,-1.199 -0.53,-1.722 -1.72,-1.722" /><path
         id="path134"
         style="fill:#872743;fill-opacity:1;fill-rule:nonzero;stroke:none"
         d="m 2252.17,431.059 h -9.65 c -0.53,0 -1.21,0.339 -1.55,0.863 l -39.28,71.316 c -1.2,2.071 -2.59,5.692 -3.27,8.102 h -0.53 c 0.35,-6.211 0.53,-23.781 0.53,-42.039 v -36.52 c 0,-1.199 -0.53,-1.722 -1.73,-1.722 h -9.99 c -1.2,0 -1.73,0.523 -1.73,1.722 v 105.09 c 0,1.211 0.53,1.731 1.73,1.731 h 9.48 c 0.69,0 1.2,-0.364 1.55,-0.872 L 2237,466.891 c 0.87,-1.551 2.42,-5.172 3.1,-7.403 h 0.53 c -0.18,7.063 -0.35,27.731 -0.35,41.344 v 37.039 c 0,1.211 0.52,1.731 1.71,1.731 h 10.18 c 1.2,0 1.72,-0.52 1.72,-1.731 v -105.09 c 0,-1.199 -0.52,-1.722 -1.72,-1.722" /><path
         id="path136"
         style="fill:#872743;fill-opacity:1;fill-rule:nonzero;stroke:none"
         d="m 2371.55,510.832 c 0,9.129 -7.58,16.879 -17.05,16.879 h -20.51 c -1.21,0 -1.72,-0.52 -1.72,-1.723 V 493.77 c 0,-1.2 0.51,-1.719 1.72,-1.719 h 20.51 c 9.3,0 17.05,7.578 17.05,17.051 z m 12.4,-79.773 h -11.36 c -0.7,0 -1.39,0.523 -1.56,1.211 l -16.2,46.859 c -0.16,0.68 -0.68,1.043 -1.37,1.043 h -19.47 c -1.21,0 -1.72,-0.524 -1.72,-1.731 v -45.66 c 0,-1.199 -0.52,-1.722 -1.72,-1.722 h -10 c -1.21,0 -1.71,0.523 -1.71,1.722 v 105.09 c 0,1.211 0.5,1.731 1.71,1.731 h 33.95 c 18.59,0 30.49,-11.891 30.49,-30.5 v -1.723 c 0,-8.957 -8.11,-19.809 -15.69,-23.078 -0.86,-0.352 -1.2,-1.039 -0.86,-1.903 l 17.06,-49.097 c 0.52,-1.379 0,-2.242 -1.55,-2.242" /><path
         id="path138"
         style="fill:#872743;fill-opacity:1;fill-rule:nonzero;stroke:none"
         d="m 2469.21,431.059 h -57.54 c -1.2,0 -1.73,0.523 -1.73,1.722 v 105.09 c 0,1.211 0.53,1.731 1.73,1.731 h 57.54 c 1.2,0 1.73,-0.52 1.73,-1.731 v -8.441 c 0,-1.211 -0.53,-1.731 -1.73,-1.731 h -44.1 c -1.2,0 -1.73,-0.519 -1.73,-1.719 v -32.21 c 0,-1.211 0.53,-1.719 1.73,-1.719 h 36.18 c 1.2,0 1.72,-0.52 1.72,-1.731 v -8.441 c 0,-1.199 -0.52,-1.719 -1.72,-1.719 h -36.18 c -1.2,0 -1.73,-0.519 -1.73,-1.73 v -33.758 c 0,-1.211 0.53,-1.731 1.73,-1.731 h 44.1 c 1.2,0 1.73,-0.511 1.73,-1.711 v -8.449 c 0,-1.199 -0.53,-1.722 -1.73,-1.722" /><path
         id="path140"
         style="fill:#872743;fill-opacity:1;fill-rule:nonzero;stroke:none"
         d="m 2526.92,429.352 h -7.4 c -8.97,0 -15.16,2.238 -19.64,5.847 -3.27,2.59 -5.69,5.86 -7.59,9.481 -0.51,1.031 -0.33,1.902 0.69,2.41 l 8.96,4.648 c 1.03,0.524 1.89,0.184 2.42,-0.859 3.44,-6.367 9.3,-9.649 15.16,-9.649 h 7.4 c 9.31,0 17.06,7.411 17.06,16.891 0,11.527 -10.52,16.527 -22.05,21.699 -13.27,6.032 -28.25,12.75 -28.25,32.731 0,16.551 12.22,28.769 30.49,28.769 h 2.75 c 10.17,0 17.06,-3.101 21.71,-7.582 2.41,-2.238 4.13,-4.816 5.68,-7.566 0.52,-1.043 0.18,-1.902 -0.86,-2.422 l -9.13,-4.48 c -0.86,-0.52 -1.54,-0.168 -2.07,0.699 -3.61,6.203 -9.47,9.472 -15.33,9.472 h -2.75 c -10.34,0 -16.88,-6.902 -16.88,-16.89 0,-10.332 11.19,-14.992 23.42,-20.492 12.93,-5.86 26.71,-13.618 26.71,-33.938 0,-16.891 -11.72,-28.769 -30.5,-28.769" /><path
         id="path142"
         style="fill:#872743;fill-opacity:1;fill-rule:nonzero;stroke:none"
         d="m 2641.82,431.059 h -57.54 c -1.21,0 -1.72,0.523 -1.72,1.722 v 105.09 c 0,1.211 0.51,1.731 1.72,1.731 h 57.54 c 1.21,0 1.72,-0.52 1.72,-1.731 v -8.441 c 0,-1.211 -0.51,-1.731 -1.72,-1.731 h -44.1 c -1.21,0 -1.72,-0.519 -1.72,-1.719 v -32.21 c 0,-1.211 0.51,-1.719 1.72,-1.719 h 36.17 c 1.21,0 1.73,-0.52 1.73,-1.731 v -8.441 c 0,-1.199 -0.52,-1.719 -1.73,-1.719 h -36.17 c -1.21,0 -1.72,-0.519 -1.72,-1.73 v -33.758 c 0,-1.211 0.51,-1.731 1.72,-1.731 h 44.1 c 1.21,0 1.72,-0.511 1.72,-1.711 v -8.449 c 0,-1.199 -0.51,-1.722 -1.72,-1.722" /><path
         id="path144"
         style="fill:#872743;fill-opacity:1;fill-rule:nonzero;stroke:none"
         d="m 2701.59,508.941 c -1.54,6.2 -2.4,12.399 -2.4,12.399 h -0.53 c 0,0 -0.86,-6.031 -2.58,-12.399 l -10.33,-38.25 c -0.35,-1.203 0.17,-2.242 1.72,-2.242 h 22.23 c 1.54,0 2.07,1.039 1.71,2.242 z m 33.43,-77.871 h -10.85 c -0.86,0 -1.56,0.34 -1.73,1.2 l -6.55,23.261 c -0.17,0.86 -0.86,1.039 -1.72,1.039 h -31.01 c -0.86,0 -1.55,-0.179 -1.73,-1.039 l -6.54,-23.261 c -0.18,-0.86 -0.86,-1.2 -1.72,-1.2 h -10 c -1.54,0 -2.06,0.86 -1.72,2.239 l 32.05,105.082 c 0.17,0.859 0.86,1.211 1.72,1.211 h 7.93 c 0.86,0 1.55,-0.352 1.72,-1.211 l 31.87,-105.082 c 0.34,-1.379 -0.17,-2.239 -1.72,-2.239" /><path
         id="path146"
         style="fill:#872743;fill-opacity:1;fill-rule:nonzero;stroke:none"
         d="m 2811.32,510.832 c 0,9.129 -7.58,16.879 -17.05,16.879 h -20.5 c -1.21,0 -1.73,-0.52 -1.73,-1.723 V 493.77 c 0,-1.2 0.52,-1.719 1.73,-1.719 h 20.5 c 9.31,0 17.05,7.578 17.05,17.051 z m 12.41,-79.773 h -11.37 c -0.7,0 -1.38,0.523 -1.56,1.211 l -16.19,46.859 c -0.17,0.68 -0.68,1.043 -1.38,1.043 h -19.46 c -1.21,0 -1.73,-0.524 -1.73,-1.731 v -45.66 c 0,-1.199 -0.51,-1.722 -1.73,-1.722 h -9.98 c -1.21,0 -1.72,0.523 -1.72,1.722 v 105.09 c 0,1.211 0.51,1.731 1.72,1.731 h 33.94 c 18.6,0 30.49,-11.891 30.49,-30.5 v -1.723 c 0,-8.957 -8.1,-19.809 -15.68,-23.078 -0.86,-0.352 -1.21,-1.039 -0.86,-1.903 l 17.06,-49.097 c 0.51,-1.379 0,-2.242 -1.55,-2.242" /><path
         id="path148"
         style="fill:#872743;fill-opacity:1;fill-rule:nonzero;stroke:none"
         d="m 2905.55,436.75 c -4.65,-4.309 -11.37,-7.398 -21.36,-7.398 h -5.34 c -18.6,0 -30.49,11.707 -30.49,28.769 v 54.43 c 0,16.89 11.89,28.769 30.49,28.769 h 5.34 c 9.31,0 15.68,-2.59 20.32,-6.379 3.11,-2.57 5.36,-5.5 7.08,-8.781 0.5,-1.031 0.17,-1.89 -0.86,-2.41 l -9.14,-4.48 c -0.86,-0.52 -1.55,-0.18 -2.07,0.691 -3.62,6.027 -9.64,9.48 -15.33,9.48 h -5.34 c -9.3,0 -16.88,-7.421 -16.88,-16.89 v -54.43 c 0,-9.133 7.41,-16.891 16.88,-16.891 h 5.34 c 5.85,0 11.71,3.45 15.33,9.821 0.52,0.871 1.38,1.211 2.24,0.687 l 9.13,-4.648 c 1.04,-0.52 1.2,-1.211 0.7,-2.238 -1.56,-2.93 -3.45,-5.692 -6.04,-8.102" /><path
         id="path150"
         style="fill:#872743;fill-opacity:1;fill-rule:nonzero;stroke:none"
         d="m 3002.53,431.059 h -10.17 c -1.21,0 -1.71,0.523 -1.71,1.722 v 45.649 c 0,1.211 -0.52,1.73 -1.72,1.73 h -38.42 c -1.21,0 -1.73,-0.519 -1.73,-1.73 v -45.649 c 0,-1.199 -0.52,-1.722 -1.73,-1.722 h -9.98 c -1.21,0 -1.73,0.523 -1.73,1.722 v 105.09 c 0,1.211 0.52,1.731 1.73,1.731 h 9.98 c 1.21,0 1.73,-0.52 1.73,-1.731 V 493.77 c 0,-1.211 0.52,-1.719 1.73,-1.719 h 38.42 c 1.2,0 1.72,0.508 1.72,1.719 v 44.101 c 0,1.211 0.5,1.731 1.71,1.731 h 10.17 c 1.2,0 1.73,-0.52 1.73,-1.731 v -105.09 c 0,-1.199 -0.53,-1.722 -1.73,-1.722" /><path
         id="path152"
         style="fill:#872743;fill-opacity:1;fill-rule:nonzero;stroke:none"
         d="m 1017.85,793.238 h 1994.5 v 12.8711 h -1994.5 z" /></g></g></svg>