<?xml version="1.0" encoding="iso-8859-1"?>
<!-- Generator: Adobe Illustrator 19.0.0, SVG Export Plug-In . SVG Version: 6.00 Build 0)  -->
<svg version="1.1" id="Capa_1" xmlns="http://www.w3.org/2000/svg" xmlns:xlink="http://www.w3.org/1999/xlink" x="0px" y="0px"
	 viewBox="0 0 512 512" style="enable-background:new 0 0 512 512;" xml:space="preserve">
<circle style="fill:#34ABE0;" cx="256" cy="256" r="256"/>
<circle style="fill:#FFDC64;" cx="256" cy="256" r="256"/>
<g>
	<path style="fill:#9D9D9E;" d="M503.557,60.05v261.381c-7.555,28.693-19.978,55.411-36.321,79.224H44.763
		c-14.733-21.462-26.269-45.286-33.938-70.781V60.05c0-17,13.782-30.793,30.783-30.793h431.167
		C489.775,29.257,503.557,43.05,503.557,60.05z"/>
	<path style="fill:#9D9D9E;" d="M503.557,298.297v23.134c-7.555,28.693-19.978,55.411-36.321,79.224H44.763
		c-14.733-21.462-26.269-45.286-33.938-70.781v-31.577H503.557z"/>
</g>
<path style="fill:#A0F6FA;" d="M476.111,74.398v257.929c0,9.408-6.187,17.043-13.814,17.043H52.091
	c-7.636,0-13.814-7.636-13.814-17.043V74.398c0-9.418,6.177-17.043,13.814-17.043h410.207
	C469.924,57.354,476.111,64.981,476.111,74.398z"/>
<path style="fill:#757475;" d="M261.457,382.052c-6.16,0-11.152-4.993-11.152-11.152c0-1.761,0.41-3.424,1.136-4.905
	c-3.7,1.815-6.247,5.617-6.247,10.016c0,6.16,4.994,11.152,11.152,11.152c4.399,0,8.201-2.547,10.016-6.247
	C264.883,381.643,263.218,382.052,261.457,382.052z"/>
<rect x="160.413" y="400.656" style="fill:#9D9D9E;" width="193.557" height="75.797"/>
<g>
	<rect x="160.413" y="400.656" style="fill:#757475;" width="193.557" height="20.27"/>
	<path style="fill:#757475;" d="M398.764,468.522c-5.413,3.647-10.982,7.095-16.687,10.324H129.923
		c-5.13-2.905-10.156-5.987-15.057-9.226c10.136-15.287,27.376-24.785,46.174-24.785h192.303c11.16,0,21.786,3.354,30.689,9.279
		C389.747,457.916,394.762,462.796,398.764,468.522z"/>
</g>
<path style="fill:#CDFCFB;" d="M476.111,74.398v257.929c0,9.408-6.187,17.043-13.814,17.043H220.689l58.406-292.016h183.204
	C469.924,57.354,476.111,64.981,476.111,74.398z"/>
<path style="fill:#A0F6FA;" d="M476.111,74.398v257.929c0,9.408-6.187,17.043-13.814,17.043h-84.494l58.405-292.016h26.089
	C469.924,57.354,476.111,64.981,476.111,74.398z"/>
<path style="fill:#E20A39;" d="M338.556,246.403c-52.728,45.14-81.362,67.656-81.362,67.656s-8.703-6.843-25.336-20.529
	c-13.549-11.161-32.365-26.863-56.026-47.127c-57.133-48.899-65.758-119.434-7.313-147.178
	c53.941-25.591,88.675,32.002,88.675,32.002s3.368-5.58,9.624-12.492c13.852-15.301,41.899-37.142,79.052-19.51
	C404.323,126.969,395.689,197.503,338.556,246.403z"/>
<path style="fill:#F91E43;" d="M338.556,246.403c-52.728,45.14-81.362,67.656-81.362,67.656s-8.703-6.843-25.336-20.529
	l34.959-174.795c13.852-15.301,41.899-37.142,79.052-19.51C404.323,126.969,395.689,197.503,338.556,246.403z"/>
<g>
</g>
<g>
</g>
<g>
</g>
<g>
</g>
<g>
</g>
<g>
</g>
<g>
</g>
<g>
</g>
<g>
</g>
<g>
</g>
<g>
</g>
<g>
</g>
<g>
</g>
<g>
</g>
<g>
</g>
</svg>
