<?xml version="1.0" encoding="utf-8"?>
<svg version="1.1" baseProfile="tiny" id="Universität_Zürich" x="0px" y="0px" viewBox="-0.499 -0.501 142.73 49.19" xmlns="http://www.w3.org/2000/svg">
  <path d="M6.818,32.721C6.296,32.944,6.2,32.986,6.093,33.04c-0.113,0.058-0.156,0.108-0.133,0.231  c0.005,0.029,0.026,0.091,0.047,0.139c0.017,0.038,0.019,0.062-0.006,0.071c-0.023,0.011-0.041-0.01-0.062-0.062  c-0.078-0.182-0.161-0.401-0.205-0.506c-0.035-0.082-0.138-0.295-0.191-0.418c-0.021-0.052-0.024-0.079-0.001-0.089  c0.024-0.011,0.04,0.007,0.056,0.042c0.016,0.037,0.027,0.057,0.053,0.095c0.057,0.086,0.127,0.088,0.25,0.043  c0.113-0.04,0.209-0.081,0.731-0.305l0.481-0.206c0.499-0.215,0.666-0.404,0.729-0.631c0.062-0.21,0.008-0.373-0.043-0.49  c-0.063-0.151-0.191-0.315-0.389-0.395c-0.27-0.108-0.584,0.014-0.938,0.166l-0.431,0.184c-0.521,0.225-0.619,0.266-0.726,0.319  c-0.114,0.058-0.157,0.107-0.132,0.23c0.005,0.031,0.025,0.091,0.042,0.129c0.016,0.037,0.018,0.062-0.006,0.071  c-0.024,0.011-0.041-0.011-0.062-0.06C5.083,31.425,5.001,31.204,5,31.201c-0.018-0.042-0.121-0.254-0.178-0.387  c-0.021-0.048-0.024-0.075,0-0.085c0.024-0.012,0.04,0.007,0.057,0.048c0.017,0.038,0.029,0.058,0.054,0.096  c0.057,0.085,0.127,0.088,0.25,0.043c0.112-0.04,0.209-0.082,0.73-0.306l0.368-0.157c0.382-0.164,0.803-0.3,1.175-0.117  c0.314,0.154,0.458,0.387,0.554,0.608c0.078,0.183,0.21,0.517,0.091,0.865c-0.083,0.242-0.281,0.481-0.78,0.695L6.818,32.721z   M6.676,28.899c0.283-0.069,0.368-0.139,0.378-0.217c0.008-0.066-0.004-0.138-0.017-0.195c-0.009-0.04-0.007-0.063,0.017-0.068  c0.028-0.006,0.043,0.025,0.055,0.076c0.052,0.237,0.073,0.386,0.088,0.455c0.007,0.033,0.056,0.202,0.098,0.393  c0.011,0.048,0.015,0.081-0.019,0.089c-0.022,0.005-0.034-0.017-0.042-0.053c-0.01-0.048-0.028-0.111-0.054-0.16  c-0.051-0.089-0.159-0.079-0.479-0.015l-2.169,0.442c-0.073,0.016-0.127,0.016-0.135-0.021c-0.009-0.04,0.031-0.083,0.083-0.16  c0.038-0.054,0.511-0.739,0.924-1.39c0.194-0.303,0.612-0.911,0.657-0.986l-0.004-0.018l-1.633,0.396  c-0.222,0.053-0.283,0.102-0.301,0.196c-0.01,0.061,0.009,0.146,0.021,0.198c0.01,0.044,0.002,0.061-0.021,0.064  c-0.028,0.008-0.042-0.032-0.054-0.088C4.028,27.651,4,27.474,3.984,27.397c-0.009-0.041-0.05-0.178-0.09-0.356  c-0.011-0.048-0.016-0.085,0.015-0.091c0.022-0.005,0.038,0.015,0.047,0.059c0.008,0.036,0.015,0.065,0.035,0.106  c0.051,0.097,0.135,0.108,0.34,0.067l2.313-0.467c0.08-0.018,0.115-0.01,0.124,0.022c0.009,0.041-0.021,0.094-0.054,0.143  c-0.168,0.277-0.544,0.852-0.837,1.312c-0.308,0.484-0.675,0.99-0.729,1.071l0.002,0.011L6.676,28.899z M4.871,25.556  c-0.566,0.035-0.672,0.042-0.791,0.058c-0.126,0.016-0.188,0.057-0.201,0.14C3.87,25.796,3.87,25.844,3.873,25.89  c0.002,0.036-0.004,0.06-0.034,0.062c-0.021,0.002-0.031-0.027-0.035-0.087c-0.01-0.142-0.014-0.378-0.021-0.486  c-0.006-0.093-0.031-0.312-0.04-0.455c-0.003-0.048,0.003-0.079,0.025-0.081c0.029-0.002,0.039,0.021,0.041,0.059  c0.002,0.037,0.008,0.066,0.018,0.111c0.025,0.1,0.09,0.126,0.222,0.123c0.12,0,0.225-0.006,0.792-0.042l0.657-0.042  c0.362-0.021,0.657-0.041,0.816-0.065c0.1-0.019,0.166-0.048,0.173-0.161c0.004-0.053,0.006-0.135,0.003-0.191  c-0.002-0.042,0.007-0.061,0.026-0.062c0.025-0.001,0.039,0.028,0.042,0.069c0.016,0.246,0.02,0.48,0.025,0.583  c0.005,0.086,0.031,0.319,0.041,0.47c0.003,0.048-0.006,0.075-0.033,0.076c-0.019,0.002-0.03-0.014-0.033-0.059  c-0.003-0.056-0.015-0.1-0.023-0.133c-0.02-0.074-0.084-0.093-0.193-0.097c-0.157-0.009-0.452,0.01-0.814,0.032L4.871,25.556z   M4.071,23.877c-0.21,0.073-0.256,0.134-0.302,0.267c-0.02,0.055-0.022,0.114-0.024,0.145c-0.002,0.034-0.014,0.044-0.037,0.043  c-0.029-0.002-0.031-0.043-0.026-0.099c0.013-0.198,0.038-0.41,0.045-0.541c0.006-0.093,0.006-0.273,0.019-0.46  c0.003-0.045,0.013-0.085,0.039-0.084c0.026,0.002,0.032,0.024,0.03,0.059c-0.003,0.061-0.003,0.116,0.017,0.147  c0.018,0.026,0.042,0.041,0.076,0.042c0.049,0.003,0.155-0.024,0.293-0.067l1.736-0.534l0.001-0.015  c-0.4-0.188-1.571-0.749-1.812-0.854c-0.047-0.021-0.102-0.041-0.136-0.042c-0.03-0.002-0.061,0.012-0.074,0.044  c-0.018,0.045-0.024,0.101-0.027,0.148c-0.003,0.034-0.009,0.063-0.034,0.062c-0.03-0.002-0.035-0.036-0.031-0.106  c0.012-0.188,0.033-0.343,0.036-0.391c0.004-0.063,0.004-0.24,0.011-0.353c0.003-0.048,0.013-0.078,0.039-0.076  c0.026,0.001,0.032,0.024,0.029,0.062C3.935,21.311,3.93,21.389,3.97,21.46C4,21.51,4.06,21.571,4.293,21.687  c0.342,0.168,0.537,0.281,0.983,0.513c0.53,0.274,0.926,0.476,1.106,0.569c0.21,0.11,0.27,0.137,0.266,0.188  c-0.003,0.048-0.058,0.067-0.236,0.127L4.071,23.877z M5.128,20.567c-0.556-0.12-0.657-0.143-0.776-0.16  c-0.126-0.019-0.191-0.002-0.242,0.113c-0.014,0.026-0.031,0.089-0.042,0.14c-0.009,0.041-0.021,0.062-0.046,0.055  c-0.026-0.006-0.027-0.032-0.017-0.087c0.021-0.099,0.047-0.204,0.067-0.295c0.024-0.095,0.045-0.178,0.057-0.229  c0.025-0.117,0.183-0.846,0.193-0.916c0.007-0.071,0.013-0.131,0.012-0.162c0-0.02-0.006-0.043-0.002-0.062  c0.004-0.018,0.02-0.019,0.038-0.015c0.025,0.005,0.065,0.033,0.231,0.08c0.036,0.012,0.194,0.054,0.236,0.07  c0.019,0.008,0.038,0.02,0.032,0.045c-0.005,0.024-0.024,0.028-0.058,0.021C4.787,19.16,4.724,19.15,4.676,19.16  c-0.07,0.011-0.122,0.039-0.185,0.216c-0.021,0.062-0.11,0.443-0.126,0.518c-0.004,0.019,0.005,0.027,0.031,0.032l0.925,0.199  c0.025,0.005,0.041,0.005,0.045-0.017c0.018-0.081,0.108-0.501,0.119-0.587c0.011-0.089,0.012-0.146-0.018-0.188  c-0.023-0.032-0.038-0.051-0.034-0.068c0.003-0.016,0.013-0.024,0.034-0.021c0.022,0.005,0.078,0.032,0.262,0.087  c0.072,0.02,0.216,0.062,0.242,0.067C6,19.405,6.04,19.414,6.033,19.447c-0.005,0.026-0.021,0.03-0.04,0.026  c-0.037-0.005-0.084-0.015-0.135-0.014c-0.077,0.002-0.144,0.042-0.188,0.174c-0.021,0.068-0.104,0.43-0.123,0.518  c-0.004,0.018,0.011,0.024,0.032,0.03l0.289,0.062c0.125,0.027,0.46,0.104,0.567,0.122c0.254,0.047,0.32,0,0.401-0.373  c0.021-0.095,0.054-0.249,0.03-0.353c-0.022-0.104-0.091-0.165-0.235-0.224C6.594,19.4,6.581,19.39,6.587,19.364  c0.008-0.029,0.036-0.023,0.072-0.015c0.084,0.018,0.327,0.101,0.396,0.135c0.089,0.046,0.083,0.079,0.052,0.218  c-0.06,0.274-0.109,0.474-0.146,0.63c-0.041,0.156-0.068,0.27-0.093,0.378c-0.009,0.04-0.026,0.121-0.041,0.209  C6.808,21.003,6.796,21.1,6.78,21.173c-0.01,0.049-0.026,0.071-0.052,0.065c-0.019-0.004-0.026-0.021-0.018-0.065  c0.013-0.055,0.015-0.1,0.015-0.135c0.001-0.076-0.075-0.112-0.179-0.148c-0.149-0.052-0.438-0.113-0.774-0.187L5.128,20.567z   M5.822,17.875c-0.53-0.205-0.628-0.243-0.743-0.278c-0.121-0.039-0.188-0.032-0.257,0.072c-0.018,0.025-0.044,0.083-0.063,0.132  c-0.015,0.038-0.029,0.058-0.054,0.048c-0.023-0.01-0.021-0.037-0.002-0.09c0.072-0.185,0.167-0.399,0.195-0.474  c0.046-0.118,0.138-0.388,0.18-0.496c0.085-0.22,0.196-0.446,0.398-0.584c0.104-0.072,0.336-0.143,0.569-0.052  c0.259,0.1,0.454,0.299,0.604,0.763c0.511-0.16,0.915-0.28,1.21-0.401c0.278-0.117,0.357-0.251,0.389-0.3  c0.021-0.035,0.038-0.065,0.048-0.094c0.011-0.028,0.026-0.038,0.044-0.031c0.028,0.012,0.025,0.038,0.01,0.08l-0.128,0.332  c-0.075,0.195-0.126,0.276-0.21,0.349c-0.139,0.118-0.354,0.188-0.698,0.279c-0.246,0.065-0.545,0.135-0.615,0.159  c-0.027,0.009-0.039,0.029-0.048,0.053l-0.125,0.302c-0.007,0.018-0.004,0.03,0.017,0.039l0.049,0.019  c0.325,0.125,0.601,0.232,0.754,0.271C7.45,18,7.535,18.009,7.59,17.91c0.027-0.05,0.064-0.124,0.08-0.166  c0.012-0.028,0.027-0.038,0.044-0.031c0.024,0.011,0.025,0.038,0.009,0.083c-0.079,0.202-0.188,0.457-0.209,0.51  c-0.025,0.065-0.101,0.289-0.154,0.43C7.341,18.779,7.321,18.8,7.297,18.79c-0.018-0.007-0.021-0.023-0.006-0.065  c0.021-0.054,0.029-0.098,0.035-0.132c0.013-0.074-0.057-0.123-0.153-0.176c-0.14-0.074-0.415-0.181-0.735-0.305L5.822,17.875z   M6.257,17.57c0.038,0.015,0.056,0.013,0.075-0.007c0.053-0.063,0.104-0.164,0.138-0.251c0.054-0.141,0.058-0.19,0.036-0.271  c-0.035-0.134-0.157-0.298-0.443-0.408c-0.495-0.191-0.766,0.081-0.846,0.287c-0.033,0.087-0.055,0.151-0.058,0.19  c-0.002,0.027,0.009,0.04,0.037,0.05L6.257,17.57z M8.459,16.014c-0.053,0.038-0.074,0.04-0.146-0.001  c-0.18-0.103-0.367-0.227-0.417-0.259c-0.047-0.03-0.077-0.061-0.062-0.087c0.018-0.028,0.048-0.016,0.074-0.001  c0.042,0.024,0.118,0.05,0.183,0.064c0.281,0.064,0.479-0.077,0.594-0.278c0.166-0.293,0.049-0.549-0.123-0.646  C8.4,14.716,8.223,14.68,7.858,14.83l-0.202,0.083c-0.483,0.199-0.781,0.193-1.044,0.044c-0.357-0.204-0.445-0.647-0.188-1.101  c0.12-0.212,0.23-0.33,0.302-0.401c0.022-0.024,0.042-0.036,0.064-0.022c0.042,0.023,0.129,0.091,0.383,0.233  c0.072,0.041,0.093,0.065,0.078,0.091c-0.013,0.023-0.038,0.021-0.077,0c-0.028-0.017-0.139-0.058-0.263-0.038  c-0.089,0.015-0.241,0.054-0.361,0.265C6.413,14.224,6.47,14.45,6.665,14.56c0.15,0.085,0.307,0.074,0.664-0.079l0.12-0.052  c0.521-0.227,0.823-0.238,1.133-0.062c0.188,0.107,0.372,0.306,0.393,0.627c0.012,0.222-0.062,0.421-0.16,0.593  C8.706,15.776,8.6,15.909,8.459,16.014z M8.373,12.925c-0.459-0.335-0.544-0.396-0.645-0.462c-0.107-0.067-0.182-0.075-0.244-0.021  c-0.034,0.026-0.065,0.063-0.091,0.1c-0.022,0.03-0.042,0.044-0.066,0.026c-0.018-0.013-0.006-0.042,0.029-0.09  c0.084-0.115,0.231-0.299,0.296-0.387c0.055-0.075,0.176-0.26,0.26-0.375c0.029-0.039,0.052-0.059,0.07-0.046  c0.023,0.019,0.017,0.041-0.005,0.071c-0.022,0.03-0.037,0.057-0.058,0.097c-0.044,0.094-0.011,0.154,0.092,0.237  c0.092,0.077,0.177,0.139,0.636,0.474l0.532,0.389c0.293,0.214,0.531,0.388,0.671,0.471c0.088,0.05,0.157,0.069,0.235-0.013  c0.037-0.038,0.093-0.101,0.125-0.146c0.024-0.033,0.044-0.042,0.061-0.031c0.021,0.017,0.012,0.047-0.013,0.08  c-0.146,0.199-0.294,0.384-0.354,0.466c-0.051,0.068-0.18,0.267-0.269,0.387c-0.029,0.04-0.054,0.054-0.074,0.039  c-0.016-0.011-0.017-0.03,0.011-0.066c0.033-0.045,0.053-0.086,0.067-0.118c0.031-0.068-0.007-0.125-0.087-0.197  c-0.116-0.108-0.354-0.282-0.648-0.496L8.373,12.925z M9.295,10.406l-0.372,0.415c-0.144,0.163-0.19,0.241-0.17,0.338  c0.016,0.065,0.035,0.11,0.052,0.136c0.017,0.026,0.02,0.044,0.004,0.062c-0.019,0.019-0.037,0.012-0.066-0.018  c-0.044-0.041-0.242-0.326-0.259-0.353c-0.028-0.042-0.036-0.065-0.021-0.081c0.021-0.022,0.073-0.023,0.144-0.086  c0.083-0.071,0.186-0.169,0.271-0.259l1.018-1.076c0.083-0.087,0.131-0.154,0.164-0.2c0.029-0.049,0.045-0.076,0.056-0.086  c0.018-0.019,0.037-0.006,0.078,0.032c0.057,0.054,0.237,0.238,0.308,0.306c0.024,0.028,0.036,0.049,0.021,0.065  c-0.021,0.021-0.039,0.014-0.083-0.021l-0.032-0.024c-0.076-0.062-0.221-0.061-0.456,0.177l-0.332,0.335l1.115,1.053  c0.25,0.236,0.465,0.439,0.595,0.536c0.083,0.062,0.159,0.104,0.247,0.032c0.042-0.033,0.104-0.087,0.142-0.128  c0.028-0.03,0.05-0.036,0.062-0.023c0.02,0.019,0.007,0.047-0.021,0.077c-0.169,0.18-0.339,0.343-0.41,0.419  c-0.06,0.062-0.214,0.242-0.315,0.351c-0.033,0.035-0.06,0.047-0.079,0.028c-0.014-0.013-0.012-0.031,0.02-0.063  c0.038-0.041,0.063-0.078,0.081-0.108c0.04-0.065-0.004-0.138-0.074-0.22c-0.103-0.122-0.316-0.324-0.566-0.562L9.295,10.406z   M12.134,9.947c-0.015,0.012-0.016,0.021-0.008,0.044l0.176,0.544c0.029,0.096,0.07,0.178,0.099,0.213  c0.042,0.053,0.099,0.069,0.188-0.003l0.044-0.035c0.035-0.027,0.049-0.028,0.062-0.012c0.019,0.023,0.006,0.043-0.026,0.069  c-0.094,0.074-0.227,0.166-0.316,0.237c-0.032,0.026-0.187,0.163-0.338,0.284c-0.038,0.03-0.061,0.039-0.079,0.016  c-0.015-0.019-0.007-0.033,0.017-0.052c0.026-0.021,0.065-0.057,0.086-0.078c0.121-0.125,0.097-0.269,0.039-0.461l-0.73-2.421  c-0.032-0.112-0.041-0.159-0.012-0.182c0.026-0.021,0.065-0.009,0.147,0.035c0.199,0.104,1.618,0.924,2.159,1.22  c0.32,0.174,0.438,0.148,0.512,0.113c0.051-0.026,0.097-0.059,0.132-0.086c0.023-0.02,0.041-0.027,0.057-0.008  c0.02,0.023-0.003,0.051-0.11,0.138c-0.105,0.084-0.319,0.254-0.558,0.435c-0.055,0.039-0.09,0.067-0.105,0.047  c-0.014-0.018-0.007-0.032,0.02-0.059c0.017-0.022,0.016-0.065-0.026-0.088l-0.729-0.434c-0.017-0.01-0.031-0.009-0.045,0.003  L12.134,9.947z M12.614,9.325c0.014-0.012,0.01-0.022,0-0.029l-0.839-0.513c-0.012-0.009-0.027-0.021-0.036-0.015  c-0.009,0.007-0.003,0.025,0.003,0.041l0.305,0.934c0.008,0.014,0.018,0.021,0.028,0.011L12.614,9.325z M14.557,9.301  c-0.064,0.009-0.084-0.002-0.126-0.072c-0.104-0.178-0.206-0.378-0.233-0.432c-0.025-0.05-0.037-0.091-0.011-0.105  c0.028-0.018,0.049,0.01,0.063,0.036c0.024,0.042,0.078,0.102,0.126,0.146c0.212,0.196,0.453,0.17,0.652,0.052  c0.29-0.172,0.315-0.451,0.214-0.623c-0.093-0.156-0.229-0.276-0.62-0.327l-0.217-0.028c-0.518-0.067-0.773-0.22-0.928-0.48  c-0.21-0.354-0.064-0.782,0.383-1.048c0.209-0.124,0.363-0.172,0.46-0.199c0.033-0.011,0.055-0.011,0.068,0.013  c0.024,0.042,0.066,0.143,0.216,0.394c0.042,0.071,0.047,0.104,0.021,0.118c-0.021,0.013-0.043,0-0.065-0.039  c-0.018-0.029-0.093-0.119-0.209-0.163c-0.084-0.032-0.235-0.074-0.444,0.05c-0.238,0.142-0.301,0.365-0.187,0.559  c0.088,0.147,0.229,0.217,0.614,0.261l0.13,0.014c0.562,0.062,0.833,0.202,1.015,0.508c0.109,0.187,0.171,0.45,0.028,0.738  c-0.1,0.198-0.263,0.333-0.433,0.436C14.89,9.217,14.731,9.28,14.557,9.301z M34.089,6.584L33.6,6.314  c-0.191-0.104-0.278-0.133-0.368-0.09c-0.062,0.028-0.101,0.059-0.121,0.081c-0.022,0.021-0.039,0.028-0.06,0.018  c-0.021-0.013-0.02-0.033,0.002-0.069c0.029-0.051,0.264-0.309,0.285-0.332c0.034-0.036,0.056-0.05,0.075-0.038  c0.026,0.016,0.039,0.066,0.116,0.12c0.088,0.064,0.207,0.144,0.312,0.205l1.278,0.75c0.104,0.062,0.18,0.093,0.232,0.115  c0.054,0.019,0.084,0.027,0.097,0.035c0.022,0.014,0.015,0.035-0.014,0.083c-0.04,0.067-0.181,0.285-0.229,0.369  c-0.021,0.03-0.04,0.046-0.06,0.035c-0.025-0.016-0.022-0.035,0.003-0.086l0.018-0.036c0.042-0.089,0.008-0.229-0.274-0.404  l-0.401-0.25l-0.776,1.323c-0.174,0.297-0.323,0.552-0.39,0.699c-0.043,0.097-0.064,0.179,0.024,0.248  c0.042,0.033,0.108,0.081,0.156,0.109c0.036,0.021,0.047,0.04,0.037,0.056c-0.013,0.022-0.044,0.018-0.08-0.004  C33.25,9.129,33.053,9,32.962,8.947c-0.073-0.043-0.282-0.153-0.412-0.229c-0.042-0.023-0.059-0.048-0.046-0.069  c0.01-0.017,0.028-0.019,0.067,0.004c0.048,0.029,0.091,0.045,0.124,0.055c0.072,0.025,0.133-0.034,0.197-0.122  c0.096-0.126,0.245-0.381,0.42-0.678L34.089,6.584z M35.774,8.711c0.371-0.431,0.438-0.511,0.511-0.605  c0.077-0.102,0.093-0.166,0.017-0.267c-0.018-0.024-0.062-0.069-0.104-0.104c-0.031-0.027-0.043-0.047-0.026-0.067  c0.018-0.02,0.042-0.009,0.084,0.028c0.15,0.129,0.322,0.291,0.407,0.364c0.068,0.058,0.254,0.204,0.356,0.291  c0.042,0.037,0.058,0.059,0.04,0.079c-0.018,0.02-0.039,0.011-0.067-0.014c-0.031-0.026-0.051-0.039-0.09-0.062  c-0.089-0.053-0.153-0.022-0.244,0.071c-0.084,0.087-0.152,0.166-0.521,0.598l-0.34,0.396c-0.353,0.412-0.419,0.655-0.378,0.889  c0.038,0.214,0.158,0.338,0.255,0.421c0.125,0.106,0.312,0.198,0.523,0.183c0.29-0.021,0.518-0.271,0.769-0.562l0.306-0.354  c0.37-0.432,0.438-0.511,0.511-0.605c0.077-0.103,0.093-0.167,0.017-0.268c-0.018-0.024-0.062-0.068-0.095-0.097  C37.673,9,37.661,8.979,37.678,8.96c0.017-0.02,0.042-0.009,0.08,0.025c0.146,0.124,0.316,0.286,0.319,0.289  c0.034,0.028,0.22,0.174,0.331,0.269c0.04,0.034,0.055,0.058,0.038,0.077c-0.017,0.021-0.039,0.011-0.073-0.018  c-0.031-0.027-0.05-0.039-0.089-0.062c-0.089-0.052-0.153-0.022-0.244,0.071c-0.083,0.086-0.151,0.166-0.521,0.597l-0.262,0.303  c-0.27,0.315-0.589,0.623-1.002,0.623c-0.35,0-0.581-0.144-0.766-0.302c-0.15-0.129-0.416-0.372-0.462-0.737  c-0.033-0.254,0.04-0.557,0.393-0.969L35.774,8.711z M38.61,11.381c0.443-0.355,0.523-0.422,0.613-0.503  c0.094-0.085,0.122-0.146,0.064-0.259c-0.013-0.028-0.05-0.08-0.083-0.121c-0.025-0.032-0.034-0.054-0.014-0.071  c0.021-0.016,0.043,0,0.078,0.043c0.125,0.154,0.263,0.346,0.312,0.406c0.079,0.1,0.268,0.313,0.339,0.404  c0.148,0.184,0.288,0.393,0.308,0.637c0.01,0.126-0.045,0.362-0.24,0.521c-0.216,0.173-0.486,0.242-0.962,0.141  c-0.117,0.522-0.215,0.932-0.257,1.249c-0.038,0.299,0.038,0.436,0.063,0.485c0.021,0.037,0.038,0.064,0.058,0.089  c0.019,0.022,0.02,0.042,0.005,0.054c-0.023,0.02-0.045,0.003-0.074-0.032l-0.223-0.275c-0.132-0.163-0.176-0.248-0.195-0.356  c-0.034-0.179,0.014-0.399,0.106-0.744c0.066-0.246,0.156-0.539,0.171-0.611c0.006-0.029-0.007-0.05-0.022-0.069l-0.198-0.258  c-0.012-0.016-0.023-0.02-0.042-0.005l-0.041,0.032c-0.271,0.219-0.501,0.403-0.611,0.517c-0.077,0.077-0.127,0.146-0.068,0.243  c0.029,0.048,0.075,0.117,0.103,0.151c0.02,0.023,0.021,0.042,0.006,0.055c-0.021,0.016-0.046,0.003-0.076-0.035  c-0.137-0.169-0.301-0.393-0.336-0.437c-0.044-0.055-0.201-0.23-0.294-0.348c-0.031-0.038-0.038-0.065-0.019-0.082  c0.016-0.012,0.033-0.007,0.062,0.028c0.034,0.043,0.068,0.073,0.096,0.096c0.059,0.049,0.135,0.012,0.229-0.044  c0.135-0.084,0.364-0.271,0.633-0.485L38.61,11.381z M38.656,11.91c-0.032,0.026-0.039,0.041-0.031,0.069  c0.029,0.078,0.09,0.172,0.149,0.245c0.094,0.116,0.136,0.145,0.216,0.167c0.134,0.035,0.336,0.013,0.575-0.181  c0.414-0.333,0.312-0.703,0.174-0.875c-0.059-0.072-0.104-0.123-0.136-0.145c-0.022-0.017-0.038-0.012-0.062,0.006L38.656,11.91z   M40.591,14.113c0.49-0.289,0.58-0.342,0.68-0.409c0.104-0.071,0.142-0.136,0.116-0.216c-0.012-0.041-0.033-0.084-0.056-0.123  c-0.02-0.032-0.023-0.056,0.001-0.071c0.021-0.011,0.041,0.012,0.072,0.062c0.072,0.123,0.182,0.331,0.237,0.424  c0.047,0.081,0.169,0.265,0.241,0.387c0.024,0.042,0.033,0.072,0.015,0.083c-0.025,0.016-0.043,0-0.062-0.033  c-0.019-0.032-0.038-0.056-0.065-0.091c-0.067-0.078-0.139-0.07-0.254-0.011c-0.107,0.054-0.197,0.108-0.688,0.396l-0.566,0.334  c-0.312,0.185-0.567,0.335-0.698,0.43c-0.081,0.061-0.126,0.118-0.082,0.222c0.021,0.049,0.056,0.123,0.084,0.172  c0.021,0.035,0.021,0.058,0.004,0.066c-0.022,0.014-0.047-0.007-0.068-0.042c-0.125-0.212-0.234-0.421-0.287-0.508  c-0.043-0.074-0.173-0.271-0.249-0.4c-0.024-0.042-0.027-0.07-0.006-0.083c0.017-0.009,0.033-0.002,0.057,0.036  c0.028,0.049,0.058,0.083,0.082,0.109c0.051,0.057,0.116,0.043,0.216-0.002c0.145-0.063,0.398-0.214,0.712-0.397L40.591,14.113z   M40.314,16.493c0.157-0.461,0.507-0.711,0.842-0.85c0.235-0.098,0.672-0.193,1.114,0.013c0.331,0.154,0.604,0.425,0.817,0.94  c0.089,0.214,0.128,0.348,0.174,0.515c0.036,0.139,0.052,0.262,0.084,0.37c0.012,0.039,0.001,0.06-0.021,0.068  c-0.028,0.012-0.073,0.019-0.197,0.062c-0.116,0.041-0.306,0.123-0.378,0.144c-0.053,0.019-0.084,0.022-0.097-0.008  c-0.011-0.028,0.014-0.046,0.062-0.065c0.105-0.048,0.208-0.144,0.263-0.267c0.073-0.164,0.056-0.472-0.076-0.79  c-0.125-0.3-0.282-0.466-0.483-0.561c-0.335-0.156-0.69-0.086-1.025,0.053c-0.822,0.34-0.972,1.134-0.78,1.597  c0.127,0.309,0.239,0.48,0.455,0.554c0.09,0.03,0.209,0.034,0.275,0.022c0.061-0.012,0.076-0.011,0.089,0.017  c0.01,0.023-0.012,0.042-0.039,0.053c-0.041,0.017-0.359,0.1-0.491,0.114c-0.066,0.007-0.089,0-0.137-0.05  c-0.113-0.114-0.246-0.367-0.338-0.589C40.232,17.361,40.171,16.92,40.314,16.493z M42.775,19.295  c0.555-0.125,0.657-0.146,0.771-0.181c0.123-0.035,0.175-0.077,0.174-0.204c0-0.031-0.01-0.094-0.021-0.145  c-0.009-0.04-0.007-0.064,0.019-0.069c0.026-0.006,0.039,0.018,0.052,0.073c0.021,0.099,0.042,0.205,0.062,0.296  c0.019,0.096,0.033,0.181,0.044,0.23c0.026,0.117,0.189,0.844,0.208,0.912c0.023,0.068,0.043,0.125,0.058,0.152  c0.008,0.018,0.023,0.037,0.027,0.056s-0.01,0.025-0.027,0.029c-0.025,0.005-0.073-0.003-0.244,0.023  c-0.038,0.005-0.2,0.033-0.245,0.036c-0.02,0-0.042-0.002-0.048-0.026c-0.006-0.025,0.011-0.037,0.043-0.044  c0.025-0.005,0.087-0.023,0.126-0.052c0.06-0.041,0.096-0.087,0.077-0.273c-0.006-0.063-0.085-0.448-0.103-0.521  c-0.004-0.018-0.017-0.022-0.042-0.017l-0.923,0.208c-0.026,0.006-0.04,0.013-0.035,0.034c0.019,0.081,0.112,0.5,0.14,0.583  c0.026,0.086,0.05,0.138,0.094,0.163c0.035,0.019,0.056,0.028,0.061,0.047c0.003,0.015-0.001,0.026-0.022,0.032  c-0.022,0.005-0.083,0.003-0.273,0.03c-0.074,0.014-0.223,0.035-0.248,0.041c-0.028,0.006-0.068,0.017-0.077-0.018  c-0.006-0.025,0.008-0.036,0.025-0.04c0.036-0.012,0.083-0.022,0.128-0.044c0.069-0.035,0.112-0.099,0.096-0.236  c-0.008-0.071-0.086-0.434-0.104-0.521c-0.004-0.019-0.021-0.02-0.042-0.015l-0.288,0.065c-0.124,0.028-0.461,0.1-0.566,0.127  c-0.25,0.062-0.292,0.134-0.208,0.507c0.021,0.095,0.057,0.248,0.121,0.333c0.065,0.085,0.152,0.112,0.308,0.104  c0.042-0.001,0.058,0.002,0.063,0.027c0.006,0.029-0.022,0.036-0.06,0.044c-0.084,0.02-0.338,0.045-0.416,0.043  c-0.102-0.004-0.108-0.037-0.14-0.176c-0.062-0.272-0.099-0.476-0.131-0.634c-0.027-0.158-0.05-0.272-0.074-0.382  c-0.009-0.04-0.026-0.121-0.05-0.207c-0.019-0.084-0.047-0.177-0.063-0.25c-0.012-0.047-0.006-0.075,0.02-0.081  c0.019-0.004,0.033,0.008,0.042,0.052c0.012,0.055,0.029,0.097,0.044,0.128c0.031,0.069,0.115,0.07,0.226,0.062  c0.156-0.017,0.445-0.081,0.78-0.156L42.775,19.295z M42.087,22.487c-0.292,0.018-0.387,0.07-0.41,0.146  c-0.021,0.064-0.021,0.137-0.02,0.195c0.001,0.041-0.005,0.064-0.027,0.064c-0.029,0.001-0.039-0.032-0.041-0.084  c-0.009-0.243-0.003-0.394-0.005-0.465c-0.001-0.033-0.019-0.209-0.024-0.402c-0.002-0.048,0.001-0.083,0.033-0.083  c0.022-0.001,0.031,0.021,0.032,0.059c0.002,0.049,0.008,0.116,0.024,0.167c0.034,0.097,0.143,0.107,0.468,0.101l2.214-0.044  c0.075-0.003,0.128,0.007,0.129,0.044c0.001,0.041-0.046,0.075-0.11,0.143c-0.048,0.046-0.637,0.636-1.159,1.201  c-0.245,0.263-0.767,0.787-0.823,0.852v0.02l1.677-0.098c0.229-0.012,0.298-0.048,0.332-0.139c0.021-0.057,0.018-0.146,0.016-0.199  c-0.001-0.045,0.009-0.061,0.031-0.061c0.03-0.001,0.035,0.04,0.037,0.095c0.007,0.194,0.002,0.375,0.005,0.453  c0.001,0.041,0.019,0.183,0.024,0.366c0.001,0.049,0,0.086-0.031,0.087c-0.021,0.001-0.034-0.021-0.036-0.066  c-0.001-0.038-0.002-0.066-0.015-0.111c-0.034-0.104-0.113-0.132-0.323-0.127l-2.359,0.042c-0.082,0.003-0.116-0.011-0.118-0.044  c-0.001-0.041,0.038-0.088,0.078-0.13c0.216-0.243,0.688-0.738,1.06-1.142c0.39-0.421,0.842-0.853,0.911-0.923v-0.011L42.087,22.487  z M41.585,25.938c0.035-0.057,0.056-0.064,0.137-0.054c0.203,0.03,0.424,0.076,0.481,0.09c0.055,0.012,0.094,0.027,0.09,0.058  c-0.004,0.034-0.038,0.032-0.067,0.028c-0.049-0.008-0.128-0.003-0.194,0.006c-0.286,0.042-0.417,0.246-0.45,0.476  c-0.048,0.333,0.154,0.528,0.352,0.558c0.182,0.025,0.359-0.006,0.645-0.277l0.158-0.151c0.377-0.36,0.656-0.465,0.956-0.422  c0.407,0.06,0.649,0.441,0.577,0.956c-0.035,0.24-0.095,0.392-0.135,0.483c-0.012,0.031-0.025,0.049-0.052,0.045  c-0.048-0.007-0.152-0.037-0.441-0.078c-0.082-0.012-0.109-0.027-0.105-0.057c0.004-0.026,0.027-0.034,0.072-0.027  c0.033,0.004,0.149,0.002,0.258-0.062c0.078-0.046,0.205-0.137,0.239-0.378c0.04-0.272-0.097-0.463-0.318-0.495  c-0.17-0.023-0.312,0.042-0.589,0.316l-0.093,0.093c-0.401,0.398-0.68,0.521-1.031,0.472c-0.215-0.03-0.458-0.148-0.594-0.44  c-0.092-0.202-0.097-0.414-0.067-0.61C41.442,26.249,41.492,26.087,41.585,25.938z M42.705,29.112  c0.547,0.154,0.648,0.183,0.766,0.208c0.125,0.027,0.195,0.009,0.235-0.065c0.022-0.036,0.039-0.082,0.051-0.125  c0.011-0.036,0.023-0.056,0.053-0.048c0.021,0.007,0.021,0.037,0.004,0.095c-0.039,0.138-0.113,0.36-0.144,0.466  c-0.024,0.09-0.073,0.305-0.112,0.44c-0.014,0.047-0.028,0.074-0.051,0.068c-0.028-0.009-0.029-0.032-0.02-0.068  s0.015-0.064,0.02-0.11c0.01-0.103-0.044-0.147-0.168-0.19c-0.112-0.04-0.213-0.068-0.76-0.223l-0.633-0.181  c-0.349-0.099-0.633-0.179-0.792-0.208c-0.1-0.017-0.172-0.01-0.217,0.095c-0.021,0.049-0.051,0.126-0.066,0.18  c-0.011,0.04-0.026,0.055-0.045,0.05c-0.025-0.007-0.028-0.039-0.017-0.079c0.066-0.236,0.142-0.461,0.169-0.559  c0.022-0.082,0.077-0.312,0.118-0.456c0.013-0.047,0.03-0.068,0.056-0.062c0.018,0.005,0.025,0.022,0.013,0.066  c-0.016,0.053-0.021,0.099-0.021,0.133c-0.006,0.076,0.049,0.115,0.149,0.155c0.146,0.061,0.431,0.141,0.779,0.239L42.705,29.112z   M40.502,30.431c0.048-0.046,0.069-0.048,0.146-0.016c0.188,0.081,0.389,0.186,0.441,0.211c0.051,0.026,0.083,0.054,0.072,0.08  c-0.013,0.031-0.046,0.021-0.073,0.009c-0.044-0.019-0.123-0.035-0.188-0.044c-0.287-0.033-0.467,0.128-0.56,0.342  c-0.134,0.309,0.011,0.55,0.192,0.629c0.168,0.071,0.348,0.09,0.694-0.101l0.191-0.104c0.458-0.25,0.755-0.277,1.033-0.156  c0.377,0.163,0.512,0.596,0.306,1.072c-0.097,0.224-0.192,0.353-0.256,0.432c-0.02,0.028-0.038,0.041-0.062,0.03  c-0.044-0.021-0.139-0.076-0.406-0.192c-0.075-0.032-0.099-0.055-0.086-0.082c0.01-0.022,0.035-0.024,0.077-0.007  c0.031,0.013,0.145,0.042,0.265,0.009c0.088-0.022,0.233-0.079,0.33-0.302c0.11-0.254,0.029-0.473-0.177-0.562  c-0.158-0.068-0.312-0.041-0.651,0.149l-0.113,0.064c-0.492,0.28-0.792,0.325-1.119,0.185c-0.199-0.086-0.403-0.264-0.458-0.58  c-0.036-0.22,0.017-0.425,0.095-0.606C40.282,30.694,40.373,30.55,40.502,30.431z M13.791,41.773c-0.024,0-0.056-0.002-0.114-0.02  c-0.053-0.015-0.07-0.058-0.09-0.186l-0.189-1.25c-0.009-0.048-0.034-0.077-0.064-0.079c-0.029,0.001-0.052,0.024-0.069,0.06  l-0.548,1.112l-0.546-1.098c-0.026-0.057-0.05-0.074-0.08-0.074c-0.029,0.001-0.052,0.029-0.057,0.066l-0.207,1.321  c-0.009,0.067-0.032,0.141-0.071,0.142c-0.032,0.004-0.046,0.004-0.062,0.004c-0.025,0-0.049,0.012-0.05,0.037  c0,0.032,0.033,0.04,0.055,0.04c0.068,0,0.168-0.008,0.208-0.008c0.037,0,0.132,0.008,0.221,0.008c0.029,0,0.065-0.005,0.067-0.04  c-0.003-0.027-0.026-0.036-0.05-0.037c-0.018,0-0.035-0.002-0.07-0.009c-0.035-0.009-0.05-0.017-0.051-0.044  c0-0.031,0.002-0.058,0.007-0.093l0.094-0.746c0.07,0.145,0.175,0.359,0.19,0.395c0.024,0.06,0.19,0.367,0.241,0.461  c0.034,0.061,0.054,0.105,0.099,0.111c0.04-0.004,0.051-0.031,0.099-0.124l0.432-0.866l0.109,0.832  c0.002,0.018,0.003,0.032,0.003,0.043c0,0.023-0.003,0.022-0.002,0.024c-0.015,0.006-0.033,0.015-0.035,0.037  c0.003,0.029,0.029,0.039,0.078,0.041c0.084,0.005,0.382,0.015,0.436,0.015c0.031-0.001,0.066-0.003,0.071-0.04  C13.839,41.781,13.812,41.773,13.791,41.773z M15.5,40.521c-0.234-0.237-0.593-0.235-0.854-0.235c-0.126,0-0.277,0.004-0.341,0.004  c-0.06,0-0.193-0.004-0.303-0.004c-0.028,0-0.062,0.002-0.064,0.035c0.001,0.029,0.029,0.039,0.053,0.039  c0.03,0,0.066,0.002,0.079,0.006c0.063,0.021,0.071,0.028,0.078,0.095c0.003,0.063,0.003,0.12,0.003,0.429v0.355  c0,0.188,0,0.346-0.01,0.43c-0.009,0.061-0.019,0.086-0.05,0.094c-0.018,0.004-0.04,0.006-0.069,0.006  c-0.031,0-0.05,0.02-0.05,0.039c0.001,0.028,0.029,0.038,0.058,0.038c0.043,0,0.096-0.002,0.146-0.005  c0.051,0,0.097-0.003,0.119-0.003c0.052,0,0.127,0.006,0.21,0.013c0.083,0.005,0.175,0.012,0.251,0.012  c0.391,0,0.616-0.145,0.715-0.243c0.121-0.119,0.233-0.315,0.233-0.576C15.703,40.802,15.607,40.629,15.5,40.521z M15.368,41.105  c0,0.207-0.042,0.382-0.172,0.488c-0.123,0.103-0.258,0.135-0.446,0.135c-0.162,0.001-0.24-0.044-0.26-0.073  c-0.011-0.012-0.02-0.086-0.021-0.134c-0.003-0.04-0.006-0.195-0.006-0.409v-0.255c0-0.159,0-0.326,0.003-0.396  c0.003-0.021,0-0.018,0.016-0.024c0.009-0.007,0.082-0.015,0.123-0.014c0.163,0,0.386,0.021,0.574,0.188  C15.268,40.69,15.368,40.853,15.368,41.105z M17.351,41.434c-0.028-0.001-0.041,0.025-0.042,0.055  c-0.006,0.033-0.034,0.09-0.068,0.127c-0.078,0.087-0.173,0.102-0.358,0.102c-0.272-0.001-0.635-0.222-0.636-0.691  c0-0.196,0.038-0.386,0.188-0.514c0.091-0.077,0.203-0.11,0.384-0.11c0.189,0,0.327,0.05,0.393,0.114  c0.049,0.049,0.074,0.116,0.076,0.177c0,0.023,0.004,0.058,0.039,0.06c0.036-0.003,0.043-0.038,0.045-0.065  c0.002-0.041,0.002-0.153,0.007-0.22c0.004-0.07,0.01-0.094,0.01-0.112c0.002-0.021-0.02-0.04-0.047-0.04  c-0.061-0.008-0.129-0.022-0.208-0.034c-0.096-0.012-0.176-0.021-0.308-0.021c-0.313,0-0.52,0.083-0.675,0.22  c-0.205,0.184-0.251,0.426-0.251,0.566c0,0.198,0.056,0.435,0.268,0.61c0.195,0.164,0.442,0.224,0.73,0.224  c0.137,0,0.296-0.012,0.385-0.047c0.037-0.013,0.057-0.033,0.065-0.069c0.021-0.072,0.045-0.245,0.045-0.273  C17.391,41.465,17.382,41.437,17.351,41.434z M19.029,41.434c-0.028-0.001-0.041,0.025-0.043,0.055  c-0.005,0.033-0.034,0.09-0.067,0.127c-0.079,0.087-0.173,0.102-0.358,0.102c-0.273-0.001-0.636-0.222-0.637-0.691  c0-0.196,0.038-0.386,0.188-0.514c0.092-0.077,0.203-0.11,0.384-0.11c0.19,0,0.327,0.05,0.394,0.114  c0.049,0.049,0.072,0.116,0.075,0.177c0,0.023,0.006,0.058,0.039,0.06c0.037-0.003,0.043-0.038,0.045-0.065  c0.002-0.041,0.002-0.153,0.008-0.22c0.004-0.07,0.009-0.094,0.01-0.112c0.001-0.021-0.021-0.04-0.047-0.04  c-0.062-0.008-0.129-0.022-0.208-0.034c-0.097-0.012-0.177-0.021-0.308-0.021c-0.314,0-0.521,0.083-0.676,0.22  c-0.205,0.184-0.251,0.426-0.251,0.566c0,0.198,0.056,0.435,0.269,0.61c0.194,0.164,0.441,0.224,0.729,0.224  c0.137,0,0.297-0.012,0.385-0.047c0.037-0.013,0.058-0.033,0.064-0.069c0.021-0.072,0.045-0.245,0.046-0.273  C19.069,41.465,19.06,41.437,19.029,41.434z M20.707,41.434c-0.027-0.001-0.041,0.025-0.043,0.055  c-0.006,0.033-0.034,0.09-0.066,0.127c-0.079,0.087-0.174,0.102-0.359,0.102c-0.272-0.001-0.635-0.222-0.635-0.691  c0-0.196,0.037-0.386,0.187-0.514c0.092-0.077,0.203-0.11,0.385-0.11c0.189,0,0.327,0.05,0.394,0.114  c0.049,0.049,0.074,0.116,0.076,0.177c0,0.023,0.005,0.058,0.039,0.06c0.037-0.003,0.043-0.038,0.045-0.065  c0.002-0.041,0.002-0.153,0.007-0.22c0.005-0.07,0.009-0.094,0.009-0.112c0.002-0.021-0.019-0.04-0.046-0.04  c-0.061-0.008-0.129-0.022-0.209-0.034c-0.095-0.012-0.175-0.021-0.307-0.021c-0.314,0-0.521,0.083-0.677,0.22  c-0.205,0.184-0.251,0.426-0.251,0.566c0,0.198,0.057,0.435,0.269,0.61c0.194,0.164,0.441,0.224,0.729,0.224  c0.138,0,0.297-0.012,0.386-0.047c0.036-0.013,0.057-0.033,0.064-0.069c0.022-0.072,0.045-0.245,0.046-0.273  C20.747,41.465,20.738,41.437,20.707,41.434z M28.803,41.773c-0.019,0-0.051-0.002-0.076-0.011  c-0.043-0.015-0.072-0.032-0.106-0.075c-0.049-0.061-0.379-0.581-0.459-0.703l0.34-0.465c0.064-0.089,0.104-0.141,0.142-0.148  c0.027-0.007,0.053-0.011,0.071-0.011c0.025,0,0.05-0.014,0.051-0.039c-0.002-0.031-0.032-0.036-0.056-0.036  c-0.08,0-0.166,0.005-0.205,0.005c-0.04,0-0.138-0.005-0.22-0.005c-0.029,0-0.06,0.005-0.062,0.036  c0.001,0.028,0.025,0.039,0.043,0.039c0.017,0,0.044,0,0.062,0.006c0.019,0.004,0.024,0.015,0.024,0.018  c0,0.013-0.006,0.039-0.022,0.064c-0.032,0.053-0.195,0.293-0.268,0.399c-0.079-0.132-0.161-0.266-0.248-0.418  c-0.011-0.02-0.021-0.047-0.021-0.052c0-0.002,0.002-0.009,0.017-0.013s0.036-0.006,0.046-0.006c0.021,0,0.049-0.01,0.05-0.039  c-0.002-0.031-0.033-0.036-0.06-0.036c-0.079,0-0.208,0.005-0.236,0.005c-0.101,0-0.269-0.005-0.319-0.005  c-0.024,0.001-0.055,0.001-0.06,0.034c0,0.021,0.016,0.041,0.038,0.041c0.019,0,0.051,0.004,0.083,0.014  c0.068,0.022,0.106,0.062,0.16,0.142l0.361,0.564l-0.401,0.544c-0.072,0.099-0.102,0.125-0.158,0.142  c-0.028,0.007-0.06,0.009-0.072,0.009c-0.024,0.001-0.045,0.018-0.045,0.041s0.024,0.036,0.048,0.036h0.036  c0.034,0,0.137-0.008,0.176-0.008c0.052,0,0.189,0.008,0.203,0.008h0.038c0.027,0,0.058-0.004,0.06-0.036  c-0.002-0.025-0.021-0.039-0.043-0.041c-0.015,0-0.03-0.002-0.045-0.002c-0.013,0-0.022-0.01-0.022-0.018c0-0.001,0-0.003,0-0.003  c0-0.015,0.01-0.042,0.028-0.07l0.293-0.453c0.093,0.149,0.201,0.332,0.316,0.52c0.004,0.007,0.005,0.012,0.005,0.014  c0,0.005-0.002,0.005-0.002,0.005c-0.021,0.005-0.041,0.021-0.041,0.043c0.006,0.036,0.038,0.034,0.09,0.038  c0.172,0.005,0.339,0.005,0.39,0.005h0.062c0.024,0,0.055-0.008,0.059-0.038C28.846,41.788,28.824,41.773,28.803,41.773z   M30.581,41.773c-0.018,0-0.05-0.002-0.076-0.011c-0.043-0.015-0.071-0.032-0.105-0.075c-0.049-0.061-0.379-0.581-0.46-0.703  l0.341-0.465c0.064-0.089,0.104-0.141,0.141-0.148c0.028-0.007,0.054-0.011,0.072-0.011c0.025,0,0.05-0.014,0.05-0.039  c-0.001-0.031-0.031-0.036-0.055-0.036c-0.079,0-0.165,0.005-0.205,0.005s-0.138-0.005-0.219-0.005  c-0.029,0-0.062,0.005-0.062,0.036c0.001,0.028,0.026,0.039,0.043,0.039c0.018,0,0.044,0,0.062,0.006  c0.019,0.004,0.024,0.015,0.023,0.018c0,0.013-0.006,0.039-0.021,0.064c-0.032,0.053-0.195,0.293-0.269,0.399  c-0.078-0.133-0.16-0.266-0.247-0.418c-0.012-0.02-0.021-0.047-0.02-0.052c0-0.002,0.001-0.008,0.016-0.013  c0.016-0.004,0.036-0.006,0.047-0.006c0.021,0,0.049-0.01,0.05-0.039c-0.002-0.031-0.033-0.036-0.061-0.036  c-0.079,0-0.208,0.005-0.234,0.005c-0.101,0-0.27-0.005-0.319-0.005c-0.025,0.001-0.055,0.001-0.06,0.034  c0,0.021,0.017,0.041,0.037,0.041s0.053,0.004,0.083,0.014c0.069,0.022,0.107,0.062,0.16,0.142l0.362,0.564l-0.402,0.544  c-0.071,0.099-0.101,0.125-0.157,0.142c-0.029,0.007-0.06,0.009-0.071,0.009c-0.025,0.001-0.045,0.018-0.046,0.041  c0,0.023,0.023,0.036,0.048,0.036h0.036c0.035,0,0.137-0.008,0.176-0.008c0.052,0,0.189,0.008,0.203,0.008h0.038  c0.026,0,0.058-0.004,0.06-0.036c-0.002-0.025-0.021-0.039-0.043-0.041c-0.015,0-0.031-0.002-0.045-0.002  c-0.013,0-0.022-0.008-0.023-0.018c0-0.001,0-0.003,0-0.003c0-0.015,0.01-0.042,0.028-0.07l0.292-0.453  c0.092,0.149,0.201,0.332,0.317,0.52c0.004,0.007,0.005,0.012,0.005,0.014c0,0.004-0.002,0.005-0.002,0.005  c-0.021,0.005-0.041,0.021-0.041,0.043c0.006,0.036,0.038,0.034,0.09,0.038c0.171,0.005,0.338,0.005,0.389,0.005h0.062  c0.024,0,0.055-0.008,0.058-0.038C30.624,41.788,30.603,41.773,30.581,41.773z M32.359,41.773c-0.019,0-0.05-0.002-0.076-0.011  c-0.043-0.015-0.072-0.032-0.106-0.075c-0.049-0.061-0.379-0.581-0.459-0.703l0.341-0.465c0.063-0.089,0.104-0.141,0.141-0.148  c0.028-0.007,0.053-0.011,0.072-0.011c0.024,0,0.049-0.014,0.05-0.039c-0.002-0.031-0.032-0.036-0.055-0.036  c-0.079,0-0.166,0.005-0.205,0.005c-0.04,0-0.139-0.005-0.22-0.005c-0.028,0-0.061,0.005-0.062,0.036  c0.001,0.028,0.025,0.039,0.043,0.039c0.016,0,0.044,0,0.061,0.006c0.02,0.004,0.025,0.015,0.024,0.018  c0,0.013-0.006,0.039-0.021,0.064c-0.032,0.053-0.195,0.293-0.269,0.399c-0.079-0.132-0.161-0.266-0.248-0.418  c-0.011-0.02-0.02-0.047-0.02-0.052c0-0.002,0.002-0.009,0.016-0.013c0.015-0.004,0.036-0.006,0.046-0.006  c0.021,0,0.049-0.01,0.05-0.039c-0.002-0.031-0.032-0.036-0.06-0.036c-0.079,0-0.208,0.005-0.236,0.005  c-0.099,0-0.268-0.005-0.317-0.005c-0.026,0.001-0.057,0.001-0.061,0.034c0,0.021,0.018,0.041,0.038,0.041  c0.02,0,0.052,0.004,0.083,0.014c0.069,0.022,0.107,0.062,0.159,0.142l0.363,0.564l-0.402,0.544  c-0.072,0.099-0.101,0.125-0.157,0.142c-0.029,0.007-0.059,0.009-0.072,0.009c-0.023,0.001-0.045,0.018-0.045,0.041  s0.024,0.036,0.047,0.036h0.036c0.035,0,0.138-0.008,0.177-0.008c0.052,0,0.188,0.008,0.201,0.008h0.038  c0.027,0,0.059-0.004,0.061-0.036c-0.002-0.025-0.021-0.039-0.043-0.041c-0.017,0-0.032-0.002-0.045-0.002  c-0.014,0-0.023-0.008-0.024-0.018v-0.003c0-0.015,0.01-0.042,0.028-0.07l0.293-0.453c0.092,0.149,0.201,0.332,0.315,0.52  c0.004,0.007,0.006,0.012,0.006,0.014c0,0.004-0.003,0.005-0.003,0.005c-0.021,0.005-0.041,0.021-0.041,0.043  c0.007,0.036,0.038,0.033,0.091,0.038c0.172,0.005,0.339,0.005,0.389,0.005h0.062c0.025,0,0.056-0.008,0.059-0.038  C32.401,41.788,32.38,41.773,32.359,41.773z M33.453,41.773c-0.03,0-0.078-0.002-0.104-0.007c-0.057-0.012-0.061-0.026-0.069-0.08  c-0.009-0.084-0.009-0.246-0.009-0.44v-0.356c0-0.309,0-0.364,0.004-0.429c0.007-0.069,0.015-0.083,0.063-0.094  c0.024-0.005,0.039-0.007,0.06-0.007s0.051-0.012,0.051-0.041c-0.005-0.033-0.035-0.033-0.061-0.034  c-0.081,0-0.218,0.005-0.27,0.005c-0.059,0-0.202-0.005-0.281-0.005c-0.031,0.001-0.062,0-0.066,0.034  c0,0.029,0.028,0.041,0.051,0.041c0.025,0,0.05,0.002,0.071,0.009c0.04,0.015,0.053,0.025,0.06,0.092  c0.002,0.063,0.002,0.12,0.002,0.429v0.356c0,0.194,0,0.356-0.01,0.438c-0.009,0.06-0.015,0.073-0.049,0.083  c-0.018,0.004-0.04,0.006-0.07,0.006c-0.031,0-0.051,0.02-0.051,0.039c0.001,0.029,0.031,0.038,0.058,0.038  c0.084,0,0.228-0.008,0.273-0.008c0.056,0,0.2,0.008,0.338,0.008c0.025,0,0.055-0.008,0.058-0.038  C33.504,41.791,33.482,41.773,33.453,41.773z M34.724,41.773c-0.03,0-0.078-0.002-0.104-0.007c-0.056-0.012-0.06-0.026-0.069-0.08  c-0.01-0.084-0.01-0.246-0.01-0.44v-0.356c0-0.309,0-0.364,0.005-0.429c0.008-0.069,0.015-0.083,0.064-0.094  c0.023-0.005,0.039-0.007,0.059-0.007c0.021,0,0.051-0.012,0.051-0.041c-0.006-0.033-0.034-0.033-0.061-0.034  c-0.082,0-0.218,0.005-0.27,0.005c-0.06,0-0.202-0.005-0.281-0.005c-0.032,0.001-0.062,0-0.067,0.034  c0,0.029,0.029,0.041,0.05,0.041c0.025,0,0.051,0.002,0.071,0.009c0.04,0.015,0.052,0.025,0.06,0.092  c0.003,0.063,0.003,0.12,0.003,0.429v0.356c0,0.194,0,0.356-0.011,0.438c-0.009,0.06-0.015,0.073-0.049,0.083  c-0.018,0.004-0.04,0.006-0.069,0.006c-0.031,0-0.051,0.02-0.051,0.039c0.001,0.029,0.03,0.038,0.058,0.038  c0.084,0,0.227-0.008,0.273-0.008c0.057,0,0.2,0.008,0.338,0.008c0.025,0,0.056-0.008,0.059-0.038  C34.774,41.791,34.753,41.773,34.724,41.773z M35.995,41.773c-0.03,0-0.077-0.002-0.104-0.007c-0.057-0.012-0.061-0.026-0.069-0.08  c-0.01-0.084-0.01-0.246-0.01-0.44v-0.356c0-0.309,0-0.364,0.005-0.429c0.007-0.069,0.014-0.083,0.063-0.094  c0.024-0.005,0.039-0.007,0.06-0.007s0.05-0.012,0.05-0.041c-0.005-0.033-0.035-0.033-0.06-0.034c-0.081,0-0.218,0.005-0.27,0.005  c-0.059,0-0.202-0.005-0.281-0.005c-0.031,0.001-0.062,0-0.066,0.034c0,0.029,0.028,0.041,0.05,0.041  c0.025,0,0.05,0.002,0.071,0.009c0.041,0.015,0.053,0.025,0.06,0.092c0.002,0.063,0.002,0.12,0.002,0.429v0.356  c0,0.194,0,0.356-0.009,0.438c-0.009,0.06-0.015,0.073-0.049,0.083c-0.019,0.004-0.04,0.006-0.07,0.006  c-0.031,0-0.05,0.02-0.05,0.039c0.001,0.029,0.031,0.038,0.058,0.038c0.084,0,0.228-0.008,0.274-0.008  c0.056,0,0.2,0.008,0.338,0.008c0.024,0,0.055-0.008,0.057-0.038C36.045,41.79,36.024,41.773,35.995,41.773z M23.406,31.974v-1.188  c0-0.222-0.18-0.402-0.402-0.402c-0.222,0-0.402,0.182-0.402,0.402v1.188H23.406z M25.583,31.974v-1.188  c0-0.222-0.18-0.402-0.401-0.402c-0.224,0-0.403,0.182-0.403,0.402v1.188H25.583z M24.092,8.076c-0.232,0-0.422,0.189-0.422,0.422  c0,0.233,0.189,0.422,0.422,0.422c0.233,0,0.423-0.188,0.423-0.422C24.514,8.265,24.325,8.076,24.092,8.076z M23.879,19.853h0.426  v-0.915h-0.426V19.853L23.879,19.853z M19.84,42.941c-0.232,0-0.422,0.188-0.422,0.422s0.189,0.422,0.422,0.422  c0.233,0,0.423-0.188,0.423-0.422S20.073,42.941,19.84,42.941z M19.584,19.869v-1.345c-0.003-0.315-0.158-0.533-0.39-0.635  c-0.231,0.102-0.386,0.319-0.389,0.636v1.344H19.584z M19.584,15.548V14.68c-0.003-0.315-0.158-0.534-0.39-0.637  c-0.231,0.104-0.386,0.321-0.389,0.637v0.867H19.584z M19.402,24.539v-1.127c0-0.116-0.093-0.209-0.209-0.209  s-0.209,0.093-0.209,0.209v1.127H19.402z M19.402,27.931v-1.126c0-0.116-0.093-0.211-0.209-0.211s-0.209,0.095-0.209,0.211v1.126  H19.402z M19.525,31.721v-1c0-0.188-0.151-0.339-0.338-0.339c-0.188,0-0.338,0.151-0.338,0.339v1H19.525z M19.194,3.409  c-0.233,0-0.422,0.189-0.422,0.422c0,0.233,0.188,0.422,0.422,0.422c0.232,0,0.422-0.188,0.422-0.422  C19.616,3.598,19.427,3.409,19.194,3.409z M29.375,19.869v-1.345c-0.002-0.315-0.158-0.533-0.389-0.635  c-0.231,0.102-0.387,0.319-0.389,0.636v1.344H29.375z M29.375,15.548V14.68c-0.002-0.315-0.158-0.534-0.389-0.637  c-0.231,0.104-0.387,0.321-0.389,0.637v0.867H29.375z M29.194,24.539v-1.127c0-0.116-0.094-0.209-0.209-0.209  s-0.209,0.093-0.209,0.209v1.127H29.194z M29.194,27.931v-1.126c0-0.116-0.094-0.211-0.209-0.211s-0.209,0.095-0.209,0.211v1.126  H29.194z M29.317,31.721v-1c0-0.188-0.151-0.339-0.338-0.339c-0.188,0-0.338,0.151-0.338,0.339v1H29.317z M28.985,3.409  c-0.233,0-0.422,0.189-0.422,0.422c0,0.233,0.188,0.422,0.422,0.422c0.232,0,0.422-0.188,0.422-0.422  C29.408,3.598,29.219,3.409,28.985,3.409z M60.109,21.36c-3.838,0-4.703-2.09-4.703-4.415V8.998h2.342v7.803  c0,1.532,0.505,2.613,2.523,2.613c1.802,0,2.559-0.757,2.559-2.829V8.998h2.325v7.442C65.155,19.774,63.316,21.36,60.109,21.36z   M73.155,21.162v-5.729c0-0.938-0.253-1.496-1.1-1.496c-1.172,0-2.091,1.334-2.091,2.901v4.325h-2.307v-8.956h2.181  c0,0.415-0.035,1.117-0.126,1.586l0.019,0.019c0.541-1.063,1.586-1.803,3.046-1.803c2.018,0,2.666,1.298,2.666,2.865v6.289  L73.155,21.162L73.155,21.162z M79.102,11.052c-0.793,0-1.424-0.631-1.424-1.405c0-0.757,0.631-1.389,1.424-1.389  s1.44,0.613,1.44,1.389C80.543,10.422,79.895,11.052,79.102,11.052z M77.948,21.162v-8.956h2.307v8.956H77.948z M87.211,21.162  h-2.343l-3.314-8.956h2.521l1.424,4.036c0.216,0.613,0.434,1.334,0.596,1.982h0.035c0.145-0.612,0.324-1.298,0.54-1.91l1.441-4.108  h2.451L87.211,21.162z M98.797,17.054h-5.551c-0.018,1.676,0.812,2.485,2.469,2.485c0.884,0,1.839-0.198,2.613-0.559l0.216,1.784  c-0.955,0.378-2.09,0.576-3.207,0.576c-2.848,0-4.433-1.423-4.433-4.576c0-2.739,1.514-4.758,4.198-4.758  c2.611,0,3.767,1.784,3.767,4C98.869,16.314,98.851,16.675,98.797,17.054z M95.03,13.702c-0.955,0-1.622,0.703-1.748,1.784h3.298  C96.616,14.368,96.004,13.702,95.03,13.702z M105.59,14.278c-1.657-0.343-2.485,0.739-2.485,3.226v3.658h-2.308v-8.956h2.181  c0,0.45-0.055,1.171-0.162,1.802h0.036c0.433-1.135,1.298-2.126,2.848-2L105.59,14.278z M108.743,21.342  c-0.647,0-1.298-0.071-1.874-0.161l0.055-1.893c0.559,0.145,1.242,0.271,1.929,0.271c0.883,0,1.459-0.361,1.459-0.956  c0-1.585-3.621-0.686-3.621-3.73c0-1.567,1.278-2.865,3.802-2.865c0.522,0,1.1,0.072,1.64,0.162l-0.07,1.82  c-0.505-0.146-1.101-0.234-1.658-0.234c-0.901,0-1.333,0.36-1.333,0.919c0,1.46,3.676,0.812,3.676,3.713  C112.744,20.153,111.194,21.342,108.743,21.342z M115.861,11.052c-0.793,0-1.424-0.631-1.424-1.405c0-0.757,0.631-1.389,1.424-1.389  s1.44,0.613,1.44,1.389C117.302,10.422,116.654,11.052,115.861,11.052z M114.708,21.162v-8.956h2.308v8.956H114.708z   M122.851,21.342c-1.982,0-2.613-0.721-2.613-2.811V13.99h-1.531v-1.784h1.531V9.449l2.307-0.613v3.37h2.182v1.784h-2.182v3.928  c0,1.153,0.271,1.479,1.063,1.479c0.378,0,0.793-0.055,1.117-0.145v1.856C124.147,21.252,123.481,21.342,122.851,21.342z   M131.731,21.162c0-0.521,0.019-1.045,0.091-1.514l-0.019-0.019c-0.434,1.01-1.531,1.712-2.865,1.712c-1.621,0-2.56-0.919-2.56-2.36  c0-2.145,2.126-3.279,5.172-3.279v-0.487c0-0.937-0.45-1.423-1.747-1.423c-0.812,0-1.894,0.271-2.649,0.703l-0.198-1.928  c0.901-0.324,2.056-0.56,3.208-0.56c2.884,0,3.694,1.172,3.694,3.118v3.73c0,0.721,0.018,1.567,0.054,2.307L131.731,21.162  L131.731,21.162z M128.561,10.729c-0.687,0-1.243-0.56-1.243-1.244c0-0.703,0.558-1.244,1.243-1.244  c0.685,0,1.243,0.541,1.243,1.244C129.804,10.169,129.245,10.729,128.561,10.729z M131.552,17.198c-2.433,0-2.974,0.703-2.974,1.423  c0,0.577,0.396,0.955,1.063,0.955c1.135,0,1.909-1.081,1.909-2.162L131.552,17.198L131.552,17.198z M132.2,10.729  c-0.685,0-1.243-0.56-1.243-1.244c0-0.703,0.56-1.244,1.243-1.244s1.244,0.541,1.244,1.244  C133.444,10.169,132.885,10.729,132.2,10.729z M139.55,21.342c-1.981,0-2.612-0.721-2.612-2.811V13.99h-1.531v-1.784h1.531V9.449  l2.307-0.613v3.37h2.181v1.784h-2.181v3.928c0,1.153,0.271,1.479,1.063,1.479c0.379,0,0.793-0.055,1.116-0.145v1.856  C140.847,21.252,140.181,21.342,139.55,21.342z M54.955,40.202V38.4l4.379-7.137c0.252-0.414,0.504-0.774,0.793-1.153  c-0.433,0.019-1.009,0.036-2.217,0.036h-2.811v-2.108h7.856v1.874l-4.631,7.316c-0.18,0.288-0.342,0.559-0.558,0.848  c0.306-0.036,1.135-0.036,2.631-0.036h2.631v2.162H54.955z M70.484,40.202c0-0.414,0.018-1.117,0.107-1.586l-0.018-0.018  c-0.541,1.062-1.567,1.802-3.045,1.802c-2.02,0-2.667-1.298-2.667-2.865v-6.289h2.289v5.73c0,0.937,0.252,1.496,1.117,1.496  c1.171,0,2.071-1.334,2.071-2.901v-4.325h2.308v8.956H70.484z M66.826,29.769c-0.685,0-1.243-0.56-1.243-1.244  c0-0.702,0.56-1.243,1.243-1.243c0.685,0,1.244,0.541,1.244,1.243C68.069,29.21,67.511,29.769,66.826,29.769z M70.466,29.769  c-0.685,0-1.243-0.56-1.243-1.244c0-0.702,0.559-1.243,1.243-1.243c0.686,0,1.243,0.541,1.243,1.243  C71.709,29.21,71.151,29.769,70.466,29.769z M79.926,33.318c-1.656-0.343-2.485,0.739-2.485,3.226v3.658h-2.308v-8.956h2.182  c0,0.45-0.055,1.171-0.162,1.802h0.036c0.432-1.135,1.297-2.126,2.847-2L79.926,33.318z M82.854,30.093  c-0.793,0-1.424-0.631-1.424-1.405c0-0.756,0.631-1.388,1.424-1.388s1.44,0.612,1.44,1.388  C84.295,29.462,83.646,30.093,82.854,30.093z M81.7,40.202v-8.956h2.307v8.956H81.7z M89.729,40.364  c-2.486,0-4.036-1.297-4.036-4.343c0-2.793,1.46-4.938,4.632-4.938c0.612,0,1.261,0.09,1.838,0.252l-0.233,2.001  c-0.486-0.181-1.046-0.325-1.622-0.325c-1.46,0-2.198,1.081-2.198,2.775c0,1.531,0.595,2.577,2.126,2.577  c0.612,0,1.279-0.127,1.767-0.379l0.181,1.965C91.567,40.185,90.684,40.364,89.729,40.364z M99.478,40.202v-5.729  c0-0.938-0.252-1.496-1.1-1.496c-1.172,0-2.091,1.334-2.091,2.9v4.325h-2.307V27.047h2.307v3.839c0,0.541-0.036,1.298-0.162,1.82  l0.036,0.019c0.522-1.01,1.55-1.677,2.938-1.677c2.018,0,2.667,1.299,2.667,2.865v6.289H99.478z M105.334,31.716  c-1.461,0-1.813-0.788-1.813-1.706v-2.972h1.061v2.91c0,0.537,0.17,0.877,0.822,0.877c0.599,0,0.83-0.252,0.83-0.938v-2.85h1.047  v2.788C107.279,31.118,106.552,31.716,105.334,31.716z M108.163,31.628v-0.83l1.477-2.468c0.073-0.122,0.155-0.238,0.243-0.354  c-0.12,0.007-0.277,0.014-0.721,0.014h-0.951v-0.952h2.972v0.863l-1.558,2.502c-0.055,0.089-0.107,0.164-0.177,0.259  c0.089-0.014,0.347-0.014,0.891-0.014h0.87v0.979L108.163,31.628L108.163,31.628z M114.922,31.628v-1.911h-1.68v1.911h-1.061v-4.59  h1.061V28.8h1.68v-1.762h1.062v4.59H114.922z M0,24.091C0,10.786,10.786,0,24.091,0l0,0c13.306,0,24.092,10.786,24.092,24.091l0,0  c0,13.306-10.786,24.092-24.092,24.092l0,0C10.786,48.182,0,37.396,0,24.091L0,24.091z M7.477,7.477  C3.225,11.73,0.595,17.602,0.595,24.091l0,0c0,6.489,2.629,12.361,6.882,16.614l0,0c4.253,4.252,10.125,6.881,16.613,6.881l0,0  c6.489,0,12.361-2.629,16.614-6.881l0,0c4.252-4.253,6.882-10.125,6.882-16.614l0,0c0-6.488-2.629-12.36-6.882-16.613l0,0  C36.452,3.224,30.58,0.594,24.091,0.594l0,0C17.602,0.594,11.73,3.224,7.477,7.477L7.477,7.477z M24.456,39.232h0.194v-0.34h-0.462  v0.753h0.269L24.456,39.232z M24.091,1.568c-12.436,0-22.516,10.081-22.516,22.516c0,12.437,10.081,22.518,22.516,22.518  c12.436,0,22.516-10.081,22.517-22.518C46.606,11.649,36.526,1.568,24.091,1.568z M21.598,43.19h-1.021v0.34h1.021v2.53  c-5.112-0.573-9.696-2.889-13.146-6.338c-0.495-0.495-0.967-1.015-1.414-1.555c0.091-0.549,0.565-0.967,1.141-0.967  c0.639,0,1.155,0.518,1.155,1.156v1.11h1.468v-0.007l0,0v-1.104c0-0.64,0.519-1.156,1.156-1.156c0.639,0,1.157,0.518,1.157,1.156  v1.11h1.468v-0.007l0,0v-1.104c0-0.64,0.519-1.156,1.156-1.156s1.157,0.518,1.157,1.156v1.11h1.468v-0.007l0,0v-1.104  c0-0.64,0.518-1.156,1.157-1.156c0.639,0,1.155,0.518,1.155,1.156v1.11h0.922V43.19z M25.794,46.135  c-0.562,0.044-1.13,0.065-1.703,0.065c-0.571,0-1.14-0.021-1.7-0.063l-0.418-2.606h0.481c-0.12-0.286-0.329-0.786-0.409-0.989  c-0.13-0.326-0.032-0.542,0.185-0.626c0.211-0.082,0.449,0.034,0.523,0.312l0.211,0.792h0.309v0.511l0,0v0.102h-0.729v0.341h1.066  l0.001-0.441h1.293l-0.001-0.511h0.31l0.213-0.792c0.075-0.278,0.315-0.396,0.528-0.312c0.218,0.084,0.315,0.3,0.186,0.626  c-0.035,0.089-0.093,0.235-0.154,0.396l-0.288,0.695H24.92v0.341h1.005l0.184-0.441h0.104L25.794,46.135z M23.391,38.684h1.4  c0.055,0.129,0.188,0.454,0.271,0.643c0.057,0.131,0.13,0.271,0.041,0.416c-0.106,0.171-0.245,0.146-0.342,0.139  c-0.006-0.001-0.012,0-0.018-0.001c-0.098,0.269-0.352,0.459-0.653,0.459c-0.301,0-0.555-0.19-0.652-0.459  c-0.005,0.001-0.013,0-0.018,0.001c-0.098,0.009-0.235,0.032-0.342-0.139c-0.089-0.145-0.016-0.285,0.041-0.416  C23.204,39.138,23.337,38.812,23.391,38.684z M23.18,37.23l0.447,0.641l0.458-0.869l0.458,0.869l0.448-0.641l-0.178,1.111h-1.456  L23.18,37.23z M23.715,40.376c0.105,0.293,0.385,0.504,0.715,0.504c0.356,0,0.654-0.247,0.736-0.58  c0.222,0.012,0.442,0.075,0.661,0.261c0.211,0.177,0.293,0.48,0.323,0.632h-4.116c0.029-0.15,0.112-0.455,0.323-0.632  C22.808,40.181,23.268,40.305,23.715,40.376z M25.414,41.532c-0.155,0.586-0.688,1.019-1.322,1.019  c-0.634,0-1.167-0.433-1.321-1.019H25.414z M39.729,39.723c-3.45,3.449-8.033,5.764-13.145,6.337v-2.53h0.935  c1.731,0,2.983-0.146,2.983-0.146s-1.289-0.194-2.983-0.194h-0.935v-3.721h1.117v-0.007l0,0v-1.104c0-0.64,0.519-1.156,1.157-1.156  s1.157,0.519,1.157,1.156v1.11h1.467v-0.007l0,0v-1.104c0-0.64,0.518-1.156,1.156-1.156c0.638,0,1.155,0.519,1.155,1.156v1.11h1.469  v-0.007l0,0v-1.104c0-0.64,0.518-1.156,1.156-1.156c0.64,0,1.156,0.519,1.156,1.156v1.11h1.468v-0.007l0,0v-1.104  c0-0.64,0.519-1.156,1.157-1.156c0.506,0,0.937,0.326,1.092,0.78C40.803,38.589,40.281,39.171,39.729,39.723z M41.541,37.673  c-0.257-0.541-0.808-0.916-1.445-0.916c-0.885,0-1.602,0.718-1.602,1.603v0.517h-0.579v-0.517c0-0.885-0.717-1.603-1.601-1.603  s-1.602,0.718-1.602,1.603v0.517h-0.58v-0.517c0-0.885-0.717-1.603-1.601-1.603s-1.601,0.718-1.601,1.603v0.517h-0.58v-0.517  c0-0.885-0.718-1.603-1.602-1.603s-1.601,0.718-1.601,1.603v0.517h-0.598c-0.182-1.198-1.213-2.118-2.462-2.118  s-2.279,0.92-2.462,2.118h-0.614v-0.517c0-0.885-0.718-1.603-1.602-1.603s-1.601,0.718-1.601,1.603v0.517h-0.58v-0.517  c0-0.885-0.716-1.603-1.602-1.603c-0.884,0-1.601,0.718-1.601,1.603v0.517h-0.58v-0.517c0-0.885-0.717-1.603-1.601-1.603  c-0.885,0-1.602,0.718-1.602,1.603v0.517H9.672v-0.517c0-0.885-0.717-1.603-1.601-1.603c-0.634,0-1.181,0.369-1.44,0.903  c-0.39-0.501-0.758-1.02-1.104-1.554h37.129C42.306,36.645,41.935,37.168,41.541,37.673z M43.027,35.515H5.155  c-0.11-0.183-0.217-0.366-0.322-0.553h38.517C43.243,35.148,43.137,35.333,43.027,35.515z M20.275,7.089v0.187  C20.27,7.313,20.26,7.368,20.241,7.42c-0.032,0.085-0.111,0.221-0.217,0.386c-0.04,0.064-0.11,0.174-0.188,0.33  C19.735,7.982,19.65,7.88,19.59,7.817c-0.066-0.07-0.154-0.16-0.228-0.246c-0.157-0.187-0.166-0.298-0.166-0.298l0,0  c0,0-0.005,0.11-0.163,0.297c-0.073,0.085-0.161,0.175-0.228,0.246c-0.062,0.063-0.147,0.167-0.25,0.325  c-0.08-0.161-0.151-0.272-0.192-0.341c-0.105-0.165-0.185-0.3-0.217-0.385c-0.03-0.081-0.041-0.174-0.042-0.184V7.089H20.275z   M18.109,6.749c0.017-0.277,0.092-0.805,0.362-1.164c0.204-0.278,0.407-0.443,0.557-0.54C19.096,5,19.151,4.973,19.19,4.954  c0.04,0.02,0.095,0.046,0.164,0.091c0.147,0.097,0.352,0.262,0.557,0.54c0.271,0.359,0.345,0.887,0.362,1.164H18.109z M20.354,7.988  c0.062,0.085,0.125,0.209,0.194,0.359c0.096,0.233,0.121,0.462,0.124,0.63v2.492h-0.642c0-0.548,0-1.756,0-2.491  c0.002-0.171,0.033-0.409,0.124-0.632C20.234,8.17,20.296,8.07,20.354,7.988z M19.682,8.994l-0.001,2.476h-0.974  c0-0.689-0.001-2.477-0.001-2.478c0.008-0.162,0.021-0.386,0.138-0.617c0.122-0.242,0.354-0.386,0.354-0.386h0.001  c0,0,0.219,0.144,0.342,0.386C19.664,8.618,19.675,8.828,19.682,8.994z M18.245,8.343c0.091,0.224,0.106,0.465,0.109,0.636  l0.003,2.491h-0.634V8.975c0.003-0.168,0.021-0.396,0.116-0.631c0.07-0.149,0.138-0.273,0.195-0.358  C18.106,8.091,18.175,8.193,18.245,8.343z M21.164,11.877v0.807h-3.941v-0.807H21.164z M21.164,13.022v3.141H20.21V14.75  c0.001-0.469-0.173-0.866-0.459-1.138c-0.153-0.147-0.338-0.258-0.542-0.328c-0.013-0.004-0.012-0.005-0.012-0.005  s-0.002,0-0.015,0.005c-0.204,0.07-0.39,0.181-0.543,0.328c-0.286,0.271-0.459,0.669-0.458,1.138v1.414h-0.958v-3.141L21.164,13.022  L21.164,13.022z M19.87,14.75v1.414h-1.35V14.75c0.005-0.546,0.272-0.925,0.675-1.103C19.596,13.824,19.865,14.203,19.87,14.75z   M21.164,16.503v3.995h-0.876v-1.995c0-0.468-0.176-0.875-0.47-1.155c-0.157-0.15-0.344-0.263-0.55-0.333  c-0.011-0.005-0.074-0.024-0.074-0.024s-0.062,0.02-0.067,0.022c-0.207,0.07-0.396,0.185-0.555,0.335  c-0.294,0.279-0.471,0.688-0.47,1.154v1.995h-0.88v-3.995L21.164,16.503L21.164,16.503z M19.948,18.506v1.992h-1.507v-1.995  c0-0.384,0.141-0.694,0.364-0.909c0.11-0.105,0.241-0.185,0.389-0.241h0.001c0.147,0.058,0.276,0.136,0.387,0.24  c0.226,0.215,0.364,0.525,0.365,0.91L19.948,18.506z M21.164,20.838v4.755h-3.941v-4.755H21.164z M21.164,25.933v3.103h-3.941  v-3.103H21.164z M21.164,29.375v5.247h-3.941v-5.247H21.164z M24.634,16.538v1.416l-0.542-0.542l-0.541,0.541v-1.415H24.634z   M23.566,16.13l0.396-1.694l0.163-2.835l0.098,2.833l0.396,1.696H23.566z M24.092,17.988l2.511,2.51h-5.021L24.092,17.988z   M26.603,20.838v1.921h-5.037v-1.921H26.603z M26.603,23.354v2.238h-1.575v-0.561c0-0.516-0.419-0.938-0.938-0.938  c-0.517,0-0.937,0.421-0.937,0.938v0.561h-1.589v-2.238H26.603z M23.155,25.933v1.998h1.873v-1.998h1.575v3.103h-5.037v-3.103  H23.155z M26.603,29.375v5.247h-5.037v-5.247H26.603z M30.067,7.089v0.187c-0.005,0.038-0.017,0.093-0.035,0.145  C30,7.505,29.921,7.64,29.815,7.805c-0.04,0.064-0.11,0.174-0.188,0.33c-0.101-0.153-0.186-0.256-0.246-0.318  c-0.065-0.07-0.154-0.16-0.228-0.246c-0.158-0.187-0.166-0.298-0.166-0.298l0,0c0,0-0.005,0.11-0.163,0.297  c-0.073,0.085-0.161,0.175-0.228,0.246c-0.062,0.063-0.147,0.167-0.25,0.325c-0.08-0.161-0.151-0.272-0.192-0.341  c-0.105-0.165-0.185-0.3-0.217-0.385c-0.031-0.082-0.041-0.177-0.042-0.185V7.089H30.067z M27.901,6.749  c0.017-0.277,0.092-0.805,0.362-1.164c0.204-0.278,0.407-0.443,0.557-0.54C28.888,5,28.942,4.973,28.982,4.954  c0.04,0.02,0.095,0.046,0.163,0.091c0.147,0.097,0.352,0.262,0.557,0.54c0.271,0.359,0.345,0.887,0.362,1.164H27.901z M30.146,7.988  c0.061,0.085,0.125,0.209,0.193,0.359c0.096,0.233,0.121,0.462,0.124,0.63v2.492h-0.642c0-0.548,0-1.756,0-2.491  c0.003-0.171,0.033-0.409,0.125-0.632C30.025,8.17,30.088,8.07,30.146,7.988z M29.473,8.994l-0.001,2.476H28.5  c0-0.689-0.001-2.477-0.001-2.478c0.008-0.162,0.021-0.386,0.138-0.617c0.122-0.242,0.354-0.386,0.354-0.386h0.001  c0,0,0.219,0.144,0.342,0.386C29.455,8.618,29.466,8.828,29.473,8.994z M28.036,8.343c0.091,0.224,0.106,0.465,0.109,0.636  l0.003,2.491h-0.635V8.975c0.004-0.168,0.021-0.396,0.116-0.631c0.07-0.149,0.138-0.273,0.194-0.358  C27.898,8.091,27.966,8.193,28.036,8.343z M30.956,11.877v0.807h-3.941v-0.807H30.956z M30.956,13.022v3.141h-0.954V14.75  c0-0.469-0.173-0.866-0.459-1.138c-0.153-0.147-0.339-0.258-0.543-0.328c-0.013-0.004-0.012-0.005-0.012-0.005s-0.002,0-0.015,0.005  c-0.204,0.07-0.39,0.181-0.543,0.328c-0.286,0.271-0.459,0.669-0.459,1.138v1.414h-0.958v-3.141L30.956,13.022L30.956,13.022z   M29.662,14.75v1.414h-1.351V14.75c0.005-0.546,0.272-0.925,0.675-1.103C29.388,13.824,29.657,14.203,29.662,14.75z M30.956,16.503  v3.995H30.08v-1.995c0-0.468-0.176-0.875-0.47-1.155c-0.157-0.15-0.344-0.263-0.55-0.333c-0.01-0.005-0.074-0.024-0.074-0.024  s-0.062,0.02-0.068,0.022c-0.207,0.07-0.396,0.185-0.555,0.335c-0.294,0.279-0.47,0.688-0.47,1.154v1.995h-0.88v-3.995  L30.956,16.503L30.956,16.503z M29.74,18.506v1.992h-1.506v-1.995c0-0.384,0.141-0.694,0.364-0.909  c0.11-0.105,0.241-0.185,0.388-0.241h0.001c0.147,0.058,0.277,0.136,0.388,0.24c0.225,0.215,0.364,0.525,0.365,0.91V18.506z   M30.956,20.838v4.755h-3.941v-4.755H30.956z M30.956,25.933v3.103h-3.941v-3.103H30.956z M30.956,29.375v5.247h-3.941v-5.247  H30.956z M31.562,34.622V11.469h-0.497V8.917c-0.005-0.317-0.051-0.519-0.191-0.844c-0.036-0.082-0.087-0.172-0.145-0.262V6.889  c0,0-0.001-0.725-0.3-1.27c-0.325-0.595-0.956-0.92-1.264-1.049c-0.07-0.033-0.117-0.048-0.126-0.05l-0.051-0.019l-0.063,0.019  c-0.03,0.009-0.529,0.167-1.004,0.812c-0.43,0.593-0.444,1.354-0.448,1.563c0,0.034,0.001,0.054,0.001,0.057v0.851  c-0.058,0.084-0.138,0.211-0.226,0.398c-0.132,0.324-0.141,0.624-0.146,0.804v2.465h-0.5v8.452l-1.368-1.367v-2.413l-0.464-1.558  l-0.68-5.341l0,0l-0.501,5.117l-0.466,1.782v2.234l-1.354,1.355v-8.265h-0.497V8.917c-0.005-0.317-0.051-0.519-0.192-0.844  c-0.035-0.082-0.087-0.172-0.144-0.262V6.889c0,0-0.001-0.725-0.3-1.27c-0.326-0.595-0.957-0.92-1.264-1.049  c-0.07-0.033-0.117-0.048-0.126-0.05l-0.051-0.019l-0.063,0.019c-0.031,0.009-0.529,0.167-1.005,0.812  c-0.43,0.593-0.444,1.354-0.448,1.563c0,0.034,0,0.054,0,0.057v0.851c-0.058,0.084-0.138,0.211-0.226,0.398  c-0.131,0.324-0.141,0.624-0.145,0.804v2.465h-0.5v23.151H4.646c-1.702-3.133-2.672-6.721-2.672-10.538  c0-6.106,2.475-11.635,6.477-15.639c4.003-4.002,9.531-6.479,15.639-6.479c6.108,0,11.637,2.476,15.64,6.479  c4.002,4.003,6.478,9.531,6.478,15.639c0,3.817-0.97,7.405-2.672,10.538L31.562,34.622L31.562,34.622z"/>
</svg>