<?xml version="1.0" encoding="iso-8859-1"?>
<!-- Generator: Adobe Illustrator 19.0.0, SVG Export Plug-In . SVG Version: 6.00 Build 0)  -->
<svg version="1.1" id="Layer_1" xmlns="http://www.w3.org/2000/svg" xmlns:xlink="http://www.w3.org/1999/xlink" x="0px" y="0px"
	 viewBox="0 0 496.158 496.158" style="enable-background:new 0 0 496.158 496.158;" xml:space="preserve">
<path style="fill:#A3D5E0;" d="M248.082,0.003C111.07,0.003,0,111.063,0,248.085c0,137.001,111.07,248.07,248.082,248.07
	c137.006,0,248.076-111.069,248.076-248.07C496.158,111.062,385.088,0.003,248.082,0.003z"/>
<path style="fill:#388E6F;" d="M394.818,382.733c-7.312-27.279-69.907-49.333-147.073-49.333s-139.095,22.054-146.407,49.333
	c-3.259,12.158-6.961,35.192-10.126,57.525c42.747,34.934,97.358,55.897,156.87,55.897c59.509,0,114.117-20.963,156.863-55.896
	C401.78,417.926,398.078,394.891,394.818,382.733z"/>
<polygon style="fill:#D4D6D8;" points="247.829,316.996 208.306,322.246 210.166,335.412 247.787,363.485 285.992,335.412 
	287.852,322.246 "/>
<path style="fill:#7F3E09;" d="M286.969,282.118h-77.78c12.136,36.588,0.978,53.294,0.978,53.294l26.912,12.917h22l26.912-12.917
	C285.991,335.412,274.833,318.706,286.969,282.118z"/>
<path style="fill:#8E4809;" d="M248.08,61.579c-44.047,0-79.754,21.167-79.754,113.596c0,31.266,5.595,55.765,13.973,74.673
	c18.432,41.598,50.335,56.136,65.781,56.136s47.349-14.538,65.78-56.136c8.377-18.908,13.972-43.407,13.972-74.673
	C327.832,82.746,292.125,61.579,248.08,61.579z"/>
<path style="fill:#723808;" d="M258.511,257.746c-2.971-0.439-10.432,2.5-10.432,2.5s-7.566-2.931-10.561-2.48
	c-4.798,0.722-11.939,8.953-11.939,10.313c0,0,10.074,5.25,22.5,5.25s22.5-5.25,22.5-5.25S263.382,258.466,258.511,257.746z"/>
<path style="fill:#5E2C07;" d="M254.206,264.411c-1.951-0.105-4.461,1.668-6.127,1.668c-1.925,0-4.809-1.753-7.025-1.617
	c-13.15,0.81-15.475,3.617-15.475,3.617s10.074,9.125,22.5,9.125s22.5-9.125,22.5-9.125S267.862,265.144,254.206,264.411z"/>
<g>
	<path style="fill:#7F3E09;" d="M285.911,335.412c0,0-8.915,17.333-38.123,17.333c-29.209,0-37.543-17.333-37.543-17.333
		s-7.015,54.667,37.91,54.667C293.079,390.079,285.911,335.412,285.911,335.412z"/>
	<path style="fill:#7F3E09;" d="M247.829,316.996l-37.662,18.417c0,0,16.828,28.073,37.62,28.073s38.204-28.073,38.204-28.073
		L247.829,316.996z"/>
</g>
<ellipse style="fill:#16110E;" cx="248.079" cy="66.079" rx="41.998" ry="28.668"/>
<path style="fill:#261D17;" d="M248.079,61.579c-57.333,0-82.667,25.072-82.667,117.5c0,0,82.584-26.5,82.584-60.147
	c0,33.647,82.749,60.147,82.749,60.147C330.746,86.651,305.412,61.579,248.079,61.579z"/>
<g>
	<path style="fill:#8E4809;" d="M169.766,177.962c-7.624,1.304-13.423,4.587-9.122,29.746c4.303,25.159,9.645,26.329,17.268,25.025
		L169.766,177.962z"/>
	<path style="fill:#8E4809;" d="M326.491,177.962l-8.146,54.771c7.625,1.304,12.967,0.134,17.268-25.025
		S334.114,179.266,326.491,177.962z"/>
</g>
<g>
	<path style="fill:#261D17;" d="M174.746,183.079c-0.427-2.699-0.49-5.166-0.419-7.147c0.103-2.851,0.486-4.687,0.486-4.687
		l-9.375,3.5c-0.017,1.428-0.026,2.872-0.026,4.333l2.544-0.855c1.288,2.19,2.903,5.552,4.457,10.522
		C172.413,188.746,176.075,191.474,174.746,183.079z"/>
	<path style="fill:#261D17;" d="M330.72,174.732l-9.337-3.486c0,0,0.386,1.845,0.487,4.708c0.07,1.978,0.006,4.436-0.42,7.126
		c-1.328,8.394,2.334,5.667,2.334,5.667c1.55-4.96,3.154-8.322,4.431-10.516c1.62,0.557,2.53,0.849,2.53,0.849
		C330.746,177.613,330.737,176.164,330.72,174.732z"/>
</g>
<path style="fill:#C7C8C9;" d="M247.787,348.329l-37.542-12.917c0,0,20.221,139,37.909,139s37.756-139,37.756-139L247.787,348.329z"
	/>
<path style="fill:#D4D6D8;" d="M247.787,348.329l-40.708-12.917c0,0,40.979,139,41.076,139S247.787,348.329,247.787,348.329z"/>
<g>
	<path style="fill:#F3FAFF;" d="M287.852,322.246l-39.794,26.083c0,0,34.03,10.426,34.198,10.259l23.489-20.796L287.852,322.246z"/>
	<path style="fill:#F3FAFF;" d="M208.305,322.246l-17.893,15.547l23.489,20.796c0.167,0.167,34.157-10.259,34.157-10.259
		L208.305,322.246z"/>
</g>
<g>
	<path style="fill:#4ABC96;" d="M248.079,489.495l-0.021-15.083c0,0-33.99-115.657-34.157-115.824l-17.322-26.217l-12.5,6.438
		l8,55.27l16.333-3.667l-12,14.667L248.079,489.495z"/>
	<path style="fill:#4ABC96;" d="M312.079,338.808l-12.5-6.438l-17.322,26.218c-0.167,0.167-34.157,115.824-34.157,115.824
		l-0.021,15.083l51.667-84.416l-12-14.667l16.333,3.667L312.079,338.808z"/>
</g>
<g>
</g>
<g>
</g>
<g>
</g>
<g>
</g>
<g>
</g>
<g>
</g>
<g>
</g>
<g>
</g>
<g>
</g>
<g>
</g>
<g>
</g>
<g>
</g>
<g>
</g>
<g>
</g>
<g>
</g>
</svg>
