<?xml version="1.0" encoding="iso-8859-1"?>
<!-- Generator: Adobe Illustrator 19.0.0, SVG Export Plug-In . SVG Version: 6.00 Build 0)  -->
<svg version="1.1" id="Layer_1" xmlns="http://www.w3.org/2000/svg" xmlns:xlink="http://www.w3.org/1999/xlink" x="0px" y="0px"
	 viewBox="0 0 496.158 496.158" style="enable-background:new 0 0 496.158 496.158;" xml:space="preserve">
<path style="fill:#EDC92F;" d="M248.082,0.002C111.07,0.002,0,111.062,0,248.085c0,137.001,111.07,248.07,248.082,248.07
	c137.006,0,248.076-111.069,248.076-248.07C496.158,111.062,385.088,0.002,248.082,0.002z"/>
<path style="fill:#AA7B5B;" d="M394.818,382.732c-7.312-27.279-69.907-49.333-147.073-49.333s-139.095,22.054-146.407,49.333
	c-3.259,12.158-6.961,35.192-10.126,57.525c42.747,34.934,97.358,55.897,156.87,55.897c59.509,0,114.117-20.963,156.863-55.896
	C401.78,417.925,398.078,394.891,394.818,382.732z"/>
<polygon style="fill:#75543E;" points="248.12,427.828 242.616,457.583 253.624,457.583 "/>
<g>
	<path style="fill:#D33D3D;" d="M166.079,342.633v103.096h9V340.553C172.006,341.206,169.006,341.902,166.079,342.633z"/>
	<path style="fill:#D33D3D;" d="M321.079,340.658v105.071h9V342.744C327.152,342.012,324.151,341.314,321.079,340.658z"/>
	<path style="fill:#D33D3D;" d="M329.918,412.745l-82.172,41.333l-81.896-41.333l-23.6,59.746
		c32.099,15.171,67.971,23.664,105.833,23.664c37.555,0,73.153-8.358,105.053-23.3L329.918,412.745z"/>
</g>
<g>
	<path style="fill:#261D17;" d="M297.913,175.055l-124.834-72.977c-54,106-32,215.106-32,215.106l79.436-0.973
		C220.515,316.211,193.814,250.495,297.913,175.055z"/>
	<path style="fill:#261D17;" d="M323.048,102.078l-124.834,72.977c104.099,75.44,77.398,141.156,77.398,141.156l79.436,0.973
		C355.048,317.184,377.048,208.078,323.048,102.078z"/>
</g>
<path style="fill:#AA7B5B;" d="M286.969,282.117h-77.78c12.136,36.588,0.978,53.294,0.978,53.294l26.912,12.573h22l26.912-12.573
	C285.991,335.411,274.833,318.706,286.969,282.117z"/>
<path style="fill:#B27E5B;" d="M248.08,61.578c-44.047,0-79.754,21.167-79.754,113.596c0,31.266,5.595,55.765,13.973,74.673
	c18.432,41.598,50.335,56.136,65.781,56.136s47.349-14.538,65.78-56.136c8.377-18.908,13.972-43.407,13.972-74.673
	C327.832,82.745,292.125,61.578,248.08,61.578z"/>
<path style="fill:#EA9292;" d="M258.511,257.745c-2.971-0.439-10.432,2.5-10.432,2.5s-7.566-2.931-10.561-2.48
	c-4.798,0.722-11.939,8.953-11.939,10.313c0,0,10.074,5.25,22.5,5.25s22.5-5.25,22.5-5.25S263.382,258.465,258.511,257.745z"/>
<path style="fill:#DD7373;" d="M254.206,264.41c-1.951-0.105-4.461,1.668-6.127,1.668c-1.925,0-4.809-1.753-7.025-1.617
	c-13.15,0.81-15.475,3.617-15.475,3.617s10.074,9.125,22.5,9.125s22.5-9.125,22.5-9.125S267.862,265.143,254.206,264.41z"/>
<path style="fill:#AA7B5B;" d="M247.829,316.995l-37.662,18.417c0,0,31.703,28.073,37.62,28.073
	c5.917,0,38.204-28.073,38.204-28.073L247.829,316.995z"/>
<path style="fill:#261D17;" d="M248.08,61.578C248.079,61.578,248.079,61.578,248.08,61.578c-0.001,0-0.001,0-0.002,0
	c-48.74,0-88.252,21.168-88.252,113.596l77.253-36.096l9.5-14.096l10,14.096l79.753,36.096
	C336.332,82.746,296.82,61.578,248.08,61.578z"/>
<g>
	<path style="fill:#B27E5B;" d="M169.766,177.961c-7.624,1.304-13.423,4.587-9.122,29.746c4.303,25.159,9.645,26.329,17.268,25.025
		L169.766,177.961z"/>
	<path style="fill:#B27E5B;" d="M326.491,177.961l-8.146,54.771c7.625,1.304,12.967,0.134,17.268-25.025
		S334.114,179.265,326.491,177.961z"/>
</g>
<g>
	<path style="fill:#261D17;" d="M174.746,181.411c-1.042-6.583,0.067-17.333,0.067-17.333l-14.987,11.096
		c0,0,9.253,1.237,12.587,11.904C172.413,187.078,176.075,189.806,174.746,181.411z"/>
	<path style="fill:#261D17;" d="M321.383,164.078c0,0,1.109,10.75,0.067,17.333c-1.328,8.394,2.334,5.667,2.334,5.667
		c3.333-10.667,12.586-11.904,12.586-11.904L321.383,164.078z"/>
</g>
<g>
	<path style="fill:#FFFFFF;" d="M321.743,175.129l-9.365-0.137l3.895,10.99c0,1.142,0.927,2.067,2.067,2.067h3.403
		c1.145,0,2.068-0.926,2.068-2.067v-8.785C323.811,176.055,322.888,175.129,321.743,175.129z"/>
	<path style="fill:#FFFFFF;" d="M260.287,182.371h-26.403c-0.242,0,4.793,10.417,4.988,10.417l18.949-0.001
		C258.017,192.786,260.532,182.371,260.287,182.371z"/>
	<path style="fill:#FFFFFF;" d="M256.641,194.095c-2.618-1.846-5.792-2.887-9.173-2.887c-2.577,0-5.031,0.605-7.212,1.709
		c-3.427,1.732-3.656,9.614-3.656,9.614l0.227-0.475c1.955-4.083,6.135-6.72,10.642-6.72s8.686,2.638,10.642,6.72l0.227,0.475
		C258.337,202.532,259.149,195.863,256.641,194.095z"/>
	<path style="fill:#FFFFFF;" d="M208.579,166.505c-18.461,0-33.428,5.744-33.428,24.207c0,18.461,4.078,29.605,22.541,29.605
		c25.044,0,44.312-6.148,44.312-24.609C242.005,177.245,227.042,166.505,208.579,166.505z M197.692,214.861
		c-15.447,0-17.086-8.703-17.086-24.149c0-15.448,12.524-18.75,27.973-18.75c15.447,0,27.972,8.298,27.972,23.746
		C236.551,211.154,222.736,214.861,197.692,214.861z"/>
	<path style="fill:#FFFFFF;" d="M174.415,175.129c-1.145,0-2.068,0.926-2.068,2.068v8.785c0,1.142,0.924,2.067,2.068,2.067h3.4
		c1.141,0,2.068-0.926,2.068-2.067l3.893-10.99L174.415,175.129z"/>
</g>
<path style="fill:#2E3535;" d="M208.579,171.962c-15.448,0-27.973,3.302-27.973,18.75c0,15.446,1.639,24.149,17.086,24.149
	c25.044,0,38.858-3.707,38.858-19.153C236.551,180.26,224.026,171.962,208.579,171.962z"/>
<path style="fill:#343A3A;" d="M208.579,171.962c-15.448,0-27.973,3.302-27.973,18.75c0,15.446,1.639,24.149,17.086,24.149
	l28.073-38.604C221.023,173.422,215.058,171.962,208.579,171.962z"/>
<path style="fill:#FFFFFF;" d="M286.905,166.505c-18.463,0-33.426,10.74-33.426,29.203c0,18.461,19.269,24.609,44.312,24.609
	c18.463,0,22.541-11.144,22.541-29.605C320.333,172.249,305.368,166.505,286.905,166.505z M297.792,214.861
	c-25.044,0-38.858-3.707-38.858-19.153c0-15.448,12.524-23.746,27.972-23.746c15.448,0,27.973,3.302,27.973,18.75
	C314.878,206.158,313.239,214.861,297.792,214.861z"/>
<path style="fill:#2E3535;" d="M286.905,171.962c-15.447,0-27.972,8.298-27.972,23.746c0,15.446,13.814,19.153,38.858,19.153
	c15.447,0,17.086-8.703,17.086-24.149C314.878,175.264,302.353,171.962,286.905,171.962z"/>
<path style="fill:#343A3A;" d="M286.905,171.962c-15.447,0-27.972,8.298-27.972,23.746c0,10.733,6.67,15.798,19.145,17.89
	l32.022-35.607C305.073,173.252,296.56,171.962,286.905,171.962z"/>
<g>
</g>
<g>
</g>
<g>
</g>
<g>
</g>
<g>
</g>
<g>
</g>
<g>
</g>
<g>
</g>
<g>
</g>
<g>
</g>
<g>
</g>
<g>
</g>
<g>
</g>
<g>
</g>
<g>
</g>
</svg>
