<?xml version="1.0" encoding="iso-8859-1"?>
<!-- Generator: Adobe Illustrator 19.0.0, SVG Export Plug-In . SVG Version: 6.00 Build 0)  -->
<svg version="1.1" id="Layer_1" xmlns="http://www.w3.org/2000/svg" xmlns:xlink="http://www.w3.org/1999/xlink" x="0px" y="0px"
	 viewBox="0 0 496.158 496.158" style="enable-background:new 0 0 496.158 496.158;" xml:space="preserve">
<path style="fill:#337180;" d="M248.082,0.003C111.07,0.003,0,111.063,0,248.085c0,137.001,111.07,248.07,248.082,248.07
	c137.006,0,248.076-111.069,248.076-248.07C496.158,111.062,385.088,0.003,248.082,0.003z"/>
<polygon style="fill:#261D17;" points="248.079,105.079 148.579,173.079 148.579,408.166 347.579,408.166 347.579,173.079 "/>
<path style="fill:#BA0F0F;" d="M394.818,382.733c-7.312-27.279-69.907-49.333-147.073-49.333s-139.095,22.054-146.407,49.333
	c-3.259,12.158-6.962,35.192-10.126,57.525c42.747,34.934,97.357,55.897,156.87,55.897c59.509,0,114.116-20.963,156.862-55.896
	C401.78,417.926,398.077,394.891,394.818,382.733z"/>
<path style="fill:#E2A176;" d="M286.969,282.118h-77.78c12.136,36.588,0.978,53.294,0.978,53.294l26.912,6.063h22l26.912-6.062
	C285.991,335.412,274.833,318.706,286.969,282.118z"/>
<path style="fill:#F4B382;" d="M248.08,61.579c-44.047,0-79.754,21.167-79.754,113.596c0,31.266,5.595,55.765,13.973,74.673
	c18.432,41.598,50.335,56.136,65.781,56.136s47.349-14.538,65.78-56.136c8.377-18.908,13.972-43.407,13.972-74.673
	C327.832,82.746,292.125,61.579,248.08,61.579z"/>
<path style="fill:#E24444;" d="M258.511,257.746c-2.971-0.439-10.432,2.5-10.432,2.5s-7.566-2.931-10.561-2.48
	c-4.798,0.722-11.939,8.953-11.939,10.313c0,0,10.074,5.25,22.5,5.25s22.5-5.25,22.5-5.25S263.382,258.466,258.511,257.746z"/>
<path style="fill:#D33D3D;" d="M254.206,264.411c-1.951-0.105-4.461,1.668-6.127,1.668c-1.925,0-4.809-1.753-7.025-1.617
	c-13.15,0.81-15.475,3.617-15.475,3.617s10.074,9.125,22.5,9.125s22.5-9.125,22.5-9.125S267.862,265.144,254.206,264.411z"/>
<g>
	<path style="fill:#E2A176;" d="M285.911,335.412c0,0-8.915,17.333-38.123,17.333c-29.209,0-37.543-17.333-37.543-17.333
		s-7.015,54.667,37.91,54.667C293.079,390.079,285.911,335.412,285.911,335.412z"/>
	<path style="fill:#E2A176;" d="M247.829,316.996l-37.662,18.417c0,0,16.828,28.073,37.62,28.073s38.204-28.073,38.204-28.073
		L247.829,316.996z"/>
</g>
<path style="fill:#261D17;" d="M248.08,61.579L248.08,61.579h-0.002c-54.798,0-99.222,21.168-99.222,113.596
	c0,0,130.131-1.449,130.131-35.096c0,33.647,68.314,35.096,68.314,35.096C347.302,82.747,302.879,61.579,248.08,61.579z"/>
<g>
	<path style="fill:#F4B382;" d="M169.766,177.962c-7.624,1.304-13.423,4.587-9.122,29.746c4.303,25.159,9.645,26.329,17.268,25.025
		L169.766,177.962z"/>
	<path style="fill:#F4B382;" d="M326.491,177.962l-8.146,54.771c7.625,1.304,12.967,0.134,17.268-25.025
		S334.114,179.266,326.491,177.962z"/>
</g>
<g>
	<path style="fill:#261D17;" d="M174.746,181.412c-1.042-6.583,0.067-11.833,0.067-11.833l-14.987,5.596
		c0,0,9.253,1.237,12.587,11.904C172.413,187.079,176.075,189.807,174.746,181.412z"/>
	<path style="fill:#261D17;" d="M321.383,169.579c0,0,1.109,5.25,0.067,11.833c-1.328,8.394,2.334,5.667,2.334,5.667
		c3.333-10.667,12.586-11.904,12.586-11.904L321.383,169.579z"/>
</g>
<g>
	<path style="fill:#8E7920;" d="M335.356,230.994c-0.218-2.706-1.85-4.955-4.108-6.091l-1.041,2.274
		c1.464,0.77,2.517,2.247,2.659,4.018c0.222,2.75-1.829,5.16-4.579,5.382c-2.751,0.221-5.16-1.829-5.382-4.579
		c-0.131-1.625,0.535-3.126,1.665-4.133l-0.591-2.659c-2.332,1.429-3.801,4.08-3.564,6.993c0.332,4.127,3.946,7.202,8.072,6.869
		S335.689,235.12,335.356,230.994z"/>
	<path style="fill:#8E7920;" d="M172.254,225.205l-0.591,2.659c1.13,1.006,1.796,2.507,1.665,4.133
		c-0.222,2.75-2.631,4.8-5.382,4.579c-2.75-0.222-4.801-2.632-4.579-5.382c0.143-1.771,1.195-3.248,2.659-4.018l-1.041-2.274
		c-2.259,1.136-3.891,3.386-4.108,6.091c-0.333,4.126,2.743,7.741,6.869,8.073s7.74-2.742,8.072-6.869
		C176.055,229.285,174.586,226.634,172.254,225.205z"/>
</g>
<path style="fill:#261D17;" d="M212.079,178.976c-16.753,0-30.333,2.929-30.333,23.847c0,13.171,7.531,26.358,30.333,26.358
	c16.751,0,30.332-13.187,30.332-26.358C242.411,189.653,228.83,178.976,212.079,178.976z M212.079,223.988
	c-18.084,0-24.058-10.459-24.058-20.905c0-16.591,10.771-18.914,24.058-18.914c13.286,0,24.057,8.468,24.057,18.914
	S225.365,223.988,212.079,223.988z"/>
<path style="fill:#F4C4A4;" d="M212.079,184.17c-13.287,0-24.058,2.323-24.058,18.914c0,10.446,5.974,20.905,24.058,20.905
	c13.286,0,24.057-10.459,24.057-20.905S225.365,184.17,212.079,184.17z"/>
<path style="fill:#F4CCB0;" d="M212.079,184.17c-13.287,0-24.058,2.323-24.058,18.914c0,8.76,4.205,17.524,16.225,20.127
	l14.396-38.322C216.555,184.424,214.355,184.17,212.079,184.17z"/>
<path style="fill:#F4C4A4;" d="M218.642,184.889l-14.396,38.322c2.314,0.501,4.913,0.777,7.833,0.777
	c13.286,0,24.057-10.459,24.057-20.905C236.136,194.428,228.737,187.136,218.642,184.889z"/>
<g>
	<path style="fill:#261D17;" d="M187.619,190.714l-11.666-12.667c-1.123-1.219-3.021-1.298-4.239-0.174
		c-1.219,1.123-1.297,3.02-0.175,4.239l11.666,12.667c0.592,0.643,1.398,0.968,2.208,0.968c0.727,0,1.455-0.262,2.031-0.793
		C188.663,193.83,188.741,191.933,187.619,190.714z"/>
	<path style="fill:#261D17;" d="M325.111,177.873c-1.218-1.124-3.116-1.045-4.239,0.174l-11.666,12.667
		c-1.122,1.219-1.044,3.116,0.175,4.239c0.576,0.531,1.305,0.793,2.031,0.793c0.81,0,1.616-0.325,2.208-0.968l11.666-12.667
		C326.408,180.893,326.33,178.996,325.111,177.873z"/>
	<path style="fill:#261D17;" d="M284.079,178.976c-16.751,0-30.332,10.677-30.332,23.847c0,13.171,13.581,26.358,30.332,26.358
		c22.802,0,30.333-13.187,30.333-26.358C314.412,181.905,300.832,178.976,284.079,178.976z M284.079,223.988
		c-13.286,0-24.057-10.459-24.057-20.905s10.771-18.914,24.057-18.914c13.287,0,24.058,2.323,24.058,18.914
		C308.137,213.529,302.163,223.988,284.079,223.988z"/>
</g>
<path style="fill:#F4C4A4;" d="M284.079,184.17c-13.286,0-24.057,8.468-24.057,18.914s10.771,20.905,24.057,20.905
	c18.084,0,24.058-10.459,24.058-20.905C308.137,186.493,297.366,184.17,284.079,184.17z"/>
<path style="fill:#F4CCB0;" d="M284.079,184.17c-2.276,0-4.476,0.254-6.563,0.719c-10.095,2.247-17.493,9.539-17.493,18.195
	c0,8.641,7.372,17.284,17.438,20.015l14.472-38.521C289.47,184.273,286.83,184.17,284.079,184.17z"/>
<path style="fill:#F4C4A4;" d="M291.933,184.578l-14.472,38.521c2.104,0.571,4.321,0.89,6.618,0.89c2.92,0,5.519-0.276,7.833-0.777
	c12.02-2.603,16.225-11.368,16.225-20.127C308.137,189.928,301.361,185.746,291.933,184.578z"/>
<g>
	<path style="fill:#261D17;" d="M261.276,195.705h-26.403c-0.242,0,4.793,10.417,4.988,10.417l18.949-0.001
		C259.007,206.12,261.521,195.705,261.276,195.705z"/>
	<path style="fill:#261D17;" d="M257.145,206.246c-2.618-1.846-5.792-3.667-9.173-3.667c-2.577,0-5.031,1.385-7.212,2.489
		c-3.427,1.732-3.43,11.156-3.43,11.156c1.955-4.083,6.135-6.72,10.642-6.72c4.507,0,8.686,2.638,10.642,6.72
		C258.614,216.224,259.653,208.014,257.145,206.246z"/>
</g>
<g>
</g>
<g>
</g>
<g>
</g>
<g>
</g>
<g>
</g>
<g>
</g>
<g>
</g>
<g>
</g>
<g>
</g>
<g>
</g>
<g>
</g>
<g>
</g>
<g>
</g>
<g>
</g>
<g>
</g>
</svg>
