<?xml version="1.0" encoding="iso-8859-1"?>
<!-- Generator: Adobe Illustrator 19.0.0, SVG Export Plug-In . SVG Version: 6.00 Build 0)  -->
<svg version="1.1" id="Layer_1" xmlns="http://www.w3.org/2000/svg" xmlns:xlink="http://www.w3.org/1999/xlink" x="0px" y="0px"
	 viewBox="0 0 496.158 496.158" style="enable-background:new 0 0 496.158 496.158;" xml:space="preserve">
<path style="fill:#337180;" d="M248.082,0.003C111.07,0.003,0,111.063,0,248.085c0,137.001,111.07,248.07,248.082,248.07
	c137.006,0,248.076-111.069,248.076-248.07C496.158,111.062,385.088,0.003,248.082,0.003z"/>
<rect x="172.579" y="193.489" style="fill:#E5CE6A;" width="150" height="214.67"/>
<path style="fill:#D33D3D;" d="M394.818,382.733c-7.312-27.279-69.907-49.333-147.073-49.333s-139.095,22.054-146.407,49.333
	c-3.259,12.158-6.961,35.192-10.126,57.525c42.747,34.934,97.358,55.897,156.87,55.897c59.509,0,114.117-20.963,156.863-55.896
	C401.78,417.926,398.078,394.891,394.818,382.733z"/>
<path style="fill:#CE926A;" d="M286.969,282.118h-77.78c12.136,36.588,0.978,53.294,0.978,53.294l26.912,6.063h22l26.912-6.062
	C285.991,335.412,274.833,318.706,286.969,282.118z"/>
<g>
	<path style="fill:#F2DE7C;" d="M297.913,175.056l-124.834-72.977c-54,106-46.162,217.188-28.355,245.861
		c35.835,57.702-3.645,77.745-3.645,77.745l1.936-0.973c0,0,72.594-9.405,60.064-76.164
		C197.079,316.579,193.814,250.496,297.913,175.056z"/>
	<path style="fill:#F2DE7C;" d="M351.403,347.94c17.807-28.673,25.645-139.861-28.355-245.861l-124.834,72.977
		c104.099,75.44,100.834,141.523,94.834,173.492c-12.529,66.759,60.064,76.164,60.064,76.164l1.936,0.973
		C355.048,425.685,315.567,405.642,351.403,347.94z"/>
</g>
<path style="fill:#DB9A6E;" d="M248.08,61.579c-44.047,0-79.754,21.167-79.754,113.596c0,31.266,5.595,55.765,13.973,74.673
	c18.432,41.598,50.335,56.136,65.781,56.136s47.349-14.538,65.78-56.136c8.377-18.908,13.972-43.407,13.972-74.673
	C327.832,82.746,292.125,61.579,248.08,61.579z"/>
<path style="fill:#E24444;" d="M258.511,257.746c-2.971-0.439-10.432,2.5-10.432,2.5s-7.566-2.931-10.561-2.48
	c-4.798,0.722-11.939,8.953-11.939,10.313c0,0,10.074,5.25,22.5,5.25s22.5-5.25,22.5-5.25S263.382,258.466,258.511,257.746z"/>
<path style="fill:#D33D3D;" d="M254.206,264.411c-1.951-0.105-4.461,1.668-6.127,1.668c-1.925,0-4.809-1.753-7.025-1.617
	c-13.15,0.81-15.475,3.617-15.475,3.617s10.074,9.125,22.5,9.125s22.5-9.125,22.5-9.125S267.862,265.144,254.206,264.411z"/>
<g>
	<path style="fill:#CE926A;" d="M285.911,335.412c0,0-8.915,17.333-38.123,17.333c-29.209,0-37.543-17.333-37.543-17.333
		s-7.015,54.667,37.91,54.667C293.079,390.079,285.911,335.412,285.911,335.412z"/>
	<path style="fill:#CE926A;" d="M247.829,316.996l-37.662,18.417c0,0,16.828,28.073,37.62,28.073s38.204-28.073,38.204-28.073
		L247.829,316.996z"/>
</g>
<path style="fill:#F2DE7C;" d="M248.08,61.579C248.079,61.579,248.079,61.579,248.08,61.579c-0.001,0-0.001,0-0.002,0
	c-48.74,0-88.252,21.168-88.252,113.596c0,0,88.171-22.596,88.171-56.244c0,33.647,88.335,56.244,88.335,56.244
	C336.332,82.747,296.82,61.579,248.08,61.579z"/>
<g>
	<path style="fill:#DB9A6E;" d="M169.766,177.962c-7.624,1.304-13.423,4.587-9.122,29.746c4.303,25.159,9.645,26.329,17.268,25.025
		L169.766,177.962z"/>
	<path style="fill:#DB9A6E;" d="M326.491,177.962l-8.146,54.771c7.625,1.304,12.967,0.134,17.268-25.025
		S334.114,179.266,326.491,177.962z"/>
</g>
<g>
	<path style="fill:#F2DE7C;" d="M174.746,181.412c-1.042-6.583,0.067-11.833,0.067-11.833l-14.987,5.596
		c0,0,9.253,1.237,12.587,11.904C172.413,187.079,176.075,189.807,174.746,181.412z"/>
	<path style="fill:#F2DE7C;" d="M321.383,169.579c0,0,1.109,5.25,0.067,11.833c-1.328,8.394,2.334,5.667,2.334,5.667
		c3.333-10.667,12.586-11.904,12.586-11.904L321.383,169.579z"/>
</g>
<g>
</g>
<g>
</g>
<g>
</g>
<g>
</g>
<g>
</g>
<g>
</g>
<g>
</g>
<g>
</g>
<g>
</g>
<g>
</g>
<g>
</g>
<g>
</g>
<g>
</g>
<g>
</g>
<g>
</g>
</svg>
