<?xml version="1.0" encoding="iso-8859-1"?>
<!-- Generator: Adobe Illustrator 19.0.0, SVG Export Plug-In . SVG Version: 6.00 Build 0)  -->
<svg version="1.1" id="Layer_1" xmlns="http://www.w3.org/2000/svg" xmlns:xlink="http://www.w3.org/1999/xlink" x="0px" y="0px"
	 viewBox="0 0 496.158 496.158" style="enable-background:new 0 0 496.158 496.158;" xml:space="preserve">
<path style="fill:#22A85B;" d="M248.082,0.003C111.07,0.003,0,111.063,0,248.085c0,137.001,111.07,248.07,248.082,248.07
	c137.006,0,248.076-111.069,248.076-248.07C496.158,111.062,385.088,0.003,248.082,0.003z"/>
<polygon style="fill:#AF4B19;" points="248.079,105.079 148.579,173.079 148.579,408.166 347.579,408.166 347.579,173.079 "/>
<path style="fill:#F9C5A2;" d="M394.818,382.733c-7.312-27.279-69.907-49.333-147.073-49.333s-139.095,22.054-146.407,49.333
	c-3.259,12.158-6.962,35.192-10.126,57.525c42.747,34.934,97.357,55.897,156.87,55.897c59.509,0,114.116-20.963,156.862-55.896
	C401.78,417.926,398.077,394.891,394.818,382.733z"/>
<path style="fill:#33333B;" d="M327.366,342.081c-22.924-5.476-50.211-8.682-79.621-8.682c-28.925,0-55.709,3.099-78.277,8.41
	c-4.672,21.706-21.59,100.602-27.22,130.68c32.101,15.169,67.973,23.666,105.834,23.666c37.555,0,73.153-8.356,105.056-23.296
	L327.366,342.081z"/>
<path style="fill:#E5BA9C;" d="M286.969,282.118h-77.78c12.136,36.588,0.978,53.294,0.978,53.294l26.912,6.063h22l26.912-6.062
	C285.991,335.412,274.833,318.706,286.969,282.118z"/>
<path style="fill:#F9C5A2;" d="M248.08,61.579c-44.047,0-79.754,21.167-79.754,113.596c0,31.266,5.595,55.765,13.973,74.673
	c18.432,41.598,50.335,56.136,65.781,56.136s47.349-14.538,65.78-56.136c8.377-18.908,13.972-43.407,13.972-74.673
	C327.832,82.746,292.125,61.579,248.08,61.579z"/>
<g>
	<circle style="fill:#C98A5F;" cx="274.369" cy="233.199" r="1.875"/>
	<circle style="fill:#C98A5F;" cx="274.369" cy="220.739" r="1.875"/>
	<circle style="fill:#C98A5F;" cx="274.369" cy="208.279" r="1.875"/>
	<circle style="fill:#C98A5F;" cx="299.289" cy="233.199" r="1.875"/>
	<circle style="fill:#C98A5F;" cx="299.289" cy="220.739" r="1.875"/>
	<circle style="fill:#C98A5F;" cx="299.289" cy="208.279" r="1.875"/>
	<circle style="fill:#C98A5F;" cx="286.829" cy="239.499" r="1.875"/>
	<circle style="fill:#C98A5F;" cx="286.829" cy="227.039" r="1.875"/>
	<circle style="fill:#C98A5F;" cx="286.829" cy="214.579" r="1.875"/>
	<circle style="fill:#C98A5F;" cx="286.829" cy="202.119" r="1.875"/>
	<circle style="fill:#C98A5F;" cx="196.869" cy="233.199" r="1.875"/>
	<circle style="fill:#C98A5F;" cx="196.869" cy="220.739" r="1.875"/>
	<circle style="fill:#C98A5F;" cx="196.869" cy="208.279" r="1.875"/>
	<circle style="fill:#C98A5F;" cx="221.789" cy="233.199" r="1.875"/>
	<circle style="fill:#C98A5F;" cx="221.789" cy="220.739" r="1.875"/>
	<circle style="fill:#C98A5F;" cx="221.789" cy="208.279" r="1.875"/>
	<circle style="fill:#C98A5F;" cx="209.329" cy="239.499" r="1.875"/>
	<circle style="fill:#C98A5F;" cx="209.329" cy="227.039" r="1.875"/>
	<circle style="fill:#C98A5F;" cx="209.329" cy="214.579" r="1.875"/>
	<circle style="fill:#C98A5F;" cx="209.329" cy="202.119" r="1.875"/>
</g>
<path style="fill:#E24444;" d="M258.511,257.746c-2.971-0.439-10.432,2.5-10.432,2.5s-7.566-2.931-10.561-2.48
	c-4.798,0.722-11.939,8.953-11.939,10.313c0,0,10.074,5.25,22.5,5.25s22.5-5.25,22.5-5.25S263.382,258.466,258.511,257.746z"/>
<path style="fill:#D33D3D;" d="M254.206,264.411c-1.951-0.105-4.461,1.668-6.127,1.668c-1.925,0-4.809-1.753-7.025-1.617
	c-13.15,0.81-15.475,3.617-15.475,3.617s10.074,9.125,22.5,9.125s22.5-9.125,22.5-9.125S267.862,265.144,254.206,264.411z"/>
<g>
	<path style="fill:#E5BA9C;" d="M285.911,335.412c0,0-8.915,17.333-38.123,17.333c-29.209,0-37.543-17.333-37.543-17.333
		s-7.015,54.667,37.91,54.667C293.079,390.079,285.911,335.412,285.911,335.412z"/>
	<path style="fill:#E5BA9C;" d="M247.829,316.996l-37.662,18.417c0,0,16.828,28.073,37.62,28.073s38.204-28.073,38.204-28.073
		L247.829,316.996z"/>
</g>
<path style="fill:#AF4B19;" d="M248.08,61.579C248.079,61.579,248.079,61.579,248.08,61.579h-0.002
	c-54.798,0-99.222,21.168-99.222,113.596c0,0,130.131-1.449,130.131-35.096c0,33.647,68.314,35.096,68.314,35.096
	C347.302,82.747,302.879,61.579,248.08,61.579z"/>
<g>
	<path style="fill:#F9C5A2;" d="M169.766,177.962c-7.624,1.304-13.423,4.587-9.122,29.746c4.303,25.159,9.645,26.329,17.268,25.025
		L169.766,177.962z"/>
	<path style="fill:#F9C5A2;" d="M326.491,177.962l-8.146,54.771c7.625,1.304,12.967,0.134,17.268-25.025
		S334.114,179.266,326.491,177.962z"/>
</g>
<g>
	<path style="fill:#AF4B19;" d="M174.746,181.412c-1.042-6.583,0.067-11.833,0.067-11.833l-14.987,5.596
		c0,0,9.253,1.237,12.587,11.904C172.413,187.079,176.075,189.807,174.746,181.412z"/>
	<path style="fill:#AF4B19;" d="M321.383,169.579c0,0,1.109,5.25,0.067,11.833c-1.328,8.394,2.334,5.667,2.334,5.667
		c3.333-10.667,12.586-11.904,12.586-11.904L321.383,169.579z"/>
</g>
<g>
</g>
<g>
</g>
<g>
</g>
<g>
</g>
<g>
</g>
<g>
</g>
<g>
</g>
<g>
</g>
<g>
</g>
<g>
</g>
<g>
</g>
<g>
</g>
<g>
</g>
<g>
</g>
<g>
</g>
</svg>
