<?xml version="1.0" encoding="iso-8859-1"?>
<!-- Generator: Adobe Illustrator 19.0.0, SVG Export Plug-In . SVG Version: 6.00 Build 0)  -->
<svg version="1.1" id="Layer_1" xmlns="http://www.w3.org/2000/svg" xmlns:xlink="http://www.w3.org/1999/xlink" x="0px" y="0px"
	 viewBox="0 0 496.158 496.158" style="enable-background:new 0 0 496.158 496.158;" xml:space="preserve">
<path style="fill:#D61E1E;" d="M248.082,0.003C111.07,0.003,0,111.063,0,248.085c0,137.001,111.07,248.07,248.082,248.07
	c137.006,0,248.076-111.069,248.076-248.07C496.158,111.062,385.088,0.003,248.082,0.003z"/>
<path style="fill:#EDC92F;" d="M394.818,382.733c-7.312-27.279-69.907-49.333-147.073-49.333s-139.095,22.054-146.407,49.333
	c-3.259,12.158-6.962,35.192-10.126,57.525c42.747,34.934,97.357,55.897,156.87,55.897c59.509,0,114.116-20.963,156.862-55.896
	C401.78,417.926,398.077,394.891,394.818,382.733z"/>
<path style="fill:#E2A176;" d="M286.969,282.118h-77.78c12.136,36.588,0.978,53.294,0.978,53.294l26.912,6.063h22l26.912-6.062
	C285.991,335.412,274.833,318.706,286.969,282.118z"/>
<path style="fill:#F4B382;" d="M248.08,61.579c-44.047,0-79.754,21.167-79.754,113.596c0,31.266,5.595,55.765,13.973,74.673
	c18.431,41.598,50.335,56.136,65.781,56.136s47.349-14.538,65.78-56.136c8.377-18.908,13.972-43.407,13.972-74.673
	C327.832,82.746,292.125,61.579,248.08,61.579z"/>
<path style="fill:#E24444;" d="M258.511,257.746c-2.971-0.439-10.432,2.5-10.432,2.5s-7.566-2.931-10.561-2.48
	c-4.798,0.722-11.939,8.953-11.939,10.313c0,0,10.074,5.25,22.5,5.25s22.5-5.25,22.5-5.25S263.382,258.466,258.511,257.746z"/>
<path style="fill:#D33D3D;" d="M254.206,264.411c-1.951-0.105-4.461,1.668-6.127,1.668c-1.925,0-4.809-1.753-7.025-1.617
	c-13.15,0.81-15.475,3.617-15.475,3.617s10.074,9.125,22.5,9.125s22.5-9.125,22.5-9.125S267.862,265.144,254.206,264.411z"/>
<g>
	<path style="fill:#E2A176;" d="M285.911,335.412c0,0-8.915,17.333-38.123,17.333c-29.209,0-37.543-17.333-37.543-17.333
		s-7.016,54.667,37.91,54.667C293.079,390.079,285.911,335.412,285.911,335.412z"/>
	<path style="fill:#E2A176;" d="M247.829,316.996l-37.662,18.417c0,0,16.828,28.073,37.62,28.073s38.204-28.073,38.204-28.073
		L247.829,316.996z"/>
</g>
<g>
	<path style="fill:#7C7C7C;" d="M248.079,60.432L248.079,60.432c-48.816,0-87.333,25.052-87.333,121.052
		c0,0,114.866-30.003,114.866-57.32c0,27.317,59.8,57.32,59.8,57.32C335.412,86.15,296.895,60.432,248.079,60.432z"/>
	<circle style="fill:#7C7C7C;" cx="248.079" cy="69.079" r="31.5"/>
</g>
<g>
	<path style="fill:#F4B382;" d="M169.766,177.962c-7.624,1.304-13.423,4.587-9.122,29.746c4.303,25.159,9.645,26.329,17.268,25.025
		L169.766,177.962z"/>
	<path style="fill:#F4B382;" d="M326.491,177.962l-8.146,54.771c7.625,1.304,12.967,0.134,17.268-25.025
		C339.915,182.549,334.114,179.266,326.491,177.962z"/>
</g>
<g>
	<path style="fill:#7C7C7C;" d="M174.746,190.746c-1.042-6.583,0.067-21.167,0.067-21.167l-13.934,12.167c0,0,8.199,4,11.533,14.667
		C172.413,196.412,176.075,199.14,174.746,190.746z"/>
	<path style="fill:#7C7C7C;" d="M321.383,166.912c0,0,1.109,17.25,0.067,23.833c-1.328,8.394,2.334,5.667,2.334,5.667
		c3.333-10.667,11.531-14.667,11.531-14.667L321.383,166.912z"/>
</g>
<g>
	<path style="fill:#261D17;" d="M217.079,175.579c-11.855,0-21.5,9.645-21.5,21.5s9.645,21.5,21.5,21.5s21.5-9.645,21.5-21.5
		S228.934,175.579,217.079,175.579z M217.079,213.579c-9.099,0-16.5-7.402-16.5-16.5s7.401-16.5,16.5-16.5
		c9.098,0,16.5,7.402,16.5,16.5S226.177,213.579,217.079,213.579z"/>
	<path style="fill:#261D17;" d="M259.055,197.662c0.278-3.208-0.735-8.75-11.082-8.75s-11.36,5.541-11.082,8.75
		c-0.2,2.661,0.44,4.896,0.44,4.896c1.955-4.083,6.135-6.72,10.642-6.72c4.507,0,8.686,2.638,10.642,6.72
		C258.614,202.557,259.255,200.322,259.055,197.662z"/>
	<path style="fill:#261D17;" d="M279.079,175.579c-11.855,0-21.5,9.645-21.5,21.5s9.645,21.5,21.5,21.5s21.5-9.645,21.5-21.5
		S290.934,175.579,279.079,175.579z M279.079,213.579c-9.099,0-16.5-7.402-16.5-16.5s7.401-16.5,16.5-16.5
		c9.098,0,16.5,7.402,16.5,16.5S288.177,213.579,279.079,213.579z"/>
	
		<rect x="183.258" y="182.811" transform="matrix(-0.2064 0.9785 -0.9785 -0.2064 413.601 54.3538)" style="fill:#261D17;" width="3" height="24.191"/>
	
		<rect x="298.974" y="193.412" transform="matrix(-0.9784 0.2067 -0.2067 -0.9784 655.7079 321.3157)" style="fill:#261D17;" width="24.19" height="3"/>
</g>
<g>
	<path style="fill:#FFFFFF;" d="M335.356,230.994c-0.218-2.706-1.85-4.955-4.109-6.091l-1.04,2.274
		c1.464,0.77,2.517,2.247,2.659,4.018c0.222,2.75-1.829,5.16-4.579,5.382c-2.751,0.221-5.16-1.829-5.382-4.579
		c-0.131-1.625,0.535-3.126,1.665-4.133l-0.591-2.659c-2.332,1.429-3.801,4.08-3.564,6.993c0.332,4.127,3.946,7.202,8.072,6.869
		S335.689,235.12,335.356,230.994z"/>
	<path style="fill:#FFFFFF;" d="M172.254,225.205l-0.591,2.659c1.13,1.006,1.796,2.507,1.665,4.133
		c-0.222,2.75-2.631,4.8-5.382,4.579c-2.75-0.222-4.801-2.632-4.579-5.382c0.143-1.771,1.194-3.248,2.659-4.018l-1.041-2.274
		c-2.259,1.136-3.891,3.386-4.108,6.091c-0.333,4.126,2.743,7.741,6.869,8.073s7.74-2.742,8.072-6.869
		C176.055,229.285,174.586,226.634,172.254,225.205z"/>
</g>
<g>
	<circle style="fill:#FCF9F7;" cx="248.079" cy="421.579" r="9.5"/>
	<circle style="fill:#FCF9F7;" cx="248.079" cy="392.749" r="9.5"/>
	<circle style="fill:#FCF9F7;" cx="248.079" cy="450.579" r="9.5"/>
	<circle style="fill:#FCF9F7;" cx="248.079" cy="479.579" r="9.5"/>
</g>
<g>
</g>
<g>
</g>
<g>
</g>
<g>
</g>
<g>
</g>
<g>
</g>
<g>
</g>
<g>
</g>
<g>
</g>
<g>
</g>
<g>
</g>
<g>
</g>
<g>
</g>
<g>
</g>
<g>
</g>
</svg>
