<?xml version="1.0" encoding="iso-8859-1"?>
<!-- Generator: Adobe Illustrator 19.0.0, SVG Export Plug-In . SVG Version: 6.00 Build 0)  -->
<svg version="1.1" id="Layer_1" xmlns="http://www.w3.org/2000/svg" xmlns:xlink="http://www.w3.org/1999/xlink" x="0px" y="0px"
	 viewBox="0 0 496.158 496.158" style="enable-background:new 0 0 496.158 496.158;" xml:space="preserve">
<path style="fill:#A3D5E0;" d="M248.082,0.003C111.07,0.003,0,111.063,0,248.085c0,137.001,111.07,248.07,248.082,248.07
	c137.006,0,248.076-111.069,248.076-248.07C496.158,111.062,385.088,0.003,248.082,0.003z"/>
<path style="fill:#44A6B7;" d="M394.818,382.733c-7.312-27.279-69.907-49.333-147.073-49.333s-139.095,22.054-146.407,49.333
	c-3.259,12.158-6.962,35.192-10.126,57.525c42.747,34.934,97.357,55.897,156.87,55.897c59.509,0,114.116-20.963,156.862-55.896
	C401.78,417.926,398.077,394.891,394.818,382.733z"/>
<polygon style="fill:#969899;" points="247.829,316.996 208.306,322.246 210.167,335.412 247.787,363.485 285.991,335.412 
	287.852,322.246 "/>
<path style="fill:#7F3E09;" d="M247.829,316.996l-37.662,18.417c0,0,16.828,28.073,37.62,28.073s38.204-28.073,38.204-28.073
	L247.829,316.996z"/>
<path style="fill:#44A6B7;" d="M247.788,352.746c-20.422,0-30.632-8.469-34.931-13.567l35.298,50.9l35.771-51.793
	C279.95,343.21,269.457,352.746,247.788,352.746z M212.857,339.179l-2.612-3.767C210.245,335.412,211.008,336.986,212.857,339.179z
	 M283.927,338.286c1.384-1.713,1.984-2.873,1.984-2.873L283.927,338.286z"/>
<path style="fill:#703A24;" d="M286.969,282.118h-77.78c12.136,36.588,0.978,53.294,0.978,53.294l26.912,17.334h22l26.912-17.333
	C285.991,335.412,274.833,318.706,286.969,282.118z"/>
<g>
	<path style="fill:#F3FAFF;" d="M287.852,322.246l-39.794,30.5c0,0,34.03,6.009,34.198,5.842l23.488-20.796L287.852,322.246z"/>
	<path style="fill:#F3FAFF;" d="M208.306,322.246l-17.894,15.547l23.489,20.796c0.168,0.167,34.157-5.842,34.157-5.842
		L208.306,322.246z"/>
</g>
<path style="fill:#261D17;" d="M248.08,61.579c-48.741,0-88.254,21.167-88.254,113.596c0,31.266,6.19,55.765,15.462,74.673
	c20.396,41.598,55.7,56.136,72.792,56.136s52.396-14.538,72.79-56.136c9.271-18.908,15.462-43.407,15.462-74.673
	C336.332,82.746,296.819,61.579,248.08,61.579z"/>
<path style="fill:#86492C;" d="M248.08,61.579c-48.415,0-87.726,20.885-88.249,111.75c-0.003,0.612,7.557,1.228,7.557,1.846
	c0,31.266,12.359,97.904,80.692,97.904s80.69-66.638,80.69-97.904c0-0.703,7.559-1.402,7.555-2.097
	C335.729,82.425,296.448,61.579,248.08,61.579z"/>
<g>
	<circle style="fill:#261D17;" cx="317.729" cy="95.359" r="23.666"/>
	<circle style="fill:#261D17;" cx="338.179" cy="229.039" r="25.909"/>
	<circle style="fill:#261D17;" cx="345.869" cy="190.589" r="25.909"/>
	<circle style="fill:#261D17;" cx="344.929" cy="152.359" r="25.909"/>
	<circle style="fill:#261D17;" cx="344.349" cy="108.829" r="25.909"/>
	<circle style="fill:#261D17;" cx="370.989" cy="223.489" r="21.603"/>
	<circle style="fill:#261D17;" cx="384.069" cy="194.769" r="21.603"/>
	<circle style="fill:#261D17;" cx="384.619" cy="151.549" r="21.603"/>
	<circle style="fill:#261D17;" cx="399.449" cy="173.719" r="21.603"/>
	<circle style="fill:#261D17;" cx="370.789" cy="169.049" r="21.603"/>
	<circle style="fill:#261D17;" cx="375.299" cy="123.849" r="21.604"/>
	<circle style="fill:#261D17;" cx="335.079" cy="124.579" r="21"/>
	<circle style="fill:#261D17;" cx="179.729" cy="95.359" r="23.665"/>
	<circle style="fill:#261D17;" cx="159.279" cy="229.039" r="25.909"/>
	<circle style="fill:#261D17;" cx="151.589" cy="190.589" r="25.909"/>
	<circle style="fill:#261D17;" cx="152.529" cy="152.359" r="25.909"/>
	<circle style="fill:#261D17;" cx="153.109" cy="108.829" r="25.909"/>
	<circle style="fill:#261D17;" cx="126.459" cy="223.489" r="21.603"/>
	<circle style="fill:#261D17;" cx="113.379" cy="194.769" r="21.603"/>
	<circle style="fill:#261D17;" cx="112.839" cy="151.549" r="21.603"/>
	<circle style="fill:#261D17;" cx="97.999" cy="173.719" r="21.603"/>
	<circle style="fill:#261D17;" cx="126.669" cy="169.049" r="21.603"/>
	<circle style="fill:#261D17;" cx="122.159" cy="123.849" r="21.604"/>
	<circle style="fill:#261D17;" cx="162.379" cy="124.579" r="21"/>
	<circle style="fill:#261D17;" cx="294.579" cy="81.079" r="21"/>
	<circle style="fill:#261D17;" cx="263.579" cy="74.079" r="21"/>
	<circle style="fill:#261D17;" cx="232.579" cy="74.079" r="21"/>
	<circle style="fill:#261D17;" cx="201.579" cy="81.079" r="21"/>
</g>
<g>
	<path style="fill:#86492C;" d="M161.396,178.019c-8.438,1.443-14.856,5.077-10.096,32.922s10.673,29.141,19.112,27.698
		L161.396,178.019z"/>
	<path style="fill:#86492C;" d="M334.86,178.019l-9.016,60.62c8.438,1.443,14.35,0.148,19.111-27.698
		C349.717,183.096,343.298,179.462,334.86,178.019z"/>
</g>
<g>
</g>
<g>
</g>
<g>
</g>
<g>
</g>
<g>
</g>
<g>
</g>
<g>
</g>
<g>
</g>
<g>
</g>
<g>
</g>
<g>
</g>
<g>
</g>
<g>
</g>
<g>
</g>
<g>
</g>
</svg>
