<?xml version="1.0" encoding="iso-8859-1"?>
<!-- Generator: Adobe Illustrator 19.0.0, SVG Export Plug-In . SVG Version: 6.00 Build 0)  -->
<svg version="1.1" id="Layer_1" xmlns="http://www.w3.org/2000/svg" xmlns:xlink="http://www.w3.org/1999/xlink" x="0px" y="0px"
	 viewBox="0 0 496.158 496.158" style="enable-background:new 0 0 496.158 496.158;" xml:space="preserve">
<path style="fill:#337180;" d="M248.082,0.003C111.07,0.003,0,111.063,0,248.085c0,137.001,111.07,248.07,248.082,248.07
	c137.006,0,248.076-111.069,248.076-248.07C496.158,111.062,385.088,0.003,248.082,0.003z"/>
<path style="fill:#D33D3D;" d="M394.818,382.733c-7.312-27.279-69.907-49.333-147.073-49.333s-139.095,22.054-146.407,49.333
	c-3.259,12.158-6.961,35.192-10.126,57.525c42.747,34.934,97.358,55.897,156.87,55.897c59.509,0,114.117-20.963,156.863-55.896
	C401.78,417.926,398.078,394.891,394.818,382.733z"/>
<g>
	<path style="fill:#CE926A;" d="M247.829,316.996l-37.662,18.417c0,0,16.829,28.073,37.621,28.073s38.205-28.073,38.205-28.073
		L247.829,316.996z"/>
	<path style="fill:#CE926A;" d="M286.969,282.118h-77.78c12.136,36.588,0.977,53.294,0.977,53.294l26.913,6.063h22l26.913-6.062
		C285.992,335.412,274.832,318.706,286.969,282.118z"/>
</g>
<path style="fill:#F7F7F7;" d="M285.911,335.412c0,0-8.915,17.333-38.124,17.333s-37.542-17.333-37.542-17.333
	s-7.015,54.667,37.91,54.667S285.911,335.412,285.911,335.412z"/>
<path style="fill:#F2DE7C;" d="M248.08,61.579c-48.741,0-88.254,21.167-88.254,113.596c0,31.266,6.191,55.765,15.462,74.673
	c20.396,41.598,55.7,56.136,72.792,56.136s52.395-14.538,72.791-56.136c9.271-18.908,15.461-43.407,15.461-74.673
	C336.332,82.746,296.819,61.579,248.08,61.579z"/>
<path style="fill:#F4B382;" d="M248.08,61.579c-48.741,0-88.254,21.167-88.254,113.596c0,31.266,6.191,55.765,15.462,74.673
	c20.396,41.598,55.7,35.419,72.792,35.419s52.395,6.179,72.791-35.418c9.271-18.908,15.461-43.407,15.461-74.673
	C336.332,82.746,296.819,61.579,248.08,61.579z"/>
<path style="fill:#F2DE7C;" d="M272.667,235.974c-2.619-4.273-9.221-4.689-24.588-4.689c-15.368,0-21.515,0.572-24.589,4.712
	c-3.074,4.141-3.9,8.656-3.9,8.656l1.257,9.971l3.739-6.742c0,0,1.326-6.469,23.493-6.469s23.503,6.472,23.503,6.472l3.74,6.739
	l1.257-9.971C276.579,244.653,275.286,240.247,272.667,235.974z"/>
<path style="fill:#F4B382;" d="M161.396,178.019c-8.438,1.443-14.856,5.077-10.096,32.922c4.761,27.846,10.673,29.141,19.112,27.698
	L161.396,178.019z"/>
<g>
	<path style="fill:#F2DE7C;" d="M248.08,61.579c-48.741,0-88.254,21.167-88.254,113.596l134.412-68.399l42.094,68.399
		C336.332,82.746,296.819,61.579,248.08,61.579z"/>
	<path style="fill:#F2DE7C;" d="M180.079,141.746l-14.625-0.979c-4.25,10.875-5.628,24.359-5.628,37.479
		c0,0,8.753-1.917,8.753,2.583l2.75,27.625l3.875-1.875C174.954,183.579,180.079,141.746,180.079,141.746z"/>
</g>
<path style="fill:#F4B382;" d="M334.86,178.019l-9.016,60.62c8.438,1.443,14.351,0.148,19.112-27.698
	C349.717,183.096,343.298,179.462,334.86,178.019z"/>
<path style="fill:#F2DE7C;" d="M330.803,140.767l-14.625-0.354c0,0,5.125,43.167,4.875,66.167l3.875,1.875l2.75-27.625
	c0-4.5,8.753-2.583,8.753-2.583C336.431,165.125,335.053,151.641,330.803,140.767z"/>
<g>
</g>
<g>
</g>
<g>
</g>
<g>
</g>
<g>
</g>
<g>
</g>
<g>
</g>
<g>
</g>
<g>
</g>
<g>
</g>
<g>
</g>
<g>
</g>
<g>
</g>
<g>
</g>
<g>
</g>
</svg>
