<?xml version="1.0" encoding="UTF-8"?>
<!-- Generator: Adobe Illustrator 16.0.0, SVG Export Plug-In . SVG Version: 6.00 Build 0)  -->
<!DOCTYPE svg PUBLIC "-//W3C//DTD SVG 1.1 Tiny//EN" "http://www.w3.org/Graphics/SVG/1.1/DTD/svg11-tiny.dtd">
<svg version="1.1" baseProfile="tiny" id="Universität_Zürich" xmlns="http://www.w3.org/2000/svg" xmlns:xlink="http://www.w3.org/1999/xlink" x="0px" y="0px" viewBox="-0.498 -0.501 156.9 49.19" xml:space="preserve">
<path d="M54.955,40.202V38.4l4.379-7.137c0.252-0.414,0.504-0.774,0.792-1.153c-0.434,0.019-1.009,0.036-2.216,0.036h-2.812v-2.108  h7.857v1.874l-4.631,7.316c-0.181,0.288-0.343,0.559-0.56,0.848c0.307-0.036,1.135-0.036,2.631-0.036h2.631v2.162H54.955z   M70.484,40.202c0-0.414,0.019-1.117,0.108-1.586l-0.018-0.018c-0.541,1.062-1.568,1.802-3.046,1.802  c-2.019,0-2.667-1.298-2.667-2.865v-6.289h2.288v5.73c0,0.937,0.253,1.496,1.118,1.496c1.171,0,2.072-1.334,2.072-2.901v-4.325  h2.307v8.956H70.484z M79.926,33.318c-1.657-0.343-2.486,0.739-2.486,3.226v3.658h-2.307v-8.956h2.181  c0,0.45-0.054,1.171-0.162,1.802h0.036c0.434-1.135,1.298-2.126,2.848-2L79.926,33.318z M82.854,30.093  c-0.793,0-1.424-0.631-1.424-1.405c0-0.756,0.631-1.388,1.424-1.388s1.441,0.612,1.441,1.388  C84.295,29.462,83.646,30.093,82.854,30.093z M81.699,40.202v-8.956h2.307v8.956H81.699z M89.729,40.364  c-2.485,0-4.035-1.297-4.035-4.343c0-2.793,1.459-4.938,4.632-4.938c0.612,0,1.262,0.09,1.838,0.252l-0.234,2.001  c-0.486-0.181-1.045-0.325-1.621-0.325c-1.461,0-2.199,1.081-2.199,2.775c0,1.531,0.595,2.577,2.127,2.577  c0.611,0,1.279-0.127,1.767-0.379l0.18,1.965C91.566,40.185,90.684,40.364,89.729,40.364z M99.479,40.202v-5.729  c0-0.938-0.254-1.496-1.1-1.496c-1.172,0-2.09,1.334-2.09,2.9v4.325h-2.308V27.047h2.308v3.839c0,0.541-0.037,1.298-0.164,1.82  l0.037,0.019c0.522-1.01,1.549-1.677,2.938-1.677c2.019,0,2.666,1.299,2.666,2.865v6.289H99.479z M105.334,31.716  c-1.461,0-1.814-0.788-1.814-1.706v-2.972h1.062v2.91c0,0.537,0.17,0.877,0.821,0.877c0.599,0,0.83-0.252,0.83-0.938v-2.85h1.047  v2.788C107.279,31.118,106.551,31.716,105.334,31.716z M108.164,31.628v-0.83l1.475-2.468c0.074-0.122,0.156-0.238,0.244-0.354  c-0.121,0.007-0.277,0.014-0.721,0.014h-0.951v-0.952h2.971v0.863l-1.557,2.502c-0.056,0.089-0.109,0.164-0.176,0.259  c0.088-0.014,0.346-0.014,0.891-0.014h0.869v0.979L108.164,31.628L108.164,31.628z M114.922,31.628v-1.911h-1.68v1.911h-1.062v-4.59  h1.062V28.8h1.68v-1.762h1.061v4.59H114.922z M60.109,21.357c-3.838,0-4.703-2.09-4.703-4.415V8.996h2.344v7.803  c0,1.531,0.504,2.613,2.521,2.613c1.803,0,2.56-0.757,2.56-2.83V8.996h2.324v7.442C65.155,19.772,63.317,21.357,60.109,21.357z   M73.156,21.16v-5.73c0-0.938-0.252-1.495-1.1-1.495c-1.171,0-2.09,1.333-2.09,2.9v4.325h-2.307v-8.957h2.181  c0,0.415-0.036,1.117-0.126,1.586l0.018,0.019c0.541-1.063,1.586-1.803,3.045-1.803c2.02,0,2.667,1.298,2.667,2.865v6.29H73.156z   M79.102,11.05c-0.792,0-1.423-0.63-1.423-1.404c0-0.757,0.631-1.389,1.423-1.389c0.793,0,1.441,0.613,1.441,1.389  C80.543,10.42,79.895,11.05,79.102,11.05z M77.949,21.16v-8.957h2.307v8.957H77.949z M87.211,21.16h-2.344l-3.314-8.957h2.523  l1.422,4.037c0.217,0.612,0.434,1.333,0.596,1.982h0.035c0.145-0.613,0.324-1.298,0.541-1.91l1.44-4.109h2.451L87.211,21.16z   M98.797,17.051h-5.551c-0.019,1.677,0.811,2.487,2.469,2.487c0.883,0,1.838-0.198,2.613-0.559l0.217,1.784  c-0.955,0.378-2.092,0.576-3.209,0.576c-2.846,0-4.433-1.424-4.433-4.576c0-2.739,1.515-4.759,4.197-4.759  c2.613,0,3.769,1.784,3.769,4.001C98.869,16.312,98.852,16.672,98.797,17.051z M95.031,13.699c-0.954,0-1.622,0.703-1.747,1.784  h3.297C96.615,14.366,96.004,13.699,95.031,13.699z M105.59,14.275c-1.658-0.342-2.486,0.739-2.486,3.226v3.658h-2.307v-8.957h2.18  c0,0.451-0.053,1.171-0.162,1.802h0.037c0.433-1.135,1.297-2.126,2.847-2L105.59,14.275z M108.744,21.34  c-0.65,0-1.3-0.071-1.875-0.162l0.055-1.893c0.559,0.146,1.242,0.271,1.928,0.271c0.883,0,1.459-0.36,1.459-0.955  c0-1.586-3.621-0.686-3.621-3.73c0-1.566,1.279-2.865,3.804-2.865c0.521,0,1.098,0.072,1.639,0.162l-0.072,1.82  c-0.504-0.145-1.1-0.234-1.658-0.234c-0.899,0-1.332,0.36-1.332,0.919c0,1.46,3.677,0.812,3.677,3.712  C112.744,20.15,111.193,21.34,108.744,21.34z M115.861,11.05c-0.793,0-1.424-0.63-1.424-1.404c0-0.757,0.631-1.389,1.424-1.389  s1.441,0.613,1.441,1.389C117.302,10.42,116.654,11.05,115.861,11.05z M114.707,21.16v-8.957h2.307v8.957H114.707z M122.834,21.34  c-1.98,0-2.611-0.721-2.611-2.812v-4.541h-1.533v-1.784h1.533V9.446l2.307-0.613v3.37h2.181v1.784h-2.181v3.929  c0,1.153,0.271,1.479,1.062,1.479c0.379,0,0.793-0.055,1.117-0.146v1.856C124.133,21.25,123.465,21.34,122.834,21.34z   M130.836,21.988c-1.064,2.793-2,3.641-4.055,3.641c-0.396,0-0.884-0.055-1.263-0.145l0.146-1.982  c0.414,0.126,0.793,0.198,1.225,0.198c0.758,0,1.262-0.342,1.73-1.676l0.307-0.865l-3.299-8.957h2.561l1.207,3.424  c0.271,0.775,0.504,1.658,0.703,2.469h0.019c0.196-0.811,0.575-2,0.864-2.847l1.062-3.046h2.469L130.836,21.988z M141.918,21.34  c-2.541,0-4.183-1.314-4.183-4.505c0-2.793,1.857-4.811,4.578-4.811c2.541,0,4.181,1.405,4.181,4.486  C146.494,19.321,144.604,21.34,141.918,21.34z M142.152,13.969c-1.026,0-2.036,0.794-2.036,2.632s0.665,2.774,2,2.774  c1.137,0,2-0.919,2-2.739C144.115,14.906,143.504,13.969,142.152,13.969z M153.756,9.896c-0.361-0.126-0.775-0.162-1.117-0.162  c-1.01,0-1.461,0.521-1.461,1.712v0.757h2.09v1.784h-2.09v7.172h-2.289v-7.172h-1.565v-1.784h1.565v-0.721  c0-2.434,1.117-3.622,3.568-3.622c0.485,0,0.992,0.036,1.461,0.144L153.756,9.896z"/>
<path d="M6.818,32.721C6.296,32.944,6.2,32.986,6.093,33.04c-0.114,0.058-0.157,0.108-0.133,0.231  c0.005,0.029,0.025,0.091,0.047,0.139c0.016,0.038,0.018,0.062-0.006,0.071c-0.024,0.011-0.041-0.01-0.063-0.062  c-0.078-0.182-0.161-0.401-0.205-0.506c-0.034-0.082-0.138-0.295-0.19-0.418c-0.022-0.052-0.025-0.079-0.001-0.089  c0.023-0.011,0.04,0.007,0.055,0.042c0.016,0.037,0.028,0.057,0.053,0.095c0.058,0.086,0.127,0.088,0.25,0.043  c0.113-0.04,0.209-0.081,0.732-0.305l0.48-0.206c0.499-0.215,0.666-0.404,0.73-0.631c0.061-0.21,0.007-0.373-0.043-0.49  c-0.064-0.151-0.192-0.315-0.389-0.395c-0.271-0.108-0.584,0.014-0.938,0.166l-0.43,0.184c-0.522,0.225-0.619,0.266-0.727,0.319  c-0.113,0.058-0.156,0.107-0.132,0.23c0.005,0.031,0.026,0.091,0.042,0.129c0.017,0.037,0.019,0.062-0.006,0.071  c-0.024,0.011-0.041-0.011-0.062-0.06C5.083,31.425,5.001,31.204,5,31.201c-0.019-0.042-0.121-0.254-0.179-0.387  c-0.021-0.048-0.023-0.075,0-0.085c0.024-0.012,0.04,0.007,0.058,0.048c0.016,0.038,0.029,0.058,0.053,0.096  c0.057,0.085,0.127,0.088,0.25,0.043c0.113-0.04,0.209-0.082,0.731-0.306l0.367-0.157c0.383-0.164,0.804-0.3,1.176-0.117  c0.313,0.154,0.458,0.387,0.554,0.608c0.078,0.183,0.209,0.517,0.09,0.865c-0.083,0.242-0.281,0.481-0.78,0.695L6.818,32.721z   M6.676,28.899c0.283-0.069,0.368-0.139,0.377-0.217c0.008-0.066-0.003-0.138-0.016-0.195c-0.01-0.04-0.008-0.063,0.016-0.068  c0.029-0.006,0.043,0.025,0.055,0.076c0.053,0.237,0.073,0.386,0.088,0.455c0.008,0.033,0.057,0.202,0.099,0.393  c0.01,0.048,0.014,0.081-0.02,0.089c-0.021,0.005-0.033-0.017-0.042-0.053c-0.01-0.048-0.027-0.111-0.054-0.16  c-0.05-0.089-0.159-0.079-0.478-0.015l-2.169,0.442c-0.073,0.016-0.128,0.016-0.136-0.021c-0.009-0.04,0.031-0.083,0.083-0.16  c0.038-0.054,0.512-0.739,0.924-1.39c0.194-0.303,0.612-0.911,0.657-0.986l-0.004-0.018l-1.632,0.396  c-0.222,0.053-0.284,0.102-0.301,0.196c-0.011,0.061,0.009,0.146,0.021,0.198c0.01,0.044,0.002,0.061-0.02,0.064  c-0.029,0.008-0.042-0.032-0.055-0.088c-0.043-0.187-0.07-0.363-0.087-0.44c-0.009-0.041-0.05-0.178-0.09-0.356  c-0.01-0.048-0.015-0.085,0.016-0.091c0.021-0.005,0.037,0.015,0.047,0.059c0.008,0.036,0.014,0.065,0.035,0.106  c0.051,0.097,0.135,0.108,0.34,0.067l2.312-0.467c0.08-0.018,0.116-0.01,0.124,0.022c0.009,0.041-0.021,0.094-0.053,0.143  c-0.168,0.277-0.544,0.852-0.837,1.312c-0.309,0.484-0.675,0.99-0.73,1.071l0.002,0.011L6.676,28.899z M4.871,25.556  c-0.567,0.035-0.672,0.042-0.791,0.058c-0.126,0.016-0.188,0.057-0.201,0.14C3.87,25.796,3.87,25.844,3.873,25.89  c0.002,0.036-0.004,0.06-0.034,0.062c-0.022,0.002-0.032-0.027-0.036-0.087c-0.009-0.142-0.013-0.378-0.02-0.486  c-0.007-0.093-0.031-0.312-0.04-0.455c-0.003-0.048,0.003-0.079,0.024-0.081c0.03-0.002,0.039,0.021,0.041,0.059  c0.002,0.037,0.008,0.066,0.019,0.111c0.024,0.1,0.09,0.126,0.222,0.123c0.12,0,0.224-0.006,0.792-0.042l0.657-0.042  c0.361-0.021,0.656-0.041,0.815-0.065c0.101-0.019,0.166-0.048,0.173-0.161c0.005-0.053,0.007-0.135,0.004-0.191  c-0.003-0.042,0.007-0.061,0.025-0.062c0.026-0.001,0.039,0.028,0.042,0.069c0.017,0.246,0.021,0.48,0.026,0.583  c0.005,0.086,0.031,0.319,0.041,0.47c0.003,0.048-0.006,0.075-0.033,0.076c-0.019,0.002-0.031-0.014-0.034-0.059  c-0.003-0.056-0.014-0.1-0.022-0.133c-0.021-0.074-0.084-0.093-0.193-0.097c-0.158-0.009-0.453,0.01-0.815,0.032L4.871,25.556z   M4.071,23.877c-0.21,0.073-0.256,0.134-0.302,0.267c-0.019,0.055-0.021,0.114-0.023,0.145c-0.002,0.034-0.015,0.044-0.037,0.043  c-0.03-0.002-0.031-0.043-0.027-0.099c0.013-0.198,0.038-0.41,0.045-0.541c0.006-0.093,0.006-0.273,0.02-0.46  c0.003-0.045,0.013-0.085,0.039-0.084c0.025,0.002,0.031,0.024,0.029,0.059c-0.003,0.061-0.003,0.116,0.018,0.147  c0.017,0.026,0.042,0.041,0.076,0.042c0.049,0.003,0.154-0.024,0.293-0.067l1.735-0.534l0.001-0.015  c-0.399-0.188-1.57-0.749-1.812-0.854c-0.047-0.021-0.103-0.041-0.137-0.042c-0.029-0.002-0.061,0.012-0.073,0.044  c-0.019,0.045-0.025,0.101-0.028,0.148c-0.002,0.034-0.008,0.063-0.034,0.062c-0.029-0.002-0.035-0.036-0.031-0.106  c0.013-0.188,0.033-0.343,0.036-0.391c0.004-0.063,0.004-0.24,0.012-0.353c0.003-0.048,0.013-0.078,0.039-0.076  c0.025,0.001,0.031,0.024,0.028,0.062C3.935,21.311,3.93,21.389,3.97,21.46C4,21.51,4.06,21.571,4.293,21.687  c0.342,0.168,0.537,0.281,0.982,0.513c0.53,0.274,0.927,0.476,1.107,0.569c0.21,0.11,0.269,0.137,0.265,0.188  c-0.003,0.048-0.057,0.067-0.235,0.127L4.071,23.877z M5.128,20.567c-0.557-0.12-0.658-0.143-0.777-0.16  c-0.126-0.019-0.19-0.002-0.242,0.113c-0.014,0.026-0.03,0.089-0.042,0.14c-0.009,0.041-0.021,0.062-0.046,0.055  c-0.025-0.006-0.026-0.032-0.016-0.087c0.021-0.099,0.047-0.204,0.066-0.295c0.024-0.095,0.046-0.178,0.058-0.229  c0.024-0.117,0.182-0.846,0.192-0.916c0.008-0.071,0.014-0.131,0.013-0.162c0-0.02-0.006-0.043-0.002-0.062  c0.004-0.018,0.019-0.019,0.038-0.015c0.024,0.005,0.064,0.033,0.23,0.08c0.036,0.012,0.195,0.054,0.237,0.07  c0.018,0.008,0.038,0.02,0.032,0.045c-0.005,0.024-0.025,0.028-0.059,0.021C4.787,19.16,4.724,19.15,4.676,19.16  c-0.071,0.011-0.123,0.039-0.185,0.216c-0.021,0.062-0.11,0.443-0.126,0.518c-0.005,0.019,0.005,0.027,0.03,0.032l0.925,0.199  c0.025,0.005,0.041,0.005,0.046-0.017c0.018-0.081,0.107-0.501,0.118-0.587c0.012-0.089,0.013-0.146-0.017-0.188  c-0.024-0.032-0.039-0.051-0.035-0.068c0.003-0.016,0.013-0.024,0.035-0.021c0.022,0.005,0.078,0.032,0.261,0.087  c0.073,0.02,0.216,0.062,0.242,0.067C6,19.405,6.04,19.414,6.033,19.447c-0.006,0.026-0.021,0.03-0.04,0.026  c-0.037-0.005-0.084-0.015-0.136-0.014c-0.077,0.002-0.143,0.042-0.187,0.174c-0.022,0.068-0.104,0.43-0.123,0.518  c-0.004,0.018,0.01,0.024,0.032,0.03l0.289,0.062c0.125,0.027,0.46,0.104,0.566,0.122c0.254,0.047,0.321,0,0.402-0.373  c0.021-0.095,0.053-0.249,0.03-0.353c-0.023-0.104-0.092-0.165-0.235-0.224C6.594,19.4,6.581,19.39,6.587,19.364  c0.007-0.029,0.036-0.023,0.072-0.015c0.084,0.018,0.326,0.101,0.396,0.135c0.089,0.046,0.083,0.079,0.052,0.218  c-0.059,0.274-0.108,0.474-0.146,0.63c-0.041,0.156-0.069,0.27-0.093,0.378c-0.01,0.04-0.026,0.121-0.041,0.209  c-0.02,0.084-0.031,0.182-0.048,0.254c-0.01,0.049-0.025,0.071-0.052,0.065c-0.018-0.004-0.025-0.021-0.017-0.065  c0.012-0.055,0.014-0.1,0.014-0.135c0.001-0.076-0.075-0.112-0.178-0.148c-0.15-0.052-0.439-0.113-0.775-0.187L5.128,20.567z   M5.822,17.875c-0.529-0.205-0.628-0.243-0.742-0.278c-0.121-0.039-0.188-0.032-0.258,0.072c-0.018,0.025-0.044,0.083-0.062,0.132  c-0.015,0.038-0.03,0.058-0.054,0.048c-0.024-0.01-0.022-0.037-0.002-0.09c0.071-0.185,0.167-0.399,0.194-0.474  c0.046-0.118,0.139-0.388,0.181-0.496c0.085-0.22,0.195-0.446,0.397-0.584c0.104-0.072,0.336-0.143,0.57-0.052  c0.258,0.1,0.454,0.299,0.604,0.763c0.512-0.16,0.915-0.28,1.21-0.401c0.278-0.117,0.358-0.251,0.39-0.3  c0.021-0.035,0.038-0.065,0.048-0.094s0.026-0.038,0.044-0.031c0.028,0.012,0.025,0.038,0.009,0.08l-0.128,0.332  c-0.075,0.195-0.126,0.276-0.21,0.349c-0.138,0.118-0.354,0.188-0.698,0.279c-0.246,0.065-0.545,0.135-0.614,0.159  c-0.027,0.009-0.039,0.029-0.049,0.053l-0.125,0.302c-0.007,0.018-0.004,0.03,0.018,0.039l0.049,0.019  c0.325,0.125,0.6,0.232,0.753,0.271C7.45,18,7.535,18.009,7.59,17.91c0.027-0.05,0.063-0.124,0.08-0.166  c0.011-0.028,0.026-0.038,0.044-0.031c0.023,0.011,0.024,0.038,0.008,0.083c-0.079,0.202-0.188,0.457-0.209,0.51  c-0.025,0.065-0.1,0.289-0.154,0.43C7.341,18.779,7.321,18.8,7.297,18.79c-0.019-0.007-0.022-0.023-0.006-0.065  c0.02-0.054,0.028-0.098,0.035-0.132c0.013-0.074-0.058-0.123-0.153-0.176c-0.14-0.074-0.415-0.181-0.736-0.305L5.822,17.875z   M6.257,17.57c0.038,0.015,0.055,0.013,0.075-0.007c0.053-0.063,0.104-0.164,0.137-0.251c0.054-0.141,0.058-0.19,0.037-0.271  c-0.036-0.134-0.158-0.298-0.444-0.408c-0.495-0.191-0.765,0.081-0.845,0.287c-0.034,0.087-0.055,0.151-0.058,0.19  c-0.002,0.027,0.009,0.04,0.036,0.05L6.257,17.57z M8.459,16.014c-0.054,0.038-0.074,0.04-0.146-0.001  c-0.179-0.103-0.367-0.227-0.417-0.259c-0.047-0.03-0.077-0.061-0.062-0.087c0.017-0.028,0.048-0.016,0.074-0.001  c0.042,0.024,0.117,0.05,0.183,0.064c0.281,0.064,0.479-0.077,0.593-0.278c0.166-0.293,0.049-0.549-0.123-0.646  C8.4,14.716,8.223,14.68,7.858,14.83l-0.202,0.083c-0.482,0.199-0.78,0.193-1.044,0.044c-0.356-0.204-0.444-0.647-0.188-1.101  c0.12-0.212,0.229-0.33,0.301-0.401c0.023-0.024,0.042-0.036,0.065-0.022c0.042,0.023,0.129,0.091,0.383,0.233  c0.072,0.041,0.092,0.065,0.078,0.091c-0.014,0.023-0.038,0.021-0.077,0c-0.029-0.017-0.139-0.058-0.263-0.038  c-0.09,0.015-0.241,0.054-0.361,0.265c-0.137,0.241-0.08,0.467,0.115,0.577c0.149,0.085,0.306,0.074,0.664-0.079l0.12-0.052  c0.52-0.227,0.822-0.238,1.133-0.062c0.188,0.107,0.372,0.306,0.392,0.627c0.012,0.222-0.062,0.421-0.16,0.593  C8.706,15.776,8.6,15.909,8.459,16.014z M8.373,12.925c-0.459-0.335-0.544-0.396-0.646-0.462c-0.106-0.067-0.181-0.075-0.244-0.021  c-0.033,0.026-0.064,0.063-0.091,0.1c-0.021,0.03-0.042,0.044-0.065,0.026c-0.019-0.013-0.007-0.042,0.028-0.09  c0.084-0.115,0.232-0.299,0.296-0.387c0.056-0.075,0.177-0.26,0.261-0.375c0.028-0.039,0.052-0.059,0.069-0.046  c0.024,0.019,0.018,0.041-0.005,0.071c-0.021,0.03-0.037,0.057-0.057,0.097c-0.044,0.094-0.011,0.154,0.091,0.237  c0.092,0.077,0.177,0.139,0.636,0.474l0.532,0.389c0.293,0.214,0.532,0.388,0.671,0.471c0.088,0.05,0.158,0.069,0.236-0.013  c0.037-0.038,0.092-0.101,0.125-0.146c0.023-0.033,0.044-0.042,0.06-0.031c0.021,0.017,0.013,0.047-0.012,0.08  c-0.146,0.199-0.294,0.384-0.354,0.466c-0.051,0.068-0.18,0.267-0.269,0.387c-0.029,0.04-0.053,0.054-0.074,0.039  c-0.015-0.011-0.016-0.03,0.012-0.066c0.032-0.045,0.053-0.086,0.066-0.118c0.032-0.068-0.006-0.125-0.087-0.197  c-0.116-0.108-0.354-0.282-0.648-0.496L8.373,12.925z M9.295,10.406l-0.372,0.415c-0.145,0.163-0.191,0.241-0.17,0.338  c0.015,0.065,0.035,0.11,0.051,0.136c0.017,0.026,0.021,0.044,0.004,0.062c-0.018,0.019-0.037,0.012-0.065-0.018  c-0.044-0.041-0.242-0.326-0.26-0.353c-0.027-0.042-0.036-0.065-0.021-0.081c0.021-0.022,0.073-0.023,0.143-0.086  c0.083-0.071,0.187-0.169,0.271-0.259l1.017-1.076c0.083-0.087,0.131-0.154,0.164-0.2c0.03-0.049,0.045-0.076,0.056-0.086  c0.019-0.019,0.037-0.006,0.078,0.032c0.058,0.054,0.237,0.238,0.309,0.306c0.023,0.028,0.036,0.049,0.02,0.065  c-0.021,0.021-0.039,0.014-0.083-0.021l-0.032-0.024c-0.075-0.062-0.221-0.061-0.455,0.177l-0.332,0.335l1.114,1.053  c0.25,0.236,0.465,0.439,0.596,0.536c0.083,0.062,0.158,0.104,0.247,0.032c0.042-0.033,0.104-0.087,0.142-0.128  c0.028-0.03,0.049-0.036,0.062-0.023c0.021,0.019,0.008,0.047-0.021,0.077c-0.169,0.18-0.339,0.343-0.411,0.419  c-0.059,0.062-0.213,0.242-0.315,0.351c-0.032,0.035-0.06,0.047-0.078,0.028c-0.015-0.013-0.013-0.031,0.019-0.063  c0.039-0.041,0.064-0.078,0.082-0.108c0.04-0.065-0.004-0.138-0.075-0.22c-0.102-0.122-0.315-0.324-0.565-0.562L9.295,10.406z   M12.134,9.947c-0.015,0.012-0.016,0.021-0.008,0.044l0.176,0.544c0.029,0.096,0.07,0.178,0.098,0.213  c0.042,0.053,0.1,0.069,0.189-0.003l0.044-0.035c0.035-0.027,0.048-0.028,0.062-0.012c0.02,0.023,0.007,0.043-0.025,0.069  c-0.094,0.074-0.228,0.166-0.317,0.237c-0.032,0.026-0.186,0.163-0.338,0.284c-0.038,0.03-0.06,0.039-0.079,0.016  c-0.014-0.019-0.007-0.033,0.018-0.052c0.025-0.021,0.064-0.057,0.086-0.078c0.121-0.125,0.097-0.269,0.039-0.461l-0.731-2.421  c-0.032-0.112-0.041-0.159-0.011-0.182c0.025-0.021,0.064-0.009,0.146,0.035c0.199,0.104,1.618,0.924,2.159,1.22  c0.321,0.174,0.438,0.148,0.512,0.113c0.052-0.026,0.098-0.059,0.133-0.086c0.022-0.02,0.041-0.027,0.057-0.008  c0.019,0.023-0.003,0.051-0.111,0.138c-0.104,0.084-0.318,0.254-0.557,0.435c-0.055,0.039-0.09,0.067-0.106,0.047  c-0.014-0.018-0.007-0.032,0.021-0.059c0.016-0.022,0.015-0.065-0.027-0.088l-0.729-0.434c-0.018-0.01-0.031-0.009-0.045,0.003  L12.134,9.947z M12.614,9.325c0.015-0.012,0.011-0.022,0-0.029l-0.839-0.513c-0.012-0.009-0.026-0.021-0.036-0.015  c-0.009,0.007-0.003,0.025,0.004,0.041l0.305,0.934c0.007,0.014,0.017,0.021,0.028,0.011L12.614,9.325z M14.557,9.301  c-0.063,0.009-0.084-0.002-0.126-0.072c-0.104-0.178-0.206-0.378-0.232-0.432c-0.025-0.05-0.037-0.091-0.012-0.105  c0.029-0.018,0.049,0.01,0.064,0.036c0.023,0.042,0.078,0.102,0.126,0.146c0.212,0.196,0.453,0.17,0.651,0.052  c0.29-0.172,0.315-0.451,0.215-0.623c-0.094-0.156-0.229-0.276-0.62-0.327l-0.218-0.028c-0.518-0.067-0.772-0.22-0.928-0.48  c-0.21-0.354-0.063-0.782,0.383-1.048c0.209-0.124,0.363-0.172,0.46-0.199c0.033-0.011,0.056-0.011,0.068,0.013  c0.025,0.042,0.067,0.143,0.216,0.394c0.042,0.071,0.047,0.104,0.021,0.118c-0.022,0.013-0.043,0-0.066-0.039  c-0.017-0.029-0.092-0.119-0.209-0.163c-0.084-0.032-0.234-0.074-0.443,0.05c-0.238,0.142-0.302,0.365-0.188,0.559  c0.088,0.147,0.229,0.217,0.615,0.261l0.13,0.014c0.562,0.062,0.833,0.202,1.014,0.508c0.11,0.187,0.171,0.45,0.029,0.738  c-0.1,0.198-0.263,0.333-0.433,0.436C14.89,9.217,14.731,9.28,14.557,9.301z M34.089,6.584L33.6,6.314  c-0.19-0.104-0.278-0.133-0.368-0.09c-0.061,0.028-0.1,0.059-0.121,0.081c-0.021,0.021-0.039,0.028-0.059,0.018  c-0.022-0.013-0.02-0.033,0.001-0.069c0.03-0.051,0.264-0.309,0.286-0.332c0.034-0.036,0.055-0.05,0.075-0.038  c0.025,0.016,0.039,0.066,0.115,0.12c0.089,0.064,0.207,0.144,0.313,0.205l1.278,0.75c0.103,0.062,0.18,0.093,0.231,0.115  c0.055,0.019,0.084,0.027,0.098,0.035c0.021,0.014,0.015,0.035-0.015,0.083c-0.04,0.067-0.18,0.285-0.229,0.369  c-0.022,0.03-0.04,0.046-0.061,0.035c-0.024-0.016-0.021-0.035,0.003-0.086l0.019-0.036c0.042-0.089,0.008-0.229-0.275-0.404  l-0.4-0.25l-0.776,1.323c-0.174,0.297-0.324,0.552-0.39,0.699c-0.043,0.097-0.065,0.179,0.023,0.248  c0.042,0.033,0.109,0.081,0.157,0.109c0.036,0.021,0.046,0.04,0.037,0.056c-0.014,0.022-0.044,0.018-0.08-0.004  C33.25,9.129,33.053,9,32.962,8.947c-0.074-0.043-0.283-0.153-0.412-0.229c-0.042-0.023-0.059-0.048-0.046-0.069  c0.009-0.017,0.028-0.019,0.066,0.004c0.049,0.029,0.092,0.045,0.124,0.055c0.072,0.025,0.134-0.034,0.197-0.122  c0.096-0.126,0.245-0.381,0.42-0.678L34.089,6.584z M35.774,8.711c0.371-0.431,0.438-0.511,0.512-0.605  c0.076-0.102,0.093-0.166,0.017-0.267c-0.018-0.024-0.063-0.069-0.104-0.104c-0.031-0.027-0.044-0.047-0.026-0.067  c0.017-0.02,0.042-0.009,0.084,0.028c0.149,0.129,0.322,0.291,0.407,0.364c0.067,0.058,0.254,0.204,0.355,0.291  c0.042,0.037,0.059,0.059,0.04,0.079c-0.017,0.02-0.039,0.011-0.066-0.014c-0.031-0.026-0.052-0.039-0.091-0.062  c-0.089-0.053-0.152-0.022-0.243,0.071c-0.084,0.087-0.152,0.166-0.522,0.598L35.797,9.42c-0.354,0.412-0.419,0.655-0.378,0.889  c0.038,0.214,0.158,0.338,0.255,0.421c0.125,0.106,0.312,0.198,0.522,0.183c0.29-0.021,0.519-0.271,0.77-0.562l0.305-0.354  c0.37-0.432,0.438-0.511,0.512-0.605c0.076-0.103,0.093-0.167,0.017-0.268c-0.019-0.024-0.063-0.068-0.095-0.097  C37.673,9,37.661,8.979,37.678,8.96s0.042-0.009,0.081,0.025c0.145,0.124,0.316,0.286,0.319,0.289  c0.033,0.028,0.22,0.174,0.331,0.269c0.04,0.034,0.055,0.058,0.037,0.077c-0.017,0.021-0.038,0.011-0.072-0.018  c-0.031-0.027-0.05-0.039-0.089-0.062c-0.09-0.052-0.153-0.022-0.244,0.071c-0.083,0.086-0.152,0.166-0.522,0.597l-0.261,0.303  c-0.271,0.315-0.589,0.623-1.002,0.623c-0.351,0-0.581-0.144-0.766-0.302c-0.15-0.129-0.416-0.372-0.463-0.737  c-0.032-0.254,0.04-0.557,0.394-0.969L35.774,8.711z M38.61,11.381c0.443-0.355,0.524-0.422,0.613-0.503  c0.094-0.085,0.122-0.146,0.065-0.259c-0.014-0.028-0.051-0.08-0.083-0.121c-0.026-0.032-0.034-0.054-0.015-0.071  c0.021-0.016,0.043,0,0.078,0.043c0.125,0.154,0.264,0.346,0.313,0.406c0.079,0.1,0.267,0.313,0.339,0.404  c0.147,0.184,0.288,0.393,0.307,0.637c0.01,0.126-0.045,0.362-0.24,0.521c-0.216,0.173-0.485,0.242-0.962,0.141  c-0.116,0.522-0.215,0.932-0.257,1.249c-0.038,0.299,0.038,0.436,0.064,0.485c0.02,0.037,0.038,0.064,0.057,0.089  c0.02,0.022,0.021,0.042,0.005,0.054c-0.022,0.02-0.045,0.003-0.074-0.032l-0.223-0.275c-0.131-0.163-0.175-0.248-0.195-0.356  c-0.033-0.179,0.015-0.399,0.107-0.744c0.066-0.246,0.156-0.539,0.17-0.611c0.006-0.029-0.006-0.05-0.021-0.069l-0.198-0.258  c-0.013-0.016-0.024-0.02-0.042-0.005l-0.041,0.032c-0.271,0.219-0.501,0.403-0.612,0.517c-0.077,0.077-0.127,0.146-0.068,0.243  c0.029,0.048,0.075,0.117,0.104,0.151c0.019,0.023,0.02,0.042,0.005,0.055c-0.021,0.016-0.045,0.003-0.076-0.035  c-0.136-0.169-0.301-0.393-0.336-0.437c-0.044-0.055-0.201-0.23-0.294-0.348c-0.031-0.038-0.038-0.065-0.018-0.082  c0.015-0.012,0.032-0.007,0.061,0.028c0.035,0.043,0.069,0.073,0.096,0.096c0.06,0.049,0.136,0.012,0.229-0.044  c0.134-0.084,0.364-0.271,0.632-0.485L38.61,11.381z M38.656,11.91c-0.031,0.026-0.038,0.041-0.03,0.069  c0.028,0.078,0.09,0.172,0.148,0.245c0.095,0.116,0.137,0.145,0.217,0.167c0.134,0.035,0.336,0.013,0.574-0.181  c0.414-0.333,0.312-0.703,0.174-0.875c-0.059-0.072-0.104-0.123-0.136-0.145c-0.021-0.017-0.038-0.012-0.062,0.006L38.656,11.91z   M40.591,14.113c0.49-0.289,0.58-0.342,0.679-0.409c0.105-0.071,0.143-0.136,0.116-0.216c-0.011-0.041-0.033-0.084-0.055-0.123  c-0.021-0.032-0.024-0.056,0.001-0.071c0.02-0.011,0.041,0.012,0.071,0.062c0.072,0.123,0.183,0.331,0.237,0.424  c0.047,0.081,0.169,0.265,0.242,0.387c0.024,0.042,0.033,0.072,0.014,0.083c-0.024,0.016-0.043,0-0.062-0.033  c-0.02-0.032-0.038-0.056-0.066-0.091c-0.066-0.078-0.138-0.07-0.254-0.011c-0.106,0.054-0.197,0.108-0.687,0.396l-0.567,0.334  c-0.312,0.185-0.567,0.335-0.698,0.43c-0.081,0.061-0.126,0.118-0.082,0.222c0.021,0.049,0.057,0.123,0.084,0.172  c0.021,0.035,0.021,0.058,0.004,0.066c-0.021,0.014-0.047-0.007-0.067-0.042c-0.125-0.212-0.235-0.421-0.287-0.508  c-0.043-0.074-0.173-0.271-0.249-0.4c-0.025-0.042-0.028-0.07-0.006-0.083c0.016-0.009,0.033-0.002,0.056,0.036  c0.029,0.049,0.058,0.083,0.082,0.109c0.051,0.057,0.117,0.043,0.216-0.002c0.146-0.063,0.399-0.214,0.712-0.397L40.591,14.113z   M40.314,16.493c0.157-0.461,0.507-0.711,0.842-0.85c0.235-0.098,0.673-0.193,1.114,0.013c0.331,0.154,0.605,0.425,0.818,0.94  c0.089,0.214,0.128,0.348,0.173,0.515c0.037,0.139,0.052,0.262,0.084,0.37c0.012,0.039,0.001,0.06-0.02,0.068  c-0.028,0.012-0.073,0.019-0.197,0.062c-0.117,0.041-0.307,0.123-0.378,0.144c-0.054,0.019-0.084,0.022-0.098-0.008  c-0.011-0.028,0.015-0.046,0.062-0.065c0.104-0.048,0.208-0.144,0.262-0.267c0.074-0.164,0.057-0.472-0.076-0.79  c-0.125-0.3-0.281-0.466-0.482-0.561c-0.335-0.156-0.691-0.086-1.026,0.053c-0.822,0.34-0.971,1.134-0.78,1.597  c0.127,0.309,0.239,0.48,0.455,0.554c0.091,0.03,0.209,0.034,0.276,0.022c0.06-0.012,0.076-0.011,0.088,0.017  c0.01,0.023-0.011,0.042-0.039,0.053c-0.041,0.017-0.358,0.1-0.491,0.114c-0.065,0.007-0.089,0-0.137-0.05  c-0.113-0.114-0.246-0.367-0.337-0.589C40.232,17.361,40.171,16.92,40.314,16.493z M42.775,19.295  c0.556-0.125,0.657-0.146,0.772-0.181c0.123-0.035,0.174-0.077,0.173-0.204c0-0.031-0.009-0.094-0.021-0.145  c-0.01-0.04-0.008-0.064,0.019-0.069c0.026-0.006,0.039,0.018,0.051,0.073c0.022,0.099,0.042,0.205,0.063,0.296  c0.018,0.096,0.033,0.181,0.044,0.23c0.025,0.117,0.188,0.844,0.208,0.912c0.022,0.068,0.043,0.125,0.057,0.152  c0.008,0.018,0.024,0.037,0.028,0.056s-0.01,0.025-0.028,0.029c-0.024,0.005-0.073-0.003-0.244,0.023  c-0.038,0.005-0.2,0.033-0.245,0.036c-0.019,0-0.042-0.002-0.048-0.026c-0.006-0.025,0.012-0.037,0.043-0.044  c0.026-0.005,0.087-0.023,0.126-0.052c0.061-0.041,0.097-0.087,0.077-0.273c-0.006-0.063-0.085-0.448-0.102-0.521  c-0.004-0.018-0.018-0.022-0.042-0.017l-0.923,0.208c-0.026,0.006-0.04,0.013-0.035,0.034c0.018,0.081,0.111,0.5,0.139,0.583  c0.027,0.086,0.05,0.138,0.094,0.163c0.035,0.019,0.057,0.028,0.062,0.047c0.003,0.015-0.001,0.026-0.023,0.032  c-0.021,0.005-0.083,0.003-0.272,0.03c-0.074,0.014-0.224,0.035-0.248,0.041c-0.029,0.006-0.069,0.017-0.077-0.018  c-0.006-0.025,0.007-0.036,0.024-0.04c0.036-0.012,0.083-0.022,0.129-0.044c0.068-0.035,0.111-0.099,0.096-0.236  c-0.008-0.071-0.086-0.434-0.105-0.521c-0.004-0.019-0.02-0.02-0.042-0.015l-0.288,0.065c-0.124,0.028-0.461,0.1-0.565,0.127  c-0.25,0.062-0.292,0.134-0.208,0.507c0.021,0.095,0.056,0.248,0.121,0.333c0.064,0.085,0.151,0.112,0.307,0.104  c0.042-0.001,0.058,0.002,0.064,0.027c0.006,0.029-0.023,0.036-0.061,0.044c-0.084,0.02-0.338,0.045-0.416,0.043  c-0.101-0.004-0.107-0.037-0.139-0.176c-0.062-0.272-0.1-0.476-0.131-0.634c-0.028-0.158-0.05-0.272-0.074-0.382  c-0.009-0.04-0.027-0.121-0.05-0.207c-0.02-0.084-0.047-0.177-0.064-0.25c-0.011-0.047-0.006-0.075,0.021-0.081  c0.018-0.004,0.032,0.008,0.042,0.052c0.012,0.055,0.028,0.097,0.044,0.128c0.03,0.069,0.115,0.07,0.225,0.062  c0.157-0.017,0.446-0.081,0.781-0.156L42.775,19.295z M42.087,22.487c-0.292,0.018-0.387,0.07-0.41,0.146  c-0.021,0.064-0.021,0.137-0.02,0.195c0.001,0.041-0.006,0.064-0.027,0.064c-0.03,0.001-0.039-0.032-0.041-0.084  c-0.009-0.243-0.003-0.394-0.005-0.465c-0.001-0.033-0.02-0.209-0.025-0.402c-0.002-0.048,0.001-0.083,0.034-0.083  c0.022-0.001,0.031,0.021,0.032,0.059c0.002,0.049,0.008,0.116,0.023,0.167c0.034,0.097,0.144,0.107,0.469,0.101l2.214-0.044  c0.074-0.003,0.128,0.007,0.129,0.044c0.001,0.041-0.046,0.075-0.111,0.143c-0.047,0.046-0.636,0.636-1.159,1.201  c-0.245,0.263-0.766,0.787-0.822,0.852v0.02l1.677-0.098c0.228-0.012,0.298-0.048,0.332-0.139c0.021-0.057,0.017-0.146,0.015-0.199  c-0.001-0.045,0.009-0.061,0.032-0.061c0.03-0.001,0.035,0.04,0.037,0.095c0.007,0.194,0.002,0.375,0.005,0.453  c0.001,0.041,0.018,0.183,0.023,0.366c0.002,0.049,0,0.086-0.03,0.087c-0.022,0.001-0.034-0.021-0.036-0.066  c-0.001-0.038-0.002-0.066-0.015-0.111c-0.034-0.104-0.113-0.132-0.323-0.127l-2.36,0.042c-0.082,0.003-0.116-0.011-0.118-0.044  c-0.001-0.041,0.038-0.088,0.078-0.13c0.216-0.243,0.688-0.738,1.061-1.142c0.39-0.421,0.842-0.853,0.91-0.923v-0.011L42.087,22.487  z M41.585,25.938c0.035-0.057,0.055-0.064,0.136-0.054c0.204,0.03,0.424,0.076,0.482,0.09c0.055,0.012,0.094,0.027,0.09,0.058  c-0.004,0.034-0.038,0.032-0.068,0.028c-0.048-0.008-0.128-0.003-0.194,0.006c-0.285,0.042-0.417,0.246-0.449,0.476  c-0.048,0.333,0.153,0.528,0.351,0.558c0.182,0.025,0.36-0.006,0.646-0.277l0.157-0.151c0.377-0.36,0.656-0.465,0.956-0.422  c0.407,0.06,0.65,0.441,0.577,0.956c-0.035,0.24-0.094,0.392-0.134,0.483c-0.012,0.031-0.026,0.049-0.052,0.045  c-0.048-0.007-0.153-0.037-0.442-0.078c-0.082-0.012-0.109-0.027-0.104-0.057c0.004-0.026,0.026-0.034,0.071-0.027  c0.033,0.004,0.15,0.002,0.259-0.062c0.077-0.046,0.204-0.137,0.238-0.378c0.04-0.272-0.096-0.463-0.317-0.495  c-0.17-0.023-0.312,0.042-0.59,0.316l-0.093,0.093c-0.4,0.398-0.679,0.521-1.03,0.472c-0.216-0.03-0.458-0.148-0.595-0.44  c-0.092-0.202-0.096-0.414-0.066-0.61C41.442,26.249,41.492,26.087,41.585,25.938z M42.705,29.112  c0.547,0.154,0.647,0.183,0.765,0.208c0.125,0.027,0.196,0.009,0.236-0.065c0.021-0.036,0.039-0.082,0.051-0.125  c0.01-0.036,0.022-0.056,0.052-0.048c0.021,0.007,0.021,0.037,0.004,0.095c-0.039,0.138-0.112,0.36-0.143,0.466  c-0.025,0.09-0.074,0.305-0.113,0.44c-0.013,0.047-0.028,0.074-0.05,0.068c-0.029-0.009-0.03-0.032-0.021-0.068  c0.011-0.036,0.016-0.064,0.021-0.11c0.009-0.103-0.044-0.147-0.168-0.19c-0.113-0.04-0.213-0.068-0.76-0.223l-0.634-0.181  c-0.349-0.099-0.633-0.179-0.792-0.208c-0.1-0.017-0.172-0.01-0.217,0.095c-0.021,0.049-0.051,0.126-0.065,0.18  c-0.012,0.04-0.027,0.055-0.045,0.05c-0.025-0.007-0.028-0.039-0.018-0.079c0.067-0.236,0.143-0.461,0.169-0.559  c0.023-0.082,0.077-0.312,0.118-0.456c0.013-0.047,0.031-0.068,0.056-0.062c0.019,0.005,0.025,0.022,0.014,0.066  c-0.017,0.053-0.021,0.099-0.022,0.133c-0.006,0.076,0.049,0.115,0.15,0.155c0.146,0.061,0.43,0.141,0.778,0.239L42.705,29.112z   M40.502,30.431c0.048-0.046,0.068-0.048,0.145-0.016c0.189,0.081,0.39,0.186,0.442,0.211c0.05,0.026,0.083,0.054,0.072,0.08  c-0.014,0.031-0.046,0.021-0.073,0.009c-0.044-0.019-0.123-0.035-0.188-0.044c-0.287-0.033-0.467,0.128-0.559,0.342  c-0.134,0.309,0.01,0.55,0.192,0.629c0.168,0.071,0.348,0.09,0.693-0.101l0.192-0.104c0.458-0.25,0.755-0.277,1.033-0.156  c0.377,0.163,0.512,0.596,0.306,1.072c-0.097,0.224-0.193,0.353-0.256,0.432c-0.021,0.028-0.038,0.041-0.062,0.03  c-0.044-0.021-0.138-0.076-0.405-0.192c-0.075-0.032-0.1-0.055-0.086-0.082c0.01-0.022,0.034-0.024,0.076-0.007  c0.031,0.013,0.146,0.042,0.266,0.009c0.088-0.022,0.232-0.079,0.33-0.302c0.109-0.254,0.028-0.473-0.178-0.562  c-0.157-0.068-0.312-0.041-0.65,0.149l-0.114,0.064c-0.492,0.28-0.792,0.325-1.119,0.185c-0.199-0.086-0.402-0.264-0.458-0.58  c-0.036-0.22,0.018-0.425,0.095-0.606C40.282,30.694,40.373,30.55,40.502,30.431z M13.791,41.773c-0.025,0-0.057-0.002-0.114-0.02  c-0.053-0.015-0.071-0.058-0.09-0.186l-0.19-1.25c-0.009-0.048-0.034-0.077-0.063-0.079c-0.03,0.001-0.053,0.024-0.07,0.06  l-0.547,1.112l-0.546-1.098c-0.027-0.057-0.05-0.074-0.08-0.074c-0.03,0.001-0.052,0.029-0.057,0.066l-0.207,1.321  c-0.01,0.067-0.032,0.141-0.071,0.142c-0.033,0.004-0.046,0.004-0.062,0.004c-0.024,0-0.049,0.012-0.05,0.037  c0,0.032,0.034,0.04,0.056,0.04c0.067,0,0.168-0.008,0.207-0.008c0.037,0,0.133,0.008,0.222,0.008c0.028,0,0.064-0.005,0.066-0.04  c-0.003-0.027-0.025-0.036-0.05-0.037c-0.017,0-0.035-0.002-0.069-0.009c-0.035-0.009-0.051-0.017-0.052-0.044  c0-0.031,0.002-0.058,0.007-0.093l0.095-0.746c0.069,0.145,0.175,0.359,0.189,0.395c0.025,0.06,0.191,0.367,0.241,0.461  c0.035,0.061,0.054,0.105,0.099,0.111c0.04-0.004,0.052-0.031,0.1-0.124l0.431-0.866l0.11,0.832  c0.002,0.018,0.003,0.032,0.003,0.043c0,0.023-0.003,0.022-0.002,0.024c-0.016,0.006-0.034,0.015-0.035,0.037  c0.002,0.029,0.029,0.039,0.078,0.041c0.084,0.005,0.381,0.015,0.435,0.015c0.031-0.001,0.067-0.003,0.071-0.04  C13.839,41.781,13.812,41.773,13.791,41.773z M15.5,40.521c-0.235-0.237-0.593-0.235-0.854-0.235c-0.126,0-0.276,0.004-0.341,0.004  c-0.059,0-0.193-0.004-0.302-0.004c-0.029,0-0.062,0.002-0.065,0.035c0.001,0.029,0.03,0.039,0.054,0.039  c0.029,0,0.065,0.002,0.078,0.006c0.064,0.021,0.071,0.028,0.078,0.095c0.003,0.063,0.003,0.12,0.003,0.429v0.355  c0,0.188,0,0.346-0.01,0.43c-0.008,0.061-0.018,0.086-0.049,0.094c-0.018,0.004-0.04,0.006-0.07,0.006s-0.05,0.02-0.05,0.039  c0.001,0.028,0.03,0.038,0.058,0.038c0.044,0,0.097-0.002,0.146-0.005c0.05,0,0.096-0.003,0.119-0.003  c0.051,0,0.127,0.006,0.21,0.013c0.083,0.005,0.174,0.012,0.251,0.012c0.39,0,0.616-0.145,0.714-0.243  c0.122-0.119,0.234-0.315,0.234-0.576C15.703,40.802,15.607,40.629,15.5,40.521z M15.368,41.105c0,0.207-0.042,0.382-0.173,0.488  c-0.122,0.103-0.258,0.135-0.445,0.135c-0.162,0.001-0.24-0.044-0.26-0.073c-0.012-0.012-0.021-0.086-0.021-0.134  c-0.002-0.04-0.005-0.195-0.005-0.409v-0.255c0-0.159,0-0.326,0.003-0.396c0.002-0.021,0-0.018,0.015-0.024  c0.01-0.007,0.082-0.015,0.123-0.014c0.163,0,0.387,0.021,0.574,0.188C15.268,40.69,15.368,40.853,15.368,41.105z M17.351,41.434  c-0.027-0.001-0.041,0.025-0.042,0.055c-0.006,0.033-0.034,0.09-0.067,0.127c-0.078,0.087-0.174,0.102-0.358,0.102  c-0.273-0.001-0.635-0.222-0.636-0.691c0-0.196,0.038-0.386,0.187-0.514c0.091-0.077,0.203-0.11,0.384-0.11  c0.19,0,0.327,0.05,0.394,0.114c0.049,0.049,0.074,0.116,0.076,0.177c0,0.023,0.004,0.058,0.039,0.06  c0.035-0.003,0.043-0.038,0.045-0.065c0.002-0.041,0.002-0.153,0.007-0.22c0.004-0.07,0.009-0.094,0.009-0.112  c0.002-0.021-0.019-0.04-0.046-0.04c-0.062-0.008-0.129-0.022-0.208-0.034c-0.096-0.012-0.176-0.021-0.308-0.021  c-0.314,0-0.521,0.083-0.676,0.22c-0.205,0.184-0.251,0.426-0.251,0.566c0,0.198,0.057,0.435,0.269,0.61  c0.194,0.164,0.441,0.224,0.729,0.224c0.138,0,0.296-0.012,0.386-0.047c0.036-0.013,0.057-0.033,0.064-0.069  c0.022-0.072,0.045-0.245,0.045-0.273C17.391,41.465,17.382,41.437,17.351,41.434z M19.029,41.434  c-0.027-0.001-0.041,0.025-0.043,0.055c-0.005,0.033-0.033,0.09-0.066,0.127c-0.079,0.087-0.173,0.102-0.359,0.102  c-0.272-0.001-0.635-0.222-0.636-0.691c0-0.196,0.038-0.386,0.187-0.514c0.093-0.077,0.203-0.11,0.385-0.11  c0.189,0,0.326,0.05,0.393,0.114c0.049,0.049,0.073,0.116,0.076,0.177c0,0.023,0.005,0.058,0.039,0.06  c0.037-0.003,0.043-0.038,0.045-0.065c0.002-0.041,0.002-0.153,0.007-0.22c0.004-0.07,0.009-0.094,0.01-0.112  c0.001-0.021-0.02-0.04-0.047-0.04c-0.061-0.008-0.129-0.022-0.208-0.034c-0.096-0.012-0.176-0.021-0.307-0.021  c-0.315,0-0.521,0.083-0.676,0.22c-0.205,0.184-0.251,0.426-0.251,0.566c0,0.198,0.056,0.435,0.268,0.61  c0.195,0.164,0.442,0.224,0.73,0.224c0.137,0,0.297-0.012,0.385-0.047c0.037-0.013,0.057-0.033,0.063-0.069  c0.022-0.072,0.045-0.245,0.046-0.273C19.069,41.465,19.06,41.437,19.029,41.434z M20.707,41.434  c-0.028-0.001-0.041,0.025-0.043,0.055c-0.006,0.033-0.034,0.09-0.067,0.127c-0.079,0.087-0.173,0.102-0.359,0.102  c-0.271-0.001-0.635-0.222-0.635-0.691c0-0.196,0.037-0.386,0.188-0.514c0.092-0.077,0.203-0.11,0.385-0.11  c0.188,0,0.327,0.05,0.393,0.114c0.05,0.049,0.074,0.116,0.076,0.177c0,0.023,0.005,0.058,0.039,0.06  c0.037-0.003,0.043-0.038,0.045-0.065c0.002-0.041,0.002-0.153,0.007-0.22c0.006-0.07,0.01-0.094,0.01-0.112  c0.002-0.021-0.02-0.04-0.046-0.04c-0.062-0.008-0.13-0.022-0.21-0.034c-0.095-0.012-0.175-0.021-0.307-0.021  c-0.313,0-0.521,0.083-0.676,0.22c-0.205,0.184-0.251,0.426-0.251,0.566c0,0.198,0.056,0.435,0.268,0.61  c0.195,0.164,0.442,0.224,0.73,0.224c0.137,0,0.297-0.012,0.385-0.047c0.037-0.013,0.057-0.033,0.065-0.069  c0.021-0.072,0.045-0.245,0.046-0.273C20.747,41.465,20.738,41.437,20.707,41.434z M28.803,41.773c-0.018,0-0.05-0.002-0.076-0.011  c-0.043-0.015-0.072-0.032-0.105-0.075c-0.05-0.061-0.379-0.581-0.459-0.703l0.34-0.465c0.063-0.089,0.103-0.141,0.141-0.148  c0.028-0.007,0.053-0.011,0.072-0.011c0.025,0,0.049-0.014,0.05-0.039c-0.002-0.031-0.032-0.036-0.055-0.036  c-0.08,0-0.166,0.005-0.205,0.005c-0.04,0-0.138-0.005-0.22-0.005c-0.029,0-0.061,0.005-0.062,0.036  c0.001,0.028,0.026,0.039,0.043,0.039c0.018,0,0.044,0,0.062,0.006c0.018,0.004,0.023,0.015,0.023,0.018  c0,0.013-0.006,0.039-0.021,0.064c-0.032,0.053-0.195,0.293-0.269,0.399c-0.079-0.132-0.161-0.266-0.248-0.418  c-0.011-0.02-0.02-0.047-0.02-0.052c0-0.002,0.002-0.009,0.016-0.013c0.016-0.004,0.036-0.006,0.046-0.006  c0.021,0,0.049-0.01,0.05-0.039c-0.002-0.031-0.032-0.036-0.06-0.036c-0.079,0-0.208,0.005-0.236,0.005  c-0.1,0-0.268-0.005-0.318-0.005c-0.025,0.001-0.056,0.001-0.061,0.034c0,0.021,0.017,0.041,0.038,0.041  c0.02,0,0.051,0.004,0.083,0.014c0.069,0.022,0.107,0.062,0.16,0.142l0.362,0.564l-0.402,0.544  c-0.072,0.099-0.101,0.125-0.158,0.142c-0.027,0.007-0.059,0.009-0.071,0.009c-0.024,0.001-0.046,0.018-0.046,0.041  s0.024,0.036,0.049,0.036h0.035c0.034,0,0.138-0.008,0.177-0.008c0.052,0,0.188,0.008,0.203,0.008h0.038  c0.026,0,0.058-0.004,0.06-0.036c-0.002-0.025-0.021-0.039-0.043-0.041c-0.015,0-0.031-0.002-0.045-0.002  c-0.013,0-0.023-0.01-0.023-0.018c0-0.001,0-0.003,0-0.003c0-0.015,0.011-0.042,0.029-0.07l0.293-0.453  c0.092,0.149,0.201,0.332,0.316,0.52c0.004,0.007,0.005,0.012,0.005,0.014c0,0.005-0.002,0.005-0.002,0.005  c-0.022,0.005-0.041,0.021-0.041,0.043c0.006,0.036,0.038,0.034,0.09,0.038c0.172,0.005,0.339,0.005,0.389,0.005h0.062  c0.023,0,0.055-0.008,0.058-0.038C28.846,41.788,28.824,41.773,28.803,41.773z M30.581,41.773c-0.019,0-0.051-0.002-0.076-0.011  c-0.043-0.015-0.072-0.032-0.106-0.075c-0.049-0.061-0.379-0.581-0.46-0.703l0.341-0.465c0.064-0.089,0.104-0.141,0.142-0.148  c0.028-0.007,0.053-0.011,0.072-0.011c0.024,0,0.05-0.014,0.05-0.039c-0.001-0.031-0.032-0.036-0.056-0.036  c-0.078,0-0.164,0.005-0.204,0.005s-0.139-0.005-0.22-0.005c-0.028,0-0.061,0.005-0.062,0.036c0.001,0.028,0.025,0.039,0.043,0.039  c0.017,0,0.044,0,0.062,0.006c0.02,0.004,0.025,0.015,0.024,0.018c0,0.013-0.006,0.039-0.021,0.064  c-0.031,0.053-0.194,0.293-0.268,0.399c-0.079-0.133-0.161-0.266-0.248-0.418c-0.011-0.02-0.02-0.047-0.019-0.052  c0-0.002,0.001-0.008,0.016-0.013c0.015-0.004,0.036-0.006,0.046-0.006c0.021,0,0.049-0.01,0.05-0.039  c-0.002-0.031-0.033-0.036-0.06-0.036c-0.079,0-0.208,0.005-0.235,0.005c-0.1,0-0.269-0.005-0.318-0.005  c-0.025,0.001-0.056,0.001-0.061,0.034c0,0.021,0.017,0.041,0.038,0.041c0.02,0,0.052,0.004,0.083,0.014  c0.069,0.022,0.107,0.062,0.16,0.142l0.361,0.564l-0.401,0.544c-0.072,0.099-0.102,0.125-0.158,0.142  c-0.029,0.007-0.059,0.009-0.071,0.009c-0.024,0.001-0.045,0.018-0.046,0.041c0,0.023,0.024,0.036,0.048,0.036h0.036  c0.035,0,0.138-0.008,0.176-0.008c0.053,0,0.189,0.008,0.203,0.008h0.038c0.027,0,0.059-0.004,0.061-0.036  c-0.002-0.025-0.021-0.039-0.043-0.041c-0.016,0-0.031-0.002-0.045-0.002s-0.023-0.008-0.024-0.018c0-0.001,0-0.003,0-0.003  c0-0.015,0.01-0.042,0.029-0.07l0.292-0.453c0.092,0.149,0.201,0.332,0.316,0.52c0.004,0.007,0.005,0.012,0.005,0.014  c0,0.004-0.002,0.005-0.002,0.005c-0.021,0.005-0.041,0.021-0.041,0.043c0.007,0.036,0.038,0.034,0.091,0.038  c0.171,0.005,0.338,0.005,0.389,0.005h0.062c0.025,0,0.056-0.008,0.059-0.038C30.624,41.788,30.603,41.773,30.581,41.773z   M32.359,41.773c-0.018,0-0.05-0.002-0.075-0.011c-0.043-0.015-0.072-0.032-0.106-0.075c-0.049-0.061-0.379-0.581-0.459-0.703  l0.34-0.465c0.064-0.089,0.104-0.141,0.142-0.148c0.027-0.007,0.053-0.011,0.071-0.011c0.025,0,0.049-0.014,0.05-0.039  c-0.002-0.031-0.031-0.036-0.055-0.036c-0.079,0-0.166,0.005-0.205,0.005c-0.04,0-0.138-0.005-0.219-0.005  c-0.029,0-0.062,0.005-0.062,0.036c0.001,0.028,0.025,0.039,0.044,0.039c0.016,0,0.044,0,0.061,0.006  c0.019,0.004,0.025,0.015,0.024,0.018c0,0.013-0.007,0.039-0.022,0.064c-0.032,0.053-0.195,0.293-0.268,0.399  c-0.079-0.132-0.161-0.266-0.248-0.418c-0.012-0.02-0.021-0.047-0.021-0.052c0-0.002,0.002-0.009,0.017-0.013  s0.035-0.006,0.046-0.006c0.021,0,0.049-0.01,0.05-0.039c-0.002-0.031-0.033-0.036-0.061-0.036c-0.078,0-0.208,0.005-0.235,0.005  c-0.1,0-0.269-0.005-0.318-0.005c-0.026,0.001-0.056,0.001-0.06,0.034c0,0.021,0.017,0.041,0.038,0.041  c0.019,0,0.052,0.004,0.083,0.014c0.068,0.022,0.106,0.062,0.158,0.142l0.363,0.564l-0.402,0.544  c-0.071,0.099-0.101,0.125-0.156,0.142c-0.029,0.007-0.06,0.009-0.072,0.009c-0.024,0.001-0.045,0.018-0.045,0.041  s0.023,0.036,0.047,0.036h0.036c0.035,0,0.137-0.008,0.176-0.008c0.052,0,0.189,0.008,0.202,0.008h0.038  c0.026,0,0.058-0.004,0.06-0.036c-0.002-0.025-0.021-0.039-0.043-0.041c-0.016,0-0.032-0.002-0.045-0.002s-0.022-0.008-0.023-0.018  v-0.003c0-0.015,0.01-0.042,0.027-0.07l0.293-0.453c0.093,0.149,0.201,0.332,0.316,0.52c0.004,0.007,0.005,0.012,0.005,0.014  c0,0.004-0.002,0.005-0.002,0.005c-0.022,0.005-0.041,0.021-0.041,0.043c0.006,0.036,0.038,0.033,0.09,0.038  c0.172,0.005,0.339,0.005,0.389,0.005h0.062c0.025,0,0.055-0.008,0.058-0.038C32.401,41.788,32.38,41.773,32.359,41.773z   M33.453,41.773c-0.03,0-0.078-0.002-0.104-0.007c-0.056-0.012-0.06-0.026-0.069-0.08c-0.009-0.084-0.009-0.246-0.009-0.44v-0.356  c0-0.309,0-0.364,0.004-0.429c0.008-0.069,0.016-0.083,0.064-0.094c0.023-0.005,0.039-0.007,0.059-0.007  c0.021,0,0.052-0.012,0.052-0.041c-0.006-0.033-0.035-0.033-0.062-0.034c-0.081,0-0.217,0.005-0.269,0.005  c-0.06,0-0.202-0.005-0.281-0.005c-0.032,0.001-0.062,0-0.067,0.034c0,0.029,0.029,0.041,0.051,0.041  c0.025,0,0.051,0.002,0.071,0.009c0.04,0.015,0.053,0.025,0.061,0.092c0.002,0.063,0.002,0.12,0.002,0.429v0.356  c0,0.194,0,0.356-0.011,0.438c-0.009,0.06-0.015,0.073-0.049,0.083c-0.017,0.004-0.04,0.006-0.069,0.006  c-0.031,0-0.052,0.02-0.052,0.039c0.001,0.029,0.031,0.038,0.059,0.038c0.084,0,0.227-0.008,0.272-0.008  c0.057,0,0.2,0.008,0.338,0.008c0.025,0,0.056-0.008,0.059-0.038C33.504,41.791,33.482,41.773,33.453,41.773z M34.724,41.773  c-0.03,0-0.078-0.002-0.104-0.007c-0.057-0.012-0.061-0.026-0.069-0.08c-0.01-0.084-0.01-0.246-0.01-0.44v-0.356  c0-0.309,0-0.364,0.005-0.429c0.007-0.069,0.014-0.083,0.063-0.094c0.024-0.005,0.039-0.007,0.06-0.007s0.05-0.012,0.05-0.041  c-0.005-0.033-0.034-0.033-0.06-0.034c-0.082,0-0.219,0.005-0.271,0.005c-0.059,0-0.202-0.005-0.281-0.005  c-0.031,0.001-0.062,0-0.066,0.034c0,0.029,0.028,0.041,0.05,0.041c0.025,0,0.05,0.002,0.071,0.009  c0.04,0.015,0.052,0.025,0.059,0.092c0.003,0.063,0.003,0.12,0.003,0.429v0.356c0,0.194,0,0.356-0.01,0.438  c-0.009,0.06-0.015,0.073-0.049,0.083c-0.019,0.004-0.04,0.006-0.07,0.006c-0.031,0-0.05,0.02-0.05,0.039  c0.001,0.029,0.03,0.038,0.057,0.038c0.084,0,0.228-0.008,0.274-0.008c0.056,0,0.2,0.008,0.338,0.008  c0.024,0,0.055-0.008,0.058-0.038C34.774,41.791,34.753,41.773,34.724,41.773z M35.995,41.773c-0.03,0-0.077-0.002-0.104-0.007  c-0.056-0.012-0.06-0.026-0.069-0.08c-0.01-0.084-0.01-0.246-0.01-0.44v-0.356c0-0.309,0-0.364,0.005-0.429  c0.008-0.069,0.015-0.083,0.064-0.094c0.023-0.005,0.039-0.007,0.059-0.007c0.021,0,0.051-0.012,0.051-0.041  c-0.006-0.033-0.035-0.033-0.061-0.034c-0.081,0-0.217,0.005-0.269,0.005c-0.06,0-0.202-0.005-0.281-0.005  c-0.032,0.001-0.062,0-0.067,0.034c0,0.029,0.029,0.041,0.05,0.041c0.025,0,0.051,0.002,0.071,0.009  c0.041,0.015,0.053,0.025,0.061,0.092c0.002,0.063,0.002,0.12,0.002,0.429v0.356c0,0.194,0,0.356-0.01,0.438  c-0.009,0.06-0.015,0.073-0.049,0.083c-0.018,0.004-0.04,0.006-0.069,0.006c-0.031,0-0.051,0.02-0.051,0.039  c0.001,0.029,0.031,0.038,0.059,0.038c0.084,0,0.227-0.008,0.273-0.008c0.057,0,0.2,0.008,0.338,0.008  c0.024,0,0.056-0.008,0.058-0.038C36.045,41.79,36.024,41.773,35.995,41.773z M23.406,31.974v-1.188c0-0.222-0.18-0.402-0.401-0.402  s-0.403,0.182-0.403,0.402v1.188H23.406z M25.583,31.974v-1.188c0-0.222-0.181-0.402-0.402-0.402c-0.223,0-0.403,0.182-0.403,0.402  v1.188H25.583z M24.092,8.076c-0.233,0-0.422,0.189-0.422,0.422c0,0.233,0.188,0.422,0.422,0.422s0.422-0.188,0.422-0.422  C24.514,8.265,24.325,8.076,24.092,8.076z M23.879,19.853h0.425v-0.915h-0.425V19.853L23.879,19.853z M19.84,42.941  c-0.233,0-0.422,0.188-0.422,0.422s0.188,0.422,0.422,0.422s0.422-0.188,0.422-0.422S20.073,42.941,19.84,42.941z M19.584,19.869  v-1.345c-0.003-0.315-0.158-0.533-0.391-0.635c-0.23,0.102-0.386,0.319-0.389,0.636v1.344H19.584z M19.584,15.548V14.68  c-0.003-0.315-0.158-0.534-0.391-0.637c-0.23,0.104-0.386,0.321-0.389,0.637v0.867H19.584z M19.402,24.539v-1.127  c0-0.116-0.093-0.209-0.209-0.209c-0.115,0-0.209,0.093-0.209,0.209v1.127H19.402z M19.402,27.931v-1.126  c0-0.116-0.093-0.211-0.209-0.211c-0.115,0-0.209,0.095-0.209,0.211v1.126H19.402z M19.525,31.721v-1  c0-0.188-0.15-0.339-0.338-0.339c-0.187,0-0.338,0.151-0.338,0.339v1H19.525z M19.194,3.409c-0.232,0-0.422,0.189-0.422,0.422  c0,0.233,0.189,0.422,0.422,0.422c0.233,0,0.423-0.188,0.423-0.422C19.616,3.598,19.427,3.409,19.194,3.409z M29.375,19.869v-1.345  c-0.002-0.315-0.158-0.533-0.39-0.635c-0.23,0.102-0.387,0.319-0.389,0.636v1.344H29.375z M29.375,15.548V14.68  c-0.002-0.315-0.158-0.534-0.39-0.637c-0.23,0.104-0.387,0.321-0.389,0.637v0.867H29.375z M29.194,24.539v-1.127  c0-0.116-0.094-0.209-0.209-0.209c-0.114,0-0.209,0.093-0.209,0.209v1.127H29.194z M29.194,27.931v-1.126  c0-0.116-0.094-0.211-0.209-0.211c-0.114,0-0.209,0.095-0.209,0.211v1.126H29.194z M29.317,31.721v-1  c0-0.188-0.15-0.339-0.338-0.339c-0.187,0-0.338,0.151-0.338,0.339v1H29.317z M28.985,3.409c-0.232,0-0.422,0.189-0.422,0.422  c0,0.233,0.189,0.422,0.422,0.422c0.233,0,0.423-0.188,0.423-0.422C29.408,3.598,29.219,3.409,28.985,3.409z M98.869,16.008  c0,0.307-0.02,0.667-0.072,1.045h-5.551c-0.019,1.677,0.811,2.486,2.469,2.486c0.883,0,1.838-0.198,2.613-0.559l0.216,1.784  c-0.955,0.378-2.09,0.576-3.207,0.576c-2.849,0-4.434-1.423-4.434-4.576c0-2.739,1.515-4.758,4.198-4.758 M95.03,13.702  c-0.954,0-1.621,0.703-1.747,1.784h3.298C96.616,14.368,96.004,13.702,95.03,13.702z M115.861,11.052  c-0.793,0-1.424-0.631-1.424-1.405c0-0.757,0.631-1.389,1.424-1.389s1.441,0.613,1.441,1.389  C117.302,10.422,116.654,11.052,115.861,11.052z M114.708,21.162v-8.956h2.307v8.956H114.708z M122.851,21.342  c-1.981,0-2.613-0.721-2.613-2.811V13.99h-1.53v-1.784h1.53V9.449l2.308-0.613v3.37h2.181v1.784h-2.181v3.928  c0,1.153,0.271,1.479,1.062,1.479c0.378,0,0.793-0.055,1.117-0.145v1.856C124.147,21.252,123.481,21.342,122.851,21.342z M0,24.091  C0,10.786,10.786,0,24.091,0l0,0c13.305,0,24.091,10.786,24.091,24.091l0,0c0,13.306-10.786,24.092-24.091,24.092l0,0  C10.786,48.182,0,37.396,0,24.091L0,24.091z M7.477,7.477C3.225,11.73,0.595,17.602,0.595,24.091l0,0  c0,6.489,2.629,12.361,6.882,16.614l0,0c4.253,4.252,10.125,6.881,16.614,6.881l0,0c6.489,0,12.361-2.629,16.614-6.881l0,0  c4.252-4.253,6.882-10.125,6.882-16.614l0,0c0-6.488-2.629-12.36-6.882-16.613l0,0C36.452,3.224,30.58,0.594,24.091,0.594l0,0  C17.602,0.594,11.73,3.224,7.477,7.477L7.477,7.477z M24.456,39.232h0.193v-0.34h-0.462v0.753h0.27L24.456,39.232z M24.091,1.568  c-12.437,0-22.516,10.081-22.516,22.516c0,12.437,10.08,22.518,22.516,22.518c12.435,0,22.515-10.081,22.516-22.518  C46.606,11.649,36.526,1.568,24.091,1.568z M21.598,43.19h-1.02v0.34h1.02v2.53c-5.112-0.573-9.696-2.889-13.146-6.338  c-0.495-0.495-0.968-1.015-1.414-1.555c0.091-0.549,0.564-0.967,1.14-0.967c0.639,0,1.156,0.518,1.156,1.156v1.11h1.468v-0.007l0,0  v-1.104c0-0.64,0.518-1.156,1.156-1.156c0.638,0,1.157,0.518,1.157,1.156v1.11h1.468v-0.007l0,0v-1.104  c0-0.64,0.518-1.156,1.155-1.156c0.639,0,1.157,0.518,1.157,1.156v1.11h1.468v-0.007l0,0v-1.104c0-0.64,0.519-1.156,1.157-1.156  c0.64,0,1.156,0.518,1.156,1.156v1.11h0.921V43.19z M25.794,46.135c-0.562,0.044-1.13,0.065-1.703,0.065  c-0.572,0-1.14-0.021-1.701-0.063l-0.418-2.606h0.482c-0.12-0.286-0.329-0.786-0.409-0.989c-0.13-0.326-0.033-0.542,0.184-0.626  c0.211-0.082,0.449,0.034,0.524,0.312l0.211,0.792h0.308v0.511l0,0v0.102h-0.728v0.341h1.065l0.001-0.441h1.293l-0.001-0.511h0.311  l0.213-0.792c0.075-0.278,0.315-0.396,0.528-0.312c0.218,0.084,0.314,0.3,0.185,0.626c-0.035,0.089-0.092,0.235-0.154,0.396  l-0.288,0.695H24.92v0.341h1.005l0.183-0.441h0.105L25.794,46.135z M23.391,38.684h1.401c0.054,0.129,0.188,0.454,0.27,0.643  c0.058,0.131,0.13,0.271,0.041,0.416c-0.105,0.171-0.245,0.146-0.342,0.139c-0.005-0.001-0.011,0-0.017-0.001  c-0.099,0.269-0.353,0.459-0.653,0.459s-0.555-0.19-0.653-0.459c-0.005,0.001-0.012,0-0.017,0.001  c-0.098,0.009-0.236,0.032-0.342-0.139c-0.089-0.145-0.017-0.285,0.041-0.416C23.204,39.138,23.337,38.812,23.391,38.684z   M23.18,37.23l0.448,0.641l0.458-0.869l0.458,0.869l0.448-0.641l-0.179,1.111h-1.456L23.18,37.23z M23.715,40.376  c0.104,0.293,0.384,0.504,0.714,0.504c0.357,0,0.655-0.247,0.737-0.58c0.221,0.012,0.441,0.075,0.661,0.261  c0.211,0.177,0.293,0.48,0.322,0.632h-4.115c0.028-0.15,0.111-0.455,0.322-0.632C22.808,40.181,23.268,40.305,23.715,40.376z   M25.414,41.532c-0.155,0.586-0.688,1.019-1.322,1.019s-1.167-0.433-1.322-1.019H25.414z M39.729,39.723  c-3.45,3.449-8.033,5.764-13.144,6.337v-2.53h0.934c1.732,0,2.984-0.146,2.984-0.146s-1.289-0.194-2.984-0.194h-0.934v-3.721h1.117  v-0.007l0,0v-1.104c0-0.64,0.518-1.156,1.156-1.156c0.64,0,1.157,0.519,1.157,1.156v1.11h1.467v-0.007l0,0v-1.104  c0-0.64,0.519-1.156,1.156-1.156s1.156,0.519,1.156,1.156v1.11h1.468v-0.007l0,0v-1.104c0-0.64,0.518-1.156,1.157-1.156  c0.639,0,1.156,0.519,1.156,1.156v1.11h1.468v-0.007l0,0v-1.104c0-0.64,0.518-1.156,1.157-1.156c0.506,0,0.936,0.326,1.092,0.78  C40.803,38.589,40.281,39.171,39.729,39.723z M41.541,37.673c-0.257-0.541-0.809-0.916-1.446-0.916  c-0.884,0-1.601,0.718-1.601,1.603v0.517h-0.579v-0.517c0-0.885-0.717-1.603-1.602-1.603c-0.884,0-1.601,0.718-1.601,1.603v0.517  h-0.58v-0.517c0-0.885-0.717-1.603-1.601-1.603c-0.885,0-1.602,0.718-1.602,1.603v0.517h-0.58v-0.517  c0-0.885-0.717-1.603-1.601-1.603s-1.602,0.718-1.602,1.603v0.517h-0.597c-0.182-1.198-1.213-2.118-2.462-2.118  s-2.28,0.92-2.462,2.118h-0.615v-0.517c0-0.885-0.717-1.603-1.601-1.603c-0.885,0-1.602,0.718-1.602,1.603v0.517h-0.58v-0.517  c0-0.885-0.716-1.603-1.601-1.603c-0.884,0-1.602,0.718-1.602,1.603v0.517h-0.579v-0.517c0-0.885-0.718-1.603-1.602-1.603  s-1.601,0.718-1.601,1.603v0.517H9.672v-0.517c0-0.885-0.717-1.603-1.602-1.603c-0.634,0-1.181,0.369-1.439,0.903  c-0.39-0.501-0.758-1.02-1.104-1.554h37.129C42.306,36.645,41.935,37.168,41.541,37.673z M43.027,35.515H5.155  c-0.109-0.183-0.217-0.366-0.321-0.553h38.516C43.243,35.148,43.137,35.333,43.027,35.515z M20.275,7.089v0.187  C20.27,7.313,20.26,7.368,20.241,7.42c-0.032,0.085-0.111,0.221-0.218,0.386c-0.04,0.064-0.109,0.174-0.188,0.33  C19.735,7.982,19.65,7.88,19.59,7.817c-0.067-0.07-0.155-0.16-0.229-0.246c-0.156-0.187-0.166-0.298-0.166-0.298l0,0  c0,0-0.005,0.11-0.162,0.297c-0.073,0.085-0.161,0.175-0.229,0.246c-0.061,0.063-0.146,0.167-0.25,0.325  c-0.08-0.161-0.151-0.272-0.192-0.341c-0.104-0.165-0.185-0.3-0.217-0.385c-0.029-0.081-0.041-0.174-0.042-0.184V7.089H20.275z   M18.109,6.749c0.018-0.277,0.093-0.805,0.362-1.164c0.205-0.278,0.408-0.443,0.557-0.54C19.096,5,19.151,4.973,19.19,4.954  c0.04,0.02,0.096,0.046,0.164,0.091c0.148,0.097,0.353,0.262,0.558,0.54c0.27,0.359,0.345,0.887,0.361,1.164H18.109z M20.354,7.988  c0.062,0.085,0.125,0.209,0.195,0.359c0.095,0.233,0.121,0.462,0.124,0.63v2.492h-0.643c0-0.548,0-1.756,0-2.491  c0.003-0.171,0.033-0.409,0.124-0.632C20.234,8.17,20.296,8.07,20.354,7.988z M19.682,8.994l-0.001,2.476h-0.973  c0-0.689-0.001-2.477-0.001-2.478c0.008-0.162,0.021-0.386,0.137-0.617c0.123-0.242,0.354-0.386,0.354-0.386h0.001  c0,0,0.219,0.144,0.342,0.386C19.664,8.618,19.675,8.828,19.682,8.994z M18.245,8.343c0.091,0.224,0.105,0.465,0.108,0.636  l0.003,2.491h-0.634V8.975c0.003-0.168,0.022-0.396,0.117-0.631c0.07-0.149,0.137-0.273,0.195-0.358  C18.106,8.091,18.175,8.193,18.245,8.343z M21.164,11.877v0.807h-3.942v-0.807H21.164z M21.164,13.022v3.141H20.21V14.75  c0.001-0.469-0.173-0.866-0.459-1.138c-0.154-0.147-0.338-0.258-0.542-0.328c-0.014-0.004-0.013-0.005-0.013-0.005  s-0.002,0-0.015,0.005c-0.204,0.07-0.389,0.181-0.543,0.328c-0.286,0.271-0.459,0.669-0.458,1.138v1.414h-0.958v-3.141  L21.164,13.022L21.164,13.022z M19.87,14.75v1.414H18.52V14.75c0.005-0.546,0.273-0.925,0.675-1.103  C19.596,13.824,19.865,14.203,19.87,14.75z M21.164,16.503v3.995h-0.876v-1.995c0-0.468-0.177-0.875-0.471-1.155  c-0.156-0.15-0.344-0.263-0.55-0.333c-0.01-0.005-0.074-0.024-0.074-0.024s-0.061,0.02-0.066,0.022  c-0.207,0.07-0.396,0.185-0.556,0.335c-0.294,0.279-0.471,0.688-0.47,1.154v1.995h-0.88v-3.995L21.164,16.503L21.164,16.503z   M19.948,18.506v1.992h-1.508v-1.995c0-0.384,0.142-0.694,0.364-0.909c0.111-0.105,0.242-0.185,0.389-0.241h0.001  c0.148,0.058,0.276,0.136,0.388,0.24c0.225,0.215,0.363,0.525,0.364,0.91L19.948,18.506z M21.164,20.838v4.755h-3.942v-4.755H21.164  z M21.164,25.933v3.103h-3.942v-3.103H21.164z M21.164,29.375v5.247h-3.942v-5.247H21.164z M24.634,16.538v1.416l-0.542-0.542  l-0.541,0.541v-1.415H24.634z M23.566,16.13l0.396-1.694l0.163-2.835l0.097,2.833l0.396,1.696H23.566z M24.092,17.988l2.51,2.51  h-5.02L24.092,17.988z M26.603,20.838v1.921h-5.037v-1.921H26.603z M26.603,23.354v2.238h-1.575v-0.561  c0-0.516-0.419-0.938-0.937-0.938c-0.517,0-0.938,0.421-0.938,0.938v0.561h-1.589v-2.238H26.603z M23.155,25.933v1.998h1.873v-1.998  h1.575v3.103h-5.037v-3.103H23.155z M26.603,29.375v5.247h-5.037v-5.247H26.603z M30.067,7.089v0.187  c-0.005,0.038-0.016,0.093-0.034,0.145C30,7.505,29.921,7.64,29.815,7.805c-0.04,0.064-0.109,0.174-0.188,0.33  c-0.102-0.153-0.187-0.256-0.246-0.318c-0.066-0.07-0.155-0.16-0.229-0.246c-0.157-0.187-0.166-0.298-0.166-0.298l0,0  c0,0-0.005,0.11-0.162,0.297c-0.073,0.085-0.161,0.175-0.229,0.246c-0.061,0.063-0.146,0.167-0.25,0.325  c-0.08-0.161-0.151-0.272-0.192-0.341c-0.104-0.165-0.185-0.3-0.217-0.385c-0.031-0.082-0.041-0.177-0.042-0.185V7.089H30.067z   M27.901,6.749c0.018-0.277,0.093-0.805,0.362-1.164c0.205-0.278,0.408-0.443,0.557-0.54C28.888,5,28.942,4.973,28.982,4.954  c0.04,0.02,0.096,0.046,0.163,0.091c0.148,0.097,0.353,0.262,0.558,0.54c0.27,0.359,0.345,0.887,0.361,1.164H27.901z M30.146,7.988  c0.062,0.085,0.125,0.209,0.194,0.359c0.095,0.233,0.121,0.462,0.124,0.63v2.492h-0.643c0-0.548,0-1.756,0-2.491  c0.004-0.171,0.033-0.409,0.125-0.632C30.025,8.17,30.088,8.07,30.146,7.988z M29.473,8.994l-0.001,2.476H28.5  c0-0.689-0.001-2.477-0.001-2.478c0.008-0.162,0.02-0.386,0.137-0.617c0.123-0.242,0.354-0.386,0.354-0.386h0.001  c0,0,0.219,0.144,0.342,0.386C29.455,8.618,29.466,8.828,29.473,8.994z M28.036,8.343c0.091,0.224,0.105,0.465,0.108,0.636  l0.003,2.491h-0.635V8.975c0.004-0.168,0.022-0.396,0.117-0.631c0.07-0.149,0.137-0.273,0.194-0.358  C27.898,8.091,27.966,8.193,28.036,8.343z M30.956,11.877v0.807h-3.942v-0.807H30.956z M30.956,13.022v3.141h-0.954V14.75  c0-0.469-0.173-0.866-0.459-1.138c-0.154-0.147-0.339-0.258-0.543-0.328c-0.014-0.004-0.013-0.005-0.013-0.005s-0.002,0-0.015,0.005  c-0.204,0.07-0.389,0.181-0.543,0.328c-0.286,0.271-0.459,0.669-0.459,1.138v1.414h-0.958v-3.141L30.956,13.022L30.956,13.022z   M29.662,14.75v1.414h-1.352V14.75c0.005-0.546,0.273-0.925,0.675-1.103C29.388,13.824,29.657,14.203,29.662,14.75z M30.956,16.503  v3.995H30.08v-1.995c0-0.468-0.177-0.875-0.471-1.155c-0.156-0.15-0.344-0.263-0.55-0.333c-0.009-0.005-0.074-0.024-0.074-0.024  s-0.061,0.02-0.067,0.022c-0.207,0.07-0.396,0.185-0.556,0.335c-0.294,0.279-0.47,0.688-0.47,1.154v1.995h-0.88v-3.995  L30.956,16.503L30.956,16.503z M29.74,18.506v1.992h-1.507v-1.995c0-0.384,0.142-0.694,0.364-0.909  c0.111-0.105,0.242-0.185,0.388-0.241h0.001c0.148,0.058,0.277,0.136,0.389,0.24c0.224,0.215,0.363,0.525,0.365,0.91V18.506z   M30.956,20.838v4.755h-3.942v-4.755H30.956z M30.956,25.933v3.103h-3.942v-3.103H30.956z M30.956,29.375v5.247h-3.942v-5.247  H30.956z M31.562,34.622V11.469h-0.497V8.917c-0.005-0.317-0.051-0.519-0.19-0.844c-0.036-0.082-0.087-0.172-0.146-0.262V6.889  c0,0-0.001-0.725-0.3-1.27c-0.325-0.595-0.956-0.92-1.263-1.049c-0.071-0.033-0.117-0.048-0.126-0.05l-0.052-0.019l-0.062,0.019  c-0.031,0.009-0.53,0.167-1.004,0.812c-0.43,0.593-0.445,1.354-0.449,1.563c0,0.034,0.001,0.054,0.001,0.057v0.851  c-0.057,0.084-0.137,0.211-0.225,0.398c-0.132,0.324-0.142,0.624-0.146,0.804v2.465h-0.5v8.452l-1.368-1.367v-2.413l-0.464-1.558  l-0.679-5.341l0,0l-0.501,5.117l-0.466,1.782v2.234l-1.355,1.355v-8.265h-0.497V8.917c-0.005-0.317-0.051-0.519-0.191-0.844  c-0.035-0.082-0.087-0.172-0.145-0.262V6.889c0,0-0.001-0.725-0.3-1.27c-0.326-0.595-0.957-0.92-1.263-1.049  c-0.071-0.033-0.117-0.048-0.126-0.05l-0.052-0.019l-0.062,0.019c-0.032,0.009-0.53,0.167-1.005,0.812  c-0.43,0.593-0.445,1.354-0.449,1.563c0,0.034,0,0.054,0,0.057v0.851c-0.057,0.084-0.137,0.211-0.225,0.398  c-0.131,0.324-0.142,0.624-0.146,0.804v2.465h-0.5v23.151H4.646c-1.702-3.133-2.672-6.721-2.672-10.538  c0-6.106,2.476-11.635,6.478-15.639c4.003-4.002,9.53-6.479,15.639-6.479s11.636,2.476,15.639,6.479  c4.002,4.003,6.479,9.531,6.479,15.639c0,3.817-0.971,7.405-2.672,10.538L31.562,34.622L31.562,34.622z"/>
</svg>