<?xml version="1.0" encoding="utf-8"?>
<svg viewBox="394.2601623535156 152.5980987548828 94.54998779296875 100.63999938964844" width="94.54998779296875" height="100.63999938964844" xmlns="http://www.w3.org/2000/svg">
  <defs>
    <style>.cls-1,.cls-15{fill:#eccbbd;}.cls-1,.cls-10,.cls-11,.cls-12,.cls-13,.cls-14,.cls-17,.cls-18,.cls-19,.cls-20,.cls-21,.cls-22,.cls-23,.cls-24,.cls-25,.cls-28,.cls-29,.cls-3,.cls-30,.cls-31,.cls-32,.cls-6,.cls-7,.cls-8{stroke:#ae5536;}.cls-1,.cls-10,.cls-11,.cls-12,.cls-13,.cls-14,.cls-17,.cls-18,.cls-20,.cls-21,.cls-22,.cls-23,.cls-24,.cls-25,.cls-28,.cls-29,.cls-3,.cls-30,.cls-31,.cls-32,.cls-33,.cls-6,.cls-7,.cls-8{stroke-linecap:round;}.cls-1,.cls-10,.cls-11,.cls-12,.cls-13,.cls-14,.cls-17,.cls-18,.cls-19,.cls-20,.cls-21,.cls-22,.cls-23,.cls-24,.cls-25,.cls-28,.cls-29,.cls-3,.cls-30,.cls-31,.cls-32,.cls-33,.cls-6,.cls-8{stroke-linejoin:round;}.cls-1,.cls-10,.cls-12,.cls-13,.cls-14,.cls-18,.cls-19,.cls-20,.cls-25,.cls-3,.cls-30,.cls-31,.cls-32,.cls-6,.cls-8{stroke-width:2px;}.cls-11,.cls-18,.cls-2,.cls-7{fill:none;}.cls-17,.cls-3,.cls-9{fill:#fff;}.cls-4{fill:#e5f3ea;}.cls-5{fill:#faf1ce;}.cls-6{fill:#f0f7f9;}.cls-7{stroke-miterlimit:10;}.cls-8{fill:#f6e6a7;}.cls-10{fill:#e3ecc1;}.cls-12{fill:#d5a696;}.cls-13{fill:#f4e297;}.cls-14{fill:#f8eec2;}.cls-16{clip-path:url(#clip-path);}.cls-19{fill:#f3e0d8;}.cls-20{fill:#e0eef2;}.cls-21{fill:#d4e9ed;}.cls-22{fill:#efd4c9;}.cls-23{fill:#e0eabb;}.cls-24{fill:#f8ecba;}.cls-25{fill:#f1d9d0;}.cls-26{clip-path:url(#clip-path-2);}.cls-27{clip-path:url(#clip-path-3);}.cls-28{fill:#cae3e9;}.cls-29{fill:#ebf4f7;}.cls-30{fill:#ebd4cd;}.cls-31{fill:#b5d8e1;}.cls-32{fill:#e3b4a1;}.cls-33{fill:#b6d391;stroke:#5e7658;}.cls-34,.cls-35{font-size:14px;font-family:Arial-BoldMT, Arial;font-weight:700;}.cls-35{fill:#5e7658;}</style>
  </defs>
  <circle class="cls-5" cx="154.24" cy="706.92" r="45" transform="matrix(0.9999999999999999, 0, 0, 0.9999999999999999, 285.02017211914057, -498.68188476562494)"/>
  <circle class="cls-20" cx="167.1" cy="687.97" r="36.69" transform="matrix(0.9999999999999999, 0, 0, 0.9999999999999999, 285.02017211914057, -498.68188476562494)"/>
  <circle class="cls-21" cx="167.1" cy="687.97" r="31.43" transform="matrix(0.9999999999999999, 0, 0, 0.9999999999999999, 285.02017211914057, -498.68188476562494)"/>
  <circle class="cls-22" cx="167.1" cy="687.97" r="11.03" transform="matrix(0.9999999999999999, 0, 0, 0.9999999999999999, 285.02017211914057, -498.68188476562494)"/>
  <path class="cls-11" d="M157.49,676.95a14.6,14.6,0,0,0-5,11q0,.62.05,1.22" transform="matrix(0.9999999999999999, 0, 0, 0.9999999999999999, 285.02017211914057, -498.68188476562494)"/>
  <path class="cls-11" d="M169.61,702.39a14.63,14.63,0,0,0,9.39-5.9" transform="matrix(0.9999999999999999, 0, 0, 0.9999999999999999, 285.02017211914057, -498.68188476562494)"/>
  <path class="cls-11" d="M158.89,670.64a19.18,19.18,0,0,0-11,17.33q0,.32,0,.63" transform="matrix(0.9999999999999999, 0, 0, 0.9999999999999999, 285.02017211914057, -498.68188476562494)"/>
  <path class="cls-11" d="M165.81,707.11q.64,0,1.29,0a19.09,19.09,0,0,0,10.15-2.9" transform="matrix(0.9999999999999999, 0, 0, 0.9999999999999999, 285.02017211914057, -498.68188476562494)"/>
  <path class="cls-11" d="M151,670.14a24,24,0,0,0-7.25,12.15" transform="matrix(0.9999999999999999, 0, 0, 0.9999999999999999, 285.02017211914057, -498.68188476562494)"/>
  <polyline class="cls-11" points="153.62 682.29 156.94 683.69 156.94 683.7" transform="matrix(0.9999999999999999, 0, 0, 0.9999999999999999, 285.02017211914057, -498.68188476562494)"/>
  <line class="cls-11" x1="174.83" y1="700.7" x2="172.82" y2="697.39" transform="matrix(0.9999999999999999, 0, 0, 0.9999999999999999, 285.02017211914057, -498.68188476562494)"/>
  <circle class="cls-23" cx="167.1" cy="667.21" r="3.43" transform="matrix(0.9999999999999999, 0, 0, 0.9999999999999999, 285.02017211914057, -498.68188476562494)"/>
  <circle class="cls-23" cx="158.89" cy="663.79" r="1.42" transform="matrix(0.9999999999999999, 0, 0, 0.9999999999999999, 285.02017211914057, -498.68188476562494)"/>
  <circle class="cls-11" cx="161.73" cy="712.16" r="1.42" transform="matrix(0.9999999999999999, 0, 0, 0.9999999999999999, 285.02017211914057, -498.68188476562494)"/>
  <rect class="cls-24" x="183.1" y="686.19" width="7.89" height="13.94" rx="3.94" ry="3.94" transform="matrix(0.9800000190734862, 0.21000002324581146, -0.21000002324581146, 0.9800000190734862, 432.75015258789057, -522.4019165039062)"/>
  <path class="cls-11" d="M 470.173 193.11 C 470.173 193.11 467.503 192.8 466.683 195.031" transform="matrix(0.9999999999999999, 0, 0, 0.9999999999999999, 0, 0)"/>
  <path class="cls-11" d="M 470.857 198.423 C 470.857 198.423 473.517 198.833 474.417 196.643" transform="matrix(0.9999999999999999, 0, 0, 0.9999999999999999, 0, 0)"/>
  <rect class="cls-24" x="148.53" y="695.19" width="7.89" height="13.94" rx="3.94" ry="3.94" transform="matrix(-0.6164863109588623, 0.7873656153678894, -0.7873656153678894, -0.6164863109588623, 1084.3201904296873, 516.3381347656249)"/>
  <path class="cls-11" d="M154.74,702.76s1.45-2.27-.18-4" transform="matrix(0.9999999999999999, 0, 0, 0.9999999999999999, 285.02017211914057, -498.68188476562494)"/>
  <path class="cls-11" d="M150.11,701.44s-1.54,2.21,0,4" transform="matrix(0.9999999999999999, 0, 0, 0.9999999999999999, 285.02017211914057, -498.68188476562494)"/>
  <rect class="cls-24" x="177.79" y="666.78" width="7.89" height="13.94" rx="3.94" ry="3.94" transform="matrix(0.73171067237854, -0.6816153526306152, 0.6816153526306152, 0.73171067237854, -125.4398193359375, -194.08189392089844)"/>
  <path class="cls-11" d="M179.58,672.8s-1.79,2-.44,4" transform="matrix(0.9999999999999999, 0, 0, 0.9999999999999999, 285.02017211914057, -498.68188476562494)"/>
  <path class="cls-11" d="M183.94,674.83s1.86-1.94.59-3.94" transform="matrix(0.9999999999999999, 0, 0, 0.9999999999999999, 285.02017211914057, -498.68188476562494)"/>
  <text class="cls-34" transform="matrix(0.9999999999999999, 0, 0, 0.9999999999999999, 422.16015624999994, 244.1180877685547)" style="white-space: pre;">Cells</text>
</svg>