<?xml version="1.0" encoding="iso-8859-1"?>
<!-- Generator: Adobe Illustrator 19.0.0, SVG Export Plug-In . SVG Version: 6.00 Build 0)  -->
<svg version="1.1" id="Layer_1" xmlns="http://www.w3.org/2000/svg" xmlns:xlink="http://www.w3.org/1999/xlink" x="0px" y="0px"
	 viewBox="0 0 496.158 496.158" style="enable-background:new 0 0 496.158 496.158;" xml:space="preserve">
<path style="fill:#337180;" d="M248.081,0.003C111.07,0.003,0,111.063,0,248.085c0,137.001,111.07,248.07,248.081,248.07
	c137.007,0,248.077-111.069,248.077-248.07C496.158,111.062,385.088,0.003,248.081,0.003z"/>
<g>
	<circle style="fill:#F2DE7C;" cx="327.439" cy="285.179" r="25.909"/>
	<circle style="fill:#F2DE7C;" cx="335.129" cy="246.729" r="25.909"/>
	<circle style="fill:#F2DE7C;" cx="360.259" cy="273.299" r="21.603"/>
	<circle style="fill:#F2DE7C;" cx="368.919" cy="245.959" r="21.604"/>
	<circle style="fill:#F2DE7C;" cx="295.439" cy="315.179" r="25.909"/>
	<circle style="fill:#F2DE7C;" cx="303.129" cy="276.729" r="25.909"/>
	<circle style="fill:#F2DE7C;" cx="328.259" cy="298.629" r="21.603"/>
	<circle style="fill:#F2DE7C;" cx="354.099" cy="304.699" r="25.909"/>
	<circle style="fill:#F2DE7C;" cx="357.589" cy="344.229" r="25.908"/>
	<circle style="fill:#F2DE7C;" cx="319.769" cy="324.679" r="21.603"/>
	<circle style="fill:#F2DE7C;" cx="169.119" cy="285.179" r="25.909"/>
	<circle style="fill:#F2DE7C;" cx="161.429" cy="246.729" r="25.909"/>
	<circle style="fill:#F2DE7C;" cx="136.299" cy="273.299" r="21.603"/>
	<circle style="fill:#F2DE7C;" cx="127.639" cy="245.959" r="21.603"/>
	<circle style="fill:#F2DE7C;" cx="201.119" cy="315.179" r="25.909"/>
	<circle style="fill:#F2DE7C;" cx="193.429" cy="276.729" r="25.909"/>
	<circle style="fill:#F2DE7C;" cx="168.299" cy="298.629" r="21.603"/>
	<circle style="fill:#F2DE7C;" cx="142.449" cy="304.699" r="25.909"/>
	<circle style="fill:#F2DE7C;" cx="138.969" cy="344.229" r="25.908"/>
	<circle style="fill:#F2DE7C;" cx="176.789" cy="324.679" r="21.603"/>
</g>
<path style="fill:#CC8D62;" d="M394.818,382.733c-7.312-27.279-69.907-49.333-147.073-49.333s-139.095,22.054-146.407,49.333
	c-3.259,12.158-6.962,35.192-10.126,57.525c42.747,34.934,97.357,55.897,156.869,55.897c59.51,0,114.117-20.963,156.863-55.896
	C401.78,417.926,398.077,394.891,394.818,382.733z"/>
<path style="fill:#BA835D;" d="M248.12,422.746l-4.666,22.167c-0.271,0.271,4.667,2.088,4.667,2.088l4.706-2.089L248.12,422.746z"/>
<g>
	<path style="fill:#D33D3D;" d="M101.338,382.733c-3.259,12.158,73.574,33.68,73.574,33.68l8.72-77.541
		C138.413,347.064,106.463,363.615,101.338,382.733z"/>
	<path style="fill:#D33D3D;" d="M248.081,496.155l-0.002-49.154c0,0-37.767-16.667-61.05-25.667s-85.691-38.602-85.691-38.602
		c-2.364,8.822-4.963,23.369-7.42,39.22c-0.929,5.995,50.286,24.251,50.286,24.251l-5.078,24.798
		C172.015,487.11,208.99,496.155,248.081,496.155z"/>
	<path style="fill:#D33D3D;" d="M95.079,414.912l44,3.667l7.529-70.133C78.412,332.746,95.079,414.912,95.079,414.912z"/>
	<path style="fill:#D33D3D;" d="M394.861,382.733c-5.125-19.118-37.075-35.669-82.294-43.861l8.72,77.541
		C321.287,416.412,398.12,394.891,394.861,382.733z"/>
	<path style="fill:#D33D3D;" d="M402.28,421.953c-2.456-15.851-5.055-30.398-7.419-39.22c0,0-62.408,29.602-85.691,38.602
		s-61.05,25.667-61.05,25.667l-0.003,49.154c39.092,0,76.067-9.045,108.956-25.153l-5.078-24.798
		C351.995,446.204,403.21,427.948,402.28,421.953z"/>
	<path style="fill:#D33D3D;" d="M349.591,348.446l7.529,70.133l44-3.667C401.12,414.912,417.787,332.746,349.591,348.446z"/>
</g>
<path style="fill:#CC8D62;" d="M286.969,282.118h-77.78c12.136,36.588,0.978,53.294,0.978,53.294l26.912,6.063h22l26.912-6.062
	C285.991,335.412,274.833,318.706,286.969,282.118z"/>
<path style="fill:#DB9A6E;" d="M248.081,61.579c-44.048,0-79.755,21.167-79.755,113.596c0,31.266,5.595,55.765,13.972,74.673
	c18.432,41.598,50.336,56.136,65.783,56.136c15.445,0,47.348-14.538,65.779-56.136c8.377-18.908,13.971-43.407,13.971-74.673
	C327.831,82.746,292.125,61.579,248.081,61.579z"/>
<path style="fill:#E24444;" d="M258.511,257.746c-2.971-0.439-10.432,2.5-10.432,2.5s-7.566-2.931-10.561-2.48
	c-4.798,0.722-11.939,8.953-11.939,10.313c0,0,10.074,5.25,22.5,5.25s22.5-5.25,22.5-5.25S263.382,258.466,258.511,257.746z"/>
<path style="fill:#D33D3D;" d="M254.206,264.411c-1.951-0.105-4.461,1.668-6.127,1.668c-1.925,0-4.809-1.753-7.025-1.617
	c-13.15,0.81-15.475,3.617-15.475,3.617s10.074,9.125,22.5,9.125s22.5-9.125,22.5-9.125S267.862,265.144,254.206,264.411z"/>
<g>
	<path style="fill:#CC8D62;" d="M212.857,339.179l-2.612-3.767C210.245,335.412,211.008,336.986,212.857,339.179z M283.926,338.287
		c1.384-1.714,1.985-2.875,1.985-2.875L283.926,338.287z M247.788,352.746c-20.422,0-30.632-8.469-34.931-13.567l35.298,50.9
		l35.771-51.792C279.948,343.212,269.456,352.746,247.788,352.746z"/>
	<path style="fill:#CC8D62;" d="M247.829,316.996l-37.662,18.417c0,0,16.828,28.073,37.62,28.073s38.204-28.073,38.204-28.073
		L247.829,316.996z"/>
</g>
<g>
	<path style="fill:#7C5540;" d="M169.765,177.962c-7.623,1.304-13.422,4.587-9.121,29.746c4.303,25.159,9.645,26.329,17.268,25.025
		L169.765,177.962z"/>
	<path style="fill:#7C5540;" d="M326.491,177.962l-8.146,54.771c7.625,1.304,12.967,0.134,17.268-25.025
		C339.915,182.549,334.114,179.266,326.491,177.962z"/>
</g>
<g>
	<circle style="fill:#F2DE7C;" cx="294.579" cy="81.079" r="21"/>
	<circle style="fill:#F2DE7C;" cx="263.579" cy="74.079" r="21"/>
	<circle style="fill:#F2DE7C;" cx="232.579" cy="74.079" r="21"/>
	<circle style="fill:#F2DE7C;" cx="201.579" cy="81.079" r="21"/>
	<circle style="fill:#F2DE7C;" cx="317.729" cy="95.359" r="23.666"/>
	<circle style="fill:#F2DE7C;" cx="338.179" cy="229.039" r="25.909"/>
	<circle style="fill:#F2DE7C;" cx="341.199" cy="190.589" r="25.909"/>
	<circle style="fill:#F2DE7C;" cx="344.929" cy="152.359" r="25.909"/>
	<circle style="fill:#F2DE7C;" cx="344.349" cy="108.829" r="25.909"/>
	<circle style="fill:#F2DE7C;" cx="370.989" cy="212.489" r="21.603"/>
	<circle style="fill:#F2DE7C;" cx="375.069" cy="185.769" r="21.603"/>
	<circle style="fill:#F2DE7C;" cx="370.949" cy="151.549" r="21.603"/>
	<circle style="fill:#F2DE7C;" cx="370.789" cy="169.049" r="21.603"/>
	<circle style="fill:#F2DE7C;" cx="361.639" cy="123.849" r="21.604"/>
	<circle style="fill:#F2DE7C;" cx="335.079" cy="124.579" r="21"/>
	<circle style="fill:#F2DE7C;" cx="179.729" cy="95.359" r="23.665"/>
	<circle style="fill:#F2DE7C;" cx="159.279" cy="229.039" r="25.909"/>
	<circle style="fill:#F2DE7C;" cx="156.249" cy="190.589" r="25.909"/>
	<circle style="fill:#F2DE7C;" cx="152.529" cy="152.359" r="25.909"/>
	<circle style="fill:#F2DE7C;" cx="153.109" cy="108.829" r="25.909"/>
	<circle style="fill:#F2DE7C;" cx="126.459" cy="212.489" r="21.604"/>
	<circle style="fill:#F2DE7C;" cx="122.379" cy="185.769" r="21.603"/>
	<circle style="fill:#F2DE7C;" cx="126.499" cy="151.549" r="21.603"/>
	<circle style="fill:#F2DE7C;" cx="126.669" cy="169.049" r="21.603"/>
	<circle style="fill:#F2DE7C;" cx="137.159" cy="123.849" r="21.604"/>
	<circle style="fill:#F2DE7C;" cx="162.379" cy="124.579" r="21"/>
	<path style="fill:#F2DE7C;" d="M201.579,95.079c-19,19.5,5,30,5,30c3.5-16.5,17.5-13.5,17.5-13.5c44.5,1,77-12,77-12
		C262.579,67.579,201.579,95.079,201.579,95.079z"/>
</g>
<g>
</g>
<g>
</g>
<g>
</g>
<g>
</g>
<g>
</g>
<g>
</g>
<g>
</g>
<g>
</g>
<g>
</g>
<g>
</g>
<g>
</g>
<g>
</g>
<g>
</g>
<g>
</g>
<g>
</g>
</svg>
