<?xml version="1.0" encoding="utf-8"?>
<svg viewBox="18.771997451782227 24.87799644470215 90.0000228881836 90.00000762939453" width="90.0000228881836" height="90.00000762939453" xmlns="http://www.w3.org/2000/svg">
  <defs>
    <style>.cls-1,.cls-15{fill:#eccbbd;}.cls-1,.cls-10,.cls-11,.cls-12,.cls-13,.cls-14,.cls-17,.cls-18,.cls-19,.cls-20,.cls-21,.cls-22,.cls-23,.cls-24,.cls-25,.cls-28,.cls-29,.cls-3,.cls-30,.cls-31,.cls-32,.cls-6,.cls-7,.cls-8{stroke:#ae5536;}.cls-1,.cls-10,.cls-11,.cls-12,.cls-13,.cls-14,.cls-17,.cls-18,.cls-20,.cls-21,.cls-22,.cls-23,.cls-24,.cls-25,.cls-28,.cls-29,.cls-3,.cls-30,.cls-31,.cls-32,.cls-33,.cls-6,.cls-7,.cls-8{stroke-linecap:round;}.cls-1,.cls-10,.cls-11,.cls-12,.cls-13,.cls-14,.cls-17,.cls-18,.cls-19,.cls-20,.cls-21,.cls-22,.cls-23,.cls-24,.cls-25,.cls-28,.cls-29,.cls-3,.cls-30,.cls-31,.cls-32,.cls-33,.cls-6,.cls-8{stroke-linejoin:round;}.cls-1,.cls-10,.cls-12,.cls-13,.cls-14,.cls-18,.cls-19,.cls-20,.cls-25,.cls-3,.cls-30,.cls-31,.cls-32,.cls-6,.cls-8{stroke-width:2px;}.cls-11,.cls-18,.cls-2,.cls-7{fill:none;}.cls-17,.cls-3,.cls-9{fill:#fff;}.cls-4{fill:#e5f3ea;}.cls-5{fill:#faf1ce;}.cls-6{fill:#f0f7f9;}.cls-7{stroke-miterlimit:10;}.cls-8{fill:#f6e6a7;}.cls-10{fill:#e3ecc1;}.cls-12{fill:#d5a696;}.cls-13{fill:#f4e297;}.cls-14{fill:#f8eec2;}.cls-16{clip-path:url(#clip-path);}.cls-19{fill:#f3e0d8;}.cls-20{fill:#e0eef2;}.cls-21{fill:#d4e9ed;}.cls-22{fill:#efd4c9;}.cls-23{fill:#e0eabb;}.cls-24{fill:#f8ecba;}.cls-25{fill:#f1d9d0;}.cls-26{clip-path:url(#clip-path-2);}.cls-27{clip-path:url(#clip-path-3);}.cls-28{fill:#cae3e9;}.cls-29{fill:#ebf4f7;}.cls-30{fill:#ebd4cd;}.cls-31{fill:#b5d8e1;}.cls-32{fill:#e3b4a1;}.cls-33{fill:#b6d391;stroke:#5e7658;}.cls-34,.cls-35{font-size:14px;font-family:Arial-BoldMT, Arial;font-weight:700;}.cls-35{fill:#5e7658;}</style>
  </defs>
  <circle class="cls-5" cx="63.772" cy="69.878" r="45" transform="matrix(1, 0, 0, 1, 0, 0)"/>
  <path class="cls-13" d="M 98.873 47.826 C 95.873 56.626 92.073 57.826 89.873 59.296 L 23.243 92.006 L 44.613 41.476 C 44.613 41.476 43.323 36.736 46.443 33.236 C 51.443 27.576 62.173 30.436 76.653 35.236 C 90.833 39.826 98.873 47.826 98.873 47.826 Z" transform="matrix(1, 0, 0, 1, 0, 0)"/>
  <path class="cls-14" d="M 90.271 58.333 C 88.011 55.463 90.151 45.263 99.271 46.863 C 102.663 48.36 104.502 52.067 103.641 55.673 C 103.121 58.673 101.941 61.163 95.261 65.203 L 23.691 101.203 L 23.691 91.003 L 90.221 58.323" transform="matrix(1, 0, 0, 1, 0, 0)"/>
  <path id="_Zuschneidungspfad_2" data-name="&lt;Zuschneidungspfad&gt;" class="cls-15" d="M 23.728 91.279 L 45.088 40.739 C 45.088 40.739 54.028 37.259 70.418 43.839 C 86.508 50.309 90.248 58.589 90.248 58.589 L 53.478 76.909 C 53.478 76.909 50.578 76.909 51.938 85.189 C 52.358 87.769 54.028 96.369 50.028 96.279 C 46.798 96.209 48.958 82.919 46.668 82.339 C 44.378 81.759 42.998 84.279 43.158 88.709 C 43.318 93.139 45.998 107.179 40.418 106.709 C 34.418 106.209 41.418 85.709 36.968 85.709 C 34.968 85.699 23.728 91.279 23.728 91.279 Z" transform="matrix(1, 0, 0, 1, 0, 0)"/>
  <path id="_Zuschneidungspfad_3" data-name="&lt;Zuschneidungspfad&gt;" class="cls-18" d="M 23.049 91.957 L 44.409 41.417 C 44.409 41.417 53.349 37.937 69.739 44.517 C 85.829 50.987 89.569 59.267 89.569 59.267 L 52.799 77.587 C 52.799 77.587 49.899 77.587 51.259 85.867 C 51.679 88.447 53.349 97.047 49.349 96.957 C 46.119 96.887 48.279 83.597 45.989 83.017 C 43.699 82.437 42.319 84.957 42.479 89.387 C 42.639 93.817 45.319 107.857 39.739 107.387 C 33.739 106.887 40.739 86.387 36.289 86.387 C 34.289 86.377 23.049 91.957 23.049 91.957 Z" transform="matrix(1, 0, 0, 1, 0, 0)"/>
  <text class="cls-34" style="white-space: pre; font-size: 14px;" x="54.147" y="102.774" transform="matrix(1, 0, 0, 1, 0, 0)">Food</text>
  <path class="cls-17" d="M 45.388 57.263 C 45.388 57.263 52.178 61.333 57.908 57.383 C 65.908 51.893 62.388 46.013 62.388 46.013 L 50.638 44.013 Z" transform="matrix(1, 0, 0, 1, 0, 0)"/>
  <path class="cls-17" d="M 49.782 75.654 C 52.407 72.776 52.854 68.545 50.888 65.188 C 48.86 61.666 41.743 60.166 37.521 64.904 C 34.036 68.82 36.903 78.233 46.279 76.203 Z" transform="matrix(1, 0, 0, 1, 0, 0)"/>
  <path class="cls-17" d="M 66.301 55.084 C 67.666 51.037 72.306 49.146 76.111 51.084 C 82.841 54.264 78.111 65.894 70.461 63.274 C 66.891 62.074 64.891 58.594 66.301 55.084 Z" transform="matrix(1, 0, 0, 1, 0, 0)"/>
</svg>