<?xml version="1.0" encoding="iso-8859-1"?>
<!-- Generator: Adobe Illustrator 19.0.0, SVG Export Plug-In . SVG Version: 6.00 Build 0)  -->
<svg version="1.1" id="Layer_1" xmlns="http://www.w3.org/2000/svg" xmlns:xlink="http://www.w3.org/1999/xlink" x="0px" y="0px"
	 viewBox="0 0 496.2 496.2" style="enable-background:new 0 0 496.2 496.2;" xml:space="preserve">
<path style="fill:#A3D5E0;" d="M496.2,248.1C496.2,111.1,385.1,0,248.1,0S0,111.1,0,248.1s111.1,248.1,248.1,248.1
	S496.2,385.1,496.2,248.1z"/>
<path style="fill:#019897;" d="M247.8,333.4c-77.2,0-139.1,22.1-146.4,49.3c-3.3,12.2-7,35.2-10.1,57.5
	c42.7,34.9,97.4,55.9,156.9,55.9s114.1-21,156.9-55.9c-3.2-22.3-6.9-45.4-10.1-57.5C387.5,355.5,324.9,333.4,247.8,333.4z"/>
<path style="fill:#D0EAEF;" d="M198.8,336.5c0,0-19.2,44,49,44s49.7-44,49.7-44l-49.4-5.8L198.8,336.5z"/>
<path style="fill:#E2A379;" d="M287,282.1h-77.8c12.1,36.6,1,53.3,1,53.3l26.9,12.9h22l26.9-12.9C286,335.4,274.9,318.7,287,282.1z"
	/>
<path style="fill:#F4B382;" d="M327.9,175.2c0-92.4-35.7-113.6-79.8-113.6c-44,0-79.8,21.2-79.8,113.6c0,31.3,5.6,55.8,14,74.7
	c18.4,41.6,50.3,56.1,65.8,56.1s47.3-14.5,65.8-56.1C322.3,231,327.9,206.5,327.9,175.2z"/>
<g>
	<path style="fill:#F2DE7C;" d="M248.1,61.6c-48.7,0-82.7,25.6-82.7,118c0,0,82.7-45.9,82.7-79.5V61.6z"/>
	<path style="fill:#F2DE7C;" d="M248,61.6c48.7,0,82.8,25.6,82.8,118c0,0-82.7-45.9-82.7-79.5L248,61.6z"/>
</g>
<path style="fill:#019897;" d="M169.8,80.1c0,8-3.8,71.6-3.8,71.6h164.5c0,0-3.8-63.6-3.8-71.6c0-4-33.1-21.5-77.7-21.5
	C204,58.6,169.8,76.1,169.8,80.1z"/>
<path style="fill:#E2A379;" d="M210.2,335.4c0,0-14.8,36.7,37.6,36.7s38.2-36.7,38.2-36.7L247.8,317L210.2,335.4z"/>
<g>
	<path style="fill:#F4B382;" d="M160.7,207.7c4.3,25.2,9.6,26.3,17.3,25l-8.1-54.8C162.2,179.3,156.4,182.6,160.7,207.7z"/>
	<path style="fill:#F4B382;" d="M326.5,178l-8.1,54.8c7.6,1.3,13,0.1,17.3-25C339.9,182.6,334.1,179.3,326.5,178z"/>
</g>
<g>
	<path style="fill:#F2DE7C;" d="M174.8,183.1c-0.4-2.7-0.5-5.2-0.4-7.1c0.1-2.9,0.5-4.7,0.5-4.7l-9.4,3.5c0,1.4,0,2.9,0,4.3
		c0,0,1-0.3,2.8-0.9c-0.1,0-0.2,0.1-0.3,0.1c1.3,2.2,2.9,5.6,4.5,10.5C172.4,188.8,176.1,191.5,174.8,183.1z"/>
	<path style="fill:#F2DE7C;" d="M321.9,176c0.1,2,0,4.4-0.4,7.1c-1.3,8.4,2.3,5.7,2.3,5.7c1.5-5,3.2-8.3,4.4-10.5
		c1.6,0.6,2.5,0.8,2.5,0.8c0-1.5,0-2.9,0-4.3l-9.3-3.5C321.4,171.3,321.8,173.1,321.9,176"/>
</g>
<g>
	<path style="fill:#E4F0F2;" d="M314.2,205.3l-66.1-10.2L182,205.3v43.8h0.1c0.1,0.2,0.1,0.5,0.2,0.8c18.4,41.6,50.3,56.1,65.8,56.1
		s47.3-14.5,65.8-56.1c0.1-0.3,0.2-0.5,0.2-0.8h0.1V205.3z"/>
	<path style="fill:#E4F0F2;" d="M311.3,209.8c-0.3,0-0.6-0.1-0.8-0.2c-1-0.5-1.4-1.7-1-2.7l15-32.3c0.5-1,1.7-1.4,2.7-1
		c1,0.5,1.4,1.7,1,2.7l-15,32.3C312.8,209.3,312.1,209.8,311.3,209.8z"/>
	<path style="fill:#E4F0F2;" d="M184.9,209.8c-0.8,0-1.5-0.4-1.8-1.2l-15-32.3c-0.5-1,0-2.2,1-2.7s2.2,0,2.7,1l15,32.3
		c0.5,1,0,2.2-1,2.7C185.4,209.7,185.1,209.8,184.9,209.8z"/>
</g>
<g>
</g>
<g>
</g>
<g>
</g>
<g>
</g>
<g>
</g>
<g>
</g>
<g>
</g>
<g>
</g>
<g>
</g>
<g>
</g>
<g>
</g>
<g>
</g>
<g>
</g>
<g>
</g>
<g>
</g>
</svg>
