<?xml version="1.0" encoding="iso-8859-1"?>
<!-- Generator: Adobe Illustrator 19.0.0, SVG Export Plug-In . SVG Version: 6.00 Build 0)  -->
<svg version="1.1" id="Layer_1" xmlns="http://www.w3.org/2000/svg" xmlns:xlink="http://www.w3.org/1999/xlink" x="0px" y="0px"
	 viewBox="0 0 511.99 511.99" style="enable-background:new 0 0 511.99 511.99;" xml:space="preserve">
<g>
	<g>
		<path d="M510.193,164.798l-19.53-29.296V85.424c0-0.336-0.016-0.672-0.047-1c-0.016-0.117-0.031-0.234-0.047-0.344
			c-0.016-0.211-0.047-0.422-0.094-0.625c-0.016-0.141-0.047-0.273-0.078-0.406c-0.047-0.18-0.094-0.367-0.141-0.547
			c-0.047-0.133-0.078-0.266-0.125-0.406c-0.062-0.18-0.125-0.352-0.188-0.531c-0.047-0.125-0.094-0.242-0.141-0.367
			c-0.125-0.273-0.266-0.547-0.406-0.82c-0.047-0.086-0.109-0.18-0.156-0.266c-0.109-0.188-0.219-0.375-0.328-0.555
			c-0.078-0.102-0.141-0.203-0.219-0.305c-0.109-0.156-0.234-0.32-0.359-0.469c-0.078-0.102-0.156-0.195-0.234-0.289
			c-0.125-0.156-0.266-0.305-0.406-0.453c-0.078-0.078-0.156-0.164-0.234-0.242c-0.172-0.156-0.344-0.312-0.516-0.461
			c-0.062-0.062-0.125-0.117-0.203-0.172c-0.25-0.203-0.5-0.398-0.766-0.57c-0.047-0.039-0.094-0.062-0.141-0.094
			c-0.219-0.141-0.438-0.273-0.656-0.398c-0.125-0.07-0.234-0.125-0.359-0.188c-0.156-0.078-0.328-0.164-0.484-0.234
			c-0.156-0.062-0.297-0.125-0.438-0.18c-0.156-0.055-0.297-0.117-0.453-0.164c-0.156-0.055-0.312-0.109-0.484-0.148
			c-0.047-0.016-0.094-0.039-0.156-0.055L248.136,11.168c-1.828-0.5-3.766-0.5-5.609,0L7.859,75.136C3.218,76.401,0,80.612,0,85.425
			c0,4.805,3.219,9.023,7.859,10.281l88.217,24.046v114.927c0,3.008,1.25,5.711,3.25,7.648
			c-16.016,26.368-24.578,56.672-24.578,88.295c0,45.562,17.75,88.404,49.968,120.623s75.061,49.953,120.623,49.953
			c45.562,0,88.388-17.734,120.607-49.953c32.219-32.219,49.968-75.061,49.968-120.623c0-31.623-8.562-61.928-24.577-88.295
			c2-1.938,3.25-4.648,3.25-7.648V119.752l74.764-20.375v36.124l-19.531,29.296c-1.172,1.75-1.797,3.812-1.797,5.914v53.304
			c0,5.89,4.781,10.664,10.656,10.664h42.656c5.875,0,10.655-4.773,10.655-10.664v-53.304
			C511.99,168.61,511.365,166.548,510.193,164.798z M121.795,246.811c10.703,1.648,24.296,4.539,38.64,7.953
			c-4.907,19.205-8.813,41.486-9.719,65.421h-54.28C98.264,293.671,107.014,268.515,121.795,246.811z M115.358,404.139
			c-10.829-19.094-17.297-40.375-18.891-62.641h54.265c0.891,22.812,4.515,44.094,9.109,62.641H115.358z M139.795,436.168
			c-3.438-3.438-6.688-7.016-9.735-10.719h35.781c2.125,6.75,4.312,12.922,6.391,18.453c3.094,8.141,6.171,15.391,9,21.594
			C166.045,458.262,152.045,448.418,139.795,436.168z M234.667,425.449v54.062c-8.296-0.594-16.453-1.859-24.421-3.766
			c-4.062-7.312-13.437-25.359-21.906-50.297L234.667,425.449L234.667,425.449z M234.667,404.139h-52.796
			c-4.983-18.704-8.843-39.954-9.812-62.641h62.608V404.139z M234.667,320.185h-62.624c0.891-21.732,4.453-42.154,9.109-60.279
			c20.188,5.195,39.89,10.734,53.515,14.719V320.185z M149.513,230.413v-70.366c0-5.883-4.781-10.656-10.672-10.656
			c-5.875,0-10.656,4.773-10.656,10.656v66.233c-3.843-0.633-7.468-1.156-10.781-1.539v-99.178l125.123,34.108
			c0.922,0.25,1.859,0.375,2.812,0.375c0.938,0,1.875-0.125,2.797-0.375l125.138-34.108v99.179
			c-36.844,4.257-111.576,25.968-127.935,30.796C232.948,251.874,187.074,238.523,149.513,230.413z M318.619,320.186h-62.624
			v-45.561c13.641-3.984,33.344-9.516,53.515-14.703C314.182,278.047,317.729,298.453,318.619,320.186z M280.417,475.746
			c-7.969,1.906-16.125,3.172-24.422,3.766v-54.063h46.344C293.855,450.402,284.48,468.449,280.417,475.746z M255.995,404.139
			v-62.641h62.608c-0.969,22.688-4.828,43.938-9.812,62.641H255.995z M350.869,436.168c-12.251,12.25-26.25,22.094-41.437,29.328
			c2.844-6.203,5.922-13.453,9-21.594c2.094-5.531,4.266-11.703,6.391-18.453h35.78C357.556,429.152,354.306,432.73,350.869,436.168
			z M375.306,404.139h-44.484c4.593-18.547,8.218-39.829,9.109-62.641h54.266C392.603,363.764,386.135,385.045,375.306,404.139z
			 M394.227,320.186h-54.281c-0.906-23.936-4.812-46.201-9.718-65.405c14.359-3.422,27.953-6.313,38.64-7.961
			C383.665,268.516,392.399,293.672,394.227,320.186z M234.792,96.08h165.56l-155.013,42.257L51.202,85.424l194.137-52.921
			L400.352,74.76h-165.56c-5.875,0-10.656,4.773-10.656,10.664C224.136,91.307,228.917,96.08,234.792,96.08z M490.663,213.359
			h-21.312v-39.421l10.656-15.992l10.656,15.992V213.359z"/>
	</g>
</g>
<g>
</g>
<g>
</g>
<g>
</g>
<g>
</g>
<g>
</g>
<g>
</g>
<g>
</g>
<g>
</g>
<g>
</g>
<g>
</g>
<g>
</g>
<g>
</g>
<g>
</g>
<g>
</g>
<g>
</g>
</svg>
