<?xml version="1.0" encoding="utf-8"?>
<svg viewBox="386.47900390625 11.347299575805664 89.99996948242188 104.20970153808594" width="89.99996948242188" height="104.20970153808594" xmlns="http://www.w3.org/2000/svg" xmlns:xlink="http://www.w3.org/1999/xlink">
  <defs>
    <style>.cls-1,.cls-15{fill:#eccbbd;}.cls-1,.cls-10,.cls-11,.cls-12,.cls-13,.cls-14,.cls-17,.cls-18,.cls-19,.cls-20,.cls-21,.cls-22,.cls-23,.cls-24,.cls-25,.cls-28,.cls-29,.cls-3,.cls-30,.cls-31,.cls-32,.cls-6,.cls-7,.cls-8{stroke:#ae5536;}.cls-1,.cls-10,.cls-11,.cls-12,.cls-13,.cls-14,.cls-17,.cls-18,.cls-20,.cls-21,.cls-22,.cls-23,.cls-24,.cls-25,.cls-28,.cls-29,.cls-3,.cls-30,.cls-31,.cls-32,.cls-33,.cls-6,.cls-7,.cls-8{stroke-linecap:round;}.cls-1,.cls-10,.cls-11,.cls-12,.cls-13,.cls-14,.cls-17,.cls-18,.cls-19,.cls-20,.cls-21,.cls-22,.cls-23,.cls-24,.cls-25,.cls-28,.cls-29,.cls-3,.cls-30,.cls-31,.cls-32,.cls-33,.cls-6,.cls-8{stroke-linejoin:round;}.cls-1,.cls-10,.cls-12,.cls-13,.cls-14,.cls-18,.cls-19,.cls-20,.cls-25,.cls-3,.cls-30,.cls-31,.cls-32,.cls-6,.cls-8{stroke-width:2px;}.cls-11,.cls-18,.cls-2,.cls-7{fill:none;}.cls-17,.cls-3,.cls-9{fill:#fff;}.cls-4{fill:#e5f3ea;}.cls-5{fill:#faf1ce;}.cls-6{fill:#f0f7f9;}.cls-7{stroke-miterlimit:10;}.cls-8{fill:#f6e6a7;}.cls-10{fill:#e3ecc1;}.cls-12{fill:#d5a696;}.cls-13{fill:#f4e297;}.cls-14{fill:#f8eec2;}.cls-16{clip-path:url(#clip-path);}.cls-19{fill:#f3e0d8;}.cls-20{fill:#e0eef2;}.cls-21{fill:#d4e9ed;}.cls-22{fill:#efd4c9;}.cls-23{fill:#e0eabb;}.cls-24{fill:#f8ecba;}.cls-25{fill:#f1d9d0;}.cls-26{clip-path:url(#clip-path-2);}.cls-27{clip-path:url(#clip-path-3);}.cls-28{fill:#cae3e9;}.cls-29{fill:#ebf4f7;}.cls-30{fill:#ebd4cd;}.cls-31{fill:#b5d8e1;}.cls-32{fill:#e3b4a1;}.cls-33{fill:#b6d391;stroke:#5e7658;}.cls-34,.cls-35{font-size:14px;font-family:Arial-BoldMT, Arial;font-weight:700;}.cls-35{fill:#5e7658;}</style>
    <symbol id="CaSR-" data-name="CaSR-" viewBox="0 0 55 77.35">
      <g id="Neues_Symbol_4" data-name="Neues Symbol 4">
        <circle class="cls-1" cx="27.5" cy="27.5" r="27.5" style="fill: rgb(229, 235, 184); stroke-width: 0;"/>
      </g>
      <text class="cls-2" transform="translate(1.83 33.55)" style="white-space: pre; font-family: Arial-BoldMT, Arial; font-size: 14px; font-weight: bold; line-height: 22.4px; width: 51.3125px; perspective-origin: 25.6562px 0px; fill: rgb(133, 146, 53);">CaSR(-)</text>
      <g id="Neues_Symbol_3" data-name="Neues Symbol 3">
        <polyline class="cls-3" points="36.89 46.41 19.89 46.41 19.89 68.09 28.39 68.09 28.39 52.94 36.89 52.94 36.89 74.85 19.89 74.85" style="fill: none; stroke: rgb(133, 146, 53); stroke-linecap: round; stroke-linejoin: round; stroke-width: 5px;"/>
        <polyline class="cls-4" points="36.89 46.41 19.89 46.41 19.89 68.09 28.39 68.09 28.39 52.94 36.89 52.94 36.89 74.85 19.89 74.85" style="fill: none; stroke: rgb(210, 221, 131); stroke-linecap: round; stroke-linejoin: round; stroke-width: 2px;"/>
      </g>
    </symbol>
  </defs>
  <circle class="cls-5" cx="431.479" cy="70.557" r="45" transform="matrix(1, 0, 0, 0.987821, 0, 1.407325)"/>
  <text class="cls-34" style="white-space: pre; font-size: 14px;" x="408.116" y="106.047" transform="matrix(1, 0, 0, 0.987821, 0, 1.407325)">Kidney</text>
  <path class="cls-30" d="M 451.796 54.159 C 451.796 83.27 429.976 99.243 413.316 87.132 C 399.146 76.829 411.826 63.109 411.826 63.109 C 410.563 61.56 409.612 59.786 409.026 57.883 C 408.771 57.069 408.597 56.231 408.506 55.384 C 408.506 55.097 408.446 54.781 408.446 54.475 C 408.446 54.169 408.446 53.754 408.446 53.408 C 408.514 52.552 408.696 51.708 408.986 50.899 C 409.598 49.235 410.631 47.752 411.986 46.592 C 411.986 46.592 402.706 46.345 399.156 36.092 C 396.156 27.498 400.966 11.673 420.426 12.661 C 441.356 13.708 451.796 39.796 451.796 54.159 Z"/>
  <path class="cls-32" d="M 409.036 57.873 C 408.949 57.903 408.858 57.923 408.766 57.932 L 403.206 58.683 C 400.501 59.057 398.485 61.338 398.476 64.037 L 398.476 97.831 C 398.476 99.58 396.56 100.673 395.026 99.798 C 394.315 99.392 393.876 98.643 393.876 97.831 L 393.876 64.037 C 393.89 59.07 397.589 54.865 402.566 54.159 L 402.566 54.159 L 408.126 53.408 C 408.236 53.399 408.346 53.399 408.456 53.408 C 408.456 53.754 408.456 54.11 408.456 54.475 C 408.456 54.841 408.456 55.097 408.516 55.384 C 408.607 56.228 408.782 57.062 409.036 57.873 Z"/>
  <path class="cls-31" d="M 408.029 53.62 C 408.029 53.926 408.029 54.242 408.089 54.528 L 408.029 54.528 C 406.031 54.487 404.057 54.082 402.209 53.333 C 397.946 51.564 394.758 47.94 393.579 43.524 C 393.194 41.816 394.824 40.338 396.513 40.862 C 397.297 41.106 397.89 41.743 398.069 42.536 C 399.331 47.002 403.474 50.073 408.169 50.024 C 408.333 50.029 408.497 50.049 408.659 50.083 C 408.368 50.892 408.186 51.736 408.119 52.592 C 408.029 52.908 408.029 53.254 408.029 53.62 Z"/>
  <g id="Bild" transform="matrix(0.371989, 0, 0, 0.334445, 406.708435, 18.487059)"/>
  <use width="55" height="77.3499984741211" transform="matrix(0.672988, 0, 0, 0.713343, 431.594757, 16.40465)" xlink:href="#CaSR-"/>
</svg>