<?xml version="1.0" encoding="iso-8859-1"?>
<!-- Generator: Adobe Illustrator 19.0.0, SVG Export Plug-In . SVG Version: 6.00 Build 0)  -->
<svg version="1.1" id="Layer_1" xmlns="http://www.w3.org/2000/svg" xmlns:xlink="http://www.w3.org/1999/xlink" x="0px" y="0px"
	 viewBox="0 0 496.3 496.3" style="enable-background:new 0 0 496.3 496.3;" xml:space="preserve">
<path style="fill:#32BEA6;" d="M496.25,248.1c0-137-111.1-248.1-248.1-248.1S0.05,111.1,0.05,248.1s111.1,248.1,248.1,248.1
	S496.25,385.1,496.25,248.1z"/>
<path style="fill:#E2A379;" d="M287.05,282.1h-77.8c12.1,36.6,1,53.3,1,53.3h75.8C286.05,335.4,274.95,318.7,287.05,282.1z"/>
<polygon style="fill:#C68F14;" points="324.65,351.2 171.65,351.2 187.15,281.7 309.15,281.7 "/>
<g>
	<path style="fill:#F4B382;" d="M336.45,175.2c0-92.4-39.5-113.6-88.3-113.6c-48.7,0-88.3,21.2-88.3,113.6
		c0,31.3,6.2,55.8,15.5,74.7c20.4,41.6,55.7,56.1,72.8,56.1s52.4-14.5,72.8-56.1C330.25,231,336.45,206.5,336.45,175.2z"/>
	<path style="fill:#F4B382;" d="M170.45,238.7c-8.4,1.4-14.4,0.1-19.1-27.7s1.7-31.5,10.1-32.9L170.45,238.7z"/>
	<path style="fill:#F4B382;" d="M325.95,238.7c8.4,1.4,14.3,0.1,19.1-27.7c4.8-27.8-1.7-31.5-10.1-32.9L325.95,238.7z"/>
</g>
<path style="fill:#D3C624;" d="M418.55,382.8c-5.8-18.6-41.4-34.7-91.8-43.1c0.7-6.1,1.4-15,1.4-27.5c0-20.3-19-30.4-19-30.4
	s-38,15.5-61,15.5s-61-15.5-61-15.5s-19,11.1-19,30.4c0,12.3,0.6,21.2,1.4,27.4c-50.5,8.4-86,24.6-91.8,43.3
	c-2.6,8.5-5.5,22.2-8.3,37.4c7.4,7.7,15.3,14.9,23.7,21.6c42.5,34,96.4,54.4,155,54.4c58.7,0,112.6-20.4,155-54.4
	c8.4-6.7,16.3-13.9,23.7-21.6C424.15,405,421.25,391.2,418.55,382.8z"/>
<path style="fill:#D6D6D6;" d="M356.65,345.9c-8.4-2.2-17.4-4.2-27-5.8v105.6h-163V340c-9.6,1.7-18.6,3.6-27,5.8v99.8h-41.5
	c20.6,15.6,43.6,28.1,68.5,36.8v-9.8h163v9.8c24.9-8.7,47.9-21.2,68.5-36.8h-41.5V345.9z"/>
<circle style="fill:#D61E1E;" cx="298.65" cy="415.2" r="23.3"/>
<g>
	<rect x="282.65" y="410.9" style="fill:#E6E7E8;" width="32.1" height="8.5"/>
	<rect x="294.45" y="399.2" style="fill:#E6E7E8;" width="8.5" height="32.1"/>
</g>
<g>
	<circle style="fill:#5B5243;" cx="248.15" cy="319" r="6.1"/>
	<circle style="fill:#5B5243;" cx="248.15" cy="373.3" r="6.1"/>
	<circle style="fill:#5B5243;" cx="248.15" cy="427.5" r="6.1"/>
	<circle style="fill:#5B5243;" cx="248.15" cy="481.8" r="6.1"/>
</g>
<g>
	<path style="fill:#C18C16;" d="M236.65,495.9c1,0,2,0.1,3,0.1V351.2h-3V495.9z"/>
	<polygon style="fill:#C18C16;" points="236.65,296.2 236.65,351.2 239.65,351.2 239.65,296.5 	"/>
</g>
<path style="fill:#E5A173;" d="M274.85,257c0,2.6-11.9,9.5-26.7,9.5s-26.7-7-26.7-9.5c0-1.6,8.5-6.1,14.1-6.9
	c3.6-0.5,12.5,2.9,12.5,2.9s8.8-3.4,12.4-2.9C266.25,250.9,274.85,257,274.85,257z"/>
<path style="fill:#D89364;" d="M274.85,257c0,2.6-11.9,12.4-26.7,12.4s-26.7-9.9-26.7-12.4c0,0,10.9,1.3,26.7,1.3
	S274.85,257,274.85,257z"/>
<g>
	<path style="fill:#47200D;" d="M336.45,175.2c0-92.4-30.3-116.1-88.3-116.1s-88.3,23.7-88.3,116.1c0,0,16.3-34.1,28.3-53.1
		s38-18.3,38-18.3h49c0,0,27,0.3,34.5,18.3L336.45,175.2z"/>
	<circle style="fill:#47200D;" cx="312.65" cy="110.4" r="11.5"/>
	<circle style="fill:#47200D;" cx="296.55" cy="109.7" r="11.5"/>
	<circle style="fill:#47200D;" cx="280.45" cy="108.4" r="11.5"/>
	<circle style="fill:#47200D;" cx="264.25" cy="107.9" r="11.5"/>
	<circle style="fill:#47200D;" cx="248.15" cy="106.3" r="11.5"/>
	<circle style="fill:#47200D;" cx="232.05" cy="107.9" r="11.5"/>
	<circle style="fill:#47200D;" cx="215.85" cy="108.4" r="11.5"/>
	<circle style="fill:#47200D;" cx="199.75" cy="109.7" r="11.5"/>
	<circle style="fill:#47200D;" cx="183.65" cy="110.4" r="11.5"/>
	<path style="fill:#47200D;" d="M165.55,140.8c-4.2,10.9-5.6,24.4-5.6,37.5c0,0,8.8-1.9,8.8,2.6l2.8,27.6l3.9-1.9
		c-0.2-23,4.9-83.5,4.9-83.5L165.55,140.8z"/>
	<path style="fill:#47200D;" d="M330.85,140.8c4.2,10.9,5.6,24.4,5.6,37.5c0,0-8.8-1.9-8.8,2.6l-2.7,27.6l-3.9-1.9
		c0.2-23-4.9-81.7-4.9-81.7L330.85,140.8z"/>
</g>
<g>
	<path style="fill:#FFFFFF;" d="M311.55,337.4L311.55,337.4L311.55,337.4L311.55,337.4z"/>
	<path style="fill:#FFFFFF;" d="M298.55,335.9L298.55,335.9L298.55,335.9z"/>
</g>
<g>
</g>
<g>
</g>
<g>
</g>
<g>
</g>
<g>
</g>
<g>
</g>
<g>
</g>
<g>
</g>
<g>
</g>
<g>
</g>
<g>
</g>
<g>
</g>
<g>
</g>
<g>
</g>
<g>
</g>
</svg>
