<?xml version="1.0" encoding="iso-8859-1"?>
<!-- Generator: Adobe Illustrator 19.0.0, SVG Export Plug-In . SVG Version: 6.00 Build 0)  -->
<svg version="1.1" id="Layer_1" xmlns="http://www.w3.org/2000/svg" xmlns:xlink="http://www.w3.org/1999/xlink" x="0px" y="0px"
	 viewBox="0 0 496.2 496.2" style="enable-background:new 0 0 496.2 496.2;" xml:space="preserve">
<path style="fill:#EA4949;" d="M496.2,248.1C496.2,111.1,385.1,0,248.1,0S0,111.1,0,248.1s111.1,248.1,248.1,248.1
	S496.2,385.1,496.2,248.1z"/>
<path style="fill:#E2A379;" d="M248.1,496.2c70.2,0,133.6-29.2,178.7-76c-2.8-15.1-5.6-28.9-8.3-37.4
	c-8.5-27.3-81.2-49.3-170.8-49.3s-161.5,22-170,49.3c-2.6,8.5-5.5,22.2-8.3,37.4C114.5,467,177.9,496.2,248.1,496.2z"/>
<path style="fill:#62ABB7;" d="M418.5,382.8c-6.7-21.4-52.9-39.6-115.8-46.4l-54.6,91.5l-54.7-91.7c-63,6.8-109.1,25-115.8,46.5
	c-2.6,8.5-5.5,22.2-8.3,37.4c45.1,46.9,108.5,76,178.7,76s133.6-29.2,178.7-76C424.1,405,421.2,391.2,418.5,382.8z"/>
<rect x="140.3" y="433.6" style="fill:#84D0D8;" width="63" height="10.5"/>
<path style="fill:#E2A379;" d="M287,282.1h-77.8c12.1,36.6,1,53.3,1,53.3H286C286,335.4,274.9,318.7,287,282.1z"/>
<path style="fill:#F4B382;" d="M336.4,175.2c0-92.4-39.5-113.6-88.3-113.6c-48.7,0-88.3,21.2-88.3,113.6c0,31.3,6.2,55.8,15.5,74.7
	c20.4,41.6,55.7,56.1,72.8,56.1s52.4-14.5,72.8-56.1C330.2,231,336.4,206.5,336.4,175.2z"/>
<g>
	<path style="fill:#191919;" d="M247.6,292.9h0.5C247.9,292.9,247.8,292.9,247.6,292.9L247.6,292.9z"/>
	<path style="fill:#191919;" d="M248.6,292.9L248.6,292.9c-0.2,0-0.3,0-0.5,0H248.6z"/>
</g>
<g>
	<path style="fill:#F4B382;" d="M170.4,238.7c-8.4,1.4-14.4,0.1-19.1-27.7s1.7-31.5,10.1-32.9L170.4,238.7z"/>
	<path style="fill:#F4B382;" d="M325.9,238.7c8.4,1.4,14.3,0.1,19.1-27.7c4.8-27.8-1.7-31.5-10.1-32.9L325.9,238.7z"/>
</g>
<path style="fill:#E5A173;" d="M274.8,257c0,2.6-11.9,9.5-26.7,9.5s-26.7-7-26.7-9.5c0-1.6,8.5-6.1,14.1-6.9
	c3.6-0.5,12.5,2.9,12.5,2.9s8.8-3.4,12.4-2.9C266.2,250.9,274.8,257,274.8,257z"/>
<path style="fill:#D89364;" d="M274.8,257c0,2.6-11.9,12.4-26.7,12.4s-26.7-9.9-26.7-12.4c0,0,10.9,1.3,26.7,1.3
	S274.8,257,274.8,257z"/>
<g>
	<path style="fill:#47200D;" d="M336.4,175.2c0-92.4-30.3-116.1-88.3-116.1s-88.3,23.7-88.3,116.1c0,0,16.3-34.1,28.3-53.1
		s38-18.3,38-18.3h49c0,0,27,0.3,34.5,18.3L336.4,175.2z"/>
	<path style="fill:#47200D;" d="M281.8,61.1c8.3,20-6.7,28-6.7,28h-36.7c0,0-28.7-8-24-30s34-21.3,34-21.3
		C248.4,57.6,274.1,42.6,281.8,61.1z"/>
	<path style="fill:#47200D;" d="M165.5,140.8c-4.2,10.9-5.6,24.4-5.6,37.5c0,0,8.8-1.9,8.8,2.6l2.8,27.6l3.9-1.9
		c-0.2-23,4.9-83.5,4.9-83.5L165.5,140.8z"/>
	<path style="fill:#47200D;" d="M330.8,140.8c4.2,10.9,5.6,24.4,5.6,37.5c0,0-8.8-1.9-8.8,2.6l-2.8,27.6l-3.9-1.9
		c0.2-23-4.9-81.7-4.9-81.7L330.8,140.8z"/>
</g>
<g>
	<path style="fill:#FFFFFF;" d="M311.5,337.4L311.5,337.4L311.5,337.4L311.5,337.4z"/>
	<path style="fill:#FFFFFF;" d="M298.5,335.9L298.5,335.9L298.5,335.9z"/>
</g>
<g>
</g>
<g>
</g>
<g>
</g>
<g>
</g>
<g>
</g>
<g>
</g>
<g>
</g>
<g>
</g>
<g>
</g>
<g>
</g>
<g>
</g>
<g>
</g>
<g>
</g>
<g>
</g>
<g>
</g>
</svg>
