<?xml version="1.0" encoding="utf-8"?>
<svg viewBox="0 0.957334578037262 120.765625 95.91265869140625" width="120.765625" height="95.91265869140625" xmlns="http://www.w3.org/2000/svg">
  <circle class="cls-1" cx="45" cy="51.87" r="45" style="fill: rgb(250, 241, 206);" transform="matrix(1, 0, 0, 1, 0, 0)"/>
  <path class="cls-2" d="M45,36.49s3.37-.15,4.75,2.49C51,41.25,51.68,47.85,54,49.24c.86.52,2,.25,2.79.43,0,0-1.84-15.52.59-25.63S65.3.09,71,1C76.56,2,74.37,10.91,77.7,19c2,4.93,10.94,18,8.87,30.89s-13.93,24-21.4,23.94c-7.72,0-8.62-8.14-11.72-12.61C51,57.72,45,57.82,45,57.82" style="fill: rgb(243, 224, 216); stroke: rgb(174, 85, 54); stroke-linejoin: round; stroke-width: 2px;" transform="matrix(1, 0, 0, 1, 0, 0)"/>
  <path class="cls-3" d="M64.42,39.86a2.46,2.46,0,0,0,0-4.92" style="fill: none; stroke: rgb(174, 85, 54); stroke-linecap: round; stroke-linejoin: round;" transform="matrix(1, 0, 0, 1, 0, 0)"/>
  <path class="cls-3" d="M69.39,49.67a2.46,2.46,0,0,0,0-4.92" style="fill: none; stroke: rgb(174, 85, 54); stroke-linecap: round; stroke-linejoin: round;" transform="matrix(1, 0, 0, 1, 0, 0)"/>
  <path class="cls-3" d="M66.93,63.37a2.46,2.46,0,1,0,0-4.92" style="fill: none; stroke: rgb(174, 85, 54); stroke-linecap: round; stroke-linejoin: round;" transform="matrix(1, 0, 0, 1, 0, 0)"/>
  <path class="cls-3" d="M62,54.59a2.46,2.46,0,1,0,0-4.92" style="fill: none; stroke: rgb(174, 85, 54); stroke-linecap: round; stroke-linejoin: round;" transform="matrix(1, 0, 0, 1, 0, 0)"/>
  <path class="cls-3" d="M63.8,28.23a2.46,2.46,0,1,0,0-4.92" style="fill: none; stroke: rgb(174, 85, 54); stroke-linecap: round; stroke-linejoin: round;" transform="matrix(1, 0, 0, 1, 0, 0)"/>
  <path class="cls-3" d="M70.19,21.29a2.46,2.46,0,0,0,0-4.92" style="fill: none; stroke: rgb(174, 85, 54); stroke-linecap: round; stroke-linejoin: round;" transform="matrix(1, 0, 0, 1, 0, 0)"/>
  <path class="cls-3" d="M76.89,56.47a2.46,2.46,0,1,0,0-4.92" style="fill: none; stroke: rgb(174, 85, 54); stroke-linecap: round; stroke-linejoin: round;" transform="matrix(1, 0, 0, 1, 0, 0)"/>
  <path class="cls-3" d="M73.66,34a2.46,2.46,0,0,0,0-4.92" style="fill: none; stroke: rgb(174, 85, 54); stroke-linecap: round; stroke-linejoin: round;" transform="matrix(1, 0, 0, 1, 0, 0)"/>
  <path class="cls-3" d="M79.35,43.81a2.46,2.46,0,0,0,0-4.92" style="fill: none; stroke: rgb(174, 85, 54); stroke-linecap: round; stroke-linejoin: round;" transform="matrix(1, 0, 0, 1, 0, 0)"/>
  <ellipse class="cls-4" cx="64.99" cy="25.07" rx="2.94" ry="5.53" style="fill: rgb(248, 236, 188); stroke: rgb(174, 85, 54); stroke-linejoin: round; stroke-width: 2px;" transform="matrix(1, 0, 0, 1, 0, 0)"/>
  <path class="cls-2" d="M44.93,36.49s-3.37-.15-4.75,2.49C39,41.25,38.28,47.85,36,49.24c-.86.52-2,.25-2.79.43,0,0,1.84-15.52-.59-25.63S24.65.09,18.91,1C13.4,2,15.58,10.91,12.25,19c-2,4.93-10.94,18-8.87,30.89s13.93,24,21.4,23.94c7.72,0,8.62-8.14,11.72-12.61,2.41-3.48,8.43-3.38,8.43-3.38" style="fill: rgb(243, 224, 216); stroke: rgb(174, 85, 54); stroke-linejoin: round; stroke-width: 2px;" transform="matrix(1, 0, 0, 1, 0, 0)"/>
  <path class="cls-3" d="M25.54,39.86a2.46,2.46,0,1,1,0-4.92" style="fill: none; stroke: rgb(174, 85, 54); stroke-linecap: round; stroke-linejoin: round;" transform="matrix(1, 0, 0, 1, 0, 0)"/>
  <path class="cls-3" d="M20.57,49.67a2.46,2.46,0,1,1,0-4.92" style="fill: none; stroke: rgb(174, 85, 54); stroke-linecap: round; stroke-linejoin: round;" transform="matrix(1, 0, 0, 1, 0, 0)"/>
  <path class="cls-3" d="M23,63.37a2.46,2.46,0,0,1,0-4.92" style="fill: none; stroke: rgb(174, 85, 54); stroke-linecap: round; stroke-linejoin: round;" transform="matrix(1, 0, 0, 1, 0, 0)"/>
  <path class="cls-3" d="M28,54.59a2.46,2.46,0,0,1,0-4.92" style="fill: none; stroke: rgb(174, 85, 54); stroke-linecap: round; stroke-linejoin: round;" transform="matrix(1, 0, 0, 1, 0, 0)"/>
  <path class="cls-3" d="M26.15,28.23a2.46,2.46,0,0,1,0-4.92" style="fill: none; stroke: rgb(174, 85, 54); stroke-linecap: round; stroke-linejoin: round;" transform="matrix(1, 0, 0, 1, 0, 0)"/>
  <path class="cls-3" d="M19.77,21.29a2.46,2.46,0,0,1,0-4.92" style="fill: none; stroke: rgb(174, 85, 54); stroke-linecap: round; stroke-linejoin: round;" transform="matrix(1, 0, 0, 1, 0, 0)"/>
  <path class="cls-3" d="M13.06,56.47a2.46,2.46,0,1,1,0-4.92" style="fill: none; stroke: rgb(174, 85, 54); stroke-linecap: round; stroke-linejoin: round;" transform="matrix(1, 0, 0, 1, 0, 0)"/>
  <path class="cls-3" d="M16.3,34a2.46,2.46,0,0,1,0-4.92" style="fill: none; stroke: rgb(174, 85, 54); stroke-linecap: round; stroke-linejoin: round;" transform="matrix(1, 0, 0, 1, 0, 0)"/>
  <path class="cls-3" d="M10.6,43.81a2.46,2.46,0,0,1,0-4.92" style="fill: none; stroke: rgb(174, 85, 54); stroke-linecap: round; stroke-linejoin: round;" transform="matrix(1, 0, 0, 1, 0, 0)"/>
  <ellipse class="cls-4" cx="21.548" cy="28.295" rx="7.941" ry="12.44" style="stroke: rgb(174, 85, 54); stroke-linejoin: round; stroke-width: 2px; fill: rgb(198, 170, 60);" transform="matrix(1, 0, 0, 1, 0, 0)"/>
  <text class="cls-5" transform="matrix(1, 0, 0, 1, 31.889999389648434, 87.19999694824219)" style="white-space: pre; font-family: Arial-BoldMT, Arial; font-size: 14px; font-weight: bold; line-height: 22.4px; width: 36.5156px; perspective-origin: 18.25px 0px;">PTHg</text>
  <text x="114.112" y="72.653" style="white-space: pre; fill: rgb(51, 51, 51); font-family: sans-serif; font-size: 24px;" transform="matrix(1, 0, 0, 1, 0, 0)"> </text>
  <g transform="matrix(-0.009004000574350357, -0.011295001022517681, 0.03506799787282944, -0.027952004224061966, 23.88432502746582, 33.41477584838867)">
    <path id="rect2834" style="fill:#000000" d="m288-6.6849e-14 -288 288h144v288h288v-288h144l-288-288z"/>
  </g>
  <text class="cls-5" x="38.849" y="15.458" style="fill: rgb(242, 10, 10); font-family: Arial-BoldMT, Arial; font-size: 14px; font-weight: bold; white-space: pre;" transform="matrix(0.7058889865875244, 0, 0, 0.7730200290679932, 5.370015144348144, -0.5426239967346191)">tumor</text>
</svg>