<?xml version="1.0" encoding="utf-8"?>
<svg viewBox="0 0 560 651.164" xmlns="http://www.w3.org/2000/svg" xmlns:bx="https://boxy-svg.com">
  <defs>
    <style>.cls-1,.cls-11,.cls-16,.cls-18,.cls-36,.cls-4,.cls-5{fill:none;}.cls-2{isolation:isolate;}.cls-13,.cls-3{fill:#fbf2f0;}.cls-11,.cls-12,.cls-13,.cls-22,.cls-35,.cls-36,.cls-4,.cls-7{stroke:#c34a29;}.cls-11,.cls-12,.cls-13,.cls-16,.cls-18,.cls-22,.cls-36,.cls-4,.cls-5{stroke-miterlimit:10;}.cls-4{stroke-width:4px;}.cls-5{stroke:#f1d3cc;stroke-width:2px;}.cls-6{clip-path:url(#clip-path);}.cls-7{fill:#f7f7f7;}.cls-14,.cls-23,.cls-24,.cls-25,.cls-26,.cls-35,.cls-36,.cls-7{stroke-linecap:round;}.cls-14,.cls-23,.cls-24,.cls-25,.cls-26,.cls-35,.cls-7{stroke-linejoin:round;}.cls-8{fill:#e5e5e5;}.cls-9{fill:#ccc;}.cls-10,.cls-12{fill:#fff;}.cls-14{fill:#86d2dc;stroke:#39858e;}.cls-15{fill:#edc9bf;}.cls-16{stroke:#ff4c00;}.cls-17,.cls-28{fill:#ff4c00;}.cls-18{stroke:#1a4554;}.cls-19,.cls-21,.cls-27,.cls-29,.cls-31,.cls-32{fill:#1a4554;}.cls-20{fill:#f1d5ce;}.cls-21,.cls-27,.cls-29,.cls-31,.cls-32{font-size:20px;}.cls-21{font-family:ArialMT, Arial;}.cls-22{fill:#d47e67;}.cls-23{fill:#f7d3b0;}.cls-23,.cls-24{stroke:#d46f33;}.cls-24{fill:#f1ac6a;}.cls-25{fill:#f2987f;stroke:#d55a51;}.cls-26{fill:#d393cd;stroke:#a96193;}.cls-27,.cls-28,.cls-31,.cls-32{font-family:Arial-BoldMT, Arial;font-weight:700;}.cls-28{font-size:15px;}.cls-29{font-family:Arial-ItalicMT, Arial;font-style:italic;}.cls-30{letter-spacing:-0.04em;}.cls-31{letter-spacing:0.03em;}.cls-32{letter-spacing:0.03em;}.cls-33{fill:#1c8843;}.cls-34{fill:#fdeabf;}.cls-35{fill:#e9f7f9;stroke-width:1.5px;}.cls-36{stroke-width:0.75px;}.cls-37{mix-blend-mode:multiply;}</style>
    <clipPath id="clip-path">
      <rect class="cls-1" y="0.39" width="560" height="500"/>
    </clipPath>
  </defs>
  <title>Napo_Zooms_170427Zoom Bone</title>
  <g class="cls-2">
    <g id="Zellen_HG" data-name="Zellen HG">
      <path class="cls-3" d="M 148.11 403.214 C 165.3 401.603 178.38 386.69 182.27 370.91 C 186.16 355.13 182.8 338.667 179.02 322.867 C 176.41 311.939 175.6 287.383 170.02 277.464 C 153.4 247.678 112.33 248.382 76.52 250.257 C 51 251.593 29.28 248.086 20 267.403 C 15 277.729 12.86 293.958 15.72 316.659 C 18.33 337.352 14.46 343.632 12.39 364.366 C 11.62 372.143 10.89 380.411 14.66 387.363 C 20 397.169 26.5 404.06 55 404.06 Z"/>
      <path class="cls-4" d="M148.11,398.23c17.19-1.58,30.27-16.21,34.16-31.69s.53-31.63-3.25-47.13c-2.61-10.72-3.42-34.81-9-44.54-16.62-29.22-57.69-28.53-93.5-26.69C51,249.49,29.28,246.05,20,265c-5,10.13-7.14,26.05-4.28,48.32,2.61,20.3-1.26,26.46-3.33,46.8-.77,7.63-1.5,15.74,2.27,22.56C20,392.3,26.5,399.06,55,399.06Z"/>
      <path class="cls-5" d="M148.11,398.23c17.19-1.58,30.27-16.21,34.16-31.69s.53-31.63-3.25-47.13c-2.61-10.72-3.42-34.81-9-44.54-16.62-29.22-57.69-28.53-93.5-26.69C51,249.49,29.28,246.05,20,265c-5,10.13-7.14,26.05-4.28,48.32,2.61,20.3-1.26,26.46-3.33,46.8-.77,7.63-1.5,15.74,2.27,22.56C20,392.3,26.5,399.06,55,399.06Z"/>
      <g class="cls-6">
        <rect class="cls-7" x="-12.03" y="402.85" width="604.95" height="99.19"/>
        <path class="cls-8" d="M575.49,507.84S528,485.73,525,479.61s-2.5-15.64,4.5-23.13S577,413.63,577,413.63v-7.14s-50.87,42-61.75,44.89c-13.5,3.57-27.77,3.49-35.75-.17C467.24,445.6,448.24,433,448.24,433l-3.75,5.78s13.5,9.52,20.5,14.28,10.5,10.55,7.5,16.33-29.05,13.77-41.5,16.83c-14.5,3.58-19.75,2.39-21-4.59-1.05-5.89,19.5-34,19.5-34l-8.75,1.53s-11.9,17.95-15.75,23.3c-5.5,7.65-14.25,9.18-20.5,6.46-12.43-5.41-14.5-18.36-14.5-18.36l-5,.34s5,17.34,4,22.78-6,10.81-21.5,11.57c-27.5,1.36-49.5-6.8-55.5-11.57s-9.48-19.19-9-23.8c.29-2.69,32.1-41.18,42.09-56.28,0,0-6.17-.43-6.17,0S273,455.8,262,458.52s-31.5,4.54-40.5,1.59c-21.23-6.95-44.5-18.25-40.5-25.39,2.87-5.13,22.87-30.84,22.87-30.84l-6.64.21S171,428.25,163.49,431.66s-9-1.37-25-.69-21.5,4.43-35,1.71c-11.5-2.32-60.83-27.52-62.33-27.86l-15.33-1.67S90.07,437,96.07,439.08s9.94,10.27,8.44,14.7,1,12.57-12,17.67S-6.17,503.6-6.17,503.6L-12,519s120.52-47.9,129-50.62,26.48,4.46,37.5,6.8c16,3.4,37.07,10.23,44.67,12.81,8,2.72,9.33,6.58,14.83,16.44s-9,20.75-9,20.75l15.5-.34a53.81,53.81,0,0,1,8.67-18.48c4.33-6.12,20.81-10.91,35.33-11.79,18.67-1.14,79,7.14,91,11.56s7,18.37,7,18.37,48.5,1.36,48.5,0-.39-12.33,9.75-22.28c13-12.75,38-20.58,55.25-20.58,8,0,5.5,6.12,5.5,6.12a101,101,0,0,1-15,36.4l8.5,2.72s11.09-24.3,15.5-30.95c5.75-8.68,14.58-8.83,25.5-7.48,18,2.21,60,29.59,60,29.59ZM204.24,478.59c-6.8,2.57-18.43,1.21-31.33-2.83-9.42-2.95-13-6.5-11.92-10.43,1-3.74,10.71-9.17,15.5-10.89,9.5-3.4,23.95,4.26,29.25,7.32C212.24,465.5,213.24,475.19,204.24,478.59Z"/>
        <ellipse class="cls-9" cx="135.24" cy="446.45" rx="9.75" ry="6.63"/>
        <ellipse class="cls-9" cx="227.7" cy="490.41" rx="9.75" ry="6.63"/>
        <ellipse class="cls-9" cx="389.59" cy="496.97" rx="9.75" ry="6.63"/>
        <ellipse class="cls-9" cx="499.48" cy="466.72" rx="9.75" ry="6.63"/>
      </g>
      <path class="cls-10" d="M 249.74 401.15 C 249.74 401.15 239.747 483.75 386.842 482.33 C 543.474 480.81 514.408 401.15 514.408 401.15"/>
      <path class="cls-11" d="M 244.279 401.47 C 244.279 402 244.17 402.47 244.123 402.98 C 244.077 403.49 244.014 403.98 243.966 404.41 C 243.842 405.31 243.684 406.12 243.513 406.86 C 243.167 408.33 242.726 409.53 242.301 410.75 C 241.088 413.939 241.021 417.261 242.108 420.47 C 242.965 423.716 244.987 426.795 248.016 429.47 C 250.975 432.039 253.469 434.809 255.455 437.73 C 256.245 438.78 256.86 439.73 257.367 440.57 C 257.872 441.41 258.392 442.15 258.771 442.86 C 259.452 444.29 259.974 445.45 260.496 446.64 C 260.975 447.94 261.686 449.201 262.613 450.4 C 263.134 451.09 263.767 451.82 264.54 452.63 C 265.49 453.513 266.517 454.361 267.618 455.17 C 270.871 457.703 275.084 459.671 279.865 460.89 C 280.748 461.14 281.617 461.39 282.531 461.67 C 283.447 461.95 284.456 462.18 285.514 462.51 C 286.57 462.84 287.66 463.23 288.875 463.71 C 290.091 464.19 291.525 464.65 293.04 465.29 C 294.556 465.93 295.866 466.52 297.048 467.03 C 298.139 467.471 299.194 467.948 300.206 468.46 C 302.051 469.37 303.362 470.3 304.94 471.07 C 306.516 471.958 308.182 472.78 309.927 473.53 C 311.043 474.004 312.225 474.409 313.461 474.74 C 314.834 475.12 316.381 475.51 318.194 475.91 C 319.038 476.111 319.896 476.284 320.766 476.43 C 321.588 476.55 322.345 476.65 323.118 476.74 C 324.438 476.897 325.77 477.01 327.108 477.08 C 328.308 477.15 329.396 477.17 330.437 477.18 C 331.479 477.19 332.471 477.09 333.449 477.04 C 338.51 476.699 343.617 476.756 348.656 477.21 C 350.517 477.36 352.126 477.54 353.562 477.74 C 354.997 477.94 356.29 478.06 357.457 478.25 C 359.504 478.599 361.516 479.023 363.486 479.52 C 364.416 479.74 365.346 479.97 366.357 480.18 C 367.366 480.39 368.423 480.52 369.623 480.66 C 372.626 481.009 375.671 481.187 378.723 481.19 C 383.93 481.175 389.091 480.568 393.959 479.4 C 395.93 478.887 397.94 478.44 399.983 478.06 C 402.891 477.594 405.848 477.26 408.831 477.06 C 413.882 476.582 419.01 476.529 424.084 476.9 C 426.207 477.032 428.341 477.078 430.472 477.04 C 433.504 476.891 436.498 476.525 439.4 475.95 C 440.329 475.78 441.181 475.62 441.986 475.45 C 442.789 475.28 443.563 475.05 444.178 474.85 C 445.534 474.45 446.716 474.06 447.757 473.68 C 449.593 473.021 451.307 472.232 452.865 471.33 C 454.402 470.438 456.024 469.607 457.721 468.84 C 460.045 467.732 462.49 466.73 465.037 465.84 C 469.267 464.21 473.708 462.811 478.313 461.66 C 481.503 460.861 484.464 459.736 487.08 458.33 C 488.152 457.68 489.317 456.93 490.579 456.04 C 491.697 455.244 492.694 454.384 493.558 453.47 C 494.282 452.764 494.925 452.025 495.48 451.26 C 496.255 450.031 496.902 448.772 497.416 447.49 C 497.767 446.21 498.241 444.944 498.831 443.7 C 499.162 443 499.461 442.21 499.933 441.37 C 500.406 440.53 500.988 439.6 501.507 438.51 C 503.174 435.545 505.283 432.689 507.808 429.98 C 508.828 428.815 509.703 427.602 510.422 426.35 C 511.334 424.516 511.887 422.619 512.072 420.7 C 512.52 417.441 511.76 414.161 509.854 411.12 C 509.142 409.96 508.463 408.81 507.768 407.39 C 507.435 406.68 507.072 405.91 506.756 405.02 C 506.597 404.59 506.439 404.13 506.249 403.64 L 505.743 402.17" transform="matrix(0.999999, 0.001073, -0.001073, 0.999999, 0.473671, -0.403939)"/>
      <path class="cls-11" d="M 236.043 401.06 C 235.808 403.62 235.621 405.45 235.26 407.06 C 234.9 408.67 234.491 409.91 234.082 411.2 C 231.878 418.047 234.059 425.17 240.145 431 C 243.205 433.784 245.819 436.756 247.947 439.87 C 248.798 441 249.525 442 250.016 442.92 C 250.606 443.719 251.135 444.537 251.596 445.37 C 252.369 446.9 252.971 448.14 253.572 449.37 C 254.138 450.754 254.937 452.095 255.957 453.37 C 256.598 454.189 257.305 454.987 258.073 455.76 C 259.106 456.71 260.218 457.625 261.405 458.5 C 264.912 461.232 269.413 463.383 274.52 464.77 C 275.45 465.05 276.398 465.33 277.359 465.65 C 278.323 465.97 279.426 466.22 280.516 466.59 C 281.604 466.96 282.819 467.38 284.129 467.9 C 285.439 468.42 286.97 468.9 288.611 469.62 C 290.252 470.34 291.672 470.94 292.95 471.48 C 294.229 472.02 295.365 472.48 296.36 473 C 298.347 474 299.816 474.93 301.441 475.73 C 303.143 476.657 304.935 477.515 306.807 478.3 C 307.997 478.796 309.26 479.218 310.578 479.56 C 312.029 479.97 313.733 480.38 315.596 480.8 C 316.557 481.01 317.458 481.22 318.325 481.35 C 319.192 481.48 320.012 481.59 320.785 481.68 C 322.364 481.87 323.72 481.99 324.982 482.07 C 326.244 482.15 327.411 482.18 328.499 482.19 C 329.588 482.2 330.629 482.11 331.654 482.07 C 336.956 481.761 342.297 481.841 347.569 482.31 C 349.511 482.48 351.198 482.66 352.696 482.87 C 354.196 483.08 355.537 483.19 356.735 483.39 C 358.875 483.737 360.983 484.161 363.046 484.66 C 364.009 484.89 364.987 485.11 366.029 485.32 C 367.07 485.53 368.158 485.67 369.404 485.81 C 372.528 486.167 375.695 486.344 378.869 486.34 C 384.252 486.33 389.591 485.721 394.64 484.54 C 396.565 484.09 398.473 483.6 400.87 483.19 C 403.879 482.721 406.935 482.387 410.017 482.19 C 415.277 481.698 420.611 481.62 425.901 481.96 C 428.114 482.081 430.338 482.117 432.558 482.07 C 435.746 481.898 438.893 481.502 441.942 480.89 C 442.92 480.72 443.819 480.54 444.654 480.37 C 445.49 480.2 446.232 479.95 446.988 479.74 C 448.287 479.374 449.555 478.967 450.788 478.52 C 452.748 477.833 454.582 477.011 456.259 476.07 C 457.934 475.152 459.682 474.287 461.494 473.48 C 464.007 472.298 466.64 471.223 469.376 470.26 C 472.011 469.174 474.768 468.212 477.622 467.38 C 479.846 466.63 481.754 466.12 483.693 465.6 C 485.806 465.061 487.815 464.373 489.686 463.55 C 490.897 463.041 492.049 462.479 493.138 461.87 C 494.321 461.16 495.581 460.33 496.969 459.35 C 499.099 457.756 500.924 456.007 502.405 454.14 C 503.29 452.809 504.037 451.443 504.64 450.05 C 505.128 448.74 505.553 447.45 506.339 445.93 C 506.718 445.17 507.063 444.32 507.599 443.4 C 508.134 442.48 508.763 441.46 509.393 440.27 C 511.185 437.055 513.398 433.941 516.009 430.96 C 517.06 429.693 517.966 428.38 518.717 427.03 C 519.656 425.08 520.225 423.066 520.414 421.03 C 520.859 417.527 520.046 414.006 518.038 410.73 C 517.326 409.48 516.63 408.26 515.92 406.73 C 515.208 405.2 514.575 403.39 513.721 400.88" transform="matrix(0.999999, 0.001073, -0.001073, 0.999999, 0.476035, -0.403997)"/>
      <path class="cls-11" d="M 240.205 401.26 C 240 403.58 239.795 405.43 239.432 406.94 C 239.069 408.45 238.643 409.71 238.217 410.94 C 237.014 414.226 236.965 417.64 238.076 420.94 C 238.967 424.27 241.026 427.431 244.101 430.19 C 247.102 432.866 249.65 435.735 251.704 438.75 C 252.524 439.84 253.155 440.82 253.691 441.75 C 254.228 442.68 254.764 443.39 255.158 444.12 C 255.884 445.6 256.452 446.8 257.004 448.03 C 257.531 449.373 258.282 450.677 259.244 451.92 C 259.796 452.63 260.458 453.39 261.263 454.23 C 262.239 455.142 263.292 456.02 264.417 456.86 C 267.773 459.493 272.11 461.555 277.036 462.86 C 277.951 463.13 278.85 463.39 279.781 463.69 C 280.711 463.99 281.784 464.23 282.936 464.58 C 284.087 464.93 285.16 465.33 286.422 465.83 C 287.683 466.33 289.166 466.83 290.743 467.49 C 292.321 468.15 293.693 468.76 294.923 469.29 C 296.154 469.82 297.242 470.29 298.204 470.76 C 300.113 471.69 301.517 472.65 303.078 473.43 C 304.724 474.337 306.457 475.179 308.268 475.95 C 309.418 476.432 310.638 476.844 311.912 477.18 C 313.315 477.57 314.924 477.98 316.786 478.39 C 317.716 478.59 318.584 478.8 319.42 478.92 C 320.256 479.04 321.076 479.15 321.833 479.24 C 323.41 479.42 324.688 479.53 325.934 479.61 C 327.18 479.69 328.285 479.7 329.341 479.71 C 330.398 479.72 331.423 479.63 332.496 479.58 C 337.68 479.257 342.907 479.328 348.065 479.79 C 349.957 479.95 351.614 480.13 353.081 480.33 C 354.547 480.53 355.857 480.66 357.04 480.85 C 359.127 481.198 361.181 481.623 363.191 482.12 C 364.138 482.34 365.084 482.57 366.11 482.78 C 367.135 482.99 368.223 483.12 369.438 483.27 C 372.494 483.616 375.592 483.79 378.697 483.79 C 383.976 483.775 389.209 483.169 394.155 482 C 396.161 481.485 398.21 481.038 400.291 480.66 C 403.247 480.192 406.251 479.858 409.282 479.66 C 414.437 479.176 419.669 479.113 424.85 479.47 C 427.021 479.593 429.202 479.637 431.381 479.6 C 434.486 479.429 437.553 479.047 440.529 478.46 C 441.476 478.293 442.359 478.123 443.179 477.95 C 443.999 477.76 444.757 477.54 445.451 477.34 C 446.854 476.93 448.053 476.53 449.126 476.14 C 451.03 475.47 452.808 474.665 454.426 473.74 C 456.033 472.835 457.718 471.987 459.473 471.2 C 461.896 470.05 464.442 469.007 467.092 468.08 C 469.608 467.039 472.244 466.12 474.979 465.33 C 476.881 464.708 478.835 464.15 480.831 463.66 C 482.868 463.159 484.806 462.508 486.604 461.72 C 487.78 461.245 488.898 460.713 489.948 460.13 C 491.068 459.45 492.282 458.66 493.607 457.72 C 495.657 456.198 497.395 454.518 498.781 452.72 C 499.611 451.44 500.312 450.127 500.879 448.79 C 501.286 447.439 501.813 446.104 502.456 444.79 C 502.803 444.06 503.119 443.24 503.623 442.35 C 504.128 441.46 504.743 440.5 505.343 439.35 C 507.072 436.261 509.231 433.276 511.794 430.43 C 512.827 429.213 513.718 427.95 514.46 426.65 C 515.394 424.751 515.956 422.786 516.132 420.8 C 516.605 417.431 515.855 414.037 513.939 410.88 C 513.23 409.68 512.536 408.49 511.841 407.02 C 511.147 405.55 510.501 403.74 509.744 401.49"/>
      <path class="cls-3" d="M 226.957 380.586 C 239.393 380.586 239.393 427.672 251.828 427.672 C 264.265 427.672 264.247 380.586 276.682 380.586 C 289.119 380.586 289.119 427.672 301.555 427.672 C 313.991 427.672 313.973 380.586 326.408 380.586 C 338.844 380.586 338.844 427.672 351.28 427.672 C 363.717 427.672 363.698 380.586 376.133 380.586 C 388.57 380.586 388.57 427.672 401.005 427.672 C 413.442 427.672 413.442 380.586 425.86 380.586 C 438.278 380.586 438.296 427.672 450.73 427.672 C 463.168 427.672 463.168 380.586 475.604 380.586 C 488.039 380.586 488.039 427.672 500.475 427.672 C 512.912 427.672 512.912 380.586 525.348 380.586 L 534.134 380.729 C 550.498 379.562 567.104 382.204 559.802 364.167 C 557.021 357.308 544.345 347.319 544.345 347.319 C 518.398 329.629 513.411 143.105 375.689 148.285 C 270.808 152.236 253.053 258.037 236.594 307.253 C 229.476 328.525 223.973 336.713 208.646 345.967 C 200.38 350.942 195.301 365.641 202.493 372.58 C 210.889 380.566 220.432 380.075 226.883 380.667"/>
      <path class="cls-4" d="M 226.306 380.706 C 238.767 380.706 238.767 427.673 251.228 427.673 C 263.688 427.673 263.67 380.706 276.129 380.706 C 288.589 380.706 288.589 427.673 301.05 427.673 C 313.51 427.673 313.492 380.706 325.951 380.706 C 338.411 380.706 338.411 427.673 350.872 427.673 C 363.332 427.673 363.314 380.706 375.774 380.706 C 388.234 380.706 388.234 427.673 400.693 427.673 C 413.154 427.673 413.154 380.706 425.597 380.706 C 438.039 380.706 438.057 427.673 450.517 427.673 C 462.978 427.673 462.978 380.706 475.437 380.706 C 487.897 380.706 487.897 427.673 500.358 427.673 C 512.819 427.673 512.819 380.706 525.279 380.706 L 534.079 380.848 C 550.477 379.683 567.114 382.319 559.799 364.327 C 557.013 357.487 544.313 347.522 544.313 347.522 C 518.313 329.878 513.319 143.823 375.328 148.989 C 270.242 152.931 252.452 258.466 235.963 307.558 C 228.832 328.774 223.316 336.944 207.961 346.174 C 199.678 351.137 194.59 365.798 201.795 372.72 C 210.208 380.685 219.771 380.194 226.232 380.787"/>
    </g>
    <g id="Icons">
      <g id="Text">
        <path class="cls-11" d="M180,76.94a7,7,0,0,1,14,0"/>
        <line class="cls-11" x1="187.04" y1="47.8" x2="187.04" y2="69.94"/>
        <path class="cls-11" d="M207.38,76.94a7,7,0,0,1,14,0"/>
        <line class="cls-11" x1="214.38" y1="47.8" x2="214.38" y2="69.94"/>
        <g id="PTH_Rezeptor_klein-3" data-name="PTH Rezeptor klein">
          <g id="Neues_Symbol_3-3" data-name="Neues Symbol 3">
            <path class="cls-14" d="M67.24,236.83l.05,15-30,.09,0-15,10,0a5,5,0,1,0,10,0h0Z"/>
          </g>
        </g>
        <g id="RANKL-4" data-name="RANKL">
          <path class="cls-12" d="M154.25,196.37a5,5,0,1,1-1.17-7A5,5,0,0,1,154.25,196.37Z" style="fill: rgb(0, 55, 255); stroke: rgb(0, 23, 107);"/>
        </g>
        <line class="cls-16" x1="404.3" y1="452.89" x2="404.3" y2="475.12"/>
        <polygon class="cls-17" points="401.03 472.47 401.62 471.93 404.3 474.81 406.99 471.93 407.57 472.47 404.3 475.99 401.03 472.47"/>
        <line class="cls-18" x1="455.34" y1="467.66" x2="455.34" y2="414.83"/>
        <polygon class="cls-19" points="459.02 417.81 458.36 418.43 455.34 415.18 452.32 418.43 451.66 417.81 455.34 413.86 459.02 417.81"/>
        <path class="cls-18" d="M 519.341 447.437 L 506.806 451.037 C 506.806 451.037 476.04 461.718 476.04 433.354 L 476.04 368.95" transform="matrix(0.999999, -0.001544, 0.001544, 0.999999, -0.633894, 0.768845)"/>
        <polygon class="cls-19" points="479.728 371.73 479.068 372.34 476.048 369.09 473.028 372.34 472.368 371.73 476.048 367.77 479.728 371.73"/>
        <path class="cls-3" d="M501.19,51.17c0,13.67-10.31,24.22-27.57,22.9-13.63-1-21.93-9.23-21.93-22.9s11.21-22.85,24.75-24.75C495.38,23.76,501.19,37.5,501.19,51.17Z"/>
        <path class="cls-4" d="M501.19,51.17c0,13.67-10.31,24.22-27.57,22.9-13.63-1-21.93-9.23-21.93-22.9s11.21-22.85,24.75-24.75C495.38,23.76,501.19,37.5,501.19,51.17Z"/>
        <path class="cls-5" d="M501.19,51.17c0,13.67-10.31,24.22-27.57,22.9-13.63-1-21.93-9.23-21.93-22.9s11.21-22.85,24.75-24.75C495.38,23.76,501.19,37.5,501.19,51.17Z"/>
        <circle class="cls-15" cx="475.55" cy="48.56" r="9.32"/>
        <path class="cls-3" d="M469.11,49.08c0,13.66-9.38,28-23.05,28s-26.45-14.32-26.45-28,10.59-27.36,24.26-27.36S469.11,35.41,469.11,49.08Z"/>
        <path class="cls-4" d="M469.11,49.08c0,13.66-9.38,28-23.05,28s-26.45-14.32-26.45-28,10.59-27.36,24.26-27.36S469.11,35.41,469.11,49.08Z"/>
        <path class="cls-5" d="M469.11,49.08c0,13.66-9.38,28-23.05,28s-26.45-14.32-26.45-28,10.59-27.36,24.26-27.36S469.11,35.41,469.11,49.08Z"/>
        <circle class="cls-15" cx="439.23" cy="49.08" r="9.32"/>
        <line class="cls-18" x1="446.73" y1="80.884" x2="446.73" y2="141.789"/>
        <polygon class="cls-19" points="443.05 138.809 443.71 138.189 446.73 141.439 449.75 138.189 450.41 138.809 446.73 142.769 443.05 138.809"/>
        <line class="cls-18" x1="249.65" y1="53.17" x2="410.5" y2="53.17"/>
        <polygon class="cls-19" points="407.52 56.85 406.91 56.19 410.16 53.17 406.91 50.15 407.52 49.49 411.48 53.17 407.52 56.85"/>
        <rect class="cls-20" x="32.93" y="339.19" width="129.32" height="55.14" rx="20" ry="20"/>
        <g id="_Gruppe_" data-name="&lt;Gruppe&gt;">
          <rect class="cls-20" x="54.71" y="338.54" width="87" height="54.5" rx="20" ry="20"/>
          <text class="cls-21" transform="translate(69.98 387.07)" style="white-space: pre;">DNA</text>
          <g id="_Gruppe_2" data-name="&lt;Gruppe&gt;">
            <rect class="cls-22" x="65.96" y="355.31" width="45.26" height="11.25"/>
            <polyline class="cls-16" points="89.49 354.46 111.34 354.46 111.34 348.86 130.1 348.86"/>
            <polygon class="cls-17" points="127.45 352.13 126.9 351.55 129.79 348.86 126.9 346.18 127.45 345.59 130.97 348.86 127.45 352.13"/>
          </g>
        </g>
        <g id="Neues_Symbol_1" data-name="Neues Symbol 1">
          <g id="VDR"/>
          <g id="Deleted_Symbol-10" data-name="Deleted Symbol"/>
        </g>
        <g id="CAP-2" data-name="CAP">
          <circle class="cls-25" cx="443.42" cy="476.5" r="4.5"/>
        </g>
        <g id="CAP-3" data-name="CAP">
          <circle class="cls-25" cx="460.63" cy="480.04" r="4.5"/>
        </g>
        <g id="CAP-4" data-name="CAP">
          <circle class="cls-25" cx="467.27" cy="472.6" r="4.5"/>
        </g>
        <g id="g-2" data-name="RANKL" transform="matrix(1, 0, 0, 1, 68.47180028835922, -73.95089056288961)">
          <path class="cls-12" d="M154.25,196.37a5,5,0,1,1-1.17-7A5,5,0,0,1,154.25,196.37Z" style="fill: rgb(0, 55, 255); stroke-miterlimit: 10; stroke: rgb(0, 23, 107);"/>
        </g>
        <g id="g-3" data-name="RANKL" transform="matrix(1, 0, 0, 1, 38.13586337601211, -114.21495228291396)">
          <path class="cls-12" d="M154.25,196.37a5,5,0,1,1-1.17-7A5,5,0,0,1,154.25,196.37Z" style="fill: rgb(0, 55, 255); stroke-miterlimit: 10; stroke: rgb(0, 23, 107);"/>
        </g>
        <g id="g-8" data-name="RANKL" transform="matrix(1, 0, 0, 1, -97.510834, -52.963337)">
          <path class="cls-12" d="M154.25,196.37a5,5,0,1,1-1.17-7A5,5,0,0,1,154.25,196.37Z" style="fill: rgb(0, 55, 255); stroke-miterlimit: 10; stroke: rgb(0, 23, 107);"/>
        </g>
        <path class="cls-11" d="M 138.56 78.46 C 138.56 73.072 144.393 69.704 149.06 72.398 C 151.225 73.648 152.56 75.959 152.56 78.46" style="fill: none; stroke: rgb(195, 74, 41); stroke-miterlimit: 10;"/>
        <line class="cls-11" x1="145.6" y1="49.32" x2="145.6" y2="71.46" style="fill: none; stroke: rgb(195, 74, 41); stroke-miterlimit: 10;"/>
        <path class="cls-11" d="M 114.089 78.922 C 114.089 73.533 119.922 70.165 124.589 72.86 C 126.755 74.11 128.089 76.421 128.089 78.922" style="fill: none; stroke: rgb(195, 74, 41); stroke-miterlimit: 10;"/>
        <line class="cls-11" x1="121.129" y1="49.782" x2="121.129" y2="71.922" style="fill: none; stroke: rgb(195, 74, 41); stroke-miterlimit: 10;"/>
        <rect class="cls-13" x="97.71" y="20.958" width="144.64" height="36" rx="17" ry="17" style="fill: rgb(251, 242, 240); stroke: rgb(195, 74, 41); stroke-miterlimit: 10;" transform="matrix(1, 0, 0, 1, 6.463797706684289, -1.385156875907196)"/>
        <g id="g-10" data-name="RANKL" transform="matrix(1, 0, 0, 1, -29.179884, -113.403526)">
          <path class="cls-12" d="M154.25,196.37a5,5,0,1,1-1.17-7A5,5,0,0,1,154.25,196.37Z" style="fill: rgb(0, 55, 255); stroke-miterlimit: 10; stroke: rgb(0, 23, 107);"/>
        </g>
        <text style="fill: rgb(51, 51, 51); font-size: 20px; white-space: pre;" x="86.534" y="542.426">OPG: osteoprotegerin</text>
        <text style="fill: rgb(51, 51, 51); font-size: 20px; white-space: pre;" x="87.826" y="575.151">RANK: receptor activator of NFkB </text>
        <text style="fill: rgb(51, 51, 51); font-size: 20px; white-space: pre;" x="86.512" y="608.425">RANK-L: RANK ligand </text>
        <text style="fill: rgb(51, 51, 51); font-size: 20px; white-space: pre;" x="85.512" y="638.426">PTHr: PTH receptor</text>
        <g id="g-11" data-name="RANKL" transform="matrix(1, 0, 0, 1, -43.834362, -82.005737)">
          <path class="cls-12" d="M154.25,196.37a5,5,0,1,1-1.17-7A5,5,0,0,1,154.25,196.37Z" style="fill: rgb(0, 55, 255); stroke-miterlimit: 10; stroke: rgb(0, 23, 107);"/>
        </g>
        <g id="g-12" data-name="RANKL" transform="matrix(1, 0, 0, 1, -64.545082, -98.744537)">
          <path class="cls-12" d="M154.25,196.37a5,5,0,1,1-1.17-7A5,5,0,0,1,154.25,196.37Z" style="fill: rgb(0, 55, 255); stroke-miterlimit: 10; stroke: rgb(0, 23, 107);"/>
        </g>
        <line class="cls-18" x1="500.632" y1="319.378" x2="482.616" y2="222.985" style="fill: none; stroke: rgb(26, 69, 84); stroke-miterlimit: 10;" transform="matrix(0.907767, 0.419475, -0.419475, 0.907767, 161.318652, -184.684892)"/>
        <polygon class="cls-19" points="509.496 222.561 508.836 223.171 505.816 219.921 502.796 223.171 502.136 222.561 505.816 218.601 509.496 222.561" style="fill: rgb(26, 69, 84);" transform="matrix(0.959703, 0.281018, -0.281018, 0.959703, 82.456004, -133.24217)"/>
      </g>
      <g id="_Gruppe_7" data-name="&lt;Gruppe&gt;">
        <circle class="cls-25" cx="522.98" cy="462.41" r="4.5"/>
      </g>
      <g id="_Gruppe_8" data-name="&lt;Gruppe&gt;">
        <circle class="cls-25" cx="534.18" cy="457.71" r="4.5"/>
      </g>
      <g id="_Gruppe_9" data-name="&lt;Gruppe&gt;">
        <circle class="cls-25" cx="538.73" cy="443.99" r="4.5"/>
      </g>
      <circle class="cls-26" cx="547.45" cy="464.47" r="4.5"/>
      <circle class="cls-26" cx="535.23" cy="471.41" r="4.5"/>
      <g id="_Gruppe_10" data-name="&lt;Gruppe&gt;">
        <circle class="cls-26" cx="548.92" cy="453.92" r="4.5"/>
      </g>
      <circle class="cls-26" cx="525.56" cy="447.49" r="4.5"/>
      <g id="_Gruppe_11" data-name="&lt;Gruppe&gt;" transform="matrix(1, 0, 0, 1, 32.32243, -77.824875)">
        <circle class="cls-25" cx="473.7" cy="276.16" r="4.5"/>
      </g>
      <g id="_Gruppe_12" data-name="&lt;Gruppe&gt;" transform="matrix(1, 0, 0, 1, 32.32243, -77.824875)">
        <circle class="cls-25" cx="490.72" cy="271.48" r="4.5"/>
      </g>
      <g id="_Gruppe_13" data-name="&lt;Gruppe&gt;" transform="matrix(1, 0, 0, 1, 32.32243, -77.824875)">
        <circle class="cls-25" cx="490.72" cy="259.03" r="4.5"/>
      </g>
      <circle class="cls-26" cx="537.392" cy="188.385" r="4.5"/>
      <circle class="cls-26" cx="519.232" cy="206.765" r="4.5"/>
      <g id="_Gruppe_14" data-name="&lt;Gruppe&gt;" transform="matrix(1, 0, 0, 1, 32.32243, -77.824875)">
        <circle class="cls-26" cx="503.65" cy="282.7" r="4.5"/>
      </g>
      <circle class="cls-26" cx="509.842" cy="185.395" r="4.5"/>
      <path d="M 370 388 m -5.9 0 a 5.9 6.59 0 1 0 11.8 0 a 5.9 6.59 0 1 0 -11.8 0 Z M 370 388 m -2.265 0 a 2.265 2.529 0 0 1 4.53 0 a 2.265 2.529 0 0 1 -4.53 0 Z" transform="matrix(-0.843664, 0.536874, -0.536879, -0.843661, 616.470873, 219.752569)" style="fill: rgb(255, 191, 0);" bx:shape="ring 370 388 2.265 2.529 5.9 6.59 1@a24e9b98"/>
      <path d="M 370 388 m -5.9 0 a 5.9 6.59 0 1 0 11.8 0 a 5.9 6.59 0 1 0 -11.8 0 Z M 370 388 m -2.265 0 a 2.265 2.529 0 0 1 4.53 0 a 2.265 2.529 0 0 1 -4.53 0 Z" transform="matrix(-0.843663, 0.536873, -0.536878, -0.843661, 638.224199, 240.080186)" style="fill: rgb(255, 191, 0);" bx:shape="ring 370 388 2.265 2.529 5.9 6.59 1@a24e9b98"/>
      <path d="M 370 388 m -5.9 0 a 5.9 6.59 0 1 0 11.8 0 a 5.9 6.59 0 1 0 -11.8 0 Z M 370 388 m -2.265 0 a 2.265 2.529 0 0 1 4.53 0 a 2.265 2.529 0 0 1 -4.53 0 Z" transform="matrix(-0.843664, 0.536872, -0.536879, -0.843661, 640.226473, 321.18731)" style="fill: rgb(255, 191, 0);" bx:shape="ring 370 388 2.265 2.529 5.9 6.59 1@a24e9b98"/>
      <path d="M 370 388 m -5.9 0 a 5.9 6.59 0 1 0 11.8 0 a 5.9 6.59 0 1 0 -11.8 0 Z M 370 388 m -2.265 0 a 2.265 2.529 0 0 1 4.53 0 a 2.265 2.529 0 0 1 -4.53 0 Z" transform="matrix(-0.84366, 0.536872, -0.536878, -0.843661, 584.453097, 268.845117)" style="fill: rgb(255, 191, 0);" bx:shape="ring 370 388 2.265 2.529 5.9 6.59 1@a24e9b98"/>
      <circle class="cls-12" cx="475.762" cy="339.4" r="21.5" style="fill: rgb(255, 255, 255); stroke: rgb(195, 74, 41); stroke-miterlimit: 10;"/>
      <g id="_Gruppe_3" data-name="&lt;Gruppe&gt;" transform="matrix(1, 0, 0, 1, -2.177164, -24.753794)">
        <circle class="cls-25" cx="466.2" cy="367.26" r="4.5" style="fill: rgb(242, 152, 127); stroke: rgb(213, 90, 81); stroke-linecap: round; stroke-linejoin: round;"/>
      </g>
      <g id="_Gruppe_4" data-name="&lt;Gruppe&gt;" transform="matrix(1, 0, 0, 1, -2.177164, -24.753794)">
        <circle class="cls-25" cx="478.16" cy="363.76" r="4.5" style="fill: rgb(242, 152, 127); stroke: rgb(213, 90, 81); stroke-linecap: round; stroke-linejoin: round;"/>
      </g>
      <g id="_Gruppe_5" data-name="&lt;Gruppe&gt;" transform="matrix(1, 0, 0, 1, -2.177164, -24.753794)">
        <circle class="cls-25" cx="481.66" cy="353.46" r="4.5" style="fill: rgb(242, 152, 127); stroke: rgb(213, 90, 81); stroke-linecap: round; stroke-linejoin: round;"/>
      </g>
      <circle class="cls-26" cx="488.233" cy="338.416" r="4.5" style="fill: rgb(211, 147, 205); stroke: rgb(169, 97, 147); stroke-linecap: round; stroke-linejoin: round;"/>
      <circle class="cls-26" cx="471.523" cy="350.826" r="4.5" style="fill: rgb(211, 147, 205); stroke: rgb(169, 97, 147); stroke-linecap: round; stroke-linejoin: round;"/>
      <g id="_Gruppe_6" data-name="&lt;Gruppe&gt;" transform="matrix(1, 0, 0, 1, -2.177164, -24.753794)">
        <circle class="cls-26" cx="485.16" cy="373.35" r="4.5" style="fill: rgb(211, 147, 205); stroke: rgb(169, 97, 147); stroke-linecap: round; stroke-linejoin: round;"/>
      </g>
      <circle class="cls-26" cx="466.283" cy="329.996" r="4.5" style="fill: rgb(211, 147, 205); stroke: rgb(169, 97, 147); stroke-linecap: round; stroke-linejoin: round;"/>
    </g>
    <g id="Text-2" data-name="Text">
      <text class="cls-21" transform="matrix(1, 0, 0, 1.000001, 499.792938, 166.042877)" style="white-space: pre; font-size: 20px;">Ca²</text>
      <text class="cls-27" transform="matrix(1.000004, 0, 0, 1, 532.012939, 159.382889)" style="white-space: pre; font-size: 11.6px;">+</text>
      <text class="cls-21" transform="translate(438.85 244.65)" style="white-space: pre;"> </text>
      <text class="cls-21" transform="translate(459.36 454.42)" style="white-space: pre;">Ca²</text>
      <text class="cls-27" transform="translate(491.59 447.76) scale(0.58)" style="white-space: pre;">+</text>
      <text class="cls-21" transform="translate(498.4 454.42)" style="white-space: pre;"> </text>
      <text class="cls-28" transform="translate(395.22 447.12)" style="white-space: pre;">H</text>
      <text class="cls-28" transform="translate(406.06 442.12) scale(0.58)" style="white-space: pre;">+</text>
      <text class="cls-28" transform="translate(411.16 447.12)" style="white-space: pre;"> </text>
      <text class="cls-28" transform="translate(382.48 461.6)" style="white-space: pre;">H</text>
      <text class="cls-28" transform="translate(393.31 456.61) scale(0.58)" style="white-space: pre;">+</text>
      <text class="cls-28" transform="translate(398.42 461.6)" style="white-space: pre;"> </text>
      <text class="cls-28" transform="translate(412.06 472.45)" style="white-space: pre;">H</text>
      <text class="cls-28" transform="translate(422.89 467.45) scale(0.58)" style="white-space: pre;">+</text>
      <text class="cls-28" transform="translate(428 472.45)" style="white-space: pre;"> </text>
      <text class="cls-29" style="white-space: pre; font-size: 20px;" x="95.326" y="493.312">Osteocyte</text>
      <text class="cls-21" transform="translate(9.07 451.83)" style="white-space: pre;">Bone <tspan x="-1.09" y="20">matrix</tspan></text>
      <text class="cls-21" transform="translate(466.1 97.24)" style="white-space: pre;">mature<tspan x="-13.9" y="20">osteoclast</tspan></text>
      <text class="cls-21" transform="translate(269.94 28.35)" style="white-space: pre;">pre-osteclasts-<tspan x="38.89" y="20">fusion</tspan></text>
      <text class="cls-21" style="white-space: pre;" x="595.893" y="267.439" transform="matrix(1, 0, 0, 0.999999, -303.98642, 205.047653)">collagene<tspan x="611.483" y="287.439" style="font-size: 20px; word-spacing: 0px;">matrix</tspan></text>
      <text class="cls-21" transform="translate(112.32 44.09)" style="white-space: pre;">pre-osteclasts</text>
      <text class="cls-21" style="white-space: pre; font-size: 20px;" x="223.9" y="74.134">RANK</text>
      <text class="cls-21" style="white-space: pre;" x="161.558" y="201.556">RANK-<tspan class="cls-30" x="223.788" y="201.556" style="font-size: 20px; word-spacing: 0px; letter-spacing: -0.8px;">L</tspan></text>
      <text class="cls-21" style="white-space: pre; font-size: 20px;" x="64.89" y="188.369">OPG</text>
      <text class="cls-27" style="white-space: pre;" x="357.475" y="274.682">bone<tspan x="331.915" y="294.682" style="font-size: 20px; word-spacing: 0px;">resorption</tspan></text>
      <text class="cls-21" transform="translate(500.26 488.44)" style="white-space: pre;">P</text>
      <text class="cls-31" transform="matrix(0.999993, 0, 0, 1.000001, 511.56604, 492.710999)" style="white-space: pre; font-size: 11.6px;">i</text>
      <text class="cls-21" style="white-space: pre; font-size: 20px;" x="58.72" y="268.685">PTH</text>
      <text class="cls-32" transform="matrix(1.000001, 0, 0, 1, 98.720413, 274.344788)" style="white-space: pre; font-size: 11.6px;">r</text>
      <g id="Plus-13" data-name="Plus"/>
      <g id="Plus-14" data-name="Plus">
        <circle class="cls-33" cx="35.2" cy="296.81" r="8"/>
        <path class="cls-10" d="M34.07,301.31V298H30.7v-2.31h3.37v-3.34h2.25v3.34H39.7V298H36.32v3.35Z"/>
      </g>
      <g id="Minus-5" data-name="Minus" transform="matrix(1, 0, 0, 1, -61.317192, -15.075423)">
        <circle class="cls-17" cx="121.87" cy="171.1" r="8"/>
        <path class="cls-10" d="M117.37,172.25v-2.31h9v2.31Z"/>
      </g>
      <g id="Plus-17" data-name="Plus"/>
      <g id="Plus-18" data-name="Plus"/>
      <g id="Bone_klein" data-name="Bone klein">
        <circle class="cls-34" cx="50" cy="50.41" r="30"/>
        <path class="cls-35" d="M37.45,60.71a2.17,2.17,0,0,0-.57.51A2.71,2.71,0,0,0,36.34,63c.08,2-.12,8.87-6.59,9.28-4.38.28-6.07-2.83-6.73-5.05a2.81,2.81,0,0,0-2.55-2.06c-2.63-.12-6.77-1.08-7.07-5.88-.74-12,13.94-6.81,13.94-6.81s.38.29,1.95-.56L62.55,34a2.83,2.83,0,0,0,1.14-1.73s-1-9.34,6.56-9.82c6.74-.43,7.13,7.19,7.13,7.19s8.78-1.28,9.22,5.8c.74,12-13.94,6.81-13.94,6.81s-.38-.29-2,.56Z"/>
        <path class="cls-36" d="M80.07,35.05s-3-.39-2.69-5.41"/>
        <path class="cls-36" d="M19.93,59.66s3,.39,2.69,5.41"/>
      </g>
      <line class="cls-18" x1="201.797" y1="117.023" x2="201.056" y2="86.046" transform="matrix(0.761533, -0.648126, 0.648126, 0.761533, -15.464841, 153.640333)"/>
      <polygon class="cls-19" points="197.94 91.526 197.28 92.136 194.26 88.886 191.24 92.136 190.58 91.526 194.26 87.566 197.94 91.526" transform="matrix(0.761533, -0.648126, 0.648126, 0.761533, -11.910172, 147.331509)"/>
      <g id="g-6" data-name="Plus" transform="matrix(1, 0, 0, 1, 18.802767, -100.728401)">
        <circle class="cls-33" cx="150.18" cy="171.1" r="8" style="fill: rgb(28, 136, 67);"/>
        <path class="cls-10" d="M149.05,175.6v-3.35h-3.37v-2.31h3.37V166.6h2.25v3.34h3.38v2.31H151.3v3.35Z" style="fill: rgb(255, 255, 255);"/>
      </g>
      <line class="cls-18" x1="225.619" y1="151.757" x2="143.363" y2="162.019" style="fill: none; stroke: rgb(26, 69, 84); stroke-miterlimit: 10;" transform="matrix(-0.761533, 0.648126, -0.648126, -0.761533, 426.670191, 156.789926)"/>
      <polygon class="cls-19" points="215.499 128.709 214.839 129.319 211.819 126.07 208.799 129.319 208.139 128.709 211.819 124.75 215.499 128.709" style="fill: rgb(26, 69, 84);" transform="matrix(0.71016, 0.70404, -0.70404, 0.71016, 150.830962, -112.30942)"/>
      <text class="cls-21" style="font-size: 15px; white-space: pre;" x="-57.443" y="-17.502"><tspan x="18.405" y="131.838" style="font-size: 15px; word-spacing: 0px;">bound RANK-L</tspan></text>
      <path class="cls-5" d="M 226.366 380.588 C 238.836 380.588 238.836 427.523 251.305 427.523 C 263.774 427.523 263.757 380.588 276.225 380.588 C 288.693 380.588 288.693 427.523 301.164 427.523 C 313.632 427.523 313.613 380.588 326.082 380.588 C 338.551 380.588 338.551 427.523 351.021 427.523 C 363.491 427.523 363.472 380.588 375.94 380.588 C 388.41 380.588 388.41 427.523 400.88 427.523 C 413.349 427.523 413.349 380.588 425.798 380.588 C 438.249 380.588 438.268 427.523 450.738 427.523 C 463.206 427.523 463.206 380.588 475.676 380.588 C 488.145 380.588 488.145 427.523 500.615 427.523 C 513.082 427.523 513.082 380.588 525.551 380.588 L 534.359 380.73 C 550.768 379.567 567.42 382.2 560.099 364.222 C 557.31 357.386 544.599 347.427 544.599 347.427 C 518.583 329.795 513.585 143.868 375.495 149.033 C 270.334 152.971 252.531 258.433 236.029 307.491 C 228.894 328.694 223.375 336.855 208.005 346.081 C 199.72 351.038 194.627 365.691 201.837 372.608 C 210.256 380.568 219.826 380.077 226.293 380.67" style="fill: none; stroke: rgb(241, 211, 204); stroke-miterlimit: 10; stroke-width: 2px;"/>
      <text class="cls-21" style="white-space: pre; font-family: ArialMT, Arial; font-size: 20px; line-height: 32px; width: 62.2188px; perspective-origin: 31.1094px 0px; fill: rgb(26, 69, 84);" x="46.18" y="417.282">osteoblast</text>
      <g id="PTH_kugel-5" data-name="PTH kugel" transform="matrix(1, 0, 0, 1, -380.1551118321837, 94.74251797075254)">
        <circle class="cls-10" cx="408.62" cy="138.08" r="4.5" style="fill: rgb(146, 214, 223); stroke: rgb(57, 133, 142); stroke-linecap: round; stroke-linejoin: round;"/>
      </g>
      <g id="g-13" data-name="PTH kugel" transform="matrix(1, 0, 0, 1, -357.42807, 93.027267)">
        <circle class="cls-10" cx="408.62" cy="138.08" r="4.5" style="fill: rgb(146, 214, 223); stroke: rgb(57, 133, 142); stroke-linecap: round; stroke-linejoin: round;"/>
      </g>
      <g id="g-14" data-name="PTH kugel" transform="matrix(1, 0, 0, 1, -390.875427, 78.876465)">
        <circle class="cls-10" cx="408.62" cy="138.08" r="4.5" style="fill: rgb(146, 214, 223); stroke: rgb(57, 133, 142); stroke-linecap: round; stroke-linejoin: round;"/>
      </g>
      <g id="g-15" data-name="PTH kugel" transform="matrix(1, 0, 0, 1, -326.553589, 98.60183)">
        <circle class="cls-10" cx="408.62" cy="138.08" r="4.5" style="fill: rgb(146, 214, 223); stroke: rgb(57, 133, 142); stroke-linecap: round; stroke-linejoin: round;"/>
      </g>
      <text class="cls-21" style="white-space: pre; font-size: 20px; font-family: ArialMT, Arial; width: 157.422px; perspective-origin: 78.7031px 0px; fill: rgb(26, 69, 84);" x="32.059" y="219.533">PTH</text>
    </g>
    <g id="Zoom_Rahmen" data-name="Zoom Rahmen">
      <g id="Neues_Symbol_2-6" data-name="Neues Symbol 2">
        <g id="Kidney_klein-9" data-name="Kidney klein">
          <circle class="cls-1" cx="50" cy="50" r="30"/>
        </g>
        <rect class="cls-1" width="560" height="500"/>
      </g>
    </g>
  </g>
  <line style="fill: rgb(26, 69, 84); stroke-width: 4; stroke: rgb(26, 69, 84);" x1="18.189" y1="317.009" x2="87.842" y2="271.011" transform="matrix(-0.539989, 0.841672, -0.841672, -0.539989, 329.103347, 408.150386)"/>
  <line style="fill: rgb(26, 69, 84); stroke-width: 4; stroke: rgb(26, 69, 84);" x1="50.008" y1="321.206" x2="75.766" y2="333.261" transform="matrix(-0.3289, 0.944365, -0.944365, -0.3289, 392.598317, 375.472294)"/>
  <line style="fill: rgb(26, 69, 84); stroke-width: 4; stroke: rgb(26, 69, 84);" x1="32.66" y1="322.073" x2="56.894" y2="335.627" transform="matrix(0.963074, 0.269237, -0.269237, 0.963074, 90.462308, -1.178319)" bx:origin="0.696 0.526"/>
  <line style="stroke-width: 4; fill: rgb(26, 69, 84); stroke-dasharray: 4px; stroke: rgb(26, 69, 84);" x1="50.254" y1="308.875" x2="162.108" y2="236.82" transform="matrix(0.704585, -0.70962, 0.70962, 0.704585, -162.2505, 155.951418)"/>
  <line style="stroke-width: 4; fill: rgb(26, 69, 84); stroke: rgb(26, 69, 84);" x1="110.793" y1="204.188" x2="121.688" y2="211.664" transform="matrix(0.44133, -0.897345, 0.897345, 0.44133, -121.641244, 220.469854)"/>
  <line style="stroke-width: 4; fill: rgb(26, 69, 84); stroke: rgb(26, 69, 84);" x1="113.371" y1="204.808" x2="124.714" y2="211.319" transform="matrix(-0.938529, -0.3452, 0.3452, -0.938529, 163.195201, 445.526258)" bx:origin="0.696 0.526"/>
  <line style="stroke-width: 4; fill: rgb(26, 69, 84); stroke-dasharray: 4px; stroke: rgb(26, 69, 84);" x1="55.569" y1="305.662" x2="178.309" y2="229.345" transform="matrix(0.807526, -0.589832, 0.589832, 0.807526, -132.96952, 123.261991)"/>
  <line style="stroke-width: 4; fill: rgb(26, 69, 84); stroke: rgb(26, 69, 84);" x1="137.09" y1="199.107" x2="147.985" y2="206.583" transform="matrix(0.577113, -0.816664, 0.816664, 0.577113, -105.379014, 202.185741)"/>
  <line style="stroke-width: 4; fill: rgb(26, 69, 84); stroke: rgb(26, 69, 84);" x1="139.557" y1="200.514" x2="150.9" y2="207.025" transform="matrix(-0.872471, -0.488666, 0.488666, -0.872471, 176.441115, 453.924085)" bx:origin="0.696 0.526"/>
</svg>