<?xml version="1.0" encoding="iso-8859-1"?>
<!-- Generator: Adobe Illustrator 19.0.0, SVG Export Plug-In . SVG Version: 6.00 Build 0)  -->
<svg version="1.1" id="Layer_1" xmlns="http://www.w3.org/2000/svg" xmlns:xlink="http://www.w3.org/1999/xlink" x="0px" y="0px"
	 viewBox="0 0 496.158 496.158" style="enable-background:new 0 0 496.158 496.158;" xml:space="preserve">
<path style="fill:#A3D5E0;" d="M248.082,0.003C111.07,0.003,0,111.063,0,248.085c0,137.001,111.07,248.07,248.082,248.07
	c137.006,0,248.076-111.069,248.076-248.07C496.158,111.062,385.088,0.003,248.082,0.003z"/>
<path style="fill:#261D17;" d="M394.818,382.733c-7.312-27.279-69.907-49.333-147.073-49.333s-139.095,22.054-146.407,49.333
	c-3.259,12.158-6.962,35.192-10.126,57.525c42.747,34.934,97.357,55.897,156.87,55.897c59.509,0,114.116-20.963,156.862-55.896
	C401.78,417.926,398.077,394.891,394.818,382.733z"/>
<path style="fill:#703A24;" d="M286.969,282.118h-77.78c12.136,36.588,0.978,53.294,0.978,53.294s14.245,17.333,37.912,17.333
	s37.912-17.333,37.912-17.333S274.833,318.706,286.969,282.118z"/>
<path style="fill:#261D17;" d="M248.08,61.579c-48.741,0-88.254,21.167-88.254,113.596c0,31.266,6.19,55.765,15.462,74.673
	c20.396,41.598,55.7,56.136,72.792,56.136s52.396-14.538,72.79-56.136c9.271-18.908,15.462-43.407,15.462-74.673
	C336.332,82.746,296.819,61.579,248.08,61.579z"/>
<path style="fill:#86492C;" d="M248.08,61.579c-48.415,0-87.726,20.885-88.249,111.75c-0.003,0.612,7.557,1.228,7.557,1.846
	c0,31.266,12.359,97.904,80.692,97.904s80.69-66.638,80.69-97.904c0-0.703,7.559-1.402,7.555-2.097
	C335.729,82.425,296.448,61.579,248.08,61.579z"/>
<g>
	<circle style="fill:#261D17;" cx="294.579" cy="81.079" r="21"/>
	<circle style="fill:#261D17;" cx="263.579" cy="74.079" r="21"/>
	<circle style="fill:#261D17;" cx="232.579" cy="74.079" r="21"/>
	<circle style="fill:#261D17;" cx="201.579" cy="81.079" r="21"/>
</g>
<g>
	<path style="fill:#86492C;" d="M161.396,178.019c-8.438,1.443-14.856,5.077-10.096,32.922s10.673,29.141,19.112,27.698
		L161.396,178.019z"/>
	<path style="fill:#86492C;" d="M334.86,178.019l-9.016,60.62c8.438,1.443,14.35,0.148,19.111-27.698
		C349.717,183.096,343.298,179.462,334.86,178.019z"/>
</g>
<g>
</g>
<g>
</g>
<g>
</g>
<g>
</g>
<g>
</g>
<g>
</g>
<g>
</g>
<g>
</g>
<g>
</g>
<g>
</g>
<g>
</g>
<g>
</g>
<g>
</g>
<g>
</g>
<g>
</g>
</svg>
