<?xml version="1.0" encoding="utf-8"?>
<svg viewBox="-1.7782211303710938 -1.18548583984375 176.36245727539062 39.43888473510742" xmlns="http://www.w3.org/2000/svg">
  <g transform="matrix(1.5851449330647787, 0, 0, 1.5851449330647787, 103.94021987915039, 74.72826385498047)">
    <g id="g2350" transform="matrix(1, 0, 0, 1, -62.571426, -64.439995)">
      <rect id="rect2344" style="stroke-linejoin:round;color:#000000;stroke:#ffffff;stroke-linecap:round;stroke-width:5;fill:none" height="5" width="11.25" y="27.5" x="3.125"/>
      <rect id="rect2345" style="stroke-linejoin:round;color:#000000;stroke:#ffffff;stroke-linecap:round;stroke-width:5;fill:none" height="5" width="11.25" y="27.5" x="45.625"/>
      <rect id="rect2346" style="stroke-linejoin:round;color:#000000;stroke:#ffffff;stroke-linecap:round;stroke-width:5;fill:none" height="5" width="11.25" y="27.5" x="24.375"/>
    </g>
    <g id="g2339" transform="matrix(1, 0, 0, 1, -62.571426, -58.093895)">
      <rect id="rect1093" style="fill-rule:evenodd;color:#000000;fill:#000000" height="5" width="11.25" y="21.154" x="3.125"/>
      <rect id="rect1715" style="fill-rule:evenodd;color:#000000;fill:#000000" height="5" width="11.25" y="21.154" x="45.625"/>
      <rect id="rect2338" style="fill-rule:evenodd;color:#000000;fill:#000000" height="5" width="11.25" y="21.154" x="24.375"/>
    </g>
  </g>
  <g transform="matrix(0, 0.027665, -0.103789, 0, 169.318756, 12.268536)">
    <path id="rect2834" style="fill:#000000" d="M 288 6.545 L 0 294.545 L 144 294.545 L 144 582.545 L 432 582.545 L 432 294.545 L 576 294.545 L 288 6.545 Z"/>
  </g>
</svg>