<?xml version="1.0" encoding="iso-8859-1"?>
<!-- Generator: Adobe Illustrator 19.0.0, SVG Export Plug-In . SVG Version: 6.00 Build 0)  -->
<svg version="1.1" id="Layer_1" xmlns="http://www.w3.org/2000/svg" xmlns:xlink="http://www.w3.org/1999/xlink" x="0px" y="0px"
	 viewBox="0 0 496.2 496.2" style="enable-background:new 0 0 496.2 496.2;" xml:space="preserve">
<path style="fill:#E5AA17;" d="M496.2,248.1C496.2,111.1,385.1,0,248.1,0S0,111.1,0,248.1s111.1,248.1,248.1,248.1
	S496.2,385.1,496.2,248.1z"/>
<path style="fill:#E2A379;" d="M247.8,333.4c-77.2,0-139.1,22.1-146.4,49.3c-3.3,12.2-7,35.2-10.1,57.5
	c42.7,34.9,97.4,55.9,156.9,55.9s114.1-21,156.9-55.9c-3.2-22.3-6.9-45.4-10.1-57.5C387.5,355.5,324.9,333.4,247.8,333.4z"/>
<path style="fill:#8E502E;" d="M302.2,337.3c-16.8-2.5-35.2-3.9-54.4-3.9c-19,0-37.2,1.3-53.8,3.8l54.1,90.7L302.2,337.3z"/>
<path style="fill:#9AE8F4;" d="M101.4,382.8c-3.3,12.2-7,35.2-10.1,57.5c42.7,34.9,97.4,55.9,156.9,55.9s114.1-21,156.9-55.9
	c-3.2-22.3-6.9-45.4-10.1-57.5c-5.5-20.5-42.1-38-92.6-45.5l-54.3,90.6L194,337.2C143.4,344.6,106.9,362.2,101.4,382.8z"/>
<rect x="140.3" y="433.6" style="fill:#D2FAFC;" width="63" height="10.5"/>
<g>
	<path style="fill:#3F3F3F;" d="M214.8,312c-34.9,8.6-59.8,30.2-59.8,55.4v85.3h5v-85.3c0-22.7,22.7-42.2,54.7-50.3
		C214.9,315.5,214.9,313.8,214.8,312z"/>
	<path style="fill:#3F3F3F;" d="M281.4,312c0,1.8,0,3.5,0.1,5.1c32.1,8.1,54.7,27.6,54.7,50.3v15.7h5v-15.6
		C341.2,342.2,316.3,320.6,281.4,312z"/>
</g>
<circle style="fill:#5E5E5E;" cx="157.6" cy="444" r="16.7"/>
<circle style="fill:#828282;" cx="157.6" cy="444" r="14.6"/>
<circle style="fill:#5E5E5E;" cx="157.6" cy="444" r="10.3"/>
<circle style="fill:#828282;" cx="157.6" cy="444" r="7.4"/>
<g>
	<path style="fill:#69696B;" d="M349.4,459.3c-5.8,0-13.5-0.1-20.1-3.6c-8.3-4.4-12.6-13.1-12.6-25.7v-21.6h4V430
		c0,11.2,3.4,18.5,10.4,22.2c6,3.2,13.4,3.2,18.9,3.2h0.6v4H350C349.8,459.3,349.6,459.3,349.4,459.3z"/>
	<path style="fill:#69696B;" d="M354.9,457.3c0,2.3-1.9,4.2-4.2,4.2l0,0c-2.3,0-4.2-1.9-4.2-4.2l0,0c0-2.3,1.9-4.2,4.2-4.2l0,0
		C352.9,453,354.9,454.9,354.9,457.3L354.9,457.3z"/>
</g>
<g>
	<path style="fill:#8D8D8E;" d="M327.8,459.2c-0.2,0-0.4,0-0.6,0h-0.6v-4h0.6c5.4,0,12.9,0,18.9-3.2c7-3.7,10.4-11,10.4-22.2v-21.6
		h4v21.6c0,12.7-4.2,21.3-12.6,25.7C341.3,459.1,333.6,459.2,327.8,459.2z"/>
	<path style="fill:#8D8D8E;" d="M322.4,457.2c0,2.3,1.9,4.2,4.2,4.2l0,0c2.3,0,4.2-1.9,4.2-4.2l0,0c0-2.3-1.9-4.2-4.2-4.2l0,0
		C324.3,452.9,322.4,454.8,322.4,457.2L322.4,457.2z"/>
</g>
<path style="fill:#3F3F3F;" d="M358.5,410.8c-1.4,0-2.5-1.1-2.5-2.5v-6.6c0-9.6-7.8-17.4-17.4-17.4s-17.4,7.8-17.4,17.4v6.6
	c0,1.4-1.1,2.5-2.5,2.5s-2.5-1.1-2.5-2.5v-6.6c0-12.3,10-22.4,22.4-22.4s22.4,10,22.4,22.4v6.6C361,409.6,359.9,410.8,358.5,410.8z"
	/>
<path style="fill:#8E502E;" d="M287,282.1h-77.8c12.1,36.6,1,53.3,1,53.3l26.9,12.9h22l26.9-12.9C286,335.4,274.9,318.7,287,282.1z"
	/>
<path style="fill:#9B5C32;" d="M327.9,175.2c0-92.4-35.7-113.6-79.8-113.6c-44,0-79.8,21.2-79.8,113.6c0,31.3,5.6,55.8,14,74.7
	c18.4,41.6,50.3,56.1,65.8,56.1s47.3-14.5,65.8-56.1C322.3,231,327.9,206.5,327.9,175.2z"/>
<path style="fill:#8C4B2F;" d="M274.8,263.8c0,0-14.2,9.6-26.7,9.6s-26.7-9.6-26.7-9.6c0-1.4,11.3-5.3,16.1-6
	c3-0.5,10.6,2.5,10.6,2.5s7.5-2.9,10.4-2.5C263.4,258.5,274.8,263.8,274.8,263.8z"/>
<path style="fill:#823F27;" d="M274.8,263.8c0,0-14.2,13.5-26.7,13.5s-26.7-13.5-26.7-13.5s6.5,1.5,19.6,0.7c2.2-0.1,5.1,1.6,7,1.6
	c1.7,0,4.2-1.8,6.1-1.7C267.9,265.2,274.8,263.8,274.8,263.8z"/>
<g>
	<path style="fill:#141414;" d="M248.1,61.6c-48.7,0-82.7,25.6-82.7,118c0,0,82.7-45.9,82.7-79.5V61.6z"/>
	<path style="fill:#141414;" d="M248,61.6c48.7,0,82.8,25.6,82.8,118c0,0-82.7-45.9-82.7-79.5L248,61.6z"/>
</g>
<rect x="173.1" y="52.7" style="fill:#E4F0F2;" width="150" height="63"/>
<circle style="fill:#D61E1E;" cx="248.1" cy="84.6" r="23.3"/>
<g>
	<rect x="232.1" y="80.3" style="fill:#E6E7E8;" width="32.1" height="8.5"/>
	<rect x="243.8" y="68.6" style="fill:#E6E7E8;" width="8.5" height="32.1"/>
</g>
<path style="fill:#8E502E;" d="M210.2,335.4c0,0-14.8,36.7,37.6,36.7s38.2-36.7,38.2-36.7L247.8,317L210.2,335.4z"/>
<g>
	<path style="fill:#9B5C32;" d="M160.7,207.7c4.3,25.2,9.6,26.3,17.3,25l-8.1-54.8C162.2,179.3,156.4,182.6,160.7,207.7z"/>
	<path style="fill:#9B5C32;" d="M326.5,178l-8.1,54.8c7.6,1.3,13,0.1,17.3-25C339.9,182.6,334.1,179.3,326.5,178z"/>
</g>
<g>
	<path style="fill:#141414;" d="M174.8,183.1c-0.4-2.7-0.5-5.2-0.4-7.1c0.1-2.9,0.5-4.7,0.5-4.7l-9.4,3.5c0,1.4,0,2.9,0,4.3
		c0,0,1-0.3,2.8-0.9c-0.1,0-0.2,0.1-0.3,0.1c1.3,2.2,2.9,5.6,4.5,10.5C172.4,188.8,176.1,191.5,174.8,183.1z"/>
	<path style="fill:#141414;" d="M321.9,176c0.1,2,0,4.4-0.4,7.1c-1.3,8.4,2.3,5.7,2.3,5.7c1.5-5,3.2-8.3,4.4-10.5
		c1.6,0.6,2.5,0.8,2.5,0.8c0-1.5,0-2.9,0-4.3l-9.3-3.5C321.4,171.3,321.8,173.1,321.9,176"/>
</g>
<g>
</g>
<g>
</g>
<g>
</g>
<g>
</g>
<g>
</g>
<g>
</g>
<g>
</g>
<g>
</g>
<g>
</g>
<g>
</g>
<g>
</g>
<g>
</g>
<g>
</g>
<g>
</g>
<g>
</g>
</svg>
