<?xml version="1.0" encoding="utf-8"?>
<svg viewBox="-176.12331581115723 -41.05129909515381 112.66112518310547 96.10816955566406" xmlns="http://www.w3.org/2000/svg">
  <path class="cls-12" d="M -113.405 -8.564 C -113.405 -8.564 -111.665 -14.564 -113.905 -19.724 C -116.145 -24.884 -122.215 -28.404 -122.215 -28.404 C -122.215 -28.404 -120.855 -23.194 -124.795 -20.044 C -129.635 -16.174 -139.335 -12.904 -143.545 -6.764 C -145.697 -3.752 -146.787 -0.112 -146.645 3.586 C -146.645 3.586 -155.865 4.946 -157.995 12.036 C -160.295 19.656 -157.045 35.036 -124.785 35.956 C -94.335 36.856 -87.485 26.456 -87.485 18.386 C -87.485 6.726 -100.125 4.206 -100.125 4.206 C -100.125 4.206 -98.885 -1.004 -103.845 -5.714 C -107.705 -9.364 -113.405 -8.564 -113.405 -8.564 Z" style="fill: rgb(213, 166, 150); stroke: rgb(174, 85, 54); stroke-linecap: round; stroke-linejoin: round; stroke-width: 2px;"/>
  <path class="cls-11" d="M -135.232 2.777 C -135.232 2.777 -117.085 1.419 -112.548 -10.657" style="fill: none; stroke: rgb(174, 85, 54); stroke-linecap: round; stroke-linejoin: round;"/>
  <path class="cls-11" d="M -100.365 5.132 C -100.365 5.132 -105.825 13.812 -124.125 13.812 C -140.985 13.812 -146.865 4.512 -146.865 4.512" style="fill: none; stroke: rgb(174, 85, 54); stroke-linecap: round; stroke-linejoin: round;"/>
</svg>