<?xml version="1.0" encoding="utf-8"?>
<svg viewBox="0 0 500 500" xmlns="http://www.w3.org/2000/svg" xmlns:xlink="http://www.w3.org/1999/xlink">
  <defs>
    <style>.cls-1{fill:url(#Unbenannter_Verlauf_18);}.cls-2{fill:url(#Unbenannter_Verlauf_14);}.cls-3{fill:#fff;filter:url(#luminosity-invert-noclip);}.cls-4{fill:url(#Unbenannter_Verlauf_18-2);}.cls-5{fill:url(#Unbenannter_Verlauf_14-2);}.cls-25,.cls-26,.cls-6{fill:none;}.cls-10,.cls-11,.cls-12,.cls-13,.cls-14,.cls-16,.cls-17,.cls-19,.cls-21,.cls-23,.cls-6,.cls-7,.cls-8,.cls-9{stroke:#ae5536;}.cls-6{stroke-width:3px;}.cls-7{fill:#c27f68;}.cls-10,.cls-11,.cls-12,.cls-13,.cls-14,.cls-19,.cls-23,.cls-25,.cls-26,.cls-7,.cls-8,.cls-9{stroke-miterlimit:10;}.cls-10,.cls-11,.cls-12,.cls-13,.cls-14,.cls-16,.cls-17,.cls-7,.cls-8,.cls-9{stroke-width:0.5px;}.cls-8{fill:#dbb4a7;}.cls-9{fill:#f4e7e3;}.cls-10{fill:#e4c7bd;}.cls-11{fill:#e3b4a1;}.cls-12{fill:#b5d8e1;}.cls-13,.cls-17,.cls-19,.cls-21{fill:#f6e6a7;}.cls-14,.cls-23{fill:#eac83b;}.cls-15{mask:url(#mask);}.cls-16{fill:#f4e9e5;}.cls-16,.cls-17,.cls-21{stroke-linecap:round;stroke-linejoin:round;}.cls-18{fill:#999;}.cls-20{mask:url(#mask-2);}.cls-22{mask:url(#mask-3);}.cls-24{font-size:13px;fill:#314a5a;font-family:ArialMT, Arial;letter-spacing:0.03em;}.cls-25{stroke:#fff;stroke-width:6px;}.cls-26{stroke:#314a5a;stroke-width:2px;}.cls-27{filter:url(#luminosity-noclip-2);}.cls-28{filter:url(#luminosity-noclip);}</style>
    <linearGradient id="Unbenannter_Verlauf_18" x1="-1057.3" y1="-899.49" x2="-1036.21" y2="-899.49" gradientTransform="translate(1254.53 1144.62) scale(0.96 1)" gradientUnits="userSpaceOnUse">
      <stop offset="0.59"/>
      <stop offset="1" stop-color="#fff"/>
    </linearGradient>
    <linearGradient id="Unbenannter_Verlauf_14" x1="1066.56" y1="-976.61" x2="1087.66" y2="-976.61" gradientTransform="translate(-813.97 1155.4) scale(0.96 1)" gradientUnits="userSpaceOnUse">
      <stop offset="0.59"/>
      <stop offset="1" stop-color="#fff"/>
    </linearGradient>
    <linearGradient id="Unbenannter_Verlauf_18-2" x1="17394.41" y1="13425.33" x2="17400.3" y2="13425.33" gradientTransform="matrix(-0.05, -0.96, -1, 0.05, 14306.85, 16102.41)" gradientUnits="userSpaceOnUse">
      <stop offset="0.59"/>
      <stop offset="1" stop-color="#fff"/>
    </linearGradient>
    <linearGradient id="Unbenannter_Verlauf_14-2" x1="-2390.13" y1="6561.64" x2="-2384.24" y2="6561.64" gradientTransform="matrix(0.4, 0.88, 0.91, -0.42, -4973.86, 4855.75)" gradientUnits="userSpaceOnUse">
      <stop offset="0.59"/>
      <stop offset="1" stop-color="#fff"/>
    </linearGradient>
    <filter id="luminosity-noclip" x="35.34" y="34.31" width="15.48" height="26.33" filterUnits="userSpaceOnUse" color-interpolation-filters="sRGB">
      <feFlood flood-color="#fff" result="bg"/>
      <feBlend in="SourceGraphic" in2="bg"/>
    </filter>
    <mask id="mask" x="35.34" y="34.31" width="15.48" height="26.33" maskUnits="userSpaceOnUse">
      <g class="cls-28">
        <polygon class="cls-4" points="37.93 54.98 38.22 60.64 44.11 60.34 43.82 54.67 37.93 54.98"/>
        <polygon class="cls-5" points="43.06 39.47 40.7 34.31 35.34 36.76 37.7 41.92 43.06 39.47"/>
      </g>
    </mask>
    <filter id="luminosity-noclip-2" x="200.26" y="168.64" width="59.75" height="89.83" filterUnits="userSpaceOnUse" color-interpolation-filters="sRGB">
      <feFlood flood-color="#fff" result="bg"/>
      <feBlend in="SourceGraphic" in2="bg"/>
    </filter>
    <mask id="mask-2" x="200.26" y="168.64" width="59.75" height="89.83" maskUnits="userSpaceOnUse">
      <g class="cls-27">
        <rect class="cls-1" x="236.31" y="234.59" width="20.31" height="21.09" transform="translate(109.36 564.58) rotate(-111.62)"/>
        <rect class="cls-2" x="213.17" y="168.25" width="20.31" height="21.09" transform="translate(402.12 -44.53) rotate(90)"/>
      </g>
    </mask>
    <filter id="luminosity-invert-noclip" x="199.69" y="205.33" width="34.58" height="31.29" filterUnits="userSpaceOnUse" color-interpolation-filters="sRGB">
      <feColorMatrix values="-1 0 0 0 1 0 -1 0 0 1 0 0 -1 0 1 0 0 0 1 0" result="invert"/>
      <feFlood flood-color="#fff" result="bg"/>
      <feBlend in="invert" in2="bg"/>
    </filter>
    <mask id="mask-3" x="199.69" y="205.33" width="34.58" height="31.29" maskUnits="userSpaceOnUse">
      <path class="cls-3" d="M229.13,216.08l1.65,7.21,3.48-1.5s-.32-7.9-.33-6.22C233.94,215.65,229.13,216.08,229.13,216.08Z"/>
    </mask>
    <symbol id="Kidey_zoom" data-name="Kidey zoom" viewBox="0 0 161.72 202.21">
      <path class="cls-6" d="M160,27.07l-.05.18-1.39,5.16L145.36,81.15,144.05,86l-1.38,5.1-1.31,4.85L139,104.69l-24.83,91.79H51.65L24.37,103.66,21.83,95l-1.41-4.8-1.48-5-1.41-4.8L3.3,32l-1.48-5L7.06,15.8a195.5,195.5,0,0,1,147.82.42Z"/>
      <path class="cls-6" d="M159.94,27.24l-1.39,5.16L145.36,81.14,144.05,86l-1.38,5.1-1.31,4.85L139,104.68l-24.83,91.79H51.65L24.37,103.65,21.83,95l-1.41-4.8-1.48-5-1.41-4.8L3.3,32,1.8,26.84a187.39,187.39,0,0,1,158.14.4Z"/>
      <path class="cls-6" d="M158.55,32.4,145.36,81.14,144.05,86l-1.38,5.1-1.31,4.85L139,104.68l-24.83,91.79H51.65L24.37,103.65,21.83,95l-1.41-4.8-1.48-5-1.41-4.8L3.3,32a182.1,182.1,0,0,1,155.25.45Z"/>
      <path class="cls-6" d="M139,104.68l-24.83,91.79L113,200.71H52.9l-1.25-4.24L24.37,103.65a142.49,142.49,0,0,1,19.34-6.31q1.44-.37,2.91-.69,5.49-1.27,11.16-2.12c1.18-.17,2.37-.34,3.57-.48,2.72-.35,5.48-.62,8.25-.81,1.1-.08,2.2-.14,3.3-.19,2.5-.13,5-.19,7.55-.19a151.16,151.16,0,0,1,17.8,1q2.7.3,5.35.71A144.88,144.88,0,0,1,139,104.68Z"/>
      <path class="cls-6" d="M145.37,81.15,144.06,86a160.4,160.4,0,0,0-18-6c-1-.27-1.93-.52-2.91-.76a165,165,0,0,0-19.51-3.68c-1.46-.2-2.93-.37-4.4-.54-1-.1-2.1-.2-3.15-.28-1.35-.12-2.71-.23-4.07-.31q-5.73-.37-11.54-.37h-.92c-1.08,0-2.17,0-3.25,0a171.1,171.1,0,0,0-20.36,1.63c-1.16.14-2.32.32-3.47.51a166.78,166.78,0,0,0-33.51,8.89l-1.41-4.79c3.55-1.35,7.17-2.59,10.84-3.69L19.47,43.9a1.5,1.5,0,0,1,2.89-.79l2.53,9.29c.7-3.26,2.16-7.7,5.09-9.88a6.66,6.66,0,0,1,5.64-1.14c1.64.36,2.46.8,2.81,1.51.43.89,0,1.81-.61,3.09a20,20,0,0,0-1.39,3.58c-.42,1.54-.05,4.21,1.71,5a.76.76,0,0,1,.38,1,.75.75,0,0,1-1,.38c-2.66-1.18-3.09-4.73-2.55-6.75a22.48,22.48,0,0,1,1.48-3.84c.35-.72.74-1.54.62-1.78,0-.08-.29-.38-1.78-.71a5.21,5.21,0,0,0-4.43.88c-3.7,2.75-4.79,10.13-5,12.18l5.42,19.94a169.25,169.25,0,0,1,17.21-4h0c1.35-.24,2.71-.48,4.08-.68a181.68,181.68,0,0,1,21.89-2c1.14,0,2.28-.07,3.43-.08h2.58c2.6,0,5.2,0,7.78.17,1.36,0,2.72.11,4.07.21q3.48.21,6.92.57c1.47.14,2.94.31,4.39.51a172.37,172.37,0,0,1,20.57,3.85c1,.22,2,.47,2.92.75,2.48.65,4.94,1.37,7.37,2.14L142.33,45a1.5,1.5,0,0,1,2.92.7l-7.91,32.48C140,79.13,142.73,80.09,145.37,81.15Z"/>
      <path class="cls-6" d="M142.67,91.08l-1.31,4.85A157,157,0,0,0,103.6,85.79q-2.73-.39-5.49-.67a165.66,165.66,0,0,0-17.66-.94c-1.66,0-3.31,0-5,.07s-3.17.12-4.74.21q-5.84.35-11.52,1.08c-1.13.14-2.25.29-3.36.47q-5.66.82-11.15,2.06l1.89,8.58L56,139.06a1.48,1.48,0,0,1-1.14,1.78,1.17,1.17,0,0,1-.32,0,1.49,1.49,0,0,1-1.46-1.18L43.71,97.34l-1.9-8.6a153.87,153.87,0,0,0-20,6.28l-1.41-4.8a161.25,161.25,0,0,1,34.11-9.07c1.08-.17,2.17-.33,3.26-.47,2-.26,3.91-.49,5.89-.67,1.07-.12,2.15-.22,3.24-.29,4.45-.36,9-.54,13.53-.54q8,0,15.7.72c2.51.22,5,.51,7.46.85A163.93,163.93,0,0,1,122,84.32l1.11-5.07,1.06-4.87,1.88-8.57a1.5,1.5,0,0,1,2.94.64l-1.9,8.68L126,80l-1.12,5.08A160.31,160.31,0,0,1,142.67,91.08Z"/>
      <path class="cls-6" d="M112,143.41l-1.18-3.25a25.31,25.31,0,0,0-6.49,4c-.67.51-.69-1.84-.69-1.84-.08-42.23,0-50.53,0-105.81a7.27,7.27,0,0,1,6.67-7.17l.27-.05L110,26.17A11,11,0,0,0,102.7,30a2.55,2.55,0,0,1-1.43.88,1.89,1.89,0,0,1-1.31-.72,10.4,10.4,0,0,0-6.43-4L93,29.35h0A7.52,7.52,0,0,1,96.1,30.8,7.9,7.9,0,0,1,99,36.63v0c.09,3.54.34,39.63.15,41.89a21.68,21.68,0,0,0-2.68-3.21c-.64-.94-2.17-3-4-5.61-3.07-4.44-6.52-10-11.06-12.1-1.93-1.34-8.17-1.34-8.28,5.12A21.45,21.45,0,0,0,75,70.62c.77,1.76,1.56,3.57,1.23,4.46s-1.61.84-4.53.28C69,74.83,64.78,74,63.81,78a4.42,4.42,0,0,0,.38,3.46c1,1.65,3,2.11,4.89,2.55,2.74.64,3.59,1,3.62,2.3A4.18,4.18,0,0,1,71.51,89a7.5,7.5,0,0,0-1.82,6.18c.45,2.75,2.36,3.79,3.89,4.63,1.76,1,3.16,1.73,3.22,5.14l.85,42.9a1.6,1.6,0,0,0,.38,1l.58.06c.48,9.81,2.91,37.72,2.91,39.74,0,2.81-1.4,4.84-2.69,5.11-1.14.23-2.36-.89-3.32-3.09C73.43,185.92,67,150,63.2,110.18c.45-.28.78-.89.78-2.08.23-.44-4.85-28.57-9.35-34.59a26.62,26.62,0,0,0-4.25-4.24c-2.48-1.84-3.86-3-3.36-5.26a2.6,2.6,0,0,1,1.7-2.13c1.27-.31,3,.75,4.76,2.9,2.16,2.64,5,4.06,7.77,3.88a5.53,5.53,0,0,0,4.42-2.34c2-3.24.28-5.9-.89-7.66s-1.44-2.41-1-3.25c.62-1.08,1.79-1,4.78-.11,2.08.6,4.24,1.22,5.95.16a4.17,4.17,0,0,0,1.81-3c.63-3.52-1.84-4.91-3.64-5.92C71.32,45.78,70,45,69.4,43.4s-.29-3.63,0-5.62c.35-2.54.67-4.94-.73-6.65A4.86,4.86,0,0,0,65,29.51c-4.23-.27-4.92,4.15-5.42,7.37-.72,4.6-1.38,6.76-4.34,6.72a5.35,5.35,0,0,1-3-1.29A14.6,14.6,0,0,0,50.23,41a8.35,8.35,0,0,0-3.38-.88A7.09,7.09,0,0,0,40,44.85a1,1,0,0,0,.58,1.28c.51.19.84-.27,1.09-.73a5.74,5.74,0,0,1,5.18-3.26,5.89,5.89,0,0,1,4.49,3.35,6.07,6.07,0,0,1-.25,4.56,5.54,5.54,0,0,1-2.71,2.66c-2.1.94-3.92-.4-5.15-1.45-.42-.36-1.15-.93-1.58-.59a1,1,0,0,0-.17,1.39c1.56,2,5.19,3.59,7.91,2.72a6.54,6.54,0,0,0,4.16-4.08c.53-1.47,1.11-3.69,2.72-3.92,5.14-.57,6-5.84,6.52-9.4.59-3.8,1-4.71,2-4.65a2,2,0,0,1,1.33.44c.51.62.25,2.51,0,4.17-.31,2.27-.66,4.85.19,7.17,1,2.75,3.18,4,4.77,4.87,1.89,1.07,2.25,1.38,2,2.54-.09.49-.23.74-.33.8-.49.31-2.21-.19-3.34-.52-2.59-.75-6.5-1.87-8.49,1.61-1.54,2.69,0,5,1.07,6.63,1.29,1.95,1.7,2.81.85,4.16a2.43,2.43,0,0,1-1.88.84A6.36,6.36,0,0,1,56,62.73c-3.52-4.3-6.53-4.35-8-4a5.77,5.77,0,0,0-4.1,4.58c-1,4.42,2.12,6.71,4.59,8.55a13.89,13.89,0,0,1,2.74,2.44c3.44,4.54,4.69,11.65,6.34,19,1.91,8.51,2.69,16.42,3.49,16.7a3.54,3.54,0,0,0,.4.17c1.65,17.39,9.89,75.3,12.44,81.16,1.55,3.56,3.49,4.19,4.67,4.19a3.19,3.19,0,0,0,.65-.07c2.35-.49,4.11-3.44,4.11-6.86,0-2.08-2.38-29.18-2.9-39.71a1.59,1.59,0,0,0,.49-1.17L80,104.86c-.1-5.28-2.88-6.8-4.9-7.91-1.42-.78-2.06-1.17-2.25-2.32-.28-1.69.36-2.55,1.24-3.74a7.22,7.22,0,0,0,1.82-4.64c-.08-4-3.71-4.82-6.12-5.38-1.14-.27-2.56-.6-2.87-1.1a1.59,1.59,0,0,1,0-1c.18-.74.83-.89,4.16-.25,2.88.56,6.83,1.32,8.17-2.34.78-2.11-.23-4.42-1.3-6.87s-1.75-4.24-1.66-5.88c0,0-.38-2.26,2.59-2.78C82.59,60,89.27,71.05,94.6,78h0l0,0c.56.73,1.11,1.41,1.64,2v0a14.28,14.28,0,0,1,1.25,2.1,20.13,20.13,0,0,1,.73,5h0V119s0,1.09-.59.46a13.48,13.48,0,0,0-6.73-3.85L90.1,119c5.19,1.25,8.15,6,8.15,9.62l-.91,72h6.19l.13-47.4C103.67,150.16,106.51,145.37,112,143.41Z"/>
      <ellipse class="cls-6" cx="90.54" cy="117.33" rx="1.73" ry="1.04" transform="translate(-44.4 178.61) rotate(-76.77)"/>
      <ellipse class="cls-6" cx="93.26" cy="27.76" rx="1.61" ry="0.97" transform="translate(51.96 115.87) rotate(-81.46)"/>
      <ellipse class="cls-6" cx="111.53" cy="141.75" rx="1.04" ry="1.73" transform="translate(-42.91 48.58) rotate(-20.7)"/>
      <ellipse class="cls-6" cx="110.27" cy="27.76" rx="0.96" ry="1.6" transform="translate(-2.5 13.19) rotate(-6.77)"/>
      <path class="cls-6" d="M41.83,48.7h0l-.23,0h.27Z"/>
      <path class="cls-6" d="M50.42,47.53a.93.93,0,0,0,0-.13c0-.63-.53-.91-.89-1.09a1.37,1.37,0,0,1-.36-.23l0,0A.86.86,0,0,0,49,45h0l-.09,0a1,1,0,0,0,0-.15,1,1,0,0,0-.27-.33,1.24,1.24,0,0,0-.78-.21v0a1.18,1.18,0,0,0-.17-.72.88.88,0,0,0-.22-.25.85.85,0,0,0-.56-.19,1.19,1.19,0,0,0-1,.58h0a1.24,1.24,0,0,0-.79.65.73.73,0,0,0,0,.07,1.61,1.61,0,0,0-.39-.15,1.75,1.75,0,0,0-1.71.83,9.49,9.49,0,0,1-.71.89,3.19,3.19,0,0,1-2.46.94,1.38,1.38,0,0,1-1.09-.78c-.26-.56-.16-2,1.24-3.38a3.37,3.37,0,0,0,1-2.48,4.08,4.08,0,0,0-1.3-2.87l-1,1a2.71,2.71,0,0,1,.85,1.86,2,2,0,0,1-.59,1.46c-1.8,1.82-2,3.85-1.52,5a2.81,2.81,0,0,0,2.06,1.56,3.52,3.52,0,0,0,3.18-.86l.12-.1a5.47,5.47,0,0,0,.09.94.68.68,0,0,0,.05.12,3.17,3.17,0,0,1-1.11.33l-.23,0a5.57,5.57,0,0,0-.85.16,4.34,4.34,0,0,0-2.06,1.25A2.75,2.75,0,0,0,38.18,53a6.26,6.26,0,0,0,1.54,2.4c.91.94,1.47,1.51.71,2.92l1.25.67c1.24-2.33,0-3.57-.94-4.58a3.9,3.9,0,0,1-1.17-1.73,1.92,1.92,0,0,1,.19-1.58A3,3,0,0,1,41.89,50v0A.44.44,0,0,1,42,50h.3A4,4,0,0,1,43,50a2.14,2.14,0,0,1,1.43,1,3.08,3.08,0,0,0,.9.92,1.67,1.67,0,0,0,2.1-.1,1.61,1.61,0,0,0,.33-.46,1.53,1.53,0,0,0,.56-.2A1.27,1.27,0,0,0,49,50c0-.5-.26-.69.4-.69a1.11,1.11,0,0,0,1.19-1.13A1.54,1.54,0,0,0,50.42,47.53Z"/>
      <path class="cls-7" d="M160,27.07l-.05.18-1.39,5.16L145.36,81.15,144.05,86l-1.38,5.1-1.31,4.85L139,104.69l-24.83,91.79H51.65L24.37,103.66,21.83,95l-1.41-4.8-1.48-5-1.41-4.8L3.3,32l-1.48-5L7.06,15.8a195.5,195.5,0,0,1,147.82.42Z"/>
      <path class="cls-8" d="M159.94,27.24l-1.39,5.16L145.36,81.14,144.05,86l-1.38,5.1-1.31,4.85L139,104.68l-24.83,91.79H51.65L24.37,103.65,21.83,95l-1.41-4.8-1.48-5-1.41-4.8L3.3,32,1.8,26.84a187.39,187.39,0,0,1,158.14.4Z"/>
      <path class="cls-9" d="M158.55,32.4,145.36,81.14,144.05,86l-1.38,5.1-1.31,4.85L139,104.68l-24.83,91.79H51.65L24.37,103.65,21.83,95l-1.41-4.8-1.48-5-1.41-4.8L3.3,32a182.1,182.1,0,0,1,155.25.45Z"/>
      <path class="cls-10" d="M139,104.68l-24.83,91.79L113,200.71H52.9l-1.25-4.24L24.37,103.65a142.49,142.49,0,0,1,19.34-6.31q1.44-.37,2.91-.69,5.49-1.27,11.16-2.12c1.18-.17,2.37-.34,3.57-.48,2.72-.35,5.48-.62,8.25-.81,1.1-.08,2.2-.14,3.3-.19,2.5-.13,5-.19,7.55-.19a151.16,151.16,0,0,1,17.8,1q2.7.3,5.35.71A144.88,144.88,0,0,1,139,104.68Z"/>
      <path class="cls-11" d="M145.37,81.15,144.06,86a160.4,160.4,0,0,0-18-6c-1-.27-1.93-.52-2.91-.76a165,165,0,0,0-19.51-3.68c-1.46-.2-2.93-.37-4.4-.54-1-.1-2.1-.2-3.15-.28-1.35-.12-2.71-.23-4.07-.31q-5.73-.37-11.54-.37h-.92c-1.08,0-2.17,0-3.25,0a171.1,171.1,0,0,0-20.36,1.63c-1.16.14-2.32.32-3.47.51a166.78,166.78,0,0,0-33.51,8.89l-1.41-4.79c3.55-1.35,7.17-2.59,10.84-3.69L19.47,43.9a1.5,1.5,0,0,1,2.89-.79l2.53,9.29c.7-3.26,2.16-7.7,5.09-9.88a6.66,6.66,0,0,1,5.64-1.14c1.64.36,2.46.8,2.81,1.51.43.89,0,1.81-.61,3.09a20,20,0,0,0-1.39,3.58c-.42,1.54-.05,4.21,1.71,5a.76.76,0,0,1,.38,1,.75.75,0,0,1-1,.38c-2.66-1.18-3.09-4.73-2.55-6.75a22.48,22.48,0,0,1,1.48-3.84c.35-.72.74-1.54.62-1.78,0-.08-.29-.38-1.78-.71a5.21,5.21,0,0,0-4.43.88c-3.7,2.75-4.79,10.13-5,12.18l5.42,19.94a169.25,169.25,0,0,1,17.21-4h0c1.35-.24,2.71-.48,4.08-.68a181.68,181.68,0,0,1,21.89-2c1.14,0,2.28-.07,3.43-.08h2.58c2.6,0,5.2,0,7.78.17,1.36,0,2.72.11,4.07.21q3.48.21,6.92.57c1.47.14,2.94.31,4.39.51a172.37,172.37,0,0,1,20.57,3.85c1,.22,2,.47,2.92.75,2.48.65,4.94,1.37,7.37,2.14L142.33,45a1.5,1.5,0,0,1,2.92.7l-7.91,32.48C140,79.13,142.73,80.09,145.37,81.15Z"/>
      <path class="cls-12" d="M142.67,91.08l-1.31,4.85A157,157,0,0,0,103.6,85.79q-2.73-.39-5.49-.67a165.66,165.66,0,0,0-17.66-.94c-1.66,0-3.31,0-5,.07s-3.17.12-4.74.21q-5.84.35-11.52,1.08c-1.13.14-2.25.29-3.36.47q-5.66.82-11.15,2.06l1.89,8.58L56,139.06a1.48,1.48,0,0,1-1.14,1.78,1.17,1.17,0,0,1-.32,0,1.49,1.49,0,0,1-1.46-1.18L43.71,97.34l-1.9-8.6a153.87,153.87,0,0,0-20,6.28l-1.41-4.8a161.25,161.25,0,0,1,34.11-9.07c1.08-.17,2.17-.33,3.26-.47,2-.26,3.91-.49,5.89-.67,1.07-.12,2.15-.22,3.24-.29,4.45-.36,9-.54,13.53-.54q8,0,15.7.72c2.51.22,5,.51,7.46.85A163.93,163.93,0,0,1,122,84.32l1.11-5.07,1.06-4.87,1.88-8.57a1.5,1.5,0,0,1,2.94.64l-1.9,8.68L126,80l-1.12,5.08A160.31,160.31,0,0,1,142.67,91.08Z"/>
      <path class="cls-13" d="M112,143.41l-1.18-3.25a25.31,25.31,0,0,0-6.49,4c-.67.51-.69-1.84-.69-1.84-.08-42.23,0-50.53,0-105.81a7.27,7.27,0,0,1,6.67-7.17l.27-.05L110,26.17A11,11,0,0,0,102.7,30a2.55,2.55,0,0,1-1.43.88,1.89,1.89,0,0,1-1.31-.72,10.4,10.4,0,0,0-6.43-4L93,29.35h0A7.52,7.52,0,0,1,96.1,30.8,7.9,7.9,0,0,1,99,36.63v0c.09,3.54.34,39.63.15,41.89a21.68,21.68,0,0,0-2.68-3.21c-.64-.94-2.17-3-4-5.61-3.07-4.44-6.52-10-11.06-12.1-1.93-1.34-8.17-1.34-8.28,5.12A21.45,21.45,0,0,0,75,70.62c.77,1.76,1.56,3.57,1.23,4.46s-1.61.84-4.53.28C69,74.83,64.78,74,63.81,78a4.42,4.42,0,0,0,.38,3.46c1,1.65,3,2.11,4.89,2.55,2.74.64,3.59,1,3.62,2.3A4.18,4.18,0,0,1,71.51,89a7.5,7.5,0,0,0-1.82,6.18c.45,2.75,2.36,3.79,3.89,4.63,1.76,1,3.16,1.73,3.22,5.14l.85,42.9a1.6,1.6,0,0,0,.38,1l.58.06c.48,9.81,2.91,37.72,2.91,39.74,0,2.81-1.4,4.84-2.69,5.11-1.14.23-2.36-.89-3.32-3.09C73.43,185.92,67,150,63.2,110.18c.45-.28.78-.89.78-2.08.23-.44-4.85-28.57-9.35-34.59a26.62,26.62,0,0,0-4.25-4.24c-2.48-1.84-3.86-3-3.36-5.26a2.6,2.6,0,0,1,1.7-2.13c1.27-.31,3,.75,4.76,2.9,2.16,2.64,5,4.06,7.77,3.88a5.53,5.53,0,0,0,4.42-2.34c2-3.24.28-5.9-.89-7.66s-1.44-2.41-1-3.25c.62-1.08,1.79-1,4.78-.11,2.08.6,4.24,1.22,5.95.16a4.17,4.17,0,0,0,1.81-3c.63-3.52-1.84-4.91-3.64-5.92C71.32,45.78,70,45,69.4,43.4s-.29-3.63,0-5.62c.35-2.54.67-4.94-.73-6.65A4.86,4.86,0,0,0,65,29.51c-4.23-.27-4.92,4.15-5.42,7.37-.72,4.6-1.38,6.76-4.34,6.72a5.35,5.35,0,0,1-3-1.29A14.6,14.6,0,0,0,50.23,41a8.35,8.35,0,0,0-3.38-.88A7.09,7.09,0,0,0,40,44.85a1,1,0,0,0,.58,1.28c.51.19.84-.27,1.09-.73a5.74,5.74,0,0,1,5.18-3.26,5.89,5.89,0,0,1,4.49,3.35,6.07,6.07,0,0,1-.25,4.56,5.54,5.54,0,0,1-2.71,2.66c-2.1.94-3.92-.4-5.15-1.45-.42-.36-1.15-.93-1.58-.59a1,1,0,0,0-.17,1.39c1.56,2,5.19,3.59,7.91,2.72a6.54,6.54,0,0,0,4.16-4.08c.53-1.47,1.11-3.69,2.72-3.92,5.14-.57,6-5.84,6.52-9.4.59-3.8,1-4.71,2-4.65a2,2,0,0,1,1.33.44c.51.62.25,2.51,0,4.17-.31,2.27-.66,4.85.19,7.17,1,2.75,3.18,4,4.77,4.87,1.89,1.07,2.25,1.38,2,2.54-.09.49-.23.74-.33.8-.49.31-2.21-.19-3.34-.52-2.59-.75-6.5-1.87-8.49,1.61-1.54,2.69,0,5,1.07,6.63,1.29,1.95,1.7,2.81.85,4.16a2.43,2.43,0,0,1-1.88.84A6.36,6.36,0,0,1,56,62.73c-3.52-4.3-6.53-4.35-8-4a5.77,5.77,0,0,0-4.1,4.58c-1,4.42,2.12,6.71,4.59,8.55a13.89,13.89,0,0,1,2.74,2.44c3.44,4.54,4.69,11.65,6.34,19,1.91,8.51,2.69,16.42,3.49,16.7a3.54,3.54,0,0,0,.4.17c1.65,17.39,9.89,75.3,12.44,81.16,1.55,3.56,3.49,4.19,4.67,4.19a3.19,3.19,0,0,0,.65-.07c2.35-.49,4.11-3.44,4.11-6.86,0-2.08-2.38-29.18-2.9-39.71a1.59,1.59,0,0,0,.49-1.17L80,104.86c-.1-5.28-2.88-6.8-4.9-7.91-1.42-.78-2.06-1.17-2.25-2.32-.28-1.69.36-2.55,1.24-3.74a7.22,7.22,0,0,0,1.82-4.64c-.08-4-3.71-4.82-6.12-5.38-1.14-.27-2.56-.6-2.87-1.1a1.59,1.59,0,0,1,0-1c.18-.74.83-.89,4.16-.25,2.88.56,6.83,1.32,8.17-2.34.78-2.11-.23-4.42-1.3-6.87s-1.75-4.24-1.66-5.88c0,0-.38-2.26,2.59-2.78C82.59,60,89.27,71.05,94.6,78h0l0,0c.56.73,1.11,1.41,1.64,2v0a14.28,14.28,0,0,1,1.25,2.1,20.13,20.13,0,0,1,.73,5h0V119s0,1.09-.59.46a13.48,13.48,0,0,0-6.73-3.85L90.1,119c5.19,1.25,8.15,6,8.15,9.62l-.91,72h6.19l.13-47.4C103.67,150.16,106.51,145.37,112,143.41Z"/>
      <ellipse class="cls-14" cx="90.54" cy="117.33" rx="1.73" ry="1.04" transform="translate(-44.4 178.61) rotate(-76.77)"/>
      <ellipse class="cls-14" cx="93.26" cy="27.76" rx="1.61" ry="0.97" transform="translate(51.96 115.87) rotate(-81.46)"/>
      <ellipse class="cls-14" cx="111.53" cy="141.75" rx="1.04" ry="1.73" transform="translate(-42.91 48.58) rotate(-20.7)"/>
      <ellipse class="cls-14" cx="110.27" cy="27.76" rx="0.96" ry="1.6" transform="translate(-2.5 13.19) rotate(-6.77)"/>
      <g class="cls-15">
        <path class="cls-16" d="M41.83,48.7h0l-.23,0h.27Z"/>
        <path class="cls-17" d="M50.42,47.53a.93.93,0,0,0,0-.13c0-.63-.53-.91-.89-1.09a1.37,1.37,0,0,1-.36-.23l0,0A.86.86,0,0,0,49,45h0l-.09,0a1,1,0,0,0,0-.15,1,1,0,0,0-.27-.33,1.24,1.24,0,0,0-.78-.21v0a1.18,1.18,0,0,0-.17-.72.88.88,0,0,0-.22-.25.85.85,0,0,0-.56-.19,1.19,1.19,0,0,0-1,.58h0a1.24,1.24,0,0,0-.79.65.73.73,0,0,0,0,.07,1.61,1.61,0,0,0-.39-.15,1.75,1.75,0,0,0-1.71.83,9.49,9.49,0,0,1-.71.89,3.19,3.19,0,0,1-2.46.94,1.38,1.38,0,0,1-1.09-.78c-.26-.56-.16-2,1.24-3.38a3.37,3.37,0,0,0,1-2.48,4.08,4.08,0,0,0-1.3-2.87l-1,1a2.71,2.71,0,0,1,.85,1.86,2,2,0,0,1-.59,1.46c-1.8,1.82-2,3.85-1.52,5a2.81,2.81,0,0,0,2.06,1.56,3.52,3.52,0,0,0,3.18-.86l.12-.1a5.47,5.47,0,0,0,.09.94.68.68,0,0,0,.05.12,3.17,3.17,0,0,1-1.11.33l-.23,0a5.57,5.57,0,0,0-.85.16,4.34,4.34,0,0,0-2.06,1.25A2.75,2.75,0,0,0,38.18,53a6.26,6.26,0,0,0,1.54,2.4c.91.94,1.47,1.51.71,2.92l1.25.67c1.24-2.33,0-3.57-.94-4.58a3.9,3.9,0,0,1-1.17-1.73,1.92,1.92,0,0,1,.19-1.58A3,3,0,0,1,41.89,50v0A.44.44,0,0,1,42,50h.3A4,4,0,0,1,43,50a2.14,2.14,0,0,1,1.43,1,3.08,3.08,0,0,0,.9.92,1.67,1.67,0,0,0,2.1-.1,1.61,1.61,0,0,0,.33-.46,1.53,1.53,0,0,0,.56-.2A1.27,1.27,0,0,0,49,50c0-.5-.26-.69.4-.69a1.11,1.11,0,0,0,1.19-1.13A1.54,1.54,0,0,0,50.42,47.53Z"/>
      </g>
    </symbol>
    <symbol id="Pfeil" data-name="Pfeil" viewBox="0 0 70 77.95">
      <path class="cls-18" d="M55.63,26.92a71.27,71.27,0,0,0-18.74,4.83,59,59,0,0,0-16.6,10.51,63.77,63.77,0,0,0-12.73,16A70.5,70.5,0,0,0,3,67.72,60.28,60.28,0,0,0,0,78,61.35,61.35,0,0,1,.92,67.14a73.81,73.81,0,0,1,2.6-10.69,69.34,69.34,0,0,1,26.9-36.22A86.6,86.6,0,0,1,51.59,9.79Z"/>
      <polygon class="cls-18" points="54.06 37.81 48.15 0 70 15.95 54.06 37.81"/>
    </symbol>
  </defs>
  <title>NaPO4_170927_Kidney Zoom2</title>
  <g id="Bild">
    <path class="cls-19" d="M463,377l-4.23-11.63c-9.76,3.71-16.76,9.47-23.24,14.38-2.41,1.82-2.46-6.57-2.46-6.57S432.58,115.49,433,60c1.08-22.77,21.48-25.42,23.88-25.67a5.72,5.72,0,0,0,1-.18l-2-11.28c-7.27.64-18.52,4.44-26.15,13.82-.46.57-2.87,3-5.12,3.15s-4.35-2.13-4.69-2.59a37.21,37.21,0,0,0-23-14.33l-2,11.32.17,0a26.92,26.92,0,0,1,11,5.16c6.12,4.78,9.61,11.8,10.4,20.89v.05c.31,12.67,1.22,35.35.53,43.45A77.93,77.93,0,0,0,405.11,90.1C383,69.61,352.39,62.92,330.65,60.92c-30.33-2.79-51.94,6.36-57.06,9.91v0l-.67.51c-.46.34-.77.59-.94.73-7.78,6.21-9.51,11.18-10.82,18.15-2,11.37,4.63,24.73,6.12,28.33,2.62,6.34,5.32,12.89,4.09,16s-5.84,2.9-16.23.68c-9.85-2.1-24.72-5.27-28.48,8.93-1.27,4.8-.89,9,1.13,12.42,3.51,6,10.52,7.75,17.31,9.47,9.75,2.48,12.79,4,12.79,8.47,0,3.47-1.61,5.73-4.45,9.43-3.6,4.68-8.53,11.1-7,22,1.42,9.86,8.16,13.73,13.58,16.84,6.24,3.58,11.17,6.42,11.17,18.61V395a5.76,5.76,0,0,0,2.38,4.66v61.21a10.84,10.84,0,1,1-21.69,0c0-.85-.73-55.07-.1-89.4a5.76,5.76,0,0,0,2.48-4.59c.45-17.2-5.4-24.33-10.1-30.05-4.39-5.35-7.56-9.21-5.08-22.93.66-3.65,2.9-7.72,5.27-12,5.32-9.67,11.95-21.71,2.25-34.66-5.14-6.86-12.87-10.24-20.17-8.81-5.36,1-15.11,5.67-20.17,24.92-2.15,8.17-6.7,14.13-12.5,16.36-3.26,1.25-6.05.94-7.37.08-4.76-3.12-4.71-6.53-3.42-14.8,1.11-7,2.62-16.7-6.39-23.18-11.66-8.38-22.71,1.11-30,7.38-3.22,2.76-8.07,6.94-10.11,6.67-.43-.06-1.26-.64-2.29-2.12-2.41-3.48-1.72-5,2.87-11.3,3.85-5.28,9.13-12.51,8.31-23-.69-8.82-5.66-16.68-10-23.62-3.21-5.08-6.85-10.84-6.12-13.62.36-1.38,2.21-2.62,3.69-3.41,3.26-1.75,5.91.63,13.49,12.12,7.11,10.77,17.64,26.71,35.21,20.92,5.59-1.64,10.75,4.71,14.68,8.72a23.42,23.42,0,0,0,19.61,7.1c10.15-1.19,19.6-11.8,21.72-20.62a3.55,3.55,0,0,0-2.63-4.29c-1.91-.46-3.45,2.49-4.28,4.27-2.44,5.23-6.37,12.3-14.61,12.37a19.84,19.84,0,0,1-12.78-4.62c-2.74-2.31-7.24-7.71-7.6-14.47-.43-8.18,6.11-16,9.62-17.59,7.72-3.48,15.09-2,21.73,2.9,1.51,1.12,3.27,2.15,4.65.76a3.55,3.55,0,0,0,0-5c-7.93-7.89-18.88-9.81-29.28-5.12a29.9,29.9,0,0,0-9.71,7.89,52.27,52.27,0,0,0-4.82,7.28c-3.93,7-7.63,8.55-7.7,8.58-9.6,4.52-15-1.53-24.14-15.43-6.44-9.76-15.26-23.12-28.62-15.94-5.1,2.74-8.26,6.33-9.4,10.66-2,7.65,2.62,15,7.53,22.74,3.85,6.09,7.82,12.38,8.29,18.34.48,6.18-2.72,10.58-6.12,15.23-4.36,6-10.32,14.16-3,24.69,2.86,4.14,6.34,6.5,10.32,7,7.14.93,13.23-4.31,19.12-9.37,8.46-7.26,12.11-9.38,15.74-6.77,2.81,2,2.89,4.5,1.72,12s-2.95,18.77,8.5,26.27c4.76,3.12,11.44,3.51,17.86,1,9.31-3.58,16.43-12.4,19.53-24.21,2.53-9.6,6.61-15.62,11.2-16.51,2.91-.57,6.24,1.11,8.7,4.39,5,6.65,2.21,12.46-3.13,22.15-2.71,4.93-5.52,10-6.52,15.54-3.44,19,2.38,26.07,7.52,32.33,4.19,5.11,7.81,9.52,7.48,22.42a5.76,5.76,0,0,0,2.28,4.73c-.63,34.45.09,88.77.1,89.59a17.65,17.65,0,0,0,35.29,0V399.7a5.76,5.76,0,0,0,2.38-4.66V241.44c0-18.89-9.82-24.53-17-28.64-5-2.9-7.3-4.35-7.89-8.46-.87-6.06,1.46-9.09,4.68-13.28,3.05-4,6.85-8.91,6.85-16.48,0-14.22-12.95-17.51-21.51-19.69-4.06-1-9.12-2.32-10.19-4.12-.52-.89-.17-2.63.08-3.59.7-2.63,3.05-3.11,14.89-.59,10.27,2.19,24.35,5.19,29.42-7.79,2.93-7.49-.52-15.84-4.17-24.68-3.5-8.47-6-15.29-5.53-21.16,0,0,0-6.92,8-12.81l-.07-.1c3.55-2.4,22.6-10.21,49.27-7.76,28.3,2.61,51.54,11.48,67.2,25.67a61,61,0,0,1,14.38,18.68,72,72,0,0,1,2.6,18.06h0V289.64s0,3.91-2.12,1.66a48.27,48.27,0,0,0-24.1-13.77l-2.94,12.11c18.59,4.49,29.16,21.64,29.16,34.43L411.45,500H433.6l-.46-87.83C433.14,401.16,443.33,384,463,377Z"/>
    <g class="cls-20">
      <path class="cls-16" d="M230.49,217.21l0,0,.94-.4A7.3,7.3,0,0,0,230.49,217.21Z"/>
      <path class="cls-21" d="M247.27,235.77a22.26,22.26,0,0,0,1.45-10.12c-.51-4.58-2.78-7.2-5.74-8.53a15.8,15.8,0,0,0-8.59-1,22.53,22.53,0,0,0-3,.74h0c-2,.73-4.3,1.19-6.09.62a6.51,6.51,0,0,0-7,1.65,5.27,5.27,0,0,0-.67,5.86,3.73,3.73,0,0,0,1.67,1.67,2.17,2.17,0,0,1,1.19,1.36,2.21,2.21,0,0,1-.53,2.32c-.79.58-2.39,0-4.3-1.42s-1.77-3.64-.74-6.52a3,3,0,0,0-.66-3.08,3.87,3.87,0,0,0-3.74-1.19,3.6,3.6,0,0,0-1.31.6,7.27,7.27,0,0,0-.2-4.93,7.91,7.91,0,0,0-1.26-1.73c-.82-.93-1.66-1.9-1.54-2.94a1,1,0,0,1,.59-.81,2.12,2.12,0,0,1,2,.42c.91.66.86,1.74.66,3.44l0,.26c-.24,2.08.42,3.84,1.75,4.69a3.43,3.43,0,0,0,3.73-.08,4.86,4.86,0,0,0,2.26-3.07,4.14,4.14,0,0,1,1.54-2.37,4.08,4.08,0,0,1,3.21-.46l2.16-.59-.29-1.23c-1.87-.58-4.58-1-6.48.56a6.27,6.27,0,0,0-2.27,3.42,2.65,2.65,0,0,1-1.32,1.85,1.24,1.24,0,0,1-1.36.09,2.6,2.6,0,0,1-.73-2.56l0-.26c.2-1.71.48-4-1.56-5.51a4.28,4.28,0,0,0-4.22-.65,3.22,3.22,0,0,0-1.9,2.58c-.24,2,1.1,3.55,2.07,4.66a6.49,6.49,0,0,1,.91,1.2,5.1,5.1,0,0,1-.4,4.43,9.54,9.54,0,0,1-3.63,3c-2.35,1.22-2.69,4.26-1.65,6.36a4,4,0,0,0,5.56,1.93c2.42-1.11,2.5-4.49,2.56-6.72a9.58,9.58,0,0,1,.11-1.53c.2-.77.63-1.72,1.5-1.92a1.66,1.66,0,0,1,1.57.5.8.8,0,0,1,.22.85c-.66,1.85-2.21,6.19,1.48,9s5.78,2.32,7,1.45a4.42,4.42,0,0,0,1.31-4.87,4.35,4.35,0,0,0-2.16-2.52c-.44-.26-.62-.37-.79-.7a3.08,3.08,0,0,1,.35-3.46,4.36,4.36,0,0,1,4.68-1c3.27,1,2.58.94,3.61,1.06l1.3,1.94c2.66-1.74,7.86-2.85,11.17-.78a7,7,0,0,1,3,4.87c.5,2.41-.36,4.83-1.26,7.4-1.67,4.71-3.74,10.57,3.74,16.28l3.09-4C244.76,242.86,245.71,240.19,247.27,235.77Zm-40.05-12.08c0,1.58-.11,4.23-1.27,4.76a1.81,1.81,0,0,1-2.65-.88c-.58-1.17-.43-2.82.69-3.41a13.83,13.83,0,0,0,3.38-2.42A10.79,10.79,0,0,0,207.22,223.69Z"/>
      <path class="cls-21" d="M225,208.78s5.95,2.14,9.5-.57c2.05-1.56,2.36-3,2.37-4.16,0-2.2-2.41-6.64-9.07-9.15a12,12,0,0,1-6.95-6.59,14.61,14.61,0,0,1,0-11.29l4.7,1.91a9.69,9.69,0,0,0,0,7.34,7.15,7.15,0,0,0,4.09,3.88c8.57,3.23,12.4,9.5,12.36,14a10.06,10.06,0,0,1-4.39,8.16c-3.06,2.31-6.37,3.19-11.65,1.93,0,0-3.72-1.18-4.71-.34a7.41,7.41,0,0,0-1.53,1.94c-.53.88-1.34,2.21-2.92,1.7-3-1-3.59-3.76-4-5.81-.17-.9-.37-1.93-.73-2.18a2.22,2.22,0,0,0-1.79-.55,1.2,1.2,0,0,0-.8.72,7.16,7.16,0,0,0-.3.71c-.53,1.33-1.05,2.26-3.34,3-1,.3-1.63.91-1.65,1.59s.68,1.83,2.71,2.62a10.74,10.74,0,0,0,5.63.21c2-.27,4-.57,5.63.78a3.52,3.52,0,0,1,1.12,4,6,6,0,0,1-4.78,3.84,3.44,3.44,0,0,0-2.75,1.59,3.76,3.76,0,0,0-.46,3.32,2.37,2.37,0,0,0,2,1.5,2.74,2.74,0,0,0,2.45-.82,5.47,5.47,0,0,0,.63-1.46,5.87,5.87,0,0,1,4.13-4.34c.58-.22.75-.65.22-2.63a2.63,2.63,0,0,1,.34-2.23c1.09-1.57,4-2,6.65-.87,1.11.48.37.22.39.22l.77,1.73-1.24.12c-1.49.15-4.16-.79-4.74.06,0,0-.09.14,0,.39.37,1.4,1.15,4.29-1.61,5.29a3.73,3.73,0,0,0-2.78,2.94,7.32,7.32,0,0,1-.91,2,4.87,4.87,0,0,1-4.54,1.76,4.54,4.54,0,0,1-3.85-2.9,6,6,0,0,1,.68-5.34,5.59,5.59,0,0,1,4.51-2.58,4,4,0,0,0,2.76-2.36,1.3,1.3,0,0,0-.46-1.58c-.79-.68-2-.54-3.89-.27a13,13,0,0,1-6.74-.35c-2.65-1-4.19-2.81-4.12-4.77a3.41,3.41,0,0,1,.38-1.46,4.62,4.62,0,0,1,2.82-2.16c1.45-.46,1.58-.77,1.94-1.67.1-.26.21-.54.36-.84a3.42,3.42,0,0,1,2.28-1.93,4.42,4.42,0,0,1,3.66.92c1,.79,1.29,2.12,1.56,3.54.41,2.09.8,3.52,2.37,4.08.13-.16.32-.47.47-.7a9.3,9.3,0,0,1,2-2.48,7.1,7.1,0,0,1,3.18-1.77"/>
      <g class="cls-22">
        <path class="cls-21" d="M225.53,211a18.47,18.47,0,0,1-5.27-2.11s-2.54-1.59-4.25-.26a6,6,0,0,0-1.8,3.46c-.4,1.45-.84,3.09-2.43,3.84a6.29,6.29,0,0,1-4.92.36l-.56-.14c-1.24-.27-2.18,0-2.51.65a.87.87,0,0,0,.16,1.06c1.87,1.56.39,3.44-.41,4.44s-1.37,1.82-1,2.53a1.52,1.52,0,0,0,1.29.78,3.71,3.71,0,0,0,3.18-1.68,8.11,8.11,0,0,1,8-3c1.87.33,3.34.87,3.86,2.58.81,2.69-.74,3.85-1.88,4.7s-1.61,1.27-1.68,2.45a3.32,3.32,0,0,0,2.32,3.12c1.6.55,3.22-.16,4.45-2a9.21,9.21,0,0,0,1.22-3.52c.45-2.24.61-4.73,3.59-7.06a21,21,0,0,1,3.77-2.1l1.53,2.4s-.92-.17-3.54,1.83a7.65,7.65,0,0,0-3.18,5.37,11,11,0,0,1-1.56,4.33c-1.81,2.64-4.43,3.69-7,2.81a5.52,5.52,0,0,1-3.82-5.35,5.24,5.24,0,0,1,2.56-4.09c1.06-.8,1.45-1.09,1.09-2.29s-1.28-1.11-2-1.24a6.14,6.14,0,0,0-6,2.38,5.88,5.88,0,0,1-5.17,2.56,3.74,3.74,0,0,1-3.07-2c-1-2,.38-3.74,1.28-4.88a4.9,4.9,0,0,0,.83-1.27l-.11-.09a3.08,3.08,0,0,1-.73-3.74l0-.07c.65-1.25,2.28-2.35,4.95-1.76l.67.17a4.12,4.12,0,0,0,3.38-.22c.63-.3.88-1.11,1.23-2.42a8,8,0,0,1,2.57-4.63c3-2.3,6.66,0,6.81.14a24.61,24.61,0,0,0,4.79,2.2"/>
      </g>
    </g>
    <ellipse class="cls-23" cx="386.15" cy="283.63" rx="6.21" ry="3.72" transform="translate(21.66 594.61) rotate(-76.77)"/>
    <ellipse class="cls-23" cx="395.89" cy="28.59" rx="5.78" ry="3.48" transform="matrix(0.15, -0.99, 0.99, 0.15, 308.84, 415.85)"/>
    <ellipse class="cls-23" cx="461.28" cy="371.08" rx="3.72" ry="6.21" transform="translate(-101.39 187.01) rotate(-20.7)"/>
    <ellipse class="cls-23" cx="456.79" cy="28.59" rx="3.45" ry="5.74" transform="translate(-0.19 54.04) rotate(-6.77)"/>
  </g>
  <g id="Zellen_HG" data-name="Zellen HG">
    <use width="161.72" height="202.21" transform="matrix(0.5900000333786011, 0, 0, 0.5900000333786011, 17.920000076293945, 17.520000457763672)" xlink:href="#Kidey_zoom"/>
    <use width="70" height="77.95" transform="matrix(0.3403795752544375, 0.9402881179455629, -0.9402881179455629, 0.3403795752544375, 124.11000061035156, 17.280000686645508)" xlink:href="#Pfeil"/>
    <use width="70" height="77.95" transform="matrix(-0.098056, 1.814142, 1.536433, 0.083047, 88.590317, 341.556335)" xlink:href="#Pfeil"/>
  </g>
  <g id="Text-2" data-name="Text">
    <text class="cls-24" transform="translate(37.14 195.98)" style="white-space: pre;">Proximal <tspan x="9.87" y="13.5">tubule</tspan></text>
    <text class="cls-24" transform="translate(319.98 346.33)" style="white-space: pre;">Thick<tspan x="-16.72" y="13.5">ascending </tspan><tspan x="3.77" y="27">limb</tspan></text>
    <text class="cls-24" transform="translate(314.05 117.67)" style="white-space: pre;">Distal <tspan x="-15.84" y="13.5">convoluted </tspan><tspan x="-1.09" y="27">tublule</tspan></text>
    <rect class="cls-25" x="102.11" y="170.97" width="50" height="50"/>
    <rect class="cls-26" x="102.11" y="170.97" width="50" height="50"/>
    <rect class="cls-25" x="258.47" y="286.97" width="50" height="50"/>
    <rect class="cls-26" x="258.47" y="286.97" width="50" height="50"/>
    <rect class="cls-25" x="303.55" y="46.31" width="50" height="50"/>
    <rect class="cls-26" x="303.55" y="46.31" width="50" height="50"/>
  </g>
</svg>