<?xml version="1.0" encoding="utf-8"?>
<svg viewBox="0 0 97.82608795166016 84.23914337158203" xmlns="http://www.w3.org/2000/svg" xmlns:xlink="http://www.w3.org/1999/xlink">
  <defs>
    <symbol id="Intestine" data-name="Intestine" viewBox="0 0 90.56 155.43">
      <circle class="cls-1" cx="45.56" cy="110.43" r="45" style="fill: rgb(250, 241, 206);"/>
      <path class="cls-2" d="M43.57,71.61l20.07-.9c12.06-.54,12.29,9.47,5.11,13.41-9.64,5.29-53.86-4.73-53.28,8.19.69,15.32,57.93-2.79,58.55,11,.75,16.75-56.26-.2-56.57,14.26-.27,12.8,27.07,7.68,36.83,9.13,10.33,1.54,12.43,9.2,12.43,9.2" style="fill: none; stroke: rgb(174, 85, 54); stroke-linecap: round; stroke-linejoin: round; stroke-width: 11px;"/>
      <path class="cls-3" d="M43.57,71.61l20.07-.9c12.06-.54,12.29,9.47,5.11,13.41-9.64,5.29-53.86-4.73-53.28,8.19.69,15.32,57.93-2.79,58.55,11,.75,16.75-56.26-.2-56.57,14.26-.27,12.8,27.07,7.68,36.83,9.13,10.33,1.54,12.43,9.2,12.43,9.2" style="fill: none; stroke: rgb(227, 236, 193); stroke-linecap: round; stroke-linejoin: round; stroke-width: 7px;"/>
      <path class="cls-4" d="M45.68,67.07a59.36,59.36,0,0,1-24-3.93c-11.52-4.7-7-12.84-7-12.84a48.59,48.59,0,0,0,26.48,8.49c18.65.16,31.53-9.25,32.68-25.08,1.1-15.06-6.12-25.58-17.06-25.58a23.79,23.79,0,0,0-14,4.6l-5-10S35.66-.51,30,1.86C24.07,4.35,26.3,8.49,26.3,8.49s5.77,9.44,4.58,12.81-4.11,3.43-12.42,6.43A26.32,26.32,0,0,0,1.07,51S-1.33,69.23,22.8,74.52c9.77,2.15,22.1,1.59,22.1,1.59" style="fill: rgb(227, 236, 193); stroke: rgb(174, 85, 54); stroke-linecap: round; stroke-linejoin: round; stroke-width: 2px;"/>
      <path class="cls-5" d="M21.56,69s1.62-1.26,1.34-5.38" style="fill: none;"/>
      <path class="cls-5" d="M32.35,71.66S34,70.4,33.69,66.28" style="fill: none;"/>
      <path class="cls-5" d="M27.51,68.72s.2,4.81-2.14,6.42" style="fill: none;"/>
      <path class="cls-5" d="M38.22,70.23s.37,4.31-2,5.92" style="fill: none;"/>
      <ellipse class="cls-6" cx="32.46" cy="5.98" rx="3.15" ry="1.37" transform="translate(-0.27 10.21) rotate(-17.8)" style="fill: none; stroke: rgb(174, 85, 54); stroke-linecap: round; stroke-linejoin: round;"/>
      <text class="cls-7" style="white-space: pre; font-size: 14px; font-family: Arial-BoldMT, Arial; font-weight: bold; width: 58.375px; perspective-origin: 29.1875px 0px;" x="0.436" y="142.584">Intestine</text>
    </symbol>
  </defs>
  <g id="Bild" transform="matrix(0.519452, 0, 0, 0.451085, 29.198835, 3.985787)">
    <g id="Ebene_8" data-name="Ebene 8">
      <use width="90.56" height="155.43" transform="matrix(1, 0, 0, 1, 0.5299997925758362, 10.09000015258789)" xlink:href="#Intestine"/>
    </g>
    <text x="28.336" y="154.5" style="white-space: pre; fill: rgb(51, 51, 51); font-family: sans-serif; font-size: 24px;"> </text>
  </g>
</svg>