<?xml version="1.0" encoding="utf-8"?>
<!-- Generator: Adobe Illustrator 21.1.0, SVG Export Plug-In . SVG Version: 6.00 Build 0)  -->
<svg version="1.1" id="Ebene_1" xmlns="http://www.w3.org/2000/svg" xmlns:xlink="http://www.w3.org/1999/xlink" x="0px" y="0px"
	 viewBox="0 0 90.9 100.4" style="enable-background:new 0 0 90.9 100.4;" xml:space="preserve">
<style type="text/css">
	.st0{fill:#FAF1CE;}
	.st1{fill:#F4E297;stroke:#AE5536;stroke-width:2;stroke-linecap:round;stroke-linejoin:round;}
	.st2{fill:#F8EEC2;stroke:#AE5536;stroke-width:2;stroke-linecap:round;stroke-linejoin:round;}
	.st3{fill:#ECCBBD;stroke:#AE5536;stroke-width:2;stroke-linecap:round;stroke-linejoin:round;}
	.st4{fill:#FFFFFF;stroke:#AE5536;stroke-linecap:round;stroke-linejoin:round;}
	.st5{enable-background:new    ;}
</style>
<symbol  id="Food" viewBox="-45.5 -50.2 90.9 100.4">
	<circle class="st0" cx="0.5" cy="5.2" r="45"/>
	<path class="st1" d="M31.1-31.5c-3,8.8-6.8,10-9,11.5l-66.6,32.7l21.4-50.5c0,0-1.3-4.7,1.8-8.2c5-5.7,15.7-2.8,30.2,2
		C23.1-39.4,31.1-31.5,31.1-31.5z"/>
	<path class="st2" d="M22.1-20c-2.3-2.9-0.1-13.1,9-11.5c3.4,1.5,5.3,5.2,4.5,8.8c-0.5,3-1.7,5.5-8.4,9.5l-71.6,36V12.7L22.1-20"/>
	<path class="st3" d="M22.1-20L8.5-13.2l-5.9,3l-17.3,8.5c0,0-2.9,0-1.5,8.3c0.4,2.6,2.1,11.2-1.9,11.1c-3.2-0.1-1.1-13.4-3.4-13.9
		s-3.7,1.9-3.5,6.4s2.8,18.5-2.7,18c-6-0.5,1-21-3.5-21c-2,0-13.2,5.6-13.2,5.6l16.9-39.9l4.5-10.7c0,0,4-1.6,11.6-0.6
		c4.7,0.6,9.3,1.9,13.8,3.8C18.3-28.3,22.1-20,22.1-20z"/>
	<path class="st4" d="M8.5-13.2l-5.9,3C-7.1-8.6-10-18.5-6.3-22.7c4.6-5.2,12.3-3.5,14.5,0.3C9.9-19.6,10-16.1,8.5-13.2z"/>
	<path class="st4" d="M-16.2-27.6c-4.3,3-9.2,1.4-11.4,0.5l4.5-10.7c0,0,4-1.6,11.6-0.6C-10.9-36.9-9.7-32.1-16.2-27.6z"/>
	<path class="st4" d="M-30.1-12.2c1.2-3.7,5.2-5.6,8.9-4.4c0.3,0.1,0.6,0.2,0.9,0.4c6.7,3.2,2,14.8-5.6,12.2
		C-29.5-5.2-31.5-8.7-30.1-12.2z"/>
	<text transform="matrix(1 0 0 1 -13.9102 35.4521)" style="font-family:'Arial-BoldMT'; font-size:14px;">Food</text>
</symbol>
<title>NaPo4_170823_Food Icon</title>
<g id="Bild">
	<g id="Ebene_8">
		
			<use xlink:href="#Food"  width="90.9" height="100.4" x="-45.5" y="-50.2" transform="matrix(1 0 0 1 45.46 50.205)" style="overflow:visible;"/>
	</g>
</g>
</svg>
