<?xml version="1.0" encoding="UTF-8" standalone="no"?>
<!-- Created with Inkscape (http://www.inkscape.org/) -->
<svg xmlns:dc="http://purl.org/dc/elements/1.1/" xmlns:cc="http://creativecommons.org/ns#" xmlns:rdf="http://www.w3.org/1999/02/22-rdf-syntax-ns#" xmlns:svg="http://www.w3.org/2000/svg" xmlns="http://www.w3.org/2000/svg" xmlns:sodipodi="http://sodipodi.sourceforge.net/DTD/sodipodi-0.dtd" xmlns:inkscape="http://www.inkscape.org/namespaces/inkscape" id="svg2" sodipodi:version="0.32" inkscape:version="0.46" width="192" height="68" xml:space="preserve" sodipodi:docname="Université de Lausanne.svg" version="1.0" inkscape:output_extension="org.inkscape.output.svg.inkscape"><metadata id="metadata7"><rdf:RDF><cc:Work rdf:about=""><dc:format>image/svg+xml</dc:format><dc:type rdf:resource="http://purl.org/dc/dcmitype/StillImage"/></cc:Work></rdf:RDF></metadata><defs id="defs5"><inkscape:perspective sodipodi:type="inkscape:persp3d" inkscape:vp_x="0 : 526.18109 : 1" inkscape:vp_y="0 : 1000 : 0" inkscape:vp_z="744.09448 : 526.18109 : 1" inkscape:persp3d-origin="372.04724 : 350.78739 : 1" id="perspective9"/><clipPath clipPathUnits="userSpaceOnUse" id="clipPath19"><path d="M 0,0.0117188 L 1560,0.0117188 L 1560,580 L 0,580 L 0,0.0117188 z" id="path21"/></clipPath></defs><sodipodi:namedview inkscape:window-height="712" inkscape:window-width="1024" inkscape:pageshadow="2" inkscape:pageopacity="0.0" guidetolerance="10.0" gridtolerance="10.0" objecttolerance="10.0" borderopacity="1.0" bordercolor="#666666" pagecolor="#ffffff" id="base" showgrid="false" inkscape:zoom="4.8542739" inkscape:cx="95.791875" inkscape:cy="33.694291" inkscape:window-x="-4" inkscape:window-y="-4" inkscape:current-layer="g11"/><g id="g11" inkscape:groupmode="layer" inkscape:label="Lausanne" transform="matrix(1.25,0,0,-1.25,0,72.499903)"><g id="g13" transform="scale(0.1,0.1)"><g id="g15"><g id="g17" clip-path="url(#clipPath19)"><path d="M 1242.05,290.023 C 1235.07,291.195 1178.72,296.742 1142.63,294.828 C 1122.55,293.766 1037.34,284.25 1000.5,276.98 C 968.203,270.598 923.039,260.559 873.645,259.875 C 812.551,259.016 783.723,272.195 767.605,278.816 C 751.516,285.461 738.484,297.445 733.152,303.52 C 728.371,309.008 728.059,318.168 728.059,318.168 C 728.059,318.168 781.055,374.781 806.496,424.379 C 828.254,466.762 834.695,497.875 836.602,512.738 C 838.535,527.594 834.734,539.867 827.051,545.738 C 819.297,551.598 807.336,553.121 796.164,546.91 C 780.715,538.375 766.594,521.273 755.293,505.336 C 744.031,489.391 728.371,466.312 716.965,427.23 C 704.543,384.516 702.512,366.344 702.18,356.527 C 701.824,346.742 703.039,329.691 703.039,329.691 C 703.039,329.691 690.43,312.68 676.418,299.164 C 662.414,285.676 646.75,273.445 627.668,276.648 C 612.961,279.133 611.57,296.098 611.395,304.996 C 611.238,313.863 615.371,325.375 616.648,335.141 C 617.949,344.867 618.762,342.066 614.707,345.922 C 610.637,349.809 604.988,348.148 597.031,347.953 C 589.094,347.758 590.801,343.043 586.316,335.258 C 581.863,327.484 571.086,304.898 558.086,293.207 C 545.078,281.531 539.695,281.809 529.465,283.113 C 519.238,284.402 513.312,289.262 508.977,298.285 C 504.621,307.309 506.211,339.906 505.613,348.812 C 504.973,357.699 500.715,364.098 493.191,367.906 C 484.109,372.543 474.172,370.121 465.613,363.07 C 456.758,355.816 441.621,334.703 435.207,324.203 C 428.777,313.676 415.398,298.695 411.887,298.824 C 407.707,298.969 408.098,306.02 409.531,318.09 C 410.48,326.078 411.395,336.684 411.688,346.039 C 412.031,355.336 407.02,359.254 397.766,361.441 C 388.523,363.617 380.691,358.676 375,350.57 C 368.43,341.234 355.73,325.609 342.551,308.812 C 329.348,292.016 308.328,272.195 300.422,272.922 C 292.488,273.684 288.965,279.363 286.023,288.816 C 283.098,298.258 287.629,334.488 289.031,347.973 C 290.438,361.469 299.48,420.406 306.172,451.449 C 312.859,482.477 315.352,487.066 321.277,509.73 C 327.188,532.387 328.938,528.5 326.965,539.301 C 325.02,550.102 319.426,549.918 313.391,551.527 C 307.395,553.141 304.695,553.246 299.016,550.648 C 293.312,548.031 288.965,545.777 285.203,531.449 C 281.438,517.105 273.547,492.504 250.852,444.281 C 228.164,396.059 202.004,354.066 174.285,311.273 C 150.398,274.387 138.484,270.969 130.281,272.805 C 123.445,274.348 122.781,283.879 122.605,292.27 C 122.41,300.688 124.883,312.594 129.133,327.379 C 133.391,342.152 144.578,371.273 154.746,395.641 C 164.949,420.023 185.828,462.797 202.832,500.484 C 221.438,541.734 224.773,559.926 226.641,565.766 C 229.055,573.336 221.66,576.402 215.676,578.941 C 209.695,581.488 200.066,578.637 200.066,578.637 C 193.711,576.566 188.926,575.082 183.574,569.195 C 178.223,563.305 162.688,552.621 155.469,550.453 C 150.203,548.852 149.895,546.059 152.844,540.961 C 152.844,540.961 154.27,535.238 160.84,535.961 C 167.395,536.664 165.918,537.543 172.949,538.695 C 179.973,539.848 180.684,531.801 176.023,518.891 C 171.355,506 152.859,459.926 140.559,427.211 C 128.191,394.516 96.2383,319.984 93.0664,284.773 C 90.4805,256.516 88.293,238.176 105.867,222.566 C 129.211,201.824 180.32,243.996 198.293,278.723 C 210.227,301.703 254.387,384.652 262.449,402.094 C 270.52,419.547 285.598,451.234 282.961,443.375 C 280.383,435.531 265.676,373.051 259.055,317.27 C 252.422,261.516 271.66,256.301 284.973,250.227 C 298.293,244.172 315.652,255.105 324.719,261.809 C 333.855,268.469 367.668,312.465 370.652,318.441 C 373.664,324.391 380.969,324.379 380.832,321.109 C 380.742,317.836 380.871,292.035 385.613,280.676 C 390.359,269.309 394.805,263.547 408.176,258.406 C 421.496,253.293 429.188,262.004 444.656,283.562 C 460.574,305.707 468.645,326.41 472.285,330.844 C 477.312,336.918 477.102,327.484 477.93,318.512 C 478.855,308.598 479.336,291.859 491.438,277.434 C 503.523,263.02 511.824,255.73 536.184,258.645 C 560.559,261.516 583.957,294.262 583.957,294.262 C 583.957,294.262 586.008,272.258 601.789,257.258 C 617.605,242.219 625.398,242.707 649.309,245.613 C 673.223,248.484 712.52,300.043 712.52,300.043 C 712.52,300.043 730.422,276.164 751.992,264.109 C 778.938,249.055 831.074,238.879 875.852,238.254 C 920.645,237.629 993.301,250.754 1050.57,264.914 C 1101.05,277.414 1161.09,284.094 1183.48,284.695 C 1205.93,285.32 1235.32,279.855 1237.73,282.102 C 1240.14,284.348 1249.02,288.84 1242.05,290.023 L 1242.05,290.023 z M 757.273,463.48 C 780.066,502.348 800.5,521.039 807.062,518.402 C 813.605,515.766 813.562,513.969 808.816,499.652 C 804.109,485.375 794.492,451.977 769.148,416.098 C 743.762,380.219 724.27,355.602 724.27,355.602 C 724.27,355.602 728.145,413.832 757.273,463.48 L 757.273,463.48" style="fill:#1c95cd;fill-opacity:1;fill-rule:evenodd;stroke:none" id="path23"/></g></g><path d="M 597.488,411.898 C 597.527,412.445 596.609,413.812 599.363,413.531 C 602.102,413.246 604.52,412.309 604.812,412.203 C 605.09,412.094 606.777,412.035 606.777,412.035 C 606.777,412.035 608.371,419.086 609.062,419.82 C 609.734,420.543 611.152,420.797 611.863,422.184 C 612.578,423.578 613.777,425.609 616.289,426.664 C 618.777,427.719 618.699,427.828 621.262,427.719 C 623.801,427.641 627.02,427.797 628.895,427.086 C 630.793,426.352 631.316,426.137 632.598,424.684 C 633.879,423.207 635.461,422.309 635.383,420.512 C 635.332,418.715 635.383,418.238 635.168,416.82 C 634.934,415.426 634.121,414.691 634.949,413.414 C 635.754,412.172 636.105,411.391 635.891,409.887 C 635.605,408.383 636.309,406.285 634.875,405.668 C 633.43,405.043 628.895,402.562 626.98,402.152 C 625.09,401.742 618.484,399.703 616.75,399.672 C 615.066,399.652 609.562,399.547 607.766,399.703 C 605.984,399.859 601.855,400.395 601.152,401.832 C 600.422,403.285 599.773,403.871 599.25,405.59 C 598.762,407.301 597.488,411.898 597.488,411.898 L 597.488,411.898" style="fill:#1c95cd;fill-opacity:1;fill-rule:evenodd;stroke:none" id="path25"/><path d="M 0,143.191 L 15.1289,143.191 L 15.1289,99.7188 C 15.1289,86.8633 19.2188,78.4688 30.7539,78.4688 C 42.3242,78.4688 46.4062,86.8633 46.4062,99.7188 L 46.4062,143.191 L 61.5312,143.191 L 61.5312,95.0898 C 61.5312,74.8945 50.1055,66.5938 30.7539,66.5938 C 11.4375,66.5938 0,74.8945 0,95.0898 L 0,143.191" style="fill:#231f20;fill-opacity:1;fill-rule:nonzero;stroke:none" id="path27"/><path d="M 83.6328,143.191 L 102.195,143.191 L 130.918,86.8633 L 131.145,86.8633 L 131.145,143.191 L 145.613,143.191 L 145.613,67.8828 L 127.117,67.8828 L 98.3125,124.211 L 98.1133,124.211 L 98.1133,67.8828 L 83.6328,67.8828 L 83.6328,143.191" style="fill:#231f20;fill-opacity:1;fill-rule:nonzero;stroke:none" id="path29"/><path d="M 166.953,143.191 L 182.062,143.191 L 182.062,67.8828 L 166.953,67.8828 L 166.953,143.191" style="fill:#231f20;fill-opacity:1;fill-rule:nonzero;stroke:none" id="path31"/><path d="M 204.172,143.191 L 219.285,143.191 L 219.285,79.7344 L 248.547,79.7344 L 248.547,67.8828 L 204.172,67.8828 L 204.172,143.191" style="fill:#231f20;fill-opacity:1;fill-rule:nonzero;stroke:none" id="path33"/><path d="M 307.043,148.84 L 307.043,40.8906 L 299.562,40.8906 L 299.562,148.84 L 307.043,148.84 L 307.043,148.84" style="fill:#231f20;fill-opacity:1;fill-rule:nonzero;stroke:none" id="path35"/><path d="M 420.449,94.2109 C 420.449,71.9805 404.172,66.5938 393.137,66.5938 C 382.141,66.5938 365.859,71.9805 365.859,94.2109 L 365.859,143.191 L 373.27,143.191 L 373.27,94.2109 C 373.27,81.9258 380.105,73.0586 393.137,73.0586 C 406.211,73.0586 413,81.9258 413,94.2109 L 413,143.191 L 420.449,143.191 L 420.449,94.2109" style="fill:#231f20;fill-opacity:1;fill-rule:nonzero;stroke:none" id="path37"/><path d="M 443.547,109.973 C 443.547,114.188 443.547,118.508 443.098,122.898 L 449.695,122.898 L 449.695,113.113 L 449.914,113.113 C 452.18,118.059 456.309,124.211 467.746,124.211 C 481.301,124.211 486.496,115.145 486.496,103.074 L 486.496,67.8828 L 479.688,67.8828 L 479.688,101.316 C 479.688,111.711 476.047,118.391 466.633,118.391 C 454.23,118.391 450.359,107.488 450.359,98.3125 L 450.359,67.8828 L 443.547,67.8828 L 443.547,109.973" style="fill:#231f20;fill-opacity:1;fill-rule:nonzero;stroke:none" id="path39"/><path d="M 516.301,137.629 L 509.48,137.629 L 509.48,146.648 L 516.301,146.648 L 516.301,137.629 M 509.48,122.898 L 516.301,122.898 L 516.301,67.8828 L 509.48,67.8828 L 509.48,122.898" style="fill:#231f20;fill-opacity:1;fill-rule:nonzero;stroke:none" id="path41"/><path d="M 558.508,67.8828 L 550.52,67.8828 L 531.848,122.898 L 539.289,122.898 L 554.504,75.3438 L 554.695,75.3438 L 570.691,122.898 L 577.781,122.898 L 558.508,67.8828 L 558.508,67.8828" style="fill:#231f20;fill-opacity:1;fill-rule:nonzero;stroke:none" id="path43"/><path d="M 630.145,69.6016 C 625.391,67.668 619.238,66.5938 614.16,66.5938 C 595.945,66.5938 589.121,78.8789 589.121,95.3828 C 589.121,112.234 598.418,124.211 612.312,124.211 C 627.883,124.211 634.23,111.711 634.23,96.9258 L 634.23,93.4688 L 596.555,93.4688 C 596.555,81.8086 602.844,72.4141 614.719,72.4141 C 619.656,72.4141 626.902,74.4805 630.145,76.5156 L 630.145,69.6016 M 626.809,99.2695 C 626.809,108.895 622.898,118.391 612.773,118.391 C 602.715,118.391 596.555,108.352 596.555,99.2695 L 626.809,99.2695 L 626.809,99.2695" style="fill:#231f20;fill-opacity:1;fill-rule:nonzero;stroke:none" id="path45"/><path d="M 653.113,110.637 C 653.113,116.648 653.113,118.938 652.688,122.898 L 659.512,122.898 L 659.512,112.336 L 659.695,112.336 C 662.18,118.508 666.848,124.211 673.816,124.211 C 675.461,124.211 677.395,123.895 678.586,123.562 L 678.586,116.438 C 677.195,116.902 675.359,117.102 673.625,117.102 C 662.832,117.102 659.914,104.988 659.914,95.0898 L 659.914,67.8828 L 653.113,67.8828 L 653.113,110.637" style="fill:#231f20;fill-opacity:1;fill-rule:nonzero;stroke:none" id="path47"/><path d="M 690.793,75.8711 C 694.863,73.8398 699.875,72.4141 705.129,72.4141 C 711.594,72.4141 717.336,75.9844 717.336,82.2344 C 717.336,95.2812 690.891,93.2695 690.891,109.211 C 690.891,120.105 699.766,124.211 708.801,124.211 C 711.73,124.211 717.551,123.562 722.395,121.75 L 721.738,115.812 C 718.223,117.414 713.332,118.391 709.562,118.391 C 702.551,118.391 697.688,116.223 697.688,109.211 C 697.688,98.9766 724.797,100.266 724.797,82.2344 C 724.797,70.5977 713.855,66.5938 705.559,66.5938 C 700.281,66.5938 694.988,67.2188 690.145,69.1875 L 690.793,75.8711 L 690.793,75.8711" style="fill:#231f20;fill-opacity:1;fill-rule:nonzero;stroke:none" id="path49"/><path d="M 749.734,137.629 L 742.922,137.629 L 742.922,146.648 L 749.734,146.648 L 749.734,137.629 M 742.922,122.898 L 749.734,122.898 L 749.734,67.8828 L 742.922,67.8828 L 742.922,122.898" style="fill:#231f20;fill-opacity:1;fill-rule:nonzero;stroke:none" id="path51"/><path d="M 796.555,117.102 L 784.031,117.102 L 784.031,81.4961 C 784.031,76.5156 785.852,72.4141 791.379,72.4141 C 793.965,72.4141 795.676,72.9805 797.645,73.7227 L 798.074,68.1133 C 796.445,67.4336 793.086,66.5938 789.746,66.5938 C 777.656,66.5938 777.219,74.8945 777.219,84.9492 L 777.219,117.102 L 766.438,117.102 L 766.438,122.898 L 777.219,122.898 L 777.219,136.199 L 784.031,138.562 L 784.031,122.898 L 796.555,122.898 L 796.555,117.102" style="fill:#231f20;fill-opacity:1;fill-rule:nonzero;stroke:none" id="path53"/><path d="M 851.57,69.6016 C 846.848,67.668 840.664,66.5938 835.613,66.5938 C 817.375,66.5938 810.559,78.8789 810.559,95.3828 C 810.559,112.234 819.855,124.211 833.777,124.211 C 849.309,124.211 855.664,111.711 855.664,96.9258 L 855.664,93.4688 L 818.02,93.4688 C 818.02,81.8086 824.297,72.4141 836.164,72.4141 C 841.113,72.4141 848.32,74.4805 851.57,76.5156 L 851.57,69.6016 M 848.23,99.2695 C 848.23,108.895 844.324,118.391 834.188,118.391 C 824.172,118.391 818.02,108.352 818.02,99.2695 L 848.23,99.2695 M 836.902,144.172 L 845.422,144.172 L 831.848,128.645 L 826.863,128.645 L 836.902,144.172 L 836.902,144.172" style="fill:#231f20;fill-opacity:1;fill-rule:nonzero;stroke:none" id="path55"/><path d="M 954.102,67.8828 L 947.297,67.8828 L 947.297,76.6484 L 947.09,76.6484 C 943.418,69.6016 937.805,66.5938 929.914,66.5938 C 914.812,66.5938 907.273,79.0938 907.273,95.3828 C 907.273,112.121 913.762,124.211 929.914,124.211 C 940.73,124.211 946.133,116.34 947.09,113.625 L 947.297,113.625 L 947.297,148.84 L 954.102,148.84 L 954.102,67.8828 M 931.016,72.4141 C 943.098,72.4141 947.297,85.3594 947.297,95.3828 C 947.297,105.438 943.098,118.391 931.016,118.391 C 918.039,118.391 914.719,106.062 914.719,95.3828 C 914.719,84.7188 918.039,72.4141 931.016,72.4141 L 931.016,72.4141" style="fill:#231f20;fill-opacity:1;fill-rule:nonzero;stroke:none" id="path57"/><path d="M 1013.37,69.6016 C 1008.61,67.668 1002.46,66.5938 997.363,66.5938 C 979.148,66.5938 972.336,78.8789 972.336,95.3828 C 972.336,112.234 981.641,124.211 995.539,124.211 C 1011.09,124.211 1017.43,111.711 1017.43,96.9258 L 1017.43,93.4688 L 979.773,93.4688 C 979.773,81.8086 986.062,72.4141 997.938,72.4141 C 1002.86,72.4141 1010.13,74.4805 1013.37,76.5156 L 1013.37,69.6016 M 1009.99,99.2695 C 1009.99,108.895 1006.14,118.391 995.984,118.391 C 985.945,118.391 979.773,108.352 979.773,99.2695 L 1009.99,99.2695 L 1009.99,99.2695" style="fill:#231f20;fill-opacity:1;fill-rule:nonzero;stroke:none" id="path59"/><path d="M 1072.38,143.191 L 1079.86,143.191 L 1079.86,74.3633 L 1110.07,74.3633 L 1110.07,67.8828 L 1072.38,67.8828 L 1072.38,143.191" style="fill:#231f20;fill-opacity:1;fill-rule:nonzero;stroke:none" id="path61"/><path d="M 1157.75,76.7305 L 1157.5,76.7305 C 1154.5,70.1445 1146.85,66.5938 1140.05,66.5938 C 1124.4,66.5938 1121.93,77.1797 1121.93,82.1211 C 1121.93,100.598 1141.55,101.457 1155.79,101.457 L 1157.1,101.457 L 1157.1,104.27 C 1157.1,113.625 1153.74,118.391 1144.62,118.391 C 1138.87,118.391 1133.48,117.102 1128.39,113.855 L 1128.39,120.422 C 1132.57,122.488 1139.72,124.211 1144.62,124.211 C 1158.18,124.211 1163.89,118.059 1163.89,103.723 L 1163.89,79.4258 C 1163.89,75.0117 1163.89,71.6719 1164.43,67.8828 L 1157.75,67.8828 L 1157.75,76.7305 M 1157.1,95.6133 L 1155.17,95.6133 C 1143.39,95.6133 1129.36,94.4258 1129.36,82.3555 C 1129.36,75.0898 1134.55,72.4141 1140.82,72.4141 C 1156.77,72.4141 1157.1,86.3398 1157.1,92.2734 L 1157.1,95.6133" style="fill:#231f20;fill-opacity:1;fill-rule:nonzero;stroke:none" id="path63"/><path d="M 1228.96,80.832 C 1228.96,76.6484 1228.96,72.2734 1229.43,67.8828 L 1222.8,67.8828 L 1222.8,77.707 L 1222.62,77.707 C 1220.3,72.7461 1216.24,66.5938 1204.84,66.5938 C 1191.22,66.5938 1186.02,75.6523 1186.02,87.7266 L 1186.02,122.898 L 1192.82,122.898 L 1192.82,89.4805 C 1192.82,79.0938 1196.5,72.4141 1205.89,72.4141 C 1218.27,72.4141 1222.17,83.332 1222.17,92.4883 L 1222.17,122.898 L 1228.96,122.898 L 1228.96,80.832" style="fill:#231f20;fill-opacity:1;fill-rule:nonzero;stroke:none" id="path65"/><path d="M 1247.75,75.8711 C 1251.85,73.8398 1256.81,72.4141 1262.1,72.4141 C 1268.59,72.4141 1274.3,75.9844 1274.3,82.2344 C 1274.3,95.2812 1247.86,93.2695 1247.86,109.211 C 1247.86,120.105 1256.71,124.211 1265.76,124.211 C 1268.66,124.211 1274.52,123.562 1279.36,121.75 L 1278.71,115.812 C 1275.17,117.414 1270.28,118.391 1266.53,118.391 C 1259.53,118.391 1254.66,116.223 1254.66,109.211 C 1254.66,98.9766 1281.75,100.266 1281.75,82.2344 C 1281.75,70.5977 1270.86,66.5938 1262.54,66.5938 C 1257.27,66.5938 1251.97,67.2188 1247.12,69.1875 L 1247.75,75.8711 L 1247.75,75.8711" style="fill:#231f20;fill-opacity:1;fill-rule:nonzero;stroke:none" id="path67"/><path d="M 1331.5,76.7305 L 1331.28,76.7305 C 1328.26,70.1445 1320.61,66.5938 1313.82,66.5938 C 1298.14,66.5938 1295.68,77.1797 1295.68,82.1211 C 1295.68,100.598 1315.3,101.457 1329.54,101.457 L 1330.85,101.457 L 1330.85,104.27 C 1330.85,113.625 1327.49,118.391 1318.29,118.391 C 1312.62,118.391 1307.19,117.102 1302.14,113.855 L 1302.14,120.422 C 1306.34,122.488 1313.47,124.211 1318.29,124.211 C 1331.93,124.211 1337.64,118.059 1337.64,103.723 L 1337.64,79.4258 C 1337.64,75.0117 1337.64,71.6719 1338.18,67.8828 L 1331.5,67.8828 L 1331.5,76.7305 M 1330.85,95.6133 L 1328.91,95.6133 C 1317.14,95.6133 1303.07,94.4258 1303.07,82.3555 C 1303.07,75.0898 1308.29,72.4141 1314.57,72.4141 C 1330.52,72.4141 1330.85,86.3398 1330.85,92.2734 L 1330.85,95.6133" style="fill:#231f20;fill-opacity:1;fill-rule:nonzero;stroke:none" id="path69"/><path d="M 1359.77,109.973 C 1359.77,114.188 1359.77,118.508 1359.32,122.898 L 1365.93,122.898 L 1365.93,113.113 L 1366.13,113.113 C 1368.41,118.059 1372.53,124.211 1383.94,124.211 C 1397.55,124.211 1402.73,115.145 1402.73,103.074 L 1402.73,67.8828 L 1395.95,67.8828 L 1395.95,101.316 C 1395.95,111.711 1392.26,118.391 1382.86,118.391 C 1370.48,118.391 1366.55,107.488 1366.55,98.3125 L 1366.55,67.8828 L 1359.77,67.8828 L 1359.77,109.973" style="fill:#231f20;fill-opacity:1;fill-rule:nonzero;stroke:none" id="path71"/><path d="M 1425.69,109.973 C 1425.69,114.188 1425.69,118.508 1425.27,122.898 L 1431.88,122.898 L 1431.88,113.113 L 1432.08,113.113 C 1434.34,118.059 1438.43,124.211 1449.88,124.211 C 1463.48,124.211 1468.65,115.145 1468.65,103.074 L 1468.65,67.8828 L 1461.85,67.8828 L 1461.85,101.316 C 1461.85,111.711 1458.18,118.391 1448.82,118.391 C 1436.38,118.391 1432.51,107.488 1432.51,98.3125 L 1432.51,67.8828 L 1425.69,67.8828 L 1425.69,109.973" style="fill:#231f20;fill-opacity:1;fill-rule:nonzero;stroke:none" id="path73"/><path d="M 1528.55,69.6016 C 1523.82,67.668 1517.63,66.5938 1512.61,66.5938 C 1494.32,66.5938 1487.57,78.8789 1487.57,95.3828 C 1487.57,112.234 1496.82,124.211 1510.73,124.211 C 1526.27,124.211 1532.67,111.711 1532.67,96.9258 L 1532.67,93.4688 L 1494.99,93.4688 C 1494.99,81.8086 1501.26,72.4141 1513.12,72.4141 C 1518.1,72.4141 1525.33,74.4805 1528.55,76.5156 L 1528.55,69.6016 M 1525.23,99.2695 C 1525.23,108.895 1521.32,118.391 1511.17,118.391 C 1501.14,118.391 1494.99,108.352 1494.99,99.2695 L 1525.23,99.2695 L 1525.23,99.2695" style="fill:#231f20;fill-opacity:1;fill-rule:nonzero;stroke:none" id="path75"/></g></g></svg>