<?xml version="1.0" encoding="iso-8859-1"?>
<!-- Generator: Adobe Illustrator 19.0.0, SVG Export Plug-In . SVG Version: 6.00 Build 0)  -->
<svg version="1.1" id="Layer_1" xmlns="http://www.w3.org/2000/svg" xmlns:xlink="http://www.w3.org/1999/xlink" x="0px" y="0px"
	 viewBox="0 0 512 512" style="enable-background:new 0 0 512 512;" xml:space="preserve">
<circle style="fill:#FF5B62;" cx="256" cy="256" r="256"/>
<path style="fill:#FED198;" d="M1.408,282.934c43.295,12.149,88.996,26.382,117.943,39.357
	c52.148,23.375,272.824-6.257,387.686-15.943C483.645,423.622,380.15,511.999,256,511.999
	C123.712,511.999,14.87,411.657,1.408,282.934L1.408,282.934z"/>
<path style="fill:#FEFEFE;" d="M97.098,339.934c1.64-2.752-6.6-11.542-12.217,9.746c-0.392,1.498,4.904,9.086,8.944-2.442
	L97.098,339.934L97.098,339.934z M95.49,378.685c-1.497-3.346-15.033-4.727-0.618,13.341c1.388,1.745,11.389,3.818,4.853-5.868
	L95.49,378.685z M126.995,410.603c-1.767-0.989-18.347-0.758,8.405,11.789c1.007,0.471,14.606,0.424-0.966-7.636L126.995,410.603z
	 M174.989,429.57c-1.834-0.455-15.356,3.289,7.011,7.794c15.365,3.095,13.015-3.722,6.264-4.963L174.989,429.57L174.989,429.57z
	 M228.911,436.523c-1.707,0-13.842,6.282,9.727,6.041c16.08-0.165,11.082-6.21,3.629-6.034L228.911,436.523z M283.397,432.356
	c-1.061,0.177-12.987,9.888,15.385,2.922c7.009-1.72,8.417-8.197-4.901-5.099L283.397,432.356z M333.535,416.485
	c-2.278,1.06-5.835,12.528,17.652-2.299c1.556-0.981,3.93-9.635-9.384-2.052L333.535,416.485z M370.598,387.719
	c-1.89,2.534,4.654,12.147,13.612-8.702c0.573-1.335-3.383-9.642-9.367,1.876L370.598,387.719L370.598,387.719z M378.259,349.301
	c0.961,3.223,14.27,6.342,2.569-13.203c-0.963-1.612-10.88-5.058-5.526,5.707L378.259,349.301z"/>
<path style="fill:#FF5B62;" d="M114.015,358.334l67.435-1.44l51.134,5.902l-27.899,7.212L114.015,358.334L114.015,358.334z"/>
<path style="fill:#EEF3F7;" d="M302.22,146.426l36.654,21.104c7.188,11.66,7.234,23.872,1.315,36.552l-57.701,100.209
	c-48.787,84.727-103.734,56.555-103.734,56.555L302.22,146.426L302.22,146.426z M314.59,161.348l14.004,8.195l-67.841,115.934
	c-7.296,12.468-21.298,4.277-14.003-8.194L314.59,161.348z"/>
<path style="fill:#FEFEFE;" d="M344.417,184.642c0.321,6.346-1.141,12.829-4.226,19.438L282.488,304.29
	c-48.787,84.728-103.734,56.556-103.734,56.556c56.993,13.028,92.877-49.797,92.877-49.797L344.417,184.642z"/>
<path style="fill:#FAD24D;" d="M437.604,75.581l-41.763,64.647l-39.444,38.28c-4.894,4.749-11.35,3.387-13.786,1.985l-40.334-23.224
	c-6.946-4.001-8.323-5.435-3.73-13.397l68.441-118.626C393.356,37.953,417.206,55.049,437.604,75.581z"/>
<path style="fill:#FFF985;" d="M298.631,154.995c-0.863-2.153,0.028-4.869,2.745-9.575l68.528-118.725
	c-0.971-0.483-1.935-0.977-2.914-1.449l-68.441,118.626C294.925,150.154,295.019,152.375,298.631,154.995L298.631,154.995z"/>
<path style="fill:#D9DADA;" d="M316.896,165.686l-66.443,113.545c-3.105,5.307-2.351,9.837,0.1,12.331
	c-4.898-0.874-8.177-6.808-3.804-14.281l66.522-113.683L316.896,165.686z"/>
<path style="fill:#EDB937;" d="M347.736,92.64l46.222,24.225c2.461,1.289,3.465,4.334,2.234,6.765l-0.001,0.001
	c-1.232,2.43-4.25,3.364-6.711,2.076l-46.222-24.225c-2.461-1.29-3.467-4.334-2.234-6.764v-0.002
	C342.257,92.286,345.277,91.353,347.736,92.64L347.736,92.64z M370.247,53.987l46.222,24.225c2.461,1.288,3.465,4.332,2.234,6.764
	l-0.001,0.001c-1.232,2.432-4.251,3.365-6.711,2.076l-46.222-24.225c-2.461-1.29-3.467-4.334-2.234-6.764v-0.001
	C364.766,53.63,367.786,52.697,370.247,53.987z M358.991,73.313l46.223,24.225c2.46,1.289,3.464,4.334,2.234,6.764l-0.001,0.001
	c-1.232,2.432-4.251,3.365-6.711,2.076l-46.223-24.225c-2.46-1.289-3.465-4.332-2.234-6.764v-0.001
	C353.511,72.958,356.531,72.023,358.991,73.313z"/>
<g>
</g>
<g>
</g>
<g>
</g>
<g>
</g>
<g>
</g>
<g>
</g>
<g>
</g>
<g>
</g>
<g>
</g>
<g>
</g>
<g>
</g>
<g>
</g>
<g>
</g>
<g>
</g>
<g>
</g>
</svg>
