<?xml version="1.0" encoding="iso-8859-1"?>
<!-- Generator: Adobe Illustrator 19.0.0, SVG Export Plug-In . SVG Version: 6.00 Build 0)  -->
<svg version="1.1" id="Capa_1" xmlns="http://www.w3.org/2000/svg" xmlns:xlink="http://www.w3.org/1999/xlink" x="0px" y="0px"
	 viewBox="0 0 512 512" style="enable-background:new 0 0 512 512;" xml:space="preserve">
<circle style="fill:#497FC1;" cx="256" cy="256" r="256"/>
<path style="fill:#2D5D92;" d="M252.882,76.8v79.589h-13.292v14.605h-21.334c0,18.256,0,164.782,0,166.728l0,0l21.334,21.334v77.128
	h-21.334v12.143l62.478,62.478c113.062-10.842,204.64-95.213,226.357-204.74L260.103,59.077l0,0L252.882,76.8z"/>
<rect x="239.586" y="156.386" style="fill:#FFFFFF;" width="33.802" height="23.798"/>
<rect x="256" y="156.386" style="fill:#E4F3F6;" width="17.395" height="23.798"/>
<rect x="218.26" y="170.998" style="fill:#BFE2E4;" width="76.475" height="166.725"/>
<rect x="256" y="170.998" style="fill:#8ECECF;" width="38.725" height="166.725"/>
<rect x="218.26" y="170.998" style="fill:#E25F3F;" width="76.475" height="94.198"/>
<rect x="256" y="170.998" style="fill:#A2482A;" width="38.725" height="94.198"/>
<rect x="239.586" y="337.723" style="fill:#FFFFFF;" width="33.802" height="104.044"/>
<g>
	<rect x="256" y="337.723" style="fill:#E4F3F6;" width="17.395" height="104.044"/>
	<rect x="218.26" y="436.185" style="fill:#E4F3F6;" width="76.475" height="12.143"/>
</g>
<rect x="256" y="436.185" style="fill:#BFE2E4;" width="38.725" height="12.143"/>
<polygon style="fill:#FFFFFF;" points="260.103,59.077 252.882,76.8 252.882,156.389 260.103,156.389 "/>
<g>
	<rect x="218.26" y="188.721" style="fill:#A2482A;" width="19.692" height="4.923"/>
	<rect x="218.26" y="209.792" style="fill:#A2482A;" width="19.692" height="4.923"/>
	<rect x="218.26" y="230.863" style="fill:#A2482A;" width="19.692" height="4.923"/>
	<rect x="218.26" y="251.934" style="fill:#A2482A;" width="19.692" height="4.923"/>
</g>
<g>
	<rect x="218.26" y="273.004" style="fill:#8ECECF;" width="19.692" height="4.923"/>
	<rect x="218.26" y="294.075" style="fill:#8ECECF;" width="19.692" height="4.923"/>
</g>
<g>
</g>
<g>
</g>
<g>
</g>
<g>
</g>
<g>
</g>
<g>
</g>
<g>
</g>
<g>
</g>
<g>
</g>
<g>
</g>
<g>
</g>
<g>
</g>
<g>
</g>
<g>
</g>
<g>
</g>
</svg>
