<?xml version="1.0" encoding="utf-8"?>
<svg id="svg2" width="356" height="600" version="1.0" viewBox="-41.36285400390625 -13.522477149963379 438.7511291503906 553.2944946289062" xmlns="http://www.w3.org/2000/svg" xmlns:xlink="http://www.w3.org/1999/xlink">
  <defs id="defs5">
    <style id="style6" type="text/css">
   
    .str1 {stroke:#000000;stroke-width:3}
    .str0 {stroke:#000000;stroke-width:3}
    .str3 {stroke:#E54762;stroke-width:5}
    .str2 {stroke:#000000;stroke-width:5;stroke-linecap:round}
    .fil2 {fill:none}
    .fil3 {fill:#000000}
    .fil0 {fill:#FFEEEE}
    .fil1 {fill:#E54762}
   
  </style>
    <symbol id="Pfeil" data-name="Pfeil" viewBox="0 0 70 77.95">
      <path class="cls-1" d="M55.63,26.92a71.28,71.28,0,0,0-18.74,4.83,59,59,0,0,0-16.6,10.51,63.77,63.77,0,0,0-12.73,16A70.51,70.51,0,0,0,3,67.72,60.29,60.29,0,0,0,0,78,61.34,61.34,0,0,1,.92,67.14a73.82,73.82,0,0,1,2.6-10.69A69.34,69.34,0,0,1,30.43,20.24,86.6,86.6,0,0,1,51.59,9.79Z" style="fill: rgb(153, 153, 153);"/>
      <polygon class="cls-1" points="54.06 37.81 48.15 0 70 15.95 54.06 37.81" style="fill: rgb(153, 153, 153);"/>
    </symbol>
  </defs>
  <g id="g6514" transform="matrix(1, 0, 0, 1, 120.701675, 16.704239)">
    <path id="path2161" d="M 175.43398,86.678684 C 164.50882,87.621669 154.70918,95.663041 152.33726,106.69106 C 152.32105,106.7664 152.27987,106.83042 152.26553,106.90625 C 152.2554,106.95983 152.64297,105.10304 152.30139,106.90625 C 151.8487,109.296 151.39806,111.74668 151.47651,114.22261 C 151.55183,116.59962 152.94521,116.65731 155.3221,116.57808 C 157.699,116.49885 160.36831,115.4947 160.08398,113.13355 C 159.83272,111.04701 159.86587,107.88235 161.66049,105.06864 C 167.1419,96.474587 169.79653,96.889828 176.29933,96.288834 C 183.16137,95.654638 187.81473,97.851051 191.15881,100.53396 C 193.64238,102.5265 195.6555,107.50664 195.44636,112.75216 C 195.12372,120.84451 192.95866,127.10408 187.16167,131.97552 C 180.43234,137.63044 175.88535,133.45089 169.31463,129.40137 C 167.8984,127.48996 162.59386,128.0912 160.68245,129.50743 C 158.77104,130.92366 160.97535,132.61948 162.39278,134.52999 C 169.43714,144.02488 181.8017,145.99764 191.96751,139.11256 C 201.15424,132.55823 203.74606,123.29738 204.01797,112.57284 C 204.16878,106.39309 202.53578,99.631081 198.96108,93.134291 C 196.55411,88.759779 198.88935,92.999799 198.78176,92.88324 C 198.67417,92.766681 202.53308,95.289196 198.53071,92.668053 C 191.64433,87.830449 183.62634,86.495246 175.43398,86.678684 z " style="fill:#eee71f;fill-opacity:1;fill-rule:evenodd;stroke:#000000;stroke-width:1.14766335;stroke-linecap:round;stroke-linejoin:miter;stroke-miterlimit:4;stroke-dasharray:none;stroke-opacity:1"/>
    <path id="path6192" d="M 201.33973,98.753412 C 208.20422,90.661845 214.12726,77.278299 208.28585,68.531257 C 203.61996,61.544466 197.76052,54.205218 190.29493,49.704354 C 181.84942,44.612716 171.03448,46.244747 161.86898,48.331865 C 147.14364,51.685038 140.4237,67.05951 132.83284,78.496143 C 127.89364,85.93769 115.96936,92.42155 111.63107,84.024713 C 108.77986,78.506143 121.34963,73.921477 124.44237,67.874082 C 130.01039,56.986637 118.34262,44.908947 107.2556,45.219347 C 97.374209,45.495993 87.416412,47.231241 78.492163,51.068779 C 68.83946,55.219561 68.23563,67.786195 67.949876,77.342397 C 67.634816,87.878671 72.763948,97.691333 82.150466,103.17635 C 92.650108,109.31182 105.64435,114.10075 113.22792,123.10531 C 121.29984,132.68973 100.50151,130.23472 94.232332,132.57254 C 84.685582,136.1326 75.943318,145.6645 78.991006,156.25326 C 81.861635,166.22685 94.101789,164.34908 102.02871,164.33781 C 106.73178,164.33113 120.04408,164.89213 110.54703,169.67949 C 102.10055,173.93727 95.596601,181.99845 96.986529,191.80416 C 98.479199,202.3347 116.35917,200.90467 124.76098,206.51234 C 135.06053,213.38663 131.45085,220.52965 132.75847,235.24186 C 135.52915,250.68424 132.12184,245.92625 136.15371,246.04017 C 143.55112,247.21817 136.6725,260.23154 141.67176,227.44685 C 143.50365,215.43351 147.46287,207.95971 130.66318,196.65047 C 124.44807,192.46657 107.78188,196.24335 108.23659,187.6741 C 108.6692,179.52136 117.95031,180.68723 121.87309,174.75814 C 126.60359,167.60823 125.49754,155.27562 116.79555,153.13557 C 108.26063,151.0366 96.532746,156.48384 90.578619,152.41828 C 86.306032,149.50089 102.4952,140.62103 108.92649,140.71765 C 117.06665,140.83994 122.60148,140.491 125.1275,131.86271 C 127.51834,123.69619 123.23071,115.18167 115.93732,111.27374 C 106.05603,105.97917 96.984814,98.913645 87.56971,93.020959 C 80.54915,88.626959 79.298073,81.554907 79.06562,75.030174 C 78.788086,67.240055 81.693208,59.627208 90.62005,57.720564 C 97.462769,56.259058 106.07007,53.821199 112.07138,58.314124 C 119.44637,63.835469 106.43617,68.853069 103.11633,73.778064 C 98.3289,80.880226 99.68648,90.345535 106.667,95.012855 C 114.30068,100.11689 126.02339,101.76862 133.04804,95.997573 C 143.22617,87.635807 148.68706,74.86382 157.05492,64.757605 C 162.70753,57.930705 171.99264,57.780151 179.883,58.343172 C 188.54822,58.961483 193.86098,68.342237 198.10033,74.55649 C 201.10836,78.965802 196.78461,86.893681 193.54978,91.634541" style="fill:#eee71f;fill-opacity:1;fill-rule:evenodd;stroke:#000000;stroke-width:1.14766335;stroke-linecap:butt;stroke-linejoin:miter;stroke-miterlimit:4;stroke-dasharray:none;stroke-opacity:1"/>
    <path style="fill:#e54762;stroke:#000000;stroke-width:0.35299861" id="path11" d="M 193.39799,116.75796 C 193.70279,118.68807 193.83883,120.59433 191.87783,122.12178 C 190.52253,123.07861 189.26929,122.81922 188.2044,123.571 C 187.11467,124.48337 186.89096,125.92849 185.58537,126.56418 C 183.84287,127.79439 181.67649,126.74946 179.63179,125.47563 C 179.70899,124.42 179.71423,123.27212 179.79142,122.21648 C 180.96487,124.10543 182.16315,125.83381 184.53099,125.02026 C 186.68297,123.93001 185.72801,121.74383 187.34625,121.31646 C 188.40849,121.1386 189.32424,121.35022 190.41136,121.0118 C 191.47625,120.26 190.97259,119.61445 191.07201,118.97215 C 191.43701,118.28543 192.96105,117.35248 193.39799,116.75796 z " class="fil1 str0"/>
    <path style="fill:#e54762;stroke:#000000;stroke-width:0.35299861" id="path13" d="M 184.6305,113.79445 C 184.63576,112.64659 185.17211,111.4098 186.6517,109.65013 C 189.70244,107.21028 188.86388,105.94303 187.88145,104.49132 C 186.79431,104.82975 185.75431,105.42098 184.88304,106.03609 C 183.95158,109.26805 182.71008,111.71776 180.82106,113.33744 C 179.15048,114.65987 177.84751,114.72162 177.08091,113.5466 C 176.69892,112.67211 177.98228,111.62305 178.02286,108.01891 C 177.23665,105.8566 175.69823,104.65436 173.69538,104.78119 C 174.0355,104.25501 174.5444,103.75273 174.98134,103.1582 C 176.98157,103.60535 178.3761,104.6231 179.14005,106.37204 C 179.7379,107.52322 180.69548,109.13548 179.40166,112.48026 C 179.71692,112.11464 180.10416,111.84128 180.61305,111.33899 C 181.65831,109.5999 182.29411,107.72084 182.92991,105.84176 C 183.01496,103.06433 185.21928,101.07905 188.56695,102.29112 C 189.93923,102.89551 190.80265,104.0022 190.72023,106.2057 C 190.80915,107.85915 190.41669,109.28039 189.01429,109.98443 C 187.87485,111.21792 187.41305,111.973 187.14488,112.59141 C 186.70269,114.33378 185.94782,115.86784 186.27487,118.21132 C 186.29186,119.77255 189.54534,120.47902 190.69654,121.95462 C 191.77055,124.48584 189.14889,128.05294 185.87056,127.507 C 184.88288,127.20317 182.86303,125.76875 182.48629,123.7464 C 182.81992,119.36329 181.42539,118.34553 178.98298,119.64078 C 178.57088,120.07475 178.06199,120.57703 177.57797,120.91876 C 176.95266,120.50212 176.25539,119.99322 175.55812,119.48436 C 176.06964,118.40813 176.8938,117.54023 178.32107,116.67561 C 180.18001,116.36436 181.43063,117.19768 182.55959,118.2599 C 185.8052,120.6882 182.86827,124.6209 185.27797,125.20801 C 186.81376,126.98413 188.57853,126.16729 188.70806,124.21657 C 188.47256,122.95262 186.88708,121.49761 185.03598,120.08707 C 183.81547,117.94534 184.23541,115.7896 184.6305,113.79445 z " class="fil1 str0"/>
    <path style="fill:#e54762;stroke:#000000;stroke-width:0.35299861" id="path17" d="M 172.31912,110.32947 C 175.29528,108.37135 178.60631,107.03489 180.48098,103.28008 C 181.47915,101.2882 181.3405,99.955899 178.92818,99.942712 C 177.45647,99.980608 176.16525,102.75143 173.54885,105.17067 C 172.57817,106.42807 171.0044,107.68213 169.67395,108.47839 L 173.00597,102.55052 C 175.60015,99.717931 178.98839,97.325868 180.9389,98.094113 C 183.94905,99.258441 183.74495,101.69086 182.18815,104.50617 C 180.19707,107.34205 177.53619,108.93456 175.01922,110.71152 C 173.1027,113.06573 173.96084,115.32027 176.8572,114.99171 C 183.40211,113.37449 188.93973,110.46613 190.03335,113.98464 C 188.924,113.90972 187.86174,114.08757 186.70269,114.33378 C 185.69276,113.61658 181.19254,116.50764 176.82448,116.87406 C 173.39961,116.71763 170.92323,114.89047 172.31912,110.32947 z " class="fil1 str0"/>
    <path style="fill:#e54762;stroke:#000000;stroke-width:0.35299861" id="path21" d="M 127.32911,130.2176 C 131.75473,127.80826 151.68359,117.74694 156.87582,116.51262 C 159.02518,115.99634 160.16464,114.76282 160.51002,113.08879 C 162.75492,107.49936 162.40438,99.737694 171.69651,98.755351 C 173.6274,98.536297 174.62684,101.54922 173.65612,102.8066 C 170.06906,106.48323 169.72104,108.73119 172.20006,109.98445 C 175.23507,110.9882 178.38,109.05397 181.81795,106.34076 C 187.99136,101.55331 191.1153,104.21053 192.36334,105.61777 C 195.31849,108.25108 194.71931,112.67867 192.65887,114.84843 C 192.22718,114.29508 191.14268,114.05958 190.03335,113.98464 C 192.67462,111.40484 192.7322,109.36191 191.00539,107.14853 C 189.35055,105.02738 187.3503,104.58027 184.25248,106.76729 C 181.95395,108.24701 179.82423,109.75059 177.5257,111.23028 C 174.26175,112.81952 170.81729,111.67578 168.82755,108.93293 C 167.98902,107.66567 168.38409,105.67048 171.75274,102.29114 C 172.989,100.9893 170.77551,99.691581 167.8216,102.06305 C 165.40142,103.77168 164.18218,106.63476 163.27557,109.70615 C 164.80486,107.62533 166.81032,106.92459 168.61957,106.93447 C 168.42333,107.64509 168.42069,108.21901 168.82755,108.93293 C 167.11774,108.28077 165.37785,108.93705 164.23577,110.74449 C 163.38414,112.34689 162.82028,114.31817 161.82473,115.73612 C 164.11537,115.9782 165.94685,116.40144 167.39108,117.09808 C 169.41355,117.95854 170.33714,116.44838 169.52606,114.44663 C 168.20612,112.94716 167.73258,110.99316 168.00861,108.65298 C 168.34614,108.70073 168.68364,108.74847 168.82755,108.93293 C 169.18731,109.39405 169.71581,109.87904 170.10041,110.17961 C 169.03553,110.93141 172.89599,116.07208 171.53805,117.60282 C 170.49279,119.3419 169.06816,119.63259 167.40545,119.23322 C 160.22874,116.57684 137.18507,127.26396 129.05588,132.43099 C 128.48028,131.69319 127.9047,130.95539 127.32911,130.2176 z " class="fil1 str0"/>
    <path style="fill:none;stroke:#e54762;stroke-width:0.58833098" id="path111" d="M 127.46124,130.1817 C 127.8681,130.89563 128.46855,131.47285 128.97219,132.1184" class="fil2 str3"/>
    <path style="fill:none;stroke:#e54762;stroke-width:0.58833098" id="path113" d="M 133.93459,143.2955 C 134.46308,143.78053 136.59672,146.7078 136.76548,146.73168" class="fil2 str3"/>
    <path id="path6198" d="M 134.01051,244.9128 C 134.09005,312.74445 133.44532,380.58333 134.15396,448.40785 C 134.40982,472.89675 169.44451,478.1733 182.3169,462.40612 C 192.86062,449.49128 188.52784,424.7506 189.20622,398.55656 C 189.76286,377.06346 188.40825,350.87496 190.74771,329.81286 C 193.09697,308.66256 191.64068,290.20435 192.04359,268.53092 C 192.76787,229.57012 192.95839,227.09411 198.91741,213.78991 C 205.025,200.15399 213.08143,182.75642 200.01939,171.0235 C 186.16579,158.57956 174.39988,148.358 160.77813,138.10194 C 146.97915,127.71244 145.33756,111.00757 151.41238,96.624042 C 158.37352,80.14195 182.28513,87.378048 192.52292,73.905102 C 201.73173,61.786307 217.61167,66.703677 229.09763,72.980824 C 242.63622,80.379745 241.50095,95.618428 241.61411,108.46121 C 241.94039,145.49261 243.05681,187.41801 241.64821,224.37518 C 240.67855,249.81599 241.55946,270.69804 240.82305,296.21892 C 240.43641,330.45382 241.43198,364.7913 240.22875,398.96643 C 232.76659,404.42118 223.61623,375.28163 221.44103,396.4515 C 227.71098,401.13025 233.98093,405.80901 240.25089,410.48776 C 241.32393,442.38221 241.55614,465.21277 241.73445,496.9684 C 241.75436,500.51486 242.18118,506.1461 235.05564,517.79309 C 244.95084,517.72233 254.84604,517.65157 264.74124,517.58081 C 260.44484,511.22745 255.08665,506.36333 255.29766,497.28399 C 256.76025,434.35073 254.32952,370.80283 254.35158,307.56151 C 257.33565,297.61945 277.59632,298.80482 270.1459,288.31728 C 261.85478,292.91561 255.65272,296.91043 255.19908,282.5892 C 254.59351,263.47158 255.5891,243.97399 254.73817,224.60049 C 253.96638,207.0288 253.29988,189.10982 252.97848,171.54227 C 252.78433,160.92997 256.04372,155.78023 265.36314,154.77519 C 270.0265,140.12418 253.6016,159.1285 253.27396,143.53854 C 252.80846,121.38917 254.49847,100.16559 250.51711,79.828508 C 247.22931,63.034184 225.50264,57.295185 209.84336,54.397586 C 192.98267,51.277676 184.8421,71.579811 168.8174,72.916861 C 152.57944,74.271705 140.65251,87.111722 137.55571,103.88188 C 133.55731,125.53443 146.55702,141.49701 161.17494,154.54423 C 175.47699,167.30952 196.10268,176.04636 194.09648,189.69428 C 192.008,203.90191 180.92476,217.04616 180.75438,233.94442 C 180.44043,265.08134 178.39392,298.35079 180.63433,330.12679 C 181.70355,345.29159 182.95764,368.6894 183.51584,398.77861 C 183.46665,424.10606 188.42107,452.51369 174.0978,462.78808 C 161.26434,471.99379 139.63953,464.33664 139.73454,443.23882 C 140.03777,375.90536 139.18379,310.71255 139.74882,244.45249" style="fill:#eee71f;fill-opacity:1;fill-rule:evenodd;stroke:#000000;stroke-width:1.14766335;stroke-linecap:butt;stroke-linejoin:miter;stroke-miterlimit:4;stroke-opacity:1"/>
    <path style="fill:#e54762;stroke:#000000;stroke-width:0.35299861" id="path15" d="M 133.76582,143.27164 C 138.97904,137.44586 160.51779,121.95055 167.34002,122.99794 C 167.8463,123.06959 168.66783,122.7756 169.15452,121.85995 C 173.78946,115.87033 176.37968,119.1904 177.89325,120.55319 C 177.60021,121.33214 177.73887,122.66444 177.83041,123.74394 C 176.27238,121.55445 174.80852,119.87053 172.39098,121.00523 C 171.71331,121.48362 171.46475,123.08933 170.05976,124.3673 C 169.11653,124.89017 167.88552,125.04414 166.72645,125.29036 C 168.94515,125.44022 171.44902,126.53291 173.41002,125.00545 C 174.47491,124.25365 174.74833,122.48741 175.30956,121.09004 C 175.79096,121.32225 176.46338,121.9917 177.03899,122.72948 C 176.37831,124.76914 175.30821,126.66877 173.11174,126.93228 C 175.40239,127.17437 177.77022,126.36081 177.89975,124.4101 C 177.50076,121.97441 177.63294,119.44977 179.3035,118.12732 C 184.4094,114.66564 188.95148,113.17521 192.03356,114.43177 C 194.82526,115.89335 192.75957,119.21095 191.40691,119.59385 C 188.41113,120.56466 187.33188,119.18132 187.19847,116.70115 C 187.56084,116.58834 189.0574,116.38989 189.39492,116.43763 C 189.00244,117.85889 190.3996,118.30271 190.73973,117.77654 C 191.00791,117.15815 190.47941,116.67313 189.56368,116.46154 C 187.56084,116.58834 185.58285,116.55459 182.19459,118.94664 C 180.23361,120.47411 179.88822,122.14814 180.3147,123.84934 C 180.32644,126.55843 178.62576,129.1893 175.3448,129.21728 C 170.35667,128.01921 164.24538,127.17803 159.17217,128.7574 C 151.62801,131.8621 138.31965,144.4903 136.90939,146.91614 L 133.76582,143.27164 z " class="fil1 str0"/>
    <path id="path6495" d="M 265.70855,154.41176 C 266.05757,153.94288 266.10962,152.61436 266.10962,151.40374 C 266.10962,149.96064 265.97365,149.86403 265.30748,149.19786 C 265.09884,148.98922 265.03199,148.92237 264.90641,148.79679" style="fill:#eee71f;fill-opacity:1;fill-rule:evenodd;stroke:#eee71f;stroke-width:1.9;stroke-linecap:butt;stroke-linejoin:miter;stroke-miterlimit:4;stroke-dasharray:none;stroke-opacity:1"/>
    <path id="path6499" d="M 270.09846,288.93596 C 270.98261,290.05432 270.92757,290.25138 271.70314,290.95496 C 272.0992,291.41155 271.16707,294.31446 271.3148,294.88751" style="fill:none;fill-rule:evenodd;stroke:#eee71f;stroke-width:2.21495414;stroke-linecap:butt;stroke-linejoin:miter;stroke-miterlimit:4;stroke-dasharray:none;stroke-opacity:1"/>
    <path id="path6510" d="M 223.76888,388.96508 L 222.30293,392.21748 L 221.61882,396.22877" style="fill:none;fill-rule:evenodd;stroke:#eee71f;stroke-width:2.15582848;stroke-linecap:butt;stroke-linejoin:miter;stroke-miterlimit:4;stroke-dasharray:none;stroke-opacity:1"/>
    <path id="path6512" d="M 236.83156,517.69768 L 263.50267,517.78075" style="fill:none;fill-rule:evenodd;stroke:#eee71f;stroke-width:2;stroke-linecap:round;stroke-linejoin:miter;stroke-miterlimit:4;stroke-dasharray:none;stroke-opacity:1"/>
  </g>
  <g id="Ebene_13" data-name="Ebene 13" transform="matrix(3.260537, 0, 0, -3.253747, -35.696774, 247.371323)">
    <use width="70" height="77.95" transform="matrix(1, 0, 0, 1, 0, 0)" xlink:href="#Pfeil"/>
  </g>
</svg>