<?xml version="1.0" encoding="utf-8"?>
<svg viewBox="8.391304969787598 -2.777096748352051 480.54119873046875 413.2778625488281" width="480.54119873046875" height="413.2778625488281" xmlns="http://www.w3.org/2000/svg" xmlns:xlink="http://www.w3.org/1999/xlink" xmlns:bx="https://boxy-svg.com">
  <defs>
    <symbol id="Neues_Symbol_1" data-name="Neues Symbol 1" viewBox="0 0 55 55">
      <circle class="cls-4" cx="27.5" cy="27.5" r="27.5"/>
    </symbol>
    <style>.cls-1,.cls-15{fill:#eccbbd;}.cls-1,.cls-10,.cls-11,.cls-12,.cls-13,.cls-14,.cls-17,.cls-18,.cls-19,.cls-20,.cls-21,.cls-22,.cls-23,.cls-24,.cls-25,.cls-28,.cls-29,.cls-3,.cls-30,.cls-31,.cls-32,.cls-6,.cls-7,.cls-8{stroke:#ae5536;}.cls-1,.cls-10,.cls-11,.cls-12,.cls-13,.cls-14,.cls-17,.cls-18,.cls-20,.cls-21,.cls-22,.cls-23,.cls-24,.cls-25,.cls-28,.cls-29,.cls-3,.cls-30,.cls-31,.cls-32,.cls-33,.cls-6,.cls-7,.cls-8{stroke-linecap:round;}.cls-1,.cls-10,.cls-11,.cls-12,.cls-13,.cls-14,.cls-17,.cls-18,.cls-19,.cls-20,.cls-21,.cls-22,.cls-23,.cls-24,.cls-25,.cls-28,.cls-29,.cls-3,.cls-30,.cls-31,.cls-32,.cls-33,.cls-6,.cls-8{stroke-linejoin:round;}.cls-1,.cls-10,.cls-12,.cls-13,.cls-14,.cls-18,.cls-19,.cls-20,.cls-25,.cls-3,.cls-30,.cls-31,.cls-32,.cls-6,.cls-8{stroke-width:2px;}.cls-11,.cls-18,.cls-2,.cls-7{fill:none;}.cls-17,.cls-3,.cls-9{fill:#fff;}.cls-4{fill:#e5f3ea;}.cls-5{fill:#faf1ce;}.cls-6{fill:#f0f7f9;}.cls-7{stroke-miterlimit:10;}.cls-8{fill:#f6e6a7;}.cls-10{fill:#e3ecc1;}.cls-12{fill:#d5a696;}.cls-13{fill:#f4e297;}.cls-14{fill:#f8eec2;}.cls-16{clip-path:url(#clip-path);}.cls-19{fill:#f3e0d8;}.cls-20{fill:#e0eef2;}.cls-21{fill:#d4e9ed;}.cls-22{fill:#efd4c9;}.cls-23{fill:#e0eabb;}.cls-24{fill:#f8ecba;}.cls-25{fill:#f1d9d0;}.cls-26{clip-path:url(#clip-path-2);}.cls-27{clip-path:url(#clip-path-3);}.cls-28{fill:#cae3e9;}.cls-29{fill:#ebf4f7;}.cls-30{fill:#ebd4cd;}.cls-31{fill:#b5d8e1;}.cls-32{fill:#e3b4a1;}.cls-33{fill:#b6d391;stroke:#5e7658;}.cls-34,.cls-35{font-size:14px;font-family:Arial-BoldMT, Arial;font-weight:700;}.cls-35{fill:#5e7658;}</style>
  </defs>
  <circle class="cls-5" cx="59.42" cy="361.154" r="45" transform="matrix(5.243062, 0, 0, 4.389464, -67.353264, -1373.279541)"/>
  <use width="55" height="55" transform="matrix(0.699588, 0, 0, 0.643101, 29.584026, 14.99534)" xlink:href="#Neues_Symbol_1"/>
  <path class="cls-19" d="M 53.598 22.784 C 53.598 22.784 55.959 22.688 56.924 24.386 C 57.747 25.845 58.253 30.089 59.867 30.983 C 60.471 31.319 61.267 31.143 61.821 31.261 C 61.821 31.261 60.534 21.28 62.233 14.777 C 63.934 8.276 67.788 -0.625 71.81 -0.012 C 75.664 0.58 74.132 6.334 76.47 11.518 C 77.867 14.688 84.122 23.094 82.674 31.383 C 81.226 39.673 72.957 46.791 67.704 46.791 C 62.301 46.791 61.672 41.557 59.505 38.682 C 57.82 36.444 53.606 36.507 53.606 36.507"/>
  <path class="cls-11" d="M 67.172 24.926 C 68.497 24.926 69.323 23.608 68.662 22.553 C 68.356 22.062 67.786 21.763 67.172 21.763"/>
  <path class="cls-11" d="M 70.648 31.266 C 71.973 31.266 72.801 29.949 72.14 28.893 C 71.832 28.405 71.263 28.102 70.648 28.102"/>
  <path class="cls-11" d="M 68.929 40.076 C 70.252 40.076 71.082 38.76 70.418 37.704 C 70.112 37.214 69.542 36.914 68.929 36.914"/>
  <path class="cls-11" d="M 65.45 34.43 C 66.777 34.43 67.603 33.112 66.941 32.057 C 66.634 31.569 66.066 31.266 65.45 31.266"/>
  <path class="cls-11" d="M 66.739 17.472 C 68.063 17.472 68.892 16.154 68.228 15.099 C 67.92 14.611 67.354 14.308 66.739 14.308"/>
  <path class="cls-11" d="M 71.209 13.009 C 72.533 13.009 73.36 11.691 72.699 10.637 C 72.393 10.147 71.823 9.846 71.209 9.846"/>
  <path class="cls-11" d="M 75.492 35.075 C 76.615 35.075 77.317 33.989 76.755 33.12 C 76.497 32.718 76.015 32.469 75.492 32.469"/>
  <path class="cls-11" d="M 73.659 21.164 C 74.981 21.164 75.808 19.846 75.148 18.79 C 74.84 18.301 74.271 18 73.659 18"/>
  <path class="cls-11" d="M 77.617 27.499 C 78.942 27.499 79.771 26.181 79.107 25.125 C 78.8 24.635 78.232 24.333 77.617 24.333"/>
  <path class="cls-19" d="M 53.538 22.784 C 53.538 22.784 51.181 22.688 50.214 24.386 C 49.388 25.845 48.884 30.089 47.269 30.983 C 46.666 31.319 45.869 31.143 45.317 31.261 C 45.317 31.261 46.603 21.28 44.903 14.777 C 43.205 8.276 39.351 -0.625 35.327 -0.012 C 31.472 0.58 33.004 6.334 30.668 11.518 C 29.269 14.688 23.014 23.094 24.463 31.383 C 25.911 39.673 34.206 46.817 39.435 46.778 C 44.833 46.778 45.464 41.543 47.632 38.668 C 49.318 36.431 53.529 36.494 53.529 36.494"/>
  <path class="cls-11" d="M 39.972 24.926 C 38.646 24.926 37.819 23.608 38.483 22.553 C 38.788 22.062 39.356 21.763 39.972 21.763"/>
  <path class="cls-11" d="M 36.494 31.266 C 35.171 31.266 34.342 29.949 35.004 28.893 C 35.312 28.405 35.881 28.102 36.494 28.102"/>
  <path class="cls-11" d="M 38.214 40.076 C 36.892 40.076 36.064 38.76 36.725 37.704 C 37.034 37.214 37.6 36.914 38.214 36.914"/>
  <path class="cls-11" d="M 41.692 34.43 C 40.368 34.43 39.54 33.112 40.202 32.057 C 40.509 31.569 41.078 31.266 41.692 31.266"/>
  <path class="cls-11" d="M 40.398 17.472 C 39.074 17.472 38.245 16.154 38.909 15.099 C 39.216 14.611 39.784 14.308 40.398 14.308"/>
  <path class="cls-11" d="M 35.935 13.009 C 34.611 13.009 33.782 11.691 34.446 10.637 C 34.752 10.147 35.32 9.846 35.935 9.846"/>
  <path class="cls-11" d="M 31.24 35.633 C 29.915 35.633 29.087 34.315 29.752 33.259 C 30.058 32.772 30.625 32.469 31.24 32.469"/>
  <path class="cls-11" d="M 33.508 21.164 C 32.184 21.164 31.355 19.846 32.016 18.79 C 32.325 18.301 32.893 18 33.508 18"/>
  <path class="cls-11" d="M 29.521 27.499 C 28.196 27.499 27.366 26.181 28.029 25.125 C 28.336 24.635 28.906 24.333 29.521 24.333"/>
  <circle class="cls-33" cx="232.939" cy="229.265" r="3.99" transform="matrix(0.593062, 0, 0, 0.529191, -62.528751, -75.19767)"/>
  <circle class="cls-33" cx="59.85" cy="76.631" r="3.99" transform="matrix(0.699586, 0, 0, 0.6431, 23.973095, -1.545435)"/>
  <circle class="cls-33" cx="59.03" cy="67.491" r="3.99" transform="matrix(0.699588, 0, 0, 0.6431, 30.269299, -1.545435)"/>
  <text class="cls-35" style="white-space: pre; font-size: 14px;" x="34.052" y="86.35" transform="matrix(0.699588, 0, 0, 0.6431, 18.376354, -1.545435)">PTH</text>
  <circle class="cls-20" cx="186.6" cy="174.22" r="36.69" transform="matrix(6.127911, 0, 0, 4.939491, -893.794189, -659.624146)"/>
  <circle class="cls-21" cx="186.6" cy="174.22" r="31.43" transform="matrix(6.272307, 0, 0, 4.939491, -922.113098, -659.624146)"/>
  <circle class="cls-22" cx="186.6" cy="174.22" r="11.03" transform="matrix(4.255278, 0, 0, 4.215663, -641.158813, -560.620117)"/>
  <path class="cls-11" d="M 111.082 126.454 C 95.19 140.146 86.065 159.956 86.065 180.788 C 86.065 182.829 86.15 184.84 86.313 186.814" style="stroke-width: 4;"/>
  <path class="cls-11" d="M 172.73 231.66 C 191.659 228.411 208.536 217.945 219.714 202.518" style="stroke-width: 4;"/>
  <path class="cls-11" d="M 106.331 107.444 C 88.407 123.392 75.761 144.306 70.054 167.456" style="stroke-width: 4;"/>
  <polyline class="cls-11" points="91.719 153.76 108.332 160.676 108.332 160.725" style="stroke-width: 4;"/>
  <line class="cls-11" x1="197.886" y1="222.382" x2="187.829" y2="206.034" style="stroke-width: 4;"/>
  <circle class="cls-23" cx="227.958" cy="34.133" r="3.43" transform="matrix(5.003726, 0, 0, 4.939499, -932.209534, -70.21067)"/>
  <circle class="cls-23" cx="219.748" cy="30.713" r="1.42" transform="matrix(5.003783, 0, 0, 4.939536, -932.221313, -70.211731)"/>
  <rect class="cls-24" x="884.336" y="3317.01" width="39.245" height="69.27" rx="19.622" ry="19.622" transform="matrix(0.759641, -0.65034, 0.66013, 0.751262, -2791.481446, -1676.357475)" style="stroke-width: 4;"/>
  <path class="cls-11" d="M 96.872 249.089 C 96.872 249.089 87.914 258.969 94.67 268.848" style="stroke-width: 4;"/>
  <path class="cls-11" d="M 118.685 259.115 C 118.685 259.115 127.992 249.535 121.639 239.656" style="stroke-width: 4;"/>
  <text x="251.503" y="347.355" style="white-space: pre; fill: rgb(51, 51, 51); font-family: sans-serif; font-size: 24px;" transform="matrix(0.961344, 0, 0, 0.929718, -57.811779, -41.810085)"> </text>
  <path transform="matrix(0.721803, 0.15191, -0.157079, 0.698059, 27.961376, -401.674255)" d="M 552.623 486.714 A 36.738 36.738 0 1 1 518 462.262 L 518 499 Z" style="fill: rgb(6, 132, 37);" bx:shape="pie 518 499 0 36.738 70.463 360 1@44d7f6a8"/>
  <text x="217.009" y="416.47" style="white-space: pre; fill: rgb(51, 51, 51); font-family: sans-serif; font-size: 24px;" transform="matrix(0.515677, 0, 0, 0.614637, 312.912781, -205.041229)">PTHp</text>
  <text x="411.521" y="101.302" style="white-space: pre; fill: rgb(51, 51, 51); font-family: sans-serif; font-size: 24px;" transform="matrix(0.670787, 0, 0, 0.698478, 25.257977, -31.549919)">CaSR</text>
  <rect x="69.891" y="16.835" width="9.96" height="12.972" style="fill-rule: evenodd; fill: rgb(174, 84, 54); fill-opacity: 0.58;"/>
  <line style="stroke: rgb(0, 0, 0);" x1="76.296" y1="28.235" x2="97.497" y2="52.648" transform="matrix(0.999979, -0.006479, 0.006479, 0.999979, -0.260195, 0.563848)"/>
  <line style="stroke: rgb(0, 0, 0);" x1="93.367" y1="52.463" x2="98.196" y2="53.098" transform="matrix(0.99968, -0.025284, 0.025284, 0.99968, -1.30388, 2.438609)"/>
  <line style="stroke: rgb(0, 0, 0);" x1="98.498" y1="49.245" x2="97.821" y2="53.336" transform="matrix(0.99968, -0.025283, 0.025283, 0.99968, -1.2654, 2.498164)"/>
  <text x="121.87" y="80.039" style="white-space: pre; fill: rgb(51, 51, 51); font-family: sans-serif; font-size: 24px;" transform="matrix(0.51398, 0, 0, 0.60152, 108.68515, 291.862213)">inside parathyroid chief cells</text>
  <circle class="cls-33" cx="232.939" cy="229.265" r="3.99" transform="matrix(0.961341, 0, 0, 0.929718, 192.701233, -161.390808)"/>
  <circle class="cls-33" cx="435.02" cy="428.523" r="3.99" transform="matrix(0.961344, 0, 0, 0.929718, -15.585651, -348.569031)"/>
  <circle class="cls-33" cx="77.03" cy="100.491" r="3.99" transform="matrix(0.961344, 0, 0, 0.929717, 336.429779, -52.088684)"/>
  <circle class="cls-33" cx="232.939" cy="229.265" r="3.99" transform="matrix(0.961341, 0, 0, 0.929718, 210.75592, -186.265091)"/>
  <circle class="cls-33" cx="453.801" cy="401.769" r="3.99" transform="matrix(0.961344, 0, 0, 0.929718, -15.585651, -348.569031)"/>
  <circle class="cls-33" cx="77.03" cy="100.491" r="3.99" transform="matrix(0.961344, 0, 0, 0.929717, 354.484467, -76.96299)"/>
  <circle class="cls-33" cx="232.939" cy="229.265" r="3.99" transform="matrix(0.961341, 0, 0, 0.929718, 219.808167, -140.0215)"/>
  <circle class="cls-33" cx="68.85" cy="109.631" r="3.99" transform="matrix(0.961342, 0, 0, 0.929724, 363.536713, -30.720316)"/>
  <circle class="cls-33" cx="77.03" cy="100.491" r="3.99" transform="matrix(0.961344, 0, 0, 0.929717, 363.536713, -30.719383)"/>
</svg>