<?xml version="1.0" encoding="iso-8859-1"?>
<!-- Generator: Adobe Illustrator 19.0.0, SVG Export Plug-In . SVG Version: 6.00 Build 0)  -->
<svg version="1.1" id="Layer_1" xmlns="http://www.w3.org/2000/svg" xmlns:xlink="http://www.w3.org/1999/xlink" x="0px" y="0px"
	 viewBox="0 0 512 512" style="enable-background:new 0 0 512 512;" xml:space="preserve">
<g>
	<polygon style="fill:#49618C;" points="55.38,225.484 55.38,460.063 24.012,460.063 24.012,221.722 	"/>
	<polygon style="fill:#49618C;" points="487.978,221.733 487.978,460.063 456.61,460.063 456.61,225.484 	"/>
</g>
<path style="fill:#EDD154;" d="M512,51.937v166.536c-71.21,10.136-142.879,16.018-214.612,17.659
	C198.06,238.388,98.597,232.505,0,218.472V51.937c24.242,3.448,48.536,6.405,72.861,8.871h0.01
	C218.979,75.614,366.425,72.657,512,51.937z"/>
<g>
	<path style="fill:#3B4773;" d="M24.012,221.722l31.368,3.762v36.049c-10.459-1.16-20.919-2.414-31.368-3.762V221.722z"/>
	<path style="fill:#3B4773;" d="M487.978,221.733v36.039c-10.449,1.348-20.908,2.602-31.368,3.762v-36.049L487.978,221.733z"/>
</g>
<path style="fill:#D6B31D;" d="M297.388,236.131C198.06,238.388,98.597,232.505,0,218.472V51.937
	c24.242,3.448,48.536,6.405,72.861,8.871c0,0,65.045,164.498,224.392,175.313C297.294,236.121,297.347,236.131,297.388,236.131z"/>
<g>
	<path style="fill:#E24260;" d="M204.615,126.761c-0.11,0-0.219-0.002-0.329-0.006c-16.728-0.693-33.661-1.737-50.331-3.101
		c-4.313-0.353-7.524-4.137-7.171-8.45c0.353-4.313,4.136-7.521,8.45-7.171c16.46,1.349,33.182,2.379,49.7,3.063
		c4.325,0.179,7.685,3.831,7.507,8.154C212.266,123.462,208.794,126.761,204.615,126.761z"/>
	<path style="fill:#E24260;" d="M179.591,193.23c-4.328,0-7.837-3.509-7.837-7.837v-67.756c0-4.328,3.509-7.837,7.837-7.837
		c4.328,0,7.837,3.509,7.837,7.837v67.756C187.428,189.721,183.919,193.23,179.591,193.23z"/>
	<path style="fill:#E24260;" d="M372.89,122.313c-3.996,0-7.409-3.042-7.793-7.1c-0.408-4.309,2.756-8.132,7.065-8.539
		c16.473-1.557,33.135-3.472,49.526-5.692c4.287-0.585,8.238,2.425,8.818,6.715c0.581,4.288-2.425,8.237-6.715,8.817
		c-16.6,2.248-33.474,4.187-50.155,5.765C373.385,122.3,373.136,122.313,372.89,122.313z"/>
	<path style="fill:#E24260;" d="M397.841,187.457c-4.329,0-7.837-3.509-7.837-7.837v-67.756c0-4.328,3.508-7.837,7.837-7.837
		s7.837,3.509,7.837,7.837v67.756C405.677,183.948,402.169,187.457,397.841,187.457z"/>
	<path style="fill:#E24260;" d="M302.134,163.977c-2.025,0-3.975-0.784-5.438-2.193c-1.533-1.477-2.399-3.514-2.399-5.643v-37.009
		c0-4.215,3.333-7.675,7.546-7.832c6.476-0.24,13.062-0.538,19.573-0.883c6.874-0.375,13.309,1.974,18.166,6.579
		c4.805,4.558,7.452,10.79,7.452,17.547v2.32c0,13.731-11.12,25.491-24.788,26.214c-6.555,0.348-13.223,0.649-19.821,0.893
		C302.328,163.975,302.232,163.977,302.134,163.977z M309.971,126.659v21.32c3.83-0.167,7.657-0.352,11.446-0.554h0.001
		c5.39-0.284,9.943-5.122,9.943-10.562v-2.32c0-2.414-0.911-4.607-2.564-6.175c-1.704-1.616-4.045-2.438-6.55-2.3
		C318.169,126.284,314.062,126.482,309.971,126.659z"/>
	<path style="fill:#E24260;" d="M302.134,194.724c-4.329,0-7.837-3.509-7.837-7.837V156.14c0-4.214,3.332-7.674,7.545-7.832
		c2.078-0.077,4.158-0.16,6.235-0.248c10.521-0.446,20.378,3.208,27.746,10.274c7.23,6.933,11.211,16.387,11.211,26.62
		c0,4.328-3.508,7.837-7.837,7.837s-7.837-3.509-7.837-7.837c0-5.921-2.268-11.359-6.385-15.308
		c-3.974-3.81-9.263-5.897-15.004-5.948v23.187C309.971,191.215,306.462,194.724,302.134,194.724z"/>
	<path style="fill:#E24260;" d="M267.186,195.531c-4.329,0-7.837-3.509-7.837-7.837v-49.765c0-5.549-4.595-10.091-10.243-10.123
		c-2.784,0.025-5.346,1.027-7.263,2.934c-1.864,1.854-2.89,4.335-2.89,6.989v49.765c0,4.328-3.509,7.837-7.837,7.837
		c-4.328,0-7.837-3.509-7.837-7.837v-49.765c0-6.856,2.667-13.284,7.51-18.101c4.896-4.87,11.407-7.504,18.403-7.496
		c14.244,0.082,25.831,11.653,25.831,25.796v49.765C275.022,192.022,271.514,195.531,267.186,195.531z"/>
	<path style="fill:#E24260;" d="M256.036,164.226c-8.363,0-16.759-0.084-25.078-0.25c-4.327-0.087-7.765-3.664-7.678-7.992
		c0.087-4.328,3.677-7.737,7.992-7.678c11.897,0.239,23.956,0.304,35.842,0.197c0.023,0,0.048,0,0.071,0
		c4.296,0,7.797,3.462,7.836,7.766c0.039,4.328-3.438,7.868-7.767,7.907C263.53,164.209,259.786,164.226,256.036,164.226z"/>
	<path style="fill:#E24260;" d="M110.27,186.885c-0.982,0-1.975-0.06-2.976-0.18c-6.336-0.76-12.76-1.579-19.091-2.437
		c-4.288-0.581-7.294-4.528-6.715-8.817c0.581-4.288,4.525-7.293,8.817-6.715c6.252,0.846,12.596,1.656,18.855,2.406
		c2.234,0.27,4.288-0.316,5.786-1.644c1.513-1.343,2.346-3.333,2.346-5.607c0-5.347-4.579-10.415-9.999-11.065l-2.105-0.254
		c-13.33-1.616-23.771-13.427-23.771-26.887c0-6.75,2.663-12.827,7.5-17.113c4.89-4.333,11.336-6.266,18.157-5.438
		c6.251,0.76,12.603,1.482,18.879,2.146c4.304,0.457,7.424,4.314,6.968,8.618c-0.456,4.305-4.311,7.423-8.618,6.968
		c-6.358-0.674-12.791-1.404-19.118-2.174c-2.301-0.281-4.388,0.292-5.873,1.609c-1.453,1.287-2.22,3.148-2.22,5.382
		c0,5.39,4.665,10.683,9.984,11.329l2.086,0.251c13.35,1.604,23.806,13.299,23.806,26.627c0,6.721-2.776,13.037-7.618,17.332
		C121.178,184.925,115.907,186.885,110.27,186.885z"/>
</g>
<g>
</g>
<g>
</g>
<g>
</g>
<g>
</g>
<g>
</g>
<g>
</g>
<g>
</g>
<g>
</g>
<g>
</g>
<g>
</g>
<g>
</g>
<g>
</g>
<g>
</g>
<g>
</g>
<g>
</g>
</svg>
