<?xml version="1.0" encoding="utf-8"?>
<svg version="1.1" id="Layer_1" x="0px" y="0px" width="550px" height="400px" viewBox="25.235 182.013 63.557 63.893" enable-background="new 0 0 550 400" xmlns="http://www.w3.org/2000/svg">
  <polygon fill="#636161" points="102.611,199.731 102.611,196.649 119.861,196.649 119.861,199.731 112.841,199.731 112.841,228.131 &#10;&#9;109.631,228.131 109.631,199.731 "/>
  <g>
    <defs>
      <rect id="SVGID_1_" width="550" height="400"/>
    </defs>
    <clipPath id="SVGID_2_">
      <rect id="" width="550" height="400" transform="matrix(1, 0, 0, 1, 0, 0)"/>
    </clipPath>
    <path clip-path="url(#SVGID_2_)" fill="#636161" d="M123.906,195.857h2.996v13.162c1.212-1.598,2.547-2.793,4.002-3.585 c1.456-0.792,3.032-1.188,4.73-1.188c1.74,0,3.285,0.442,4.633,1.326c1.348,0.885,2.344,2.073,2.986,3.563 c0.642,1.492,0.963,3.828,0.963,7.009v11.985h-2.997v-11.107c0-2.683-0.106-4.473-0.32-5.372c-0.371-1.541-1.046-2.7-2.023-3.478 s-2.258-1.166-3.842-1.166c-1.812,0-3.434,0.599-4.868,1.798c-1.434,1.198-2.38,2.682-2.836,4.451 c-0.285,1.142-0.428,3.253-0.428,6.335v8.539h-2.996V195.857z"/>
    <path clip-path="url(#SVGID_2_)" fill="#636161" d="M170.241,220.405l2.525,1.326c-0.828,1.627-1.784,2.939-2.87,3.938 c-1.085,0.999-2.306,1.759-3.663,2.279c-1.357,0.521-2.892,0.781-4.606,0.781c-3.799,0-6.769-1.245-8.911-3.735 c-2.142-2.489-3.213-5.304-3.213-8.442c0-2.953,0.906-5.586,2.72-7.897c2.299-2.938,5.377-4.408,9.233-4.408 c3.97,0,7.14,1.505,9.511,4.516c1.685,2.126,2.541,4.779,2.57,7.961h-20.952c0.057,2.705,0.921,4.922,2.593,6.651 c1.671,1.729,3.735,2.595,6.192,2.595c1.185,0,2.339-0.206,3.46-0.619c1.122-0.411,2.075-0.959,2.861-1.642 C168.477,223.027,169.327,221.926,170.241,220.405 M170.241,214.134c-0.4-1.598-0.982-2.874-1.747-3.83 c-0.764-0.956-1.774-1.727-3.031-2.312c-1.258-0.585-2.579-0.878-3.964-0.878c-2.286,0-4.251,0.735-5.893,2.204 c-1.2,1.07-2.108,2.676-2.721,4.815H170.241z"/>
    <rect x="191.3" y="196.649" clip-path="url(#SVGID_2_)" fill="#636161" width="3.146" height="31.482"/>
    <path clip-path="url(#SVGID_2_)" fill="#636161" d="M201.166,204.846h2.996v4.174c1.198-1.598,2.525-2.793,3.981-3.585 c1.455-0.792,3.039-1.188,4.751-1.188c1.74,0,3.285,0.442,4.633,1.326c1.348,0.885,2.344,2.076,2.986,3.574 c0.642,1.498,0.963,3.831,0.963,6.998v11.985h-2.997v-11.107c0-2.683-0.111-4.473-0.333-5.372c-0.347-1.541-1.013-2.7-1.998-3.478 c-0.984-0.777-2.268-1.166-3.852-1.166c-1.813,0-3.436,0.599-4.87,1.798c-1.434,1.198-2.38,2.682-2.836,4.451 c-0.285,1.155-0.428,3.268-0.428,6.335v8.539h-2.996V204.846z"/>
    <polygon clip-path="url(#SVGID_2_)" fill="#636161" points="230.508,196.2 233.504,196.2 233.504,204.846 238.256,204.846 &#10;&#9;&#9;238.256,207.436 233.504,207.436 233.504,228.131 230.508,228.131 230.508,207.436 226.42,207.436 226.42,204.846 230.508,204.846 &#10;&#9;&#9;&#9;"/>
    <path clip-path="url(#SVGID_2_)" fill="#636161" d="M262.353,220.405l2.525,1.326c-0.828,1.627-1.784,2.939-2.87,3.938 c-1.085,0.999-2.306,1.759-3.663,2.279c-1.357,0.521-2.892,0.781-4.606,0.781c-3.799,0-6.769-1.245-8.911-3.735 c-2.142-2.489-3.213-5.304-3.213-8.442c0-2.953,0.906-5.586,2.72-7.897c2.299-2.938,5.377-4.408,9.233-4.408 c3.97,0,7.14,1.505,9.511,4.516c1.685,2.126,2.541,4.779,2.57,7.961h-20.952c0.057,2.705,0.921,4.922,2.593,6.651 c1.671,1.729,3.735,2.595,6.192,2.595c1.185,0,2.339-0.206,3.46-0.619c1.122-0.411,2.075-0.959,2.861-1.642 C260.589,223.027,261.439,221.926,262.353,220.405 M262.353,214.134c-0.4-1.598-0.982-2.874-1.747-3.83 c-0.764-0.956-1.774-1.727-3.031-2.312c-1.258-0.585-2.579-0.878-3.964-0.878c-2.286,0-4.251,0.735-5.893,2.204 c-1.2,1.07-2.108,2.676-2.721,4.815H262.353z"/>
    <path clip-path="url(#SVGID_2_)" fill="#636161" d="M270.101,204.846h3.06v3.403c0.913-1.34,1.876-2.344,2.89-3.007 c1.013-0.664,2.068-0.995,3.167-0.995c0.827,0,1.712,0.264,2.654,0.791l-1.563,2.525c-0.627-0.271-1.155-0.405-1.582-0.405 c-1,0-1.963,0.409-2.891,1.229c-0.927,0.82-1.633,2.094-2.118,3.82c-0.371,1.327-0.557,4.01-0.557,8.047v7.876h-3.06V204.846z"/>
    <path clip-path="url(#SVGID_2_)" fill="#636161" d="M296.104,195.857v2.932c-1.099-0.471-2.041-0.706-2.825-0.706 c-0.585,0-1.071,0.117-1.455,0.353c-0.386,0.235-0.628,0.506-0.728,0.813c-0.101,0.307-0.15,1.124-0.15,2.451l-0.002,3.146h4.86 v2.59h-4.863l-0.017,20.695h-2.996v-20.695h-3.061v-2.59h3.061v-3.638c0-1.669,0.153-2.86,0.46-3.575 c0.307-0.713,0.828-1.287,1.563-1.723c0.734-0.435,1.623-0.653,2.665-0.653C293.584,195.257,294.748,195.458,296.104,195.857"/>
    <path clip-path="url(#SVGID_2_)" fill="#636161" d="M323.477,204.846v23.285h-2.953v-4.002c-1.256,1.526-2.665,2.675-4.228,3.444 c-1.562,0.771-3.271,1.157-5.125,1.157c-3.296,0-6.11-1.195-8.443-3.585s-3.499-5.297-3.499-8.722c0-3.353,1.177-6.22,3.531-8.604 c2.354-2.382,5.187-3.573,8.496-3.573c1.912,0,3.643,0.406,5.19,1.22s2.906,2.033,4.077,3.659v-4.28H323.477z M311.502,207.136 c-1.667,0-3.206,0.41-4.617,1.229c-1.411,0.82-2.533,1.972-3.367,3.453c-0.833,1.482-1.25,3.05-1.25,4.703 c0,1.64,0.42,3.207,1.261,4.703s1.971,2.661,3.389,3.495s2.939,1.251,4.564,1.251c1.639,0,3.191-0.414,4.659-1.24 c1.468-0.827,2.598-1.945,3.389-3.356c0.791-1.41,1.187-3,1.187-4.767c0-2.693-0.888-4.945-2.662-6.756 C316.28,208.041,314.096,207.136,311.502,207.136"/>
    <path clip-path="url(#SVGID_2_)" fill="#636161" d="M352.817,209.683l-2.375,1.477c-2.053-2.725-4.853-4.088-8.401-4.088 c-2.836,0-5.191,0.913-7.064,2.736c-1.874,1.824-2.812,4.041-2.812,6.648c0,1.696,0.431,3.293,1.293,4.79 c0.862,1.495,2.046,2.656,3.549,3.483c1.504,0.826,3.188,1.24,5.056,1.24c3.42,0,6.213-1.362,8.38-4.088l2.375,1.563 c-1.112,1.677-2.607,2.976-4.483,3.899s-4.013,1.387-6.41,1.387c-3.681,0-6.734-1.17-9.159-3.51 c-2.426-2.34-3.639-5.187-3.639-8.54c0-2.254,0.567-4.348,1.701-6.281c1.136-1.933,2.693-3.441,4.677-4.526 c1.982-1.084,4.201-1.626,6.655-1.626c1.541,0,3.029,0.235,4.463,0.706s2.65,1.083,3.648,1.84 C351.27,207.55,352.118,208.513,352.817,209.683"/>
    <path clip-path="url(#SVGID_2_)" fill="#636161" d="M378.179,220.405l2.525,1.326c-0.828,1.627-1.785,2.939-2.87,3.938 c-1.086,0.999-2.307,1.759-3.663,2.279c-1.357,0.521-2.893,0.781-4.605,0.781c-3.799,0-6.77-1.245-8.911-3.735 c-2.143-2.489-3.214-5.304-3.214-8.442c0-2.953,0.907-5.586,2.721-7.897c2.299-2.938,5.376-4.408,9.232-4.408 c3.97,0,7.139,1.505,9.511,4.516c1.685,2.126,2.542,4.779,2.57,7.961h-20.952c0.057,2.705,0.921,4.922,2.593,6.651 c1.671,1.729,3.735,2.595,6.192,2.595c1.186,0,2.339-0.206,3.461-0.619c1.121-0.411,2.074-0.959,2.86-1.642 C376.415,223.027,377.265,221.926,378.179,220.405 M378.179,214.134c-0.399-1.598-0.982-2.874-1.746-3.83 c-0.765-0.956-1.775-1.727-3.032-2.312c-1.258-0.585-2.579-0.878-3.964-0.878c-2.286,0-4.25,0.735-5.893,2.204 c-1.2,1.07-2.107,2.676-2.722,4.815H378.179z"/>
    <path clip-path="url(#SVGID_2_)" fill="#636161" d="M430.057,201.936l-2.44,2.312c-1.755-1.727-3.678-3.036-5.768-3.928 s-4.127-1.338-6.11-1.338c-2.469,0-4.818,0.607-7.052,1.819c-2.234,1.213-3.963,2.857-5.19,4.934 c-1.227,2.075-1.84,4.27-1.84,6.581c0,2.368,0.635,4.619,1.904,6.752c1.271,2.133,3.025,3.81,5.266,5.029 c2.239,1.22,4.693,1.83,7.362,1.83c3.238,0,5.978-0.913,8.218-2.739s3.566-4.195,3.98-7.106H418.35v-3.038h13.568 c-0.028,4.865-1.474,8.729-4.334,11.589s-6.688,4.291-11.481,4.291c-5.821,0-10.43-1.983-13.825-5.95 c-2.611-3.053-3.917-6.584-3.917-10.594c0-2.981,0.749-5.757,2.247-8.325s3.553-4.576,6.164-6.024 c2.61-1.448,5.564-2.172,8.86-2.172c2.668,0,5.179,0.481,7.533,1.444C425.52,198.265,427.816,199.81,430.057,201.936"/>
    <path clip-path="url(#SVGID_2_)" fill="#636161" d="M436.284,204.846h3.061v3.403c0.913-1.34,1.876-2.344,2.89-3.007 c1.013-0.664,2.068-0.995,3.167-0.995c0.827,0,1.712,0.264,2.654,0.791l-1.563,2.525c-0.628-0.271-1.156-0.405-1.584-0.405 c-0.999,0-1.962,0.409-2.889,1.229c-0.928,0.82-1.635,2.094-2.119,3.82c-0.371,1.327-0.557,4.01-0.557,8.047v7.876h-3.061V204.846z "/>
    <path clip-path="url(#SVGID_2_)" fill="#636161" d="M461.452,204.247c3.588,0,6.561,1.298,8.919,3.895 c2.144,2.369,3.217,5.172,3.217,8.411c0,3.253-1.134,6.096-3.399,8.528s-5.178,3.649-8.736,3.649c-3.574,0-6.492-1.217-8.758-3.649 s-3.399-5.275-3.399-8.528c0-3.225,1.073-6.021,3.217-8.39C454.87,205.552,457.851,204.247,461.452,204.247 M461.441,207.179 c-2.491,0-4.632,0.92-6.422,2.761c-1.789,1.841-2.685,4.066-2.685,6.678c0,1.684,0.408,3.253,1.225,4.707 c0.815,1.456,1.918,2.58,3.308,3.372c1.389,0.791,2.913,1.188,4.574,1.188s3.186-0.396,4.575-1.188 c1.389-0.792,2.491-1.916,3.308-3.372c0.815-1.454,1.224-3.023,1.224-4.707c0-2.611-0.898-4.837-2.695-6.678 S463.919,207.179,461.441,207.179"/>
    <path clip-path="url(#SVGID_2_)" fill="#636161" d="M478.745,204.846h2.996v10.872c0,2.654,0.144,4.48,0.429,5.479 c0.429,1.428,1.247,2.555,2.454,3.382c1.208,0.828,2.647,1.241,4.319,1.241s3.09-0.402,4.255-1.209 c1.164-0.806,1.968-1.865,2.411-3.178c0.3-0.898,0.449-2.804,0.449-5.715v-10.872h3.062v11.429c0,3.21-0.375,5.629-1.124,7.255 c-0.749,1.627-1.876,2.9-3.382,3.82c-1.505,0.92-3.392,1.381-5.66,1.381s-4.163-0.461-5.683-1.381s-2.653-2.204-3.402-3.853 c-0.749-1.647-1.124-4.127-1.124-7.437V204.846z"/>
    <path clip-path="url(#SVGID_2_)" fill="#636161" d="M505.818,204.846h2.996v4.28c1.183-1.626,2.544-2.846,4.083-3.659 c1.54-0.813,3.257-1.22,5.153-1.22c3.306,0,6.136,1.191,8.487,3.573c2.352,2.384,3.528,5.251,3.528,8.604 c0,3.425-1.166,6.332-3.496,8.722s-5.142,3.585-8.435,3.585c-1.854,0-3.556-0.386-5.109-1.157c-1.554-0.77-2.958-1.918-4.212-3.444 v12.52h-2.996V204.846z M517.803,207.136c-2.591,0-4.772,0.905-6.544,2.715c-1.772,1.811-2.658,4.063-2.658,6.756 c0,1.767,0.395,3.356,1.185,4.767c0.789,1.411,1.922,2.529,3.395,3.356c1.474,0.826,3.028,1.24,4.666,1.24 c1.607,0,3.121-0.417,4.537-1.251c1.417-0.834,2.545-1.999,3.385-3.495s1.26-3.063,1.26-4.703c0-1.653-0.417-3.221-1.25-4.703 c-0.832-1.481-1.954-2.633-3.362-3.453C521.006,207.546,519.468,207.136,517.803,207.136"/>
    <path clip-path="url(#SVGID_2_)" fill-rule="evenodd" clip-rule="evenodd" fill="#BF1513" d="M76.417,237.184 c1.231-5.641,1.264-10.96,0.097-15.962c-2.429-10.446-10.087-19.487-22.978-27.122c3.732-3.525,8.343-6.173,13.835-7.943 c0.117,0.041,0.236,0.084,0.358,0.128c0.013,0.008,0.026,0.013,0.041,0.016c1.268,0.486,2.513,1.07,3.733,1.754 c1.05,0.587,2.083,1.244,3.101,1.972c6.691,4.783,10.71,11.23,12.059,19.343c1.35,8.12-0.367,15.526-5.15,22.218 C79.984,233.725,78.286,235.59,76.417,237.184"/>
    <path clip-path="url(#SVGID_2_)" fill-rule="evenodd" clip-rule="evenodd" fill="#8D120F" d="M74.604,190.026 c-1.018-0.728-2.051-1.385-3.101-1.972c-1.22-0.684-2.465-1.268-3.733-1.754c-0.015-0.003-0.028-0.007-0.041-0.016 c-0.122-0.044-0.241-0.087-0.358-0.128c-5.492,1.77-10.103,4.418-13.835,7.943c2.166,1.283,4.181,2.607,6.052,3.97 c5.448-0.471,10.516,0.177,15.204,1.945c4.104,1.544,7.914,3.948,11.433,7.204C84.56,200.112,80.691,194.378,74.604,190.026"/>
    <path clip-path="url(#SVGID_2_)" fill-rule="evenodd" clip-rule="evenodd" fill="#6C0F0E" d="M74.604,190.026 c-1.018-0.728-2.051-1.385-3.101-1.972c-1.22-0.684-2.465-1.268-3.733-1.754c-0.015-0.003-0.028-0.007-0.041-0.016 c-0.122-0.044-0.241-0.087-0.358-0.128c-5.492,1.77-10.103,4.418-13.835,7.943c1.173,0.695,2.303,1.402,3.39,2.121 c2.45-1.068,4.966-1.821,7.546-2.256c4.954-0.842,10.144-0.514,15.569,0.976C78.482,193.144,76.671,191.505,74.604,190.026"/>
    <path clip-path="url(#SVGID_2_)" fill-rule="evenodd" clip-rule="evenodd" fill="#BF1513" d="M67.767,184.369 c-5.5,1.753-10.124,4.386-13.871,7.896c-7.833,7.327-11.833,18.48-12,33.461c-4.919-1.469-9.518-4.139-13.796-8.01 c-0.023-0.122-0.046-0.247-0.068-0.375c0.001-0.015-0.001-0.028-0.007-0.043c-0.214-1.341-0.33-2.711-0.347-4.11 c-0.017-1.202,0.035-2.426,0.157-3.671c0.797-8.187,4.37-14.892,10.721-20.114c6.358-5.23,13.63-7.446,21.817-6.649 C62.988,183.008,65.453,183.547,67.767,184.369"/>
    <path clip-path="url(#SVGID_2_)" fill-rule="evenodd" clip-rule="evenodd" fill="#8D120F" d="M27.835,209.518 c-0.121,1.246-0.173,2.47-0.157,3.672c0.018,1.398,0.135,2.769,0.347,4.109c0.006,0.015,0.008,0.029,0.007,0.044 c0.023,0.128,0.046,0.252,0.069,0.375c4.278,3.871,8.877,6.54,13.796,8.009c0.028-2.518,0.167-4.925,0.411-7.226 c-3.131-4.482-5.104-9.195-5.916-14.14c-0.715-4.326-0.539-8.828,0.522-13.504C31.592,195.853,28.561,202.069,27.835,209.518"/>
    <path clip-path="url(#SVGID_2_)" fill-rule="evenodd" clip-rule="evenodd" fill="#6C0F0E" d="M27.835,209.518 c-0.121,1.246-0.173,2.47-0.157,3.672c0.018,1.398,0.135,2.769,0.347,4.109c0.006,0.015,0.008,0.029,0.007,0.044 c0.023,0.128,0.046,0.252,0.069,0.375c4.278,3.871,8.877,6.54,13.796,8.009c0.015-1.363,0.063-2.695,0.142-3.995 c-2.15-1.589-4.061-3.391-5.728-5.407c-3.205-3.869-5.517-8.529-6.939-13.972C28.595,204.6,28.082,206.987,27.835,209.518"/>
    <path clip-path="url(#SVGID_2_)" fill-rule="evenodd" clip-rule="evenodd" fill="#BF1513" d="M26.124,218.264 c4.268,3.887,8.86,6.574,13.774,8.064c10.261,3.12,21.92,1.007,34.978-6.339c1.187,4.995,1.175,10.313-0.039,15.953 c-0.094,0.081-0.191,0.163-0.29,0.247c-0.013,0.006-0.024,0.015-0.034,0.027c-1.055,0.854-2.182,1.641-3.386,2.355 c-1.033,0.615-2.119,1.182-3.257,1.699c-7.489,3.403-15.082,3.661-22.781,0.772c-7.708-2.892-13.264-8.081-16.667-15.569 C27.334,223.083,26.568,220.68,26.124,218.264"/>
    <path clip-path="url(#SVGID_2_)" fill-rule="evenodd" clip-rule="evenodd" fill="#8D120F" d="M67.869,240.278 c1.14-0.519,2.225-1.085,3.258-1.699c1.203-0.716,2.331-1.502,3.386-2.356c0.01-0.012,0.021-0.021,0.034-0.027 c0.099-0.084,0.196-0.166,0.29-0.247c1.213-5.641,1.226-10.958,0.038-15.952c-2.193,1.234-4.348,2.317-6.464,3.257 c-2.315,4.952-5.41,9.018-9.286,12.193c-3.389,2.782-7.376,4.88-11.956,6.3C54.156,243.857,61.056,243.374,67.869,240.278"/>
    <path clip-path="url(#SVGID_2_)" fill-rule="evenodd" clip-rule="evenodd" fill="#6C0F0E" d="M67.869,240.278 c1.14-0.519,2.225-1.085,3.258-1.699c1.203-0.716,2.331-1.502,3.386-2.356c0.01-0.012,0.021-0.021,0.034-0.027 c0.099-0.084,0.196-0.166,0.29-0.247c1.213-5.641,1.226-10.958,0.038-15.952c-1.188,0.669-2.365,1.293-3.531,1.875 c-0.301,2.656-0.906,5.212-1.819,7.663c-1.748,4.711-4.628,9.042-8.63,12.996C63.229,242.079,65.555,241.329,67.869,240.278"/>
  </g>
</svg>